<svg width="1350" height="670" viewBox="0 0 1350 670" fill="none" xmlns="http://www.w3.org/2000/svg">
<rect width="1350" height="670" fill="#3B6E88"/>
<path d="M107.718 259.727V291H114.131V270.569H114.391L122.484 290.847H126.851L134.944 270.645H135.204V291H141.617V259.727H133.463L124.851 280.739H124.484L115.872 259.727H107.718ZM153.631 291.443C157.097 291.443 159.342 289.931 160.487 287.748H160.67V291H166.839V275.18C166.839 269.592 162.106 267.24 156.883 267.24C151.264 267.24 147.569 269.928 146.668 274.203L152.684 274.692C153.127 273.134 154.516 271.989 156.853 271.989C159.067 271.989 160.334 273.104 160.334 275.028V275.119C160.334 276.631 158.731 276.83 154.654 277.227C150.012 277.654 145.843 279.212 145.843 284.449C145.843 289.091 149.157 291.443 153.631 291.443ZM155.494 286.953C153.493 286.953 152.058 286.022 152.058 284.235C152.058 282.403 153.57 281.502 155.86 281.181C157.28 280.983 159.601 280.647 160.38 280.128V282.617C160.38 285.075 158.349 286.953 155.494 286.953ZM171.886 267.545V292.054C171.886 293.825 171.138 294.711 169.046 294.711C168.771 294.711 168.527 294.711 168.191 294.68V299.765C168.664 299.78 169.046 299.795 169.504 299.795C175.032 299.795 178.391 297.597 178.391 292.161V267.545H171.886ZM175.123 264.522C177.062 264.522 178.65 263.041 178.65 261.224C178.65 259.422 177.062 257.941 175.123 257.941C173.199 257.941 171.611 259.422 171.611 261.224C171.611 263.041 173.199 264.522 175.123 264.522ZM194.199 291.458C201.315 291.458 205.743 286.587 205.743 279.364C205.743 272.096 201.315 267.24 194.199 267.24C187.083 267.24 182.655 272.096 182.655 279.364C182.655 286.587 187.083 291.458 194.199 291.458ZM194.23 286.419C190.947 286.419 189.267 283.411 189.267 279.319C189.267 275.226 190.947 272.203 194.23 272.203C197.452 272.203 199.131 275.226 199.131 279.319C199.131 283.411 197.452 286.419 194.23 286.419ZM209.973 291H216.478V277.73C216.478 274.844 218.585 272.859 221.456 272.859C222.357 272.859 223.594 273.012 224.204 273.211V267.439C223.624 267.301 222.815 267.21 222.158 267.21C219.532 267.21 217.379 268.737 216.524 271.638H216.279V267.545H209.973V291ZM237.642 291H251.003C258.027 291 261.768 287.335 261.768 282.357C261.768 277.73 258.455 274.936 254.897 274.768V274.463C258.149 273.73 260.547 271.424 260.547 267.744C260.547 263.056 257.065 259.727 250.163 259.727H237.642V291ZM244.254 285.594V277.288H249.797C252.973 277.288 254.943 279.12 254.943 281.701C254.943 284.052 253.339 285.594 249.644 285.594H244.254ZM244.254 272.814V265.072H249.278C252.209 265.072 253.874 266.583 253.874 268.843C253.874 271.317 251.858 272.814 249.155 272.814H244.254ZM272.637 291.443C276.103 291.443 278.348 289.931 279.493 287.748H279.676V291H285.845V275.18C285.845 269.592 281.111 267.24 275.889 267.24C270.27 267.24 266.574 269.928 265.674 274.203L271.69 274.692C272.133 273.134 273.522 271.989 275.859 271.989C278.073 271.989 279.34 273.104 279.34 275.028V275.119C279.34 276.631 277.737 276.83 273.66 277.227C269.018 277.654 264.849 279.212 264.849 284.449C264.849 289.091 268.163 291.443 272.637 291.443ZM274.5 286.953C272.499 286.953 271.064 286.022 271.064 284.235C271.064 282.403 272.576 281.502 274.866 281.181C276.286 280.983 278.607 280.647 279.386 280.128V282.617C279.386 285.075 277.355 286.953 274.5 286.953ZM290.892 291H297.397V277.73C297.397 274.844 299.504 272.859 302.375 272.859C303.276 272.859 304.513 273.012 305.123 273.211V267.439C304.543 267.301 303.734 267.21 303.077 267.21C300.451 267.21 298.298 268.737 297.443 271.638H297.198V267.545H290.892V291ZM308.487 291H314.991V277.73C314.991 274.844 317.099 272.859 319.969 272.859C320.87 272.859 322.107 273.012 322.718 273.211V267.439C322.138 267.301 321.328 267.21 320.672 267.21C318.045 267.21 315.892 268.737 315.037 271.638H314.793V267.545H308.487V291ZM326.081 291H332.586V267.545H326.081V291ZM329.349 264.522C331.288 264.522 332.876 263.041 332.876 261.224C332.876 259.422 331.288 257.941 329.349 257.941C327.425 257.941 325.837 259.422 325.837 261.224C325.837 263.041 327.425 264.522 329.349 264.522ZM348.486 291.458C354.289 291.458 358.198 288.633 359.114 284.281L353.097 283.884C352.441 285.671 350.761 286.602 348.593 286.602C345.34 286.602 343.279 284.449 343.279 280.952V280.937H359.251V279.151C359.251 271.18 354.426 267.24 348.226 267.24C341.324 267.24 336.85 272.142 336.85 279.38C336.85 286.816 341.263 291.458 348.486 291.458ZM343.279 276.906C343.416 274.234 345.447 272.096 348.333 272.096C351.158 272.096 353.113 274.112 353.128 276.906H343.279ZM363.496 291H370.001V277.73C370.001 274.844 372.108 272.859 374.979 272.859C375.88 272.859 377.117 273.012 377.728 273.211V267.439C377.148 267.301 376.338 267.21 375.682 267.21C373.055 267.21 370.902 268.737 370.047 271.638H369.803V267.545H363.496V291ZM400.606 274.234C400.026 269.912 396.544 267.24 390.619 267.24C384.618 267.24 380.663 270.019 380.679 274.539C380.663 278.051 382.878 280.326 387.459 281.243L391.52 282.052C393.566 282.464 394.498 283.212 394.528 284.388C394.498 285.778 392.986 286.77 390.711 286.77C388.39 286.77 386.848 285.778 386.451 283.869L380.053 284.205C380.663 288.694 384.481 291.458 390.696 291.458C396.773 291.458 401.125 288.358 401.14 283.732C401.125 280.342 398.911 278.311 394.361 277.379L390.116 276.524C387.932 276.051 387.123 275.303 387.138 274.173C387.123 272.768 388.711 271.852 390.726 271.852C392.986 271.852 394.33 273.088 394.651 274.6L400.606 274.234ZM427.802 267.545H423.144V265.973C423.144 264.385 423.786 263.453 425.694 263.453C426.473 263.453 427.267 263.621 427.786 263.789L428.932 258.903C428.122 258.658 426.336 258.261 424.335 258.261C419.922 258.261 416.639 260.75 416.639 265.85V267.545H413.326V272.432H416.639V291H423.144V272.432H427.802V267.545ZM441.533 291.458C448.649 291.458 453.077 286.587 453.077 279.364C453.077 272.096 448.649 267.24 441.533 267.24C434.417 267.24 429.989 272.096 429.989 279.364C429.989 286.587 434.417 291.458 441.533 291.458ZM441.564 286.419C438.281 286.419 436.601 283.411 436.601 279.319C436.601 275.226 438.281 272.203 441.564 272.203C444.786 272.203 446.465 275.226 446.465 279.319C446.465 283.411 444.786 286.419 441.564 286.419ZM457.307 291H463.812V277.73C463.812 274.844 465.919 272.859 468.79 272.859C469.691 272.859 470.928 273.012 471.538 273.211V267.439C470.958 267.301 470.149 267.21 469.492 267.21C466.866 267.21 464.713 268.737 463.858 271.638H463.613V267.545H457.307V291ZM107.718 351H128.852V345.549H114.33V338.082H127.706V332.63H114.33V325.179H128.79V319.727H107.718V351ZM140.43 337.44C140.445 334.417 142.247 332.646 144.873 332.646C147.485 332.646 149.057 334.356 149.042 337.227V351H155.547V336.066C155.547 330.599 152.34 327.24 147.454 327.24C143.973 327.24 141.453 328.95 140.399 331.684H140.125V327.545H133.925V351H140.43V337.44ZM171.241 360.284C177.944 360.284 182.708 357.23 182.708 351.229V327.545H176.249V331.485H176.005C175.135 329.576 173.226 327.24 169.301 327.24C164.156 327.24 159.804 331.241 159.804 339.227C159.804 347.03 164.033 350.664 169.317 350.664C173.058 350.664 175.15 348.786 176.005 346.847H176.28V351.137C176.28 354.359 174.218 355.612 171.393 355.612C168.523 355.612 167.072 354.359 166.538 352.939L160.521 353.749C161.3 357.444 164.919 360.284 171.241 360.284ZM171.378 345.778C168.187 345.778 166.446 343.243 166.446 339.196C166.446 335.211 168.156 332.417 171.378 332.417C174.539 332.417 176.31 335.089 176.31 339.196C176.31 343.335 174.509 345.778 171.378 345.778ZM194.39 319.727H187.885V351H194.39V319.727ZM199.601 351H206.106V327.545H199.601V351ZM202.869 324.522C204.808 324.522 206.396 323.041 206.396 321.224C206.396 319.422 204.808 317.941 202.869 317.941C200.945 317.941 199.356 319.422 199.356 321.224C199.356 323.041 200.945 324.522 202.869 324.522ZM230.831 334.234C230.251 329.912 226.77 327.24 220.845 327.24C214.844 327.24 210.889 330.019 210.904 334.539C210.889 338.051 213.103 340.326 217.684 341.243L221.746 342.052C223.792 342.464 224.724 343.212 224.754 344.388C224.724 345.778 223.212 346.77 220.937 346.77C218.616 346.77 217.073 345.778 216.676 343.869L210.278 344.205C210.889 348.694 214.706 351.458 220.921 351.458C226.999 351.458 231.351 348.358 231.366 343.732C231.351 340.342 229.137 338.311 224.586 337.379L220.341 336.524C218.157 336.051 217.348 335.303 217.363 334.173C217.348 332.768 218.936 331.852 220.952 331.852C223.212 331.852 224.556 333.088 224.876 334.6L230.831 334.234ZM241.967 337.44C241.982 334.417 243.83 332.646 246.487 332.646C249.129 332.646 250.686 334.341 250.671 337.227V351H257.176V336.066C257.191 330.569 253.954 327.24 249.068 327.24C245.51 327.24 243.128 328.92 242.059 331.684H241.784V319.727H235.462V351H241.967V337.44ZM278.752 319.727H272.247V351H278.752V319.727ZM294.652 351.458C300.455 351.458 304.364 348.633 305.28 344.281L299.263 343.884C298.607 345.671 296.927 346.602 294.759 346.602C291.506 346.602 289.445 344.449 289.445 340.952V340.937H305.417V339.151C305.417 331.18 300.592 327.24 294.392 327.24C287.49 327.24 283.016 332.142 283.016 339.38C283.016 346.816 287.429 351.458 294.652 351.458ZM289.445 336.906C289.582 334.234 291.613 332.096 294.499 332.096C297.324 332.096 299.279 334.112 299.294 336.906H289.445ZM316.35 351.443C319.817 351.443 322.061 349.931 323.207 347.748H323.39V351H329.559V335.18C329.559 329.592 324.825 327.24 319.603 327.24C313.984 327.24 310.288 329.928 309.387 334.203L315.404 334.692C315.847 333.134 317.236 331.989 319.572 331.989C321.787 331.989 323.054 333.104 323.054 335.028V335.119C323.054 336.631 321.451 336.83 317.374 337.227C312.732 337.654 308.563 339.212 308.563 344.449C308.563 349.091 311.876 351.443 316.35 351.443ZM318.213 346.953C316.213 346.953 314.778 346.022 314.778 344.235C314.778 342.403 316.289 341.502 318.58 341.181C320 340.983 322.321 340.647 323.1 340.128V342.617C323.1 345.075 321.069 346.953 318.213 346.953ZM334.606 351H341.111V337.73C341.111 334.844 343.218 332.859 346.089 332.859C346.99 332.859 348.226 333.012 348.837 333.211V327.439C348.257 327.301 347.448 327.21 346.791 327.21C344.165 327.21 342.012 328.737 341.156 331.638H340.912V327.545H334.606V351ZM358.705 337.44C358.721 334.417 360.522 332.646 363.149 332.646C365.76 332.646 367.333 334.356 367.318 337.227V351H373.823V336.066C373.823 330.599 370.616 327.24 365.729 327.24C362.248 327.24 359.728 328.95 358.675 331.684H358.4V327.545H352.2V351H358.705V337.44ZM378.949 351H385.454V327.545H378.949V351ZM382.217 324.522C384.156 324.522 385.744 323.041 385.744 321.224C385.744 319.422 384.156 317.941 382.217 317.941C380.293 317.941 378.705 319.422 378.705 321.224C378.705 323.041 380.293 324.522 382.217 324.522ZM397.17 337.44C397.185 334.417 398.987 332.646 401.614 332.646C404.225 332.646 405.798 334.356 405.782 337.227V351H412.287V336.066C412.287 330.599 409.081 327.24 404.194 327.24C400.713 327.24 398.193 328.95 397.14 331.684H396.865V327.545H390.665V351H397.17V337.44ZM427.981 360.284C434.684 360.284 439.449 357.23 439.449 351.229V327.545H432.99V331.485H432.745C431.875 329.576 429.966 327.24 426.042 327.24C420.896 327.24 416.544 331.241 416.544 339.227C416.544 347.03 420.774 350.664 426.057 350.664C429.798 350.664 431.89 348.786 432.745 346.847H433.02V351.137C433.02 354.359 430.959 355.612 428.134 355.612C425.263 355.612 423.812 354.359 423.278 352.939L417.262 353.749C418.04 357.444 421.659 360.284 427.981 360.284ZM428.118 345.778C424.927 345.778 423.186 343.243 423.186 339.196C423.186 335.211 424.896 332.417 428.118 332.417C431.279 332.417 433.051 335.089 433.051 339.196C433.051 343.335 431.249 345.778 428.118 345.778ZM454.577 351H461.082V327.545H454.577V351ZM457.845 324.522C459.784 324.522 461.372 323.041 461.372 321.224C461.372 319.422 459.784 317.941 457.845 317.941C455.921 317.941 454.333 319.422 454.333 321.224C454.333 323.041 455.921 324.522 457.845 324.522ZM472.798 337.44C472.813 334.417 474.615 332.646 477.242 332.646C479.853 332.646 481.426 334.356 481.41 337.227V351H487.915V336.066C487.915 330.599 484.709 327.24 479.822 327.24C476.341 327.24 473.821 328.95 472.768 331.684H472.493V327.545H466.293V351H472.798V337.44ZM124.683 388.721H131.02C130.928 383.148 126.347 379.3 119.384 379.3C112.528 379.3 107.504 383.087 107.535 388.767C107.52 393.379 110.772 396.02 116.055 397.288L119.461 398.143C122.866 398.967 124.759 399.945 124.775 402.052C124.759 404.342 122.591 405.9 119.232 405.9C115.796 405.9 113.322 404.312 113.108 401.181H106.71C106.878 407.946 111.719 411.443 119.308 411.443C126.943 411.443 131.432 407.793 131.447 402.067C131.432 396.86 127.508 394.096 122.072 392.875L119.262 392.203C116.544 391.577 114.269 390.569 114.315 388.324C114.315 386.309 116.101 384.827 119.338 384.827C122.499 384.827 124.439 386.263 124.683 388.721ZM135.773 411H142.278V397.73C142.278 394.844 144.385 392.859 147.256 392.859C148.157 392.859 149.393 393.012 150.004 393.211V387.439C149.424 387.301 148.615 387.21 147.958 387.21C145.332 387.21 143.179 388.737 142.323 391.638H142.079V387.545H135.773V411ZM153.367 411H159.872V387.545H153.367V411ZM156.635 384.522C158.574 384.522 160.162 383.041 160.162 381.224C160.162 379.422 158.574 377.941 156.635 377.941C154.711 377.941 153.123 379.422 153.123 381.224C153.123 383.041 154.711 384.522 156.635 384.522ZM175.157 411H195.176V405.549H181.769V379.727H175.157V411ZM206.121 411.443C209.587 411.443 211.832 409.931 212.977 407.748H213.16V411H219.329V395.18C219.329 389.592 214.596 387.24 209.373 387.24C203.754 387.24 200.059 389.928 199.158 394.203L205.174 394.692C205.617 393.134 207.007 391.989 209.343 391.989C211.557 391.989 212.824 393.104 212.824 395.028V395.119C212.824 396.631 211.221 396.83 207.144 397.227C202.502 397.654 198.333 399.212 198.333 404.449C198.333 409.091 201.647 411.443 206.121 411.443ZM207.984 406.953C205.984 406.953 204.548 406.022 204.548 404.235C204.548 402.403 206.06 401.502 208.35 401.181C209.771 400.983 212.092 400.647 212.87 400.128V402.617C212.87 405.075 210.839 406.953 207.984 406.953ZM230.881 397.44C230.896 394.417 232.698 392.646 235.325 392.646C237.936 392.646 239.509 394.356 239.493 397.227V411H245.998V396.066C245.998 390.599 242.792 387.24 237.905 387.24C234.424 387.24 231.904 388.95 230.851 391.684H230.576V387.545H224.376V411H230.881V397.44ZM251.125 411H257.63V403.548L259.386 401.548L265.784 411H273.404L264.257 397.7L272.961 387.545H265.494L257.981 396.448H257.63V379.727H251.125V411ZM282.841 411.443C286.307 411.443 288.552 409.931 289.697 407.748H289.88V411H296.049V395.18C296.049 389.592 291.316 387.24 286.093 387.24C280.474 387.24 276.779 389.928 275.878 394.203L281.894 394.692C282.337 393.134 283.726 391.989 286.063 391.989C288.277 391.989 289.544 393.104 289.544 395.028V395.119C289.544 396.631 287.941 396.83 283.864 397.227C279.222 397.654 275.053 399.212 275.053 404.449C275.053 409.091 278.367 411.443 282.841 411.443ZM284.704 406.953C282.703 406.953 281.268 406.022 281.268 404.235C281.268 402.403 282.78 401.502 285.07 401.181C286.49 400.983 288.811 400.647 289.59 400.128V402.617C289.59 405.075 287.559 406.953 284.704 406.953Z" fill="white"/>
<path d="M694.74 476.871H697.656C697.599 474.045 695.19 472.044 691.629 472.044C688.116 472.044 685.478 474.021 685.487 476.977C685.487 479.379 687.194 480.759 689.946 481.469L691.849 481.96C693.654 482.417 694.847 482.98 694.855 484.279C694.847 485.708 693.491 486.664 691.514 486.664C689.619 486.664 688.149 485.815 688.027 484.059H685.045C685.168 487.383 687.643 489.253 691.539 489.253C695.549 489.253 697.877 487.252 697.885 484.304C697.877 481.404 695.484 480.081 692.968 479.485L691.4 479.093C690.028 478.766 688.541 478.186 688.558 476.789C688.566 475.532 689.693 474.609 691.588 474.609C693.393 474.609 694.585 475.45 694.74 476.871ZM706.72 476.455H704.245V473.449H701.289V476.455H699.508V478.741H701.289V485.717C701.272 488.077 702.988 489.237 705.209 489.172C706.051 489.147 706.63 488.984 706.949 488.877L706.451 486.566C706.287 486.607 705.953 486.68 705.585 486.68C704.842 486.68 704.245 486.419 704.245 485.227V478.741H706.72V476.455ZM709.193 489H712.15V476.455H709.193V489ZM710.68 474.674C711.619 474.674 712.387 473.955 712.387 473.073C712.387 472.183 711.619 471.464 710.68 471.464C709.732 471.464 708.964 472.183 708.964 473.073C708.964 473.955 709.732 474.674 710.68 474.674ZM720.646 493.966C724.036 493.966 726.535 492.414 726.535 489.204V476.455H723.619V478.529H723.456C723.006 477.623 722.067 476.291 719.854 476.291C716.954 476.291 714.676 478.562 714.676 482.686C714.676 486.778 716.954 488.82 719.846 488.82C721.994 488.82 722.998 487.669 723.456 486.746H723.603V489.123C723.603 490.968 722.378 491.728 720.695 491.728C718.915 491.728 718.13 490.887 717.771 490.152L715.108 490.797C715.647 492.553 717.453 493.966 720.646 493.966ZM720.671 486.501C718.718 486.501 717.689 484.982 717.689 482.67C717.689 480.391 718.702 478.717 720.671 478.717C722.574 478.717 723.619 480.293 723.619 482.67C723.619 485.063 722.557 486.501 720.671 486.501ZM729.565 489H732.522V481.371C732.522 479.828 733.551 478.782 734.825 478.782C736.075 478.782 736.932 479.624 736.932 480.914V489H739.832V481.175C739.832 479.762 740.673 478.782 742.102 478.782C743.295 478.782 744.242 479.485 744.242 481.037V489H747.207V480.579C747.207 477.778 745.59 476.291 743.287 476.291C741.465 476.291 740.077 477.19 739.521 478.586H739.391C738.909 477.165 737.692 476.291 736.001 476.291C734.319 476.291 733.061 477.157 732.538 478.586H732.391V476.455H729.565V489ZM753.817 489.253C755.785 489.253 756.961 488.33 757.5 487.277H757.598V489H760.441V480.604C760.441 477.288 757.737 476.291 755.344 476.291C752.706 476.291 750.68 477.467 750.027 479.754L752.788 480.146C753.082 479.289 753.915 478.554 755.36 478.554C756.733 478.554 757.484 479.256 757.484 480.489V480.538C757.484 481.388 756.594 481.429 754.38 481.665C751.946 481.927 749.619 482.654 749.619 485.48C749.619 487.946 751.424 489.253 753.817 489.253ZM754.585 487.081C753.351 487.081 752.469 486.517 752.469 485.431C752.469 484.295 753.457 483.822 754.781 483.634C755.556 483.528 757.108 483.332 757.492 483.021V484.5C757.492 485.896 756.365 487.081 754.585 487.081ZM774.591 489.245C777.744 489.245 779.753 487.375 779.965 484.712H777.139C776.886 486.06 775.914 486.836 774.616 486.836C772.77 486.836 771.577 485.292 771.577 482.727C771.577 480.195 772.794 478.676 774.616 478.676C776.037 478.676 776.911 479.591 777.139 480.8H779.965C779.761 478.08 777.638 476.291 774.575 476.291C770.899 476.291 768.58 478.946 768.58 482.776C768.58 486.574 770.842 489.245 774.591 489.245ZM786.003 489.253C787.972 489.253 789.148 488.33 789.687 487.277H789.785V489H792.627V480.604C792.627 477.288 789.924 476.291 787.531 476.291C784.892 476.291 782.867 477.467 782.214 479.754L784.974 480.146C785.268 479.289 786.101 478.554 787.547 478.554C788.919 478.554 789.671 479.256 789.671 480.489V480.538C789.671 481.388 788.78 481.429 786.567 481.665C784.133 481.927 781.805 482.654 781.805 485.48C781.805 487.946 783.61 489.253 786.003 489.253ZM786.771 487.081C785.538 487.081 784.656 486.517 784.656 485.431C784.656 484.295 785.644 483.822 786.967 483.634C787.743 483.528 789.295 483.332 789.679 483.021V484.5C789.679 485.896 788.552 487.081 786.771 487.081ZM803.596 483.724C803.596 485.635 802.232 486.582 800.926 486.582C799.504 486.582 798.557 485.578 798.557 483.985V476.455H795.6V484.442C795.6 487.456 797.315 489.163 799.782 489.163C801.661 489.163 802.984 488.175 803.555 486.77H803.686V489H806.553V476.455H803.596V483.724ZM819.509 479.771C819.1 477.647 817.402 476.291 814.461 476.291C811.439 476.291 809.381 477.778 809.389 480.097C809.381 481.927 810.508 483.136 812.918 483.634L815.058 484.083C816.209 484.336 816.748 484.802 816.748 485.512C816.748 486.37 815.817 487.015 814.412 487.015C813.056 487.015 812.174 486.427 811.921 485.3L809.038 485.578C809.406 487.881 811.341 489.245 814.42 489.245C817.557 489.245 819.77 487.62 819.778 485.243C819.77 483.454 818.619 482.36 816.25 481.845L814.11 481.388C812.836 481.102 812.33 480.661 812.338 479.934C812.33 479.085 813.269 478.496 814.502 478.496C815.866 478.496 816.585 479.24 816.814 480.065L819.509 479.771ZM827.77 489.245C830.694 489.245 832.704 487.816 833.226 485.635L830.466 485.325C830.066 486.386 829.085 486.942 827.811 486.942C825.9 486.942 824.634 485.684 824.61 483.536H833.349V482.629C833.349 478.227 830.703 476.291 827.615 476.291C824.021 476.291 821.677 478.929 821.677 482.801C821.677 486.738 823.989 489.245 827.77 489.245ZM824.618 481.543C824.708 479.942 825.892 478.594 827.656 478.594C829.355 478.594 830.498 479.836 830.515 481.543H824.618ZM840.506 489.221C842.662 489.221 843.634 487.938 844.1 487.023H844.279V489H847.187V472.273H844.222V478.529H844.1C843.65 477.623 842.727 476.291 840.514 476.291C837.614 476.291 835.336 478.562 835.336 482.744C835.336 486.876 837.549 489.221 840.506 489.221ZM841.331 486.795C839.379 486.795 838.35 485.08 838.35 482.727C838.35 480.391 839.362 478.717 841.331 478.717C843.234 478.717 844.279 480.293 844.279 482.727C844.279 485.161 843.217 486.795 841.331 486.795ZM856.173 489H859.081V487.023H859.252C859.718 487.938 860.69 489.221 862.846 489.221C865.803 489.221 868.016 486.876 868.016 482.744C868.016 478.562 865.738 476.291 862.838 476.291C860.625 476.291 859.702 477.623 859.252 478.529H859.13V472.273H856.173V489ZM859.073 482.727C859.073 480.293 860.118 478.717 862.021 478.717C863.99 478.717 865.002 480.391 865.002 482.727C865.002 485.08 863.973 486.795 862.021 486.795C860.135 486.795 859.073 485.161 859.073 482.727ZM871.941 493.705C874.244 493.705 875.575 492.52 876.286 490.519L881.325 476.471L878.165 476.455L875.265 485.929H875.134L872.243 476.455H869.107L873.656 489.261L873.403 489.939C872.856 491.369 871.99 491.467 870.699 491.091L870.013 493.394C870.414 493.558 871.132 493.705 871.941 493.705ZM685.519 525.705H688.476V519.023H688.598C689.064 519.938 690.036 521.221 692.192 521.221C695.149 521.221 697.362 518.876 697.362 514.744C697.362 510.562 695.083 508.291 692.184 508.291C689.971 508.291 689.048 509.623 688.598 510.529H688.427V508.455H685.519V525.705ZM688.419 514.727C688.419 512.293 689.464 510.717 691.367 510.717C693.336 510.717 694.348 512.391 694.348 514.727C694.348 517.08 693.319 518.795 691.367 518.795C689.48 518.795 688.419 517.161 688.419 514.727ZM699.894 521H702.851V513.625C702.851 512.032 704.051 510.905 705.677 510.905C706.175 510.905 706.796 510.995 707.049 511.076V508.357C706.779 508.308 706.314 508.275 705.987 508.275C704.55 508.275 703.349 509.092 702.892 510.545H702.761V508.455H699.894V521ZM714.051 521.245C716.975 521.245 718.984 519.816 719.507 517.635L716.746 517.325C716.346 518.386 715.366 518.942 714.092 518.942C712.18 518.942 710.914 517.684 710.89 515.536H719.629V514.629C719.629 510.227 716.983 508.291 713.896 508.291C710.302 508.291 707.958 510.929 707.958 514.801C707.958 518.738 710.269 521.245 714.051 521.245ZM710.898 513.543C710.988 511.942 712.172 510.594 713.936 510.594C715.635 510.594 716.779 511.836 716.795 513.543H710.898ZM732.977 508.455H729.833L726.941 517.774H726.811L723.927 508.455H720.775L725.242 521H728.509L732.977 508.455ZM735.023 521H737.98V508.455H735.023V521ZM736.51 506.674C737.449 506.674 738.217 505.955 738.217 505.073C738.217 504.183 737.449 503.464 736.51 503.464C735.562 503.464 734.794 504.183 734.794 505.073C734.794 505.955 735.562 506.674 736.51 506.674ZM746.492 521.245C750.168 521.245 752.504 518.656 752.504 514.776C752.504 510.888 750.168 508.291 746.492 508.291C742.817 508.291 740.481 510.888 740.481 514.776C740.481 518.656 742.817 521.245 746.492 521.245ZM746.509 518.876C744.475 518.876 743.479 517.063 743.479 514.768C743.479 512.473 744.475 510.635 746.509 510.635C748.51 510.635 749.506 512.473 749.506 514.768C749.506 517.063 748.51 518.876 746.509 518.876ZM763.009 515.724C763.009 517.635 761.645 518.582 760.339 518.582C758.917 518.582 757.97 517.578 757.97 515.985V508.455H755.013V516.442C755.013 519.456 756.729 521.163 759.195 521.163C761.074 521.163 762.397 520.175 762.969 518.77H763.099V521H765.966V508.455H763.009V515.724ZM778.922 511.771C778.514 509.647 776.815 508.291 773.874 508.291C770.852 508.291 768.794 509.778 768.802 512.097C768.794 513.927 769.921 515.136 772.331 515.634L774.471 516.083C775.622 516.336 776.161 516.802 776.161 517.512C776.161 518.37 775.23 519.015 773.825 519.015C772.47 519.015 771.587 518.427 771.334 517.3L768.451 517.578C768.819 519.881 770.754 521.245 773.834 521.245C776.97 521.245 779.183 519.62 779.191 517.243C779.183 515.454 778.032 514.36 775.663 513.845L773.523 513.388C772.249 513.102 771.743 512.661 771.751 511.934C771.743 511.085 772.682 510.496 773.915 510.496C775.279 510.496 775.998 511.24 776.227 512.065L778.922 511.771ZM793.689 508.455H791.084V507.466C791.084 506.486 791.492 505.939 792.595 505.939C793.06 505.939 793.452 506.045 793.697 506.119L794.293 503.832C793.91 503.701 793.068 503.489 792.047 503.489C789.867 503.489 788.127 504.738 788.127 507.27V508.455H786.273V510.741H788.127V521H791.084V510.741H793.689V508.455ZM799.188 521.253C801.156 521.253 802.332 520.33 802.871 519.277H802.969V521H805.812V512.604C805.812 509.288 803.108 508.291 800.715 508.291C798.077 508.291 796.051 509.467 795.398 511.754L798.159 512.146C798.453 511.289 799.286 510.554 800.732 510.554C802.104 510.554 802.855 511.256 802.855 512.489V512.538C802.855 513.388 801.965 513.429 799.751 513.665C797.317 513.927 794.99 514.654 794.99 517.48C794.99 519.946 796.795 521.253 799.188 521.253ZM799.956 519.081C798.722 519.081 797.84 518.517 797.84 517.431C797.84 516.295 798.828 515.822 800.152 515.634C800.928 515.528 802.479 515.332 802.863 515.021V516.5C802.863 517.896 801.736 519.081 799.956 519.081ZM808.785 521H811.741V508.455H808.785V521ZM810.271 506.674C811.211 506.674 811.978 505.955 811.978 505.073C811.978 504.183 811.211 503.464 810.271 503.464C809.324 503.464 808.556 504.183 808.556 505.073C808.556 505.955 809.324 506.674 810.271 506.674ZM817.739 504.273H814.782V521H817.739V504.273ZM826.333 521.245C829.257 521.245 831.266 519.816 831.789 517.635L829.028 517.325C828.628 518.386 827.648 518.942 826.374 518.942C824.463 518.942 823.197 517.684 823.172 515.536H831.911V514.629C831.911 510.227 829.265 508.291 826.178 508.291C822.584 508.291 820.24 510.929 820.24 514.801C820.24 518.738 822.551 521.245 826.333 521.245ZM823.18 513.543C823.27 511.942 824.454 510.594 826.219 510.594C827.917 510.594 829.061 511.836 829.077 513.543H823.18ZM839.068 521.221C841.225 521.221 842.196 519.938 842.662 519.023H842.842V521H845.749V504.273H842.785V510.529H842.662C842.213 509.623 841.29 508.291 839.076 508.291C836.177 508.291 833.898 510.562 833.898 514.744C833.898 518.876 836.112 521.221 839.068 521.221ZM839.893 518.795C837.941 518.795 836.912 517.08 836.912 514.727C836.912 512.391 837.925 510.717 839.893 510.717C841.796 510.717 842.842 512.293 842.842 514.727C842.842 517.161 841.78 518.795 839.893 518.795ZM689.129 553.253C691.098 553.253 692.274 552.33 692.813 551.277H692.911V553H695.753V544.604C695.753 541.288 693.05 540.291 690.657 540.291C688.018 540.291 685.993 541.467 685.339 543.754L688.1 544.146C688.394 543.289 689.227 542.554 690.673 542.554C692.045 542.554 692.797 543.256 692.797 544.489V544.538C692.797 545.388 691.906 545.429 689.693 545.665C687.259 545.927 684.931 546.654 684.931 549.48C684.931 551.946 686.736 553.253 689.129 553.253ZM689.897 551.081C688.664 551.081 687.782 550.517 687.782 549.431C687.782 548.295 688.77 547.822 690.093 547.634C690.869 547.528 692.421 547.332 692.805 547.021V548.5C692.805 549.896 691.678 551.081 689.897 551.081ZM704.991 540.455H702.516V537.449H699.559V540.455H697.779V542.741H699.559V549.717C699.543 552.077 701.258 553.237 703.48 553.172C704.321 553.147 704.901 552.984 705.219 552.877L704.721 550.566C704.558 550.607 704.223 550.68 703.855 550.68C703.112 550.68 702.516 550.419 702.516 549.227V542.741H704.991V540.455ZM713.728 540.455H711.253V537.449H708.297V540.455H706.516V542.741H708.297V549.717C708.28 552.077 709.995 553.237 712.217 553.172C713.058 553.147 713.638 552.984 713.957 552.877L713.459 550.566C713.295 550.607 712.96 550.68 712.593 550.68C711.85 550.68 711.253 550.419 711.253 549.227V542.741H713.728V540.455ZM721.62 553.245C724.544 553.245 726.553 551.816 727.076 549.635L724.315 549.325C723.915 550.386 722.935 550.942 721.661 550.942C719.75 550.942 718.484 549.684 718.459 547.536H727.199V546.629C727.199 542.227 724.552 540.291 721.465 540.291C717.871 540.291 715.527 542.929 715.527 546.801C715.527 550.738 717.838 553.245 721.62 553.245ZM718.467 545.543C718.557 543.942 719.741 542.594 721.506 542.594C723.205 542.594 724.348 543.836 724.364 545.543H718.467ZM729.7 553H732.657V545.371C732.657 543.828 733.686 542.782 734.96 542.782C736.209 542.782 737.067 543.624 737.067 544.914V553H739.967V545.175C739.967 543.762 740.808 542.782 742.237 542.782C743.43 542.782 744.377 543.485 744.377 545.037V553H747.342V544.579C747.342 541.778 745.725 540.291 743.421 540.291C741.6 540.291 740.212 541.19 739.656 542.586H739.525C739.044 541.165 737.827 540.291 736.136 540.291C734.453 540.291 733.196 541.157 732.673 542.586H732.526V540.455H729.7V553ZM750.341 557.705H753.298V551.023H753.421C753.886 551.938 754.858 553.221 757.014 553.221C759.971 553.221 762.184 550.876 762.184 546.744C762.184 542.562 759.906 540.291 757.006 540.291C754.793 540.291 753.87 541.623 753.421 542.529H753.249V540.455H750.341V557.705ZM753.241 546.727C753.241 544.293 754.286 542.717 756.189 542.717C758.158 542.717 759.171 544.391 759.171 546.727C759.171 549.08 758.142 550.795 756.189 550.795C754.303 550.795 753.241 549.161 753.241 546.727ZM770.981 540.455H768.506V537.449H765.55V540.455H763.769V542.741H765.55V549.717C765.533 552.077 767.248 553.237 769.47 553.172C770.311 553.147 770.891 552.984 771.21 552.877L770.711 550.566C770.548 550.607 770.213 550.68 769.846 550.68C769.102 550.68 768.506 550.419 768.506 549.227V542.741H770.981V540.455ZM783.19 543.771C782.781 541.647 781.082 540.291 778.142 540.291C775.12 540.291 773.062 541.778 773.07 544.097C773.062 545.927 774.189 547.136 776.598 547.634L778.738 548.083C779.89 548.336 780.429 548.802 780.429 549.512C780.429 550.37 779.498 551.015 778.093 551.015C776.737 551.015 775.855 550.427 775.602 549.3L772.719 549.578C773.086 551.881 775.022 553.245 778.101 553.245C781.237 553.245 783.451 551.62 783.459 549.243C783.451 547.454 782.299 546.36 779.931 545.845L777.791 545.388C776.517 545.102 776.01 544.661 776.018 543.934C776.01 543.085 776.949 542.496 778.183 542.496C779.547 542.496 780.266 543.24 780.494 544.065L783.19 543.771Z" fill="white"/>
<path d="M1034.65 490H1045.05V487.46H1037.68V473.273H1034.65V490ZM1051.16 490.253C1053.12 490.253 1054.3 489.33 1054.84 488.277H1054.94V490H1057.78V481.604C1057.78 478.288 1055.08 477.291 1052.68 477.291C1050.05 477.291 1048.02 478.467 1047.37 480.754L1050.13 481.146C1050.42 480.289 1051.25 479.554 1052.7 479.554C1054.07 479.554 1054.82 480.256 1054.82 481.489V481.538C1054.82 482.388 1053.93 482.429 1051.72 482.665C1049.29 482.927 1046.96 483.654 1046.96 486.48C1046.96 488.946 1048.76 490.253 1051.16 490.253ZM1051.92 488.081C1050.69 488.081 1049.81 487.517 1049.81 486.431C1049.81 485.295 1050.8 484.822 1052.12 484.634C1052.9 484.528 1054.45 484.332 1054.83 484.021V485.5C1054.83 486.896 1053.7 488.081 1051.92 488.081ZM1066.23 490.245C1069.38 490.245 1071.39 488.375 1071.6 485.712H1068.77C1068.52 487.06 1067.55 487.836 1066.25 487.836C1064.4 487.836 1063.21 486.292 1063.21 483.727C1063.21 481.195 1064.43 479.676 1066.25 479.676C1067.67 479.676 1068.55 480.591 1068.77 481.8H1071.6C1071.4 479.08 1069.27 477.291 1066.21 477.291C1062.53 477.291 1060.21 479.946 1060.21 483.776C1060.21 487.574 1062.48 490.245 1066.23 490.245ZM1074.03 490H1076.98V485.786L1078.06 484.634L1081.9 490H1085.44L1080.29 482.87L1085.15 477.455H1081.7L1077.19 482.494H1076.98V473.273H1074.03V490ZM1098.3 490.245C1101.98 490.245 1104.31 487.656 1104.31 483.776C1104.31 479.888 1101.98 477.291 1098.3 477.291C1094.62 477.291 1092.29 479.888 1092.29 483.776C1092.29 487.656 1094.62 490.245 1098.3 490.245ZM1098.32 487.876C1096.28 487.876 1095.29 486.063 1095.29 483.768C1095.29 481.473 1096.28 479.635 1098.32 479.635C1100.32 479.635 1101.31 481.473 1101.31 483.768C1101.31 486.063 1100.32 487.876 1098.32 487.876ZM1113.18 477.455H1110.57V476.466C1110.57 475.486 1110.98 474.939 1112.08 474.939C1112.55 474.939 1112.94 475.045 1113.18 475.119L1113.78 472.832C1113.4 472.701 1112.55 472.489 1111.53 472.489C1109.35 472.489 1107.61 473.738 1107.61 476.27V477.455H1105.76V479.741H1107.61V490H1110.57V479.741H1113.18V477.455ZM1039.99 522.245C1043.67 522.245 1046 519.656 1046 515.776C1046 511.888 1043.67 509.291 1039.99 509.291C1036.32 509.291 1033.98 511.888 1033.98 515.776C1033.98 519.656 1036.32 522.245 1039.99 522.245ZM1040.01 519.876C1037.97 519.876 1036.98 518.063 1036.98 515.768C1036.98 513.473 1037.97 511.635 1040.01 511.635C1042.01 511.635 1043.01 513.473 1043.01 515.768C1043.01 518.063 1042.01 519.876 1040.01 519.876ZM1048.51 526.705H1051.47V520.023H1051.59C1052.06 520.938 1053.03 522.221 1055.19 522.221C1058.14 522.221 1060.36 519.876 1060.36 515.744C1060.36 511.562 1058.08 509.291 1055.18 509.291C1052.96 509.291 1052.04 510.623 1051.59 511.529H1051.42V509.455H1048.51V526.705ZM1051.41 515.727C1051.41 513.293 1052.46 511.717 1054.36 511.717C1056.33 511.717 1057.34 513.391 1057.34 515.727C1057.34 518.08 1056.31 519.795 1054.36 519.795C1052.47 519.795 1051.41 518.161 1051.41 515.727ZM1062.89 526.705H1065.84V520.023H1065.97C1066.43 520.938 1067.4 522.221 1069.56 522.221C1072.52 522.221 1074.73 519.876 1074.73 515.744C1074.73 511.562 1072.45 509.291 1069.55 509.291C1067.34 509.291 1066.42 510.623 1065.97 511.529H1065.8V509.455H1062.89V526.705ZM1065.79 515.727C1065.79 513.293 1066.83 511.717 1068.74 511.717C1070.7 511.717 1071.72 513.391 1071.72 515.727C1071.72 518.08 1070.69 519.795 1068.74 519.795C1066.85 519.795 1065.79 518.161 1065.79 515.727ZM1082.73 522.245C1086.41 522.245 1088.75 519.656 1088.75 515.776C1088.75 511.888 1086.41 509.291 1082.73 509.291C1079.06 509.291 1076.72 511.888 1076.72 515.776C1076.72 519.656 1079.06 522.245 1082.73 522.245ZM1082.75 519.876C1080.72 519.876 1079.72 518.063 1079.72 515.768C1079.72 513.473 1080.72 511.635 1082.75 511.635C1084.75 511.635 1085.75 513.473 1085.75 515.768C1085.75 518.063 1084.75 519.876 1082.75 519.876ZM1091.26 522H1094.21V514.625C1094.21 513.032 1095.41 511.905 1097.04 511.905C1097.54 511.905 1098.16 511.995 1098.41 512.076V509.357C1098.14 509.308 1097.68 509.275 1097.35 509.275C1095.91 509.275 1094.71 510.092 1094.25 511.545H1094.12V509.455H1091.26V522ZM1107.31 509.455H1104.84V506.449H1101.88V509.455H1100.1V511.741H1101.88V518.717C1101.87 521.077 1103.58 522.237 1105.8 522.172C1106.64 522.147 1107.22 521.984 1107.54 521.877L1107.04 519.566C1106.88 519.607 1106.55 519.68 1106.18 519.68C1105.43 519.68 1104.84 519.419 1104.84 518.227V511.741H1107.31V509.455ZM1117.78 516.724C1117.78 518.635 1116.42 519.582 1115.11 519.582C1113.69 519.582 1112.74 518.578 1112.74 516.985V509.455H1109.79V517.442C1109.79 520.456 1111.5 522.163 1113.97 522.163C1115.85 522.163 1117.17 521.175 1117.74 519.77H1117.87V522H1120.74V509.455H1117.78V516.724ZM1126.74 514.649C1126.74 512.836 1127.83 511.79 1129.39 511.79C1130.92 511.79 1131.83 512.795 1131.83 514.469V522H1134.79V514.012C1134.8 511.006 1133.08 509.291 1130.49 509.291C1128.61 509.291 1127.32 510.19 1126.75 511.586H1126.6V509.455H1123.78V522H1126.74V514.649ZM1137.79 522H1140.75V509.455H1137.79V522ZM1139.28 507.674C1140.22 507.674 1140.99 506.955 1140.99 506.073C1140.99 505.183 1140.22 504.464 1139.28 504.464C1138.33 504.464 1137.57 505.183 1137.57 506.073C1137.57 506.955 1138.33 507.674 1139.28 507.674ZM1150.06 509.455H1147.58V506.449H1144.62V509.455H1142.84V511.741H1144.62V518.717C1144.61 521.077 1146.32 522.237 1148.55 522.172C1149.39 522.147 1149.97 521.984 1150.28 521.877L1149.79 519.566C1149.62 519.607 1149.29 519.68 1148.92 519.68C1148.18 519.68 1147.58 519.419 1147.58 518.227V511.741H1150.06V509.455ZM1152.53 522H1155.49V509.455H1152.53V522ZM1154.02 507.674C1154.95 507.674 1155.72 506.955 1155.72 506.073C1155.72 505.183 1154.95 504.464 1154.02 504.464C1153.07 504.464 1152.3 505.183 1152.3 506.073C1152.3 506.955 1153.07 507.674 1154.02 507.674ZM1164.08 522.245C1167 522.245 1169.01 520.816 1169.54 518.635L1166.78 518.325C1166.38 519.386 1165.39 519.942 1164.12 519.942C1162.21 519.942 1160.94 518.684 1160.92 516.536H1169.66V515.629C1169.66 511.227 1167.01 509.291 1163.92 509.291C1160.33 509.291 1157.99 511.929 1157.99 515.801C1157.99 519.738 1160.3 522.245 1164.08 522.245ZM1160.93 514.543C1161.02 512.942 1162.2 511.594 1163.97 511.594C1165.66 511.594 1166.81 512.836 1166.82 514.543H1160.93ZM1182.08 512.771C1181.67 510.647 1179.97 509.291 1177.03 509.291C1174.01 509.291 1171.95 510.778 1171.96 513.097C1171.95 514.927 1173.07 516.136 1175.48 516.634L1177.62 517.083C1178.78 517.336 1179.31 517.802 1179.31 518.512C1179.31 519.37 1178.38 520.015 1176.98 520.015C1175.62 520.015 1174.74 519.427 1174.49 518.3L1171.6 518.578C1171.97 520.881 1173.91 522.245 1176.99 522.245C1180.12 522.245 1182.34 520.62 1182.34 518.243C1182.34 516.454 1181.19 515.36 1178.82 514.845L1176.68 514.388C1175.4 514.102 1174.9 513.661 1174.9 512.934C1174.9 512.085 1175.84 511.496 1177.07 511.496C1178.43 511.496 1179.15 512.24 1179.38 513.065L1182.08 512.771ZM1196.75 509.455H1194.28V506.449H1191.32V509.455H1189.54V511.741H1191.32V518.717C1191.3 521.077 1193.02 522.237 1195.24 522.172C1196.08 522.147 1196.66 521.984 1196.98 521.877L1196.48 519.566C1196.32 519.607 1195.98 519.68 1195.62 519.68C1194.87 519.68 1194.28 519.419 1194.28 518.227V511.741H1196.75V509.455ZM1204.56 522.245C1208.24 522.245 1210.57 519.656 1210.57 515.776C1210.57 511.888 1208.24 509.291 1204.56 509.291C1200.89 509.291 1198.55 511.888 1198.55 515.776C1198.55 519.656 1200.89 522.245 1204.56 522.245ZM1204.58 519.876C1202.55 519.876 1201.55 518.063 1201.55 515.768C1201.55 513.473 1202.55 511.635 1204.58 511.635C1206.58 511.635 1207.58 513.473 1207.58 515.768C1207.58 518.063 1206.58 519.876 1204.58 519.876ZM1034.52 558.705H1037.48V552.023H1037.6C1038.06 552.938 1039.04 554.221 1041.19 554.221C1044.15 554.221 1046.36 551.876 1046.36 547.744C1046.36 543.562 1044.08 541.291 1041.18 541.291C1038.97 541.291 1038.05 542.623 1037.6 543.529H1037.43V541.455H1034.52V558.705ZM1037.42 547.727C1037.42 545.293 1038.46 543.717 1040.37 543.717C1042.34 543.717 1043.35 545.391 1043.35 547.727C1043.35 550.08 1042.32 551.795 1040.37 551.795C1038.48 551.795 1037.42 550.161 1037.42 547.727ZM1048.89 554H1051.85V546.625C1051.85 545.032 1053.05 543.905 1054.68 543.905C1055.18 543.905 1055.8 543.995 1056.05 544.076V541.357C1055.78 541.308 1055.31 541.275 1054.99 541.275C1053.55 541.275 1052.35 542.092 1051.89 543.545H1051.76V541.455H1048.89V554ZM1061.38 554.253C1063.34 554.253 1064.52 553.33 1065.06 552.277H1065.16V554H1068V545.604C1068 542.288 1065.3 541.291 1062.9 541.291C1060.27 541.291 1058.24 542.467 1057.59 544.754L1060.35 545.146C1060.64 544.289 1061.47 543.554 1062.92 543.554C1064.29 543.554 1065.04 544.256 1065.04 545.489V545.538C1065.04 546.388 1064.15 546.429 1061.94 546.665C1059.51 546.927 1057.18 547.654 1057.18 550.48C1057.18 552.946 1058.98 554.253 1061.38 554.253ZM1062.14 552.081C1060.91 552.081 1060.03 551.517 1060.03 550.431C1060.03 549.295 1061.02 548.822 1062.34 548.634C1063.12 548.528 1064.67 548.332 1065.05 548.021V549.5C1065.05 550.896 1063.92 552.081 1062.14 552.081ZM1076.45 554.245C1079.6 554.245 1081.61 552.375 1081.82 549.712H1078.99C1078.74 551.06 1077.77 551.836 1076.47 551.836C1074.62 551.836 1073.43 550.292 1073.43 547.727C1073.43 545.195 1074.65 543.676 1076.47 543.676C1077.89 543.676 1078.77 544.591 1078.99 545.8H1081.82C1081.62 543.08 1079.49 541.291 1076.43 541.291C1072.75 541.291 1070.43 543.946 1070.43 547.776C1070.43 551.574 1072.7 554.245 1076.45 554.245ZM1090.51 541.455H1088.04V538.449H1085.08V541.455H1083.3V543.741H1085.08V550.717C1085.06 553.077 1086.78 554.237 1089 554.172C1089.84 554.147 1090.42 553.984 1090.74 553.877L1090.24 551.566C1090.08 551.607 1089.74 551.68 1089.38 551.68C1088.63 551.68 1088.04 551.419 1088.04 550.227V543.741H1090.51V541.455ZM1092.98 554H1095.94V541.455H1092.98V554ZM1094.47 539.674C1095.41 539.674 1096.18 538.955 1096.18 538.073C1096.18 537.183 1095.41 536.464 1094.47 536.464C1093.52 536.464 1092.76 537.183 1092.76 538.073C1092.76 538.955 1093.52 539.674 1094.47 539.674ZM1104.45 554.245C1107.61 554.245 1109.62 552.375 1109.83 549.712H1107C1106.75 551.06 1105.78 551.836 1104.48 551.836C1102.63 551.836 1101.44 550.292 1101.44 547.727C1101.44 545.195 1102.66 543.676 1104.48 543.676C1105.9 543.676 1106.77 544.591 1107 545.8H1109.83C1109.62 543.08 1107.5 541.291 1104.44 541.291C1100.76 541.291 1098.44 543.946 1098.44 547.776C1098.44 551.574 1100.71 554.245 1104.45 554.245ZM1117.81 554.245C1120.73 554.245 1122.74 552.816 1123.27 550.635L1120.51 550.325C1120.11 551.386 1119.13 551.942 1117.85 551.942C1115.94 551.942 1114.67 550.684 1114.65 548.536H1123.39V547.629C1123.39 543.227 1120.74 541.291 1117.66 541.291C1114.06 541.291 1111.72 543.929 1111.72 547.801C1111.72 551.738 1114.03 554.245 1117.81 554.245ZM1114.66 546.543C1114.75 544.942 1115.93 543.594 1117.7 543.594C1119.39 543.594 1120.54 544.836 1120.55 546.543H1114.66ZM1141.51 544.771C1141.1 542.647 1139.4 541.291 1136.46 541.291C1133.44 541.291 1131.38 542.778 1131.39 545.097C1131.38 546.927 1132.51 548.136 1134.92 548.634L1137.06 549.083C1138.21 549.336 1138.75 549.802 1138.75 550.512C1138.75 551.37 1137.82 552.015 1136.41 552.015C1135.06 552.015 1134.18 551.427 1133.92 550.3L1131.04 550.578C1131.41 552.881 1133.34 554.245 1136.42 554.245C1139.56 554.245 1141.77 552.62 1141.78 550.243C1141.77 548.454 1140.62 547.36 1138.25 546.845L1136.11 546.388C1134.84 546.102 1134.33 545.661 1134.34 544.934C1134.33 544.085 1135.27 543.496 1136.5 543.496C1137.87 543.496 1138.59 544.24 1138.82 545.065L1141.51 544.771ZM1144.22 558.705H1147.18V552.023H1147.3C1147.76 552.938 1148.74 554.221 1150.89 554.221C1153.85 554.221 1156.06 551.876 1156.06 547.744C1156.06 543.562 1153.78 541.291 1150.88 541.291C1148.67 541.291 1147.75 542.623 1147.3 543.529H1147.13V541.455H1144.22V558.705ZM1147.12 547.727C1147.12 545.293 1148.16 543.717 1150.07 543.717C1152.03 543.717 1153.05 545.391 1153.05 547.727C1153.05 550.08 1152.02 551.795 1150.07 551.795C1148.18 551.795 1147.12 550.161 1147.12 547.727ZM1164.15 554.245C1167.07 554.245 1169.08 552.816 1169.6 550.635L1166.84 550.325C1166.44 551.386 1165.46 551.942 1164.19 551.942C1162.28 551.942 1161.01 550.684 1160.99 548.536H1169.73V547.629C1169.73 543.227 1167.08 541.291 1163.99 541.291C1160.4 541.291 1158.05 543.929 1158.05 547.801C1158.05 551.738 1160.37 554.245 1164.15 554.245ZM1160.99 546.543C1161.08 544.942 1162.27 543.594 1164.03 543.594C1165.73 543.594 1166.88 544.836 1166.89 546.543H1160.99ZM1175.84 554.253C1177.81 554.253 1178.98 553.33 1179.52 552.277H1179.62V554H1182.46V545.604C1182.46 542.288 1179.76 541.291 1177.36 541.291C1174.73 541.291 1172.7 542.467 1172.05 544.754L1174.81 545.146C1175.1 544.289 1175.94 543.554 1177.38 543.554C1178.75 543.554 1179.5 544.256 1179.5 545.489V545.538C1179.5 546.388 1178.61 546.429 1176.4 546.665C1173.97 546.927 1171.64 547.654 1171.64 550.48C1171.64 552.946 1173.44 554.253 1175.84 554.253ZM1176.61 552.081C1175.37 552.081 1174.49 551.517 1174.49 550.431C1174.49 549.295 1175.48 548.822 1176.8 548.634C1177.58 548.528 1179.13 548.332 1179.51 548.021V549.5C1179.51 550.896 1178.39 552.081 1176.61 552.081ZM1185.43 554H1188.39V549.786L1189.47 548.634L1193.31 554H1196.84L1191.7 546.87L1196.56 541.455H1193.1L1188.6 546.494H1188.39V537.273H1185.43V554ZM1198.53 554H1201.49V541.455H1198.53V554ZM1200.02 539.674C1200.95 539.674 1201.72 538.955 1201.72 538.073C1201.72 537.183 1200.95 536.464 1200.02 536.464C1199.07 536.464 1198.3 537.183 1198.3 538.073C1198.3 538.955 1199.07 539.674 1200.02 539.674ZM1207.48 546.649C1207.48 544.836 1208.58 543.79 1210.14 543.79C1211.66 543.79 1212.58 544.795 1212.58 546.469V554H1215.54V546.012C1215.54 543.006 1213.83 541.291 1211.24 541.291C1209.36 541.291 1208.07 542.19 1207.5 543.586H1207.35V541.455H1204.53V554H1207.48V546.649ZM1224 558.966C1227.39 558.966 1229.89 557.414 1229.89 554.204V541.455H1226.97V543.529H1226.81C1226.36 542.623 1225.42 541.291 1223.21 541.291C1220.31 541.291 1218.03 543.562 1218.03 547.686C1218.03 551.778 1220.31 553.82 1223.2 553.82C1225.35 553.82 1226.35 552.669 1226.81 551.746H1226.95V554.123C1226.95 555.968 1225.73 556.728 1224.05 556.728C1222.27 556.728 1221.48 555.887 1221.12 555.152L1218.46 555.797C1219 557.553 1220.8 558.966 1224 558.966ZM1224.02 551.501C1222.07 551.501 1221.04 549.982 1221.04 547.67C1221.04 545.391 1222.05 543.717 1224.02 543.717C1225.93 543.717 1226.97 545.293 1226.97 547.67C1226.97 550.063 1225.91 551.501 1224.02 551.501Z" fill="white"/>
<path d="M1099.8 303L1101.18 298.875H1107.47L1108.86 303H1112.09L1106.19 286.273H1102.45L1096.56 303H1099.8ZM1102 296.441L1104.26 289.703H1104.39L1106.65 296.441H1102ZM1114.29 303H1117.2V301.023H1117.37C1117.84 301.938 1118.81 303.221 1120.97 303.221C1123.92 303.221 1126.14 300.876 1126.14 296.744C1126.14 292.562 1123.86 290.291 1120.96 290.291C1118.74 290.291 1117.82 291.623 1117.37 292.529H1117.25V286.273H1114.29V303ZM1117.19 296.727C1117.19 294.293 1118.24 292.717 1120.14 292.717C1122.11 292.717 1123.12 294.391 1123.12 296.727C1123.12 299.08 1122.09 300.795 1120.14 300.795C1118.25 300.795 1117.19 299.161 1117.19 296.727ZM1138.57 293.771C1138.16 291.647 1136.46 290.291 1133.52 290.291C1130.5 290.291 1128.44 291.778 1128.45 294.097C1128.44 295.927 1129.56 297.136 1131.97 297.634L1134.11 298.083C1135.27 298.336 1135.8 298.802 1135.8 299.512C1135.8 300.37 1134.87 301.015 1133.47 301.015C1132.11 301.015 1131.23 300.427 1130.98 299.3L1128.09 299.578C1128.46 301.881 1130.4 303.245 1133.48 303.245C1136.61 303.245 1138.83 301.62 1138.84 299.243C1138.83 297.454 1137.68 296.36 1135.31 295.845L1133.17 295.388C1131.89 295.102 1131.39 294.661 1131.39 293.934C1131.39 293.085 1132.33 292.496 1133.56 292.496C1134.92 292.496 1135.64 293.24 1135.87 294.065L1138.57 293.771ZM1146.83 303.245C1149.75 303.245 1151.76 301.816 1152.28 299.635L1149.52 299.325C1149.12 300.386 1148.14 300.942 1146.87 300.942C1144.96 300.942 1143.69 299.684 1143.67 297.536H1152.41V296.629C1152.41 292.227 1149.76 290.291 1146.67 290.291C1143.08 290.291 1140.73 292.929 1140.73 296.801C1140.73 300.738 1143.05 303.245 1146.83 303.245ZM1143.67 295.543C1143.76 293.942 1144.95 292.594 1146.71 292.594C1148.41 292.594 1149.56 293.836 1149.57 295.543H1143.67ZM1157.86 295.649C1157.86 293.836 1158.96 292.79 1160.52 292.79C1162.05 292.79 1162.96 293.795 1162.96 295.469V303H1165.92V295.012C1165.92 292.006 1164.21 290.291 1161.62 290.291C1159.74 290.291 1158.45 291.19 1157.88 292.586H1157.73V290.455H1154.91V303H1157.86V295.649ZM1174.39 303.245C1177.55 303.245 1179.56 301.375 1179.77 298.712H1176.94C1176.69 300.06 1175.72 300.836 1174.42 300.836C1172.57 300.836 1171.38 299.292 1171.38 296.727C1171.38 294.195 1172.6 292.676 1174.42 292.676C1175.84 292.676 1176.71 293.591 1176.94 294.8H1179.77C1179.56 292.08 1177.44 290.291 1174.38 290.291C1170.7 290.291 1168.38 292.946 1168.38 296.776C1168.38 300.574 1170.65 303.245 1174.39 303.245ZM1187.75 303.245C1190.67 303.245 1192.68 301.816 1193.21 299.635L1190.45 299.325C1190.05 300.386 1189.07 300.942 1187.79 300.942C1185.88 300.942 1184.61 299.684 1184.59 297.536H1193.33V296.629C1193.33 292.227 1190.68 290.291 1187.6 290.291C1184 290.291 1181.66 292.929 1181.66 296.801C1181.66 300.738 1183.97 303.245 1187.75 303.245ZM1184.6 295.543C1184.69 293.942 1185.87 292.594 1187.64 292.594C1189.34 292.594 1190.48 293.836 1190.5 295.543H1184.6ZM1207.01 303.245C1210.68 303.245 1213.02 300.656 1213.02 296.776C1213.02 292.888 1210.68 290.291 1207.01 290.291C1203.33 290.291 1201 292.888 1201 296.776C1201 300.656 1203.33 303.245 1207.01 303.245ZM1207.02 300.876C1204.99 300.876 1203.99 299.063 1203.99 296.768C1203.99 294.473 1204.99 292.635 1207.02 292.635C1209.03 292.635 1210.02 294.473 1210.02 296.768C1210.02 299.063 1209.03 300.876 1207.02 300.876ZM1221.88 290.455H1219.28V289.466C1219.28 288.486 1219.69 287.939 1220.79 287.939C1221.25 287.939 1221.65 288.045 1221.89 288.119L1222.49 285.832C1222.1 285.701 1221.26 285.489 1220.24 285.489C1218.06 285.489 1216.32 286.738 1216.32 289.27V290.455H1214.47V292.741H1216.32V303H1219.28V292.741H1221.88V290.455ZM1108.85 339.705V322.455H1105.94V324.529H1105.77C1105.32 323.623 1104.4 322.291 1102.18 322.291C1099.28 322.291 1097 324.562 1097 328.744C1097 332.876 1099.22 335.221 1102.17 335.221C1104.33 335.221 1105.3 333.938 1105.77 333.023H1105.89V339.705H1108.85ZM1105.95 328.727C1105.95 331.161 1104.89 332.795 1103 332.795C1101.05 332.795 1100.02 331.08 1100.02 328.727C1100.02 326.391 1101.03 324.717 1103 324.717C1104.9 324.717 1105.95 326.293 1105.95 328.727ZM1119.89 329.724C1119.89 331.635 1118.53 332.582 1117.22 332.582C1115.8 332.582 1114.85 331.578 1114.85 329.985V322.455H1111.89V330.442C1111.89 333.456 1113.61 335.163 1116.08 335.163C1117.95 335.163 1119.28 334.175 1119.85 332.77H1119.98V335H1122.85V322.455H1119.89V329.724ZM1129.5 335.253C1131.47 335.253 1132.64 334.33 1133.18 333.277H1133.28V335H1136.12V326.604C1136.12 323.288 1133.42 322.291 1131.02 322.291C1128.39 322.291 1126.36 323.467 1125.71 325.754L1128.47 326.146C1128.76 325.289 1129.6 324.554 1131.04 324.554C1132.41 324.554 1133.16 325.256 1133.16 326.489V326.538C1133.16 327.388 1132.27 327.429 1130.06 327.665C1127.63 327.927 1125.3 328.654 1125.3 331.48C1125.3 333.946 1127.1 335.253 1129.5 335.253ZM1130.27 333.081C1129.03 333.081 1128.15 332.517 1128.15 331.431C1128.15 330.295 1129.14 329.822 1130.46 329.634C1131.24 329.528 1132.79 329.332 1133.17 329.021V330.5C1133.17 331.896 1132.05 333.081 1130.27 333.081ZM1142.05 318.273H1139.09V335H1142.05V318.273ZM1145.09 335H1148.05V322.455H1145.09V335ZM1146.58 320.674C1147.52 320.674 1148.28 319.955 1148.28 319.073C1148.28 318.183 1147.52 317.464 1146.58 317.464C1145.63 317.464 1144.86 318.183 1144.86 319.073C1144.86 319.955 1145.63 320.674 1146.58 320.674ZM1157.35 322.455H1154.88V319.449H1151.92V322.455H1150.14V324.741H1151.92V331.717C1151.91 334.077 1153.62 335.237 1155.84 335.172C1156.68 335.147 1157.26 334.984 1157.58 334.877L1157.08 332.566C1156.92 332.607 1156.59 332.68 1156.22 332.68C1155.47 332.68 1154.88 332.419 1154.88 331.227V324.741H1157.35V322.455ZM1161.66 339.705C1163.97 339.705 1165.3 338.52 1166.01 336.519L1171.05 322.471L1167.89 322.455L1164.99 331.929H1164.86L1161.97 322.455H1158.83L1163.38 335.261L1163.13 335.939C1162.58 337.369 1161.71 337.467 1160.42 337.091L1159.74 339.394C1160.14 339.558 1160.85 339.705 1161.66 339.705ZM1181.76 318.273H1178.81V335H1181.76V318.273ZM1190.36 335.245C1193.28 335.245 1195.29 333.816 1195.81 331.635L1193.05 331.325C1192.65 332.386 1191.67 332.942 1190.4 332.942C1188.49 332.942 1187.22 331.684 1187.2 329.536H1195.93V328.629C1195.93 324.227 1193.29 322.291 1190.2 322.291C1186.61 322.291 1184.26 324.929 1184.26 328.801C1184.26 332.738 1186.57 335.245 1190.36 335.245ZM1187.2 327.543C1187.29 325.942 1188.48 324.594 1190.24 324.594C1191.94 324.594 1193.08 325.836 1193.1 327.543H1187.2ZM1202.05 335.253C1204.01 335.253 1205.19 334.33 1205.73 333.277H1205.83V335H1208.67V326.604C1208.67 323.288 1205.97 322.291 1203.57 322.291C1200.94 322.291 1198.91 323.467 1198.26 325.754L1201.02 326.146C1201.31 325.289 1202.14 324.554 1203.59 324.554C1204.96 324.554 1205.71 325.256 1205.71 326.489V326.538C1205.71 327.388 1204.82 327.429 1202.61 327.665C1200.18 327.927 1197.85 328.654 1197.85 331.48C1197.85 333.946 1199.65 335.253 1202.05 335.253ZM1202.81 333.081C1201.58 333.081 1200.7 332.517 1200.7 331.431C1200.7 330.295 1201.69 329.822 1203.01 329.634C1203.79 329.528 1205.34 329.332 1205.72 329.021V330.5C1205.72 331.896 1204.59 333.081 1202.81 333.081ZM1211.64 335H1214.6V327.625C1214.6 326.032 1215.8 324.905 1217.43 324.905C1217.92 324.905 1218.54 324.995 1218.8 325.076V322.357C1218.53 322.308 1218.06 322.275 1217.74 322.275C1216.3 322.275 1215.1 323.092 1214.64 324.545H1214.51V322.455H1211.64V335ZM1223.72 327.649C1223.72 325.836 1224.81 324.79 1226.37 324.79C1227.9 324.79 1228.82 325.795 1228.82 327.469V335H1231.77V327.012C1231.78 324.006 1230.07 322.291 1227.48 322.291C1225.6 322.291 1224.31 323.19 1223.74 324.586H1223.59V322.455H1220.76V335H1223.72V327.649ZM1234.78 335H1237.73V322.455H1234.78V335ZM1236.26 320.674C1237.2 320.674 1237.97 319.955 1237.97 319.073C1237.97 318.183 1237.2 317.464 1236.26 317.464C1235.32 317.464 1234.55 318.183 1234.55 319.073C1234.55 319.955 1235.32 320.674 1236.26 320.674ZM1243.73 327.649C1243.73 325.836 1244.83 324.79 1246.39 324.79C1247.91 324.79 1248.83 325.795 1248.83 327.469V335H1251.78V327.012C1251.79 324.006 1250.08 322.291 1247.49 322.291C1245.61 322.291 1244.32 323.19 1243.75 324.586H1243.6V322.455H1240.78V335H1243.73V327.649ZM1260.25 339.966C1263.64 339.966 1266.14 338.414 1266.14 335.204V322.455H1263.22V324.529H1263.06C1262.61 323.623 1261.67 322.291 1259.45 322.291C1256.55 322.291 1254.28 324.562 1254.28 328.686C1254.28 332.778 1256.55 334.82 1259.45 334.82C1261.59 334.82 1262.6 333.669 1263.06 332.746H1263.2V335.123C1263.2 336.968 1261.98 337.728 1260.3 337.728C1258.52 337.728 1257.73 336.887 1257.37 336.152L1254.71 336.797C1255.25 338.553 1257.05 339.966 1260.25 339.966ZM1260.27 332.501C1258.32 332.501 1257.29 330.982 1257.29 328.67C1257.29 326.391 1258.3 324.717 1260.27 324.717C1262.17 324.717 1263.22 326.293 1263.22 328.67C1263.22 331.063 1262.16 332.501 1260.27 332.501ZM1097.52 367H1100.48V359.625C1100.48 358.032 1101.68 356.905 1103.3 356.905C1103.8 356.905 1104.42 356.995 1104.67 357.076V354.357C1104.4 354.308 1103.94 354.275 1103.61 354.275C1102.17 354.275 1100.97 355.092 1100.52 356.545H1100.39V354.455H1097.52V367ZM1111.68 367.245C1114.6 367.245 1116.61 365.816 1117.13 363.635L1114.37 363.325C1113.97 364.386 1112.99 364.942 1111.72 364.942C1109.81 364.942 1108.54 363.684 1108.51 361.536H1117.25V360.629C1117.25 356.227 1114.61 354.291 1111.52 354.291C1107.93 354.291 1105.58 356.929 1105.58 360.801C1105.58 364.738 1107.89 367.245 1111.68 367.245ZM1108.52 359.543C1108.61 357.942 1109.8 356.594 1111.56 356.594C1113.26 356.594 1114.4 357.836 1114.42 359.543H1108.52ZM1129.67 357.771C1129.26 355.647 1127.56 354.291 1124.62 354.291C1121.6 354.291 1119.54 355.778 1119.55 358.097C1119.54 359.927 1120.67 361.136 1123.08 361.634L1125.22 362.083C1126.37 362.336 1126.91 362.802 1126.91 363.512C1126.91 364.37 1125.98 365.015 1124.57 365.015C1123.22 365.015 1122.34 364.427 1122.08 363.3L1119.2 363.578C1119.57 365.881 1121.5 367.245 1124.58 367.245C1127.72 367.245 1129.93 365.62 1129.94 363.243C1129.93 361.454 1128.78 360.36 1126.41 359.845L1124.27 359.388C1123 359.102 1122.49 358.661 1122.5 357.934C1122.49 357.085 1123.43 356.496 1124.66 356.496C1126.03 356.496 1126.75 357.24 1126.98 358.065L1129.67 357.771ZM1137.85 367.245C1141.53 367.245 1143.86 364.656 1143.86 360.776C1143.86 356.888 1141.53 354.291 1137.85 354.291C1134.18 354.291 1131.84 356.888 1131.84 360.776C1131.84 364.656 1134.18 367.245 1137.85 367.245ZM1137.87 364.876C1135.83 364.876 1134.84 363.063 1134.84 360.768C1134.84 358.473 1135.83 356.635 1137.87 356.635C1139.87 356.635 1140.86 358.473 1140.86 360.768C1140.86 363.063 1139.87 364.876 1137.87 364.876ZM1154.37 361.724C1154.37 363.635 1153 364.582 1151.7 364.582C1150.28 364.582 1149.33 363.578 1149.33 361.985V354.455H1146.37V362.442C1146.37 365.456 1148.09 367.163 1150.55 367.163C1152.43 367.163 1153.76 366.175 1154.33 364.77H1154.46V367H1157.32V354.455H1154.37V361.724ZM1160.36 367H1163.32V359.625C1163.32 358.032 1164.52 356.905 1166.15 356.905C1166.65 356.905 1167.27 356.995 1167.52 357.076V354.357C1167.25 354.308 1166.78 354.275 1166.46 354.275C1165.02 354.275 1163.82 355.092 1163.36 356.545H1163.23V354.455H1160.36V367ZM1174.44 367.245C1177.59 367.245 1179.6 365.375 1179.81 362.712H1176.99C1176.73 364.06 1175.76 364.836 1174.46 364.836C1172.62 364.836 1171.43 363.292 1171.43 360.727C1171.43 358.195 1172.64 356.676 1174.46 356.676C1175.89 356.676 1176.76 357.591 1176.99 358.8H1179.81C1179.61 356.08 1177.49 354.291 1174.42 354.291C1170.75 354.291 1168.43 356.946 1168.43 360.776C1168.43 364.574 1170.69 367.245 1174.44 367.245ZM1187.8 367.245C1190.72 367.245 1192.73 365.816 1193.25 363.635L1190.49 363.325C1190.09 364.386 1189.11 364.942 1187.84 364.942C1185.93 364.942 1184.66 363.684 1184.63 361.536H1193.37V360.629C1193.37 356.227 1190.73 354.291 1187.64 354.291C1184.05 354.291 1181.7 356.929 1181.7 360.801C1181.7 364.738 1184.01 367.245 1187.8 367.245ZM1184.64 359.543C1184.73 357.942 1185.92 356.594 1187.68 356.594C1189.38 356.594 1190.52 357.836 1190.54 359.543H1184.64ZM1205.79 357.771C1205.38 355.647 1203.68 354.291 1200.74 354.291C1197.72 354.291 1195.66 355.778 1195.67 358.097C1195.66 359.927 1196.79 361.136 1199.2 361.634L1201.34 362.083C1202.49 362.336 1203.03 362.802 1203.03 363.512C1203.03 364.37 1202.1 365.015 1200.69 365.015C1199.34 365.015 1198.46 364.427 1198.2 363.3L1195.32 363.578C1195.69 365.881 1197.62 367.245 1200.7 367.245C1203.84 367.245 1206.05 365.62 1206.06 363.243C1206.05 361.454 1204.9 360.36 1202.53 359.845L1200.39 359.388C1199.12 359.102 1198.61 358.661 1198.62 357.934C1198.61 357.085 1199.55 356.496 1200.78 356.496C1202.15 356.496 1202.87 357.24 1203.1 358.065L1205.79 357.771Z" fill="white"/>
<path d="M669.194 222.273V232.948C669.194 235.047 667.732 236.55 665.437 236.55C663.134 236.55 661.68 235.047 661.68 232.948V222.273H658.65V233.201C658.65 236.795 661.345 239.253 665.437 239.253C669.513 239.253 672.224 236.795 672.224 233.201V222.273H669.194ZM678.344 231.649C678.344 229.836 679.438 228.79 680.998 228.79C682.526 228.79 683.441 229.795 683.441 231.469V239H686.397V231.012C686.405 228.006 684.69 226.291 682.101 226.291C680.223 226.291 678.932 227.19 678.36 228.586H678.213V226.455H675.387V239H678.344V231.649ZM695.757 226.455H693.152V225.466C693.152 224.486 693.56 223.939 694.663 223.939C695.128 223.939 695.521 224.045 695.766 224.119L696.362 221.832C695.978 221.701 695.137 221.489 694.116 221.489C691.935 221.489 690.195 222.738 690.195 225.27V226.455H688.341V228.741H690.195V239H693.152V228.741H695.757V226.455ZM701.256 239.253C703.225 239.253 704.401 238.33 704.94 237.277H705.038V239H707.88V230.604C707.88 227.288 705.177 226.291 702.784 226.291C700.145 226.291 698.12 227.467 697.466 229.754L700.227 230.146C700.521 229.289 701.354 228.554 702.8 228.554C704.172 228.554 704.923 229.256 704.923 230.489V230.538C704.923 231.388 704.033 231.429 701.82 231.665C699.386 231.927 697.058 232.654 697.058 235.48C697.058 237.946 698.863 239.253 701.256 239.253ZM702.024 237.081C700.791 237.081 699.909 236.517 699.909 235.431C699.909 234.295 700.897 233.822 702.22 233.634C702.996 233.528 704.548 233.332 704.932 233.021V234.5C704.932 235.896 703.805 237.081 702.024 237.081ZM710.853 239H713.81V231.371C713.81 229.828 714.839 228.782 716.113 228.782C717.363 228.782 718.22 229.624 718.22 230.914V239H721.12V231.175C721.12 229.762 721.961 228.782 723.39 228.782C724.583 228.782 725.53 229.485 725.53 231.037V239H728.495V230.579C728.495 227.778 726.878 226.291 724.575 226.291C722.753 226.291 721.365 227.19 720.809 228.586H720.679C720.197 227.165 718.98 226.291 717.289 226.291C715.607 226.291 714.349 227.157 713.826 228.586H713.679V226.455H710.853V239ZM731.495 239H734.451V226.455H731.495V239ZM732.981 224.674C733.921 224.674 734.688 223.955 734.688 223.073C734.688 222.183 733.921 221.464 732.981 221.464C732.034 221.464 731.266 222.183 731.266 223.073C731.266 223.955 732.034 224.674 732.981 224.674ZM740.449 222.273H737.492V239H740.449V222.273ZM743.489 239H746.446V226.455H743.489V239ZM744.975 224.674C745.915 224.674 746.682 223.955 746.682 223.073C746.682 222.183 745.915 221.464 744.975 221.464C744.028 221.464 743.26 222.183 743.26 223.073C743.26 223.955 744.028 224.674 744.975 224.674ZM753.096 239.253C755.064 239.253 756.241 238.33 756.78 237.277H756.878V239H759.72V230.604C759.72 227.288 757.017 226.291 754.623 226.291C751.985 226.291 749.96 227.467 749.306 229.754L752.067 230.146C752.361 229.289 753.194 228.554 754.64 228.554C756.012 228.554 756.763 229.256 756.763 230.489V230.538C756.763 231.388 755.873 231.429 753.66 231.665C751.226 231.927 748.898 232.654 748.898 235.48C748.898 237.946 750.703 239.253 753.096 239.253ZM753.864 237.081C752.631 237.081 751.748 236.517 751.748 235.431C751.748 234.295 752.737 233.822 754.06 233.634C754.836 233.528 756.388 233.332 756.771 233.021V234.5C756.771 235.896 755.644 237.081 753.864 237.081ZM762.693 239H765.65V231.625C765.65 230.032 766.85 228.905 768.476 228.905C768.974 228.905 769.595 228.995 769.848 229.076V226.357C769.578 226.308 769.113 226.275 768.786 226.275C767.349 226.275 766.148 227.092 765.691 228.545H765.56V226.455H762.693V239ZM771.812 239H774.769V226.455H771.812V239ZM773.299 224.674C774.238 224.674 775.006 223.955 775.006 223.073C775.006 222.183 774.238 221.464 773.299 221.464C772.351 221.464 771.583 222.183 771.583 223.073C771.583 223.955 772.351 224.674 773.299 224.674ZM784.074 226.455H781.599V223.449H778.642V226.455H776.862V228.741H778.642V235.717C778.626 238.077 780.341 239.237 782.563 239.172C783.404 239.147 783.984 238.984 784.302 238.877L783.804 236.566C783.641 236.607 783.306 236.68 782.938 236.68C782.195 236.68 781.599 236.419 781.599 235.227V228.741H784.074V226.455ZM788.384 243.705C790.688 243.705 792.019 242.52 792.729 240.519L797.769 226.471L794.608 226.455L791.708 235.929H791.578L788.686 226.455H785.55L790.099 239.261L789.846 239.939C789.299 241.369 788.433 241.467 787.143 241.091L786.457 243.394C786.857 243.558 787.576 243.705 788.384 243.705ZM810.998 239.245C814.674 239.245 817.01 236.656 817.01 232.776C817.01 228.888 814.674 226.291 810.998 226.291C807.323 226.291 804.987 228.888 804.987 232.776C804.987 236.656 807.323 239.245 810.998 239.245ZM811.015 236.876C808.981 236.876 807.984 235.063 807.984 232.768C807.984 230.473 808.981 228.635 811.015 228.635C813.016 228.635 814.012 230.473 814.012 232.768C814.012 235.063 813.016 236.876 811.015 236.876ZM825.874 226.455H823.268V225.466C823.268 224.486 823.676 223.939 824.779 223.939C825.245 223.939 825.637 224.045 825.882 224.119L826.478 221.832C826.094 221.701 825.253 221.489 824.232 221.489C822.051 221.489 820.311 222.738 820.311 225.27V226.455H818.457V228.741H820.311V239H823.268V228.741H825.874V226.455ZM663.991 271.245C667.144 271.245 669.153 269.375 669.366 266.712H666.54C666.287 268.06 665.315 268.836 664.016 268.836C662.17 268.836 660.978 267.292 660.978 264.727C660.978 262.195 662.195 260.676 664.016 260.676C665.437 260.676 666.311 261.591 666.54 262.8H669.366C669.162 260.08 667.038 258.291 663.975 258.291C660.3 258.291 657.98 260.946 657.98 264.776C657.98 268.574 660.243 271.245 663.991 271.245ZM679.79 265.724C679.79 267.635 678.426 268.582 677.119 268.582C675.698 268.582 674.75 267.578 674.75 265.985V258.455H671.794V266.442C671.794 269.456 673.509 271.163 675.975 271.163C677.854 271.163 679.177 270.175 679.749 268.77H679.88V271H682.746V258.455H679.79V265.724ZM688.743 254.273H685.787V271H688.743V254.273ZM698.048 258.455H695.574V255.449H692.617V258.455H690.836V260.741H692.617V267.717C692.601 270.077 694.316 271.237 696.537 271.172C697.379 271.147 697.959 270.984 698.277 270.877L697.779 268.566C697.616 268.607 697.281 268.68 696.913 268.68C696.17 268.68 695.574 268.419 695.574 267.227V260.741H698.048V258.455ZM708.517 265.724C708.517 267.635 707.153 268.582 705.846 268.582C704.425 268.582 703.478 267.578 703.478 265.985V258.455H700.521V266.442C700.521 269.456 702.236 271.163 704.703 271.163C706.581 271.163 707.905 270.175 708.476 268.77H708.607V271H711.474V258.455H708.517V265.724ZM714.514 271H717.471V263.625C717.471 262.032 718.672 260.905 720.297 260.905C720.795 260.905 721.416 260.995 721.669 261.076V258.357C721.4 258.308 720.934 258.275 720.607 258.275C719.17 258.275 717.969 259.092 717.512 260.545H717.381V258.455H714.514V271ZM726.996 271.253C728.965 271.253 730.141 270.33 730.68 269.277H730.778V271H733.62V262.604C733.62 259.288 730.917 258.291 728.524 258.291C725.886 258.291 723.86 259.467 723.207 261.754L725.967 262.146C726.261 261.289 727.094 260.554 728.54 260.554C729.912 260.554 730.664 261.256 730.664 262.489V262.538C730.664 263.388 729.773 263.429 727.56 263.665C725.126 263.927 722.798 264.654 722.798 267.48C722.798 269.946 724.603 271.253 726.996 271.253ZM727.764 269.081C726.531 269.081 725.649 268.517 725.649 267.431C725.649 266.295 726.637 265.822 727.96 265.634C728.736 265.528 730.288 265.332 730.672 265.021V266.5C730.672 267.896 729.545 269.081 727.764 269.081ZM739.55 254.273H736.593V271H739.55V254.273ZM753.768 271.245C756.921 271.245 758.93 269.375 759.142 266.712H756.316C756.063 268.06 755.091 268.836 753.792 268.836C751.946 268.836 750.754 267.292 750.754 264.727C750.754 262.195 751.971 260.676 753.792 260.676C755.214 260.676 756.087 261.591 756.316 262.8H759.142C758.938 260.08 756.814 258.291 753.752 258.291C750.076 258.291 747.756 260.946 747.756 264.776C747.756 268.574 750.019 271.245 753.768 271.245ZM767.042 271.245C770.718 271.245 773.054 268.656 773.054 264.776C773.054 260.888 770.718 258.291 767.042 258.291C763.367 258.291 761.031 260.888 761.031 264.776C761.031 268.656 763.367 271.245 767.042 271.245ZM767.059 268.876C765.025 268.876 764.028 267.063 764.028 264.768C764.028 262.473 765.025 260.635 767.059 260.635C769.06 260.635 770.056 262.473 770.056 264.768C770.056 267.063 769.06 268.876 767.059 268.876ZM778.52 263.649C778.52 261.836 779.614 260.79 781.174 260.79C782.702 260.79 783.616 261.795 783.616 263.469V271H786.573V263.012C786.581 260.006 784.866 258.291 782.277 258.291C780.398 258.291 779.108 259.19 778.536 260.586H778.389V258.455H775.563V271H778.52V263.649ZM795.843 258.455H793.369V255.449H790.412V258.455H788.631V260.741H790.412V267.717C790.396 270.077 792.111 271.237 794.332 271.172C795.174 271.147 795.753 270.984 796.072 270.877L795.574 268.566C795.41 268.607 795.076 268.68 794.708 268.68C793.965 268.68 793.369 268.419 793.369 267.227V260.741H795.843V258.455ZM803.735 271.245C806.659 271.245 808.669 269.816 809.191 267.635L806.431 267.325C806.03 268.386 805.05 268.942 803.776 268.942C801.865 268.942 800.599 267.684 800.574 265.536H809.314V264.629C809.314 260.227 806.667 258.291 803.58 258.291C799.986 258.291 797.642 260.929 797.642 264.801C797.642 268.738 799.954 271.245 803.735 271.245ZM800.583 263.543C800.672 261.942 801.857 260.594 803.621 260.594C805.32 260.594 806.463 261.836 806.48 263.543H800.583ZM813.986 258.455H810.849L814.574 264.727L810.751 271H813.888L816.518 266.483L819.172 271H822.284L818.437 264.727L822.219 258.455H819.09L816.518 263.086L813.986 258.455ZM830.77 258.455H828.295V255.449H825.339V258.455H823.558V260.741H825.339V267.717C825.322 270.077 827.037 271.237 829.259 271.172C830.1 271.147 830.68 270.984 830.999 270.877L830.501 268.566C830.337 268.607 830.002 268.68 829.635 268.68C828.892 268.68 828.295 268.419 828.295 267.227V260.741H830.77V258.455ZM842.979 261.771C842.57 259.647 840.871 258.291 837.931 258.291C834.909 258.291 832.851 259.778 832.859 262.097C832.851 263.927 833.978 265.136 836.387 265.634L838.527 266.083C839.679 266.336 840.218 266.802 840.218 267.512C840.218 268.37 839.287 269.015 837.882 269.015C836.526 269.015 835.644 268.427 835.391 267.3L832.508 267.578C832.875 269.881 834.811 271.245 837.89 271.245C841.027 271.245 843.24 269.62 843.248 267.243C843.24 265.454 842.088 264.36 839.72 263.845L837.58 263.388C836.306 263.102 835.799 262.661 835.807 261.934C835.799 261.085 836.739 260.496 837.972 260.496C839.336 260.496 840.055 261.24 840.283 262.065L842.979 261.771Z" fill="white"/>
<path d="M917.65 147H928.047V144.46H920.68V130.273H917.65V147ZM934.157 147.253C936.125 147.253 937.301 146.33 937.84 145.277H937.938V147H940.781V138.604C940.781 135.288 938.077 134.291 935.684 134.291C933.046 134.291 931.02 135.467 930.367 137.754L933.127 138.146C933.422 137.289 934.255 136.554 935.7 136.554C937.072 136.554 937.824 137.256 937.824 138.489V138.538C937.824 139.388 936.934 139.429 934.72 139.665C932.286 139.927 929.958 140.654 929.958 143.48C929.958 145.946 931.763 147.253 934.157 147.253ZM934.924 145.081C933.691 145.081 932.809 144.517 932.809 143.431C932.809 142.295 933.797 141.822 935.12 141.634C935.896 141.528 937.448 141.332 937.832 141.021V142.5C937.832 143.896 936.705 145.081 934.924 145.081ZM949.226 147.245C952.379 147.245 954.388 145.375 954.6 142.712H951.774C951.521 144.06 950.549 144.836 949.25 144.836C947.404 144.836 946.212 143.292 946.212 140.727C946.212 138.195 947.429 136.676 949.25 136.676C950.672 136.676 951.545 137.591 951.774 138.8H954.6C954.396 136.08 952.272 134.291 949.21 134.291C945.534 134.291 943.214 136.946 943.214 140.776C943.214 144.574 945.477 147.245 949.226 147.245ZM957.028 147H959.985V142.786L961.063 141.634L964.902 147H968.438L963.293 139.87L968.152 134.455H964.697L960.189 139.494H959.985V130.273H957.028V147ZM981.3 147.245C984.975 147.245 987.311 144.656 987.311 140.776C987.311 136.888 984.975 134.291 981.3 134.291C977.625 134.291 975.289 136.888 975.289 140.776C975.289 144.656 977.625 147.245 981.3 147.245ZM981.316 144.876C979.283 144.876 978.286 143.063 978.286 140.768C978.286 138.473 979.283 136.635 981.316 136.635C983.317 136.635 984.314 138.473 984.314 140.768C984.314 143.063 983.317 144.876 981.316 144.876ZM996.175 134.455H993.57V133.466C993.57 132.486 993.978 131.939 995.081 131.939C995.546 131.939 995.938 132.045 996.184 132.119L996.78 129.832C996.396 129.701 995.555 129.489 994.534 129.489C992.353 129.489 990.613 130.738 990.613 133.27V134.455H988.759V136.741H990.613V147H993.57V136.741H996.175V134.455ZM1007.81 147.253C1009.77 147.253 1010.95 146.33 1011.49 145.277H1011.59V147H1014.43V138.604C1014.43 135.288 1011.73 134.291 1009.33 134.291C1006.7 134.291 1004.67 135.467 1004.02 137.754L1006.78 138.146C1007.07 137.289 1007.9 136.554 1009.35 136.554C1010.72 136.554 1011.47 137.256 1011.47 138.489V138.538C1011.47 139.388 1010.58 139.429 1008.37 139.665C1005.94 139.927 1003.61 140.654 1003.61 143.48C1003.61 145.946 1005.41 147.253 1007.81 147.253ZM1008.57 145.081C1007.34 145.081 1006.46 144.517 1006.46 143.431C1006.46 142.295 1007.45 141.822 1008.77 141.634C1009.55 141.528 1011.1 141.332 1011.48 141.021V142.5C1011.48 143.896 1010.35 145.081 1008.57 145.081ZM1022.88 147.245C1026.03 147.245 1028.04 145.375 1028.25 142.712H1025.42C1025.17 144.06 1024.2 144.836 1022.9 144.836C1021.05 144.836 1019.86 143.292 1019.86 140.727C1019.86 138.195 1021.08 136.676 1022.9 136.676C1024.32 136.676 1025.19 137.591 1025.42 138.8H1028.25C1028.05 136.08 1025.92 134.291 1022.86 134.291C1019.18 134.291 1016.86 136.946 1016.86 140.776C1016.86 144.574 1019.13 147.245 1022.88 147.245ZM1036.15 147.245C1039.3 147.245 1041.31 145.375 1041.52 142.712H1038.7C1038.44 144.06 1037.47 144.836 1036.17 144.836C1034.33 144.836 1033.14 143.292 1033.14 140.727C1033.14 138.195 1034.35 136.676 1036.17 136.676C1037.6 136.676 1038.47 137.591 1038.7 138.8H1041.52C1041.32 136.08 1039.2 134.291 1036.13 134.291C1032.46 134.291 1030.14 136.946 1030.14 140.776C1030.14 144.574 1032.4 147.245 1036.15 147.245ZM1049.51 147.245C1052.43 147.245 1054.44 145.816 1054.96 143.635L1052.2 143.325C1051.8 144.386 1050.82 144.942 1049.55 144.942C1047.64 144.942 1046.37 143.684 1046.34 141.536H1055.08V140.629C1055.08 136.227 1052.44 134.291 1049.35 134.291C1045.76 134.291 1043.41 136.929 1043.41 140.801C1043.41 144.738 1045.72 147.245 1049.51 147.245ZM1046.35 139.543C1046.44 137.942 1047.63 136.594 1049.39 136.594C1051.09 136.594 1052.23 137.836 1052.25 139.543H1046.35ZM1067.5 137.771C1067.09 135.647 1065.39 134.291 1062.45 134.291C1059.43 134.291 1057.37 135.778 1057.38 138.097C1057.37 139.927 1058.5 141.136 1060.91 141.634L1063.05 142.083C1064.2 142.336 1064.74 142.802 1064.74 143.512C1064.74 144.37 1063.81 145.015 1062.4 145.015C1061.05 145.015 1060.17 144.427 1059.91 143.3L1057.03 143.578C1057.4 145.881 1059.33 147.245 1062.41 147.245C1065.55 147.245 1067.76 145.62 1067.77 143.243C1067.76 141.454 1066.61 140.36 1064.24 139.845L1062.1 139.388C1060.83 139.102 1060.32 138.661 1060.33 137.934C1060.32 137.085 1061.26 136.496 1062.49 136.496C1063.86 136.496 1064.58 137.24 1064.81 138.065L1067.5 137.771ZM1080.12 137.771C1079.72 135.647 1078.02 134.291 1075.08 134.291C1072.05 134.291 1070 135.778 1070 138.097C1070 139.927 1071.12 141.136 1073.53 141.634L1075.67 142.083C1076.82 142.336 1077.36 142.802 1077.36 143.512C1077.36 144.37 1076.43 145.015 1075.03 145.015C1073.67 145.015 1072.79 144.427 1072.54 143.3L1069.65 143.578C1070.02 145.881 1071.96 147.245 1075.04 147.245C1078.17 147.245 1080.39 145.62 1080.39 143.243C1080.39 141.454 1079.23 140.36 1076.87 139.845L1074.73 139.388C1073.45 139.102 1072.94 138.661 1072.95 137.934C1072.94 137.085 1073.88 136.496 1075.12 136.496C1076.48 136.496 1077.2 137.24 1077.43 138.065L1080.12 137.771ZM1094.8 134.455H1092.33V131.449H1089.37V134.455H1087.59V136.741H1089.37V143.717C1089.35 146.077 1091.07 147.237 1093.29 147.172C1094.13 147.147 1094.71 146.984 1095.03 146.877L1094.53 144.566C1094.37 144.607 1094.03 144.68 1093.67 144.68C1092.92 144.68 1092.33 144.419 1092.33 143.227V136.741H1094.8V134.455ZM1102.61 147.245C1106.29 147.245 1108.62 144.656 1108.62 140.776C1108.62 136.888 1106.29 134.291 1102.61 134.291C1098.94 134.291 1096.6 136.888 1096.6 140.776C1096.6 144.656 1098.94 147.245 1102.61 147.245ZM1102.63 144.876C1100.59 144.876 1099.6 143.063 1099.6 140.768C1099.6 138.473 1100.59 136.635 1102.63 136.635C1104.63 136.635 1105.63 138.473 1105.63 140.768C1105.63 143.063 1104.63 144.876 1102.63 144.876ZM922.991 179.245C926.144 179.245 928.153 177.375 928.366 174.712H925.54C925.287 176.06 924.315 176.836 923.016 176.836C921.17 176.836 919.978 175.292 919.978 172.727C919.978 170.195 921.195 168.676 923.016 168.676C924.437 168.676 925.311 169.591 925.54 170.8H928.366C928.162 168.08 926.038 166.291 922.975 166.291C919.3 166.291 916.98 168.946 916.98 172.776C916.98 176.574 919.243 179.245 922.991 179.245ZM930.794 179H933.75V171.625C933.75 170.032 934.951 168.905 936.576 168.905C937.074 168.905 937.695 168.995 937.948 169.076V166.357C937.679 166.308 937.213 166.275 936.887 166.275C935.449 166.275 934.248 167.092 933.791 168.545H933.66V166.455H930.794V179ZM944.95 179.245C947.874 179.245 949.883 177.816 950.406 175.635L947.645 175.325C947.245 176.386 946.265 176.942 944.991 176.942C943.08 176.942 941.814 175.684 941.789 173.536H950.529V172.629C950.529 168.227 947.882 166.291 944.795 166.291C941.201 166.291 938.857 168.929 938.857 172.801C938.857 176.738 941.169 179.245 944.95 179.245ZM941.797 171.543C941.887 169.942 943.072 168.594 944.836 168.594C946.535 168.594 947.678 169.836 947.694 171.543H941.797ZM957.685 179.221C959.842 179.221 960.814 177.938 961.279 177.023H961.459V179H964.367V162.273H961.402V168.529H961.279C960.83 167.623 959.907 166.291 957.694 166.291C954.794 166.291 952.515 168.562 952.515 172.744C952.515 176.876 954.729 179.221 957.685 179.221ZM958.51 176.795C956.558 176.795 955.529 175.08 955.529 172.727C955.529 170.391 956.542 168.717 958.51 168.717C960.413 168.717 961.459 170.293 961.459 172.727C961.459 175.161 960.397 176.795 958.51 176.795ZM967.517 179H970.474V166.455H967.517V179ZM969.004 164.674C969.943 164.674 970.711 163.955 970.711 163.073C970.711 162.183 969.943 161.464 969.004 161.464C968.056 161.464 967.289 162.183 967.289 163.073C967.289 163.955 968.056 164.674 969.004 164.674ZM973.645 179H976.553V177.023H976.724C977.19 177.938 978.162 179.221 980.318 179.221C983.275 179.221 985.488 176.876 985.488 172.744C985.488 168.562 983.209 166.291 980.31 166.291C978.096 166.291 977.173 167.623 976.724 168.529H976.602V162.273H973.645V179ZM976.544 172.727C976.544 170.293 977.59 168.717 979.493 168.717C981.461 168.717 982.474 170.391 982.474 172.727C982.474 175.08 981.445 176.795 979.493 176.795C977.606 176.795 976.544 175.161 976.544 172.727ZM990.958 162.273H988.002V179H990.958V162.273ZM999.553 179.245C1002.48 179.245 1004.49 177.816 1005.01 175.635L1002.25 175.325C1001.85 176.386 1000.87 176.942 999.593 176.942C997.682 176.942 996.416 175.684 996.392 173.536H1005.13V172.629C1005.13 168.227 1002.48 166.291 999.397 166.291C995.804 166.291 993.46 168.929 993.46 172.801C993.46 176.738 995.771 179.245 999.553 179.245ZM996.4 171.543C996.49 169.942 997.674 168.594 999.438 168.594C1001.14 168.594 1002.28 169.836 1002.3 171.543H996.4ZM1019.69 166.455H1017.09V165.466C1017.09 164.486 1017.49 163.939 1018.6 163.939C1019.06 163.939 1019.46 164.045 1019.7 164.119L1020.3 161.832C1019.91 161.701 1019.07 161.489 1018.05 161.489C1015.87 161.489 1014.13 162.738 1014.13 165.27V166.455H1012.28V168.741H1014.13V179H1017.09V168.741H1019.69V166.455ZM1027.09 179.245C1030.01 179.245 1032.02 177.816 1032.55 175.635L1029.79 175.325C1029.38 176.386 1028.4 176.942 1027.13 176.942C1025.22 176.942 1023.95 175.684 1023.93 173.536H1032.67V172.629C1032.67 168.227 1030.02 166.291 1026.93 166.291C1023.34 166.291 1021 168.929 1021 172.801C1021 176.738 1023.31 179.245 1027.09 179.245ZM1023.94 171.543C1024.03 169.942 1025.21 168.594 1026.98 168.594C1028.67 168.594 1029.82 169.836 1029.83 171.543H1023.94ZM1040.72 179.245C1043.65 179.245 1045.66 177.816 1046.18 175.635L1043.42 175.325C1043.02 176.386 1042.04 176.942 1040.76 176.942C1038.85 176.942 1037.59 175.684 1037.56 173.536H1046.3V172.629C1046.3 168.227 1043.66 166.291 1040.57 166.291C1036.97 166.291 1034.63 168.929 1034.63 172.801C1034.63 176.738 1036.94 179.245 1040.72 179.245ZM1037.57 171.543C1037.66 169.942 1038.84 168.594 1040.61 168.594C1042.31 168.594 1043.45 169.836 1043.47 171.543H1037.57ZM1053.46 179.221C1055.62 179.221 1056.59 177.938 1057.05 177.023H1057.23V179H1060.14V162.273H1057.18V168.529H1057.05C1056.6 167.623 1055.68 166.291 1053.47 166.291C1050.57 166.291 1048.29 168.562 1048.29 172.744C1048.29 176.876 1050.5 179.221 1053.46 179.221ZM1054.28 176.795C1052.33 176.795 1051.3 175.08 1051.3 172.727C1051.3 170.391 1052.32 168.717 1054.28 168.717C1056.19 168.717 1057.23 170.293 1057.23 172.727C1057.23 175.161 1056.17 176.795 1054.28 176.795ZM1063.42 179H1066.33V177.023H1066.5C1066.97 177.938 1067.94 179.221 1070.09 179.221C1073.05 179.221 1075.26 176.876 1075.26 172.744C1075.26 168.562 1072.99 166.291 1070.09 166.291C1067.87 166.291 1066.95 167.623 1066.5 168.529H1066.38V162.273H1063.42V179ZM1066.32 172.727C1066.32 170.293 1067.37 168.717 1069.27 168.717C1071.24 168.717 1072.25 170.391 1072.25 172.727C1072.25 175.08 1071.22 176.795 1069.27 176.795C1067.38 176.795 1066.32 175.161 1066.32 172.727ZM1081.39 179.253C1083.36 179.253 1084.53 178.33 1085.07 177.277H1085.17V179H1088.01V170.604C1088.01 167.288 1085.31 166.291 1082.92 166.291C1080.28 166.291 1078.25 167.467 1077.6 169.754L1080.36 170.146C1080.65 169.289 1081.49 168.554 1082.93 168.554C1084.3 168.554 1085.06 169.256 1085.06 170.489V170.538C1085.06 171.388 1084.17 171.429 1081.95 171.665C1079.52 171.927 1077.19 172.654 1077.19 175.48C1077.19 177.946 1078.99 179.253 1081.39 179.253ZM1082.16 177.081C1080.92 177.081 1080.04 176.517 1080.04 175.431C1080.04 174.295 1081.03 173.822 1082.35 173.634C1083.13 173.528 1084.68 173.332 1085.06 173.021V174.5C1085.06 175.896 1083.94 177.081 1082.16 177.081ZM1096.46 179.245C1099.61 179.245 1101.62 177.375 1101.83 174.712H1099.01C1098.75 176.06 1097.78 176.836 1096.48 176.836C1094.64 176.836 1093.44 175.292 1093.44 172.727C1093.44 170.195 1094.66 168.676 1096.48 168.676C1097.9 168.676 1098.78 169.591 1099.01 170.8H1101.83C1101.63 168.08 1099.5 166.291 1096.44 166.291C1092.77 166.291 1090.45 168.946 1090.45 172.776C1090.45 176.574 1092.71 179.245 1096.46 179.245ZM1104.26 179H1107.22V174.786L1108.29 173.634L1112.13 179H1115.67L1110.52 171.87L1115.38 166.455H1111.93L1107.42 171.494H1107.22V162.273H1104.26V179Z" fill="white"/>
<path d="M871.041 328.342C871.763 312.347 877.175 296.919 886.603 283.983C893.94 272.979 903.57 263.695 914.831 256.768C927.972 248.721 943.5 245.498 958.754 247.652C964.225 248.449 969.695 249.113 975.139 250.097C1000.66 254.828 1020.28 268.01 1032.29 291.319C1040.26 305.72 1043.78 322.167 1042.4 338.574C1041.45 348.434 1036.91 356.753 1032.68 365.311C1026.84 377.169 1018.26 387.471 1007.67 395.371C998.776 401.564 988.82 406.069 978.299 408.66C947.76 417.457 921.231 408.394 897.783 388.992C878.981 373.524 870.324 352.846 871.041 328.342ZM1038.79 332.302C1038.34 326.612 1037.52 320.957 1036.35 315.372C1034.46 308.199 1031.97 301.201 1028.89 294.455C1024.99 285.556 1019.16 277.634 1011.83 271.259C1004.5 264.885 995.853 260.217 986.505 257.592C977.21 254.934 967.332 254.163 957.745 252.276C949.742 250.975 941.534 252.018 934.111 255.279C933.128 255.651 932.145 256.529 931.216 256.475C923.249 256.077 917.46 260.595 911.804 264.874C898.23 274.873 887.628 288.378 881.132 303.943C875.126 318.405 873.961 334.425 877.813 349.604C883.124 371.903 897.756 386.813 916.903 397.444C925.839 402.659 935.743 405.999 946.01 407.26C956.278 408.521 966.695 407.677 976.626 404.779C999.198 398.321 1016.65 385.75 1027.59 364.674C1028.75 362.414 1029.95 360.155 1031.22 357.949C1035.73 350.117 1038.33 341.329 1038.79 332.302Z" fill="white"/>
<path d="M974.502 303.704C974.714 297.485 976.361 295.119 980.503 294.189C984.646 293.259 987.859 294.933 990.223 299.504C992.586 304.076 993.914 308.116 991.072 312.793C990.596 313.822 989.876 314.719 988.975 315.406C988.073 316.093 987.018 316.549 985.901 316.735C984.783 316.921 983.637 316.831 982.562 316.473C981.488 316.115 980.516 315.499 979.733 314.68C978.081 313.373 976.75 311.703 975.843 309.8C974.937 307.897 974.478 305.812 974.502 303.704Z" fill="white"/>
<path d="M933.447 304.422C933.356 306.484 932.82 308.502 931.875 310.337C930.931 312.172 929.601 313.781 927.976 315.053C926.846 316.051 925.433 316.672 923.934 316.829C922.435 316.987 920.924 316.672 919.611 315.93C918.142 315.231 916.934 314.081 916.165 312.646C915.395 311.211 915.105 309.568 915.336 307.956C915.576 305.626 916.426 303.401 917.802 301.506C919.178 299.611 921.03 298.114 923.17 297.166C924.33 296.706 925.587 296.543 926.826 296.691C928.065 296.839 929.248 297.293 930.268 298.013C931.288 298.733 932.113 299.696 932.668 300.815C933.222 301.934 933.49 303.173 933.447 304.422Z" fill="white"/>
<path d="M919.08 381.869C916.903 380.434 917.434 378.494 918.257 376.766C926.224 359.916 937.935 347.212 957.187 343.225C970.784 340.408 981.326 345.617 990.09 355.318C995.162 360.953 997.339 368.235 999.65 375.305C999.915 376.129 998.88 377.351 998.428 378.414C997.366 377.936 995.773 377.723 995.374 376.926C994.727 375.366 994.272 373.732 994.02 372.062C992.789 366.758 990.358 361.807 986.914 357.591C983.47 353.375 979.106 350.006 974.156 347.744C970.636 346.193 966.812 345.457 962.968 345.59C959.124 345.724 955.36 346.723 951.956 348.514C939.208 354.161 929.027 364.37 923.409 377.139C922.506 379.105 922.293 381.923 919.08 381.869Z" fill="white"/>
</svg>
