<svg xmlns="http://www.w3.org/2000/svg" xmlns:xlink="http://www.w3.org/1999/xlink" viewBox="0 0 1444.5 888.76"><defs><style>.cls-1,.cls-10,.cls-12,.cls-15,.cls-19,.cls-21,.cls-22,.cls-25,.cls-26,.cls-27,.cls-28,.cls-29,.cls-30,.cls-31,.cls-32,.cls-33,.cls-34,.cls-38,.cls-39,.cls-4,.cls-40,.cls-7{fill:#fff;}.cls-1,.cls-20,.cls-25,.cls-26,.cls-27,.cls-28,.cls-29,.cls-33,.cls-36,.cls-4{stroke:#231f20;}.cls-1,.cls-10,.cls-12,.cls-14,.cls-15,.cls-20,.cls-21,.cls-22,.cls-25,.cls-26,.cls-27,.cls-28,.cls-29,.cls-30,.cls-31,.cls-32,.cls-33,.cls-34,.cls-36,.cls-38,.cls-39,.cls-4,.cls-40,.cls-5,.cls-7{stroke-miterlimit:10;}.cls-1,.cls-36{stroke-width:0.88px;}.cls-2{fill:#fffef8;}.cls-3{fill:#303030;}.cls-4{stroke-width:0.79px;}.cls-14,.cls-36,.cls-5{fill:none;}.cls-10,.cls-12,.cls-14,.cls-15,.cls-21,.cls-22,.cls-30,.cls-31,.cls-32,.cls-34,.cls-38,.cls-39,.cls-40,.cls-5,.cls-7{stroke:#0b1828;}.cls-5{stroke-width:1.58px;}.cls-6{fill:#f2f7f9;}.cls-7{stroke-width:1.15px;}.cls-8{font-size:20.64px;}.cls-11,.cls-13,.cls-18,.cls-8{fill:#231f20;}.cls-11,.cls-13,.cls-8{font-family:UrbaneRounded-Medium, Urbane Rounded;font-weight:500;}.cls-9{fill:#081728;}.cls-10{stroke-width:1.15px;}.cls-11{font-size:10.32px;}.cls-13{font-size:18px;}.cls-14,.cls-15{stroke-width:0.57px;}.cls-16{fill:#0b1828;}.cls-17{fill:#eaf1f4;}.cls-20{fill:#666766;stroke-width:0.5px;}.cls-21{stroke-width:1.57px;}.cls-22{stroke-width:1.08px;}.cls-23{fill:#e4eaed;}.cls-24{fill:#f6e3b5;}.cls-25{stroke-width:0.85px;}.cls-26{stroke-width:1.52px;}.cls-27{stroke-width:1.2px;}.cls-28{stroke-width:1.03px;}.cls-29{stroke-width:0.84px;}.cls-30{stroke-width:1.3px;}.cls-31{stroke-width:1.63px;}.cls-32{stroke-width:1.81px;}.cls-33{stroke-width:1.47px;}.cls-34{stroke-width:1.66px;}.cls-35{clip-path:url(#clip-path);}.cls-37{fill:#121212;}.cls-38{stroke-width:0.76px;}.cls-39{stroke-width:0.97px;}.cls-40{stroke-width:1.07px;}</style><clipPath id="clip-path"><path class="cls-1" d="M545.05,145.73a6.85,6.85,0,0,1,.79,0h17.71a7.58,7.58,0,0,1,7.59,7.58v5.89a1.39,1.39,0,0,1-1.43,1.39l-1.48,0c-6.74,0-12.25,1.44-12.75,3.26,0,0,0,.24,0,.26.18,6,5.83,10.74,12.8,10.74a13.74,13.74,0,0,0,1.94-.13.85.85,0,0,1,1,.85h0a7.58,7.58,0,0,1-7.59,7.58H545.84a7.59,7.59,0,0,1-7.59-7.58V153.27A7.58,7.58,0,0,1,545.05,145.73Z"/></clipPath></defs><g id="Layer_2" data-name="Layer 2"><g id="Layer_3" data-name="Layer 3"><rect class="cls-2" width="1444.5" height="888.76"/><path class="cls-3" d="M149.68,115.05l-2.18,8.45H143l3.45-8.45Zm6.14,0-2.18,8.45H149.1l3.46-8.45Z"/><path class="cls-3" d="M168.88,139.12a12.53,12.53,0,0,1-4.68-.88,11.84,11.84,0,0,1-3.79-2.45,11.39,11.39,0,0,1-2.52-3.67,11.59,11.59,0,0,1,0-9.05,11.29,11.29,0,0,1,2.54-3.68,11.77,11.77,0,0,1,3.79-2.47,12.35,12.35,0,0,1,4.66-.88,12.6,12.6,0,0,1,3.58.52,13.15,13.15,0,0,1,3.22,1.44,10,10,0,0,1,2.54,2.24l-3.14,3.07a7.6,7.6,0,0,0-2.78-2.26,8,8,0,0,0-3.42-.75,7.13,7.13,0,0,0-2.82.56,7,7,0,0,0-2.27,1.54,7.26,7.26,0,0,0-1.51,2.28,7.63,7.63,0,0,0-.54,2.92,7.33,7.33,0,0,0,.56,2.86,7,7,0,0,0,1.54,2.3,7,7,0,0,0,2.3,1.53,7.72,7.72,0,0,0,2.93.54,7.51,7.51,0,0,0,3.29-.74,7.9,7.9,0,0,0,2.69-2.11l3,3a10.68,10.68,0,0,1-2.51,2.21,11.94,11.94,0,0,1-3.19,1.42A12.57,12.57,0,0,1,168.88,139.12Z"/><path class="cls-3" d="M188.17,139.12a8.91,8.91,0,0,1-4.51-1.16,8.63,8.63,0,0,1-3.2-3.12,8.27,8.27,0,0,1-1.18-4.36,8.36,8.36,0,0,1,1.18-4.4,8.6,8.6,0,0,1,3.2-3.11,9.57,9.57,0,0,1,9,0,8.53,8.53,0,0,1,3.2,3.11,8.72,8.72,0,0,1,0,8.76,8.5,8.5,0,0,1-3.18,3.12A9,9,0,0,1,188.17,139.12Zm0-3.81a4.36,4.36,0,0,0,2.37-.66,4.7,4.7,0,0,0,1.66-1.74,5.19,5.19,0,0,0,0-4.9,4.75,4.75,0,0,0-1.67-1.72,4.29,4.29,0,0,0-2.32-.65,4.43,4.43,0,0,0-2.36.65,4.6,4.6,0,0,0-1.67,1.72,5.23,5.23,0,0,0,0,4.9,4.83,4.83,0,0,0,1.65,1.74A4.29,4.29,0,0,0,188.17,135.31Z"/><path class="cls-3" d="M199.76,138.8V122.12h4.38v1.38a7.31,7.31,0,0,1,8.11-.85,6.07,6.07,0,0,1,2.32,2.34,6.87,6.87,0,0,1,.83,3.44V138.8h-4.35v-9.7a3.25,3.25,0,0,0-3.49-3.52,4.37,4.37,0,0,0-2,.43,3.89,3.89,0,0,0-1.44,1.23V138.8Z"/><path class="cls-3" d="M223.21,138.8l-7.13-16.68h4.76l4.55,11.11L230,122.12h4.64l-7.1,16.68Z"/><path class="cls-3" d="M244,139.12a9,9,0,0,1-7.74-4.28,8.18,8.18,0,0,1-1.19-4.36,8.58,8.58,0,0,1,4.23-7.49,8.31,8.31,0,0,1,4.32-1.15,8,8,0,0,1,4.27,1.16,8.15,8.15,0,0,1,2.94,3.19A9.6,9.6,0,0,1,252,130.8V132H239.6a4.79,4.79,0,0,0,1,1.79,4.51,4.51,0,0,0,1.63,1.23,5,5,0,0,0,2.08.44,6.24,6.24,0,0,0,2-.34,4.57,4.57,0,0,0,1.64-1l2.88,2.63a10.11,10.11,0,0,1-6.79,2.4Zm-4.51-10.31h8.13a4.57,4.57,0,0,0-.85-1.74,4.21,4.21,0,0,0-1.42-1.17,4,4,0,0,0-1.79-.41,4.3,4.3,0,0,0-1.86.39,3.72,3.72,0,0,0-1.39,1.16A4.81,4.81,0,0,0,239.53,128.81Z"/><path class="cls-3" d="M254.6,138.8V122.12H259V124a5.2,5.2,0,0,1,1.9-1.66,5.5,5.5,0,0,1,2.55-.58,4.16,4.16,0,0,1,1.82.35V126a7.44,7.44,0,0,0-1.07-.35,5.52,5.52,0,0,0-1.17-.12,4.35,4.35,0,0,0-2.34.65A4.78,4.78,0,0,0,259,128V138.8Z"/><path class="cls-3" d="M274.09,139.12a14.38,14.38,0,0,1-4.21-.6,10.4,10.4,0,0,1-3.4-1.68l2.17-2.94a12.93,12.93,0,0,0,2.77,1.44,7.68,7.68,0,0,0,2.64.48,4.8,4.8,0,0,0,2.35-.49,1.48,1.48,0,0,0,.88-1.3,1.22,1.22,0,0,0-.5-1,3.52,3.52,0,0,0-1.58-.54L272,132a6.89,6.89,0,0,1-3.76-1.61,4.32,4.32,0,0,1-1.3-3.25,4.76,4.76,0,0,1,.85-2.82,5.33,5.33,0,0,1,2.42-1.82,9.52,9.52,0,0,1,3.65-.64,12.84,12.84,0,0,1,3.6.51,11.38,11.38,0,0,1,3.28,1.57l-2.11,2.84a11,11,0,0,0-2.65-1.24,8.47,8.47,0,0,0-2.51-.39,3.54,3.54,0,0,0-1.9.45,1.34,1.34,0,0,0-.72,1.18,1.26,1.26,0,0,0,.51,1.06,4,4,0,0,0,1.73.58l3.2.44a6.77,6.77,0,0,1,3.81,1.61,4.18,4.18,0,0,1,1.31,3.16,4.51,4.51,0,0,1-1,2.84,6.55,6.55,0,0,1-2.61,2A9.31,9.31,0,0,1,274.09,139.12Z"/><path class="cls-3" d="M289,139.08a7.12,7.12,0,0,1-3.13-.65,5.25,5.25,0,0,1-2.15-1.81A4.69,4.69,0,0,1,283,134a4.35,4.35,0,0,1,1.79-3.72,8.2,8.2,0,0,1,5-1.33,12.29,12.29,0,0,1,4.1.67v-1.21a2.65,2.65,0,0,0-.9-2.18,4.05,4.05,0,0,0-2.62-.74,8.63,8.63,0,0,0-2.28.34,18.46,18.46,0,0,0-2.81,1l-1.57-3.27a24.72,24.72,0,0,1,3.78-1.31,14.57,14.57,0,0,1,3.58-.45,7.79,7.79,0,0,1,5.28,1.62,5.72,5.72,0,0,1,1.86,4.56V138.8h-4.32v-1.19a7,7,0,0,1-2.21,1.12A9,9,0,0,1,289,139.08Zm-1.88-5.21a1.73,1.73,0,0,0,.83,1.52,3.91,3.91,0,0,0,2.21.56,7.45,7.45,0,0,0,2-.26,5.27,5.27,0,0,0,1.68-.83v-2.43a7,7,0,0,0-1.67-.5,11.89,11.89,0,0,0-1.85-.14,4.39,4.39,0,0,0-2.36.54A1.75,1.75,0,0,0,287.15,133.87Z"/><path class="cls-3" d="M308.91,139.05a6.12,6.12,0,0,1-4.18-1.26,4.65,4.65,0,0,1-1.42-3.67v-8.35h-3.43v-3.65h3.43v-4.25l4.35-1v5.24h4.8v3.65h-4.8v7.43a2.14,2.14,0,0,0,.53,1.64,2.5,2.5,0,0,0,1.77.5,8.51,8.51,0,0,0,1.2-.08,8,8,0,0,0,1.17-.27v3.58a8.54,8.54,0,0,1-1.66.35A13.26,13.26,0,0,1,308.91,139.05Z"/><path class="cls-3" d="M316.78,120.14a2.39,2.39,0,0,1-1.76-.73,2.47,2.47,0,0,1-.74-1.8,2.35,2.35,0,0,1,.74-1.74,2.52,2.52,0,0,1,3.53,0,2.37,2.37,0,0,1,.72,1.74,2.49,2.49,0,0,1-.72,1.8A2.38,2.38,0,0,1,316.78,120.14ZM314.6,138.8V122.12H319V138.8Z"/><path class="cls-3" d="M330.54,139.12A9,9,0,0,1,326,138a8.63,8.63,0,0,1-3.2-3.12,8.36,8.36,0,0,1-1.18-4.36,8.45,8.45,0,0,1,1.18-4.4A8.6,8.6,0,0,1,326,123a9.59,9.59,0,0,1,9,0,8.6,8.6,0,0,1,3.2,3.11,8.78,8.78,0,0,1,0,8.76,8.46,8.46,0,0,1-3.19,3.12A9,9,0,0,1,330.54,139.12Zm0-3.81a4.35,4.35,0,0,0,2.36-.66,4.72,4.72,0,0,0,1.67-1.74,5,5,0,0,0,.61-2.46,4.8,4.8,0,0,0-.63-2.44,4.72,4.72,0,0,0-1.66-1.72,4.32,4.32,0,0,0-2.32-.65,4.44,4.44,0,0,0-2.37.65,4.57,4.57,0,0,0-1.66,1.72,5.23,5.23,0,0,0,0,4.9,4.73,4.73,0,0,0,1.64,1.74A4.33,4.33,0,0,0,330.54,135.31Z"/><path class="cls-3" d="M342.12,138.8V122.12h4.39v1.38a7.31,7.31,0,0,1,8.11-.85,6.13,6.13,0,0,1,2.32,2.34,7,7,0,0,1,.83,3.44V138.8h-4.35v-9.7a3.26,3.26,0,0,0-3.49-3.52,4.38,4.38,0,0,0-2,.43,3.93,3.93,0,0,0-1.43,1.23V138.8Z"/><path class="cls-3" d="M359.66,123.53l2.17-8.45h4.55l-3.46,8.45Zm6.14,0,2.18-8.45h4.54l-3.46,8.45Z"/><path class="cls-3" d="M149.68,301.18l-2.18,8.45H143l3.45-8.45Zm6.14,0-2.18,8.45H149.1l3.46-8.45Z"/><path class="cls-3" d="M166.57,324.93l-9.12-22.4h5l6.84,17.66,7-17.66h4.8l-9.21,22.4Z"/><path class="cls-3" d="M188.56,325.25A9,9,0,0,1,184,324.1a8.78,8.78,0,0,1-3.2-3.12,8.74,8.74,0,0,1,0-8.77,8.68,8.68,0,0,1,3.2-3.11,9.59,9.59,0,0,1,9,0,8.68,8.68,0,0,1,3.2,3.11,8.77,8.77,0,0,1,0,8.77,8.65,8.65,0,0,1-3.18,3.12A9.06,9.06,0,0,1,188.56,325.25Zm0-3.81a4.43,4.43,0,0,0,2.36-.65,4.75,4.75,0,0,0,1.67-1.75,5,5,0,0,0,.61-2.46,4.8,4.8,0,0,0-.63-2.44,4.72,4.72,0,0,0-1.66-1.72,4.33,4.33,0,0,0-2.32-.64,4.43,4.43,0,0,0-2.37.64,4.57,4.57,0,0,0-1.66,1.72,5.23,5.23,0,0,0,0,4.9,4.75,4.75,0,0,0,1.64,1.75A4.41,4.41,0,0,0,188.56,321.44Z"/><path class="cls-3" d="M208.08,325.25a8.62,8.62,0,0,1-4.4-1.14,8.8,8.8,0,0,1-3.16-11.92,8.66,8.66,0,0,1,7.56-4.25,9.72,9.72,0,0,1,3.82.76,8.59,8.59,0,0,1,3.09,2.21l-2.66,2.85a6.36,6.36,0,0,0-1.93-1.5,5.09,5.09,0,0,0-2.2-.48,4.29,4.29,0,0,0-2.3.62,4.39,4.39,0,0,0-1.6,1.71,5.33,5.33,0,0,0-.58,2.5,5.09,5.09,0,0,0,.61,2.45A4.79,4.79,0,0,0,206,320.8a4.33,4.33,0,0,0,2.34.64,4.69,4.69,0,0,0,2.1-.48,6.57,6.57,0,0,0,1.87-1.44l2.62,2.75a9.28,9.28,0,0,1-3.07,2.19A9,9,0,0,1,208.08,325.25Z"/><path class="cls-3" d="M222.44,325.22a7.16,7.16,0,0,1-3.13-.66,5.25,5.25,0,0,1-2.15-1.81,4.68,4.68,0,0,1-.76-2.65,4.35,4.35,0,0,1,1.79-3.73,8.2,8.2,0,0,1,5-1.33,12.29,12.29,0,0,1,4.1.67V314.5a2.65,2.65,0,0,0-.9-2.18,4.05,4.05,0,0,0-2.62-.74,9.07,9.07,0,0,0-2.28.34,18.46,18.46,0,0,0-2.81,1l-1.57-3.26a23.78,23.78,0,0,1,3.78-1.32,15.12,15.12,0,0,1,3.58-.44,7.84,7.84,0,0,1,5.28,1.61,5.72,5.72,0,0,1,1.86,4.56v10.82h-4.32v-1.19a6.79,6.79,0,0,1-2.21,1.12A9,9,0,0,1,222.44,325.22ZM220.56,320a1.73,1.73,0,0,0,.83,1.52,3.91,3.91,0,0,0,2.21.56,7.45,7.45,0,0,0,2-.25,5.3,5.3,0,0,0,1.68-.84v-2.43a7.47,7.47,0,0,0-1.67-.5,11.89,11.89,0,0,0-1.85-.14,4.39,4.39,0,0,0-2.36.54A1.75,1.75,0,0,0,220.56,320Z"/><path class="cls-3" d="M234.92,324.93v-22.4l4.39-.74v7.81A7.34,7.34,0,0,1,244,308a8,8,0,0,1,4.29,1.12,8.6,8.6,0,0,1,3,3.09,8.45,8.45,0,0,1,1.14,4.37,8.27,8.27,0,0,1-1.15,4.33,8.52,8.52,0,0,1-7.46,4.21,8.12,8.12,0,0,1-2.43-.35,8.66,8.66,0,0,1-2.18-1v1.15Zm8.36-3.49a5,5,0,0,0,2.48-.62,4.64,4.64,0,0,0,1.74-1.75,4.83,4.83,0,0,0,.64-2.46,4.7,4.7,0,0,0-2.38-4.19,4.85,4.85,0,0,0-2.48-.64,6,6,0,0,0-2.24.4,4.22,4.22,0,0,0-1.73,1.2v6.49a4.81,4.81,0,0,0,1.74,1.15A5.9,5.9,0,0,0,243.28,321.44Z"/><path class="cls-3" d="M261.58,325.25a6.72,6.72,0,0,1-3.41-.85,6,6,0,0,1-2.32-2.37,7.09,7.09,0,0,1-.83-3.44V308.26h4.35V318a3.52,3.52,0,0,0,.94,2.58,3.44,3.44,0,0,0,2.55.94,4.29,4.29,0,0,0,2-.45,4.06,4.06,0,0,0,1.45-1.21V308.26h4.39v16.67h-4.39v-1.35A6.93,6.93,0,0,1,261.58,325.25Z"/><path class="cls-3" d="M274.09,324.93v-22.4l4.38-.74v23.14Z"/><path class="cls-3" d="M287.18,325.22a7.2,7.2,0,0,1-3.14-.66,5.16,5.16,0,0,1-2.14-1.81,4.68,4.68,0,0,1-.77-2.65,4.38,4.38,0,0,1,1.79-3.73,8.22,8.22,0,0,1,5-1.33,12.29,12.29,0,0,1,4.1.67V314.5a2.65,2.65,0,0,0-.9-2.18,4,4,0,0,0-2.62-.74,9,9,0,0,0-2.27.34,18.94,18.94,0,0,0-2.82,1l-1.57-3.26a24.49,24.49,0,0,1,3.78-1.32,15.18,15.18,0,0,1,3.58-.44,7.81,7.81,0,0,1,5.28,1.61,5.72,5.72,0,0,1,1.86,4.56v10.82H292v-1.19a6.69,6.69,0,0,1-2.21,1.12A9,9,0,0,1,287.18,325.22ZM285.29,320a1.75,1.75,0,0,0,.83,1.52,3.93,3.93,0,0,0,2.21.56,7.4,7.4,0,0,0,2-.25A5.1,5.1,0,0,0,292,321v-2.43a7.39,7.39,0,0,0-1.66-.5,12.12,12.12,0,0,0-1.86-.14,4.35,4.35,0,0,0-2.35.54A1.73,1.73,0,0,0,285.29,320Z"/><path class="cls-3" d="M299.63,324.93V308.26H304v1.85a5.15,5.15,0,0,1,1.91-1.66,5.43,5.43,0,0,1,2.54-.58,4.16,4.16,0,0,1,1.82.35v3.88a6.41,6.41,0,0,0-1.07-.36,5.52,5.52,0,0,0-1.17-.12,4.38,4.38,0,0,0-2.33.65,4.8,4.8,0,0,0-1.7,1.84v10.82Z"/><path class="cls-3" d="M314.67,331.84a9.86,9.86,0,0,1-1.11,0,3.34,3.34,0,0,1-.85-.17v-3.75a6.94,6.94,0,0,0,1.51.13,3.35,3.35,0,0,0,3.33-2.27l.25-.67-6.49-16.8h4.86l4.13,11.36,4.7-11.36h4.74l-7.68,18a13.68,13.68,0,0,1-1.89,3.22,6.16,6.16,0,0,1-2.35,1.79A8.17,8.17,0,0,1,314.67,331.84Z"/><path class="cls-3" d="M331.66,309.66l2.17-8.44h4.55l-3.46,8.44Zm6.14,0,2.18-8.44h4.54l-3.46,8.44Z"/><path class="cls-3" d="M149.68,486.15l-2.18,8.45H143l3.45-8.45Zm6.14,0-2.18,8.45H149.1l3.46-8.45Z"/><path class="cls-3" d="M168.88,510.22a12.53,12.53,0,0,1-4.68-.88,11.84,11.84,0,0,1-3.79-2.45,11.39,11.39,0,0,1-2.52-3.67,11.43,11.43,0,0,1,2.54-12.73,11.77,11.77,0,0,1,3.79-2.47,12.35,12.35,0,0,1,4.66-.88,12.6,12.6,0,0,1,3.58.52,13.15,13.15,0,0,1,3.22,1.44,10,10,0,0,1,2.54,2.24l-3.14,3.07a7.6,7.6,0,0,0-2.78-2.26,8,8,0,0,0-3.42-.75,7.13,7.13,0,0,0-2.82.56,7,7,0,0,0-2.27,1.54,7.26,7.26,0,0,0-1.51,2.28,7.63,7.63,0,0,0-.54,2.92,7.33,7.33,0,0,0,.56,2.86,7,7,0,0,0,1.54,2.3,6.79,6.79,0,0,0,2.3,1.52,7.86,7.86,0,0,0,6.22-.19,7.9,7.9,0,0,0,2.69-2.11l3,3a10.68,10.68,0,0,1-2.51,2.21,12.26,12.26,0,0,1-3.19,1.42A12.57,12.57,0,0,1,168.88,510.22Z"/><path class="cls-3" d="M188.17,510.22a8.91,8.91,0,0,1-4.51-1.16,8.63,8.63,0,0,1-3.2-3.12,8.72,8.72,0,0,1,0-8.76,8.6,8.6,0,0,1,3.2-3.11,9.57,9.57,0,0,1,9,0,8.53,8.53,0,0,1,3.2,3.11,8.72,8.72,0,0,1,0,8.76,8.5,8.5,0,0,1-3.18,3.12A9,9,0,0,1,188.17,510.22Zm0-3.81a4.36,4.36,0,0,0,2.37-.66A4.7,4.7,0,0,0,192.2,504a4.94,4.94,0,0,0,.61-2.47,4.8,4.8,0,0,0-2.29-4.16,4.37,4.37,0,0,0-2.32-.64,4.51,4.51,0,0,0-2.36.64,4.7,4.7,0,0,0-1.67,1.73,5,5,0,0,0-.61,2.43,5.05,5.05,0,0,0,.61,2.47,4.83,4.83,0,0,0,1.65,1.74A4.29,4.29,0,0,0,188.17,506.41Z"/><path class="cls-3" d="M199.76,509.9V493.22h4.38v1.28a6.32,6.32,0,0,1,4.35-1.6,6.24,6.24,0,0,1,2.91.66,5.78,5.78,0,0,1,2.12,1.84,6.88,6.88,0,0,1,2.43-1.86,7.51,7.51,0,0,1,3.1-.64,6.33,6.33,0,0,1,3.28.85,6.07,6.07,0,0,1,2.24,2.34,7,7,0,0,1,.82,3.44V509.9H221v-9.7a3.74,3.74,0,0,0-.84-2.58,2.93,2.93,0,0,0-2.29-.94,4,4,0,0,0-1.81.4,3.62,3.62,0,0,0-1.39,1.26l.06.58a5.93,5.93,0,0,1,0,.61V509.9h-4.38v-9.7a3.7,3.7,0,0,0-.85-2.58,2.91,2.91,0,0,0-2.29-.94,4,4,0,0,0-1.77.38,3.43,3.43,0,0,0-1.33,1.16V509.9Z"/><path class="cls-3" d="M228.72,516.42v-23.2H233v1.38a7.36,7.36,0,0,1,4.73-1.6,8,8,0,0,1,4.29,1.12,8.71,8.71,0,0,1,3.06,3.09,8.52,8.52,0,0,1,1.13,4.37,8.27,8.27,0,0,1-1.15,4.33,8.55,8.55,0,0,1-7.46,4.21,8.21,8.21,0,0,1-2.41-.35,9,9,0,0,1-2.13-1v7.64Zm8.35-10a4.94,4.94,0,0,0,2.48-.63,4.54,4.54,0,0,0,1.74-1.74,4.86,4.86,0,0,0,.64-2.46,4.76,4.76,0,0,0-.64-2.47,4.89,4.89,0,0,0-1.74-1.73,5,5,0,0,0-2.48-.64,6.24,6.24,0,0,0-2.24.4,4.42,4.42,0,0,0-1.73,1.2v6.5a4.81,4.81,0,0,0,1.74,1.15A5.94,5.94,0,0,0,237.07,506.41Z"/><path class="cls-3" d="M248.88,509.9V493.22h4.41v1.86a5.2,5.2,0,0,1,1.9-1.66,5.5,5.5,0,0,1,2.55-.58,4.16,4.16,0,0,1,1.82.35v3.87a6.38,6.38,0,0,0-1.07-.35,5.52,5.52,0,0,0-1.17-.13,4.3,4.3,0,0,0-2.33.66,4.8,4.8,0,0,0-1.7,1.84V509.9Z"/><path class="cls-3" d="M269.45,510.22a8.95,8.95,0,0,1-7.74-4.28,8.18,8.18,0,0,1-1.19-4.36,8.58,8.58,0,0,1,4.23-7.49,8.31,8.31,0,0,1,4.32-1.15,8,8,0,0,1,4.27,1.16,8.15,8.15,0,0,1,2.94,3.19,9.59,9.59,0,0,1,1.07,4.61v1.15H265a4.93,4.93,0,0,0,1,1.79,4.55,4.55,0,0,0,1.64,1.23,4.93,4.93,0,0,0,2.08.43,6.23,6.23,0,0,0,2-.33,4.44,4.44,0,0,0,1.63-1l2.88,2.63a10.58,10.58,0,0,1-3.15,1.82A10.8,10.8,0,0,1,269.45,510.22Zm-4.51-10.31h8.13a4.71,4.71,0,0,0-.85-1.74A4.3,4.3,0,0,0,270.8,497a4,4,0,0,0-1.8-.42,4.29,4.29,0,0,0-1.85.4,3.72,3.72,0,0,0-1.39,1.16A4.81,4.81,0,0,0,264.94,499.91Z"/><path class="cls-3" d="M280,509.9V487.5l4.39-1v8.06a7.31,7.31,0,0,1,8.11-.85,6.13,6.13,0,0,1,2.32,2.34,7,7,0,0,1,.83,3.44V509.9h-4.35v-9.7a3.49,3.49,0,0,0-.95-2.58,3.4,3.4,0,0,0-2.54-.94,4.31,4.31,0,0,0-2,.43,3.89,3.89,0,0,0-1.44,1.23V509.9Z"/><path class="cls-3" d="M307.18,510.22a9,9,0,0,1-7.75-4.28,8.17,8.17,0,0,1-1.18-4.36,8.56,8.56,0,0,1,1.14-4.37,8.46,8.46,0,0,1,3.08-3.12,8.37,8.37,0,0,1,4.32-1.15,8,8,0,0,1,4.28,1.16,8.23,8.23,0,0,1,2.94,3.19,9.59,9.59,0,0,1,1.07,4.61v1.15H302.73a4.79,4.79,0,0,0,1,1.79,4.6,4.6,0,0,0,1.63,1.23,5,5,0,0,0,2.08.43,6.25,6.25,0,0,0,2.05-.33,4.53,4.53,0,0,0,1.63-1l2.88,2.63a10.58,10.58,0,0,1-3.15,1.82A10.88,10.88,0,0,1,307.18,510.22Zm-4.51-10.31h8.12a4.7,4.7,0,0,0-.84-1.74,4.24,4.24,0,0,0-1.43-1.17,3.9,3.9,0,0,0-1.79-.42,4.37,4.37,0,0,0-1.86.4,3.88,3.88,0,0,0-1.39,1.16A5,5,0,0,0,302.67,499.91Z"/><path class="cls-3" d="M317.77,509.9V493.22h4.38v1.38a7.33,7.33,0,0,1,8.12-.85,6.13,6.13,0,0,1,2.32,2.34,7,7,0,0,1,.83,3.44V509.9h-4.35v-9.7a3.49,3.49,0,0,0-.95-2.58,3.43,3.43,0,0,0-2.54-.94,4.38,4.38,0,0,0-2,.43,4,4,0,0,0-1.44,1.23V509.9Z"/><path class="cls-3" d="M343,510.22a14.31,14.31,0,0,1-4.2-.6,10.45,10.45,0,0,1-3.41-1.68l2.17-2.94a13.16,13.16,0,0,0,2.77,1.44,7.77,7.77,0,0,0,2.64.48,4.66,4.66,0,0,0,2.35-.5,1.46,1.46,0,0,0,.88-1.29,1.24,1.24,0,0,0-.49-1,3.57,3.57,0,0,0-1.59-.54l-3.2-.48a6.85,6.85,0,0,1-3.76-1.62,4.27,4.27,0,0,1-1.29-3.24,4.69,4.69,0,0,1,.85-2.82,5.3,5.3,0,0,1,2.41-1.82,9.56,9.56,0,0,1,3.65-.64,12.73,12.73,0,0,1,3.6.51,11.26,11.26,0,0,1,3.28,1.57l-2.11,2.84a11.11,11.11,0,0,0-2.64-1.24,8.47,8.47,0,0,0-2.51-.39,3.58,3.58,0,0,0-1.91.45,1.34,1.34,0,0,0-.72,1.18,1.26,1.26,0,0,0,.51,1.06,4,4,0,0,0,1.73.58l3.2.44a6.77,6.77,0,0,1,3.81,1.6,4.22,4.22,0,0,1,1.31,3.17,4.47,4.47,0,0,1-1,2.83,6.48,6.48,0,0,1-2.61,2A9.31,9.31,0,0,1,343,510.22Z"/><path class="cls-3" d="M354.63,491.24a2.51,2.51,0,0,1-2.49-2.53,2.34,2.34,0,0,1,.73-1.74,2.54,2.54,0,0,1,3.54,0,2.37,2.37,0,0,1,.72,1.74,2.45,2.45,0,0,1-.72,1.79A2.39,2.39,0,0,1,354.63,491.24Zm-2.17,18.66V493.22h4.38V509.9Z"/><path class="cls-3" d="M368.39,510.22a8.94,8.94,0,0,1-4.51-1.16,8.63,8.63,0,0,1-3.2-3.12,8.72,8.72,0,0,1,0-8.76,8.6,8.6,0,0,1,3.2-3.11,9.59,9.59,0,0,1,9,0,8.6,8.6,0,0,1,3.2,3.11,8.6,8.6,0,0,1-3.17,11.88A9,9,0,0,1,368.39,510.22Zm0-3.81a4.36,4.36,0,0,0,2.37-.66,4.72,4.72,0,0,0,1.67-1.74,5,5,0,0,0,.6-2.47,4.78,4.78,0,0,0-.62-2.43,4.92,4.92,0,0,0-1.66-1.73,4.42,4.42,0,0,0-2.32-.64,4.52,4.52,0,0,0-2.37.64,4.7,4.7,0,0,0-1.67,1.73,5,5,0,0,0-.6,2.43,5,5,0,0,0,.6,2.47,4.83,4.83,0,0,0,1.65,1.74A4.29,4.29,0,0,0,368.39,506.41Z"/><path class="cls-3" d="M380,509.9V493.22h4.38v1.38a6.87,6.87,0,0,1,4.71-1.7,6.78,6.78,0,0,1,3.4.85,6,6,0,0,1,2.32,2.34,6.88,6.88,0,0,1,.84,3.44V509.9h-4.36v-9.7a3.48,3.48,0,0,0-.94-2.58,3.43,3.43,0,0,0-2.54-.94,4.38,4.38,0,0,0-2,.43,4,4,0,0,0-1.44,1.23V509.9Z"/><path class="cls-3" d="M397.51,494.63l2.18-8.45h4.54l-3.45,8.45Zm6.15,0,2.17-8.45h4.55l-3.46,8.45Z"/><path class="cls-3" d="M149.68,673.27l-2.18,8.45H143l3.45-8.45Zm6.14,0-2.18,8.45H149.1l3.46-8.45Z"/><path class="cls-3" d="M168.85,697.36a12.07,12.07,0,0,1-4.65-.88,11.8,11.8,0,0,1-3.79-2.46,11.14,11.14,0,0,1-2.54-3.68,11.38,11.38,0,0,1-.9-4.53,11.22,11.22,0,0,1,.92-4.53,11.63,11.63,0,0,1,2.51-3.68,11.48,11.48,0,0,1,3.74-2.46,12.06,12.06,0,0,1,4.64-.88,12.78,12.78,0,0,1,5.23,1.1,10.74,10.74,0,0,1,4.08,3.09l-3.23,3a7.68,7.68,0,0,0-2.7-2.18,7.81,7.81,0,0,0-3.38-.73,6.89,6.89,0,0,0-5,2.09,7,7,0,0,0-1.47,2.29,8.18,8.18,0,0,0,0,5.82,6.85,6.85,0,0,0,1.53,2.32,7.17,7.17,0,0,0,2.28,1.54,7.28,7.28,0,0,0,2.85.56,6.5,6.5,0,0,0,2.85-.61,6.32,6.32,0,0,0,2.16-1.66,5.61,5.61,0,0,0,1.17-2.4h-6.63v-4h11.59v1.4a12.27,12.27,0,0,1-.85,4.6,11.35,11.35,0,0,1-2.35,3.64,10.71,10.71,0,0,1-3.56,2.42A11.27,11.27,0,0,1,168.85,697.36Z"/><path class="cls-3" d="M182.92,697V680.34h4.42v1.86a5.23,5.23,0,0,1,1.9-1.67,5.62,5.62,0,0,1,2.55-.57,4,4,0,0,1,1.82.35v3.87a5.58,5.58,0,0,0-1.07-.35,4.94,4.94,0,0,0-1.17-.13,4.36,4.36,0,0,0-2.34.66,4.78,4.78,0,0,0-1.69,1.84V697Z"/><path class="cls-3" d="M200.84,697.3a7.13,7.13,0,0,1-3.13-.66,5.23,5.23,0,0,1-2.15-1.8,4.71,4.71,0,0,1-.76-2.66,4.37,4.37,0,0,1,1.79-3.73,8.27,8.27,0,0,1,5-1.33,12.33,12.33,0,0,1,4.1.68v-1.22a2.65,2.65,0,0,0-.9-2.18,4.05,4.05,0,0,0-2.62-.73,9,9,0,0,0-2.28.33,20.88,20.88,0,0,0-2.81,1l-1.57-3.26a23.69,23.69,0,0,1,3.78-1.31,14.57,14.57,0,0,1,3.58-.45,7.79,7.79,0,0,1,5.28,1.62A5.7,5.7,0,0,1,210,686.2V697h-4.32v-1.18a7.21,7.21,0,0,1-2.21,1.12A9.4,9.4,0,0,1,200.84,697.3ZM199,692.08a1.73,1.73,0,0,0,.83,1.52,3.83,3.83,0,0,0,2.21.56,7.45,7.45,0,0,0,2-.25,5.27,5.27,0,0,0,1.68-.83v-2.44a7,7,0,0,0-1.67-.49,10.83,10.83,0,0,0-1.85-.15,4.38,4.38,0,0,0-2.36.55A1.72,1.72,0,0,0,199,692.08Z"/><path class="cls-3" d="M213.32,697V680.34h4.39v1.28a6.73,6.73,0,0,1,7.26-.94,5.66,5.66,0,0,1,2.11,1.84,6.88,6.88,0,0,1,2.44-1.86,7.32,7.32,0,0,1,3.1-.64,6.24,6.24,0,0,1,3.28.85,6,6,0,0,1,2.24,2.33,7.11,7.11,0,0,1,.82,3.44V697h-4.39v-9.69a3.7,3.7,0,0,0-.85-2.58,2.91,2.91,0,0,0-2.29-.94,4,4,0,0,0-1.8.4,3.49,3.49,0,0,0-1.4,1.26c0,.19.05.38.07.58a5.74,5.74,0,0,1,0,.6V697H224v-9.69a3.75,3.75,0,0,0-.85-2.58,2.93,2.93,0,0,0-2.29-.94,3.9,3.9,0,0,0-1.77.38,3.49,3.49,0,0,0-1.33,1.15V697Z"/><path class="cls-3" d="M242.28,697V680.34h4.39v1.28a6.73,6.73,0,0,1,7.26-.94,5.66,5.66,0,0,1,2.11,1.84,6.88,6.88,0,0,1,2.44-1.86,7.32,7.32,0,0,1,3.1-.64,6.24,6.24,0,0,1,3.28.85,6,6,0,0,1,2.24,2.33,7.11,7.11,0,0,1,.82,3.44V697h-4.39v-9.69a3.7,3.7,0,0,0-.85-2.58,2.91,2.91,0,0,0-2.29-.94,4,4,0,0,0-1.8.4,3.49,3.49,0,0,0-1.4,1.26c0,.19.05.38.07.58a5.74,5.74,0,0,1,0,.6V697h-4.38v-9.69a3.75,3.75,0,0,0-.85-2.58,2.93,2.93,0,0,0-2.29-.94,3.9,3.9,0,0,0-1.77.38,3.49,3.49,0,0,0-1.33,1.15V697Z"/><path class="cls-3" d="M276.52,697.3a7.13,7.13,0,0,1-3.13-.66,5.23,5.23,0,0,1-2.15-1.8,4.71,4.71,0,0,1-.76-2.66,4.37,4.37,0,0,1,1.79-3.73,8.27,8.27,0,0,1,5-1.33,12.23,12.23,0,0,1,4.09.68v-1.22a2.65,2.65,0,0,0-.89-2.18,4.05,4.05,0,0,0-2.62-.73,9,9,0,0,0-2.28.33,20.88,20.88,0,0,0-2.81,1l-1.57-3.26a23.69,23.69,0,0,1,3.78-1.31,14.57,14.57,0,0,1,3.58-.45,7.79,7.79,0,0,1,5.28,1.62,5.7,5.7,0,0,1,1.86,4.56V697h-4.33v-1.18a7,7,0,0,1-2.2,1.12A9.4,9.4,0,0,1,276.52,697.3Zm-1.88-5.22a1.73,1.73,0,0,0,.83,1.52,3.83,3.83,0,0,0,2.21.56,7.45,7.45,0,0,0,2-.25,5.12,5.12,0,0,0,1.67-.83v-2.44a6.76,6.76,0,0,0-1.66-.49,10.83,10.83,0,0,0-1.85-.15,4.38,4.38,0,0,0-2.36.55A1.72,1.72,0,0,0,274.64,692.08Z"/><path class="cls-3" d="M289,697V680.34h4.42v1.86a5.15,5.15,0,0,1,1.9-1.67,5.61,5.61,0,0,1,2.54-.57,4.06,4.06,0,0,1,1.83.35v3.87a5.58,5.58,0,0,0-1.07-.35,5.06,5.06,0,0,0-1.17-.13,4.33,4.33,0,0,0-2.34.66,4.71,4.71,0,0,0-1.69,1.84V697Z"/><path class="cls-3" d="M301.29,681.75l2.18-8.45H308l-3.46,8.45Zm6.14,0,2.18-8.45h4.54l-3.45,8.45Z"/><circle class="cls-4" cx="458.48" cy="714.25" r="38.26"/><path class="cls-5" d="M476.57,717H448.25a.49.49,0,0,0-.49.41,3.54,3.54,0,0,1-7,.1c0-.28-.42-.36-1.14-.36-2.16,0-3.92,1.22-3.92,4.6v7.37a5.24,5.24,0,0,0,5.23,5.23h35.66a5.25,5.25,0,0,0,5.23-5.23v-6.89A5.25,5.25,0,0,0,476.57,717Z"/><path class="cls-5" d="M451.32,694.26a.49.49,0,0,0-.56.39,3.37,3.37,0,0,1-6.64.22.81.81,0,0,0-.8-.67H440.7A4.76,4.76,0,0,0,436,699v7.85a4.76,4.76,0,0,0,4.27,4.72.68.68,0,0,1,.59.47,3.58,3.58,0,0,0,3.43,2.82,3.53,3.53,0,0,0,3.43-2.72.71.71,0,0,1,.69-.54h2.21a4.77,4.77,0,0,0,4.75-4.75V699A4.77,4.77,0,0,0,451.32,694.26Z"/><circle class="cls-6" cx="604.11" cy="776.96" r="39.54"/><rect class="cls-7" x="586.67" y="753.46" width="34.89" height="46.99" rx="5.16"/><rect class="cls-7" x="590.1" y="755.99" width="34.89" height="46.99" rx="5.16"/><text class="cls-8" transform="translate(596.08 783.17)">A</text><rect class="cls-9" x="596.08" y="789.6" width="19.23" height="1.62" rx="0.81"/><rect class="cls-9" x="596.08" y="794.47" width="11.44" height="1.62" rx="0.81"/><circle class="cls-6" cx="727.7" cy="723.06" r="39.53"/><rect class="cls-10" x="710.26" y="699.57" width="34.88" height="46.98" rx="5.16"/><rect class="cls-10" x="713.69" y="702.1" width="34.88" height="46.98" rx="5.16"/><text class="cls-11" transform="translate(719.67 721.45)">ABC</text><rect class="cls-9" x="719.67" y="735.7" width="19.23" height="1.62" rx="0.81"/><rect class="cls-9" x="719.67" y="740.57" width="11.43" height="1.62" rx="0.81"/><circle class="cls-6" cx="625.53" cy="671.19" r="34.47"/><rect class="cls-12" x="610.32" y="650.71" width="30.42" height="40.97" rx="4.5"/><text class="cls-13" transform="translate(615.53 674.41)">A</text><circle class="cls-6" cx="370.31" cy="747.39" r="38.99"/><rect class="cls-14" x="352.22" y="731.29" width="25.08" height="33.78" rx="4.52"/><rect class="cls-9" x="356.52" y="755.45" width="13.83" height="1.17" rx="0.49"/><rect class="cls-9" x="356.52" y="758.95" width="8.22" height="1.17" rx="0.49"/><circle class="cls-15" cx="377.31" cy="741.65" r="11.93"/><circle class="cls-15" cx="377.31" cy="741.65" r="10.78"/><rect class="cls-16" x="389.58" y="747.73" width="3.25" height="15.44" rx="1.62" transform="translate(-419.6 497.89) rotate(-45)"/><circle class="cls-17" cx="490.87" cy="786.39" r="31.59"/><path class="cls-18" d="M492.87,800.93h-13A3.89,3.89,0,0,1,476,797V777a3.89,3.89,0,0,1,3.89-3.89h13a3.9,3.9,0,0,1,3.9,3.89v20A3.9,3.9,0,0,1,492.87,800.93Zm-13-27.36a3.44,3.44,0,0,0-3.44,3.43v20a3.45,3.45,0,0,0,3.44,3.44h13a3.45,3.45,0,0,0,3.44-3.44V777a3.44,3.44,0,0,0-3.44-3.43Z"/><rect class="cls-9" x="480.36" y="792.3" width="11.04" height="0.95" rx="0.47"/><circle class="cls-19" cx="496.54" cy="781.73" r="9.66"/><path class="cls-16" d="M496.54,791.62a9.89,9.89,0,1,1,9.89-9.89A9.91,9.91,0,0,1,496.54,791.62Zm0-19.32a9.43,9.43,0,1,0,9.43,9.43A9.44,9.44,0,0,0,496.54,772.3Z"/><circle class="cls-19" cx="496.54" cy="781.73" r="8.73"/><path class="cls-16" d="M496.54,790.69a9,9,0,1,1,9-9A9,9,0,0,1,496.54,790.69Zm0-17.46a8.5,8.5,0,1,0,8.5,8.5A8.51,8.51,0,0,0,496.54,773.23Z"/><path class="cls-16" d="M512.42,796.72h0a1.29,1.29,0,0,1-1.83,0l-6.89-7a1.34,1.34,0,0,1,0-1.86h0a1.3,1.3,0,0,1,1.84,0l6.88,7A1.34,1.34,0,0,1,512.42,796.72Z"/><path class="cls-20" d="M827.39,723h97.9l-9,6.61-7.58,5.54c-1.23.89,0,3,1.21,2.06l16.58-12.11c.88-.65,2.1-1.31,2.44-2.41.54-1.74-.76-2.7-2-3.58l-9.39-6.83-8.07-5.87c-1.25-.91-2.44,1.17-1.21,2.06l16.15,11.75.55.39H827.39a1.19,1.19,0,1,0,0,2.38Z"/><path class="cls-20" d="M827.39,522.1h97.9l-9,6.6-7.58,5.54c-1.23.9,0,3,1.21,2.06l16.58-12.11c.88-.65,2.1-1.31,2.44-2.41.54-1.73-.76-2.7-2-3.58l-9.39-6.83-8.07-5.87c-1.25-.9-2.44,1.17-1.21,2.06l16.15,11.75.55.4H827.39a1.2,1.2,0,1,0,0,2.39Z"/><path class="cls-20" d="M827.39,330.71h97.9l-9,6.6-7.58,5.54c-1.23.9,0,3,1.21,2.06l16.58-12.11c.88-.64,2.1-1.31,2.44-2.41.54-1.73-.76-2.7-2-3.57L917.53,320l-8.07-5.87c-1.25-.9-2.44,1.17-1.21,2.07l16.15,11.74.55.4H827.39a1.2,1.2,0,1,0,0,2.39Z"/><path class="cls-20" d="M827.39,143.2h97.9l-9,6.61-7.58,5.53c-1.23.9,0,3,1.21,2.07l16.58-12.11c.88-.65,2.1-1.31,2.44-2.41.54-1.74-.76-2.7-2-3.58l-9.39-6.83-8.07-5.87c-1.25-.91-2.44,1.17-1.21,2.06l16.15,11.75.55.39H827.39a1.2,1.2,0,1,0,0,2.39Z"/><circle class="cls-17" cx="544.69" cy="697.55" r="37.04"/><rect class="cls-21" x="523.95" y="676.95" width="39.47" height="39.47" rx="7.83"/><rect class="cls-21" x="529.02" y="681.38" width="39.47" height="39.47" rx="7.04"/><rect class="cls-9" x="533.3" y="689.8" width="15.61" height="2.22" rx="1.11"/><rect class="cls-9" x="542.22" y="700.01" width="15.61" height="2.22" rx="1.11"/><rect class="cls-9" x="550.02" y="711.75" width="15.61" height="2.22" rx="1.11"/><circle class="cls-17" cx="494.31" cy="636.38" r="25.63"/><rect class="cls-22" x="479.96" y="622.12" width="27.31" height="27.31" rx="5.42"/><rect class="cls-22" x="483.17" y="625.19" width="27.31" height="27.31" rx="4.88"/><rect class="cls-9" x="485.64" y="631.01" width="11.57" height="1.53" rx="0.77"/><rect class="cls-9" x="494.34" y="638.08" width="5.75" height="1.53" rx="0.77"/><rect class="cls-9" x="497.21" y="646.2" width="10.8" height="1.53" rx="0.77"/><rect class="cls-9" x="494.34" y="638.08" width="5.75" height="1.53" rx="0.77" transform="translate(-141.63 1136.06) rotate(-90)"/><circle class="cls-23" cx="1038.1" cy="718.78" r="47.32"/><rect class="cls-19" x="1014.35" y="695.19" width="45.52" height="45.52" rx="10"/><path class="cls-16" d="M1050.84,741.16h-27.46a9.49,9.49,0,0,1-9.48-9.48V704.22a9.49,9.49,0,0,1,9.48-9.48h27.46a9.49,9.49,0,0,1,9.48,9.48v27.46A9.49,9.49,0,0,1,1050.84,741.16Zm-27.46-45.51a8.58,8.58,0,0,0-8.58,8.57v27.46a8.59,8.59,0,0,0,8.58,8.58h27.46a8.59,8.59,0,0,0,8.58-8.58V704.22a8.58,8.58,0,0,0-8.58-8.57Z"/><rect class="cls-19" x="1019.7" y="700.3" width="45.52" height="45.52" rx="9"/><path class="cls-16" d="M1057.1,746.27h-29.27a8.59,8.59,0,0,1-8.58-8.58V708.43a8.59,8.59,0,0,1,8.58-8.58h29.27a8.59,8.59,0,0,1,8.57,8.58v29.26A8.59,8.59,0,0,1,1057.1,746.27Zm-29.27-45.52a7.68,7.68,0,0,0-7.67,7.68v29.26a7.69,7.69,0,0,0,7.67,7.68h29.27a7.69,7.69,0,0,0,7.67-7.68V708.43a7.68,7.68,0,0,0-7.67-7.68Z"/><path class="cls-18" d="M1035.55,719.46h-.29a.83.83,0,0,1-.84-.56l-.59-1.49h-5.22l-.59,1.49a.82.82,0,0,1-.84.56h-.26c-.53,0-.77-.34-.56-.84l3.78-9a.84.84,0,0,1,.84-.57h.46a.83.83,0,0,1,.84.57l3.8,9C1036.28,719.12,1036.07,719.46,1035.55,719.46Zm-2.26-3.39-2.08-5.22-2.07,5.22Z"/><path class="cls-18" d="M1037.38,718.74v-9a.65.65,0,0,1,.72-.72h2.6c3.47,0,4.48,1,4.48,2.7a2.17,2.17,0,0,1-1.94,2.42,2.24,2.24,0,0,1,2.29,2.47c0,1.76-1.16,2.87-4.67,2.87h-2.76A.65.65,0,0,1,1037.38,718.74Zm3.34-5.26c1.89,0,2.7-.43,2.7-1.59s-.64-1.43-2.75-1.43H1039v3Zm.12,4.54c2.1,0,2.92-.48,2.92-1.59s-.7-1.62-2.89-1.62H1039V718Z"/><path class="cls-18" d="M1046.91,714.26c0-3.71,2.43-5.39,4.93-5.39a4.49,4.49,0,0,1,4.39,2.83.62.62,0,0,1-.54.9l-.23,0c-.44.09-.66-.1-.88-.52a3,3,0,0,0-2.74-1.7c-1.92,0-3.21,1.47-3.21,3.84s1.26,3.82,3.21,3.82a2.93,2.93,0,0,0,2.77-1.78c.2-.42.45-.61.88-.52l.23,0c.48.09.7.51.44,1.13a4.5,4.5,0,0,1-4.32,2.69C1049.34,719.64,1046.91,718.08,1046.91,714.26Z"/><rect class="cls-9" x="1026.68" y="728.23" width="30.28" height="1.35" rx="0.59"/><rect class="cls-9" x="1026.68" y="735.89" width="18" height="1.35" rx="0.59"/><circle class="cls-24" cx="1243.49" cy="720.85" r="50.97"/><rect class="cls-19" x="1218.97" y="696.33" width="49.03" height="49.03" rx="9.69"/><path class="cls-16" d="M1259.25,745.85h-31.52a9.25,9.25,0,0,1-9.24-9.24V705.08a9.24,9.24,0,0,1,9.24-9.23h31.52a9.25,9.25,0,0,1,9.24,9.23v31.53A9.26,9.26,0,0,1,1259.25,745.85Zm-31.52-49a8.28,8.28,0,0,0-8.27,8.26v31.53a8.27,8.27,0,0,0,8.27,8.26h31.52a8.26,8.26,0,0,0,8.26-8.26V705.08a8.27,8.27,0,0,0-8.26-8.26Z"/><path class="cls-18" d="M1236,717h-.31a.92.92,0,0,1-.91-.6l-.63-1.61h-5.62l-.64,1.61a.9.9,0,0,1-.9.6h-.28c-.58,0-.83-.37-.61-.9l4.08-9.76a.88.88,0,0,1,.9-.6h.5a.87.87,0,0,1,.9.6l4.09,9.76C1236.83,716.6,1236.6,717,1236,717Zm-2.43-3.65-2.24-5.62-2.23,5.62Z"/><path class="cls-18" d="M1238,716.19v-9.71a.7.7,0,0,1,.78-.77h2.8c3.74,0,4.83,1,4.83,2.91a2.32,2.32,0,0,1-2.09,2.59c1.65.22,2.46,1,2.46,2.67,0,1.89-1.25,3.09-5,3.09h-3A.71.71,0,0,1,1238,716.19Zm3.6-5.66c2,0,2.91-.47,2.91-1.71s-.69-1.54-3-1.54h-1.76v3.25Zm.14,4.89c2.25,0,3.14-.52,3.14-1.72s-.76-1.74-3.11-1.74h-2v3.46Z"/><path class="cls-18" d="M1248.28,711.37c0-4,2.61-5.8,5.31-5.8a4.84,4.84,0,0,1,4.73,3,.66.66,0,0,1-.58,1l-.25,0c-.48.09-.71-.11-1-.56a3.17,3.17,0,0,0-3-1.84c-2.07,0-3.46,1.59-3.46,4.14s1.35,4.11,3.46,4.11a3.14,3.14,0,0,0,3-1.92c.22-.45.49-.65,1-.56l.25,0c.52.09.75.55.47,1.22a4.84,4.84,0,0,1-4.65,2.89C1250.89,717.16,1248.28,715.48,1248.28,711.37Z"/><rect class="cls-9" x="1226.49" y="726.41" width="32.61" height="1.46" rx="0.64"/><rect class="cls-9" x="1226.49" y="734.66" width="19.39" height="1.46" rx="0.64"/><circle class="cls-6" cx="615.53" cy="461.94" r="34.3"/><path class="cls-25" d="M641.75,459.52a4.71,4.71,0,0,0-1.11-5.08c-1-.95-.86-3.2-1.52-4.42s-2-1.19-1.92-2.59v0a4.87,4.87,0,0,0-2-4.28c-4.28-2.93-6.18-5-12.7-5-2.05,0-6.18-1.64-8.75-.29-3,1.58-4,3.39-7.08,1.9a3.62,3.62,0,0,0-3-.08c-8.64,2.9-14.55,8.79-14.55,15.59a13.09,13.09,0,0,0,3.36,8.51,12,12,0,0,0,9.74,4.17,13.94,13.94,0,0,1,5.68.37c2.81,1.06,3.5,5.1,8.69,4.34.18,0,.75.08.89.07L625,486a1.67,1.67,0,0,0,3.13-.93l-.93-14C634.33,468.88,639.76,464.65,641.75,459.52Z"/><path class="cls-18" d="M600.22,454.73a2,2,0,0,0-.48,2.6,2.11,2.11,0,0,0,1.07.86,2.47,2.47,0,0,0,1.59-.07,2.13,2.13,0,0,1,2.4.6,1.64,1.64,0,0,1-.24,2.22c-.42.36.19,1,.6.61a2.5,2.5,0,0,0,.74-2.49,2.64,2.64,0,0,0-1.87-1.83,3,3,0,0,0-1.44-.05c-.49.1-1,.38-1.46.21a1.17,1.17,0,0,1-.31-2.06.43.43,0,0,0,0-.6.43.43,0,0,0-.6,0Z"/><path class="cls-18" d="M624.16,445.8a2,2,0,0,0-3.46.59,2.3,2.3,0,0,0,0,1.53,2.17,2.17,0,0,1-.57,2.43,1.66,1.66,0,0,1-2.25-.23c-.35-.42-1,.19-.6.61a2.49,2.49,0,0,0,2.47.74,2.68,2.68,0,0,0,1.86-1.91,3.15,3.15,0,0,0,0-1.4c-.1-.51-.39-1-.19-1.5a1.16,1.16,0,0,1,2-.26.43.43,0,1,0,.61-.6Z"/><path class="cls-18" d="M629,466.08a2,2,0,0,0,.11-2.17,2,2,0,0,0-1.81-1,2.1,2.1,0,0,0-1.09.35,3.62,3.62,0,0,1-1.07.55,2,2,0,0,1-1.88-.52,1.66,1.66,0,0,1-.15-2c.31-.46-.43-.89-.74-.44a2.52,2.52,0,0,0,1.1,3.6,3,3,0,0,0,2.23.06c.68-.27,1.23-.95,2-.71a1.16,1.16,0,0,1,.55,1.83c-.32.44.42.87.74.43Z"/><path class="cls-18" d="M639.89,451.26a2.24,2.24,0,0,0-2.37-.72,2,2,0,0,0-1.68,2.12,5,5,0,0,1,.06,1.59,2,2,0,0,1-.75,1.14,1.66,1.66,0,0,1-2.31-.4c-.29-.46-1,0-.74.43a2.48,2.48,0,0,0,2.35,1.11,2.62,2.62,0,0,0,2.16-1.72,2.89,2.89,0,0,0,.18-1.45c-.06-.55-.22-1.06.14-1.54a1.41,1.41,0,0,1,1.14-.49c.36,0,.87,0,1.08.36s1,0,.74-.43Z"/><path class="cls-18" d="M605.2,446.76a2.07,2.07,0,0,0,.11-2.17,2,2,0,0,0-1.81-1,2.18,2.18,0,0,0-1.1.36,3.79,3.79,0,0,1-1.06.54,1.92,1.92,0,0,1-1.88-.52,1.64,1.64,0,0,1-.15-2c.3-.46-.44-.89-.74-.43a2.51,2.51,0,0,0,1.09,3.59,3,3,0,0,0,2.24.06c.68-.26,1.23-.95,2-.71a1.16,1.16,0,0,1,.55,1.83c-.32.45.42.87.74.43Z"/><circle class="cls-6" cx="516.46" cy="458.14" r="36.73"/><path class="cls-26" d="M533.22,459.5a3.11,3.11,0,0,0-.73-3.36c-.65-.63-.56-2.12-1-2.92s-1.3-.79-1.27-1.71h0a3.22,3.22,0,0,0-1.35-2.83c-2.82-1.94-4.08-3.32-8.39-3.33-1.35,0-4.08-1.08-5.78-.19-2,1.05-2.65,2.24-4.68,1.26a2.38,2.38,0,0,0-1.95-.05c-5.71,1.91-9.62,5.81-9.62,10.3a8.64,8.64,0,0,0,2.23,5.62,7.88,7.88,0,0,0,6.44,2.76,9.25,9.25,0,0,1,3.74.24c1.86.7,2.32,3.37,5.75,2.87a3.78,3.78,0,0,1,.58.05,15.57,15.57,0,0,1,4.94,8.8c.75,1.42,2.14.56,2.06-.61l-.61-9.25C528.32,465.68,531.92,462.89,533.22,459.5Z"/><rect class="cls-18" x="514.12" y="431.75" width="2.34" height="7.27" rx="1.17"/><rect class="cls-18" x="539.64" y="454.5" width="2.34" height="7.27" rx="1.17" transform="matrix(0, 1, -1, 0, 998.95, -82.67)"/><rect class="cls-18" x="490.03" y="454.5" width="2.34" height="7.27" rx="1.17" transform="translate(949.34 -33.06) rotate(90)"/><rect class="cls-18" x="495.29" y="439.63" width="2.34" height="7.27" rx="1.17" transform="translate(-168.03 480.88) rotate(-45)"/><rect class="cls-18" x="534.14" y="438.73" width="2.34" height="7.27" rx="1.17" transform="translate(601.03 1133.68) rotate(-135)"/><rect class="cls-18" x="514.69" y="478.25" width="2.34" height="7.27" rx="1.17"/><rect class="cls-18" x="495.87" y="470.37" width="2.34" height="7.27" rx="1.17" transform="translate(480.75 -212.62) rotate(45)"/><rect class="cls-18" x="534.71" y="471.27" width="2.34" height="7.27" rx="1.17" transform="translate(1250.62 431.79) rotate(135)"/><circle class="cls-6" cx="502.61" cy="534.43" r="29.07"/><path class="cls-27" d="M516.29,537.09a2.44,2.44,0,0,0-.58-2.66c-.51-.5-.45-1.68-.79-2.32s-1-.62-1-1.35h0a2.58,2.58,0,0,0-1.07-2.24c-2.24-1.53-3.24-2.62-6.65-2.63-1.07,0-3.23-.86-4.57-.15-1.58.82-2.1,1.77-3.7,1a1.91,1.91,0,0,0-1.55,0c-4.52,1.52-7.61,4.6-7.61,8.16a6.82,6.82,0,0,0,1.76,4.44,6.24,6.24,0,0,0,5.09,2.19,7.25,7.25,0,0,1,3,.19c1.47.56,1.83,2.67,4.55,2.27a3.92,3.92,0,0,1,.46,0,12.34,12.34,0,0,1,3.91,7c.59,1.12,1.69.44,1.63-.49l-.48-7.32C512.41,542,515.26,539.77,516.29,537.09Z"/><rect class="cls-18" x="501.22" y="515.27" width="1.85" height="5.76" rx="0.93"/><rect class="cls-18" x="486.31" y="521.5" width="1.85" height="5.76" rx="0.93" transform="translate(-228.08 498.12) rotate(-45)"/><rect class="cls-18" x="517.06" y="520.79" width="1.85" height="5.76" rx="0.93" transform="translate(513.97 1260.23) rotate(-135)"/><circle class="cls-6" cx="437.5" cy="547.49" r="24.81"/><path class="cls-28" d="M451.59,546.74a2.58,2.58,0,0,0-.61-2.81c-.54-.53-.47-1.77-.84-2.45s-1.09-.66-1.06-1.43h0a2.71,2.71,0,0,0-1.13-2.37c-2.36-1.62-3.42-2.77-7-2.78-1.13,0-3.41-.91-4.84-.16-1.67.87-2.22,1.87-3.91,1a2,2,0,0,0-1.63,0c-4.78,1.6-8.06,4.86-8.06,8.62a7.24,7.24,0,0,0,1.87,4.71,6.63,6.63,0,0,0,5.39,2.31,7.68,7.68,0,0,1,3.13.2c1.56.59,1.94,2.82,4.81,2.4a4.35,4.35,0,0,1,.49,0,13,13,0,0,1,4.13,7.37c.63,1.19,1.8.47,1.73-.51l-.51-7.75C447.49,551.92,450.5,549.58,451.59,546.74Z"/><path class="cls-18" d="M437.31,546.27v-.1a1.73,1.73,0,0,1,1-1.73c.88-.57,1.39-1,1.39-1.61s-.46-.92-1.05-.92a.92.92,0,0,0-1,.89v.14a.33.33,0,0,1-.36.38h-1.53a.39.39,0,0,1-.43-.35,2,2,0,0,1,0-.37c0-1.26,1.12-2.81,3.41-2.81,2.09,0,3.52,1.11,3.52,2.78,0,1.41-1,2.25-2.31,3.14-.08.06-.47.35-.49.59v.07c0,.12-.05.18-.3.18H437.7C437.45,546.55,437.31,546.45,437.31,546.27Zm-.52,2.58a1.4,1.4,0,0,1,1.51-1.37,1.37,1.37,0,1,1,0,2.71A1.39,1.39,0,0,1,436.79,548.85Z"/><circle class="cls-17" cx="727.7" cy="519.6" r="41.65"/><path class="cls-19" d="M746,504.34h-1.25a.55.55,0,0,1-.54-.43,5.77,5.77,0,0,0-5.62-4.62H727.87a5.77,5.77,0,0,0-5.26,3.46.86.86,0,0,1-.8.52H709.6a7.2,7.2,0,0,0-7.17,7.17v11.34A7.2,7.2,0,0,0,709.6,529h2.76a1,1,0,0,1,.88.59,5.74,5.74,0,0,0,5.3,3.57H736.6a.86.86,0,0,1,.86.85v8.57a2.4,2.4,0,0,0,2.39,2.39H742a2.4,2.4,0,0,0,2.39-2.39V529.36a.7.7,0,0,1,.71-.7h1a4.32,4.32,0,0,0,4.3-4.3V508.64A4.32,4.32,0,0,0,746,504.34Z"/><path class="cls-18" d="M742.19,545.66H740a3.19,3.19,0,0,1-3.18-3.18V533.7a.14.14,0,0,0-.14-.14H718.2a6.6,6.6,0,0,1-6.11-4.11.24.24,0,0,0-.22-.15H709a8.1,8.1,0,0,1-8.08-8.08V509.6a8.1,8.1,0,0,1,8.08-8.08h12.51a.16.16,0,0,0,.15-.09,6.63,6.63,0,0,1,6.06-4h11a6.63,6.63,0,0,1,6.45,5.17h1.14a5.15,5.15,0,0,1,5.15,5.14v16.1a5.15,5.15,0,0,1-5.15,5.14h-1v13.48A3.19,3.19,0,0,1,742.19,545.66ZM709,503a6.62,6.62,0,0,0-6.61,6.61v11.62a6.62,6.62,0,0,0,6.61,6.61h2.83a1.72,1.72,0,0,1,1.58,1.06,5.13,5.13,0,0,0,4.75,3.2h18.51a1.62,1.62,0,0,1,1.61,1.61v8.78a1.72,1.72,0,0,0,1.71,1.71h2.16a1.72,1.72,0,0,0,1.71-1.71V529a1.47,1.47,0,0,1,1.46-1.46h1a3.67,3.67,0,0,0,3.68-3.67v-16.1a3.67,3.67,0,0,0-3.68-3.67h-1.27a1.31,1.31,0,0,1-1.28-1,5.16,5.16,0,0,0-5-4.13h-11a5.14,5.14,0,0,0-4.71,3.09,1.63,1.63,0,0,1-1.5,1Z"/><path class="cls-18" d="M746,518.5v-3.67a15,15,0,0,0,0-1.5,5.16,5.16,0,0,0-1.46-3.18,5.23,5.23,0,0,0-3.66-1.54.74.74,0,0,0,0,1.47,3.69,3.69,0,0,1,2.54,1,3.64,3.64,0,0,1,1.13,2.43c.06,1.17,0,2.34,0,3.51v1.45a.74.74,0,0,0,1.47,0Z"/><path class="cls-18" d="M709.61,502.76c0,.66,0,1.33,0,2a5.64,5.64,0,0,0,5.11,5.3,18.73,18.73,0,0,0,2,0h2.2a.74.74,0,0,0,0-1.47h-3.65a4.18,4.18,0,0,1-2.66-.95,4,4,0,0,1-1-1.21,4.45,4.45,0,0,1-.49-1.45,18.58,18.58,0,0,1,0-2.24.74.74,0,0,0-1.47,0Z"/><path class="cls-18" d="M734.83,522.88a21.68,21.68,0,0,0-2.28,0,5.66,5.66,0,0,0-5,5.61v4.3a.74.74,0,0,0,1.47,0v-4.1a4.37,4.37,0,0,1,.68-2.49,4.45,4.45,0,0,1,1.14-1.15,4,4,0,0,1,2.37-.73h1.66a.74.74,0,0,0,0-1.47Z"/><circle class="cls-23" cx="583.09" cy="543.17" r="40.63"/><path class="cls-29" d="M602.71,528.46h-1.27a.56.56,0,0,1-.55-.44,5.84,5.84,0,0,0-5.71-4.68h-10.9a5.85,5.85,0,0,0-5.34,3.5.87.87,0,0,1-.81.53h-12.4a7.31,7.31,0,0,0-7.28,7.28v11.51a7.3,7.3,0,0,0,7.28,7.28h2.81a.94.94,0,0,1,.88.6,5.86,5.86,0,0,0,5.39,3.63h18.34a.87.87,0,0,1,.87.87v8.69a2.43,2.43,0,0,0,2.42,2.43h2.14a2.44,2.44,0,0,0,2.43-2.43V553.86a.71.71,0,0,1,.71-.71h1a4.37,4.37,0,0,0,4.36-4.37V532.83A4.37,4.37,0,0,0,602.71,528.46Z"/><path class="cls-18" d="M602.05,543.47v-3.72a13.19,13.19,0,0,0,0-1.54,4.8,4.8,0,0,0-4.76-4.23.42.42,0,0,0,0,.84,4,4,0,0,1,4,3.82c0,1.13,0,2.27,0,3.4v1.43a.42.42,0,0,0,.84,0Z"/><path class="cls-18" d="M566.6,527.87c0,.68,0,1.36,0,2a5.31,5.31,0,0,0,4.67,4.89,19.64,19.64,0,0,0,2,0h2.19a.42.42,0,0,0,0-.84h-3.59a4.49,4.49,0,0,1-4.44-3.9,18.08,18.08,0,0,1,0-2.21.43.43,0,0,0-.85,0Z"/><path class="cls-18" d="M591.29,548.12a19.62,19.62,0,0,0-2.3,0,5.27,5.27,0,0,0-3.34,1.77,5.35,5.35,0,0,0-1.31,3.46v4.28a.42.42,0,0,0,.84,0v-4A4.54,4.54,0,0,1,588.8,549a13.8,13.8,0,0,1,2.49-.07.42.42,0,0,0,0-.84Z"/><circle class="cls-23" cx="1038.1" cy="521.2" r="48.31"/><path class="cls-19" d="M1061.07,536.4a8.63,8.63,0,0,0,1.15-10.84,1.8,1.8,0,0,1-.31-1v-9.67a11.59,11.59,0,0,0-11.56-11.56h-7.77a2.15,2.15,0,0,1-1.44-.56,8.61,8.61,0,0,0-5.81-2.25h-1.25a8.65,8.65,0,0,0-6.12,2.55l-.24.26-.28.3a1.65,1.65,0,0,1-1.31.61h-1.35a8.73,8.73,0,0,0-8.48,6.86,2.22,2.22,0,0,1-1.26,1.54,11.73,11.73,0,0,0-5.76,6.39,11.52,11.52,0,0,0-.72,4v2.36A11.6,11.6,0,0,0,1020.13,537h4.54a4,4,0,0,1,2.67,1.06,8.58,8.58,0,0,0,5.91,2.34h1.25a8.61,8.61,0,0,0,5.39-1.89,1.19,1.19,0,0,1,1.44,0,2,2,0,0,0,2.66,0,1.21,1.21,0,0,1,1.74.16l7.7,10.33a.8.8,0,0,0,1.11.17l2-1.42a.68.68,0,0,0,.27-.72l-1.62-7.05a.85.85,0,0,1,.74-1A8.63,8.63,0,0,0,1061.07,536.4Z"/><path class="cls-18" d="M1054.08,549.66a1.4,1.4,0,0,1-1.11-.56l-7.71-10.33a.62.62,0,0,0-.41-.22.63.63,0,0,0-.48.15,2.51,2.51,0,0,1-3.38,0,.59.59,0,0,0-.74,0,9.12,9.12,0,0,1-5.75,2h-1.25a9.21,9.21,0,0,1-6.31-2.5,3.29,3.29,0,0,0-2.27-.91h-4.54A12.15,12.15,0,0,1,1008,525.2v-2.35a12,12,0,0,1,.75-4.2,12.34,12.34,0,0,1,6-6.7,1.72,1.72,0,0,0,1-1.14,9.28,9.28,0,0,1,9-7.33h1.36a1.12,1.12,0,0,0,.86-.4l.3-.34.25-.26a9.18,9.18,0,0,1,6.53-2.72h1.25a9.18,9.18,0,0,1,6.2,2.4,1.56,1.56,0,0,0,1,.4h7.77a12.16,12.16,0,0,1,12.14,12.14v9.67a1.25,1.25,0,0,0,.21.67,9.19,9.19,0,0,1-1.22,11.56h0a9.21,9.21,0,0,1-5.49,2.66.28.28,0,0,0-.21.12.29.29,0,0,0,0,.22l1.63,7a1.28,1.28,0,0,1-.5,1.32l-2,1.43A1.39,1.39,0,0,1,1054.08,549.66Zm-9.29-12.27h.17a1.79,1.79,0,0,1,1.22.67l7.72,10.34a.22.22,0,0,0,.31.05l2-1.43a.11.11,0,0,0,0-.12l-1.63-7a1.42,1.42,0,0,1,.23-1.15,1.49,1.49,0,0,1,1-.6,8,8,0,0,0,4.8-2.33h0a8,8,0,0,0,1.07-10.11,2.39,2.39,0,0,1-.4-1.3v-9.67a11,11,0,0,0-11-11h-7.77a2.69,2.69,0,0,1-1.83-.71,8.06,8.06,0,0,0-5.42-2.1h-1.25a8,8,0,0,0-5.71,2.38l-.23.24-.25.29a2.31,2.31,0,0,1-1.76.81h-1.35a8.13,8.13,0,0,0-7.91,6.41,2.87,2.87,0,0,1-1.57,1.94,11.19,11.19,0,0,0-5.48,6.06,11,11,0,0,0-.68,3.8v2.35a11,11,0,0,0,11,11h4.54a4.47,4.47,0,0,1,3.06,1.23,8.09,8.09,0,0,0,5.52,2.18h1.25a8,8,0,0,0,5-1.77,1.74,1.74,0,0,1,2.14,0,1.39,1.39,0,0,0,1.94.05A1.83,1.83,0,0,1,1044.79,537.39Z"/><path class="cls-18" d="M1040.2,538.72c.46-.89.91-1.78,1.39-2.66a5.3,5.3,0,0,1,3.08-2.63,13.79,13.79,0,0,1,4.1-.42H1054a.58.58,0,0,0,0-1.16h-5.15a16.44,16.44,0,0,0-4.2.39,6.35,6.35,0,0,0-3.6,2.55,31.59,31.59,0,0,0-1.81,3.34c-.35.66.65,1.25,1,.59Z"/><path class="cls-18" d="M1026.06,536.85c0-2.4,0-4.79,0-7.19a6.07,6.07,0,0,0-.54-2.37,5.67,5.67,0,0,0-1.51-2,8.18,8.18,0,0,0-3.22-1.52,11,11,0,0,1-3.07-1.25l-.11-.08c-.05,0,0,.05,0,0a1.45,1.45,0,0,1-.18-.17,1.29,1.29,0,0,1-.16-.17c-.07-.08,0,0,0,0a1,1,0,0,1-.08-.11,3.61,3.61,0,0,1-.22-.39l0-.09-.1-.25c-.25-.69-1.37-.39-1.11.31a3.91,3.91,0,0,0,.92,1.54,6.31,6.31,0,0,0,2.14,1.21c.57.22,1.15.4,1.73.57a11.14,11.14,0,0,1,1.79.62,4.7,4.7,0,0,1,1.91,1.76,5.13,5.13,0,0,1,.65,1.74c0,.06,0,.12,0,.18s0,.19,0,.08,0,.12,0,.18v.16c0,1.15,0,2.31,0,3.46v3.84a.58.58,0,0,0,1.16,0Z"/><path class="cls-18" d="M1025.63,527.67a8,8,0,0,1,0-1c0-.31,0-.63.08-1,0-.11,0,.14,0,0s0-.08,0-.12a2.38,2.38,0,0,1,0-.26,5.59,5.59,0,0,1,.12-.56,3.17,3.17,0,0,1,1-1.73l.13-.09.22-.12c-.07,0,.12,0,.16-.05a1.46,1.46,0,0,1,.42,0h3.6a.58.58,0,0,0,0-1.16h-3.49a2.58,2.58,0,0,0-1.51.37c-1.43.91-1.79,2.83-1.9,4.4a11.42,11.42,0,0,0,0,1.31c0,.74,1.21.75,1.16,0Z"/><path class="cls-18" d="M1041.22,502.53l-4.6,3a5,5,0,0,0-1.37,1.37,4.58,4.58,0,0,0-.75,1.91,6.12,6.12,0,0,0,.41,2.9c.31.88.71,1.74,1,2.59a4.13,4.13,0,0,1,.14.42c0,.06,0,.12.05.17s0,.1,0,0,0,.06,0,.06v.16s0-.07,0,0,0,0,0,.07l-.11.15a.58.58,0,1,0,1,.59c.73-1-.06-2.26-.46-3.22-.63-1.47-1.39-3.19-.6-4.75a3.64,3.64,0,0,1,.88-1.17l.18-.16c.13-.12-.07,0,0,0l.08-.06c.76-.52,1.55-1,2.32-1.5l2.36-1.53c.62-.4,0-1.4-.58-1Z"/><path class="cls-18" d="M1035.5,506.47c-.21.16-.43.29-.65.43a6.23,6.23,0,0,1-1.43.64,3.54,3.54,0,0,1-.44.11,1.59,1.59,0,0,1-.34,0h-.2s-.2,0-.1,0l-.19,0-.11,0c-.09,0,.11.06,0,0l-.17-.1c-.09-.06,0,0-.09-.07a3.54,3.54,0,0,1-.35-.51l-.51-.79-.25-.39c-.41-.62-1.41-.05-1,.58l.22.34.52.81a3,3,0,0,0,.9,1c1.19.75,2.76.16,3.88-.45a6.88,6.88,0,0,0,.93-.58.59.59,0,0,0,.21-.79.59.59,0,0,0-.79-.21Z"/><path class="cls-18" d="M1054.9,514.26a8.71,8.71,0,0,0,.78,4,12.26,12.26,0,0,0,2.13,3c.79.91,1.61,1.8,2.44,2.68.43.45.85.89,1.29,1.33a.58.58,0,0,0,.82-.82c-1.09-1.09-2.15-2.22-3.18-3.37a15.64,15.64,0,0,1-2.24-2.89,8,8,0,0,1-.83-2.66,6.55,6.55,0,0,1,0-1.33c.06-.74-1.09-.74-1.16,0Z"/><path class="cls-18" d="M1049.75,521.13a67.39,67.39,0,0,1,6.81.37,8.75,8.75,0,0,1,1.69.31c.71.23,1-.89.3-1.12a16.09,16.09,0,0,0-3.79-.51c-1.37-.09-2.75-.15-4.12-.19l-.89,0a.58.58,0,0,0,0,1.16Z"/><circle class="cls-24" cx="1243.49" cy="520.81" r="52.03"/><path class="cls-19" d="M1270.39,533.39a9.28,9.28,0,0,0,1.24-11.67,1.92,1.92,0,0,1-.33-1.06V510.25a12.5,12.5,0,0,0-12.46-12.46h-8.36a2.32,2.32,0,0,1-1.55-.59,9.28,9.28,0,0,0-6.26-2.43h-1.35a9.26,9.26,0,0,0-6.59,2.75l-.26.27-.3.33a1.82,1.82,0,0,1-1.41.66h-1.46a9.38,9.38,0,0,0-9.13,7.39,2.45,2.45,0,0,1-1.35,1.66,12.56,12.56,0,0,0-6.21,6.88,12.28,12.28,0,0,0-.77,4.3v2.53A12.49,12.49,0,0,0,1226.29,534h4.89a4.18,4.18,0,0,1,2.88,1.15,9.3,9.3,0,0,0,6.36,2.52h1.35a9.33,9.33,0,0,0,5.81-2,1.25,1.25,0,0,1,1.55,0,2.11,2.11,0,0,0,2.86,0,1.29,1.29,0,0,1,1.87.17l8.3,11.13a.87.87,0,0,0,1.2.18l2.14-1.53a.75.75,0,0,0,.29-.78L1264,537.2a.93.93,0,0,1,.81-1.12A9.27,9.27,0,0,0,1270.39,533.39Z"/><path class="cls-18" d="M1262.86,547.67a1.5,1.5,0,0,1-1.2-.59L1253.37,536a.69.69,0,0,0-.45-.24.66.66,0,0,0-.52.17,2.71,2.71,0,0,1-3.64,0,.65.65,0,0,0-.79,0,9.89,9.89,0,0,1-6.2,2.18h-1.35a9.91,9.91,0,0,1-6.79-2.69,3.57,3.57,0,0,0-2.45-1h-4.89a13.1,13.1,0,0,1-13.08-13.08V518.8a12.91,12.91,0,0,1,.82-4.52,13.25,13.25,0,0,1,6.51-7.22,1.82,1.82,0,0,0,1-1.23,10,10,0,0,1,9.74-7.89h1.47a1.16,1.16,0,0,0,.93-.43l.31-.36.28-.28a9.89,9.89,0,0,1,7-2.93h1.35a9.92,9.92,0,0,1,6.67,2.58,1.71,1.71,0,0,0,1.14.44h8.36A13.1,13.1,0,0,1,1271.92,510v10.41a1.33,1.33,0,0,0,.23.72,9.91,9.91,0,0,1-1.32,12.45h0a9.94,9.94,0,0,1-5.91,2.87.29.29,0,0,0-.27.36l1.75,7.59a1.36,1.36,0,0,1-.54,1.42l-2.14,1.54A1.51,1.51,0,0,1,1262.86,547.67Zm-10-13.21h.18a1.9,1.9,0,0,1,1.33.73l8.3,11.13a.24.24,0,0,0,.34,0l2.14-1.53a.14.14,0,0,0,0-.14l-1.75-7.58a1.53,1.53,0,0,1,.24-1.23,1.55,1.55,0,0,1,1.1-.65,8.7,8.7,0,0,0,5.17-2.51h0a8.66,8.66,0,0,0,1.16-10.89,2.54,2.54,0,0,1-.44-1.4V510a11.85,11.85,0,0,0-11.83-11.84h-8.36a2.92,2.92,0,0,1-2-.75,8.68,8.68,0,0,0-5.84-2.27h-1.35a8.63,8.63,0,0,0-6.15,2.57l-.25.26-.27.3a2.48,2.48,0,0,1-1.9.88h-1.45a8.64,8.64,0,0,0-6.15,2.56,8.78,8.78,0,0,0-2.37,4.34,3.09,3.09,0,0,1-1.69,2.09,12,12,0,0,0-5.9,6.53,11.87,11.87,0,0,0-.73,4.09v2.53a11.84,11.84,0,0,0,11.83,11.83h4.89a4.81,4.81,0,0,1,3.3,1.32,8.65,8.65,0,0,0,5.94,2.35h1.35a8.62,8.62,0,0,0,5.42-1.9,1.89,1.89,0,0,1,2.31,0,1.5,1.5,0,0,0,2.08.06A2,2,0,0,1,1252.85,534.46Z"/><path class="cls-18" d="M1247.91,535.89c.5-.95,1-1.92,1.5-2.86a5.67,5.67,0,0,1,3.32-2.83,14.85,14.85,0,0,1,4.41-.46h5.59a.62.62,0,0,0,0-1.24h-5.55a17.12,17.12,0,0,0-4.52.42,6.75,6.75,0,0,0-3.87,2.74,33.77,33.77,0,0,0-2,3.6c-.37.71.7,1.34,1.08.63Z"/><path class="cls-18" d="M1232.68,533.88c0-2.58,0-5.16,0-7.74a6.59,6.59,0,0,0-.58-2.55,6.16,6.16,0,0,0-1.62-2.22,9,9,0,0,0-3.48-1.63,11.89,11.89,0,0,1-3.3-1.35l-.12-.08c-.06,0,.05.05,0,0a1.12,1.12,0,0,1-.2-.18l-.17-.18c-.08-.09,0,0,0,0a.83.83,0,0,1-.08-.12,2.86,2.86,0,0,1-.24-.42l0-.1c0-.09-.07-.18-.1-.27-.28-.74-1.48-.42-1.2.33a4.08,4.08,0,0,0,1,1.67,6.72,6.72,0,0,0,2.3,1.3c.61.23,1.23.43,1.86.62a11,11,0,0,1,1.93.66,5,5,0,0,1,2.05,1.9,5.42,5.42,0,0,1,.71,1.87l0,.19s0,.21,0,.09a1.88,1.88,0,0,0,0,.19,1.09,1.09,0,0,0,0,.18c0,1.24,0,2.48,0,3.72v4.14a.62.62,0,0,0,1.24,0Z"/><path class="cls-18" d="M1232.22,524a9.2,9.2,0,0,1,0-1c0-.34,0-.69.08-1,0-.11,0,.15,0,0a.51.51,0,0,1,0-.13c0-.09,0-.19,0-.28s.09-.4.14-.6a3.38,3.38,0,0,1,1-1.87l.14-.09a1.71,1.71,0,0,1,.23-.13c-.08,0,.13,0,.17,0a1.37,1.37,0,0,1,.45,0h3.88a.63.63,0,0,0,0-1.25h-3.75a2.86,2.86,0,0,0-1.64.4c-1.54,1-1.92,3.06-2,4.74a11.06,11.06,0,0,0,0,1.41c0,.8,1.3.81,1.25,0Z"/><path class="cls-18" d="M1249,496.92l-5,3.2a5.31,5.31,0,0,0-1.48,1.47,5,5,0,0,0-.81,2.06,6.53,6.53,0,0,0,.45,3.12c.33,1,.76,1.87,1.12,2.78a3.57,3.57,0,0,1,.16.46c0,.06,0,.13,0,.19s0,.1,0,0,0,.06,0,.07v.16l0,0c-.06.14,0,0,0,.07l-.11.17a.63.63,0,0,0,.23.85.64.64,0,0,0,.85-.22c.78-1.08-.07-2.43-.5-3.46-.67-1.6-1.49-3.45-.65-5.13a4.07,4.07,0,0,1,1-1.26l.2-.17c.14-.13-.08,0,0,0l.1-.07c.82-.55,1.66-1.07,2.49-1.61l2.55-1.65c.67-.43,0-1.51-.63-1.07Z"/><path class="cls-18" d="M1242.84,501.16a6.49,6.49,0,0,1-.7.46,6.94,6.94,0,0,1-1.53.69,4.21,4.21,0,0,1-.48.12,1.82,1.82,0,0,1-.37,0h-.21s-.21,0-.11,0l-.2,0-.12,0,0,0-.19-.1c-.09-.06,0,0-.09-.08a3.58,3.58,0,0,1-.38-.55l-.55-.85-.27-.42c-.43-.67-1.51-.05-1.07.63l.23.36.56.87a3.21,3.21,0,0,0,1,1.13c1.29.8,3,.16,4.18-.49a7.93,7.93,0,0,0,1-.62.64.64,0,0,0,.23-.85.64.64,0,0,0-.86-.23Z"/><path class="cls-18" d="M1263.75,509.55a9.38,9.38,0,0,0,.83,4.33,13.24,13.24,0,0,0,2.3,3.27c.85,1,1.73,2,2.63,2.89.46.48.92,1,1.39,1.43s1.44-.31.88-.88c-1.18-1.18-2.31-2.39-3.42-3.63a16.4,16.4,0,0,1-2.41-3.11,8.58,8.58,0,0,1-.9-2.87,6.85,6.85,0,0,1,0-1.43c.06-.8-1.18-.79-1.25,0Z"/><path class="cls-18" d="M1258.2,517c2.44,0,4.9.12,7.33.39a9.23,9.23,0,0,1,1.82.34c.76.25,1.09-1,.33-1.2a17.07,17.07,0,0,0-4.09-.55c-1.47-.11-3-.17-4.44-.21l-1,0a.63.63,0,0,0,0,1.25Z"/><circle class="cls-17" cx="426.31" cy="294.32" r="31.39"/><path class="cls-30" d="M442.88,303.64a.78.78,0,0,0-.64-.92,5.53,5.53,0,0,1-.36-10.89,1.34,1.34,0,0,0,1.11-1.3v-4.3a7.81,7.81,0,0,0-7.79-7.78H422.34a7.81,7.81,0,0,0-7.75,7,1.08,1.08,0,0,1-.76,1c-1.46.43-4.63,1.81-4.63,5.63a5.76,5.76,0,0,0,4.45,5.61,1.16,1.16,0,0,1,.9,1.13v3.62a7.82,7.82,0,0,0,7.79,7.79H435.2A7.81,7.81,0,0,0,442.88,303.64Z"/><circle class="cls-17" cx="611.84" cy="310.04" r="37.03"/><rect class="cls-19" x="593.98" y="292.63" width="32.67" height="37.55" rx="6.84"/><path class="cls-16" d="M621.82,330.64h-23c-3,0-5.38-2.05-5.38-4.58v-29.3c0-2.53,2.41-4.58,5.38-4.58h23c3,0,5.37,2.05,5.37,4.58v29.3C627.19,328.59,624.78,330.64,621.82,330.64Zm-23-37.55c-2.37,0-4.3,1.65-4.3,3.67v29.3c0,2,1.93,3.67,4.3,3.67h23c2.37,0,4.3-1.65,4.3-3.67v-29.3c0-2-1.93-3.67-4.3-3.67Z"/><rect class="cls-19" x="597.2" y="294.66" width="32.67" height="37.55" rx="6.84"/><path class="cls-16" d="M625,332.66H602c-3,0-5.37-2.05-5.37-4.58v-29.3c0-2.53,2.41-4.58,5.37-4.58h23c3,0,5.37,2.05,5.37,4.58v29.3C630.41,330.61,628,332.66,625,332.66Zm-23-37.55c-2.37,0-4.29,1.65-4.29,3.67v29.3c0,2,1.92,3.67,4.29,3.67h23c2.37,0,4.29-1.65,4.29-3.67v-29.3c0-2-1.92-3.67-4.29-3.67Z"/><path class="cls-18" d="M615.36,313.58H615a1.12,1.12,0,0,1-1.12-.75l-.79-2h-7l-.79,2a1.12,1.12,0,0,1-1.12.75h-.35c-.72,0-1-.46-.75-1.12l5.06-12.12a1.11,1.11,0,0,1,1.12-.76h.62a1.11,1.11,0,0,1,1.12.76l5.08,12.12C616.35,313.12,616.06,313.58,615.36,313.58Zm-3-4.54-2.78-7-2.77,7Z"/><rect class="cls-9" x="603.41" y="320.76" width="18.01" height="1.52" rx="0.76"/><rect class="cls-9" x="604.21" y="328.37" width="10.71" height="1.52" rx="0.76"/><circle class="cls-17" cx="514.38" cy="340.59" r="38.54"/><rect class="cls-31" x="492.81" y="319.16" width="41.07" height="41.07" rx="8.15"/><rect class="cls-31" x="498.08" y="323.77" width="41.07" height="41.07" rx="7.33"/><rect class="cls-9" x="502.54" y="332.53" width="16.24" height="2.31" rx="1.15"/><rect class="cls-9" x="511.81" y="343.15" width="16.24" height="2.31" rx="1.15"/><rect class="cls-9" x="519.93" y="355.37" width="16.24" height="2.31" rx="1.15"/><circle class="cls-17" cx="727.7" cy="310.19" r="44.03"/><rect class="cls-32" x="704.9" y="284.14" width="45.6" height="45.6" rx="9.04"/><rect class="cls-32" x="710.75" y="289.26" width="45.6" height="45.6" rx="8.14"/><path class="cls-32" d="M721.71,303.29l-4,7a2.22,2.22,0,0,0,1.92,3.33h8.09a2.22,2.22,0,0,0,1.92-3.33l-4-7A2.22,2.22,0,0,0,721.71,303.29Z"/><path class="cls-32" d="M729.84,298.82l-8.11,14a2.22,2.22,0,0,0,1.93,3.33h16.2a2.22,2.22,0,0,0,1.93-3.33l-8.11-14A2.22,2.22,0,0,0,729.84,298.82Z"/><rect class="cls-9" x="720.88" y="322.2" width="18.04" height="2.56" rx="1.28"/><circle class="cls-23" cx="1038.1" cy="321.29" r="48.69"/><rect class="cls-19" x="1014.72" y="296.54" width="44.51" height="44.51" rx="10"/><path class="cls-16" d="M1050.4,341.49h-26.85a9.28,9.28,0,0,1-9.27-9.27V305.37a9.28,9.28,0,0,1,9.27-9.27h26.85a9.28,9.28,0,0,1,9.27,9.27v26.85A9.28,9.28,0,0,1,1050.4,341.49ZM1023.55,297a8.39,8.39,0,0,0-8.39,8.39v26.85a8.39,8.39,0,0,0,8.39,8.38h26.85a8.39,8.39,0,0,0,8.38-8.38V305.37a8.39,8.39,0,0,0-8.38-8.39Z"/><rect class="cls-19" x="1020.43" y="301.53" width="44.51" height="44.51" rx="9"/><path class="cls-16" d="M1057,346.48h-28.62a8.39,8.39,0,0,1-8.39-8.38V309.48a8.39,8.39,0,0,1,8.39-8.39H1057a8.39,8.39,0,0,1,8.38,8.39V338.1A8.39,8.39,0,0,1,1057,346.48ZM1028.38,302a7.5,7.5,0,0,0-7.5,7.5V338.1a7.51,7.51,0,0,0,7.5,7.5H1057a7.52,7.52,0,0,0,7.5-7.5V309.48a7.51,7.51,0,0,0-7.5-7.5Z"/><path class="cls-19" d="M1030.88,315.66l-3.44,6a2.45,2.45,0,0,0,2.12,3.68h6.89a2.46,2.46,0,0,0,2.13-3.68l-3.45-6A2.46,2.46,0,0,0,1030.88,315.66Z"/><path class="cls-16" d="M1037,325.64h-7.89a2.5,2.5,0,0,1-2.16-3.74l3.94-6.84a2.51,2.51,0,0,1,4.33,0l3.94,6.84a2.5,2.5,0,0,1-2.16,3.74ZM1033,314.48a1.8,1.8,0,0,0-1.59.92l-4,6.83a1.84,1.84,0,0,0,1.59,2.75H1037a1.84,1.84,0,0,0,1.59-2.75l-3.94-6.83A1.82,1.82,0,0,0,1033,314.48Z"/><path class="cls-19" d="M1038.81,311.29l-7.41,12.84a2.46,2.46,0,0,0,2.13,3.68h14.82a2.45,2.45,0,0,0,2.12-3.68l-7.41-12.84A2.46,2.46,0,0,0,1038.81,311.29Z"/><path class="cls-16" d="M1048.85,328.14H1033a2.5,2.5,0,0,1-2.16-3.75l7.91-13.7a2.45,2.45,0,0,1,2.16-1.24h0a2.47,2.47,0,0,1,2.16,1.24l7.91,13.7a2.5,2.5,0,0,1-2.16,3.75Zm-7.91-18h0a1.8,1.8,0,0,0-1.59.92l-7.91,13.69a1.84,1.84,0,0,0,1.59,2.76h15.82a1.84,1.84,0,0,0,1.59-2.76L1042.53,311A1.82,1.82,0,0,0,1040.94,310.11Z"/><circle class="cls-16" cx="1053.79" cy="311.89" r="2.26"/><rect class="cls-9" x="1031.73" y="334.18" width="17.6" height="1.32" rx="0.58"/><circle class="cls-24" cx="1244.89" cy="321.03" r="50.63"/><rect class="cls-19" x="1221.44" y="297.58" width="46.91" height="46.91" rx="9.36"/><path class="cls-16" d="M1260,345h-30.16a8.86,8.86,0,0,1-8.84-8.84V306a8.86,8.86,0,0,1,8.84-8.84H1260a8.86,8.86,0,0,1,8.84,8.84v30.16A8.86,8.86,0,0,1,1260,345ZM1229.81,298a7.92,7.92,0,0,0-7.91,7.91v30.16a7.92,7.92,0,0,0,7.91,7.91H1260a7.92,7.92,0,0,0,7.91-7.91V306A7.92,7.92,0,0,0,1260,298Z"/><path class="cls-19" d="M1232.48,312.42l-3.69,6.39a2.55,2.55,0,0,0,2.21,3.83h7.38a2.56,2.56,0,0,0,2.21-3.83l-3.69-6.39A2.55,2.55,0,0,0,1232.48,312.42Z"/><path class="cls-16" d="M1238.84,323h-8.31a2.63,2.63,0,0,1-2.28-3.94l4.16-7.2a2.63,2.63,0,0,1,4.56,0l4.15,7.2a2.63,2.63,0,0,1-2.28,3.94Zm-4.15-11.76a1.92,1.92,0,0,0-1.68,1l-4.15,7.2a1.94,1.94,0,0,0,1.67,2.9h8.31a1.94,1.94,0,0,0,1.68-1,1.9,1.9,0,0,0,0-1.93l-4.16-7.2A1.9,1.9,0,0,0,1234.69,311.22Z"/><path class="cls-19" d="M1240.84,307.81,1233,321.44a2.55,2.55,0,0,0,2.21,3.83h15.74a2.56,2.56,0,0,0,2.21-3.83l-7.87-13.63A2.55,2.55,0,0,0,1240.84,307.81Z"/><path class="cls-16" d="M1251.38,325.62h-16.67a2.64,2.64,0,0,1-2.28-3.95l8.34-14.44a2.59,2.59,0,0,1,2.28-1.31h0a2.59,2.59,0,0,1,2.27,1.31l8.34,14.44a2.64,2.64,0,0,1-2.28,3.95Zm-8.33-19h0a1.94,1.94,0,0,0-1.68,1L1233,322a1.94,1.94,0,0,0,1.67,2.9h16.67a1.94,1.94,0,0,0,1.68-2.9l-8.34-14.44A1.93,1.93,0,0,0,1243.05,306.61Z"/><circle class="cls-16" cx="1256.59" cy="308.49" r="2.38"/><rect class="cls-9" x="1233.34" y="331.98" width="18.55" height="1.4" rx="0.61"/><circle class="cls-17" cx="449.91" cy="155.66" r="35.41"/><path class="cls-33" d="M472.37,154.4H463a3.16,3.16,0,0,0-3.15,3.13h-3.31a4.49,4.49,0,0,0,0,9h3.3c0,.07,0,.14,0,.22v4.66a3.16,3.16,0,0,0,3.15,3.15h9.4a3.16,3.16,0,0,0,3.15-3.15V157.55A3.16,3.16,0,0,0,472.37,154.4Z"/><path class="cls-33" d="M445.85,164.11a4.85,4.85,0,0,1-4.86-5,5,5,0,0,1,5.06-4.71h3.39a.47.47,0,0,0,.47-.47v-9.25a5.47,5.47,0,0,0-5.46-5.46H431.86a5.47,5.47,0,0,0-5.46,5.46v19.44a5.48,5.48,0,0,0,5.46,5.46h12.59a5.48,5.48,0,0,0,5.46-5.46h-4.06Z"/><circle class="cls-17" cx="727.7" cy="147.05" r="40.14"/><path class="cls-34" d="M743.66,128.54H712.87c-5.14,0-9.34,3.9-9.34,8.68v18.49c0,4.77,4.2,8.68,9.34,8.68H713a2.43,2.43,0,0,1,2.15,1.22l4,7.27a1.7,1.7,0,0,0,2.92,0l4-7.26a2.42,2.42,0,0,1,2.15-1.23h15.49c5.14,0,9.34-3.91,9.34-8.68V137.22C753,132.44,748.8,128.54,743.66,128.54Z"/><rect class="cls-9" x="712.02" y="140.97" width="27.87" height="2.35" rx="1.18"/><circle class="cls-23" cx="559.01" cy="164.47" r="41.8"/><path class="cls-19" d="M545.05,145.73a6.85,6.85,0,0,1,.79,0h17.71a7.58,7.58,0,0,1,7.59,7.58v5.89a1.39,1.39,0,0,1-1.43,1.39l-1.48,0c-6.74,0-12.25,1.44-12.75,3.26,0,0,0,.24,0,.26.18,6,5.83,10.74,12.8,10.74a13.74,13.74,0,0,0,1.94-.13.85.85,0,0,1,1,.85h0a7.58,7.58,0,0,1-7.59,7.58H545.84a7.59,7.59,0,0,1-7.59-7.58V153.27A7.58,7.58,0,0,1,545.05,145.73Z"/><g class="cls-35"><rect class="cls-1" x="538.25" y="145.69" width="32.88" height="37.4" rx="7.58"/></g><path class="cls-36" d="M545.05,145.73a6.85,6.85,0,0,1,.79,0h17.71a7.58,7.58,0,0,1,7.59,7.58v5.89a1.39,1.39,0,0,1-1.43,1.39l-1.48,0c-6.74,0-12.25,1.44-12.75,3.26,0,0,0,.24,0,.26.18,6,5.83,10.74,12.8,10.74a13.74,13.74,0,0,0,1.94-.13.85.85,0,0,1,1,.85h0a7.58,7.58,0,0,1-7.59,7.58H545.84a7.59,7.59,0,0,1-7.59-7.58V153.27A7.58,7.58,0,0,1,545.05,145.73Z"/><circle class="cls-18" cx="562.27" cy="154.23" r="1.76"/><path class="cls-37" d="M581.66,154.67a16.75,16.75,0,0,1,0,23.35c-.39.41.23,1,.63.62a17.6,17.6,0,0,0,0-24.59c-.4-.42-1,.21-.63.62Z"/><path class="cls-37" d="M578.38,158a12.18,12.18,0,0,1,0,16.64c-.39.42.23,1,.62.63a12.91,12.91,0,0,0,0-17.89c-.39-.42-1,.21-.62.62Z"/><path class="cls-37" d="M575.25,161.22a7.64,7.64,0,0,1,0,10.25c-.38.42.25,1.05.63.62a8.57,8.57,0,0,0,0-11.5c-.38-.42-1,.21-.63.63Z"/><circle class="cls-23" cx="637.39" cy="119.43" r="33.47"/><path class="cls-38" d="M635,104.7H621.41a4,4,0,0,0-4.11,3.83v8.13a4,4,0,0,0,4.11,3.82h.05a1.08,1.08,0,0,1,.95.54l1.75,3.2a.74.74,0,0,0,1.28,0l1.76-3.2a1.06,1.06,0,0,1,.94-.54H635a4,4,0,0,0,4.11-3.82v-8.13A4,4,0,0,0,635,104.7Z"/><path class="cls-38" d="M652.43,111.73H635.72a4.91,4.91,0,0,0-5.06,4.71v10a4.91,4.91,0,0,0,5.06,4.71h.07a1.32,1.32,0,0,1,1.17.66l2.16,3.94a.92.92,0,0,0,1.58,0l2.16-3.94a1.32,1.32,0,0,1,1.17-.66h8.4a4.91,4.91,0,0,0,5.07-4.71v-10A4.91,4.91,0,0,0,652.43,111.73Z"/><circle class="cls-23" cx="1038.1" cy="143.32" r="46.63"/><path class="cls-39" d="M1054,125.75h-30.4c-8.24,0-9.22,3.86-9.22,8.57v18.25c0,4.72.7,8.57,9.22,8.57h.12a2.41,2.41,0,0,1,2.12,1.21l3.93,7.18a1.68,1.68,0,0,0,2.88,0l3.93-7.17a2.41,2.41,0,0,1,2.13-1.22H1054c9.22,0,9.22-3.85,9.22-8.57V134.32C1063.18,129.61,1063.18,125.19,1054,125.75Z"/><rect class="cls-9" x="1024.44" y="141.01" width="27.51" height="1.23" rx="0.62"/><rect class="cls-9" x="1024.44" y="147.63" width="16.36" height="1.23" rx="0.62"/><circle class="cls-24" cx="1243.78" cy="143.32" r="51.74"/><path class="cls-40" d="M1261.65,121.6h-33.74c-9.14,0-10.23,4.28-10.23,9.51v20.26c0,5.22.78,9.5,10.23,9.5h.14a2.67,2.67,0,0,1,2.35,1.34l4.36,8a1.86,1.86,0,0,0,3.2,0l4.36-8a2.67,2.67,0,0,1,2.36-1.35h17c10.23,0,10.23-4.28,10.23-9.5V131.11C1271.88,125.88,1271.88,121,1261.65,121.6Z"/><rect class="cls-9" x="1228.89" y="138.53" width="30.53" height="1.37" rx="0.68"/><rect class="cls-9" x="1228.89" y="145.88" width="18.15" height="1.37" rx="0.68"/></g></g></svg>