<svg xmlns="http://www.w3.org/2000/svg" xmlns:xlink="http://www.w3.org/1999/xlink" viewBox="0 0 1445.24 969.07"><defs><style>.cls-1,.cls-11,.cls-14,.cls-17,.cls-19,.cls-20,.cls-23,.cls-24,.cls-25,.cls-26,.cls-27,.cls-29,.cls-30,.cls-31,.cls-32,.cls-33,.cls-37,.cls-38,.cls-39,.cls-5,.cls-6,.cls-9{fill:#fff;}.cls-1,.cls-18,.cls-22,.cls-23,.cls-24,.cls-25,.cls-26,.cls-27,.cls-28,.cls-32,.cls-35{stroke:#231f20;}.cls-1,.cls-11,.cls-13,.cls-14,.cls-18,.cls-19,.cls-20,.cls-22,.cls-23,.cls-24,.cls-25,.cls-26,.cls-27,.cls-28,.cls-29,.cls-30,.cls-31,.cls-32,.cls-33,.cls-35,.cls-37,.cls-38,.cls-39,.cls-5,.cls-6,.cls-9{stroke-miterlimit:10;}.cls-1,.cls-35{stroke-width:0.88px;}.cls-2{fill:snow;}.cls-3{fill:#303030;}.cls-4{fill:#eae4e4;}.cls-11,.cls-13,.cls-14,.cls-19,.cls-20,.cls-29,.cls-30,.cls-31,.cls-33,.cls-37,.cls-38,.cls-39,.cls-5,.cls-6,.cls-9{stroke:#0b1828;}.cls-5{stroke-width:1.58px;}.cls-6{stroke-width:1.15px;}.cls-7{font-size:20.64px;}.cls-10,.cls-12,.cls-16,.cls-28,.cls-7{fill:#231f20;}.cls-10,.cls-12,.cls-7{font-family:UrbaneRounded-Medium, Urbane Rounded;font-weight:500;}.cls-8{fill:#081728;}.cls-9{stroke-width:1.15px;}.cls-10{font-size:10.32px;}.cls-12{font-size:18px;}.cls-13,.cls-35{fill:none;}.cls-13,.cls-14{stroke-width:0.57px;}.cls-15,.cls-22{fill:#0b1828;}.cls-18{fill:#666766;stroke-width:0.5px;}.cls-19{stroke-width:1.57px;}.cls-20{stroke-width:1.08px;}.cls-21{fill:#9dd4df;}.cls-23{stroke-width:0.85px;}.cls-24{stroke-width:1.52px;}.cls-25{stroke-width:1.2px;}.cls-26{stroke-width:1.03px;}.cls-27{stroke-width:0.84px;}.cls-28{stroke-width:0.75px;}.cls-29{stroke-width:1.3px;}.cls-30{stroke-width:1.63px;}.cls-31{stroke-width:1.81px;}.cls-32{stroke-width:1.47px;}.cls-33{stroke-width:1.66px;}.cls-34{clip-path:url(#clip-path);}.cls-36{fill:#121212;}.cls-37{stroke-width:0.76px;}.cls-38{stroke-width:0.97px;}.cls-39{stroke-width:2px;}</style><clipPath id="clip-path"><path class="cls-1" d="M545.05,191.83c.26,0,.52,0,.79,0h17.71a7.59,7.59,0,0,1,7.59,7.59v5.89a1.4,1.4,0,0,1-1.43,1.39c-.49,0-1,0-1.48,0-6.74,0-12.25,1.44-12.75,3.26,0,0,0,.25,0,.27.18,6,5.83,10.74,12.8,10.74a15.41,15.41,0,0,0,1.94-.13.85.85,0,0,1,1,.84h0a7.59,7.59,0,0,1-7.59,7.59H545.84a7.59,7.59,0,0,1-7.59-7.59V199.38A7.59,7.59,0,0,1,545.05,191.83Z"/></clipPath></defs><g id="Layer_2" data-name="Layer 2"><g id="Layer_3" data-name="Layer 3"><rect class="cls-2" width="1445.24" height="969.07"/><path class="cls-3" d="M149.68,161.16l-2.18,8.45H143l3.45-8.45Zm6.14,0-2.18,8.45H149.1l3.46-8.45Z"/><path class="cls-3" d="M168.88,185.22a12.33,12.33,0,0,1-4.68-.88,11.65,11.65,0,0,1-3.79-2.44,11.39,11.39,0,0,1-2.52-3.67,11.46,11.46,0,0,1,2.54-12.74,11.91,11.91,0,0,1,3.79-2.46,12.16,12.16,0,0,1,4.66-.88,12.59,12.59,0,0,1,3.58.51,13.15,13.15,0,0,1,3.22,1.44,10.15,10.15,0,0,1,2.54,2.24l-3.14,3.07a7.57,7.57,0,0,0-2.78-2.25,8,8,0,0,0-3.42-.75,7.11,7.11,0,0,0-5.09,2.09,7.3,7.3,0,0,0-1.51,2.29,7.62,7.62,0,0,0-.54,2.91,7.38,7.38,0,0,0,.56,2.87,7.15,7.15,0,0,0,1.54,2.3,6.94,6.94,0,0,0,2.3,1.52,7.72,7.72,0,0,0,2.93.55,7.51,7.51,0,0,0,3.29-.74,8,8,0,0,0,2.69-2.11l3,3a10.65,10.65,0,0,1-2.51,2.2,12,12,0,0,1-3.19,1.43A12.55,12.55,0,0,1,168.88,185.22Z"/><path class="cls-3" d="M188.17,185.22a8.9,8.9,0,0,1-4.51-1.15,8.78,8.78,0,0,1-3.2-3.12,8.74,8.74,0,0,1,0-8.77,8.65,8.65,0,0,1,3.2-3.1,9.49,9.49,0,0,1,9,0,8.58,8.58,0,0,1,3.2,3.1,8.74,8.74,0,0,1,0,8.77,8.65,8.65,0,0,1-3.18,3.12A9,9,0,0,1,188.17,185.22Zm0-3.81a4.35,4.35,0,0,0,2.37-.65A4.77,4.77,0,0,0,192.2,179a4.94,4.94,0,0,0,.61-2.47,4.8,4.8,0,0,0-2.29-4.16,4.28,4.28,0,0,0-2.32-.64,4.42,4.42,0,0,0-2.36.64,4.62,4.62,0,0,0-1.67,1.73,4.92,4.92,0,0,0-.61,2.43,5.05,5.05,0,0,0,.61,2.47,4.92,4.92,0,0,0,1.65,1.74A4.29,4.29,0,0,0,188.17,181.41Z"/><path class="cls-3" d="M199.76,184.9V168.23h4.38v1.38a6.86,6.86,0,0,1,4.7-1.7,6.72,6.72,0,0,1,3.41.85,5.93,5.93,0,0,1,2.32,2.34,6.83,6.83,0,0,1,.83,3.43V184.9h-4.35v-9.69a3.48,3.48,0,0,0-.94-2.58,3.44,3.44,0,0,0-2.55-.94,4.37,4.37,0,0,0-2,.43,3.89,3.89,0,0,0-1.44,1.23V184.9Z"/><path class="cls-3" d="M223.21,184.9l-7.13-16.67h4.76l4.55,11.1,4.57-11.1h4.64l-7.1,16.67Z"/><path class="cls-3" d="M244,185.22A8.95,8.95,0,0,1,236.3,181a8.21,8.21,0,0,1-1.19-4.37,8.58,8.58,0,0,1,1.14-4.37,8.46,8.46,0,0,1,3.09-3.11,8.32,8.32,0,0,1,4.32-1.16,7.89,7.89,0,0,1,4.27,1.17,8.19,8.19,0,0,1,2.94,3.18A9.65,9.65,0,0,1,252,176.9v1.16H239.6a4.86,4.86,0,0,0,1,1.79,4.51,4.51,0,0,0,1.63,1.23,5,5,0,0,0,2.08.43,6.23,6.23,0,0,0,2-.33,4.57,4.57,0,0,0,1.64-1l2.88,2.62a11,11,0,0,1-3.16,1.83A10.8,10.8,0,0,1,244,185.22Zm-4.51-10.3h8.13a4.57,4.57,0,0,0-.85-1.74,4,4,0,0,0-3.21-1.59,4.16,4.16,0,0,0-1.86.4,3.69,3.69,0,0,0-1.39,1.15A4.86,4.86,0,0,0,239.53,174.92Z"/><path class="cls-3" d="M254.6,184.9V168.23H259v1.86a5.23,5.23,0,0,1,1.9-1.67,5.62,5.62,0,0,1,2.55-.57,4.16,4.16,0,0,1,1.82.35v3.87a5.58,5.58,0,0,0-1.07-.35,4.94,4.94,0,0,0-1.17-.13,4.36,4.36,0,0,0-2.34.66,4.71,4.71,0,0,0-1.69,1.84V184.9Z"/><path class="cls-3" d="M274.09,185.22a14.72,14.72,0,0,1-4.21-.59,10.4,10.4,0,0,1-3.4-1.68l2.17-2.94a12.93,12.93,0,0,0,2.77,1.44,7.68,7.68,0,0,0,2.64.48,4.8,4.8,0,0,0,2.35-.5,1.46,1.46,0,0,0,.88-1.29,1.22,1.22,0,0,0-.5-1,3.4,3.4,0,0,0-1.58-.54l-3.2-.48a6.89,6.89,0,0,1-3.76-1.62,4.28,4.28,0,0,1-1.3-3.25,4.75,4.75,0,0,1,.85-2.81,5.42,5.42,0,0,1,2.42-1.83,9.71,9.71,0,0,1,3.65-.64,12.84,12.84,0,0,1,3.6.51,11.92,11.92,0,0,1,3.28,1.57l-2.11,2.85a11,11,0,0,0-2.65-1.25,8.79,8.79,0,0,0-2.51-.38,3.54,3.54,0,0,0-1.9.45,1.34,1.34,0,0,0-.72,1.18,1.26,1.26,0,0,0,.51,1.06,4.17,4.17,0,0,0,1.73.57l3.2.45a6.84,6.84,0,0,1,3.81,1.6,4.2,4.2,0,0,1,1.31,3.17,4.47,4.47,0,0,1-1,2.83,6.55,6.55,0,0,1-2.61,1.95A9.31,9.31,0,0,1,274.09,185.22Z"/><path class="cls-3" d="M289,185.19a7.13,7.13,0,0,1-3.13-.66,5.23,5.23,0,0,1-2.15-1.8,4.71,4.71,0,0,1-.76-2.66,4.37,4.37,0,0,1,1.79-3.73,8.27,8.27,0,0,1,5-1.32,12.29,12.29,0,0,1,4.1.67v-1.22a2.67,2.67,0,0,0-.9-2.18,4.05,4.05,0,0,0-2.62-.73,8.63,8.63,0,0,0-2.28.34,18.46,18.46,0,0,0-2.81,1l-1.57-3.27a24.72,24.72,0,0,1,3.78-1.31,14.57,14.57,0,0,1,3.58-.45,7.79,7.79,0,0,1,5.28,1.62,5.7,5.7,0,0,1,1.86,4.56V184.9h-4.32v-1.18a7.21,7.21,0,0,1-2.21,1.12A9.4,9.4,0,0,1,289,185.19ZM287.15,180a1.72,1.72,0,0,0,.83,1.51,3.83,3.83,0,0,0,2.21.57,7.45,7.45,0,0,0,2-.26,5.27,5.27,0,0,0,1.68-.83v-2.44a7.45,7.45,0,0,0-1.67-.49,10.78,10.78,0,0,0-1.85-.14,4.39,4.39,0,0,0-2.36.54A1.72,1.72,0,0,0,287.15,180Z"/><path class="cls-3" d="M308.91,185.16a6.12,6.12,0,0,1-4.18-1.26,4.66,4.66,0,0,1-1.42-3.67v-8.35h-3.43v-3.65h3.43V164l4.35-1v5.25h4.8v3.65h-4.8v7.42a2.15,2.15,0,0,0,.53,1.65,2.55,2.55,0,0,0,1.77.5,8.51,8.51,0,0,0,1.2-.08,11.84,11.84,0,0,0,1.17-.27v3.58a8.54,8.54,0,0,1-1.66.35A13.26,13.26,0,0,1,308.91,185.16Z"/><path class="cls-3" d="M316.78,166.25a2.4,2.4,0,0,1-1.76-.74,2.45,2.45,0,0,1-.74-1.79A2.34,2.34,0,0,1,315,162a2.5,2.5,0,0,1,3.53,0,2.35,2.35,0,0,1,.72,1.74,2.47,2.47,0,0,1-.72,1.79A2.39,2.39,0,0,1,316.78,166.25ZM314.6,184.9V168.23H319V184.9Z"/><path class="cls-3" d="M330.54,185.22a8.94,8.94,0,0,1-4.52-1.15,8.78,8.78,0,0,1-3.2-3.12,8.74,8.74,0,0,1,0-8.77,8.65,8.65,0,0,1,3.2-3.1,9.51,9.51,0,0,1,9,0,8.65,8.65,0,0,1,3.2,3.1,8.36,8.36,0,0,1,1.18,4.4,8.48,8.48,0,0,1-1.16,4.37,8.61,8.61,0,0,1-3.19,3.12A9,9,0,0,1,330.54,185.22Zm0-3.81a4.34,4.34,0,0,0,2.36-.65,4.8,4.8,0,0,0,1.67-1.74,5.05,5.05,0,0,0,.61-2.47,4.85,4.85,0,0,0-2.29-4.16,4.31,4.31,0,0,0-2.32-.64,4.43,4.43,0,0,0-2.37.64,4.6,4.6,0,0,0-1.66,1.73,4.82,4.82,0,0,0-.61,2.43,4.94,4.94,0,0,0,.61,2.47,4.8,4.8,0,0,0,1.64,1.74A4.32,4.32,0,0,0,330.54,181.41Z"/><path class="cls-3" d="M342.12,184.9V168.23h4.39v1.38a6.82,6.82,0,0,1,4.7-1.7,6.72,6.72,0,0,1,3.41.85,6,6,0,0,1,2.32,2.34,6.94,6.94,0,0,1,.83,3.43V184.9h-4.35v-9.69a3.49,3.49,0,0,0-.95-2.58,3.42,3.42,0,0,0-2.54-.94,4.38,4.38,0,0,0-2,.43,3.93,3.93,0,0,0-1.43,1.23V184.9Z"/><path class="cls-3" d="M359.66,169.64l2.17-8.45h4.55l-3.46,8.45Zm6.14,0,2.18-8.45h4.54l-3.46,8.45Z"/><path class="cls-3" d="M149.68,347.29l-2.18,8.45H143l3.45-8.45Zm6.14,0-2.18,8.45H149.1l3.46-8.45Z"/><path class="cls-3" d="M166.57,371l-9.12-22.4h5l6.84,17.67,7-17.67h4.8L171.92,371Z"/><path class="cls-3" d="M188.56,371.36A9,9,0,0,1,184,370.2a8.63,8.63,0,0,1-3.2-3.12,8.72,8.72,0,0,1,0-8.76,8.6,8.6,0,0,1,3.2-3.11,9.51,9.51,0,0,1,9,0,8.6,8.6,0,0,1,3.2,3.11,8.75,8.75,0,0,1,0,8.76,8.5,8.5,0,0,1-3.18,3.12A9,9,0,0,1,188.56,371.36Zm0-3.81a4.35,4.35,0,0,0,2.36-.66,4.8,4.8,0,0,0,1.67-1.74,5.05,5.05,0,0,0,.61-2.47,4.85,4.85,0,0,0-2.29-4.16,4.42,4.42,0,0,0-2.32-.64,4.52,4.52,0,0,0-2.37.64,4.67,4.67,0,0,0-1.66,1.73,4.87,4.87,0,0,0-.61,2.43,4.94,4.94,0,0,0,.61,2.47,4.8,4.8,0,0,0,1.64,1.74A4.33,4.33,0,0,0,188.56,367.55Z"/><path class="cls-3" d="M208.08,371.36a8.62,8.62,0,0,1-4.4-1.14,8.8,8.8,0,0,1-3.16-11.92,8.64,8.64,0,0,1,7.56-4.26,9.73,9.73,0,0,1,3.82.77A8.47,8.47,0,0,1,215,357l-2.66,2.85a6.25,6.25,0,0,0-1.93-1.51,5.09,5.09,0,0,0-2.2-.48,4.34,4.34,0,0,0-3.9,2.34,5.29,5.29,0,0,0-.58,2.49,5,5,0,0,0,.61,2.45,4.74,4.74,0,0,0,1.63,1.75,4.42,4.42,0,0,0,2.34.64,4.69,4.69,0,0,0,2.1-.48,6.57,6.57,0,0,0,1.87-1.44l2.62,2.75a9.28,9.28,0,0,1-3.07,2.19A9.12,9.12,0,0,1,208.08,371.36Z"/><path class="cls-3" d="M222.44,371.32a7.3,7.3,0,0,1-3.13-.65,5.25,5.25,0,0,1-2.15-1.81,4.69,4.69,0,0,1-.76-2.66,4.34,4.34,0,0,1,1.79-3.72,8.2,8.2,0,0,1,5-1.33,12.29,12.29,0,0,1,4.1.67V360.6a2.63,2.63,0,0,0-.9-2.17,4.05,4.05,0,0,0-2.62-.74,8.63,8.63,0,0,0-2.28.34,18.46,18.46,0,0,0-2.81,1l-1.57-3.27a24.72,24.72,0,0,1,3.78-1.31,14.63,14.63,0,0,1,3.58-.45,7.79,7.79,0,0,1,5.28,1.62,5.72,5.72,0,0,1,1.86,4.56V371h-4.32v-1.18a7,7,0,0,1-2.21,1.12A9,9,0,0,1,222.44,371.32Zm-1.88-5.21a1.74,1.74,0,0,0,.83,1.52,3.91,3.91,0,0,0,2.21.56,7.45,7.45,0,0,0,2-.26,5.27,5.27,0,0,0,1.68-.83v-2.43a7,7,0,0,0-1.67-.5,10.78,10.78,0,0,0-1.85-.14,4.39,4.39,0,0,0-2.36.54A1.73,1.73,0,0,0,220.56,366.11Z"/><path class="cls-3" d="M234.92,371v-22.4l4.39-.73v7.81a7.28,7.28,0,0,1,4.67-1.57,8,8,0,0,1,4.29,1.12,8.6,8.6,0,0,1,3,3.09,8.42,8.42,0,0,1,1.14,4.36,8.28,8.28,0,0,1-1.15,4.34,8.56,8.56,0,0,1-3.11,3.07,8.78,8.78,0,0,1-6.78.79,8.69,8.69,0,0,1-2.18-1V371Zm8.36-3.48a4.94,4.94,0,0,0,2.48-.63,4.54,4.54,0,0,0,1.74-1.74,4.87,4.87,0,0,0,.64-2.47,4.75,4.75,0,0,0-.64-2.46,4.89,4.89,0,0,0-1.74-1.73,5,5,0,0,0-2.48-.64,6.2,6.2,0,0,0-2.24.4,4.42,4.42,0,0,0-1.73,1.2V366a4.94,4.94,0,0,0,1.74,1.15A5.9,5.9,0,0,0,243.28,367.55Z"/><path class="cls-3" d="M261.58,371.36a6.82,6.82,0,0,1-3.41-.85,6.08,6.08,0,0,1-2.32-2.37,7.09,7.09,0,0,1-.83-3.44V354.36h4.35v9.7a3.48,3.48,0,0,0,.94,2.57,3.45,3.45,0,0,0,2.55.95,4.29,4.29,0,0,0,2-.45,4.08,4.08,0,0,0,1.45-1.22V354.36h4.39V371h-4.39v-1.34A6.93,6.93,0,0,1,261.58,371.36Z"/><path class="cls-3" d="M274.09,371v-22.4l4.38-.73V371Z"/><path class="cls-3" d="M287.18,371.32a7.34,7.34,0,0,1-3.14-.65,5.16,5.16,0,0,1-2.14-1.81,4.69,4.69,0,0,1-.77-2.66,4.36,4.36,0,0,1,1.79-3.72,8.22,8.22,0,0,1,5-1.33,12.29,12.29,0,0,1,4.1.67V360.6a2.63,2.63,0,0,0-.9-2.17,4,4,0,0,0-2.62-.74,8.56,8.56,0,0,0-2.27.34,18.94,18.94,0,0,0-2.82,1l-1.57-3.27a25.49,25.49,0,0,1,3.78-1.31,14.69,14.69,0,0,1,3.58-.45,7.76,7.76,0,0,1,5.28,1.62,5.72,5.72,0,0,1,1.86,4.56V371H292v-1.18A6.89,6.89,0,0,1,289.8,371,9,9,0,0,1,287.18,371.32Zm-1.89-5.21a1.76,1.76,0,0,0,.83,1.52,3.93,3.93,0,0,0,2.21.56,7.39,7.39,0,0,0,2-.26,5.08,5.08,0,0,0,1.68-.83v-2.43a6.91,6.91,0,0,0-1.66-.5,11,11,0,0,0-1.86-.14,4.35,4.35,0,0,0-2.35.54A1.72,1.72,0,0,0,285.29,366.11Z"/><path class="cls-3" d="M299.63,371V354.36H304v1.86a5.18,5.18,0,0,1,1.91-1.67,5.55,5.55,0,0,1,2.54-.57,4.16,4.16,0,0,1,1.82.35v3.87a6.38,6.38,0,0,0-1.07-.35,5.52,5.52,0,0,0-1.17-.13,4.3,4.3,0,0,0-2.33.66,4.8,4.8,0,0,0-1.7,1.84V371Z"/><path class="cls-3" d="M314.67,378c-.39,0-.76,0-1.11-.05a2.93,2.93,0,0,1-.85-.18V374a7.63,7.63,0,0,0,1.51.13,3.34,3.34,0,0,0,3.33-2.28l.25-.67-6.49-16.8h4.86l4.13,11.36,4.7-11.36h4.74l-7.68,18a13.59,13.59,0,0,1-1.89,3.21,6.18,6.18,0,0,1-2.35,1.8A8.17,8.17,0,0,1,314.67,378Z"/><path class="cls-3" d="M331.66,355.77l2.17-8.45h4.55l-3.46,8.45Zm6.14,0,2.18-8.45h4.54l-3.46,8.45Z"/><path class="cls-3" d="M149.68,532.26l-2.18,8.45H143l3.45-8.45Zm6.14,0-2.18,8.45H149.1l3.46-8.45Z"/><path class="cls-3" d="M168.88,556.32a12.33,12.33,0,0,1-4.68-.88,11.51,11.51,0,0,1-3.79-2.45,11.52,11.52,0,0,1-2.52-12.72,11.39,11.39,0,0,1,2.54-3.68,11.91,11.91,0,0,1,3.79-2.46,12.16,12.16,0,0,1,4.66-.88,12.59,12.59,0,0,1,3.58.51,13.15,13.15,0,0,1,3.22,1.44,10.15,10.15,0,0,1,2.54,2.24l-3.14,3.07a7.57,7.57,0,0,0-2.78-2.25,8,8,0,0,0-3.42-.75,7.11,7.11,0,0,0-5.09,2.09,7.3,7.3,0,0,0-1.51,2.29,7.62,7.62,0,0,0-.54,2.91,7.38,7.38,0,0,0,.56,2.87,7.15,7.15,0,0,0,1.54,2.3,6.94,6.94,0,0,0,2.3,1.52,7.72,7.72,0,0,0,2.93.54,7.51,7.51,0,0,0,3.29-.73,8,8,0,0,0,2.69-2.11l3,3a10.46,10.46,0,0,1-2.51,2.21,12,12,0,0,1-3.19,1.43A12.55,12.55,0,0,1,168.88,556.32Z"/><path class="cls-3" d="M188.17,556.32a8.9,8.9,0,0,1-4.51-1.15,8.78,8.78,0,0,1-3.2-3.12,8.74,8.74,0,0,1,0-8.77,8.65,8.65,0,0,1,3.2-3.1,9.49,9.49,0,0,1,9,0,8.58,8.58,0,0,1,3.2,3.1,8.74,8.74,0,0,1,0,8.77,8.65,8.65,0,0,1-3.18,3.12A9,9,0,0,1,188.17,556.32Zm0-3.81a4.35,4.35,0,0,0,2.37-.65,4.73,4.73,0,0,0,1.66-1.75,4.88,4.88,0,0,0,.61-2.46,4.8,4.8,0,0,0-2.29-4.16,4.28,4.28,0,0,0-2.32-.64,4.42,4.42,0,0,0-2.36.64,4.62,4.62,0,0,0-1.67,1.73,4.92,4.92,0,0,0-.61,2.43,5,5,0,0,0,.61,2.46,4.86,4.86,0,0,0,1.65,1.75A4.29,4.29,0,0,0,188.17,552.51Z"/><path class="cls-3" d="M199.76,556V539.33h4.38v1.28a6.73,6.73,0,0,1,7.26-.94,5.69,5.69,0,0,1,2.12,1.84,6.88,6.88,0,0,1,2.43-1.86,7.35,7.35,0,0,1,3.1-.64,6.24,6.24,0,0,1,3.28.85,6,6,0,0,1,2.24,2.33,7,7,0,0,1,.82,3.44V556H221v-9.69a3.74,3.74,0,0,0-.84-2.58,2.93,2.93,0,0,0-2.29-.94,4,4,0,0,0-1.81.4,3.46,3.46,0,0,0-1.39,1.26l.06.58a5.74,5.74,0,0,1,0,.6V556h-4.38v-9.69a3.7,3.7,0,0,0-.85-2.58,2.91,2.91,0,0,0-2.29-.94,3.9,3.9,0,0,0-1.77.38,3.49,3.49,0,0,0-1.33,1.15V556Z"/><path class="cls-3" d="M228.72,562.53v-23.2H233v1.38a7.36,7.36,0,0,1,4.73-1.6,8,8,0,0,1,4.29,1.12,8.47,8.47,0,0,1,4.19,7.45A8.31,8.31,0,0,1,245.1,552a8.55,8.55,0,0,1-7.46,4.21,7.89,7.89,0,0,1-2.41-.36,8.27,8.27,0,0,1-2.13-1v7.65Zm8.35-10a4.94,4.94,0,0,0,2.48-.62,4.69,4.69,0,0,0,1.74-1.74,4.87,4.87,0,0,0,.64-2.47,4.73,4.73,0,0,0-.64-2.46,4.79,4.79,0,0,0-4.22-2.37,6,6,0,0,0-2.24.4,4.42,4.42,0,0,0-1.73,1.2V551a4.94,4.94,0,0,0,1.74,1.15A5.93,5.93,0,0,0,237.07,552.51Z"/><path class="cls-3" d="M248.88,556V539.33h4.41v1.86a5.23,5.23,0,0,1,1.9-1.67,5.62,5.62,0,0,1,2.55-.57,4.16,4.16,0,0,1,1.82.35v3.87a5.58,5.58,0,0,0-1.07-.35,4.94,4.94,0,0,0-1.17-.13,4.3,4.3,0,0,0-2.33.66,4.73,4.73,0,0,0-1.7,1.84V556Z"/><path class="cls-3" d="M269.45,556.32a8.94,8.94,0,0,1-4.53-1.17,8.84,8.84,0,0,1-3.21-3.1,8.21,8.21,0,0,1-1.19-4.37,8.58,8.58,0,0,1,4.23-7.49,8.41,8.41,0,0,1,4.32-1.15,7.89,7.89,0,0,1,4.27,1.17,8.19,8.19,0,0,1,2.94,3.18,9.62,9.62,0,0,1,1.07,4.61v1.15H265a5,5,0,0,0,1,1.8,4.55,4.55,0,0,0,1.64,1.23,4.93,4.93,0,0,0,2.08.43,6,6,0,0,0,2-.34,4.29,4.29,0,0,0,1.63-1l2.88,2.62a9.93,9.93,0,0,1-6.78,2.4ZM264.94,546h8.13a4.84,4.84,0,0,0-.85-1.75,4.16,4.16,0,0,0-1.42-1.16,4,4,0,0,0-1.8-.42,4.15,4.15,0,0,0-1.85.4,3.69,3.69,0,0,0-1.39,1.15A4.86,4.86,0,0,0,264.94,546Z"/><path class="cls-3" d="M280,556V533.6l4.39-1v8.07a6.84,6.84,0,0,1,4.7-1.7,6.72,6.72,0,0,1,3.41.85,6,6,0,0,1,2.32,2.33,7,7,0,0,1,.83,3.44V556h-4.35v-9.69a3.49,3.49,0,0,0-.95-2.58,3.4,3.4,0,0,0-2.54-.94,4.31,4.31,0,0,0-2,.43,3.89,3.89,0,0,0-1.44,1.23V556Z"/><path class="cls-3" d="M307.18,556.32a9,9,0,0,1-7.75-4.27,8.2,8.2,0,0,1-1.18-4.37,8.58,8.58,0,0,1,1.14-4.37,8.43,8.43,0,0,1,7.4-4.27,7.92,7.92,0,0,1,4.28,1.17,8.27,8.27,0,0,1,2.94,3.18,9.62,9.62,0,0,1,1.07,4.61v1.15H302.73a4.83,4.83,0,0,0,1,1.8,4.6,4.6,0,0,0,1.63,1.23,5,5,0,0,0,2.08.43,6,6,0,0,0,2.05-.34,4.37,4.37,0,0,0,1.63-1l2.88,2.62a9.93,9.93,0,0,1-6.78,2.4ZM302.67,546h8.12a4.82,4.82,0,0,0-.84-1.75,4.1,4.1,0,0,0-1.43-1.16,3.9,3.9,0,0,0-1.79-.42,4.22,4.22,0,0,0-1.86.4,3.85,3.85,0,0,0-1.39,1.15A5,5,0,0,0,302.67,546Z"/><path class="cls-3" d="M317.77,556V539.33h4.38v1.38a6.87,6.87,0,0,1,4.71-1.7,6.74,6.74,0,0,1,3.41.85,6,6,0,0,1,2.32,2.33,7,7,0,0,1,.83,3.44V556h-4.35v-9.69a3.49,3.49,0,0,0-.95-2.58,3.43,3.43,0,0,0-2.54-.94,4.38,4.38,0,0,0-2,.43,4,4,0,0,0-1.44,1.23V556Z"/><path class="cls-3" d="M343,556.32a14.65,14.65,0,0,1-4.2-.59,10.45,10.45,0,0,1-3.41-1.68l2.17-2.94a13.16,13.16,0,0,0,2.77,1.44,7.77,7.77,0,0,0,2.64.48,4.77,4.77,0,0,0,2.35-.5,1.46,1.46,0,0,0,.88-1.3,1.23,1.23,0,0,0-.49-1,3.34,3.34,0,0,0-1.59-.54l-3.2-.48a6.92,6.92,0,0,1-3.76-1.62,4.28,4.28,0,0,1-1.29-3.25,4.66,4.66,0,0,1,.85-2.81,5.39,5.39,0,0,1,2.41-1.83,9.75,9.75,0,0,1,3.65-.64,12.73,12.73,0,0,1,3.6.51,11.79,11.79,0,0,1,3.28,1.57L347.5,544a11.17,11.17,0,0,0-2.64-1.25,8.79,8.79,0,0,0-2.51-.38,3.58,3.58,0,0,0-1.91.45,1.34,1.34,0,0,0-.72,1.18,1.26,1.26,0,0,0,.51,1.06,4.17,4.17,0,0,0,1.73.57l3.2.45a6.77,6.77,0,0,1,3.81,1.6,4.2,4.2,0,0,1,1.31,3.17,4.47,4.47,0,0,1-1,2.83,6.55,6.55,0,0,1-2.61,2A9.31,9.31,0,0,1,343,556.32Z"/><path class="cls-3" d="M354.63,537.35a2.41,2.41,0,0,1-1.76-.74,2.44,2.44,0,0,1-.73-1.79,2.36,2.36,0,0,1,.73-1.75,2.54,2.54,0,0,1,3.54,0,2.39,2.39,0,0,1,.72,1.75,2.47,2.47,0,0,1-.72,1.79A2.39,2.39,0,0,1,354.63,537.35ZM352.46,556V539.33h4.38V556Z"/><path class="cls-3" d="M368.39,556.32a8.93,8.93,0,0,1-4.51-1.15,8.78,8.78,0,0,1-3.2-3.12,8.74,8.74,0,0,1,0-8.77,8.65,8.65,0,0,1,3.2-3.1,9.51,9.51,0,0,1,9,0,8.65,8.65,0,0,1,3.2,3.1,8.77,8.77,0,0,1,0,8.77,8.65,8.65,0,0,1-3.18,3.12A9,9,0,0,1,368.39,556.32Zm0-3.81a4.35,4.35,0,0,0,2.37-.65,4.75,4.75,0,0,0,1.67-1.75,5,5,0,0,0,.6-2.46,4.73,4.73,0,0,0-.62-2.43,4.84,4.84,0,0,0-1.66-1.73,4.33,4.33,0,0,0-2.32-.64,4.43,4.43,0,0,0-2.37.64,4.62,4.62,0,0,0-1.67,1.73,4.92,4.92,0,0,0-.6,2.43,5,5,0,0,0,.6,2.46,4.86,4.86,0,0,0,1.65,1.75A4.29,4.29,0,0,0,368.39,552.51Z"/><path class="cls-3" d="M380,556V539.33h4.38v1.38a6.87,6.87,0,0,1,4.71-1.7,6.68,6.68,0,0,1,3.4.85,5.91,5.91,0,0,1,2.32,2.33,6.9,6.9,0,0,1,.84,3.44V556h-4.36v-9.69a3.48,3.48,0,0,0-.94-2.58,3.43,3.43,0,0,0-2.54-.94,4.38,4.38,0,0,0-2,.43,4,4,0,0,0-1.44,1.23V556Z"/><path class="cls-3" d="M397.51,540.74l2.18-8.45h4.54l-3.45,8.45Zm6.15,0,2.17-8.45h4.55l-3.46,8.45Z"/><path class="cls-3" d="M149.68,719.37l-2.18,8.45H143l3.45-8.45Zm6.14,0-2.18,8.45H149.1l3.46-8.45Z"/><path class="cls-3" d="M168.85,743.47a12,12,0,0,1-8.44-3.34,11.24,11.24,0,0,1-2.54-3.68,11.38,11.38,0,0,1-.9-4.53,11.22,11.22,0,0,1,.92-4.53,11.52,11.52,0,0,1,2.51-3.68,11.17,11.17,0,0,1,3.74-2.46,12.06,12.06,0,0,1,4.64-.88,12.62,12.62,0,0,1,5.23,1.1,10.64,10.64,0,0,1,4.08,3.09l-3.23,3a7.65,7.65,0,0,0-2.7-2.17,7.81,7.81,0,0,0-3.38-.74,6.84,6.84,0,0,0-5,2.1,6.93,6.93,0,0,0-1.47,2.29,8.18,8.18,0,0,0,0,5.82,6.85,6.85,0,0,0,1.53,2.32,7.12,7.12,0,0,0,5.13,2.1,6.65,6.65,0,0,0,2.85-.61A6.34,6.34,0,0,0,174,737a5.5,5.5,0,0,0,1.17-2.4h-6.63v-4h11.59V732a12.21,12.21,0,0,1-.85,4.59,11.39,11.39,0,0,1-2.35,3.65,10.71,10.71,0,0,1-3.56,2.42A11.45,11.45,0,0,1,168.85,743.47Z"/><path class="cls-3" d="M182.92,743.12V726.45h4.42v1.85a5.2,5.2,0,0,1,1.9-1.66,5.5,5.5,0,0,1,2.55-.58,4.16,4.16,0,0,1,1.82.35v3.88a6.41,6.41,0,0,0-1.07-.36,5.52,5.52,0,0,0-1.17-.12,4.35,4.35,0,0,0-2.34.65,4.86,4.86,0,0,0-1.69,1.84v10.82Z"/><path class="cls-3" d="M200.84,743.41a7.13,7.13,0,0,1-3.13-.66,5.25,5.25,0,0,1-2.15-1.81,4.68,4.68,0,0,1-.76-2.65,4.35,4.35,0,0,1,1.79-3.73,8.2,8.2,0,0,1,5-1.33,12.33,12.33,0,0,1,4.1.67v-1.21a2.65,2.65,0,0,0-.9-2.18,4.05,4.05,0,0,0-2.62-.74,9.07,9.07,0,0,0-2.28.34,18.46,18.46,0,0,0-2.81,1l-1.57-3.26a23.78,23.78,0,0,1,3.78-1.32,14.56,14.56,0,0,1,3.58-.44,7.79,7.79,0,0,1,5.28,1.61A5.72,5.72,0,0,1,210,732.3v10.82h-4.32v-1.19a6.79,6.79,0,0,1-2.21,1.12A9,9,0,0,1,200.84,743.41ZM199,738.19a1.73,1.73,0,0,0,.83,1.52,3.91,3.91,0,0,0,2.21.56,7.07,7.07,0,0,0,2-.26,5.07,5.07,0,0,0,1.68-.83v-2.43a7.47,7.47,0,0,0-1.67-.5,12,12,0,0,0-1.85-.14,4.39,4.39,0,0,0-2.36.54A1.75,1.75,0,0,0,199,738.19Z"/><path class="cls-3" d="M213.32,743.12V726.45h4.39v1.28a6.76,6.76,0,0,1,7.26-1,5.75,5.75,0,0,1,2.11,1.84,6.85,6.85,0,0,1,2.44-1.85,7.32,7.32,0,0,1,3.1-.64,6.33,6.33,0,0,1,3.28.84,6.07,6.07,0,0,1,2.24,2.34,7.08,7.08,0,0,1,.82,3.44v10.37h-4.39v-9.7a3.67,3.67,0,0,0-.85-2.57,2.92,2.92,0,0,0-2.29-1,4.1,4.1,0,0,0-1.8.4,3.59,3.59,0,0,0-1.4,1.27c0,.19.05.38.07.57a5.93,5.93,0,0,1,0,.61v10.37H224v-9.7a3.72,3.72,0,0,0-.85-2.57,2.94,2.94,0,0,0-2.29-1,3.9,3.9,0,0,0-1.77.39,3.4,3.4,0,0,0-1.33,1.15v11.68Z"/><path class="cls-3" d="M242.28,743.12V726.45h4.39v1.28a6.76,6.76,0,0,1,7.26-1,5.75,5.75,0,0,1,2.11,1.84,6.85,6.85,0,0,1,2.44-1.85,7.32,7.32,0,0,1,3.1-.64,6.33,6.33,0,0,1,3.28.84,6.07,6.07,0,0,1,2.24,2.34,7.08,7.08,0,0,1,.82,3.44v10.37h-4.39v-9.7a3.67,3.67,0,0,0-.85-2.57,2.92,2.92,0,0,0-2.29-1,4.1,4.1,0,0,0-1.8.4,3.59,3.59,0,0,0-1.4,1.27c0,.19.05.38.07.57a5.93,5.93,0,0,1,0,.61v10.37h-4.38v-9.7a3.72,3.72,0,0,0-.85-2.57,2.94,2.94,0,0,0-2.29-1,3.9,3.9,0,0,0-1.77.39,3.4,3.4,0,0,0-1.33,1.15v11.68Z"/><path class="cls-3" d="M276.52,743.41a7.13,7.13,0,0,1-3.13-.66,5.25,5.25,0,0,1-2.15-1.81,4.68,4.68,0,0,1-.76-2.65,4.35,4.35,0,0,1,1.79-3.73,8.2,8.2,0,0,1,5-1.33,12.23,12.23,0,0,1,4.09.67v-1.21a2.65,2.65,0,0,0-.89-2.18,4.05,4.05,0,0,0-2.62-.74,9,9,0,0,0-2.28.34,18.46,18.46,0,0,0-2.81,1l-1.57-3.26a23.78,23.78,0,0,1,3.78-1.32,14.56,14.56,0,0,1,3.58-.44,7.79,7.79,0,0,1,5.28,1.61,5.72,5.72,0,0,1,1.86,4.56v10.82h-4.33v-1.19a6.65,6.65,0,0,1-2.2,1.12A9,9,0,0,1,276.52,743.41Zm-1.88-5.22a1.73,1.73,0,0,0,.83,1.52,3.91,3.91,0,0,0,2.21.56,7.07,7.07,0,0,0,2-.26,4.93,4.93,0,0,0,1.67-.83v-2.43a7.24,7.24,0,0,0-1.66-.5,12,12,0,0,0-1.85-.14,4.39,4.39,0,0,0-2.36.54A1.75,1.75,0,0,0,274.64,738.19Z"/><path class="cls-3" d="M289,743.12V726.45h4.42v1.85a5.12,5.12,0,0,1,1.9-1.66,5.49,5.49,0,0,1,2.54-.58,4.21,4.21,0,0,1,1.83.35v3.88a6.41,6.41,0,0,0-1.07-.36,5.66,5.66,0,0,0-1.17-.12,4.32,4.32,0,0,0-2.34.65,4.78,4.78,0,0,0-1.69,1.84v10.82Z"/><path class="cls-3" d="M301.29,727.85l2.18-8.44H308l-3.46,8.44Zm6.14,0,2.18-8.44h4.54l-3.45,8.44Z"/><circle class="cls-4" cx="458.48" cy="760.36" r="38.26"/><path class="cls-5" d="M476.57,763.07H448.25a.49.49,0,0,0-.49.41,3.54,3.54,0,0,1-7,.09c0-.27-.42-.35-1.14-.35-2.16,0-3.92,1.22-3.92,4.6v7.37a5.24,5.24,0,0,0,5.23,5.23h35.66a5.25,5.25,0,0,0,5.23-5.23V768.3A5.25,5.25,0,0,0,476.57,763.07Z"/><path class="cls-5" d="M451.32,740.37a.48.48,0,0,0-.56.39,3.37,3.37,0,0,1-6.64.22.82.82,0,0,0-.8-.68H440.7a4.77,4.77,0,0,0-4.75,4.75v7.85a4.78,4.78,0,0,0,4.27,4.73.68.68,0,0,1,.59.46,3.59,3.59,0,0,0,3.43,2.83,3.53,3.53,0,0,0,3.43-2.72.72.72,0,0,1,.69-.55h2.21a4.77,4.77,0,0,0,4.75-4.75v-7.85A4.76,4.76,0,0,0,451.32,740.37Z"/><circle class="cls-4" cx="604.11" cy="823.06" r="39.54"/><rect class="cls-6" x="586.67" y="799.57" width="34.89" height="46.99" rx="5.16"/><rect class="cls-6" x="590.1" y="802.1" width="34.89" height="46.99" rx="5.16"/><text class="cls-7" transform="translate(596.08 829.28)">A</text><rect class="cls-8" x="596.08" y="835.71" width="19.23" height="1.62" rx="0.81"/><rect class="cls-8" x="596.08" y="840.57" width="11.44" height="1.62" rx="0.81"/><circle class="cls-4" cx="727.7" cy="769.17" r="39.53"/><rect class="cls-9" x="710.26" y="745.68" width="34.88" height="46.98" rx="5.16"/><rect class="cls-9" x="713.69" y="748.21" width="34.88" height="46.98" rx="5.16"/><text class="cls-10" transform="translate(719.67 767.56)">ABC</text><rect class="cls-8" x="719.67" y="781.81" width="19.23" height="1.62" rx="0.81"/><rect class="cls-8" x="719.67" y="786.67" width="11.43" height="1.62" rx="0.81"/><circle class="cls-4" cx="625.53" cy="717.3" r="34.47"/><rect class="cls-11" x="610.32" y="696.81" width="30.42" height="40.97" rx="4.5"/><text class="cls-12" transform="translate(615.53 720.51)">A</text><circle class="cls-4" cx="370.31" cy="793.5" r="38.99"/><rect class="cls-13" x="352.22" y="777.39" width="25.08" height="33.78" rx="4.52"/><rect class="cls-8" x="356.52" y="801.56" width="13.83" height="1.17" rx="0.49"/><rect class="cls-8" x="356.52" y="805.06" width="8.22" height="1.17" rx="0.49"/><circle class="cls-14" cx="377.31" cy="787.75" r="11.93"/><circle class="cls-14" cx="377.31" cy="787.75" r="10.78"/><rect class="cls-15" x="389.58" y="793.84" width="3.25" height="15.44" rx="1.62" transform="translate(-452.2 511.39) rotate(-45)"/><circle class="cls-4" cx="490.87" cy="832.49" r="31.59"/><path class="cls-16" d="M492.87,847h-13a3.89,3.89,0,0,1-3.89-3.89v-20a3.9,3.9,0,0,1,3.89-3.9h13a3.91,3.91,0,0,1,3.9,3.9v20A3.9,3.9,0,0,1,492.87,847Zm-13-27.37a3.45,3.45,0,0,0-3.44,3.44v20a3.44,3.44,0,0,0,3.44,3.43h13a3.44,3.44,0,0,0,3.44-3.43v-20a3.44,3.44,0,0,0-3.44-3.44Z"/><rect class="cls-8" x="480.36" y="838.41" width="11.04" height="0.95" rx="0.47"/><circle class="cls-17" cx="496.54" cy="827.84" r="9.66"/><path class="cls-15" d="M496.54,837.73a9.9,9.9,0,1,1,9.89-9.89A9.91,9.91,0,0,1,496.54,837.73Zm0-19.33a9.44,9.44,0,1,0,9.43,9.44A9.44,9.44,0,0,0,496.54,818.4Z"/><circle class="cls-17" cx="496.54" cy="827.84" r="8.73"/><path class="cls-15" d="M496.54,836.8a9,9,0,1,1,9-9A9,9,0,0,1,496.54,836.8Zm0-17.47a8.51,8.51,0,1,0,8.5,8.51A8.52,8.52,0,0,0,496.54,819.33Z"/><path class="cls-15" d="M512.42,842.83h0a1.29,1.29,0,0,1-1.83,0l-6.89-7a1.34,1.34,0,0,1,0-1.86h0a1.3,1.3,0,0,1,1.84,0l6.88,7A1.34,1.34,0,0,1,512.42,842.83Z"/><path class="cls-18" d="M827.39,769.1h97.9l-9,6.61-7.58,5.53c-1.23.9,0,3,1.21,2.06l16.58-12.1c.88-.65,2.1-1.31,2.44-2.41.54-1.74-.76-2.71-2-3.58l-9.39-6.83-8.07-5.87c-1.25-.91-2.44,1.16-1.21,2.06l16.15,11.74.55.4H827.39a1.2,1.2,0,1,0,0,2.39Z"/><path class="cls-18" d="M827.39,568.2h97.9l-9,6.61-7.58,5.53c-1.23.9,0,3,1.21,2.07l16.58-12.11c.88-.65,2.1-1.31,2.44-2.41.54-1.74-.76-2.71-2-3.58l-9.39-6.83-8.07-5.87c-1.25-.91-2.44,1.16-1.21,2.06l16.15,11.74.55.4H827.39a1.2,1.2,0,1,0,0,2.39Z"/><path class="cls-18" d="M827.39,376.81h97.9l-9,6.61L908.66,389c-1.23.9,0,3,1.21,2.07l16.58-12.11c.88-.65,2.1-1.31,2.44-2.41.54-1.74-.76-2.7-2-3.58l-9.39-6.83-8.07-5.87c-1.25-.91-2.44,1.17-1.21,2.06L924.4,374l.55.39H827.39a1.2,1.2,0,1,0,0,2.39Z"/><path class="cls-18" d="M827.39,189.31h97.9l-9,6.61-7.58,5.53c-1.23.9,0,3,1.21,2.06l16.58-12.1c.88-.65,2.1-1.31,2.44-2.41.54-1.74-.76-2.71-2-3.58l-9.39-6.83-8.07-5.87c-1.25-.91-2.44,1.16-1.21,2.06l16.15,11.74.55.4H827.39a1.2,1.2,0,1,0,0,2.39Z"/><circle class="cls-4" cx="544.69" cy="743.65" r="37.04"/><rect class="cls-19" x="523.95" y="723.06" width="39.47" height="39.47" rx="7.83"/><rect class="cls-19" x="529.02" y="727.49" width="39.47" height="39.47" rx="7.04"/><rect class="cls-8" x="533.3" y="735.9" width="15.61" height="2.22" rx="1.11"/><rect class="cls-8" x="542.22" y="746.11" width="15.61" height="2.22" rx="1.11"/><rect class="cls-8" x="550.02" y="757.85" width="15.61" height="2.22" rx="1.11"/><circle class="cls-4" cx="494.31" cy="682.48" r="25.63"/><rect class="cls-20" x="479.96" y="668.23" width="27.31" height="27.31" rx="5.42"/><rect class="cls-20" x="483.17" y="671.29" width="27.31" height="27.31" rx="4.88"/><rect class="cls-8" x="485.64" y="677.12" width="11.57" height="1.53" rx="0.77"/><rect class="cls-8" x="494.34" y="684.18" width="5.75" height="1.53" rx="0.77"/><rect class="cls-8" x="497.21" y="692.31" width="10.8" height="1.53" rx="0.77"/><rect class="cls-8" x="494.34" y="684.18" width="5.75" height="1.53" rx="0.77" transform="translate(-187.74 1182.16) rotate(-90)"/><circle class="cls-4" cx="1038.1" cy="764.89" r="47.32"/><rect class="cls-17" x="1014.35" y="741.3" width="45.52" height="45.52" rx="10"/><path class="cls-15" d="M1050.84,787.27h-27.46a9.49,9.49,0,0,1-9.48-9.48V750.33a9.49,9.49,0,0,1,9.48-9.48h27.46a9.49,9.49,0,0,1,9.48,9.48v27.46A9.49,9.49,0,0,1,1050.84,787.27Zm-27.46-45.52a8.59,8.59,0,0,0-8.58,8.58v27.46a8.59,8.59,0,0,0,8.58,8.58h27.46a8.59,8.59,0,0,0,8.58-8.58V750.33a8.59,8.59,0,0,0-8.58-8.58Z"/><rect class="cls-17" x="1019.7" y="746.41" width="45.52" height="45.52" rx="9"/><path class="cls-15" d="M1057.1,792.38h-29.27a8.59,8.59,0,0,1-8.58-8.58V754.53a8.58,8.58,0,0,1,8.58-8.57h29.27a8.58,8.58,0,0,1,8.57,8.57V783.8A8.59,8.59,0,0,1,1057.1,792.38Zm-29.27-45.52a7.68,7.68,0,0,0-7.67,7.67V783.8a7.68,7.68,0,0,0,7.67,7.67h29.27a7.68,7.68,0,0,0,7.67-7.67V754.53a7.68,7.68,0,0,0-7.67-7.67Z"/><path class="cls-16" d="M1035.55,765.57h-.29a.84.84,0,0,1-.84-.56l-.59-1.49h-5.22L1028,765a.84.84,0,0,1-.84.56h-.26c-.53,0-.77-.35-.56-.84l3.78-9.06a.83.83,0,0,1,.84-.56h.46a.82.82,0,0,1,.84.56l3.8,9.06C1036.28,765.22,1036.07,765.57,1035.55,765.57Zm-2.26-3.4-2.08-5.21-2.07,5.21Z"/><path class="cls-16" d="M1037.38,764.85v-9a.65.65,0,0,1,.72-.72h2.6c3.47,0,4.48,1,4.48,2.7a2.15,2.15,0,0,1-1.94,2.41c1.54.21,2.29.94,2.29,2.47,0,1.77-1.16,2.88-4.67,2.88h-2.76A.65.65,0,0,1,1037.38,764.85Zm3.34-5.26c1.89,0,2.7-.44,2.7-1.59s-.64-1.43-2.75-1.43H1039v3Zm.12,4.53c2.1,0,2.92-.47,2.92-1.58s-.7-1.62-2.89-1.62H1039v3.2Z"/><path class="cls-16" d="M1046.91,760.37c0-3.72,2.43-5.39,4.93-5.39a4.49,4.49,0,0,1,4.39,2.83.62.62,0,0,1-.54.9l-.23,0c-.44.09-.66-.1-.88-.52a2.94,2.94,0,0,0-2.74-1.71c-1.92,0-3.21,1.48-3.21,3.85s1.26,3.81,3.21,3.81a2.91,2.91,0,0,0,2.77-1.78c.2-.41.45-.6.88-.52l.23,0c.48.08.7.5.44,1.13a4.49,4.49,0,0,1-4.32,2.68C1049.34,765.74,1046.91,764.18,1046.91,760.37Z"/><rect class="cls-8" x="1026.68" y="774.33" width="30.28" height="1.35" rx="0.59"/><rect class="cls-8" x="1026.68" y="781.99" width="18" height="1.35" rx="0.59"/><circle class="cls-21" cx="1243.49" cy="766.95" r="50.97"/><rect class="cls-17" x="1218.97" y="742.44" width="49.03" height="49.03" rx="9.69"/><path class="cls-22" d="M1259.25,792h-31.52a9.24,9.24,0,0,1-9.24-9.23V751.19a9.25,9.25,0,0,1,9.24-9.24h31.52a9.26,9.26,0,0,1,9.24,9.24v31.53A9.25,9.25,0,0,1,1259.25,792Zm-31.52-49a8.27,8.27,0,0,0-8.27,8.26v31.53a8.28,8.28,0,0,0,8.27,8.26h31.52a8.27,8.27,0,0,0,8.26-8.26V751.19a8.26,8.26,0,0,0-8.26-8.26Z"/><path class="cls-16" d="M1236,763.08h-.31a.92.92,0,0,1-.91-.61l-.63-1.6h-5.62l-.64,1.6a.89.89,0,0,1-.9.61h-.28c-.58,0-.83-.37-.61-.9l4.08-9.76a.89.89,0,0,1,.9-.61h.5a.88.88,0,0,1,.9.61l4.09,9.76C1236.83,762.71,1236.6,763.08,1236,763.08Zm-2.43-3.66-2.24-5.62-2.23,5.62Z"/><path class="cls-16" d="M1238,762.3v-9.71a.71.71,0,0,1,.78-.78h2.8c3.74,0,4.83,1.06,4.83,2.91a2.32,2.32,0,0,1-2.09,2.6c1.65.22,2.46,1,2.46,2.66,0,1.9-1.25,3.1-5,3.1h-3A.71.71,0,0,1,1238,762.3Zm3.6-5.66c2,0,2.91-.47,2.91-1.72s-.69-1.54-3-1.54h-1.76v3.26Zm.14,4.88c2.25,0,3.14-.51,3.14-1.71s-.76-1.74-3.11-1.74h-2v3.45Z"/><path class="cls-16" d="M1248.28,757.48c0-4,2.61-5.81,5.31-5.81a4.85,4.85,0,0,1,4.73,3.05.67.67,0,0,1-.58,1l-.25,0c-.48.1-.71-.11-1-.56a3.18,3.18,0,0,0-3-1.83c-2.07,0-3.46,1.58-3.46,4.14s1.35,4.11,3.46,4.11a3.14,3.14,0,0,0,3-1.92c.22-.45.49-.65,1-.56l.25,0c.52.09.75.54.47,1.21a4.84,4.84,0,0,1-4.65,2.9C1250.89,763.27,1248.28,761.59,1248.28,757.48Z"/><rect class="cls-8" x="1226.49" y="772.52" width="32.61" height="1.46" rx="0.64"/><rect class="cls-8" x="1226.49" y="780.77" width="19.39" height="1.46" rx="0.64"/><circle class="cls-4" cx="615.53" cy="508.05" r="34.3"/><path class="cls-23" d="M641.75,505.63a4.72,4.72,0,0,0-1.11-5.09c-1-1-.86-3.2-1.52-4.41s-2-1.2-1.92-2.59v0a4.86,4.86,0,0,0-2-4.28c-4.28-2.93-6.18-5-12.7-5-2.05,0-6.18-1.64-8.75-.29-3,1.59-4,3.39-7.08,1.91a3.58,3.58,0,0,0-3-.08c-8.64,2.9-14.55,8.79-14.55,15.59a13.09,13.09,0,0,0,3.36,8.5,12,12,0,0,0,9.74,4.18,13.94,13.94,0,0,1,5.68.36c2.81,1.07,3.5,5.1,8.69,4.35.18,0,.75.08.89.07L625,532.11a1.67,1.67,0,0,0,3.13-.92l-.93-14C634.33,515,639.76,510.76,641.75,505.63Z"/><path class="cls-16" d="M600.22,500.84a2,2,0,0,0-.48,2.59,2.11,2.11,0,0,0,1.07.86,2.35,2.35,0,0,0,1.59-.07,2.14,2.14,0,0,1,2.4.6,1.65,1.65,0,0,1-.24,2.23c-.42.36.19,1,.6.6a2.49,2.49,0,0,0,.74-2.49,2.64,2.64,0,0,0-1.87-1.82,2.93,2.93,0,0,0-1.44,0c-.49.09-1,.38-1.46.21a1.17,1.17,0,0,1-.31-2.06.42.42,0,0,0-.6-.6Z"/><path class="cls-16" d="M624.16,491.9a2,2,0,0,0-3.46.59,2.33,2.33,0,0,0,0,1.54,2.17,2.17,0,0,1-.57,2.43,1.66,1.66,0,0,1-2.25-.23c-.35-.42-1,.18-.6.6a2.48,2.48,0,0,0,2.47.75,2.67,2.67,0,0,0,1.86-1.92,3.11,3.11,0,0,0,0-1.39c-.1-.51-.39-1-.19-1.51a1.16,1.16,0,0,1,2-.25.44.44,0,0,0,.61,0,.45.45,0,0,0,0-.61Z"/><path class="cls-16" d="M629,512.18a2,2,0,0,0-1.7-3.17,2.11,2.11,0,0,0-1.09.36,3.85,3.85,0,0,1-1.07.54,2,2,0,0,1-1.88-.51,1.67,1.67,0,0,1-.15-2c.31-.46-.43-.88-.74-.43a2.52,2.52,0,0,0,1.1,3.59,2.92,2.92,0,0,0,2.23.06c.68-.26,1.23-.94,2-.71a1.16,1.16,0,0,1,.55,1.83c-.32.45.42.88.74.43Z"/><path class="cls-16" d="M639.89,497.36a2.28,2.28,0,0,0-2.37-.72,2.06,2.06,0,0,0-1.68,2.12,5.06,5.06,0,0,1,.06,1.6,2,2,0,0,1-.75,1.13,1.65,1.65,0,0,1-2.31-.39c-.29-.47-1,0-.74.43a2.5,2.5,0,0,0,2.35,1.11,2.64,2.64,0,0,0,2.16-1.73,2.87,2.87,0,0,0,.18-1.45c-.06-.54-.22-1,.14-1.53a1.41,1.41,0,0,1,1.14-.49c.36,0,.87,0,1.08.36s1,0,.74-.44Z"/><path class="cls-16" d="M605.2,492.87a2.07,2.07,0,0,0,.11-2.17,2,2,0,0,0-1.81-1,2.17,2.17,0,0,0-1.1.35,3.57,3.57,0,0,1-1.06.55,2,2,0,0,1-1.88-.52,1.64,1.64,0,0,1-.15-2c.3-.46-.44-.89-.74-.44a2.51,2.51,0,0,0,1.09,3.6,3,3,0,0,0,2.24.06c.68-.27,1.23-.95,2-.72a1.17,1.17,0,0,1,.55,1.83c-.32.45.42.88.74.44Z"/><circle class="cls-4" cx="516.46" cy="504.25" r="36.73"/><path class="cls-24" d="M533.22,505.61a3.1,3.1,0,0,0-.73-3.36c-.65-.63-.56-2.12-1-2.92s-1.3-.79-1.27-1.71v0a3.21,3.21,0,0,0-1.35-2.82c-2.82-1.94-4.08-3.32-8.39-3.33-1.35,0-4.08-1.08-5.78-.19-2,1-2.65,2.24-4.68,1.26a2.38,2.38,0,0,0-1.95-.06c-5.71,1.92-9.62,5.81-9.62,10.3a8.62,8.62,0,0,0,2.23,5.62,7.88,7.88,0,0,0,6.44,2.76,9.08,9.08,0,0,1,3.74.25c1.86.7,2.32,3.36,5.75,2.87a4,4,0,0,1,.58,0,15.62,15.62,0,0,1,4.94,8.81c.75,1.42,2.14.56,2.06-.62l-.61-9.25C528.32,511.79,531.92,509,533.22,505.61Z"/><rect class="cls-16" x="514.12" y="477.86" width="2.34" height="7.27" rx="1.17"/><rect class="cls-16" x="539.64" y="500.61" width="2.34" height="7.27" rx="1.17" transform="matrix(0, 1, -1, 0, 1045.06, -36.57)"/><rect class="cls-16" x="490.03" y="500.61" width="2.34" height="7.27" rx="1.17" transform="translate(995.45 13.04) rotate(90)"/><rect class="cls-16" x="495.29" y="485.74" width="2.34" height="7.27" rx="1.17" transform="translate(-200.63 494.38) rotate(-45)"/><rect class="cls-16" x="534.14" y="484.83" width="2.34" height="7.27" rx="1.17" transform="translate(568.43 1212.39) rotate(-135)"/><rect class="cls-16" x="514.69" y="524.35" width="2.34" height="7.27" rx="1.17"/><rect class="cls-16" x="495.87" y="516.48" width="2.34" height="7.27" rx="1.17" transform="translate(513.35 -199.12) rotate(45)"/><rect class="cls-16" x="534.71" y="517.38" width="2.34" height="7.27" rx="1.17" transform="translate(1283.22 510.5) rotate(135)"/><circle class="cls-4" cx="502.61" cy="580.54" r="29.07"/><path class="cls-25" d="M516.29,583.19a2.44,2.44,0,0,0-.58-2.66c-.51-.5-.45-1.67-.79-2.31s-1-.62-1-1.35h0a2.57,2.57,0,0,0-1.07-2.24c-2.24-1.54-3.24-2.63-6.65-2.63-1.07,0-3.23-.86-4.57-.16-1.58.83-2.1,1.78-3.7,1a1.87,1.87,0,0,0-1.55,0c-4.52,1.52-7.61,4.6-7.61,8.15a6.84,6.84,0,0,0,1.76,4.45,6.2,6.2,0,0,0,5.09,2.18,7.43,7.43,0,0,1,3,.2c1.47.55,1.83,2.66,4.55,2.27a3.92,3.92,0,0,1,.46,0,12.34,12.34,0,0,1,3.91,7c.59,1.12,1.69.44,1.63-.49l-.48-7.32C512.41,588.08,515.26,585.88,516.29,583.19Z"/><rect class="cls-16" x="501.22" y="561.37" width="1.85" height="5.76" rx="0.93"/><rect class="cls-16" x="486.31" y="567.61" width="1.85" height="5.76" rx="0.93" transform="translate(-260.69 511.62) rotate(-45)"/><rect class="cls-16" x="517.06" y="566.9" width="1.85" height="5.76" rx="0.93" transform="translate(481.37 1338.94) rotate(-135)"/><circle class="cls-4" cx="437.5" cy="593.6" r="24.81"/><path class="cls-26" d="M451.59,592.85A2.6,2.6,0,0,0,451,590c-.54-.52-.47-1.77-.84-2.44s-1.09-.66-1.06-1.43h0a2.7,2.7,0,0,0-1.13-2.37c-2.36-1.62-3.42-2.78-7-2.79-1.13,0-3.41-.9-4.84-.16-1.67.88-2.22,1.88-3.91,1.06a2,2,0,0,0-1.63,0c-4.78,1.61-8.06,4.87-8.06,8.63a7.21,7.21,0,0,0,1.87,4.7,6.57,6.57,0,0,0,5.39,2.31,7.51,7.51,0,0,1,3.13.21c1.56.58,1.94,2.82,4.81,2.4a4.35,4.35,0,0,1,.49,0,13,13,0,0,1,4.13,7.37c.63,1.19,1.8.47,1.73-.51l-.51-7.75C447.49,598,450.5,595.68,451.59,592.85Z"/><path class="cls-16" d="M437.31,592.38v-.1a1.72,1.72,0,0,1,1-1.73c.88-.58,1.39-1,1.39-1.62a1,1,0,0,0-2.08,0v.14a.33.33,0,0,1-.36.38h-1.53a.39.39,0,0,1-.43-.35,2.12,2.12,0,0,1,0-.38c0-1.25,1.12-2.81,3.41-2.81,2.09,0,3.52,1.11,3.52,2.79,0,1.41-1,2.24-2.31,3.14-.08.06-.47.34-.49.59v.07c0,.12-.05.17-.3.17H437.7C437.45,592.65,437.31,592.55,437.31,592.38Zm-.52,2.58a1.4,1.4,0,0,1,1.51-1.37,1.37,1.37,0,1,1,0,2.71A1.39,1.39,0,0,1,436.79,595Z"/><circle class="cls-4" cx="727.7" cy="565.71" r="41.65"/><path class="cls-17" d="M746,550.45h-1.25a.55.55,0,0,1-.54-.44,5.76,5.76,0,0,0-5.62-4.61H727.87a5.77,5.77,0,0,0-5.26,3.45.87.87,0,0,1-.8.53H709.6a7.19,7.19,0,0,0-7.17,7.17v11.33a7.19,7.19,0,0,0,7.17,7.17h2.76a1,1,0,0,1,.88.6,5.75,5.75,0,0,0,5.3,3.56H736.6a.87.87,0,0,1,.86.86v8.56a2.39,2.39,0,0,0,2.39,2.39H742a2.39,2.39,0,0,0,2.39-2.39V575.47a.71.71,0,0,1,.71-.71h1a4.31,4.31,0,0,0,4.3-4.3V554.75A4.31,4.31,0,0,0,746,550.45Z"/><path class="cls-16" d="M742.19,591.77H740a3.19,3.19,0,0,1-3.18-3.19v-8.77a.14.14,0,0,0-.14-.14H718.2a6.61,6.61,0,0,1-6.11-4.11.23.23,0,0,0-.22-.16H709a8.09,8.09,0,0,1-8.08-8.08V555.71a8.09,8.09,0,0,1,8.08-8.08h12.51a.15.15,0,0,0,.15-.1,6.64,6.64,0,0,1,6.06-4h11a6.64,6.64,0,0,1,6.45,5.17h1.14a5.16,5.16,0,0,1,5.15,5.15V570a5.15,5.15,0,0,1-5.15,5.14h-1v13.47A3.19,3.19,0,0,1,742.19,591.77ZM709,549.1a6.62,6.62,0,0,0-6.61,6.61v11.61a6.63,6.63,0,0,0,6.61,6.62h2.83a1.7,1.7,0,0,1,1.58,1.06,5.13,5.13,0,0,0,4.75,3.2h18.51a1.62,1.62,0,0,1,1.61,1.61v8.77A1.72,1.72,0,0,0,740,590.3h2.16a1.72,1.72,0,0,0,1.71-1.72V575.09a1.46,1.46,0,0,1,1.46-1.45h1A3.68,3.68,0,0,0,750,570v-16.1a3.68,3.68,0,0,0-3.68-3.68h-1.27a1.3,1.3,0,0,1-1.28-1,5.16,5.16,0,0,0-5-4.14h-11a5.15,5.15,0,0,0-4.71,3.1,1.65,1.65,0,0,1-1.5,1Z"/><path class="cls-16" d="M746,564.6v-3.67a14.81,14.81,0,0,0,0-1.49,5.15,5.15,0,0,0-5.12-4.72.74.74,0,0,0,0,1.47,3.68,3.68,0,0,1,3.67,3.46c.06,1.16,0,2.34,0,3.5v1.45a.74.74,0,0,0,1.47,0Z"/><path class="cls-16" d="M709.61,548.87c0,.66,0,1.33,0,2a5.64,5.64,0,0,0,5.11,5.31,18.73,18.73,0,0,0,2,0h2.2a.74.74,0,0,0,0-1.47h-3.65a4.24,4.24,0,0,1-2.66-1,4,4,0,0,1-1-1.21,4.52,4.52,0,0,1-.49-1.45,18.61,18.61,0,0,1,0-2.24.74.74,0,0,0-1.47,0Z"/><path class="cls-16" d="M734.83,569a19.28,19.28,0,0,0-2.28,0,5.69,5.69,0,0,0-3.66,1.91,5.76,5.76,0,0,0-1.38,3.7v4.3a.74.74,0,0,0,1.47,0v-4.11a4.18,4.18,0,0,1,1.82-3.64,4,4,0,0,1,1.62-.66,4.92,4.92,0,0,1,.75-.07h1.66a.74.74,0,0,0,0-1.47Z"/><circle class="cls-4" cx="583.09" cy="589.27" r="40.63"/><path class="cls-27" d="M602.71,574.57h-1.27a.56.56,0,0,1-.55-.44,5.84,5.84,0,0,0-5.71-4.69h-10.9a5.85,5.85,0,0,0-5.34,3.51.89.89,0,0,1-.81.53h-12.4a7.31,7.31,0,0,0-7.28,7.28v11.51a7.31,7.31,0,0,0,7.28,7.28h2.81a.94.94,0,0,1,.88.6,5.85,5.85,0,0,0,5.39,3.62h18.34a.87.87,0,0,1,.87.87v8.7a2.43,2.43,0,0,0,2.42,2.42h2.14a2.44,2.44,0,0,0,2.43-2.42V600a.71.71,0,0,1,.71-.71h1a4.38,4.38,0,0,0,4.36-4.37v-16A4.37,4.37,0,0,0,602.71,574.57Z"/><path class="cls-16" d="M602.05,589.58v-3.72a13.37,13.37,0,0,0,0-1.55,4.81,4.81,0,0,0-4.76-4.22.42.42,0,0,0,0,.84,4,4,0,0,1,4,3.82c0,1.13,0,2.27,0,3.4v1.43a.42.42,0,0,0,.84,0Z"/><path class="cls-16" d="M566.6,574c0,.67,0,1.36,0,2a5.28,5.28,0,0,0,4.67,4.88,17.2,17.2,0,0,0,2,0h2.19a.42.42,0,0,0,0-.84h-3.59a4.49,4.49,0,0,1-4.44-3.9,18.11,18.11,0,0,1,0-2.21.43.43,0,0,0-.85,0Z"/><path class="cls-16" d="M591.29,594.22a19.62,19.62,0,0,0-2.3,0,5.32,5.32,0,0,0-3.34,1.77,5.4,5.4,0,0,0-1.31,3.47v4.27a.42.42,0,0,0,.84,0v-4a4.53,4.53,0,0,1,3.62-4.59,12.94,12.94,0,0,1,2.49-.08.42.42,0,0,0,0-.84Z"/><circle class="cls-4" cx="1038.1" cy="567.3" r="48.31"/><path class="cls-17" d="M1061.07,582.5a8.62,8.62,0,0,0,1.15-10.83,1.84,1.84,0,0,1-.31-1V561a11.59,11.59,0,0,0-11.56-11.56h-7.77a2.14,2.14,0,0,1-1.44-.55,8.61,8.61,0,0,0-5.81-2.25h-1.25a8.61,8.61,0,0,0-6.12,2.55l-.24.25a4.12,4.12,0,0,0-.28.31,1.69,1.69,0,0,1-1.31.61h-1.35a8.7,8.7,0,0,0-8.48,6.86,2.27,2.27,0,0,1-1.26,1.54,11.74,11.74,0,0,0-5.76,6.38,11.53,11.53,0,0,0-.72,4v2.35a11.6,11.6,0,0,0,11.57,11.56h4.54a3.93,3.93,0,0,1,2.67,1.07,8.63,8.63,0,0,0,5.91,2.34h1.25a8.61,8.61,0,0,0,5.39-1.89,1.17,1.17,0,0,1,1.44,0,2,2,0,0,0,2.66,0,1.21,1.21,0,0,1,1.74.16l7.7,10.33a.8.8,0,0,0,1.11.17l2-1.43a.67.67,0,0,0,.27-.72l-1.62-7a.85.85,0,0,1,.74-1A8.64,8.64,0,0,0,1061.07,582.5Z"/><path class="cls-16" d="M1054.08,595.76a1.39,1.39,0,0,1-1.11-.55l-7.71-10.33a.58.58,0,0,0-.41-.22.6.6,0,0,0-.48.15,2.52,2.52,0,0,1-3.38,0,.61.61,0,0,0-.74,0,9.12,9.12,0,0,1-5.75,2h-1.25a9.2,9.2,0,0,1-6.31-2.49,3.29,3.29,0,0,0-2.27-.91h-4.54A12.15,12.15,0,0,1,1008,571.31V569a12,12,0,0,1,.75-4.19,12.31,12.31,0,0,1,6-6.7,1.74,1.74,0,0,0,1-1.15,9.29,9.29,0,0,1,9-7.32h1.36a1.09,1.09,0,0,0,.86-.4l.3-.33.25-.27a9.22,9.22,0,0,1,6.53-2.72h1.25a9.22,9.22,0,0,1,6.2,2.4,1.57,1.57,0,0,0,1,.41h7.77a12.15,12.15,0,0,1,12.14,12.14v9.67a1.25,1.25,0,0,0,.21.67,9.19,9.19,0,0,1-1.22,11.56h0a9.26,9.26,0,0,1-5.49,2.66.28.28,0,0,0-.21.12.27.27,0,0,0,0,.21l1.63,7a1.28,1.28,0,0,1-.5,1.32l-2,1.42A1.32,1.32,0,0,1,1054.08,595.76Zm-9.29-12.26h.17a1.72,1.72,0,0,1,1.22.67l7.72,10.34a.23.23,0,0,0,.31.05l2-1.43a.12.12,0,0,0,0-.12l-1.63-7a1.44,1.44,0,0,1,1.25-1.74,8.08,8.08,0,0,0,4.8-2.33h0a8,8,0,0,0,1.07-10.11,2.44,2.44,0,0,1-.4-1.3v-9.67a11,11,0,0,0-11-11h-7.77a2.73,2.73,0,0,1-1.83-.7,8.06,8.06,0,0,0-5.42-2.1h-1.25a8,8,0,0,0-5.71,2.38l-.23.24a3.47,3.47,0,0,0-.25.29,2.31,2.31,0,0,1-1.76.81h-1.35a8.14,8.14,0,0,0-7.91,6.4,2.85,2.85,0,0,1-1.57,1.94,11.21,11.21,0,0,0-5.48,6.07,10.94,10.94,0,0,0-.68,3.79v2.36a11,11,0,0,0,11,11h4.54a4.46,4.46,0,0,1,3.06,1.22,8.05,8.05,0,0,0,5.52,2.19h1.25a8,8,0,0,0,5-1.77,1.74,1.74,0,0,1,2.14,0,1.4,1.4,0,0,0,1.94.05A1.78,1.78,0,0,1,1044.79,583.5Z"/><path class="cls-16" d="M1040.2,584.82c.46-.88.91-1.78,1.39-2.65a5.23,5.23,0,0,1,3.08-2.63,13.79,13.79,0,0,1,4.1-.42H1054a.58.58,0,0,0,0-1.16h-5.15a16,16,0,0,0-4.2.39,6.3,6.3,0,0,0-3.6,2.55,31.59,31.59,0,0,0-1.81,3.34c-.35.66.65,1.24,1,.58Z"/><path class="cls-16" d="M1026.06,583c0-2.39,0-4.79,0-7.18a6,6,0,0,0-.54-2.37,5.79,5.79,0,0,0-1.51-2.06,8.3,8.3,0,0,0-3.22-1.51,11.27,11.27,0,0,1-3.07-1.25l-.11-.08,0,0c-.06-.06-.13-.11-.18-.17l-.16-.17c-.07-.08,0,0,0,0a1,1,0,0,0-.08-.11c-.08-.13-.15-.26-.22-.39l0-.1a1.86,1.86,0,0,1-.1-.25c-.25-.69-1.37-.39-1.11.31a3.88,3.88,0,0,0,.92,1.55,6.28,6.28,0,0,0,2.14,1.2c.57.22,1.15.41,1.73.58a10.21,10.21,0,0,1,1.79.61,4.79,4.79,0,0,1,1.91,1.77,5.08,5.08,0,0,1,.65,1.73c0,.06,0,.12,0,.18s0,.2,0,.08a1.4,1.4,0,0,0,0,.18v.17c0,1.15,0,2.3,0,3.46V583a.58.58,0,0,0,1.16,0Z"/><path class="cls-16" d="M1025.63,573.78a8,8,0,0,1,0-1c0-.32,0-.64.08-.95,0-.11,0,.13,0-.05s0-.08,0-.11a2,2,0,0,1,0-.26,5.05,5.05,0,0,1,.12-.56,3.1,3.1,0,0,1,1-1.73l.13-.09.22-.12.16,0a1.46,1.46,0,0,1,.42,0h3.6a.58.58,0,0,0,0-1.15h-3.49a2.58,2.58,0,0,0-1.51.37c-1.43.9-1.79,2.83-1.9,4.39a11.63,11.63,0,0,0,0,1.32c0,.74,1.21.74,1.16,0Z"/><path class="cls-16" d="M1041.22,548.64l-4.6,3a5,5,0,0,0-1.37,1.37,4.58,4.58,0,0,0-.75,1.91,6.12,6.12,0,0,0,.41,2.9c.31.88.71,1.73,1,2.58,0,.14.1.28.14.42s0,.12.05.18,0,.09,0,0,0,.06,0,.06v.15l0,0c-.05.13,0,0,0,.06l-.11.16a.58.58,0,1,0,1,.58c.73-1-.06-2.25-.46-3.21-.63-1.48-1.39-3.2-.6-4.76a3.76,3.76,0,0,1,.88-1.17l.18-.16c.13-.11-.07,0,0,0l.08-.06c.76-.51,1.55-1,2.32-1.5l2.36-1.52c.62-.41,0-1.41-.58-1Z"/><path class="cls-16" d="M1035.5,552.58c-.21.15-.43.29-.65.42a6.27,6.27,0,0,1-1.43.65l-.44.11a1.16,1.16,0,0,1-.34,0h-.3l-.19,0-.11,0c-.09,0,.11.06,0,0l-.17-.09c-.09-.06,0,0-.09-.07a3.54,3.54,0,0,1-.35-.51l-.51-.8-.25-.39c-.41-.62-1.41,0-1,.59l.22.34.52.8a3,3,0,0,0,.9,1.05c1.19.75,2.76.15,3.88-.45a6.88,6.88,0,0,0,.93-.58.6.6,0,0,0,.21-.79.58.58,0,0,0-.79-.21Z"/><path class="cls-16" d="M1054.9,560.37a8.64,8.64,0,0,0,.78,4,11.9,11.9,0,0,0,2.13,3c.79.92,1.61,1.81,2.44,2.69.43.44.85.89,1.29,1.32a.58.58,0,0,0,.82-.81c-1.09-1.09-2.15-2.23-3.18-3.38a15.25,15.25,0,0,1-2.24-2.88,8.13,8.13,0,0,1-.83-2.67,6.48,6.48,0,0,1,0-1.32c.06-.74-1.09-.74-1.16,0Z"/><path class="cls-16" d="M1049.75,567.24c2.27,0,4.55.11,6.81.36a8.75,8.75,0,0,1,1.69.31c.71.23,1-.88.3-1.11a15.59,15.59,0,0,0-3.79-.51c-1.37-.1-2.75-.15-4.12-.19l-.89,0a.58.58,0,0,0,0,1.16Z"/><circle class="cls-21" cx="1243.49" cy="566.91" r="52.03"/><path class="cls-17" d="M1270.39,579.5a9.28,9.28,0,0,0,1.24-11.67,1.92,1.92,0,0,1-.33-1.06V556.35a12.49,12.49,0,0,0-12.46-12.45h-8.36a2.28,2.28,0,0,1-1.55-.6,9.32,9.32,0,0,0-6.26-2.42h-1.35a9.3,9.3,0,0,0-6.59,2.74l-.26.28-.3.33a1.78,1.78,0,0,1-1.41.65h-1.46a9.4,9.4,0,0,0-9.13,7.4,2.5,2.5,0,0,1-1.35,1.66,12.54,12.54,0,0,0-6.21,6.87,12.32,12.32,0,0,0-.77,4.3v2.54a12.48,12.48,0,0,0,12.45,12.45h4.89a4.23,4.23,0,0,1,2.88,1.15,9.3,9.3,0,0,0,6.36,2.52h1.35a9.27,9.27,0,0,0,5.81-2,1.28,1.28,0,0,1,1.55,0,2.1,2.1,0,0,0,2.86,0,1.29,1.29,0,0,1,1.87.17l8.3,11.12a.87.87,0,0,0,1.2.19l2.14-1.54a.74.74,0,0,0,.29-.78l-1.75-7.58a.93.93,0,0,1,.81-1.12A9.33,9.33,0,0,0,1270.39,579.5Z"/><path class="cls-28" d="M1262.86,593.78a1.51,1.51,0,0,1-1.2-.6l-8.29-11.12a.61.61,0,0,0-.45-.24.69.69,0,0,0-.52.16,2.71,2.71,0,0,1-3.64,0,.63.63,0,0,0-.79,0,9.88,9.88,0,0,1-6.2,2.17h-1.35a9.9,9.9,0,0,1-6.79-2.68,3.53,3.53,0,0,0-2.45-1h-4.89a13.09,13.09,0,0,1-13.08-13.07V564.9a13,13,0,0,1,.82-4.52,13.26,13.26,0,0,1,6.51-7.21,1.85,1.85,0,0,0,1-1.23,10,10,0,0,1,9.74-7.89h1.47a1.19,1.19,0,0,0,.93-.43l.31-.36.28-.29a9.89,9.89,0,0,1,7-2.93h1.35a9.88,9.88,0,0,1,6.67,2.59,1.7,1.7,0,0,0,1.14.43h8.36a13.1,13.1,0,0,1,13.08,13.08v10.42a1.38,1.38,0,0,0,.23.72,9.91,9.91,0,0,1-1.32,12.45h0a10,10,0,0,1-5.91,2.86.35.35,0,0,0-.23.13.34.34,0,0,0,0,.24l1.75,7.58a1.38,1.38,0,0,1-.54,1.43l-2.14,1.53A1.45,1.45,0,0,1,1262.86,593.78Zm-10-13.21h.18a1.93,1.93,0,0,1,1.33.72l8.3,11.14a.25.25,0,0,0,.34,0l2.14-1.54a.13.13,0,0,0,0-.13l-1.75-7.58a1.56,1.56,0,0,1,.24-1.24,1.53,1.53,0,0,1,1.1-.64,8.7,8.7,0,0,0,5.17-2.51h0a8.66,8.66,0,0,0,1.16-10.89,2.54,2.54,0,0,1-.44-1.4V556.14a11.85,11.85,0,0,0-11.83-11.83h-8.36a2.93,2.93,0,0,1-2-.76,8.67,8.67,0,0,0-5.84-2.26h-1.35a8.66,8.66,0,0,0-6.15,2.56l-.25.26-.27.31a2.47,2.47,0,0,1-1.9.87h-1.45a8.61,8.61,0,0,0-6.15,2.57,8.7,8.7,0,0,0-2.37,4.34,3.05,3.05,0,0,1-1.69,2.08,12.08,12.08,0,0,0-5.9,6.54,11.86,11.86,0,0,0-.73,4.08v2.54a11.85,11.85,0,0,0,11.83,11.83h4.89a4.81,4.81,0,0,1,3.3,1.32,8.69,8.69,0,0,0,5.94,2.35h1.35a8.58,8.58,0,0,0,5.42-1.91,1.89,1.89,0,0,1,2.31,0,1.49,1.49,0,0,0,2.08,0A2,2,0,0,1,1252.85,580.57Z"/><path class="cls-28" d="M1247.91,582c.5-1,1-1.92,1.5-2.86a5.65,5.65,0,0,1,3.32-2.84,14.84,14.84,0,0,1,4.41-.45h5.59a.63.63,0,0,0,0-1.25h-5.55a17.13,17.13,0,0,0-4.52.43,6.71,6.71,0,0,0-3.87,2.74,33.77,33.77,0,0,0-2,3.6c-.37.71.7,1.34,1.08.63Z"/><path class="cls-28" d="M1232.68,580c0-2.58,0-5.16,0-7.73a6.64,6.64,0,0,0-.58-2.56,6.12,6.12,0,0,0-1.62-2.21,9,9,0,0,0-3.48-1.64,11.57,11.57,0,0,1-3.3-1.34l-.12-.09c-.06,0,.05.05,0,0l-.2-.18a1.54,1.54,0,0,1-.17-.19c-.08-.08,0,0,0,0a.83.83,0,0,1-.08-.12,4.49,4.49,0,0,1-.24-.42l0-.1c0-.09-.07-.18-.1-.27-.28-.75-1.48-.43-1.2.33a4.15,4.15,0,0,0,1,1.67,6.69,6.69,0,0,0,2.3,1.29c.61.24,1.23.44,1.86.62a11,11,0,0,1,1.93.67,5,5,0,0,1,2.05,1.89,5.47,5.47,0,0,1,.71,1.88l0,.19s0,.21,0,.09,0,.13,0,.19a1,1,0,0,0,0,.17c0,1.24,0,2.49,0,3.73V580a.62.62,0,0,0,1.24,0Z"/><path class="cls-28" d="M1232.22,570.1a9.2,9.2,0,0,1,0-1.05c0-.35,0-.69.08-1,0-.12,0,.15,0,0a.5.5,0,0,1,0-.12c0-.1,0-.19,0-.28s.09-.4.14-.6a3.38,3.38,0,0,1,1-1.87l.14-.09a1.71,1.71,0,0,1,.23-.13c-.08,0,.13,0,.17-.06a1.71,1.71,0,0,1,.45,0h3.88a.62.62,0,0,0,0-1.24h-3.75a2.86,2.86,0,0,0-1.64.4c-1.54,1-1.92,3-2,4.73a11.22,11.22,0,0,0,0,1.42c0,.8,1.3.8,1.25,0Z"/><path class="cls-28" d="M1249,543l-5,3.2a5.48,5.48,0,0,0-1.48,1.48,4.92,4.92,0,0,0-.81,2.06,6.57,6.57,0,0,0,.45,3.12c.33.94.76,1.87,1.12,2.78a3.57,3.57,0,0,1,.16.46c0,.06,0,.12,0,.19s0,.1,0,0,0,.06,0,.06v.17s0-.08,0,0,0,0,0,.07a1,1,0,0,1-.11.17.63.63,0,1,0,1.08.63c.78-1.07-.07-2.43-.5-3.46-.67-1.59-1.49-3.44-.65-5.13a4,4,0,0,1,1-1.25l.2-.18c.14-.12-.08,0,0,0l.1-.06c.82-.55,1.66-1.08,2.49-1.62l2.55-1.64c.67-.44,0-1.51-.63-1.08Z"/><path class="cls-28" d="M1242.84,547.27c-.22.16-.46.31-.7.45a6.54,6.54,0,0,1-1.53.7,4.21,4.21,0,0,1-.48.12,1.35,1.35,0,0,1-.37,0h-.21s-.21,0-.11,0l-.2-.05-.12,0c-.1,0,.12.07,0,0l-.19-.11c-.09-.06,0,0-.09-.07a4.14,4.14,0,0,1-.38-.55l-.55-.86-.27-.42c-.43-.67-1.51,0-1.07.63l.23.37.56.87a3.27,3.27,0,0,0,1,1.12c1.29.81,3,.17,4.18-.48a8,8,0,0,0,1-.63.62.62,0,1,0-.63-1.07Z"/><path class="cls-28" d="M1263.75,555.66a9.32,9.32,0,0,0,.83,4.32,13.11,13.11,0,0,0,2.3,3.28c.85,1,1.73,1.94,2.63,2.89.46.48.92,1,1.39,1.43a.62.62,0,0,0,.88-.88c-1.18-1.18-2.31-2.4-3.42-3.64A15.79,15.79,0,0,1,1266,560a8.44,8.44,0,0,1-.9-2.87,6.73,6.73,0,0,1,0-1.42c.06-.8-1.18-.8-1.25,0Z"/><path class="cls-28" d="M1258.2,563.05c2.44,0,4.9.12,7.33.4a9.19,9.19,0,0,1,1.82.33c.76.25,1.09-.95.33-1.2a17.59,17.59,0,0,0-4.09-.55c-1.47-.1-3-.16-4.44-.2l-1,0a.62.62,0,0,0,0,1.24Z"/><circle class="cls-4" cx="426.31" cy="340.42" r="31.39"/><path class="cls-29" d="M442.88,349.74a.79.79,0,0,0-.64-.92,5.52,5.52,0,0,1-.36-10.88,1.35,1.35,0,0,0,1.11-1.31v-4.29a7.82,7.82,0,0,0-7.79-7.79H422.34a7.81,7.81,0,0,0-7.75,7,1.07,1.07,0,0,1-.76,1c-1.46.44-4.63,1.81-4.63,5.63a5.78,5.78,0,0,0,4.45,5.62,1.16,1.16,0,0,1,.9,1.13v3.62a7.81,7.81,0,0,0,7.79,7.78H435.2A7.81,7.81,0,0,0,442.88,349.74Z"/><circle class="cls-4" cx="611.84" cy="356.14" r="37.03"/><rect class="cls-17" x="593.98" y="338.74" width="32.67" height="37.55" rx="6.84"/><path class="cls-15" d="M621.82,376.75h-23c-3,0-5.38-2.06-5.38-4.58V342.86c0-2.52,2.41-4.58,5.38-4.58h23c3,0,5.37,2.06,5.37,4.58v29.31C627.19,374.69,624.78,376.75,621.82,376.75Zm-23-37.55c-2.37,0-4.3,1.64-4.3,3.66v29.31c0,2,1.93,3.66,4.3,3.66h23c2.37,0,4.3-1.64,4.3-3.66V342.86c0-2-1.93-3.66-4.3-3.66Z"/><rect class="cls-17" x="597.2" y="340.76" width="32.67" height="37.55" rx="6.84"/><path class="cls-15" d="M625,378.77H602c-3,0-5.37-2.06-5.37-4.58v-29.3c0-2.53,2.41-4.59,5.37-4.59h23c3,0,5.37,2.06,5.37,4.59v29.3C630.41,376.71,628,378.77,625,378.77Zm-23-37.55c-2.37,0-4.29,1.64-4.29,3.67v29.3c0,2,1.92,3.66,4.29,3.66h23c2.37,0,4.29-1.64,4.29-3.66v-29.3c0-2-1.92-3.67-4.29-3.67Z"/><path class="cls-16" d="M615.36,359.69H615a1.12,1.12,0,0,1-1.12-.76l-.79-2h-7l-.79,2a1.11,1.11,0,0,1-1.12.76h-.35c-.72,0-1-.47-.75-1.12l5.06-12.13a1.1,1.1,0,0,1,1.12-.75h.62a1.1,1.1,0,0,1,1.12.75l5.08,12.13C616.35,359.22,616.06,359.69,615.36,359.69Zm-3-4.55-2.78-7-2.77,7Z"/><rect class="cls-8" x="603.41" y="366.86" width="18.01" height="1.52" rx="0.76"/><rect class="cls-8" x="604.21" y="374.48" width="10.71" height="1.52" rx="0.76"/><circle class="cls-4" cx="514.38" cy="386.7" r="38.54"/><rect class="cls-30" x="492.81" y="365.26" width="41.07" height="41.07" rx="8.15"/><rect class="cls-30" x="498.08" y="369.87" width="41.07" height="41.07" rx="7.33"/><rect class="cls-8" x="502.54" y="378.63" width="16.24" height="2.31" rx="1.15"/><rect class="cls-8" x="511.81" y="389.26" width="16.24" height="2.31" rx="1.15"/><rect class="cls-8" x="519.93" y="401.47" width="16.24" height="2.31" rx="1.15"/><circle class="cls-4" cx="727.7" cy="356.29" r="44.03"/><rect class="cls-31" x="704.9" y="330.25" width="45.6" height="45.6" rx="9.04"/><rect class="cls-31" x="710.75" y="335.37" width="45.6" height="45.6" rx="8.14"/><path class="cls-31" d="M721.71,349.4l-4,7a2.22,2.22,0,0,0,1.92,3.33h8.09a2.22,2.22,0,0,0,1.92-3.33l-4-7A2.22,2.22,0,0,0,721.71,349.4Z"/><path class="cls-31" d="M729.84,344.92l-8.11,14a2.22,2.22,0,0,0,1.93,3.33h16.2a2.22,2.22,0,0,0,1.93-3.33l-8.11-14A2.22,2.22,0,0,0,729.84,344.92Z"/><rect class="cls-8" x="720.88" y="368.3" width="18.04" height="2.56" rx="1.28"/><circle class="cls-4" cx="1038.1" cy="367.4" r="48.69"/><rect class="cls-17" x="1014.72" y="342.65" width="44.51" height="44.51" rx="10"/><path class="cls-15" d="M1050.4,387.59h-26.85a9.27,9.27,0,0,1-9.27-9.26V351.47a9.27,9.27,0,0,1,9.27-9.26h26.85a9.27,9.27,0,0,1,9.27,9.26v26.86A9.27,9.27,0,0,1,1050.4,387.59Zm-26.85-44.5a8.39,8.39,0,0,0-8.39,8.38v26.86a8.39,8.39,0,0,0,8.39,8.38h26.85a8.39,8.39,0,0,0,8.38-8.38V351.47a8.39,8.39,0,0,0-8.38-8.38Z"/><rect class="cls-17" x="1020.43" y="347.64" width="44.51" height="44.51" rx="9"/><path class="cls-15" d="M1057,392.59h-28.62a8.39,8.39,0,0,1-8.39-8.39V355.58a8.39,8.39,0,0,1,8.39-8.38H1057a8.39,8.39,0,0,1,8.38,8.38V384.2A8.39,8.39,0,0,1,1057,392.59Zm-28.62-44.51a7.51,7.51,0,0,0-7.5,7.5V384.2a7.5,7.5,0,0,0,7.5,7.5H1057a7.51,7.51,0,0,0,7.5-7.5V355.58a7.52,7.52,0,0,0-7.5-7.5Z"/><path class="cls-17" d="M1030.88,361.77l-3.44,6a2.45,2.45,0,0,0,2.12,3.68h6.89a2.46,2.46,0,0,0,2.13-3.68l-3.45-6A2.45,2.45,0,0,0,1030.88,361.77Z"/><path class="cls-15" d="M1037,371.75h-7.89a2.5,2.5,0,0,1-2.16-3.75l3.94-6.83a2.5,2.5,0,0,1,4.33,0l3.94,6.83a2.5,2.5,0,0,1-2.16,3.75ZM1033,360.58a1.82,1.82,0,0,0-1.59.92l-4,6.83a1.84,1.84,0,0,0,1.59,2.76H1037a1.84,1.84,0,0,0,1.59-2.76l-3.94-6.83A1.84,1.84,0,0,0,1033,360.58Z"/><path class="cls-17" d="M1038.81,357.4l-7.41,12.83a2.46,2.46,0,0,0,2.13,3.68h14.82a2.45,2.45,0,0,0,2.12-3.68l-7.41-12.83A2.45,2.45,0,0,0,1038.81,357.4Z"/><path class="cls-15" d="M1048.85,374.24H1033a2.49,2.49,0,0,1-2.16-3.74l7.91-13.7a2.46,2.46,0,0,1,2.16-1.25h0a2.47,2.47,0,0,1,2.16,1.25l7.91,13.7a2.49,2.49,0,0,1-2.16,3.74Zm-7.91-18h0a1.82,1.82,0,0,0-1.59.92l-7.91,13.7a1.83,1.83,0,0,0,0,1.84,1.81,1.81,0,0,0,1.59.91h15.82a1.83,1.83,0,0,0,1.59-2.75l-7.91-13.7A1.84,1.84,0,0,0,1040.94,356.21Z"/><circle class="cls-15" cx="1053.79" cy="357.99" r="2.26"/><rect class="cls-8" x="1031.73" y="380.29" width="17.6" height="1.32" rx="0.58"/><circle class="cls-21" cx="1244.89" cy="367.14" r="50.63"/><rect class="cls-17" x="1221.44" y="343.68" width="46.91" height="46.91" rx="9.36"/><path class="cls-22" d="M1260,391.05h-30.16a8.85,8.85,0,0,1-8.84-8.83V352.05a8.85,8.85,0,0,1,8.84-8.83H1260a8.85,8.85,0,0,1,8.84,8.83v30.17A8.85,8.85,0,0,1,1260,391.05Zm-30.16-46.9a7.92,7.92,0,0,0-7.91,7.9v30.17a7.91,7.91,0,0,0,7.91,7.9H1260a7.91,7.91,0,0,0,7.91-7.9V352.05a7.92,7.92,0,0,0-7.91-7.9Z"/><path class="cls-17" d="M1232.48,358.52l-3.69,6.39a2.55,2.55,0,0,0,2.21,3.83h7.38a2.55,2.55,0,0,0,2.21-3.83l-3.69-6.39A2.55,2.55,0,0,0,1232.48,358.52Z"/><path class="cls-15" d="M1238.84,369.09h-8.31a2.64,2.64,0,0,1-2.28-3.95l4.16-7.2a2.64,2.64,0,0,1,4.56,0l4.15,7.2a2.64,2.64,0,0,1-2.28,3.95Zm-4.15-11.76a1.93,1.93,0,0,0-1.68,1l-4.15,7.2a1.93,1.93,0,0,0,1.67,2.9h8.31a1.93,1.93,0,0,0,1.68-2.9l-4.16-7.2A1.91,1.91,0,0,0,1234.69,357.33Z"/><path class="cls-17" d="M1240.84,353.92,1233,367.55a2.54,2.54,0,0,0,2.21,3.82h15.74a2.55,2.55,0,0,0,2.21-3.82l-7.87-13.63A2.55,2.55,0,0,0,1240.84,353.92Z"/><path class="cls-15" d="M1251.38,371.72h-16.67a2.63,2.63,0,0,1-2.28-3.94l8.34-14.44a2.58,2.58,0,0,1,2.28-1.32h0a2.58,2.58,0,0,1,2.27,1.32l8.34,14.44a2.63,2.63,0,0,1-2.28,3.94Zm-8.33-19h0a1.92,1.92,0,0,0-1.68,1L1233,368.12a1.94,1.94,0,0,0,1.67,2.91h16.67a1.94,1.94,0,0,0,1.68-2.91l-8.34-14.43A1.91,1.91,0,0,0,1243.05,352.72Z"/><circle class="cls-15" cx="1256.59" cy="354.6" r="2.38"/><rect class="cls-8" x="1233.34" y="378.09" width="18.55" height="1.4" rx="0.61"/><circle class="cls-4" cx="449.91" cy="201.77" r="35.41"/><path class="cls-32" d="M472.37,200.5H463a3.16,3.16,0,0,0-3.15,3.14h-3.31a4.49,4.49,0,0,0,0,9h3.3c0,.07,0,.14,0,.21v4.66a3.16,3.16,0,0,0,3.15,3.16h9.4a3.16,3.16,0,0,0,3.15-3.16V203.66A3.16,3.16,0,0,0,472.37,200.5Z"/><path class="cls-32" d="M445.85,210.22a4.86,4.86,0,0,1-4.86-5,5,5,0,0,1,5.06-4.71h3.39a.47.47,0,0,0,.47-.47v-9.25a5.48,5.48,0,0,0-5.46-5.46H431.86a5.48,5.48,0,0,0-5.46,5.46v19.44a5.47,5.47,0,0,0,5.46,5.46h12.59a5.47,5.47,0,0,0,5.46-5.46h-4.06Z"/><circle class="cls-4" cx="727.7" cy="193.15" r="40.14"/><path class="cls-33" d="M743.66,174.64H712.87c-5.14,0-9.34,3.91-9.34,8.68v18.49c0,4.78,4.2,8.68,9.34,8.68H713a2.43,2.43,0,0,1,2.15,1.22l4,7.27a1.7,1.7,0,0,0,2.92,0l4-7.26a2.44,2.44,0,0,1,2.15-1.23h15.49c5.14,0,9.34-3.9,9.34-8.68V183.32C753,178.55,748.8,174.64,743.66,174.64Z"/><rect class="cls-8" x="712.02" y="187.07" width="27.87" height="2.35" rx="1.18"/><circle class="cls-4" cx="559.01" cy="210.58" r="41.8"/><path class="cls-17" d="M545.05,191.83c.26,0,.52,0,.79,0h17.71a7.59,7.59,0,0,1,7.59,7.59v5.89a1.4,1.4,0,0,1-1.43,1.39c-.49,0-1,0-1.48,0-6.74,0-12.25,1.44-12.75,3.26,0,0,0,.25,0,.27.18,6,5.83,10.74,12.8,10.74a15.41,15.41,0,0,0,1.94-.13.85.85,0,0,1,1,.84h0a7.59,7.59,0,0,1-7.59,7.59H545.84a7.59,7.59,0,0,1-7.59-7.59V199.38A7.59,7.59,0,0,1,545.05,191.83Z"/><g class="cls-34"><rect class="cls-1" x="538.25" y="191.79" width="32.88" height="37.4" rx="7.58"/></g><path class="cls-35" d="M545.05,191.83c.26,0,.52,0,.79,0h17.71a7.59,7.59,0,0,1,7.59,7.59v5.89a1.4,1.4,0,0,1-1.43,1.39c-.49,0-1,0-1.48,0-6.74,0-12.25,1.44-12.75,3.26,0,0,0,.25,0,.27.18,6,5.83,10.74,12.8,10.74a15.41,15.41,0,0,0,1.94-.13.85.85,0,0,1,1,.84h0a7.59,7.59,0,0,1-7.59,7.59H545.84a7.59,7.59,0,0,1-7.59-7.59V199.38A7.59,7.59,0,0,1,545.05,191.83Z"/><circle class="cls-16" cx="562.27" cy="200.34" r="1.76"/><path class="cls-36" d="M581.66,200.78a16.74,16.74,0,0,1,0,23.34c-.39.41.23,1,.63.63A17.81,17.81,0,0,0,585.65,205a18.17,18.17,0,0,0-3.36-4.87c-.4-.41-1,.22-.63.63Z"/><path class="cls-36" d="M578.38,204.13a12.18,12.18,0,0,1,0,16.64c-.39.41.23,1,.62.63a12.93,12.93,0,0,0,0-17.9c-.39-.41-1,.22-.62.63Z"/><path class="cls-36" d="M575.25,207.32a7.64,7.64,0,0,1,0,10.25c-.38.42.25,1.05.63.63a8.57,8.57,0,0,0,0-11.5c-.38-.43-1,.2-.63.62Z"/><circle class="cls-4" cx="637.39" cy="165.53" r="33.47"/><path class="cls-37" d="M635,150.81H621.41a4,4,0,0,0-4.11,3.82v8.14a4,4,0,0,0,4.11,3.82h.05a1.08,1.08,0,0,1,.95.54l1.75,3.2a.75.75,0,0,0,1.28,0l1.76-3.2a1.06,1.06,0,0,1,.94-.54H635a4,4,0,0,0,4.11-3.82v-8.14A4,4,0,0,0,635,150.81Z"/><path class="cls-37" d="M652.43,157.83H635.72a4.91,4.91,0,0,0-5.06,4.71v10a4.91,4.91,0,0,0,5.06,4.71h.07a1.34,1.34,0,0,1,1.17.66l2.16,3.95a.92.92,0,0,0,1.58,0l2.16-3.94a1.33,1.33,0,0,1,1.17-.67h8.4a4.91,4.91,0,0,0,5.07-4.71v-10A4.91,4.91,0,0,0,652.43,157.83Z"/><circle class="cls-4" cx="1038.1" cy="189.42" r="46.63"/><path class="cls-38" d="M1054,171.85h-30.4c-8.24,0-9.22,3.86-9.22,8.57v18.26c0,4.71.7,8.57,9.22,8.57h.12a2.41,2.41,0,0,1,2.12,1.21l3.93,7.17a1.67,1.67,0,0,0,2.88,0l3.93-7.17a2.42,2.42,0,0,1,2.13-1.21H1054c9.22,0,9.22-3.86,9.22-8.57V180.42C1063.18,175.71,1063.18,171.3,1054,171.85Z"/><rect class="cls-8" x="1024.44" y="187.11" width="27.51" height="1.23" rx="0.62"/><rect class="cls-8" x="1024.44" y="193.73" width="16.36" height="1.23" rx="0.62"/><circle class="cls-21" cx="1243.78" cy="189.42" r="51.74"/><path class="cls-39" d="M1261.65,167.71h-33.74c-9.14,0-10.23,4.28-10.23,9.51v20.25c0,5.23.78,9.51,10.23,9.51h.14a2.67,2.67,0,0,1,2.35,1.34l4.36,8a1.86,1.86,0,0,0,3.2,0l4.36-7.95a2.67,2.67,0,0,1,2.36-1.35h17c10.23,0,10.23-4.28,10.23-9.51V177.22C1271.88,172,1271.88,167.09,1261.65,167.71Z"/><rect class="cls-8" x="1228.89" y="184.64" width="30.53" height="1.37" rx="0.68"/><rect class="cls-8" x="1228.89" y="191.98" width="18.15" height="1.37" rx="0.68"/></g></g></svg>