<svg width="1350" height="670" viewBox="0 0 1350 670" fill="none" xmlns="http://www.w3.org/2000/svg">
<rect width="1350" height="670" fill="#EBFAFF"/>
<path d="M132.804 307C142.332 307 148.104 301.106 148.104 291.333C148.104 281.591 142.332 275.727 132.896 275.727H121.718V307H132.804ZM128.33 301.335V281.392H132.544C138.408 281.392 141.508 284.385 141.508 291.333C141.508 298.311 138.408 301.335 132.529 301.335H128.33ZM163.569 307.458C169.372 307.458 173.281 304.633 174.197 300.281L168.18 299.884C167.524 301.671 165.844 302.602 163.676 302.602C160.423 302.602 158.362 300.449 158.362 296.952V296.937H174.334V295.151C174.334 287.18 169.509 283.24 163.309 283.24C156.407 283.24 151.933 288.142 151.933 295.38C151.933 302.816 156.346 307.458 163.569 307.458ZM158.362 292.906C158.499 290.234 160.53 288.096 163.416 288.096C166.241 288.096 168.196 290.112 168.211 292.906H158.362ZM198.094 290.234C197.514 285.912 194.032 283.24 188.108 283.24C182.107 283.24 178.152 286.019 178.167 290.539C178.152 294.051 180.366 296.326 184.947 297.243L189.009 298.052C191.055 298.464 191.986 299.212 192.017 300.388C191.986 301.778 190.475 302.77 188.199 302.77C185.878 302.77 184.336 301.778 183.939 299.869L177.541 300.205C178.152 304.694 181.969 307.458 188.184 307.458C194.261 307.458 198.613 304.358 198.629 299.732C198.613 296.342 196.399 294.311 191.849 293.379L187.604 292.524C185.42 292.051 184.611 291.303 184.626 290.173C184.611 288.768 186.199 287.852 188.215 287.852C190.475 287.852 191.818 289.088 192.139 290.6L198.094 290.234ZM202.725 307H209.23V283.545H202.725V307ZM205.993 280.522C207.932 280.522 209.52 279.041 209.52 277.224C209.52 275.422 207.932 273.941 205.993 273.941C204.069 273.941 202.48 275.422 202.48 277.224C202.48 279.041 204.069 280.522 205.993 280.522ZM225.007 316.284C231.711 316.284 236.475 313.23 236.475 307.229V283.545H230.016V287.485H229.772C228.901 285.576 226.992 283.24 223.068 283.24C217.922 283.24 213.57 287.241 213.57 295.227C213.57 303.03 217.8 306.664 223.083 306.664C226.824 306.664 228.916 304.786 229.772 302.847H230.046V307.137C230.046 310.359 227.985 311.612 225.16 311.612C222.289 311.612 220.839 310.359 220.304 308.939L214.288 309.749C215.067 313.444 218.686 316.284 225.007 316.284ZM225.145 301.778C221.953 301.778 220.213 299.243 220.213 295.196C220.213 291.211 221.923 288.417 225.145 288.417C228.306 288.417 230.077 291.089 230.077 295.196C230.077 299.335 228.275 301.778 225.145 301.778ZM248.157 293.44C248.172 290.417 249.974 288.646 252.6 288.646C255.211 288.646 256.784 290.356 256.769 293.227V307H263.274V292.066C263.274 286.599 260.067 283.24 255.181 283.24C251.699 283.24 249.18 284.95 248.126 287.684H247.851V283.545H241.652V307H248.157V293.44ZM285.041 307.443C288.507 307.443 290.752 305.931 291.897 303.748H292.08V307H298.249V291.18C298.249 285.592 293.516 283.24 288.293 283.24C282.674 283.24 278.979 285.928 278.078 290.203L284.094 290.692C284.537 289.134 285.927 287.989 288.263 287.989C290.477 287.989 291.744 289.104 291.744 291.028V291.119C291.744 292.631 290.141 292.83 286.064 293.227C281.422 293.654 277.253 295.212 277.253 300.449C277.253 305.091 280.567 307.443 285.041 307.443ZM286.904 302.953C284.903 302.953 283.468 302.022 283.468 300.235C283.468 298.403 284.98 297.502 287.27 297.181C288.69 296.983 291.011 296.647 291.79 296.128V298.617C291.79 301.075 289.759 302.953 286.904 302.953ZM313.248 307H319.753V292.921C319.753 290.325 321.402 288.6 323.571 288.6C325.708 288.6 327.144 290.066 327.144 292.371V307H333.45V292.677C333.45 290.249 334.84 288.6 337.207 288.6C339.283 288.6 340.841 289.898 340.841 292.509V307H347.331V291.226C347.331 286.141 344.307 283.24 339.94 283.24C336.504 283.24 333.832 284.996 332.87 287.684H332.626C331.877 284.966 329.48 283.24 326.258 283.24C323.097 283.24 320.7 284.92 319.723 287.684H319.448V283.545H313.248V307ZM363.066 307.458C370.182 307.458 374.61 302.587 374.61 295.364C374.61 288.096 370.182 283.24 363.066 283.24C355.95 283.24 351.522 288.096 351.522 295.364C351.522 302.587 355.95 307.458 363.066 307.458ZM363.097 302.419C359.814 302.419 358.134 299.411 358.134 295.319C358.134 291.226 359.814 288.203 363.097 288.203C366.319 288.203 367.998 291.226 367.998 295.319C367.998 299.411 366.319 302.419 363.097 302.419ZM378.962 307H385.376V303.244H385.666C386.567 305.198 388.536 307.382 392.323 307.382C397.668 307.382 401.836 303.152 401.836 295.303C401.836 287.241 397.485 283.24 392.339 283.24C388.414 283.24 386.536 285.576 385.666 287.485H385.467V275.727H378.962V307ZM385.33 295.273C385.33 291.089 387.101 288.417 390.262 288.417C393.484 288.417 395.194 291.211 395.194 295.273C395.194 299.365 393.453 302.205 390.262 302.205C387.132 302.205 385.33 299.457 385.33 295.273ZM406.177 307H412.682V283.545H406.177V307ZM409.445 280.522C411.384 280.522 412.972 279.041 412.972 277.224C412.972 275.422 411.384 273.941 409.445 273.941C407.521 273.941 405.933 275.422 405.933 277.224C405.933 279.041 407.521 280.522 409.445 280.522ZM424.398 275.727H417.893V307H424.398V275.727ZM440.297 307.458C446.1 307.458 450.009 304.633 450.925 300.281L444.909 299.884C444.252 301.671 442.573 302.602 440.404 302.602C437.152 302.602 435.09 300.449 435.09 296.952V296.937H451.063V295.151C451.063 287.18 446.237 283.24 440.038 283.24C433.136 283.24 428.662 288.142 428.662 295.38C428.662 302.816 433.075 307.458 440.297 307.458ZM435.09 292.906C435.228 290.234 437.259 288.096 440.145 288.096C442.97 288.096 444.924 290.112 444.94 292.906H435.09ZM471.948 307.443C475.414 307.443 477.659 305.931 478.804 303.748H478.988V307H485.157V291.18C485.157 285.592 480.423 283.24 475.201 283.24C469.581 283.24 465.886 285.928 464.985 290.203L471.001 290.692C471.444 289.134 472.834 287.989 475.17 287.989C477.384 287.989 478.652 289.104 478.652 291.028V291.119C478.652 292.631 477.048 292.83 472.971 293.227C468.329 293.654 464.161 295.212 464.161 300.449C464.161 305.091 467.474 307.443 471.948 307.443ZM473.811 302.953C471.811 302.953 470.375 302.022 470.375 300.235C470.375 298.403 471.887 297.502 474.178 297.181C475.598 296.983 477.919 296.647 478.697 296.128V298.617C478.697 301.075 476.667 302.953 473.811 302.953ZM490.203 315.795H496.708V303.244H496.907C497.808 305.198 499.778 307.382 503.564 307.382C508.909 307.382 513.078 303.152 513.078 295.303C513.078 287.241 508.726 283.24 503.58 283.24C499.655 283.24 497.777 285.576 496.907 287.485H496.617V283.545H490.203V315.795ZM496.571 295.273C496.571 291.089 498.342 288.417 501.503 288.417C504.725 288.417 506.435 291.211 506.435 295.273C506.435 299.365 504.694 302.205 501.503 302.205C498.373 302.205 496.571 299.457 496.571 295.273ZM517.414 315.795H523.919V303.244H524.118C525.019 305.198 526.988 307.382 530.775 307.382C536.12 307.382 540.289 303.152 540.289 295.303C540.289 287.241 535.937 283.24 530.791 283.24C526.866 283.24 524.988 285.576 524.118 287.485H523.828V283.545H517.414V315.795ZM523.782 295.273C523.782 291.089 525.553 288.417 528.714 288.417C531.936 288.417 533.646 291.211 533.646 295.273C533.646 299.365 531.905 302.205 528.714 302.205C525.584 302.205 523.782 299.457 523.782 295.273ZM121.718 367H128.131V363.244H128.422C129.322 365.198 131.292 367.382 135.079 367.382C140.424 367.382 144.592 363.152 144.592 355.303C144.592 347.241 140.24 343.24 135.094 343.24C131.17 343.24 129.292 345.576 128.422 347.485H128.223V335.727H121.718V367ZM128.086 355.273C128.086 351.089 129.857 348.417 133.018 348.417C136.24 348.417 137.95 351.211 137.95 355.273C137.95 359.365 136.209 362.205 133.018 362.205C129.887 362.205 128.086 359.457 128.086 355.273ZM155.621 367.443C159.087 367.443 161.332 365.931 162.477 363.748H162.66V367H168.829V351.18C168.829 345.592 164.096 343.24 158.873 343.24C153.254 343.24 149.559 345.928 148.658 350.203L154.674 350.692C155.117 349.134 156.507 347.989 158.843 347.989C161.057 347.989 162.324 349.104 162.324 351.028V351.119C162.324 352.631 160.721 352.83 156.644 353.227C152.002 353.654 147.833 355.212 147.833 360.449C147.833 365.091 151.147 367.443 155.621 367.443ZM157.484 362.953C155.484 362.953 154.048 362.022 154.048 360.235C154.048 358.403 155.56 357.502 157.85 357.181C159.271 356.983 161.592 356.647 162.37 356.128V358.617C162.37 361.075 160.339 362.953 157.484 362.953ZM193.391 350.234C192.811 345.912 189.329 343.24 183.405 343.24C177.403 343.24 173.449 346.019 173.464 350.539C173.449 354.051 175.663 356.326 180.244 357.243L184.305 358.052C186.352 358.464 187.283 359.212 187.314 360.388C187.283 361.778 185.771 362.77 183.496 362.77C181.175 362.77 179.633 361.778 179.236 359.869L172.838 360.205C173.449 364.694 177.266 367.458 183.481 367.458C189.558 367.458 193.91 364.358 193.926 359.732C193.91 356.342 191.696 354.311 187.146 353.379L182.901 352.524C180.717 352.051 179.908 351.303 179.923 350.173C179.908 348.768 181.496 347.852 183.511 347.852C185.771 347.852 187.115 349.088 187.436 350.6L193.391 350.234ZM208.711 367.458C214.513 367.458 218.422 364.633 219.338 360.281L213.322 359.884C212.665 361.671 210.986 362.602 208.817 362.602C205.565 362.602 203.504 360.449 203.504 356.952V356.937H219.476V355.151C219.476 347.18 214.651 343.24 208.451 343.24C201.549 343.24 197.075 348.142 197.075 355.38C197.075 362.816 201.488 367.458 208.711 367.458ZM203.504 352.906C203.641 350.234 205.672 348.096 208.558 348.096C211.383 348.096 213.337 350.112 213.353 352.906H203.504ZM232.364 367.382C236.151 367.382 238.12 365.198 239.021 363.244H239.296V367H245.71V335.727H239.22V347.485H239.021C238.151 345.576 236.273 343.24 232.348 343.24C227.202 343.24 222.85 347.241 222.85 355.303C222.85 363.152 227.019 367.382 232.364 367.382ZM234.425 362.205C231.234 362.205 229.493 359.365 229.493 355.273C229.493 351.211 231.203 348.417 234.425 348.417C237.586 348.417 239.357 351.089 239.357 355.273C239.357 359.457 237.555 362.205 234.425 362.205ZM271.699 367.458C277.501 367.458 281.411 364.633 282.327 360.281L276.31 359.884C275.654 361.671 273.974 362.602 271.806 362.602C268.553 362.602 266.492 360.449 266.492 356.952V356.937H282.464V355.151C282.464 347.18 277.639 343.24 271.439 343.24C264.537 343.24 260.063 348.142 260.063 355.38C260.063 362.816 264.476 367.458 271.699 367.458ZM266.492 352.906C266.629 350.234 268.66 348.096 271.546 348.096C274.371 348.096 276.326 350.112 276.341 352.906H266.492ZM301.322 351.577H287.06V356.739H301.322V351.577ZM313.37 335.727H306.865V367H313.37V335.727ZM329.27 367.458C335.073 367.458 338.982 364.633 339.898 360.281L333.882 359.884C333.225 361.671 331.545 362.602 329.377 362.602C326.125 362.602 324.063 360.449 324.063 356.952V356.937H340.035V355.151C340.035 347.18 335.21 343.24 329.011 343.24C322.109 343.24 317.634 348.142 317.634 355.38C317.634 362.816 322.047 367.458 329.27 367.458ZM324.063 352.906C324.201 350.234 326.231 348.096 329.117 348.096C331.942 348.096 333.897 350.112 333.912 352.906H324.063ZM350.969 367.443C354.435 367.443 356.68 365.931 357.825 363.748H358.008V367H364.177V351.18C364.177 345.592 359.443 343.24 354.221 343.24C348.602 343.24 344.907 345.928 344.006 350.203L350.022 350.692C350.465 349.134 351.854 347.989 354.191 347.989C356.405 347.989 357.672 349.104 357.672 351.028V351.119C357.672 352.631 356.069 352.83 351.992 353.227C347.35 353.654 343.181 355.212 343.181 360.449C343.181 365.091 346.495 367.443 350.969 367.443ZM352.832 362.953C350.831 362.953 349.396 362.022 349.396 360.235C349.396 358.403 350.908 357.502 353.198 357.181C354.618 356.983 356.939 356.647 357.718 356.128V358.617C357.718 361.075 355.687 362.953 352.832 362.953ZM369.224 367H375.729V353.73C375.729 350.844 377.836 348.859 380.707 348.859C381.608 348.859 382.845 349.012 383.455 349.211V343.439C382.875 343.301 382.066 343.21 381.409 343.21C378.783 343.21 376.63 344.737 375.775 347.638H375.53V343.545H369.224V367ZM393.324 353.44C393.339 350.417 395.141 348.646 397.767 348.646C400.378 348.646 401.951 350.356 401.936 353.227V367H408.441V352.066C408.441 346.599 405.234 343.24 400.348 343.24C396.866 343.24 394.347 344.95 393.293 347.684H393.018V343.545H386.819V367H393.324V353.44ZM413.568 367H420.073V343.545H413.568V367ZM416.835 340.522C418.775 340.522 420.363 339.041 420.363 337.224C420.363 335.422 418.775 333.941 416.835 333.941C414.911 333.941 413.323 335.422 413.323 337.224C413.323 339.041 414.911 340.522 416.835 340.522ZM431.788 353.44C431.804 350.417 433.605 348.646 436.232 348.646C438.843 348.646 440.416 350.356 440.401 353.227V367H446.906V352.066C446.906 346.599 443.699 343.24 438.812 343.24C435.331 343.24 432.811 344.95 431.758 347.684H431.483V343.545H425.283V367H431.788V353.44ZM462.599 376.284C469.303 376.284 474.067 373.23 474.067 367.229V343.545H467.608V347.485H467.363C466.493 345.576 464.584 343.24 460.66 343.24C455.514 343.24 451.162 347.241 451.162 355.227C451.162 363.03 455.392 366.664 460.675 366.664C464.416 366.664 466.508 364.786 467.363 362.847H467.638V367.137C467.638 370.359 465.577 371.612 462.752 371.612C459.881 371.612 458.43 370.359 457.896 368.939L451.88 369.749C452.658 373.444 456.277 376.284 462.599 376.284ZM462.737 361.778C459.545 361.778 457.804 359.243 457.804 355.196C457.804 351.211 459.515 348.417 462.737 348.417C465.897 348.417 467.669 351.089 467.669 355.196C467.669 359.335 465.867 361.778 462.737 361.778ZM121.596 435.795H128.101V423.244H128.299C129.2 425.198 131.17 427.382 134.957 427.382C140.301 427.382 144.47 423.152 144.47 415.303C144.47 407.241 140.118 403.24 134.972 403.24C131.048 403.24 129.17 405.576 128.299 407.485H128.009V403.545H121.596V435.795ZM127.963 415.273C127.963 411.089 129.735 408.417 132.896 408.417C136.118 408.417 137.828 411.211 137.828 415.273C137.828 419.365 136.087 422.205 132.896 422.205C129.765 422.205 127.963 419.457 127.963 415.273ZM155.312 395.727H148.807V427H155.312V395.727ZM167.211 427.443C170.677 427.443 172.922 425.931 174.067 423.748H174.25V427H180.419V411.18C180.419 405.592 175.686 403.24 170.463 403.24C164.844 403.24 161.149 405.928 160.248 410.203L166.264 410.692C166.707 409.134 168.097 407.989 170.433 407.989C172.647 407.989 173.914 409.104 173.914 411.028V411.119C173.914 412.631 172.311 412.83 168.234 413.227C163.592 413.654 159.423 415.212 159.423 420.449C159.423 425.091 162.737 427.443 167.211 427.443ZM169.074 422.953C167.073 422.953 165.638 422.022 165.638 420.235C165.638 418.403 167.15 417.502 169.44 417.181C170.86 416.983 173.181 416.647 173.96 416.128V418.617C173.96 421.075 171.929 422.953 169.074 422.953ZM197.941 403.545H193.528V397.926H187.024V403.545H183.817V408.432H187.024V420.648C186.993 425.244 190.123 427.519 194.842 427.321C196.521 427.26 197.712 426.924 198.369 426.71L197.346 421.869C197.025 421.93 196.338 422.083 195.727 422.083C194.429 422.083 193.528 421.594 193.528 419.793V408.432H197.941V403.545ZM214.792 403.545H210.134V401.973C210.134 400.385 210.776 399.453 212.685 399.453C213.463 399.453 214.257 399.621 214.777 399.789L215.922 394.903C215.112 394.658 213.326 394.261 211.326 394.261C206.913 394.261 203.63 396.75 203.63 401.85V403.545H200.316V408.432H203.63V427H210.134V408.432H214.792V403.545ZM228.523 427.458C235.639 427.458 240.067 422.587 240.067 415.364C240.067 408.096 235.639 403.24 228.523 403.24C221.407 403.24 216.979 408.096 216.979 415.364C216.979 422.587 221.407 427.458 228.523 427.458ZM228.554 422.419C225.271 422.419 223.591 419.411 223.591 415.319C223.591 411.226 225.271 408.203 228.554 408.203C231.776 408.203 233.455 411.226 233.455 415.319C233.455 419.411 231.776 422.419 228.554 422.419ZM244.297 427H250.802V413.73C250.802 410.844 252.909 408.859 255.78 408.859C256.681 408.859 257.918 409.012 258.529 409.211V403.439C257.948 403.301 257.139 403.21 256.482 403.21C253.856 403.21 251.703 404.737 250.848 407.638H250.604V403.545H244.297V427ZM261.892 427H268.397V412.921C268.397 410.325 270.046 408.6 272.214 408.6C274.352 408.6 275.787 410.066 275.787 412.371V427H282.094V412.677C282.094 410.249 283.483 408.6 285.85 408.6C287.927 408.6 289.484 409.898 289.484 412.509V427H295.974V411.226C295.974 406.141 292.951 403.24 288.584 403.24C285.148 403.24 282.476 404.996 281.514 407.684H281.269C280.521 404.966 278.124 403.24 274.902 403.24C271.741 403.24 269.343 404.92 268.366 407.684H268.091V403.545H261.892V427ZM323.54 403.545H319.127V397.926H312.622V403.545H309.415V408.432H312.622V420.648C312.592 425.244 315.722 427.519 320.44 427.321C322.12 427.26 323.311 426.924 323.968 426.71L322.945 421.869C322.624 421.93 321.937 422.083 321.326 422.083C320.028 422.083 319.127 421.594 319.127 419.793V408.432H323.54V403.545ZM338.123 427.458C345.239 427.458 349.667 422.587 349.667 415.364C349.667 408.096 345.239 403.24 338.123 403.24C331.007 403.24 326.579 408.096 326.579 415.364C326.579 422.587 331.007 427.458 338.123 427.458ZM338.153 422.419C334.87 422.419 333.191 419.411 333.191 415.319C333.191 411.226 334.87 408.203 338.153 408.203C341.375 408.203 343.055 411.226 343.055 415.319C343.055 419.411 341.375 422.419 338.153 422.419ZM370.354 413.44C370.369 410.417 372.217 408.646 374.874 408.646C377.515 408.646 379.073 410.341 379.058 413.227V427H385.563V412.066C385.578 406.569 382.341 403.24 377.454 403.24C373.896 403.24 371.514 404.92 370.445 407.684H370.171V395.727H363.849V427H370.354V413.44ZM401.371 427.458C407.173 427.458 411.082 424.633 411.999 420.281L405.982 419.884C405.326 421.671 403.646 422.602 401.478 422.602C398.225 422.602 396.164 420.449 396.164 416.952V416.937H412.136V415.151C412.136 407.18 407.311 403.24 401.111 403.24C394.209 403.24 389.735 408.142 389.735 415.38C389.735 422.816 394.148 427.458 401.371 427.458ZM396.164 412.906C396.301 410.234 398.332 408.096 401.218 408.096C404.043 408.096 405.998 410.112 406.013 412.906H396.164ZM422.886 395.727H416.381V427H422.886V395.727ZM428.097 435.795H434.602V423.244H434.8C435.701 425.198 437.671 427.382 441.458 427.382C446.802 427.382 450.971 423.152 450.971 415.303C450.971 407.241 446.619 403.24 441.473 403.24C437.549 403.24 435.671 405.576 434.8 407.485H434.51V403.545H428.097V435.795ZM434.464 415.273C434.464 411.089 436.236 408.417 439.397 408.417C442.619 408.417 444.329 411.211 444.329 415.273C444.329 419.365 442.588 422.205 439.397 422.205C436.266 422.205 434.464 419.457 434.464 415.273ZM138.683 464.721H145.02C144.928 459.148 140.347 455.3 133.384 455.3C126.528 455.3 121.504 459.087 121.535 464.767C121.52 469.379 124.772 472.02 130.055 473.288L133.461 474.143C136.866 474.967 138.759 475.945 138.775 478.052C138.759 480.342 136.591 481.9 133.232 481.9C129.796 481.9 127.322 480.312 127.108 477.181H120.71C120.878 483.946 125.719 487.443 133.308 487.443C140.943 487.443 145.432 483.793 145.447 478.067C145.432 472.86 141.508 470.096 136.072 468.875L133.262 468.203C130.544 467.577 128.269 466.569 128.315 464.324C128.315 462.309 130.101 460.827 133.338 460.827C136.499 460.827 138.439 462.263 138.683 464.721ZM149.773 487H156.278V473.73C156.278 470.844 158.385 468.859 161.256 468.859C162.157 468.859 163.393 469.012 164.004 469.211V463.439C163.424 463.301 162.615 463.21 161.958 463.21C159.332 463.21 157.179 464.737 156.323 467.638H156.079V463.545H149.773V487ZM167.367 487H173.872V463.545H167.367V487ZM170.635 460.522C172.574 460.522 174.162 459.041 174.162 457.224C174.162 455.422 172.574 453.941 170.635 453.941C168.711 453.941 167.123 455.422 167.123 457.224C167.123 459.041 168.711 460.522 170.635 460.522ZM189.157 487H209.176V481.549H195.769V455.727H189.157V487ZM220.121 487.443C223.587 487.443 225.832 485.931 226.977 483.748H227.16V487H233.329V471.18C233.329 465.592 228.596 463.24 223.373 463.24C217.754 463.24 214.059 465.928 213.158 470.203L219.174 470.692C219.617 469.134 221.007 467.989 223.343 467.989C225.557 467.989 226.824 469.104 226.824 471.028V471.119C226.824 472.631 225.221 472.83 221.144 473.227C216.502 473.654 212.333 475.212 212.333 480.449C212.333 485.091 215.647 487.443 220.121 487.443ZM221.984 482.953C219.984 482.953 218.548 482.022 218.548 480.235C218.548 478.403 220.06 477.502 222.35 477.181C223.771 476.983 226.092 476.647 226.87 476.128V478.617C226.87 481.075 224.839 482.953 221.984 482.953ZM244.881 473.44C244.896 470.417 246.698 468.646 249.325 468.646C251.936 468.646 253.509 470.356 253.493 473.227V487H259.998V472.066C259.998 466.599 256.792 463.24 251.905 463.24C248.424 463.24 245.904 464.95 244.851 467.684H244.576V463.545H238.376V487H244.881V473.44ZM265.125 487H271.63V479.548L273.386 477.548L279.784 487H287.404L278.257 473.7L286.961 463.545H279.494L271.981 472.448H271.63V455.727H265.125V487ZM296.841 487.443C300.307 487.443 302.552 485.931 303.697 483.748H303.88V487H310.049V471.18C310.049 465.592 305.316 463.24 300.093 463.24C294.474 463.24 290.779 465.928 289.878 470.203L295.894 470.692C296.337 469.134 297.726 467.989 300.063 467.989C302.277 467.989 303.544 469.104 303.544 471.028V471.119C303.544 472.631 301.941 472.83 297.864 473.227C293.222 473.654 289.053 475.212 289.053 480.449C289.053 485.091 292.367 487.443 296.841 487.443ZM298.704 482.953C296.703 482.953 295.268 482.022 295.268 480.235C295.268 478.403 296.78 477.502 299.07 477.181C300.49 476.983 302.811 476.647 303.59 476.128V478.617C303.59 481.075 301.559 482.953 298.704 482.953ZM321.601 473.44C321.616 470.417 323.418 468.646 326.044 468.646C328.656 468.646 330.228 470.356 330.213 473.227V487H336.718V472.066C336.718 466.599 333.511 463.24 328.625 463.24C325.143 463.24 322.624 464.95 321.57 467.684H321.295V463.545H315.096V487H321.601V473.44ZM361.36 470.234C360.78 465.912 357.298 463.24 351.373 463.24C345.372 463.24 341.417 466.019 341.433 470.539C341.417 474.051 343.631 476.326 348.212 477.243L352.274 478.052C354.32 478.464 355.252 479.212 355.282 480.388C355.252 481.778 353.74 482.77 351.465 482.77C349.144 482.77 347.602 481.778 347.205 479.869L340.807 480.205C341.417 484.694 345.235 487.458 351.45 487.458C357.527 487.458 361.879 484.358 361.894 479.732C361.879 476.342 359.665 474.311 355.114 473.379L350.869 472.524C348.686 472.051 347.877 471.303 347.892 470.173C347.877 468.768 349.465 467.852 351.48 467.852C353.74 467.852 355.084 469.088 355.405 470.6L361.36 470.234ZM382.448 455.727H375.943V487H382.448V455.727ZM398.347 487.458C404.15 487.458 408.059 484.633 408.975 480.281L402.959 479.884C402.302 481.671 400.623 482.602 398.454 482.602C395.202 482.602 393.14 480.449 393.14 476.952V476.937H409.113V475.151C409.113 467.18 404.287 463.24 398.088 463.24C391.186 463.24 386.712 468.142 386.712 475.38C386.712 482.816 391.125 487.458 398.347 487.458ZM393.14 472.906C393.278 470.234 395.309 468.096 398.195 468.096C401.02 468.096 402.974 470.112 402.989 472.906H393.14ZM420.046 487.443C423.512 487.443 425.757 485.931 426.902 483.748H427.085V487H433.254V471.18C433.254 465.592 428.521 463.24 423.298 463.24C417.679 463.24 413.984 465.928 413.083 470.203L419.099 470.692C419.542 469.134 420.931 467.989 423.268 467.989C425.482 467.989 426.749 469.104 426.749 471.028V471.119C426.749 472.631 425.146 472.83 421.069 473.227C416.427 473.654 412.258 475.212 412.258 480.449C412.258 485.091 415.572 487.443 420.046 487.443ZM421.909 482.953C419.908 482.953 418.473 482.022 418.473 480.235C418.473 478.403 419.985 477.502 422.275 477.181C423.695 476.983 426.016 476.647 426.795 476.128V478.617C426.795 481.075 424.764 482.953 421.909 482.953ZM438.301 487H444.806V473.73C444.806 470.844 446.913 468.859 449.784 468.859C450.685 468.859 451.922 469.012 452.532 469.211V463.439C451.952 463.301 451.143 463.21 450.486 463.21C447.86 463.21 445.707 464.737 444.852 467.638H444.607V463.545H438.301V487ZM462.401 473.44C462.416 470.417 464.218 468.646 466.844 468.646C469.455 468.646 471.028 470.356 471.013 473.227V487H477.518V472.066C477.518 466.599 474.311 463.24 469.425 463.24C465.943 463.24 463.424 464.95 462.37 467.684H462.095V463.545H455.896V487H462.401V473.44ZM121.718 547H142.852V541.549H128.33V534.082H141.706V528.63H128.33V521.179H142.79V515.727H121.718V547ZM154.43 533.44C154.445 530.417 156.247 528.646 158.873 528.646C161.485 528.646 163.057 530.356 163.042 533.227V547H169.547V532.066C169.547 526.599 166.34 523.24 161.454 523.24C157.973 523.24 155.453 524.95 154.399 527.684H154.125V523.545H147.925V547H154.43V533.44ZM185.241 556.284C191.944 556.284 196.708 553.23 196.708 547.229V523.545H190.249V527.485H190.005C189.135 525.576 187.226 523.24 183.301 523.24C178.156 523.24 173.804 527.241 173.804 535.227C173.804 543.03 178.033 546.664 183.317 546.664C187.058 546.664 189.15 544.786 190.005 542.847H190.28V547.137C190.28 550.359 188.218 551.612 185.393 551.612C182.523 551.612 181.072 550.359 180.538 548.939L174.521 549.749C175.3 553.444 178.919 556.284 185.241 556.284ZM185.378 541.778C182.187 541.778 180.446 539.243 180.446 535.196C180.446 531.211 182.156 528.417 185.378 528.417C188.539 528.417 190.31 531.089 190.31 535.196C190.31 539.335 188.509 541.778 185.378 541.778ZM208.39 515.727H201.885V547H208.39V515.727ZM213.601 547H220.106V523.545H213.601V547ZM216.869 520.522C218.808 520.522 220.396 519.041 220.396 517.224C220.396 515.422 218.808 513.941 216.869 513.941C214.945 513.941 213.356 515.422 213.356 517.224C213.356 519.041 214.945 520.522 216.869 520.522ZM244.831 530.234C244.251 525.912 240.77 523.24 234.845 523.24C228.844 523.24 224.889 526.019 224.904 530.539C224.889 534.051 227.103 536.326 231.684 537.243L235.746 538.052C237.792 538.464 238.724 539.212 238.754 540.388C238.724 541.778 237.212 542.77 234.937 542.77C232.616 542.77 231.073 541.778 230.676 539.869L224.278 540.205C224.889 544.694 228.706 547.458 234.921 547.458C240.999 547.458 245.351 544.358 245.366 539.732C245.351 536.342 243.137 534.311 238.586 533.379L234.341 532.524C232.157 532.051 231.348 531.303 231.363 530.173C231.348 528.768 232.936 527.852 234.952 527.852C237.212 527.852 238.556 529.088 238.876 530.6L244.831 530.234ZM255.967 533.44C255.982 530.417 257.83 528.646 260.487 528.646C263.129 528.646 264.686 530.341 264.671 533.227V547H271.176V532.066C271.191 526.569 267.954 523.24 263.068 523.24C259.51 523.24 257.128 524.92 256.059 527.684H255.784V515.727H249.462V547H255.967V533.44ZM280.097 547.397C282.052 547.397 283.747 545.763 283.762 543.732C283.747 541.732 282.052 540.098 280.097 540.098C278.082 540.098 276.417 541.732 276.433 543.732C276.417 545.763 278.082 547.397 280.097 547.397Z" fill="black"/>
<path d="M132.744 230.182H134.278C134.208 228.207 132.386 226.73 129.855 226.73C127.349 226.73 125.381 228.188 125.381 230.386C125.381 232.151 126.659 233.199 128.705 233.787L130.315 234.247C131.696 234.631 132.923 235.116 132.923 236.42C132.923 237.852 131.543 238.798 129.727 238.798C128.168 238.798 126.787 238.108 126.659 236.625H125.023C125.176 238.773 126.915 240.23 129.727 240.23C132.744 240.23 134.457 238.568 134.457 236.446C134.457 233.991 132.131 233.199 130.776 232.841L129.446 232.483C128.474 232.227 126.915 231.716 126.915 230.31C126.915 229.057 128.065 228.136 129.804 228.136C131.389 228.136 132.591 228.891 132.744 230.182ZM136.348 228.315H140.464V240H142.05V228.315H146.166V226.909H136.348V228.315ZM147.62 240L148.937 236.293H154.23L155.546 240H157.208L152.401 226.909H150.765L145.958 240H147.62ZM149.436 234.886L151.532 228.98H151.634L153.731 234.886H149.436ZM159.247 240H160.833V234.886H163.696C163.811 234.886 163.92 234.886 164.029 234.88L166.79 240H168.631L165.671 234.592C167.34 234.023 168.119 232.662 168.119 230.923C168.119 228.609 166.739 226.909 163.671 226.909H159.247V240ZM160.833 233.455V228.315H163.619C165.742 228.315 166.56 229.351 166.56 230.923C166.56 232.496 165.742 233.455 163.645 233.455H160.833ZM170.045 228.315H174.162V240H175.747V228.315H179.863V226.909H170.045V228.315ZM183.895 226.909H182.31V240H183.895V226.909ZM197.454 226.909H195.895V237.213H195.767L188.608 226.909H187.074V240H188.659V229.722H188.787L195.92 240H197.454V226.909ZM209.575 231H211.211C210.726 228.469 208.604 226.73 205.842 226.73C202.486 226.73 200.115 229.312 200.115 233.455C200.115 237.597 202.467 240.179 205.944 240.179C209.064 240.179 211.288 238.102 211.288 234.861V233.455H206.302V234.861H209.754C209.709 237.213 208.162 238.696 205.944 238.696C203.515 238.696 201.649 236.855 201.649 233.455C201.649 230.054 203.515 228.213 205.842 228.213C207.734 228.213 209.019 229.281 209.575 231ZM219.066 240H223.796C226.89 240 228.168 238.491 228.168 236.523C228.168 234.452 226.736 233.327 225.534 233.25V233.122C226.659 232.815 227.657 232.074 227.657 230.386C227.657 228.469 226.378 226.909 223.642 226.909H219.066V240ZM220.651 238.594V234.043H223.873C225.586 234.043 226.659 235.193 226.659 236.523C226.659 237.673 225.867 238.594 223.796 238.594H220.651ZM220.651 232.662V228.315H223.642C225.381 228.315 226.148 229.236 226.148 230.386C226.148 231.767 225.023 232.662 223.591 232.662H220.651ZM230.773 240H232.358V234.886H235.222C235.337 234.886 235.445 234.886 235.554 234.88L238.315 240H240.156L237.197 234.592C238.865 234.023 239.645 232.662 239.645 230.923C239.645 228.609 238.264 226.909 235.196 226.909H230.773V240ZM232.358 233.455V228.315H235.145C237.267 228.315 238.085 229.351 238.085 230.923C238.085 232.496 237.267 233.455 235.17 233.455H232.358ZM243.872 226.909H242.286V240H243.872V226.909ZM247.05 240H255.053V238.594H248.635V234.145H254.542V232.739H248.635V228.315H254.951V226.909H247.05V240ZM257.808 240H259.393V234.145H265.069V232.739H259.393V228.315H265.657V226.909H257.808V240Z" fill="black"/>
<path d="M124 243.58H266.782V244.807H124V243.58Z" fill="black"/>
</svg>
