<svg xmlns="http://www.w3.org/2000/svg" viewBox="0 0 121.7 185.98"><g id="Layer_2" data-name="Layer 2"><g id="Layer_1-2" data-name="Layer 1"><path d="M53.52,74.64a7.49,7.49,0,0,0-2.79.4,28.69,28.69,0,0,0-4.81,1.79c-3.79,1.74-7.4,3.82-11,5.88C32,84.36,29.11,86,26.2,87.65a82.46,82.46,0,0,1-8.74,4.19A20.22,20.22,0,0,1,13,93.26a7.37,7.37,0,0,1-2,.12,2,2,0,0,1-1.88-2.45,4.87,4.87,0,0,1,.59-1.65,28.57,28.57,0,0,1,1.94-2.93,74.73,74.73,0,0,1,7.75-8.45A110.54,110.54,0,0,1,35.8,64.62c.66-.43,1.27-.92,1.9-1.39a62.22,62.22,0,0,1,7.74-5.09,18.39,18.39,0,0,1,4.49-1.79,10.28,10.28,0,0,1,9.16,1.87A23.7,23.7,0,0,1,63.65,63c.84,1.14,1.62,2.32,2.48,3.55.59,0,1.22-.11,1.84-.12s1.17,0,1.85.08a10.43,10.43,0,0,0,1.51-2.27A4,4,0,0,0,71.56,61a13,13,0,0,0-1-2.28A34.48,34.48,0,0,0,68.3,55.4c-.89-1.16-1.87-2.26-2.8-3.4a20.77,20.77,0,0,1-2.34-3.38,9.11,9.11,0,0,1,1.13-10.43,17.2,17.2,0,0,1,2.22-2.13c1-.84,2.1-1.61,3.19-2.37A21,21,0,0,0,75,28.27c.8-1.17,1.58-2.36,2.38-3.53a24.92,24.92,0,0,1,3.28-4,11.13,11.13,0,0,1,7.52-3.23,24.7,24.7,0,0,1,6,.35,32.44,32.44,0,0,0,9.07.39,20.46,20.46,0,0,1,6.29.46,9.6,9.6,0,0,1,2.86,1.11,4.64,4.64,0,0,1,1,7.32,8.59,8.59,0,0,1-3.15,2.1,18.09,18.09,0,0,1-5.44,1.19c-.78.06-1.56.07-2.35.11-.22,0-.44.09-.79.15.24.35.38.6.56.81A15.58,15.58,0,0,1,106,42.86c-.1,2.15-.38,4.29-.55,6.44-.1,1.22-.17,2.45-.16,3.67a8.17,8.17,0,0,0,1.94,5.12,7.75,7.75,0,0,1,.73.92,1,1,0,0,1-.57,1.51,5,5,0,0,1-1.15.23,22.87,22.87,0,0,0-8.95,2.66c-1.3.69-2.59,1.4-3.87,2.12A38.73,38.73,0,0,1,88.22,68a14.87,14.87,0,0,1-5.75,1,8.9,8.9,0,0,1-7.14-3.47c-.48-.62-.91-1.28-1.37-1.91L73.44,63c-.21.63-.34,1.13-.55,1.6a15.31,15.31,0,0,1-.84,1.54c-.28.46-.6.9-.94,1.39.1.31.23.62.3.94.17.74-.22,1.07-1,.87a3.39,3.39,0,0,1-.41-.15,1.38,1.38,0,0,0-.55,1.68,7.14,7.14,0,0,0,1.21,2.66,6.31,6.31,0,0,1,1.09,1.9,2.22,2.22,0,0,0,.35.64,28.62,28.62,0,0,0,6.22,6.21,19.35,19.35,0,0,0,9,3.36,34.05,34.05,0,0,0,8.5-.22c3.88-.53,7.74-1.21,11.62-1.77a23.2,23.2,0,0,1,7.62-.16,8.25,8.25,0,0,1,2.51.79A2.71,2.71,0,0,1,119,87.58a9,9,0,0,1-1,2.12,17.36,17.36,0,0,1-2.91,3.49,63.24,63.24,0,0,1-10.73,8.2,68.47,68.47,0,0,1-10.92,5.41,23.36,23.36,0,0,1-6,1.54,14.09,14.09,0,0,1-12.78-4.88A19.81,19.81,0,0,1,71.35,98c-1-2.35-1.85-4.75-2.79-7.11-.83-2.1-1.69-4.18-2.55-6.26a6.19,6.19,0,0,0-.47-.83,6,6,0,0,0-.6.47A52.82,52.82,0,0,0,58,92.62a20.62,20.62,0,0,0-2.85,6.1,12.43,12.43,0,0,0,1.37,9.77,35.88,35.88,0,0,0,2.52,3.61c1,1.28,2,2.52,3.08,3.75a60.34,60.34,0,0,1,13.32,28.27,57.48,57.48,0,0,1,.79,14.94,45.61,45.61,0,0,1-3.08,13.4,73.22,73.22,0,0,1-4.37,9.63,21.45,21.45,0,0,1-1.25,2,6.08,6.08,0,0,1-1.2,1.28,2.61,2.61,0,0,1-3.5-.12,8.84,8.84,0,0,1-1.42-1.85,18.21,18.21,0,0,1-1.73-4.21,82.65,82.65,0,0,1-2.34-10.31c-.65-4-1.17-7.94-1.79-11.91A51.06,51.06,0,0,0,53,146.43a22.2,22.2,0,0,0-6.32-9.08c-.32-.27-.68-.51-1.1-.83a4.36,4.36,0,0,0-.29.6,46.06,46.06,0,0,1-5.14,10.7,113.19,113.19,0,0,1-7.23,10A210.8,210.8,0,0,1,17.3,175.66c-2.08,2.08-4.25,4.07-6.43,6A21,21,0,0,1,6.19,185a7.16,7.16,0,0,1-2.79.83,3.09,3.09,0,0,1-3.37-3A7.13,7.13,0,0,1,.11,181a10.77,10.77,0,0,1,1.69-4.5,3.25,3.25,0,0,0,.28-.52c2.41-5,5.33-9.7,8.21-14.43A214,214,0,0,1,25.86,139.4a76.82,76.82,0,0,1,6.39-7.11c.87-.85,1.8-1.65,2.78-2.55a6.49,6.49,0,0,0-.56-.6c-1.5-1.18-3-2.31-4.51-3.53a16.67,16.67,0,0,1-3.45-4,13.23,13.23,0,0,1-2-8.72,24.92,24.92,0,0,1,2.05-7.18A46.72,46.72,0,0,1,32,96.62,108.31,108.31,0,0,1,46.25,81c2-1.86,4.13-3.62,6.2-5.43Zm11.24,7.49A16.08,16.08,0,0,0,60,76a9.48,9.48,0,0,0-2.5-1.21,2,2,0,0,0-2.15.4A153,153,0,0,0,39.81,89.59,85.25,85.25,0,0,0,32.22,99a38.35,38.35,0,0,0-5.36,10.58,16.87,16.87,0,0,0-.79,5.65,11,11,0,0,0,1.49,5.16,16.61,16.61,0,0,0,3.26,4,44.45,44.45,0,0,0,5.12,4,5.91,5.91,0,0,0,.66.36c.57-.31,1.12-.64,1.68-.92a7.91,7.91,0,0,1,3.36-1,3.94,3.94,0,0,1,4.17,3.2,8.88,8.88,0,0,1,.2,3.21c-.06.48-.11,1-.16,1.47.47.41.9.81,1.35,1.18a24.27,24.27,0,0,1,7.51,10.87A54.55,54.55,0,0,1,57,156.06c.61,4,1.13,7.95,1.78,11.91a79.43,79.43,0,0,0,2.34,10.46,31.93,31.93,0,0,0,1.54,4,6.12,6.12,0,0,0,1.2,1.64,1.06,1.06,0,0,0,1.59,0,5.33,5.33,0,0,0,1-1.09c.53-.82,1-1.66,1.49-2.53A77.13,77.13,0,0,0,73.08,168a35.56,35.56,0,0,0,1.57-8.36,58.54,58.54,0,0,0-.79-15.52,59,59,0,0,0-11.67-25.71c-1.28-1.61-2.66-3.14-3.92-4.77a43,43,0,0,1-3.05-4.31A13.9,13.9,0,0,1,53.73,98.1a22.39,22.39,0,0,1,3.16-6.59,56.32,56.32,0,0,1,6.83-8.27C64.06,82.9,64.38,82.54,64.76,82.13Zm41.11-23c-.22-.38-.37-.67-.54-.94a10.86,10.86,0,0,1-1.67-6.88c.08-1.17.27-2.33.36-3.51.16-1.9.36-3.8.41-5.71A14.59,14.59,0,0,0,99.77,31a1.61,1.61,0,0,0-1.15-.52,30.55,30.55,0,0,0-9.89,1.15,22,22,0,0,0-11,7.2C73.25,44.43,72,50.78,73.23,57.69A15.06,15.06,0,0,0,76.89,65a7.14,7.14,0,0,0,4.44,2.37,11.92,11.92,0,0,0,6.2-.76,40.21,40.21,0,0,0,5.31-2.51c1.41-.79,2.82-1.59,4.26-2.32a22.88,22.88,0,0,1,8.12-2.44A5.84,5.84,0,0,0,105.87,59.13ZM66.8,82.46c.1.26.15.44.23.62a90.71,90.71,0,0,1,3.5,8.55c.7,1.88,1.41,3.76,2.19,5.61A19.67,19.67,0,0,0,75.56,102a12.53,12.53,0,0,0,11.55,4.76,23.58,23.58,0,0,0,6.5-1.73,67.49,67.49,0,0,0,9.59-4.78,63.26,63.26,0,0,0,10.54-7.94A17.19,17.19,0,0,0,116.61,89a7.94,7.94,0,0,0,.83-1.71,1.24,1.24,0,0,0-.83-1.76,10.1,10.1,0,0,0-2.4-.62,21,21,0,0,0-5.43.08c-3.29.46-6.58,1-9.86,1.52a52.58,52.58,0,0,1-10.1.76,20.73,20.73,0,0,1-13.47-5.41c-1.2-1.08-2.25-2.32-3.37-3.48-.2-.2-.41-.38-.64-.59-.78.84-1.49,1.65-2.24,2.42S67.57,81.71,66.8,82.46ZM36.63,130.6c-.48.37-.92.68-1.32,1a48.87,48.87,0,0,0-5,5c-2.78,3.1-5.33,6.4-7.82,9.73A240.49,240.49,0,0,0,4.7,174.16a3.15,3.15,0,0,0-.58,1.32A2.41,2.41,0,0,1,3.39,177a8.28,8.28,0,0,0-1.8,5.32c0,1.56.87,2.21,2.42,1.79a7.16,7.16,0,0,0,2-.85,40.16,40.16,0,0,0,3.7-2.65,85.16,85.16,0,0,0,7-6.65,223.53,223.53,0,0,0,15.12-17.42,97.54,97.54,0,0,0,7.93-11.3,40.31,40.31,0,0,0,3.8-8.25,8.08,8.08,0,0,0,.4-1.73C41.65,133.55,39.09,132.23,36.63,130.6ZM64.44,67.09a4.23,4.23,0,0,0-.23-.53,26.68,26.68,0,0,0-8-8.51,4.94,4.94,0,0,0-2.75-.86,9.77,9.77,0,0,0-4.55,1,82.83,82.83,0,0,0-9.34,5.54c-1.55,1-3.07,2.1-4.61,3.15-.32.22-.67.41-1,.65-2.27,1.79-4.58,3.53-6.79,5.39A108.93,108.93,0,0,0,14.86,84.85c-1.15,1.33-2.2,2.75-3.24,4.18a8.9,8.9,0,0,0-.95,1.81c-.25.59,0,1,.65,1a10.66,10.66,0,0,0,2.17-.28,31.14,31.14,0,0,0,5.36-2,129.29,129.29,0,0,0,12.85-6.8c3.9-2.25,7.79-4.52,11.83-6.52a40.94,40.94,0,0,1,5.55-2.33,16.26,16.26,0,0,1,5.47-1,3.25,3.25,0,0,0,2.26-.8,39.24,39.24,0,0,1,7.24-4.74A2.59,2.59,0,0,0,64.44,67.09Zm7-10.49a28,28,0,0,1,.07-7.1,22.22,22.22,0,0,1,8.1-14.7,25.72,25.72,0,0,1,20-5.58,2.74,2.74,0,0,0,1.16.07,9.24,9.24,0,0,1,2.61-.27c1.17-.09,2.35-.17,3.51-.36a12.34,12.34,0,0,0,3.5-1.07,6.38,6.38,0,0,0,2.21-1.67,3,3,0,0,0-.68-4.6,7.77,7.77,0,0,0-1.73-.8,12.23,12.23,0,0,0-3.6-.65c-1.37,0-2.75-.05-4.12,0a37.08,37.08,0,0,1-8.92-.54A20.86,20.86,0,0,0,88.91,19,10.33,10.33,0,0,0,81,22.69c-.8.92-1.55,1.89-2.27,2.88s-1.38,2-2.05,3.05a24.25,24.25,0,0,1-6.43,6.58c-1.13.78-2.23,1.61-3.28,2.49a11.29,11.29,0,0,0-1.82,1.9,7.34,7.34,0,0,0-1.34,6.53,9.53,9.53,0,0,0,1.54,3.15c.61.83,1.26,1.63,1.9,2.43q1.78,2.25,3.58,4.48C71,56.28,71.08,56.35,71.39,56.6ZM58.12,73.31c.22.1.43.22.65.31a10,10,0,0,1,4,2.85c.86,1,1.6,2.1,2.37,3.17.28.39.52.81.77,1.22a19.33,19.33,0,0,0,3.65-3.5,1.77,1.77,0,0,0,.55-1.18c-.79-1.22-1.59-2.45-2.38-3.69s-1.46-2.63-2.33-3.82A21.43,21.43,0,0,0,58.12,73.31Zm-20,56.34L40.24,131c.67.41,1.34.83,2,1.21a9.14,9.14,0,0,0,2.1,1.16,8.56,8.56,0,0,0,0-2.86,2.48,2.48,0,0,0-3.07-2.2A7,7,0,0,0,38.1,129.65Zm29.71-60.3.75-1.22c-.59-.17-1-.27-1.43.18Z"/><path d="M51.11,17.42l.56,1A7.74,7.74,0,0,0,53.23,17c.28-.27.55-.57.85-.81a.69.69,0,0,1,.93.08.67.67,0,0,1,.06.93,13.55,13.55,0,0,1-3.68,3.32,5.17,5.17,0,0,1-1.58.26c-.59.46-1.33,1.09-2.13,1.65a4.29,4.29,0,0,1-1.31.63,1,1,0,0,1-1.27-.7,5.94,5.94,0,0,0-.29-1,4.08,4.08,0,0,0-.7-.75A3.28,3.28,0,0,0,44.17,19a1.38,1.38,0,0,1,.48-1.45c.81-.72,1.61-1.43,2.44-2.11.51-.42.58-.4,1.55-.07l.82-.73c.4-.36.8-.72,1.23-1.05s.89-.36,1.17,0,.19.64-.16,1.05c-.09.11-.22.2-.31.31a3.83,3.83,0,0,0-.36.54c.54-.27.86-.45,1.19-.58a.72.72,0,0,1,.87.37.65.65,0,0,1-.16.8c-.21.19-.46.36-.69.54ZM46.91,21c.14,0,.21,0,.24,0a12.13,12.13,0,0,0,1.24-1c.43-.44,1-.3,1.48-.55a.47.47,0,0,0,0-.75c-.12-.08-.27-.1-.39-.17-.58-.32-.62-.43-.45-1,.06-.18.14-.36.23-.59l-.95-.61c-.52.43-1,.79-1.43,1.17s-.82.7-1.2,1.08c-.08.08,0,.31,0,.65.6-.37,1-.67,1.49-.93a.72.72,0,0,1,1,.22.69.69,0,0,1-.15.93c-.34.28-.71.52-1.07.78A.54.54,0,0,0,46.91,21Z"/><path d="M57.54,24a10.81,10.81,0,0,0,.15,1.28,1.05,1.05,0,0,1-.38,1.29,1.83,1.83,0,0,0-.42.56c-.12.21-.18.46-.32.66a1.16,1.16,0,0,1-2.06,0,10,10,0,0,1-1.25-3.27.93.93,0,0,1,.8-1,.84.84,0,0,1,.9.92A3,3,0,0,0,55.35,26a.54.54,0,0,0,.46.2.42.42,0,0,0,.34-.55c-.1-.42-.25-.84-.35-1.27a6.42,6.42,0,0,1-.19-1.15,1.31,1.31,0,0,1,1.15-1.52l2.53,1.34a3.86,3.86,0,0,0-.08-.69c-.17-.56-.39-1.11-.57-1.67a2.5,2.5,0,0,1-.15-.71.65.65,0,0,1,.41-.7.79.79,0,0,1,.92.26A2,2,0,0,1,60,20c.41,1.15.83,2.3,1.22,3.46a2.29,2.29,0,0,1,.15.86,1.11,1.11,0,0,1-1.55,1c-.48-.22-.93-.53-1.39-.8Z"/><path d="M50.51,31.05a3.79,3.79,0,0,1,.05.58c0,.76-.59,1.08-1.17.64a6.74,6.74,0,0,1-.93-.92c-.2-.22-.35-.49-.56-.68a.81.81,0,0,0-1.13,0c.08.2.16.42.25.63a5.58,5.58,0,0,1,.28.67,2.14,2.14,0,0,1-.92,2.43,2,2,0,0,1-2.51-.57,5,5,0,0,1-.73-5.1,1.44,1.44,0,0,1,2.3-.63,9.61,9.61,0,0,1,.93.85c.16,0,.39-.08.62-.11a2.43,2.43,0,0,1,2.21.91c.32.37.55.83,1.06,1Zm-6-1.75a3.81,3.81,0,0,0,.31,3.13c.23.42.54.59.79.49s.28-.46,0-.89c-.12-.22-.25-.42-.37-.63a1.49,1.49,0,0,1-.14-1.27,2.28,2.28,0,0,0,.07-.54Z"/><path d="M39.54,21.8c.21-.32.35-.5.46-.7.32-.61.59-1.24,1-1.82a5,5,0,0,1,.84-1,.82.82,0,0,1,1.08,0,.67.67,0,0,1,0,1,10.15,10.15,0,0,0-1.61,2.61c-.09.22-.16.45-.26.72a4.16,4.16,0,0,0,2.31,1.44,6,6,0,0,1,1-.56.86.86,0,0,1,.66.16.59.59,0,0,1,.15.8,1.91,1.91,0,0,1-1.48,1.06,3,3,0,0,1-1.83-.41c-.46-.24-.83-.67-1.42-.74-.21.55.12,1,.22,1.44s.18.65.21,1a.7.7,0,0,1-1.26.42,3.22,3.22,0,0,1-.43-.92q-.7-2.55-1.33-5.1a2.41,2.41,0,0,1,0-1,.55.55,0,0,1,.65-.46.87.87,0,0,1,.55.4,4.65,4.65,0,0,1,.26,1C39.37,21.29,39.43,21.46,39.54,21.8Z"/><path d="M56.76,14.91c.24.46.49.88.7,1.32a1.18,1.18,0,0,1,.12.56.64.64,0,0,1-.52.63,1.26,1.26,0,0,1-.67-.15.71.71,0,0,1-.28-.33c-.76-1.31-1.51-2.62-2.28-3.93A1.17,1.17,0,0,1,54,11.42c.44-.46.8-1,1.25-1.44a2,2,0,0,1,1.57-.68,1.34,1.34,0,0,1,1.39,1.24A3.46,3.46,0,0,1,58,12C57.65,12.93,57.21,13.86,56.76,14.91Zm-1-1.84a4.51,4.51,0,0,0,.85-2.19,1.77,1.77,0,0,0-1.28,1.38A.6.6,0,0,0,55.78,13.07Z"/><path d="M63,17.61a6.75,6.75,0,0,0,.25,3.85c.49.15.57-.29.79-.51.92-.92,1.55-1,2.53-.14a3.87,3.87,0,0,1,1.16,1.38l-1,.86-1.28-1.14-.61.66c-.16.18-.3.39-.47.56a1.27,1.27,0,0,1-2.12-.2,7,7,0,0,1-.54-5.8A1.74,1.74,0,0,1,63.57,16a.7.7,0,0,1,.75.55.62.62,0,0,1-.42.69C63.64,17.37,63.36,17.47,63,17.61Z"/><path d="M50.51,31.05l-.25-.34a6.37,6.37,0,0,1-.61-4,2.67,2.67,0,0,1,.83-1.5,1,1,0,0,1,1.32-.17,2.42,2.42,0,0,1,.65.58,4.78,4.78,0,0,1,.93,4C53,31.31,52.08,31.75,50.51,31.05Zm.83-4.11c-.36.57-.36.57-.29,1.14.09.86.09.86.63,1.39A2.52,2.52,0,0,0,51.34,26.94Z"/><path d="M47.53,45.63a2.19,2.19,0,0,1-1.83.79c-1.78-.21-3.56-.47-5.34-.72a1.18,1.18,0,0,1-.4-.17.6.6,0,0,1-.31-.74,1.08,1.08,0,0,1,.46-.49,1,1,0,0,1,.57-.06c2.11.34,4.21.69,6.32,1C47.17,45.32,47.32,45.49,47.53,45.63Z"/><path d="M118.2,46c.73,0,1.47,0,2.2,0a2,2,0,0,1,.86.14.89.89,0,0,1,.42.54.61.61,0,0,1-.42.69,1.23,1.23,0,0,1-.57.1c-1.57,0-3.14-.1-4.7-.15l-.29,0c-.54-.11-.76-.35-.72-.76s.29-.57.87-.58c.78,0,1.56,0,2.35,0Z"/><path d="M77.26,4.62A9.39,9.39,0,0,1,78.4.44a1.1,1.1,0,0,1,.3-.31.63.63,0,0,1,1,.4,2.33,2.33,0,0,1-.17,1,8.1,8.1,0,0,0-.86,3.65.52.52,0,0,1-.14.4,1,1,0,0,1-.59.3.73.73,0,0,1-.53-.4A2.76,2.76,0,0,1,77.26,4.62Z"/><path d="M66.29,6.85a.77.77,0,0,1,.59-.79.67.67,0,0,1,.81.45,5.71,5.71,0,0,1,.24,1,6.05,6.05,0,0,0,1,2.72c.32.44.27.83,0,1A.86.86,0,0,1,67.76,11a5.11,5.11,0,0,1-.48-.73A10.42,10.42,0,0,1,66.29,6.85Z"/><path d="M104.55,10.69c0-.18,0-.3.08-.35.88-.78,1.77-1.55,2.67-2.3a1.13,1.13,0,0,1,.67-.25.82.82,0,0,1,.61.3.71.71,0,0,1,0,.65c-.35.41-.78.74-1.16,1.12A2.82,2.82,0,0,1,104.55,10.69Z"/><path d="M101.36,42.67c1.91,1,2.37,2,1.89,4.07a8,8,0,0,1-3.33,4.86,5.06,5.06,0,0,1-5.29,0,2.86,2.86,0,0,1-1.3-2.79,9.72,9.72,0,0,1,2.33-5.61,5.56,5.56,0,0,1,3.2-1.95,5.4,5.4,0,0,1,.58-.08,1.71,1.71,0,0,1,1.38.36A4.12,4.12,0,0,1,101.36,42.67Zm-3.93,1.15c-.18,0-.31,0-.36.09a9,9,0,0,0-2.13,4.74,2.33,2.33,0,0,0,0,.87,1.11,1.11,0,0,0,.36.61,2.79,2.79,0,0,0,2.67.51c-.22-2.07-.69-4-.36-6.06C97.7,44.34,97.51,44.07,97.43,43.82Z"/><path d="M96.62,61.17,95.7,62a7.25,7.25,0,0,1-.86-.28l-7.72-3.48a1,1,0,0,1-.25-.15.69.69,0,0,1-.31-.76.76.76,0,0,1,.74-.58,3,3,0,0,1,.84.23q4.11,1.9,8.21,3.84C96.42,60.87,96.46,61,96.62,61.17Z"/></g></g></svg>