<svg xmlns="http://www.w3.org/2000/svg" viewBox="0 0 310.93 156.59"><g id="Layer_2" data-name="Layer 2"><g id="Layer_1-2" data-name="Layer 1"><path d="M129.28,103a45,45,0,0,1,13.3-3.71A81.08,81.08,0,0,1,158,98.48c2.68.13,5.36.46,8,.71.9.08,1.81.22,2.75.34a7.6,7.6,0,0,0,.66-.74,34.81,34.81,0,0,0,6.49-16.17,18.75,18.75,0,0,0-1-9.23c-.17-.45-.37-.89-.58-1.32a3.46,3.46,0,0,0-.35-.49l-2.52.35c-.09.22-.23.47-.31.73a12.09,12.09,0,0,1-3,5,21.78,21.78,0,0,1-8.52,5.27,38.57,38.57,0,0,1-9.15,1.95,63.35,63.35,0,0,1-16.67-.82,55.23,55.23,0,0,1-10.61-2.7,22.74,22.74,0,0,1-6.1-3.23,21.74,21.74,0,0,1-1.83-1.63,6.56,6.56,0,0,1-.87-1.15,3.93,3.93,0,0,1,0-4.48,9.81,9.81,0,0,1,3-2.89,22.45,22.45,0,0,1,5.37-2.44A70.57,70.57,0,0,1,133,63.24c3.75-.6,7.53-1.07,11.32-1.37a81.4,81.4,0,0,1,13.7,0A30.84,30.84,0,0,1,168,64.21a17.25,17.25,0,0,1,5.88,4.34c.28.32.54.66.86,1,.43-.16.83-.3,1.21-.47,1.27-.59,2.52-1.21,3.79-1.78A15.4,15.4,0,0,1,184.23,66a5.94,5.94,0,0,1,6.45,3.57,11.5,11.5,0,0,1,.91,3.92,27.29,27.29,0,0,1-5.34,18A26.72,26.72,0,0,1,183,95.32a14.11,14.11,0,0,1-4.45,2.89,6.15,6.15,0,0,1-3.81.34,4,4,0,0,0-2.22-.22c.1.23.13.49.27.61.43.38.92.7,1.36,1.06.9.73,1.83,1.43,2.66,2.22a4.79,4.79,0,0,1,.79,6.08,7.8,7.8,0,0,1-1.75,2.09,15.3,15.3,0,0,1-3.53,2.24,33.28,33.28,0,0,1-7.52,2.46,60.72,60.72,0,0,1-14.9,1.5A63,63,0,0,1,132,113.47a25.74,25.74,0,0,1-3.58-1.54,8.86,8.86,0,0,1-2.08-1.53,3.33,3.33,0,0,1-.4-4.47,9.51,9.51,0,0,1,.93-1.1c.25-.28.54-.52.84-.8-.14-.55-.62-.75-1-1.06a43.33,43.33,0,0,1-11.29-15.69,65.91,65.91,0,0,1-3.81-13.14,17.34,17.34,0,0,1-.2-2.16,3.77,3.77,0,0,1,.09-1,.58.58,0,0,1,.61-.5.6.6,0,0,1,.6.51,1,1,0,0,1,0,.29,43.48,43.48,0,0,0,2,9.43,55.21,55.21,0,0,0,2,5.73,41.58,41.58,0,0,0,11.31,15.65C128.47,102.41,128.86,102.68,129.28,103Zm39.26-36.72a15,15,0,0,0-3.77-1.64,36,36,0,0,0-9.38-1.45,97.89,97.89,0,0,0-14.12.5,128.6,128.6,0,0,0-13.67,2.13,34.51,34.51,0,0,0-7.67,2.47,11.8,11.8,0,0,0-2.9,1.87,9.11,9.11,0,0,0-1.33,1.51,2.43,2.43,0,0,0,0,3,10,10,0,0,0,1.44,1.61,16.36,16.36,0,0,0,4,2.59,36.2,36.2,0,0,0,6.22,2.28,72.87,72.87,0,0,0,11.91,2.13,52.65,52.65,0,0,0,14.51-.38,27.91,27.91,0,0,0,9.72-3.48,17.36,17.36,0,0,0,4.35-3.75,9.42,9.42,0,0,0,1.64-2.87,8.5,8.5,0,0,0,.23-1C167.6,70.32,167.12,69.14,168.54,66.29Zm4.26,30.3c.92.18,1.68.29,2.42.48a4.32,4.32,0,0,0,2.81-.32A12.17,12.17,0,0,0,182.08,94a28.22,28.22,0,0,0,5.65-8.12,24.86,24.86,0,0,0,2.4-11.32,12,12,0,0,0-.77-4.23,4.32,4.32,0,0,0-4.36-2.9,10.73,10.73,0,0,0-4,1c-1.68.72-3.32,1.53-5,2.31a2,2,0,0,0-.36.33c.14.34.27.69.42,1a20.44,20.44,0,0,1,1.41,5.27,24.69,24.69,0,0,1-.47,8.31,37,37,0,0,1-3.49,9.43C173.29,95.58,173.09,96,172.8,96.59ZM129.21,105a5.53,5.53,0,0,0-2,1.91,1.78,1.78,0,0,0,.23,2.37,5.36,5.36,0,0,0,1.35,1.07,24.05,24.05,0,0,0,3.13,1.46,59.8,59.8,0,0,0,31.71,2,37.08,37.08,0,0,0,7.58-2.31,12.85,12.85,0,0,0,3.44-2.08,8.88,8.88,0,0,0,1.53-1.71,3.45,3.45,0,0,0,.49-2.9,1.93,1.93,0,0,0-1.09-1.44c-1.7-.65-3.42-1.26-5.15-1.87a4.34,4.34,0,0,0-.95-.12l-1,1.1a28.14,28.14,0,0,1-8.43,6.21,24.53,24.53,0,0,1-14.31,2.42,36.66,36.66,0,0,1-15.86-5.74C129.65,105.22,129.48,105.14,129.21,105Zm1.71-.87a5.47,5.47,0,0,0,.67.54c1,.56,2,1.16,3,1.65a38.89,38.89,0,0,0,9.19,2.92,23.79,23.79,0,0,0,7.33.43,26.07,26.07,0,0,0,15.62-7.71c.23-.23.41-.51.71-.87a5.71,5.71,0,0,0-1-.29c-1.24-.16-2.49-.28-3.73-.41a66.16,66.16,0,0,0-10.53-.4A92.84,92.84,0,0,0,141.28,101a46.49,46.49,0,0,0-8.93,2.3A3.05,3.05,0,0,0,130.92,104.11ZM173,70.1a3.72,3.72,0,0,0-1.61-1.65,4.13,4.13,0,0,0,.32,1.84Zm-3.44-2.19a1.37,1.37,0,0,0-.15,1.53c.07.13.26.21.44.34A3.27,3.27,0,0,0,169.54,67.91Zm1.9,32a2.42,2.42,0,0,0-.38-.35c-.05,0-.18.12-.27.18a3.57,3.57,0,0,0,.37.31S171.29,100,171.44,99.9Z"/><path d="M257.43,96c-3.84-.16-7.7-.23-11.54-.49a124.9,124.9,0,0,1-15.89-2,69.87,69.87,0,0,1-11.36-3.26,37.27,37.27,0,0,1-6-3,18.43,18.43,0,0,1-7.34-8.49,31.63,31.63,0,0,1-2.34-8.9,68.76,68.76,0,0,1-.11-14c.44-5.47,1.28-10.89,2-16.33.45-3.19.78-6.39,1.12-9.6a20.29,20.29,0,0,0-.42-6.31,12,12,0,0,0-3.48-6.36c-1.69-1.58-3.39-3.14-5.09-4.71-.84-.78-1.71-1.55-2.52-2.37a11.11,11.11,0,0,1-2.64-4.26,5.31,5.31,0,0,1-.16-3.54,7.66,7.66,0,0,1,.6-1.3A2.13,2.13,0,0,1,194,0a1.88,1.88,0,0,1,1.78.74,3.46,3.46,0,0,0,.88.72l4.41,3.27c.89.66,1.76,1.35,2.67,2a19.9,19.9,0,0,0,11.09,3.6c2,0,4,0,6.06-.15,3.37-.19,6.73-.45,10.09-.71,3-.23,6-.5,9.06-.74s6.05-.46,9.07-.67c3.84-.26,7.69-.54,11.53-.74,6.59-.34,13.18-.64,19.78-.36a52,52,0,0,1,12.81,1.94c.83.25,1.64.54,2.45.84A20.44,20.44,0,0,1,307.88,21.9,36.46,36.46,0,0,1,310,30.12a88.89,88.89,0,0,1,.69,19c-.23,3.55-.42,7.11-.72,10.66s-.5,6.91-1.11,10.33a38.14,38.14,0,0,1-2.1,7.48,21.08,21.08,0,0,1-8.28,9.94,35.24,35.24,0,0,1-7.24,3.55,70,70,0,0,1-14.83,3.61A145.44,145.44,0,0,1,257.43,96Zm-.34-1.58a147.75,147.75,0,0,0,18.13-1.07,72.69,72.69,0,0,0,12.54-2.66,39.68,39.68,0,0,0,9.62-4.22,19.76,19.76,0,0,0,8.15-9.83A42.45,42.45,0,0,0,308,64.94c.37-4.22.67-8.45,1-12.67a105,105,0,0,0-.06-18.6,44.55,44.55,0,0,0-2.1-10.16,19.35,19.35,0,0,0-12.49-12.67A46.68,46.68,0,0,0,282.9,8.63a97,97,0,0,0-12.41-.18c-4.91.23-9.82.43-14.72.69-3.41.18-6.82.43-10.23.69-4.27.32-8.54.69-12.81,1-3.17.24-6.34.51-9.51.69-2.78.15-5.58.26-8.37.26a21,21,0,0,1-12.39-4.14c-1.21-.86-2.36-1.82-3.55-2.73s-2.69-2-4-3.07a1,1,0,0,0-1.61.45,4,4,0,0,0-.12,2.82A8.53,8.53,0,0,0,195,8.42c.7.79,1.46,1.53,2.23,2.25,2,1.91,4.11,3.78,6.14,5.7a13.15,13.15,0,0,1,3.61,6.47,24.55,24.55,0,0,1,.42,8.75c-.39,3.69-.9,7.36-1.41,11-.7,5.05-1.41,10.1-1.75,15.19a58.51,58.51,0,0,0,.4,13,29.23,29.23,0,0,0,2.19,7.61,16.74,16.74,0,0,0,6.56,7.49,34.1,34.1,0,0,0,5.78,2.93,67.33,67.33,0,0,0,11.65,3.32c3.73.71,7.51,1.14,11.3,1.5C247.2,94.11,252.34,94.3,257.09,94.39Z"/><path d="M46.38,34.59c.49-.45.75-.73,1-1a10,10,0,0,1,1.81-1.17,2.34,2.34,0,0,1,3.41,1.75,8.2,8.2,0,0,1-.19,3.72A18.33,18.33,0,0,1,49,45.31c-.51.64-1,1.27-1.49,1.95a3.19,3.19,0,0,0-.59,2.55,5.55,5.55,0,0,0,.59-.38c.64-.51,1.23-1.09,1.89-1.55a4.76,4.76,0,0,1,3-.9,2,2,0,0,1,2,1.69A4,4,0,0,1,54.47,50a9.31,9.31,0,0,1-3.26,6.09,3.28,3.28,0,0,1-3.68.83,6.23,6.23,0,0,0,.13,2.36A6.63,6.63,0,0,0,48,61.52a2,2,0,0,0,.92-.91c.47-.68.6-.69,1.38-.18l.28.14a12.32,12.32,0,0,1,1.26-.18,2.56,2.56,0,0,1,2.66,1.8,3.69,3.69,0,0,1-2.67,4.69,2.71,2.71,0,0,1-2.31-.54c-.34-.26-.65-.55-1-.85a30.17,30.17,0,0,0,.64,6.81,3.24,3.24,0,0,0,1.07-1.68,1.33,1.33,0,0,1,1.12-1,3,3,0,0,1,3.78,3.4,4,4,0,0,1-1,2.2,2.54,2.54,0,0,1-3.73.3,11.11,11.11,0,0,1-1.08-1.09c-.33.25-.18.56-.22.82-.11.76-.15,1.54-.33,2.28A6.33,6.33,0,0,1,45.21,82a13.76,13.76,0,0,1-4.46,1.09c-.38,0-.77,0-1.19.09a2.52,2.52,0,0,1-.38.88,1.86,1.86,0,0,1-.9.41,8.36,8.36,0,0,0-3.41,1.82c-1.34,1.1-2.65,2.23-4,3.36A37.06,37.06,0,0,1,26,93.19a12.87,12.87,0,0,1-6.41,2,7.7,7.7,0,0,0-3.93,1.27,11.63,11.63,0,0,0-3.75,3.33,2.6,2.6,0,0,1-.38.43.64.64,0,0,1-.79.12.73.73,0,0,1-.38-.85,3.83,3.83,0,0,1,.34-.63A9.79,9.79,0,0,1,13,96.44c.62-.46,1.27-.89,1.91-1.31a8.86,8.86,0,0,1,4.89-1.53,10.22,10.22,0,0,0,4.68-1.31,28.35,28.35,0,0,0,5-3.42c1.07-.9,2.12-1.82,3.18-2.73a15.83,15.83,0,0,1,4.08-2.68c.08,0,.12-.13.18-.19s0-.1-.06-.1c-.91-.1-1.82-.23-2.72-.3-3.75-.32-7.49-.61-11.23-.93a10.42,10.42,0,0,1-1.56-.28,4.59,4.59,0,0,1-2.84-2.07,8.91,8.91,0,0,1-1.33-3.49A35.75,35.75,0,0,1,16.57,71c-.09-5.68-.07-11.36-.07-17,0-3.81,0-7.61.09-11.41a2.42,2.42,0,0,0-.85-2.17,3.58,3.58,0,0,0-2.68-.82,1.51,1.51,0,0,0-1.25.87,8,8,0,0,0-.54,1.48,10.87,10.87,0,0,0,.13,5c.55,2.69,1.16,5.36,1.74,8a14.29,14.29,0,0,1-.08,6.44,9.22,9.22,0,0,1-2.25,4.29c-.56.6-1.17,1.15-1.74,1.73S8,68.46,7.48,69a6.92,6.92,0,0,0-1.72,4.78c0,.58,0,1.16,0,1.74A17.69,17.69,0,0,1,5,81.25a37.87,37.87,0,0,1-3.19,8,6.79,6.79,0,0,1-.54.85.73.73,0,0,1-.92.17.7.7,0,0,1-.31-.87,10.94,10.94,0,0,1,.51-1,37.3,37.3,0,0,0,3.21-8.48,16.4,16.4,0,0,0,.46-4.58c0-.82,0-1.64,0-2.45a7.88,7.88,0,0,1,1.85-4.61,23.59,23.59,0,0,1,1.66-1.8c.44-.45.9-.87,1.36-1.3A9,9,0,0,0,11.89,59a16,16,0,0,0-.41-4.58c-.61-2.73-1.22-5.45-1.74-8.19a11.45,11.45,0,0,1,.09-5c0-.14.06-.29.11-.42.78-2.48,2.62-3.38,5.08-2.49.45.16.87.36,1.28.53.31-.18.25-.44.24-.66-.05-1.54-.13-3.08-.19-4.61s-.14-3.27-.15-4.91a5.74,5.74,0,0,1,.33-1.83,1.15,1.15,0,0,1,1.66-.64,3.07,3.07,0,0,0,1.79.35c2.07,0,4.14,0,6.21,0,2.41,0,4.81-.15,7.22-.21s4.62-.06,6.93-.09l.58,0a4.87,4.87,0,0,1,4.56,3.4,13.66,13.66,0,0,1,.76,3.52C46.27,33.55,46.31,33.92,46.38,34.59ZM17.83,28a8,8,0,0,0-.15,1c0,.77,0,1.54.08,2.31.26,3.88.45,7.78.39,11.68-.06,4.71-.14,9.43-.17,14.14,0,4,0,7.89,0,11.84a4.08,4.08,0,0,0,.26,2l28.13.73c.24,0,.48,0,.72,0l.12-.06.14-.12a10.2,10.2,0,0,0-.22-2.69q-.63-5.73-1.27-11.47c-.39-3.44-.72-6.89-.8-10.35-.09-3.75-.17-7.51-.26-11.26,0-.57,0-1.15-.06-1.73a12.87,12.87,0,0,0-.86-4.07,3.21,3.21,0,0,0-2.72-2.07,26,26,0,0,0-4.75-.1c-5.39.27-10.77.43-16.17.23C19.52,28,18.75,28,17.83,28ZM47.44,73.37c-.24,0-.52-.08-.8-.09-.91,0-1.82-.08-2.74-.1l-20.34-.57-4.47-.15a4.49,4.49,0,0,0-.87.16,15,15,0,0,0,1.18,5.51c0,.09.1.17.14.26a3.33,3.33,0,0,0,2.57,1.88c.76.11,1.52.2,2.29.27,2,.17,3.93.33,5.89.48,2.55.21,5.08.47,7.63.58a23.36,23.36,0,0,0,4.17-.25,11.21,11.21,0,0,0,2.6-.82,4.26,4.26,0,0,0,2-1.79A8.09,8.09,0,0,0,47.44,73.37Zm-.82-27.91a2.24,2.24,0,0,0,.44-.26A17.38,17.38,0,0,0,50.87,38a8.82,8.82,0,0,0,.34-2.84,3.43,3.43,0,0,0-.13-.85.79.79,0,0,0-1-.55,3.89,3.89,0,0,0-.79.33,7.44,7.44,0,0,0-2.1,1.93,3,3,0,0,0-.73,2.11c.07,2.1.07,4.21.1,6.32C46.55,44.76,46.59,45,46.62,45.46Zm.86,5.89c.17.94.31,1.73.47,2.53a10.91,10.91,0,0,0,.32,1.25.6.6,0,0,0,.82.38,5.5,5.5,0,0,0,1.34-.81,8.14,8.14,0,0,0,2.43-4.33,3.69,3.69,0,0,0,0-1.15.72.72,0,0,0-.87-.73,4.12,4.12,0,0,0-2.26.87C49,50,48.19,50.73,47.48,51.35ZM51.84,62c-.14,0-.38,0-.62.06s-.56.13-.83.21c-.9.27-1.15.73-.87,1.61a2.16,2.16,0,0,0,1,1.32,1.74,1.74,0,0,0,.83.19,2.06,2.06,0,0,0,1.71-2.52C52.92,62.23,52.59,62,51.84,62Zm1.84,10.82c-.06-.32-.07-.46-.1-.6a1.26,1.26,0,0,0-1.16-1.08,1,1,0,0,0-1.13.69,7.1,7.1,0,0,0-.5,1.17,1.39,1.39,0,0,0,1,1.64,1,1,0,0,0,1.31-.55A8,8,0,0,0,53.68,72.79Z"/><path d="M171.43,122c.08-1,.13-1.92.25-2.82a22.92,22.92,0,0,1,.52-3,6.77,6.77,0,0,1,4.05-4.6,13.67,13.67,0,0,1,4.19-1l1.43-.13a5.24,5.24,0,0,0,3.3-1.61c.3-.32.62-.61.92-.93a9.41,9.41,0,0,1,4.29-2.54,18.54,18.54,0,0,1,7.3-.45c1.68.17,3.34.4,5,.57a4.76,4.76,0,0,0,1.12-.13c.66-.09,1.32-.26,2-.29a23.91,23.91,0,0,1,7.71.82,13.29,13.29,0,0,1,6.88,4.76,22.52,22.52,0,0,1,3.83,8c.37,1.39.62,2.82.94,4.3l1.49,1a19.67,19.67,0,0,1,4.64,4.51,11.08,11.08,0,0,1,2.21,8,11.43,11.43,0,0,1-1.43,4.21,18.59,18.59,0,0,1-3.9,4.79,29.62,29.62,0,0,1-5.28,3.76,51.49,51.49,0,0,1-14.53,5.47,78.92,78.92,0,0,1-22.1,1.65A69.13,69.13,0,0,1,168,153a40.42,40.42,0,0,1-9.12-4.29,21.41,21.41,0,0,1-4-3.31,12.91,12.91,0,0,1-2.41-3.57,8.8,8.8,0,0,1,0-7.41,12.32,12.32,0,0,1,2.33-3.46,22.26,22.26,0,0,1,4.86-3.83,49.66,49.66,0,0,1,9.69-4.44Zm-.05,1.79a5.5,5.5,0,0,0-.76.12,50.82,50.82,0,0,0-10,4.47,22.51,22.51,0,0,0-3.93,2.92,12.49,12.49,0,0,0-2.28,2.79,7.46,7.46,0,0,0-.09,7.94,14.77,14.77,0,0,0,1.42,2,17.4,17.4,0,0,0,3.81,3.29,35.38,35.38,0,0,0,6.8,3.46,64.9,64.9,0,0,0,18.55,4,78.45,78.45,0,0,0,25.2-2,46.22,46.22,0,0,0,13.5-5.7,25.23,25.23,0,0,0,4.51-3.59,15.38,15.38,0,0,0,2.93-4.09,9.35,9.35,0,0,0,1-4,9.63,9.63,0,0,0-1.6-5.31,16.68,16.68,0,0,0-4.62-4.7c-.1-.07-.27,0-.46-.06v1.32c0,1.69.05,3.37,0,5.05a19.65,19.65,0,0,1-.46,3.14,6.35,6.35,0,0,1-3.81,4.6,12.93,12.93,0,0,1-2.58.9,66.19,66.19,0,0,0-8.16,2.37A23.56,23.56,0,0,1,202,144c-2.07-.05-4.14-.14-6.21-.17-3.8-.05-7.6-.05-11.4-.1-1.25,0-2.5-.07-3.74-.21a9.31,9.31,0,0,1-7.76-5.69,15.44,15.44,0,0,1-1.42-6.58c0-2,0-3.94,0-5.92C171.44,124.89,171.4,124.41,171.38,123.81Zm1.74-.62a5,5,0,0,0-.1.72c0,2.85,0,5.69.06,8.53a11.83,11.83,0,0,0,1.94,6.11,7,7,0,0,0,3.78,3,12.2,12.2,0,0,0,2.67.56c1.34.11,2.69.09,4,.1,2.26,0,4.52,0,6.78,0q5,.08,10,.24a21.39,21.39,0,0,0,7.93-1.32,66.78,66.78,0,0,1,7.75-2.26,14.46,14.46,0,0,0,3-1.1,4.66,4.66,0,0,0,2.45-3.07,8.86,8.86,0,0,0,.29-1.26,35.17,35.17,0,0,0,0-9.45,2.37,2.37,0,0,0-.37-.32c-.42-.24-.84-.47-1.27-.68a31.67,31.67,0,0,0-8.62-2.81,38.19,38.19,0,0,0-8.59-.93,1,1,0,0,1-.56-.08,3.44,3.44,0,0,0-1.85-.16c-2,.08-4,.16-6.06.27-1.58.08-3.17.16-4.75.31A98,98,0,0,0,178,121.84,41.86,41.86,0,0,0,173.12,123.19Zm50.11-1.37a6.94,6.94,0,0,0-.37-2.33,21.69,21.69,0,0,0-3.8-8,11.61,11.61,0,0,0-5.84-4,21.82,21.82,0,0,0-5.55-.85,9.16,9.16,0,0,0-3.85.42,2,2,0,0,1-.85,0c-.33,0-.66-.14-1-.17-2-.18-4-.42-6-.5-3.57-.16-6.9.41-9.42,3.34a6.85,6.85,0,0,1-5.09,2.37,13.4,13.4,0,0,0-4.23.82,5.4,5.4,0,0,0-3.58,4c-.26,1.21-.36,2.47-.51,3.71a3.4,3.4,0,0,0,.11.84c1.64-.41,3.17-.82,4.71-1.18a90.21,90.21,0,0,1,14-2.21c2.12-.15,4.23-.25,6.35-.37a61.24,61.24,0,0,1,13.66.67,37.87,37.87,0,0,1,10.61,3.17A5.32,5.32,0,0,0,223.23,121.82Z"/><path d="M74.77,68.48l3.06-.74c.8-.19,1.59-.39,2.39-.57a3.34,3.34,0,0,1,.7-.14,1.2,1.2,0,0,1,1.42,1.25,6.24,6.24,0,0,1-.13,1.43c-.16.85-.37,1.69-.56,2.53-.05.23-.08.47-.13.78a4.14,4.14,0,0,0,.73.07c.62,0,1.25-.12,1.87-.15a12.05,12.05,0,0,1,1.59,0A2,2,0,0,1,87.83,75c.1.81.17,1.63.27,2.44a3.84,3.84,0,0,0,.23.82,1.62,1.62,0,0,0,.27.39,3,3,0,0,0,1.62-.42c1.27-.59,2.55-1.14,3.75-1.85A9.75,9.75,0,0,1,100.61,75c.66.1,1.33.16,2,.3a.67.67,0,0,1,.55.86.7.7,0,0,1-.73.55,8.42,8.42,0,0,1-1-.07c-.38,0-.76-.11-1.14-.16a8,8,0,0,0-5.14,1c-1.24.73-2.56,1.34-3.86,2a9.75,9.75,0,0,1-1.89.7,1.87,1.87,0,0,1-2.49-1.33,12.22,12.22,0,0,1-.45-2.26,5.43,5.43,0,0,0-.39-2,8.19,8.19,0,0,0-3.12,0,14.48,14.48,0,0,1-1.72.16,1.17,1.17,0,0,1-1.31-1.47c.13-.9.37-1.79.55-2.68.12-.56.22-1.12.31-1.61-.31-.37-.6-.24-.86-.17l-4.63,1.13a4.71,4.71,0,0,1-.85.14,1.17,1.17,0,0,1-1.24-1.27,6.2,6.2,0,0,1,.19-1.13c.26-1.13.54-2.24.78-3.37a7.62,7.62,0,0,0,.14-1.43,1.56,1.56,0,0,0-1.15-1.65,13,13,0,0,0-2.67-.58A25.64,25.64,0,0,0,65,60.51a3.63,3.63,0,0,1-2-.2,1,1,0,0,1-.66-.87.66.66,0,0,1,.32-.73.78.78,0,0,1,.67,0,2,2,0,0,0,1.77.31,23.09,23.09,0,0,1,7.46.39,4.87,4.87,0,0,1,.83.23,3.09,3.09,0,0,1,2.38,3.48,26.22,26.22,0,0,1-.54,3.27C75.14,67,75,67.61,74.77,68.48Z"/><path d="M257.77,43.07c.18-.29.36-.62.58-.92.58-.77,1.15-1.54,1.78-2.27a1.33,1.33,0,0,1,1.69-.33,2.73,2.73,0,0,1,1.71,1.64,7.76,7.76,0,0,0,.46.9c.19-.62.31-1.08.48-1.52a7.29,7.29,0,0,1,.52-1.18,1,1,0,0,1,1-.64,1.11,1.11,0,0,1,1,.75c.14.41.27.82.4,1.23l.34,1.07a8,8,0,0,0,.61-.69c.38-.56.73-1.13,1.1-1.7a.88.88,0,0,1,1-.46,1.1,1.1,0,0,1,.77.8,1.76,1.76,0,0,1,.07.56c0,.58-.05,1.16-.1,1.73s-.09,1.05-.15,1.66c.38.06.7.07,1,.15a.6.6,0,0,1,.32.93,1.71,1.71,0,0,1-2,.7,1.18,1.18,0,0,1-.78-1.12c0-.53,0-1.06,0-1.57-.32-.2-.44,0-.58.22-.33.47-.64,1-1,1.4a.79.79,0,0,1-1.44-.31c-.12-.34,0-.78-.48-1.07-.13.52-.26,1-.39,1.49a4.18,4.18,0,0,1-.2.69.61.61,0,0,1-.69.41.94.94,0,0,1-.58-.33,5.36,5.36,0,0,1-.44-1c-.79,1-1.57,1.95-2.91,2a3.49,3.49,0,0,1-3.15-1.16,13.2,13.2,0,0,1-1.14.9,3.19,3.19,0,0,1-4.68-1.57A1.1,1.1,0,0,1,252,43.4a.81.81,0,0,1,.86-.41.6.6,0,0,1,.52.6,1.31,1.31,0,0,0,.71,1.17,1.41,1.41,0,0,0,2-.39.68.68,0,0,0,0-.65,3.86,3.86,0,0,0-.85-.76c-.53-.35-1.08-.68-1.17-1.38a3,3,0,0,1,.61-2.31,1.6,1.6,0,0,1,1.51-.65,1.32,1.32,0,0,1,1.12,1.89.62.62,0,0,1-1,.3,3.22,3.22,0,0,1-.47-.5c-.47.79-.46.88.08,1.29S257.12,42.55,257.77,43.07ZM261.1,41a7.85,7.85,0,0,0-1.62,2.27,2.79,2.79,0,0,0-.26,1,.57.57,0,0,0,.26.45,2.14,2.14,0,0,0,1.8,0,1.81,1.81,0,0,0,1.11-1.7C262.31,42.1,262.16,41.26,261.1,41Z"/><path d="M224.71,56.24l-1.47.14a6.68,6.68,0,0,0-.7,2.54c-.13.46-.17.95-.26,1.42a2.84,2.84,0,0,1-.08.42.77.77,0,0,1-.84.63.8.8,0,0,1-.64-.84,6.28,6.28,0,0,1,.16-1.13c.17-.84.35-1.68.56-2.64h-.93a11.12,11.12,0,0,1-1.29,0,1,1,0,0,1-.63-.29.85.85,0,0,1-.16-.65.61.61,0,0,1,.36-.39c.32-.08.67-.06,1-.11a5.21,5.21,0,0,0,2.35-.56,1.27,1.27,0,0,1,.68-.08c.23,0,.48.14.7.09,1.58-.36,3.15,0,4.73,0a4.33,4.33,0,0,1,1.14.12,1,1,0,0,1,.7,1.25.62.62,0,0,1-1,.46,3.05,3.05,0,0,0-2.31-.32,1.93,1.93,0,0,0-.39,1.42h1.11c.48,0,1,0,1.45,0a.92.92,0,0,1,.85.44.88.88,0,0,1,.11.66.87.87,0,0,1-.53.4,2.86,2.86,0,0,1-.71,0,5.68,5.68,0,0,0-2.57.35,2.22,2.22,0,0,0-.06,1.57,7.43,7.43,0,0,0,3.29-1,2.55,2.55,0,0,1,1.69-.41,12,12,0,0,0,.62-1.71,4.43,4.43,0,0,1,1.8-2.5,1.2,1.2,0,0,1,2,.63,8.87,8.87,0,0,1,.47,2.1c.09.9.05,1.82.05,2.74a1.21,1.21,0,0,1-.14.55.62.62,0,0,1-.71.36.89.89,0,0,1-.55-.39,12.83,12.83,0,0,1-.28-1.49L233,60c-.16.52-.3,1-.46,1.52a5.52,5.52,0,0,1-.31.8.74.74,0,0,1-1.3,0,7.87,7.87,0,0,1-.46-1.06c-.75.28-1.5.58-2.26.84a6.49,6.49,0,0,1-2.69.38c-.91-.07-1.31-.5-1.23-1.42.1-1.14.28-2.28.44-3.43A2.72,2.72,0,0,0,224.71,56.24Zm9.64,2.09c0-.55.12-.94-.35-1.16a1.61,1.61,0,0,0-.68,1.27Z"/><path d="M236.11,74c.6-.17,1-.32,1.5-.42a6.16,6.16,0,0,1,1.41-.21,1.25,1.25,0,0,1,.73.37.64.64,0,0,1,.18.78c-.14.29-.37.5-.68.43-1.18-.25-2.13.35-3.22.77l-.23,2.05a4.45,4.45,0,0,0,1.83-.61,4.59,4.59,0,0,1,.93-.36.75.75,0,0,1,.6.25.82.82,0,0,1,.05.67,1,1,0,0,1-.48.52c-.87.38-1.77.74-2.66,1.08a1.84,1.84,0,0,1-.58,0,1.06,1.06,0,0,1-1.09-.77c-.14-.4-.23-.82-.38-1.33-.49.31-.9.53-1.29.8a2.89,2.89,0,0,1-2.06.48c-.58-.06-.92-.32-.94-.9a11.24,11.24,0,0,1,.16-2,11.28,11.28,0,0,0,.38-1.89l-2.74,1.71c-.11.53-.22,1.1-.34,1.66a2.73,2.73,0,0,1-.15.56c-.19.5-.59.76-1,.66a1,1,0,0,1-.65-1,4.14,4.14,0,0,1,.19-.83A10.46,10.46,0,0,0,226,75c.09-1.3.09-2.6.15-3.89a6.1,6.1,0,0,1,.22-1.42.7.7,0,0,1,1.23-.3c.22.19.37.44.69.47a2.7,2.7,0,0,1,2.12,1.75c.41,0,.39-.36.55-.56a.64.64,0,0,1,.76-.24.62.62,0,0,1,.42.69,19.11,19.11,0,0,1-.22,2c-.16,1-.39,1.88-.58,2.83a4.23,4.23,0,0,0,0,.62c1.23-.3,1.95-1.31,3-1.72a6.09,6.09,0,0,0,.28-1.84,7.11,7.11,0,0,1,.16-1.14.84.84,0,0,1,.43-.54c1-.34,2-.64,3-.94a2.41,2.41,0,0,1,.71,0,1,1,0,0,1,.87,1.45c-.13.32-.51.57-.81.4-.9-.52-1.65-.07-2.51.28Zm-8.36-2.62a3.75,3.75,0,0,0,0,1.91c1-.31,1.24-.61,1.13-1.17S228.52,71.38,227.75,71.37Z"/><path d="M266.37,57.22A8.31,8.31,0,0,0,265.6,61c.49.24.76-.08,1.06-.29a8.33,8.33,0,0,1,.67-.54,4.59,4.59,0,0,1,.84-.3,4.82,4.82,0,0,0,.29-1.52c.11-.56.21-1.13.37-1.68a1.18,1.18,0,0,1,1.06-.86l.14,0c1.82-.23,1.85-.22,3.23,1.14.25-.52.47-1,.74-1.53a1.22,1.22,0,0,1,1.95-.27,4.29,4.29,0,0,1,.68,1.08c.31.6.57,1.21.93,2a3.51,3.51,0,0,0,.39-.68c.22-.74.38-1.49.61-2.23a1.63,1.63,0,0,1,.45-.71.88.88,0,0,1,1.28,0,.78.78,0,0,1,0,1.25,1.86,1.86,0,0,0-.55,1,16.89,16.89,0,0,0-.63,3.39c0,.49-.1,1-.65,1.18s-1-.33-1.24-.77c-.42-.7-.79-1.43-1.2-2.14a5.15,5.15,0,0,0-.46-.54c-.06.57-.08.94-.15,1.3a6,6,0,0,1-.28,1.11.76.76,0,0,1-1.19.34,1.28,1.28,0,0,1-.35-.26c-.12-.14-.21-.31-.37-.54-.22.36-.4.69-.61,1-.39.55-.77,1.11-1.2,1.62a1.68,1.68,0,0,1-2.34,0c-.28-.31-.51-.66-.79-1l-.95.73a2.63,2.63,0,0,1-2.19.45A1.14,1.14,0,0,1,264,61.46a7.64,7.64,0,0,1,.09-1.72,13.43,13.43,0,0,1,1.16-3.55c.48-1,1.48-1,2.16-.12a.64.64,0,0,1-.34,1A3.6,3.6,0,0,1,266.37,57.22Zm5.22.24c-.2,0-.43-.1-.66-.13l-.68-.1a6.37,6.37,0,0,0-.4,3c0,.35-.1.77.36,1.07.74-.33,1-1.07,1.29-1.73A2.19,2.19,0,0,0,271.59,57.46Z"/><path d="M231.05,27.71a1.83,1.83,0,0,0,.42-1.19,5.8,5.8,0,0,1,.11-.85.72.72,0,0,1,.8-.48.65.65,0,0,1,.51.62,8.51,8.51,0,0,1-.07,1.43c-.1.77-.26,1.52-.38,2.28a5.45,5.45,0,0,0-.05.68c.32.23.48,0,.64-.13a3.56,3.56,0,0,0,1.12-2.13,25,25,0,0,1,.54-2.54c.14-.54.52-.82.89-.76s.72.5.63,1.13c-.11.81-.3,1.61-.45,2.41a3,3,0,0,0,0,1.77c.67-.17,1.21-.94,2-.34.06-.44.12-.76.13-1.08,0-.91.05-1.83.09-2.74a3,3,0,0,1,.14-.85.86.86,0,0,1,1-.58c.52.21.81.69.56,1.13a2.68,2.68,0,0,0-.27,1.53c0,.87.08,1.73.12,2.59,0,0,.07.06.18.15l.68-.39a1.75,1.75,0,0,1,.66-.26.81.81,0,0,1,.62.25.73.73,0,0,1,0,.66,3.78,3.78,0,0,1-2.16,1.58,1.27,1.27,0,0,1-1.2-.35,5.75,5.75,0,0,1-.6-.74c-.33.26-.65.52-1,.76a1.73,1.73,0,0,1-1.36.37,10.16,10.16,0,0,1-1.27-.44,10.2,10.2,0,0,1-1,.74,2.43,2.43,0,0,1-.93.34,1.09,1.09,0,0,1-1.36-1,6.89,6.89,0,0,1-.09-.87c-.25.23-.41.37-.56.52-.43.46-.82.94-1.27,1.37a2.33,2.33,0,0,1-2.93,0,1.69,1.69,0,0,1-.66-1.23,7.68,7.68,0,0,1,1.14-4.41,2.71,2.71,0,0,1,2.52-1,2.18,2.18,0,0,1,.94.62C230.37,26.72,230.68,27.21,231.05,27.71Zm-4.2,2.78a1.92,1.92,0,0,0,.28.64.6.6,0,0,0,.8.05A3.77,3.77,0,0,0,229.48,29a1.58,1.58,0,0,0-.34-1.35c-.49-.69-1.22-.67-1.57.07A7.9,7.9,0,0,0,226.85,30.49Z"/><path d="M231.85,44.64c-.15.39-.27.69-.38,1s-.19.64-.33.95a.72.72,0,0,1-1.37-.37c.1-.72.2-1.43.36-2.13.24-1,.52-2,.8-3.06a4.94,4.94,0,0,1,.38-1.08.87.87,0,0,1,.59-.34.6.6,0,0,1,.62.5,2.78,2.78,0,0,1,0,.71c0,.17,0,.33-.05.68l1.06-.81a6.85,6.85,0,0,1,.7-.5.9.9,0,0,1,1.08,0,1.07,1.07,0,0,1,.1,1.33,1.68,1.68,0,0,1-.68.49,3.44,3.44,0,0,0-1.84,1.25,4.26,4.26,0,0,0,2.23,2.06,1,1,0,0,0,1.18-.27,1.92,1.92,0,0,0,.26-.34,1.62,1.62,0,0,1,1.61-1,8.1,8.1,0,0,0,.21-2.92,1,1,0,0,1,.71-1.12,10.68,10.68,0,0,1,4.12-.52.61.61,0,0,1,.61.52,1.1,1.1,0,0,1-.18.66.82.82,0,0,1-.5.24c-.28,0-.57,0-.86,0l-2.05.21L239.89,42c.19.08.33.19.45.18.52-.06,1-.17,1.56-.23a.7.7,0,0,1,.78.49.68.68,0,0,1-.42.82,8.1,8.1,0,0,1-1,.28,12.73,12.73,0,0,0-1.25.33c-.12,0-.16.28-.26.47a3.28,3.28,0,0,0,2.06,0c.56-.13,1.11-.3,1.68-.41a.64.64,0,0,1,.75.52.67.67,0,0,1-.28.75,1.75,1.75,0,0,1-.65.3c-.85.16-1.7.32-2.56.43-.56.08-1.15,0-1.66.36-.25.2-.55.06-.79-.14a6.41,6.41,0,0,1-.52-.58c-.2.28-.34.54-.53.76a2.09,2.09,0,0,1-2.49.55,5.44,5.44,0,0,1-1.93-1.23Z"/><path d="M245,76.18c-.6,0-1,0-1.46,0a1.59,1.59,0,0,0-1.75,1.38,6.28,6.28,0,0,1-.33,1,.6.6,0,0,1-.74.29.58.58,0,0,1-.45-.65,5.48,5.48,0,0,1,.24-1.27,15.91,15.91,0,0,1,2-4.32,6.58,6.58,0,0,1,.83-1,1.22,1.22,0,0,1,1.94.33,9.47,9.47,0,0,1,1.37,4.35,3.14,3.14,0,0,0,.07.51c.37.33.68.61,1,.89a1.37,1.37,0,0,0,2.11-.25.55.55,0,0,0-.05-.5,3.81,3.81,0,0,0-1-.62c-1.94-.85-1.61-2.49-.85-3.71a1.94,1.94,0,0,1,2.34-1,2.47,2.47,0,0,1,1.67,2,.71.71,0,0,1-.35.54A.77.77,0,0,1,251,74a6.14,6.14,0,0,1-.65-.77.66.66,0,0,0-1.16.19A3.22,3.22,0,0,0,249,74a.61.61,0,0,0,.29.74c.37.23.76.42,1.13.63a2.05,2.05,0,0,1,.11,3.58,3,3,0,0,1-3.5.17,1.4,1.4,0,0,0-1-.34c-.65,0-.84-.22-.87-.87S245.06,76.86,245,76.18Zm-1-3.09c-.43.6-.84,1-.83,1.66.54-.06,1,.1,1.55-.22-.11-.29-.17-.51-.27-.71S244.26,73.43,244.05,73.09Z"/><path d="M220.21,30.66c-.4.56-.64,1-1,1.32a6.66,6.66,0,0,1-1.21,1.22,1.43,1.43,0,0,1-2.26-.88,3.47,3.47,0,0,1-.1-.85c0-.63,0-1.25.08-1.88.13-1.43.3-2.86.45-4.29.06-.52.28-.82.62-.86a1.29,1.29,0,0,1,1.25.55.77.77,0,0,1-.08.66,1.74,1.74,0,0,0-.44,1.33c-.1,1.29-.21,2.58-.3,3.88a5.57,5.57,0,0,0,.11.85,7.81,7.81,0,0,0,.62-.59,8.86,8.86,0,0,0,1.34-2.7c.24-.68.47-1.36.74-2a.7.7,0,0,1,.69-.44.78.78,0,0,1,.74.57,4.15,4.15,0,0,1,.12.85c0,.63,0,1.25,0,1.88a3.74,3.74,0,0,0,.9,2.37,3.3,3.3,0,0,0,.84-2.06c.08-1.1.05-2.21.06-3.31,0-.19,0-.38,0-.57a.62.62,0,0,1,.52-.6.63.63,0,0,1,.76.27,3,3,0,0,1,.36,1.08,12.55,12.55,0,0,1-.59,5.12,5.46,5.46,0,0,1-.48,1,1.45,1.45,0,0,1-2.51.23,7.53,7.53,0,0,1-.77-1.21C220.56,31.37,220.44,31.11,220.21,30.66Z"/><path d="M274.1,30.3c.36-.3.69-.57,1-.83a1.65,1.65,0,0,1,.62-.34.82.82,0,0,1,.64.17.88.88,0,0,1,.15.65.89.89,0,0,1-.27.49,8.76,8.76,0,0,1-.95.88,1.85,1.85,0,0,1-2.71-.14,7.89,7.89,0,0,1-.56-.72c-.54.16-.77.68-1.14,1a2,2,0,0,1-1.7.59,1.47,1.47,0,0,1-1.31-1.16,4.13,4.13,0,0,1-.11-.86,14.65,14.65,0,0,1,.7-4.83l.09-.28c.24-.55.64-.85,1.09-.78s.68.49.8.92a.74.74,0,0,1-.34.86,1.29,1.29,0,0,0-.49.65,9.52,9.52,0,0,0-.26,3.72s.07.05.12.09c.28.1.45-.11.58-.29.52-.69,1.05-1.38,1.51-2.11a3.82,3.82,0,0,0,.36-1.08c.15-.6.24-1.23.44-1.81a2.38,2.38,0,0,1,.65-.92.7.7,0,0,1,1.12.42,2.48,2.48,0,0,1,0,.86,16.46,16.46,0,0,1-.55,1.94,4.13,4.13,0,0,0-.19,1.84A1.17,1.17,0,0,0,274.1,30.3Z"/><path d="M243,26.43a2.92,2.92,0,0,1-.56.26A1,1,0,0,1,241.2,26a.85.85,0,0,1,.52-1.06,5.82,5.82,0,0,1,4.2-.36,2.72,2.72,0,0,1,1.7,1.66,4.48,4.48,0,0,1-1.4,5.07,2.88,2.88,0,0,1-3.12.36,1,1,0,0,1-.55-1.3,11.24,11.24,0,0,0,.5-3.25A5,5,0,0,0,243,26.43Zm2.47-.45c-1.2,1.26-1,2.74-.94,4.36a2.26,2.26,0,0,0,1.76-2C246.43,27.45,246.45,26.52,245.44,26Z"/><path d="M255,73.84c.47-.13.91-.28,1.37-.36a6.84,6.84,0,0,1,1.43-.11.6.6,0,0,1,.55.58.67.67,0,0,1-.49.77c-.37.09-.76.12-1.13.2s-.75.19-1.12.3a7.16,7.16,0,0,0-.69.28,6.6,6.6,0,0,0-.08.72,3.6,3.6,0,0,0,.12.61,3.06,3.06,0,0,0,.86,0c.91-.29,1.81-.62,2.71-1,.41-.15.7-.13.9.12a.74.74,0,0,1,0,.94,1.84,1.84,0,0,1-.78.58c-1.05.33-2.12.59-3.19.86a1.89,1.89,0,0,1-.58,0c-1.31-.07-1.59-.28-1.63-1.61s.1-2.48.1-3.72a1.52,1.52,0,0,1,1.17-1.61,32.15,32.15,0,0,1,3.24-.69,1.4,1.4,0,0,1,.81.18A.79.79,0,0,1,259,72c-.27.54-.69.81-1.15.57a3.11,3.11,0,0,0-2.38.06C255,72.79,254.94,72.87,255,73.84Z"/><path d="M283.18,54.94l-.26,1.16a1.32,1.32,0,0,0,.44.16c.48,0,.95-.16,1.43-.19a3.32,3.32,0,0,1,1,.08.74.74,0,0,1,.48.92,1,1,0,0,1-1.53.79,2.32,2.32,0,0,0-1.76,0,1.86,1.86,0,0,0-.09,1.48,8.13,8.13,0,0,0,2.06-.43,5.4,5.4,0,0,0,.67-.25.67.67,0,0,1,.79.15.68.68,0,0,1,0,.92c-.14.18-.32.41-.52.46a32.71,32.71,0,0,1-3.24.68c-1,.13-1.4-.32-1.47-1.32a8.26,8.26,0,0,1,0-.86,1.18,1.18,0,0,0-.34-.89c-.43-.51-.36-.71.19-1.17.11-.09.23-.16.39-.27,0-.41.07-.84.1-1.26a1.65,1.65,0,0,1,.79-1.31,6.08,6.08,0,0,1,3.42-.92,1.76,1.76,0,0,1,.69.2.93.93,0,0,1,.14,1.56.7.7,0,0,1-.66.11C285,54.2,284.18,54.49,283.18,54.94Z"/><path d="M258.52,57.37a4.11,4.11,0,0,1,.65-2.52c.11-.16.21-.33.33-.48a1.81,1.81,0,0,1,3.31.37A5.87,5.87,0,0,1,263.2,56a.67.67,0,0,1-.51.76.65.65,0,0,1-.72-.35c-.27-.44-.24-1-.74-1.35-.81.41-1,.67-1.14,2,.32.21.7.41,1,.67a6.94,6.94,0,0,1,1.27,1.14,1.69,1.69,0,0,1-.39,2.42c-.76.64-3.17.79-4,.06A3.1,3.1,0,0,1,257,59.52c-.16-1,.16-1.55,1.2-2A3.45,3.45,0,0,0,258.52,57.37Zm.4,1c-.42.81-.45.85-.35,1.11a1.92,1.92,0,0,0,.36.6,1.27,1.27,0,0,0,1.08.29c.42,0,.86,0,1.11-.52A4.57,4.57,0,0,0,258.92,58.32Z"/><path d="M275.48,41.3l1.48-.22a6.06,6.06,0,0,1,.71-.1.7.7,0,0,1,.73.56.71.71,0,0,1-.45.8,9.23,9.23,0,0,1-1.26.3,11,11,0,0,0-1.28.19c-.15,0-.23.32-.41.59a6.82,6.82,0,0,0,2.81,0,2.24,2.24,0,0,1,.7-.12.91.91,0,0,1,.57.34.54.54,0,0,1-.09.78,2.47,2.47,0,0,1-1.14.5,33.28,33.28,0,0,1-3.46,0,1,1,0,0,1-1-1,2.38,2.38,0,0,0-.24-1.52.84.84,0,0,1,.09-.66,3.83,3.83,0,0,1,.56-.67c-.11-.15-.16-.29-.26-.36a.8.8,0,0,1-.47-.67,1.08,1.08,0,0,1,.43-.87,1.93,1.93,0,0,1,.63-.34,11,11,0,0,1,3.83-.5.77.77,0,0,1,.83.93c-.05.57-.44.9-1,.7a3.2,3.2,0,0,0-1.56-.11c-.72.07-.82.19-.91,1A2,2,0,0,0,275.48,41.3Z"/><path d="M259.21,28.86c-.15-.1-.23-.19-.31-.2a2.84,2.84,0,0,1-2-1A6.4,6.4,0,0,1,255.5,25a.59.59,0,0,1,0-.14c0-.57.39-1.15.85-1.14a.9.9,0,0,1,.81,1,2.43,2.43,0,0,0,.93,2,.88.88,0,0,0,1.29.07,2.84,2.84,0,0,0,1-1.37,18.57,18.57,0,0,1,.65-1.76,3.3,3.3,0,0,1,.67-.91.67.67,0,0,1,.81-.1.73.73,0,0,1,.42.69,3.35,3.35,0,0,1-.12.85,7.77,7.77,0,0,1-.68,1.59,14.7,14.7,0,0,0-1.49,3.89,1.45,1.45,0,0,0-.08.71c.18.79-.31,1.26-.78,1.74a.71.71,0,0,1-.81.13.63.63,0,0,1-.39-.7c.09-.57.25-1.12.39-1.68C259.05,29.56,259.14,29.19,259.21,28.86Z"/><path d="M246.57,61.08a13.73,13.73,0,0,1-1.87.4,1,1,0,0,1-1.16-1,3.1,3.1,0,0,1,0-.86,7,7,0,0,1,1.57-3.49,1.21,1.21,0,0,1,2.24.33c.18.42.29.88.44,1.36.36-.16.65-.31,1-.43a2.72,2.72,0,0,1,.7-.14.76.76,0,0,1,.76.52.63.63,0,0,1-.37.83A4.94,4.94,0,0,0,248,59.82a2.53,2.53,0,0,0,.41,1.85.66.66,0,0,1-.14.9.86.86,0,0,1-1.05-.19A12.07,12.07,0,0,1,246.57,61.08Zm-1.52-1.37c1.35-.48,1.41-.61.92-1.89C245.39,58.28,245.31,58.93,245.05,59.71Z"/><path d="M267.2,27.12a7,7,0,0,1-2.53,5,1.79,1.79,0,0,1-1.35.41,1.39,1.39,0,0,1-1.45-1.45,9.57,9.57,0,0,1,.23-2A10.34,10.34,0,0,1,263.33,26a2.09,2.09,0,0,1,1.76-1.08,1.77,1.77,0,0,1,2,1.47C267.14,26.64,267.16,26.88,267.2,27.12Zm-1.76-.59c-.94.29-1,.28-1.19.78a7.86,7.86,0,0,0-.82,3,1.79,1.79,0,0,0,.16.52A4.24,4.24,0,0,0,265.44,26.53Z"/><path d="M221.77,45.26a10.5,10.5,0,0,1-.6.94,1.86,1.86,0,0,1-.54.46.71.71,0,0,1-1-.47,1.58,1.58,0,0,1,.21-1.38c1.11-1.36,1.32-3.07,1.84-4.65.14-.46.21-.94.32-1.41a.69.69,0,0,1,.58-.55.74.74,0,0,1,.75.55,2.65,2.65,0,0,1-.09,1.55c-.33.9-.57,1.83-.84,2.73.3.5.56,1,.84,1.4a3,3,0,0,0,.53.68,1,1,0,0,0,1.32.15,1.73,1.73,0,0,1,.62-.34.86.86,0,0,1,.65.18.77.77,0,0,1,.17.64A1.94,1.94,0,0,1,224.9,47a2.81,2.81,0,0,1-2.13-.7A12.89,12.89,0,0,1,221.77,45.26Z"/><path d="M290.39,54.89a4.13,4.13,0,0,0-.52.81.86.86,0,0,0,.5,1.18c.46.26.94.49,1.39.76a1.61,1.61,0,0,1,.76,1.47,1.49,1.49,0,0,1-.49,1.16,3.79,3.79,0,0,1-3.51.78.68.68,0,0,1-.47-.79.63.63,0,0,1,.56-.57c.43-.06.87,0,1.29-.1s.79-.07,1-.56a2.21,2.21,0,0,0-.39-.35,6.94,6.94,0,0,0-.77-.39,2.12,2.12,0,0,1-1.48-2.09A3.12,3.12,0,0,1,290,53.4a1.69,1.69,0,0,1,1.41,0,1,1,0,0,1,.73,1,2.17,2.17,0,0,1-.24,1.39.71.71,0,0,1-.72.39.62.62,0,0,1-.52-.61c0-.19,0-.37,0-.56Z"/><path d="M268.4,75.08a2,2,0,0,1,0,.35c-.07.56-.25.79-.61.81a.93.93,0,0,1-1.07-.74,1.73,1.73,0,0,1,.79-1.86,17.45,17.45,0,0,0,1.8-1.41.93.93,0,0,0,.13-1.2.57.57,0,0,0-.71-.34,6.58,6.58,0,0,0-1.24.7,1.09,1.09,0,0,0-.57,1.07.64.64,0,0,1-.6.67.94.94,0,0,1-.91-.58,1.48,1.48,0,0,1,0-1,5.09,5.09,0,0,1,3.23-2.46,1.81,1.81,0,0,1,1.7.56,2.67,2.67,0,0,1,.11,3.54C269.86,73.81,269.21,74.37,268.4,75.08Z"/><path d="M277,71.52a.91.91,0,0,0-.39.7,1.47,1.47,0,0,1-.73,1.18.82.82,0,0,1-.65,0,1,1,0,0,1-.34-.56c0-.12,0-.28.07-.42.17-.89.33-1.78.51-2.67a3.93,3.93,0,0,1,.23-.83.7.7,0,0,1,1.15-.35c.19.13.36.36.57.41.88.22,1.07.85,1.05,1.63a3.13,3.13,0,0,1-.45,1.92.58.58,0,0,1-.75.25,1,1,0,0,1-.45-.5.71.71,0,0,1,.19-.79c0-.16,0-.33,0-.49h0Z"/><path d="M214.4,18.58c0-.38,0-.76.07-1.13a2.86,2.86,0,0,1,.23-.82.83.83,0,0,1,1.07-.48.81.81,0,0,1,.41,1.17,2.51,2.51,0,0,0-.3,1.64c0,.82-.32,1.09-1,.78a.88.88,0,0,0-.89.07.76.76,0,0,1-1.09-.35,1.87,1.87,0,0,1-.2-.53c-.14-.7-.27-1.4-.39-2.11a1,1,0,0,1,0-.42.69.69,0,0,1,.53-.61.73.73,0,0,1,.75.29,1.25,1.25,0,0,1,.34,1.06A1.55,1.55,0,0,0,214.4,18.58Z"/><path d="M227.18,45.39c.07-.48.17-1.14.26-1.81.12-.95.21-1.91.33-2.86a1.21,1.21,0,0,1,.19-.52.61.61,0,0,1,1-.05,2.37,2.37,0,0,1,.41,1.63c-.21,1-.36,2-.52,3-.08.47-.12,1-.22,1.42a.69.69,0,0,1-.71.59.73.73,0,0,1-.72-.74C227.17,45.87,227.18,45.73,227.18,45.39Z"/><path d="M267.32,79.3a1.4,1.4,0,0,1-1.31-.82.65.65,0,0,1,.29-.85,4.62,4.62,0,0,1,1.08-.32,1,1,0,0,1,1.21.92A1.09,1.09,0,0,1,267.32,79.3Z"/><path d="M28.09,49.36c.48-.43,1.07-.26,1.61-.28,1,0,2.07,0,3.13,0l.68-.88,0,0a.72.72,0,0,0,1,.59l-.58.42a5.08,5.08,0,0,1,.44.75.39.39,0,0,1-.2.56l0,0a.79.79,0,0,0-.51-.88.93.93,0,0,0-1,.13,4.63,4.63,0,0,1-.82.45c.13-.27.57-.35.45-.87a23.33,23.33,0,0,0-4.18,0Z"/><path d="M34.73,44.12c-.56.43-.56.43-.73,1.06-.13-.13-.25-.26-.39-.38s-.09,0-.2,0l-.83,1a2,2,0,0,0-.18-2.26l0,.05c.27.06.62,0,.79.21A1.6,1.6,0,0,0,34.73,44.12Z"/><path d="M40.76,52.54c.63-.13.63-.13.57-.92A13.21,13.21,0,0,0,42,52.87c.24.4.77.59.86,1.11L42,53.47c-.29.45,0,1-.42,1.33l0,0a4.33,4.33,0,0,1,0-.72,1.5,1.5,0,0,0-.87-1.63Z"/><path d="M33.56,51.61c0,.87,0,.87.85.92v0l-.88.56v2.08l0-.05a5.36,5.36,0,0,1-.23-.78c0-.36,0-.73-.07-1.15l-.6,0C33.31,52.83,33.25,52.11,33.56,51.61Z"/><path d="M36.13,46.77c0-.48.09-1,.09-1.44,0-1.09-.2-1.25-1.41-1.2l-.14,0a.94.94,0,0,1,1.15-.2.91.91,0,0,1,.51.61A3.37,3.37,0,0,1,36.13,46.77Z"/><path d="M26.2,49.6l1.89-.24,0,0a1.78,1.78,0,0,1-.45.24c-.41.07-.48.32-.4.66a2.73,2.73,0,0,0-.4,0c-.46,0-.57.16-.41.57a2.5,2.5,0,0,0,.21.35l0,0a.55.55,0,0,1-.57-.63A7.4,7.4,0,0,1,26.2,49.6Z"/><path d="M39.64,50.21c-.71,0-1.43,0-2.15,0a3.4,3.4,0,0,0-1.66.34,1,1,0,0,1,.93-.51c.84,0,1.68,0,2.51,0C39.4,50,39.52,50.15,39.64,50.21Z"/><path d="M24.6,45.6c-.28.06-.34.26-.34.5s0,.44,0,.67A18,18,0,0,1,23.82,45c-.06-.31.24-.33.49-.29l0,0Z"/><path d="M34.44,51.06l-.91.61c-.13-.51-.55-.27-.86-.34l0,.05,1.45-.87,0,0C34.15,50.7,34.15,51,34.44,51.06Z"/><path d="M35,58h2.95A4,4,0,0,1,35,58Z"/><path d="M32.36,57.41,35,58A5.23,5.23,0,0,1,32.36,57.41Z"/><path d="M29,43.29a2.71,2.71,0,0,1,2.23,0l0,0H28.92Z"/><path d="M31.19,51.62a2.3,2.3,0,0,1-2.23,0l-.05,0h2.33Z"/><path d="M26.64,43.57A4.82,4.82,0,0,1,29,43.29l0,0a5.41,5.41,0,0,1-2.32.29Z"/><path d="M42.77,55.72V53.93A1.34,1.34,0,0,1,42.77,55.72Z"/><path d="M37.85,58a4.08,4.08,0,0,1,1.8-.31A3.62,3.62,0,0,1,37.85,58Z"/><path d="M35.88,50.47c-.34.6-.93.59-1.5.61Z"/><path d="M32.71,53.08l-1.21.61A1.34,1.34,0,0,1,32.71,53.08Z"/><path d="M32.67,51.33c-.42.46-1,.23-1.48.29l0,0c.43-.35,1-.23,1.45-.28Z"/><path d="M41.89,56.57l.92-.9A1.13,1.13,0,0,1,41.89,56.57Z"/><path d="M29,51.63c-.49-.08-1,.17-1.45-.29l0,0c.49,0,1-.08,1.44.28Z"/><path d="M31.19,43.29c.41.06.88-.18,1.18.3l0-.05c-.4-.06-.83,0-1.16-.29Z"/><path d="M25.48,43.86c.32-.35.76-.24,1.16-.29l0,0c-.31.4-.76.24-1.16.29Z"/><path d="M35.26,48.29a1.27,1.27,0,0,1,.62-1Z"/><path d="M24.86,47.86l.66.92A1.16,1.16,0,0,1,24.86,47.86Z"/><path d="M40.53,50.5l-1-.31C39.91,50.24,40.29,50.18,40.53,50.5Z"/><path d="M30.38,54.8v.92C30.05,55.27,30.05,55.27,30.38,54.8Z"/><path d="M27.51,51.34c-.32,0-.69.08-.89-.29l0,0c.31,0,.65,0,.87.29Z"/><path d="M24.31,44.74c0-.39.22-.55.58-.58l0,0-.58.58Z"/><path d="M39.59,57.73c.21-.37.6-.24.92-.32Z"/><path d="M34.38,48.78l.72-.33Z"/><path d="M40.45,57.44c.11-.3.4-.27.63-.32Z"/><path d="M41.36,51.68,41,51Z"/><path d="M24.57,47.28l.33.64Z"/><path d="M35.84,47.34c0-.24,0-.52.32-.63Z"/><path d="M24.28,46.71l.33.63Z"/><path d="M30.35,55.66l.32.7Z"/><path d="M30.7,54.23l-.35.62Z"/><path d="M31.55,53.65l-.62.35Z"/><path d="M24.89,44.16c.09-.3.36-.27.59-.3l0,0c-.09.31-.35.25-.58.29Z"/><path d="M31.2,56.71l.64.45A.86.86,0,0,1,31.2,56.71Z"/><path d="M41,57.16l.62-.36Z"/><path d="M31.78,57.12c.24.05.52,0,.63.32Z"/><path d="M31.51,74.46c.52,0,.92.12,1.17,0,.86-.49,1.34,0,1.83.59A1.93,1.93,0,0,1,35,77a1.88,1.88,0,0,1-2.3,1.23,1.85,1.85,0,0,1-1.62-2A13.28,13.28,0,0,1,31.51,74.46Zm1.32,1.13c-.41.8-.33,1.16.22,1.2a.47.47,0,0,0,.36-.14.38.38,0,0,0,.05-.37A6.57,6.57,0,0,0,32.83,75.59Z"/><path d="M25.71,46.14a15.52,15.52,0,0,0,5.56.29A9.07,9.07,0,0,1,25.71,46.14Z"/><path d="M33.73,47.47l.26-.63c.17.34.08.54-.29.6Z"/><path d="M33.51,48.19c.08-.24.15-.47.22-.71l0,0c.07.27.25.59-.23.71Z"/><path d="M31.21,46.47c.11-.31.4-.27.63-.33Z"/><path d="M31.78,46.18l.73-.33Z"/><path d="M25.14,45.85l.63.32C25.53,46.12,25.24,46.17,25.14,45.85Z"/><path d="M24.56,45.56l.64.32Z"/><path d="M39,56c-.12.07-.23.21-.35.21-1.15,0-2.3.06-3.44,0-.73,0-1.44-.23-1.66-1.1l0,.05a3.07,3.07,0,0,0,2.41.88C37,56,38,56,39,56Z"/><path d="M41,55.39c-.31.39-.75.25-1.15.27l0,.05c.33-.33.76-.26,1.16-.29Z"/><path d="M41.62,54.8a.56.56,0,0,1-.59.59l0,0,.58-.58Z"/><path d="M39.88,55.66c-.19.42-.57.24-.88.3l0,0,.87-.29Z"/><path d="M34.41,52.53a11,11,0,0,1,4.92-.43.69.69,0,0,1,.25.14l0,0c-1,0-2.08,0-3.11.07-.71,0-1.41.15-2.11.22Z"/><path d="M39.58,52.24c.4,0,.86-.12,1.18.3l0,0c-.4-.06-.85.1-1.16-.29Z"/><path d="M27.73,50.47a9.24,9.24,0,0,0,3,.3A3.18,3.18,0,0,1,27.73,50.47Z"/><path d="M30.63,50.8l1.21-.62A1.49,1.49,0,0,1,30.63,50.8Z"/><path d="M27.16,50.18l.63.33C27.55,50.46,27.27,50.49,27.16,50.18Z"/></g></g></svg>