<svg xmlns="http://www.w3.org/2000/svg" viewBox="0 0 207.15 202.13"><g id="Layer_2" data-name="Layer 2"><g id="Layer_1-2" data-name="Layer 1"><path d="M84.3,198.45a18.65,18.65,0,0,1-.29,1.89,2.16,2.16,0,0,1-4,.71,2.18,2.18,0,0,1,.2-2.57,14.56,14.56,0,0,1,1.1-1.23,17.27,17.27,0,0,0-3-6.62l-1.37.11c-1.54.13-3.09.33-4.64.37a6,6,0,0,1-5.81-3.5c-.33-.62-.66-1.24-1-1.89-1.92-4.23-3.94-8.43-5.73-12.72a230.72,230.72,0,0,0-19.36-36.61,242.61,242.61,0,0,1-14.21-24.75,129.28,129.28,0,0,1-7.17-18.06A356.24,356.24,0,0,0,6,58.32,74.77,74.77,0,0,1,1.79,45C1.32,43,.78,40.92.24,38.88A4.82,4.82,0,0,1,.22,36a1.09,1.09,0,0,1,1.47-.82c1.36.53,2.43-.1,3.69-.59-.27-1.47-.54-2.84-.78-4.22a21,21,0,0,1-.29-2.09,2.62,2.62,0,0,1,1.85-2.94,18.13,18.13,0,0,1,3.1-.63,14.83,14.83,0,0,1,2.11-.06,107.11,107.11,0,0,0,20-1.82c6.94-1.25,13.89-2.46,20.74-4.12a52,52,0,0,0,6.26-1.91c9.23-3.53,18.35-7.28,27.33-11.4C88.44,4.11,91.28,3,94.12,2A17.75,17.75,0,0,1,99.48.84a7,7,0,0,1,4.79,1.29,4.14,4.14,0,0,0,.65.37c2.41-.62,4.72-1.27,7-1.82A22.75,22.75,0,0,1,117.83,0a8.44,8.44,0,0,1,8.29,5.76A30.24,30.24,0,0,1,127.89,14c.44,4.63.82,9.27,1.23,13.91a203.34,203.34,0,0,0,3.19,21.54c3.11,15.72,9.17,30.31,17,44.22a155.64,155.64,0,0,0,18.86,27,171.35,171.35,0,0,0,33.73,29.4l2.11,1.41a7.47,7.47,0,0,1,.85.63,1.59,1.59,0,0,1-.06,2.56c-1.06.83-2.17,1.58-3.25,2.37-.44.33-.88.68-1.42,1.1.45.55.85,1,1.23,1.52,1.67,2.18,3.35,4.36,5,6.56a5.7,5.7,0,0,1,.75,1.5.93.93,0,0,1-.65,1.16,5.75,5.75,0,0,1-.83.14c-5.47.44-10.64,2.11-15.78,3.87-7.93,2.72-15.84,5.52-23.74,8.34a146.45,146.45,0,0,1-27.22,6.92c-5.73.86-11.3,2.43-17,3.34-4.94.79-9.88,1.59-14.83,2.33-6,.9-12,1.55-17.94,3A17.93,17.93,0,0,0,84.3,198.45Zm-31.5-46.7a1.05,1.05,0,0,0,0,1.24c3.19,5.89,6.06,11.94,8.67,18.11,2,4.74,4.2,9.4,6.32,14.09a18.36,18.36,0,0,0,1.13,2,3.09,3.09,0,0,0,2.19,1.53,12.59,12.59,0,0,0,5.9-.49c-.28-.5-.46-.88-.69-1.22-1.21-1.82-2.42-3.64-3.67-5.43-6.37-9.15-12.92-18.17-18.72-27.7a4.45,4.45,0,0,0-.61-.86c-.11-.09-.38,0-.56,0,.37-.42,0-.86,0-1.28a1.91,1.91,0,0,0-.34-.1.48.48,0,0,0-.17,0c.06.07.12.19.19.2A1.5,1.5,0,0,0,52.8,151.75ZM80.86,10.09a2.29,2.29,0,0,0,1.64-.17l18.27-6a5,5,0,0,0,.72-.4c-1.28-.54-1.42-.63-2.54-.39A30.2,30.2,0,0,0,94,4.37C89.73,6.11,85.49,8,81.22,9.86c-.12.05-.21.19-.3.29a2.36,2.36,0,0,0-.38.1c-.05,0-.08.08-.12.13l.16.1Zm76.6,171.76c1.66-.57,3.33-1.13,5-1.71,8.38-2.93,16.75-5.89,25.13-8.8a84.56,84.56,0,0,1,15.47-4.24,3.2,3.2,0,0,0,.82-.44,45.08,45.08,0,0,0-5.82-7.12l-1.86,1.16c-12,7.62-24.27,14.64-37.43,20a6.65,6.65,0,0,0-1.14.55c-.12.08-.1.37-.15.56l-.82-.12,0,.13Zm-112.75-44a1.14,1.14,0,0,0-.15.34c0,.07.13.14.2.21a.45.45,0,0,0,0-.16,2.26,2.26,0,0,0-.11-.37c-.28-.49-.57-1-.84-1.46A389.45,389.45,0,0,1,24.16,93.58,530.14,530.14,0,0,1,6.49,38.9a4.2,4.2,0,0,0-.8-2c-1.08.34-2.31.25-3.24,1C3,40,3.43,42.1,3.9,44.16A74,74,0,0,0,8,57.46,370.8,370.8,0,0,1,21.2,92.69,117.43,117.43,0,0,0,25.66,105a213.43,213.43,0,0,0,18,32.06,2.81,2.81,0,0,0,.52.66C44.28,137.83,44.53,137.79,44.71,137.83Zm38.88,58.11c.26,0,.42.07.54,0A79.48,79.48,0,0,1,99,192.73c6.69-1,13.39-1.95,20.08-3a172.06,172.06,0,0,0,29.46-7.53c18.95-6.56,36.22-16.31,52.68-27.61.45-.31.86-.7,1.28-1-.12-.2-.16-.36-.26-.44-.39-.3-.79-.59-1.2-.86a173.21,173.21,0,0,1-17.38-13.13,157.13,157.13,0,0,1-33.08-38.81A184.72,184.72,0,0,1,136,70.73c-4.86-13-7.41-26.44-8.9-40.15-.55-5.12-.85-10.26-1.34-15.38a32.52,32.52,0,0,0-1.64-8.28c-1.2-3.25-3.27-4.69-6.75-4.71a14.52,14.52,0,0,0-1.47.1,40.14,40.14,0,0,0-8,1.75c-7.38,2.38-14.77,4.72-22.12,7.18A359.62,359.62,0,0,1,50.6,21.33C44.41,22.72,38.16,23.81,31.93,25a121.82,121.82,0,0,1-21,1.93c-.84,0-1.69.08-2.53.15a2.72,2.72,0,0,0-1.9.74c0,1.6.55,5,1.17,5.76a4,4,0,0,1,.67,2.15,17.37,17.37,0,0,0,.36,2.49A512.12,512.12,0,0,0,28,97.22a355,355,0,0,0,39.65,73.34c3.34,4.71,6.6,9.49,9.89,14.25a16.3,16.3,0,0,0,1.88,2.8c1,.88,1,2.09,1.64,3.08a43.25,43.25,0,0,1,1.92,4Z"/><path d="M159.4,164.8a16.63,16.63,0,0,1-8.68-2.28,11.43,11.43,0,0,1-5.43-7,9.52,9.52,0,0,1,1.58-8.6,14.74,14.74,0,0,1,3.78-3.65c2.09-1.42,4.27-2.71,6.42-4.06a2.47,2.47,0,0,1,1.59-.43,17.8,17.8,0,0,1,11.51,5.12,13.31,13.31,0,0,1,3.45,5.73,10.24,10.24,0,0,1-2.3,10.22,15,15,0,0,1-7.12,4.32A16.61,16.61,0,0,1,159.4,164.8Zm.49-2.17a30.88,30.88,0,0,0,3.42-.55,12.39,12.39,0,0,0,6.3-3.68,8,8,0,0,0,2-7.62,11.36,11.36,0,0,0-3-5.26,14.86,14.86,0,0,0-10-4.4,2.46,2.46,0,0,0-1.36.4c-2.16,1.46-4.32,2.92-6.38,4.5a12.62,12.62,0,0,0-2.42,2.63,6.9,6.9,0,0,0-1.14,5.43,9.12,9.12,0,0,0,4.41,6.4A16,16,0,0,0,159.89,162.63Z"/><path d="M138.85,114.1c-.11.13-.27.49-.54.63a15.93,15.93,0,0,1-2.14.86q-14.56,4.78-29.13,9.53-17.08,5.53-34.18,11a17.63,17.63,0,0,1-2.24.6.87.87,0,0,1-1-.55,1,1,0,0,1,.52-1.23q.87-.39,1.77-.69c8.16-2.69,16.32-5.4,24.49-8.07q19.68-6.43,39.38-12.82a16.49,16.49,0,0,1,2-.55C138.35,112.75,138.9,113.35,138.85,114.1Z"/><path d="M51.82,92.06c-.28-.22-.68-.4-.86-.72s0-1,.59-1.17c.72-.29,1.45-.54,2.2-.76l21.1-6.17q20-5.82,39.52-13.1c1.19-.44,2.37-.9,3.57-1.3a3.79,3.79,0,0,1,1.44-.24,1.21,1.21,0,0,1,.81.53.84.84,0,0,1-.27,1.13,4.91,4.91,0,0,1-1.1.61c-.78.32-1.58.6-2.37.9q-20,7.5-40.51,13.49C68.5,87.41,61,89.5,53.57,91.61,53,91.76,52.48,91.89,51.82,92.06Z"/><path d="M54.34,45.86a11.51,11.51,0,0,0,3.38,1.79,7,7,0,0,1,1.19-1.13,5.14,5.14,0,0,1,1.5-.32c0-1.84-.1-3.73-.16-5.61,0-.49,0-1-.06-1.48A2.38,2.38,0,0,1,61,36.84c.42-.32.57-1,.89-1.41,1.05-1.56,2.52-1.59,3.56,0a17.63,17.63,0,0,1,2.37,5.38A5.59,5.59,0,0,0,69,43.65c.5.48.31,1.2,0,1.79a1.26,1.26,0,0,1-1.17.76,1.11,1.11,0,0,1-1.09-.84c-.28-.8-.46-1.62-.71-2.43a4.73,4.73,0,0,0-.35-.77,3.36,3.36,0,0,0-1.93.79A1.63,1.63,0,0,0,63,44.59a12.84,12.84,0,0,1,.11,2.32c-.05,1-.74,1.4-1.76,1a4.53,4.53,0,0,1-.6-.35c-.35.54-.68,1.07-1,1.59a1.82,1.82,0,0,1-2,.86,14.42,14.42,0,0,1-2.17-.78c-.62-.26-1.21-.6-2.08-1,.12.76.23,1.22.27,1.68a3,3,0,0,1-.07,1,1,1,0,0,1-1.54.52,3.32,3.32,0,0,1-.93-1.12,13.94,13.94,0,0,1-.75-2.4A29.51,29.51,0,0,0,49.61,44a1.63,1.63,0,0,1,.59-2.06,7.71,7.71,0,0,0,1-1.27A23.24,23.24,0,0,1,53,38.77,3.18,3.18,0,0,1,55.12,38a1.77,1.77,0,0,1,2,1.47,4.41,4.41,0,0,1-.78,4.19C55.76,44.37,55.13,45,54.34,45.86Zm9.32-8.74a5,5,0,0,0-.79,3.62,3.58,3.58,0,0,0,2.06-1.15A4.47,4.47,0,0,0,63.66,37.12ZM52.52,44c1.58-1.07,2-1.48,2.39-2.23a1,1,0,0,0-.19-1.36A4,4,0,0,0,52.52,44Z"/><path d="M78.36,52l.12,1.73a2.26,2.26,0,0,0,.7,0c.78-.32,1.54-.7,2.32-1a5.56,5.56,0,0,1,1.42-.39,1.45,1.45,0,0,1,1.56,1.13c0,.74-.66,1.61-1.42,1.51-1.63-.22-2.8.7-4.11,1.36-.2,1.27.27,2.4.24,3.75,1.74-.67,3.4-1,4.5-2.45a1,1,0,0,1,1.72.31,1.41,1.41,0,0,1-.36,1.89,3.6,3.6,0,0,1-.89.56c-1.68.72-3.37,1.45-5.08,2.1a3.82,3.82,0,0,1-1.65.15,1.14,1.14,0,0,1-1-1.54,8.42,8.42,0,0,0,.33-1.63c.06-1.28,0-2.54-1.21-3.26-.11-1,1.37-1.6.13-2.91l-1.47-.63-4,1.54a2.51,2.51,0,0,0-.06,2c.42,1.49.86,3,1.24,4.48a7,7,0,0,1,.22,1.87,1.21,1.21,0,0,1-.58.8.84.84,0,0,1-1.14-.22,4.57,4.57,0,0,1-1-2c0-2-.84-3.68-1.17-5.66-1.1.3-2.06.49-2.48,1.71a1.14,1.14,0,0,1-1.79.33,1.39,1.39,0,0,1-.38-1.7,3.55,3.55,0,0,1,.88-.89,21.07,21.07,0,0,1,2-1.17,53.34,53.34,0,0,1,9.59-3.84,5.57,5.57,0,0,1,1.85-.36A4.7,4.7,0,0,0,79.62,49c1-.45,2.07-.89,3.11-1.32A1.12,1.12,0,0,1,84,49.46c-.5.7-1,1.4-2,1.33C80.6,50.7,79.56,51.42,78.36,52Z"/><path d="M43.86,47.85c-.79.15-1.33.3-1.87.35a1.07,1.07,0,0,1-1-.6.94.94,0,0,1,.14-1.17A4.34,4.34,0,0,1,42,45.6c1-.55,2-1.05,3-1.54a3.85,3.85,0,0,1,1.19-.38,1.75,1.75,0,0,1,1.94,1,5.15,5.15,0,0,1,.52,1.15c.5,2,1,4,1.42,5.94.2,1-.19,1.55-.88,1.61s-1.07-.3-1.27-1.14c-.34-1.44-.6-2.9-1-4.32-.15-.56-.12-1.28-1-1.71,0,.38,0,.63.08.86.47,3-1,5.19-3.27,6.84-1.69,1.23-4.2.21-5-1.89a4.78,4.78,0,0,1-.28-1.45,17.22,17.22,0,0,1,1.92-9.18,7,7,0,0,1,2.37-2.64,1.83,1.83,0,0,1,1.81-.22,1.17,1.17,0,0,1,.81,1.11.9.9,0,0,1-.82.85c-1.1,0-1.61.77-2.06,1.58a15.08,15.08,0,0,0-1.74,8.56,2.34,2.34,0,0,0,.36,1,1,1,0,0,0,1.46.35A4.77,4.77,0,0,0,43.86,47.85Z"/><path d="M77.51,36.58c-.13,1-.29,1.93-.39,2.9-.07.63,0,1.27-.08,1.9-.07.88-.4,1.33-1,1.42s-1-.2-1.4-1c-.51-1.08-1-2.19-1.49-3.27a14.66,14.66,0,0,0-.79-1.3,6.37,6.37,0,0,0-.21,3.15c.13.76.33,1.51.48,2.27a3.73,3.73,0,0,1,.09,1,1,1,0,0,1-.8.87,1,1,0,0,1-1.12-.39,3.44,3.44,0,0,1-.41-1c-.58-2-1.15-4.06-1.72-6.09a6,6,0,0,1-.2-1c0-.45.1-.95.53-1,.78-.2,1.06-.82,1.49-1.36a1.51,1.51,0,0,1,2.53,0A11.46,11.46,0,0,1,74,35.08c.29.46.55.94,1,1.67.23-.64.38-1,.49-1.38.3-1.08.56-2.17.89-3.25A1.37,1.37,0,0,1,77.66,31a1.46,1.46,0,0,1,1.52,1.21c.4,1.49.77,3,1.08,4.51s.51,2.77.67,4.16c.11.93-.21,1.37-.82,1.48S79,42.1,78.78,41.1c-.29-1.51-.56-3-.84-4.54Z"/><path d="M87.7,32.2c.24-.91.35-1.29.45-1.68.18-.75.33-1.52.55-2.26a1.28,1.28,0,0,1,1-1,1.8,1.8,0,0,1,1.58.87,4.66,4.66,0,0,1,.23.81c.41,1.71.84,3.42,1.21,5.14.28,1.29.4,2.63,1.73,3.46a12.08,12.08,0,0,1-.75,1.6,1.46,1.46,0,0,1-1.69.57,1.22,1.22,0,0,1-.82-1.13c-.2-1.25-.38-2.5-.59-3.75a5.39,5.39,0,0,0-.34-.9c-.55.07-.4.42-.45.65a4.38,4.38,0,0,0,0,.63,12,12,0,0,1-.12,1.47,1.12,1.12,0,0,1-1,.91,1,1,0,0,1-1-.6c-.23-.43-.39-.9-.64-1.33-.55-1-1.13-1.94-1.72-2.9-.05-.09-.23-.09-.48-.19a8.67,8.67,0,0,0-.08,1.21c0,.92.13,1.83.19,2.74.09,1.12.2,2.24.23,3.36a1,1,0,0,1-1,.94A1.18,1.18,0,0,1,83.09,40c0-.14-.06-.28-.09-.42-.1-.62-.21-1.25-.32-1.87-.22-1.39-.42-2.78-.69-4.16a2.88,2.88,0,0,1,.19-2,14.09,14.09,0,0,0,.48-1.6,4.11,4.11,0,0,1,.58-1.12,1.53,1.53,0,0,1,2.24-.07,12.06,12.06,0,0,1,1.07,1.57C86.85,30.79,87.13,31.27,87.7,32.2Z"/><path d="M111.29,27.2a6.26,6.26,0,0,0,2.51.6c.49,0,1,0,1.48,0a1.15,1.15,0,0,1,1.18,1,1.21,1.21,0,0,1-.77,1.15,2.93,2.93,0,0,1-1.85.16c-1.74-.25-3.48-.47-5.23-.66a11.19,11.19,0,0,0-1.57.07c.16.8.3,1.48.43,2.16a7.31,7.31,0,0,1,.15,1,1,1,0,0,1-.64,1,1.06,1.06,0,0,1-1.19-.17,4.26,4.26,0,0,1-1.41-2.75,14.87,14.87,0,0,1-.11-1.89,3.27,3.27,0,0,0-.42-2,2.15,2.15,0,0,1,0-2c.16-.52.48-.91,1-.84.78.09,1.13-.4,1.52-.91a6.07,6.07,0,0,1,2.65-2c2.18-.83,3.63.13,3.74,2.44a3.86,3.86,0,0,1-.61,2.41C111.91,26.33,111.63,26.72,111.29,27.2Zm-4.51-.2a4.84,4.84,0,0,0,3.61-2.58c.21-.38.32-.86-.09-1.12a1.11,1.11,0,0,0-.93.15A6.69,6.69,0,0,0,106.78,27Z"/><path d="M38.6,85.85c1.19.52,2.22,1,3.24,1.42a13.23,13.23,0,0,1,1.52.72,1,1,0,0,1,.45,1.27,1.06,1.06,0,0,1-1.38.63c-.8-.27-1.57-.62-2.36-.93l-2.6-1c-.41.71-.77,1.3-1.09,1.92-.62,1.18-1.21,2.39-1.81,3.58-.19.38-.36.77-.58,1.13-.54.89-1.12,1.16-1.67.82s-.69-1-.25-1.89c.71-1.53,1.49-3,2.24-4.55.3-.61.58-1.24.93-2l-4.15-1.8a6.56,6.56,0,0,1-1.48-.79,1.25,1.25,0,0,1-.25-.94.92.92,0,0,1,.94-.68,14.31,14.31,0,0,1,1.4.46L36.32,85a11.47,11.47,0,0,0,.89-1.15c.59-1,1.11-2,1.69-2.92a3.52,3.52,0,0,1,.8-1,.85.85,0,0,1,.77-.07,1.22,1.22,0,0,1,.56.79,2.42,2.42,0,0,1-.36,1.17C40,83.11,39.38,84.35,38.6,85.85Z"/><path d="M97.34,33.1c0,1,0,1.93,0,2.84a6.49,6.49,0,0,1-.2,1.45,1,1,0,0,1-.95.7,1.07,1.07,0,0,1-1.09-.81A4.12,4.12,0,0,1,95,36.23c0-2.67.1-5.35.08-8a5.68,5.68,0,0,1,1.68-3.54A1.56,1.56,0,0,1,99,24.52a5.38,5.38,0,0,1,.84.94c.5.68,1,1.39,1.45,2.08s.8,1.31,1.75,1.36a.77.77,0,0,1,.68.92,3.48,3.48,0,0,0,.29,2.23,1.05,1.05,0,0,1-.43,1.29,1.13,1.13,0,0,1-1.49-.34c-.29-.38-.53-.79-.86-1.3ZM100,29.73c-.49-.76-.83-1.34-1.22-1.89a4.17,4.17,0,0,0-.82-.64,8.12,8.12,0,0,0-.38,3.26C98.38,30.6,99,30.14,100,29.73Z"/><path d="M25.67,31.89a4.73,4.73,0,0,1,.86.53,1.28,1.28,0,0,1,.32,1.71c-.45.79-.87,1.61-1.37,2.37-.7,1.06-1.4,2.11-2.18,3.11-2,2.56-4.8,3.29-7.86,3.36a1,1,0,0,1-1-1.13c0-.63,0-1.26.07-1.88s.3-1,1.08-1a2.2,2.2,0,0,0,1.69-.65c1.67-1.41,3.32-2.84,5-4.24A9.36,9.36,0,0,1,25.67,31.89ZM20,39.07l.18.29a4.12,4.12,0,0,0,.6-.39c.19-.19.55-.35.31-.84Z"/><path d="M58.36,130.92c-.71,1.39-1.32,2.57-1.93,3.75a9.49,9.49,0,0,1-.72,1.29,1,1,0,0,1-1.82-.89c.24-.73.57-1.44.88-2.15a7.89,7.89,0,0,0,1-2.38c-1-.23-2-.43-2.93-.66a15,15,0,0,1-1.62-.47.94.94,0,0,1-.49-1.06.91.91,0,0,1,.92-.73c1,.1,1.94.31,2.91.5a7.68,7.68,0,0,0,2.81.18c.38-.64.78-1.29,1.16-2s.81-1.49,1.24-2.21,1-1,1.5-.79.7.8.31,1.64-.7,1.38-1,2.08c-.25.5-.47,1-.76,1.63a10.76,10.76,0,0,0,1.21.44c1.1.26,2.21.47,3.31.72a4.73,4.73,0,0,1,1.18.42.92.92,0,0,1,.48,1.08.93.93,0,0,1-.92.73,12,12,0,0,1-1.89-.19C61.61,131.61,60.1,131.28,58.36,130.92Z"/><path d="M89.3,47.85a3.94,3.94,0,0,0-1.36,3c.54.65,1.28.63,1.94.82a15.29,15.29,0,0,1,2.2.72,2.78,2.78,0,0,1,.27,4.85,6.24,6.24,0,0,1-3,1A2.94,2.94,0,0,1,86.28,56a1.1,1.1,0,0,1,.53-1.25,1.09,1.09,0,0,1,1.19.17s.09.1.14.15c.33.44.57,1,1.29.93a2.19,2.19,0,0,0,2-1.18,4.94,4.94,0,0,0-1-.65c-.87-.27-1.78-.41-2.65-.7a2.63,2.63,0,0,1-2-3.41,7.17,7.17,0,0,1,2-3.69,2.27,2.27,0,0,1,2.91-.25,3.84,3.84,0,0,1,1.62,2.85,1,1,0,0,1-1.85.5c-.16-.31-.25-.66-.42-1A4.26,4.26,0,0,0,89.3,47.85Z"/><path d="M95.52,47.79c-.76.16-1.44.35-2.12.43a.8.8,0,0,1-.91-.7c0-.29.2-.62.32-.93a.34.34,0,0,1,.16-.13,9,9,0,0,1,2.34-1.36c1.6-.38,3-1.19,4.53-1.71a1.08,1.08,0,0,1,1.26.5,1.06,1.06,0,0,1-.41,1.46c-.56.3-1.16.52-1.73.78-.38.17-.75.36-1.25.6.26.57.48,1.07.69,1.56.45,1,.95,2,1.31,3.1a6.15,6.15,0,0,1,.22,1.87,1,1,0,0,1-.91,1,1.07,1.07,0,0,1-1.17-.7,11.36,11.36,0,0,1-.31-1.43A10.51,10.51,0,0,0,95.52,47.79Z"/><path d="M108.73,49.12c-.91,0-1.34-.35-1.43-.82a1,1,0,0,1,.75-1.13c2.75-1,5.52-2.07,8.28-3.09a11.36,11.36,0,0,1,1.4-.44c.72-.17,1.22.06,1.4.58a1.16,1.16,0,0,1-.64,1.4,9.44,9.44,0,0,1-1.36.55L110,48.74C109.48,48.92,108.94,49.06,108.73,49.12Z"/><path d="M32.33,51.55a1.13,1.13,0,0,1-.86,1.06c-1.61.51-3.21,1-4.83,1.49-.87.25-1.77.44-2.66.63a2.21,2.21,0,0,1-.81,0,1.13,1.13,0,0,1-1-.93,1,1,0,0,1,.63-1,2.86,2.86,0,0,1,1-.34,31.84,31.84,0,0,0,6.08-1.68,6.39,6.39,0,0,1,1.42-.34A1,1,0,0,1,32.33,51.55Z"/><path d="M155.68,150.41l1.71,2.8a3.76,3.76,0,0,0,2.66-.37c.46-.15.88-.47,1.35-.58a1.32,1.32,0,0,1,.95.25.8.8,0,0,1,.14,1.14,4.14,4.14,0,0,1-1.29,1,19.05,19.05,0,0,1-2.1.79c.27.61.54,1.16.74,1.72a.93.93,0,0,1-.42,1.1,1,1,0,0,1-1.19,0,4.35,4.35,0,0,1-.8-1c-1.05-1.68-2.07-3.36-3.1-5-.29-.48-.55-1-.85-1.46-.69-1.13-.52-1.75.75-2.23,1.91-.72,3.84-1.38,5.77-2.06l.21,0a1,1,0,0,1,1.06.5.93.93,0,0,1-.15,1.17,6.71,6.71,0,0,1-1.63.92C158.32,149.53,157.12,149.91,155.68,150.41Z"/></g></g></svg>