<svg width="1174" height="670" viewBox="0 0 1174 670" fill="none" xmlns="http://www.w3.org/2000/svg">
<rect width="1174" height="670" fill="#F6E3B5"/>
<path d="M121.944 300.453H127.19C128.537 300.453 129.784 300.224 130.931 299.765C132.106 299.278 133.124 298.604 133.984 297.744C134.873 296.884 135.546 295.881 136.005 294.734C136.492 293.587 136.736 292.34 136.736 290.993C136.736 289.646 136.492 288.399 136.005 287.252C135.518 286.077 134.844 285.059 133.984 284.199C133.124 283.339 132.106 282.665 130.931 282.178C129.784 281.691 128.537 281.447 127.19 281.447H121.944V300.453ZM115.709 306V275.9H127.276C129.541 275.9 131.633 276.287 133.554 277.061C135.475 277.806 137.152 278.867 138.585 280.243C140.018 281.619 141.136 283.224 141.939 285.059C142.77 286.894 143.186 288.872 143.186 290.993C143.186 293.143 142.785 295.121 141.982 296.927C141.179 298.733 140.047 300.324 138.585 301.7C137.152 303.047 135.475 304.108 133.554 304.882C131.633 305.627 129.541 306 127.276 306H115.709ZM158.033 306.43C155.797 306.43 153.762 305.914 151.927 304.882C150.121 303.85 148.688 302.46 147.627 300.711C146.566 298.962 146.036 296.999 146.036 294.82C146.036 292.641 146.538 290.678 147.541 288.929C148.573 287.18 149.963 285.79 151.712 284.758C153.461 283.726 155.41 283.21 157.56 283.21C159.71 283.21 161.616 283.74 163.279 284.801C164.942 285.862 166.246 287.295 167.192 289.101C168.167 290.907 168.654 292.957 168.654 295.25V296.798H152.056C152.314 297.687 152.73 298.489 153.303 299.206C153.905 299.923 154.636 300.482 155.496 300.883C156.385 301.284 157.331 301.485 158.334 301.485C159.337 301.485 160.255 301.327 161.086 301.012C161.946 300.697 162.677 300.252 163.279 299.679L167.149 303.205C165.773 304.323 164.354 305.14 162.892 305.656C161.459 306.172 159.839 306.43 158.033 306.43ZM151.97 292.584H162.849C162.648 291.695 162.276 290.921 161.731 290.262C161.215 289.574 160.584 289.044 159.839 288.671C159.122 288.27 158.32 288.069 157.431 288.069C156.514 288.069 155.682 288.255 154.937 288.628C154.192 289.001 153.561 289.531 153.045 290.219C152.558 290.878 152.199 291.667 151.97 292.584ZM180.648 306.43C178.584 306.43 176.678 306.172 174.929 305.656C173.181 305.111 171.661 304.337 170.371 303.334L173.295 299.421C174.585 300.281 175.818 300.926 176.993 301.356C178.197 301.786 179.387 302.001 180.562 302.001C181.881 302.001 182.927 301.786 183.701 301.356C184.504 300.897 184.905 300.31 184.905 299.593C184.905 299.02 184.676 298.561 184.217 298.217C183.787 297.873 183.085 297.629 182.11 297.486L177.81 296.841C175.574 296.497 173.883 295.78 172.736 294.691C171.59 293.573 171.016 292.111 171.016 290.305C171.016 288.843 171.389 287.596 172.134 286.564C172.908 285.503 173.983 284.686 175.359 284.113C176.764 283.511 178.427 283.21 180.347 283.21C181.981 283.21 183.572 283.439 185.12 283.898C186.697 284.357 188.173 285.059 189.549 286.005L186.711 289.832C185.479 289.058 184.303 288.499 183.185 288.155C182.067 287.811 180.935 287.639 179.788 287.639C178.728 287.639 177.868 287.84 177.208 288.241C176.578 288.642 176.262 289.173 176.262 289.832C176.262 290.434 176.492 290.907 176.95 291.251C177.409 291.595 178.197 291.839 179.315 291.982L183.572 292.627C185.808 292.942 187.514 293.659 188.689 294.777C189.865 295.866 190.452 297.285 190.452 299.034C190.452 300.467 190.022 301.743 189.162 302.861C188.302 303.95 187.141 304.825 185.679 305.484C184.217 306.115 182.54 306.43 180.648 306.43ZM193.385 306V283.597H199.276V306H193.385ZM196.309 280.931C195.392 280.931 194.604 280.601 193.944 279.942C193.285 279.283 192.955 278.494 192.955 277.577C192.955 276.631 193.285 275.843 193.944 275.212C194.604 274.553 195.392 274.223 196.309 274.223C197.255 274.223 198.044 274.553 198.674 275.212C199.334 275.843 199.663 276.631 199.663 277.577C199.663 278.494 199.334 279.283 198.674 279.942C198.044 280.601 197.255 280.931 196.309 280.931ZM215.15 315.202C213.43 315.202 211.767 315.016 210.162 314.643C208.556 314.299 207.109 313.797 205.819 313.138L207.883 308.58C209.115 309.182 210.319 309.626 211.495 309.913C212.67 310.2 213.845 310.343 215.021 310.343C216.769 310.343 218.088 309.97 218.977 309.225C219.894 308.48 220.353 307.362 220.353 305.871V304.108C218.518 305.455 216.468 306.129 214.204 306.129C212.082 306.129 210.162 305.627 208.442 304.624C206.75 303.592 205.389 302.202 204.357 300.453C203.353 298.704 202.852 296.769 202.852 294.648C202.852 292.527 203.353 290.606 204.357 288.886C205.389 287.166 206.779 285.804 208.528 284.801C210.276 283.769 212.226 283.253 214.376 283.253C215.465 283.253 216.526 283.411 217.558 283.726C218.59 284.041 219.55 284.486 220.439 285.059V283.597H226.244V305.957C226.244 308.91 225.283 311.189 223.363 312.794C221.471 314.399 218.733 315.202 215.15 315.202ZM215.107 301.141C216.196 301.141 217.185 300.969 218.074 300.625C218.962 300.252 219.722 299.736 220.353 299.077V290.305C219.722 289.674 218.948 289.187 218.031 288.843C217.142 288.47 216.182 288.284 215.15 288.284C213.917 288.284 212.813 288.571 211.839 289.144C210.864 289.689 210.09 290.448 209.517 291.423C208.943 292.369 208.657 293.444 208.657 294.648C208.657 295.881 208.929 296.984 209.474 297.959C210.047 298.934 210.821 299.708 211.796 300.281C212.799 300.854 213.903 301.141 215.107 301.141ZM230.843 306V283.597H236.734V285.446C238.425 283.927 240.518 283.167 243.012 283.167C244.76 283.167 246.294 283.554 247.613 284.328C248.96 285.073 250.006 286.12 250.752 287.467C251.497 288.786 251.87 290.334 251.87 292.111V306H245.979V292.971C245.979 291.509 245.563 290.362 244.732 289.531C243.9 288.671 242.768 288.241 241.335 288.241C240.331 288.241 239.443 288.442 238.669 288.843C237.895 289.216 237.25 289.76 236.734 290.477V306H230.843ZM272.12 306.387C270.515 306.387 269.096 306.1 267.863 305.527C266.63 304.925 265.67 304.108 264.982 303.076C264.294 302.044 263.95 300.854 263.95 299.507C263.95 297.357 264.753 295.694 266.358 294.519C267.992 293.315 270.228 292.713 273.066 292.713C275.015 292.713 276.85 293.014 278.57 293.616V291.982C278.57 290.692 278.169 289.717 277.366 289.058C276.563 288.399 275.388 288.069 273.84 288.069C272.894 288.069 271.876 288.227 270.787 288.542C269.698 288.829 268.436 289.287 267.003 289.918L264.853 285.575C266.63 284.772 268.322 284.17 269.927 283.769C271.561 283.368 273.195 283.167 274.829 283.167C277.839 283.167 280.175 283.898 281.838 285.36C283.529 286.793 284.375 288.829 284.375 291.466V306H278.57V304.409C277.653 305.097 276.664 305.599 275.603 305.914C274.542 306.229 273.381 306.387 272.12 306.387ZM269.54 299.378C269.54 300.238 269.913 300.926 270.658 301.442C271.403 301.929 272.392 302.173 273.625 302.173C274.6 302.173 275.503 302.058 276.334 301.829C277.165 301.571 277.911 301.198 278.57 300.711V297.443C277.853 297.156 277.108 296.941 276.334 296.798C275.56 296.655 274.729 296.583 273.84 296.583C272.493 296.583 271.432 296.841 270.658 297.357C269.913 297.844 269.54 298.518 269.54 299.378ZM297.484 306V283.597H303.375V285.317C304.98 283.884 306.93 283.167 309.223 283.167C310.685 283.167 311.989 283.468 313.136 284.07C314.283 284.643 315.229 285.46 315.974 286.521C316.891 285.432 317.966 284.6 319.199 284.027C320.46 283.454 321.851 283.167 323.37 283.167C325.061 283.167 326.538 283.554 327.799 284.328C329.089 285.073 330.092 286.12 330.809 287.467C331.554 288.786 331.927 290.334 331.927 292.111V306H326.079V292.971C326.079 291.509 325.692 290.362 324.918 289.531C324.144 288.671 323.112 288.241 321.822 288.241C320.933 288.241 320.116 288.427 319.371 288.8C318.654 289.173 318.038 289.732 317.522 290.477C317.551 290.735 317.579 290.993 317.608 291.251C317.637 291.509 317.651 291.796 317.651 292.111V306H311.76V292.971C311.76 291.509 311.373 290.362 310.599 289.531C309.854 288.671 308.836 288.241 307.546 288.241C306.657 288.241 305.855 288.413 305.138 288.757C304.45 289.101 303.862 289.617 303.375 290.305V306H297.484ZM347.333 306.43C345.097 306.43 343.076 305.914 341.27 304.882C339.464 303.85 338.031 302.46 336.97 300.711C335.909 298.962 335.379 296.999 335.379 294.82C335.379 292.641 335.895 290.678 336.927 288.929C337.988 287.152 339.421 285.747 341.227 284.715C343.062 283.683 345.097 283.167 347.333 283.167C349.569 283.167 351.59 283.683 353.396 284.715C355.231 285.747 356.664 287.152 357.696 288.929C358.757 290.678 359.287 292.641 359.287 294.82C359.287 296.999 358.757 298.962 357.696 300.711C356.664 302.46 355.245 303.85 353.439 304.882C351.633 305.914 349.598 306.43 347.333 306.43ZM347.333 301.313C348.508 301.313 349.555 301.026 350.472 300.453C351.418 299.88 352.163 299.106 352.708 298.131C353.281 297.128 353.568 296.024 353.568 294.82C353.568 293.587 353.281 292.484 352.708 291.509C352.163 290.534 351.418 289.76 350.472 289.187C349.555 288.585 348.508 288.284 347.333 288.284C346.186 288.284 345.14 288.585 344.194 289.187C343.248 289.76 342.503 290.534 341.958 291.509C341.413 292.484 341.141 293.587 341.141 294.82C341.141 296.024 341.413 297.128 341.958 298.131C342.503 299.106 343.248 299.88 344.194 300.453C345.14 301.026 346.186 301.313 347.333 301.313ZM362.908 306V275.9L368.799 274.911V285.403C370.576 283.998 372.669 283.296 375.077 283.296C377.198 283.296 379.119 283.812 380.839 284.844C382.559 285.876 383.921 287.266 384.924 289.015C385.956 290.735 386.472 292.67 386.472 294.82C386.472 296.97 385.956 298.919 384.924 300.668C383.892 302.388 382.502 303.764 380.753 304.796C379.004 305.799 377.055 306.301 374.905 306.301C373.787 306.301 372.698 306.143 371.637 305.828C370.576 305.513 369.602 305.054 368.713 304.452V306H362.908ZM374.131 301.313C375.364 301.313 376.467 301.026 377.442 300.453C378.445 299.88 379.234 299.106 379.807 298.131C380.38 297.156 380.667 296.053 380.667 294.82C380.667 293.587 380.38 292.484 379.807 291.509C379.234 290.506 378.445 289.732 377.442 289.187C376.467 288.614 375.364 288.327 374.131 288.327C373.042 288.327 372.038 288.513 371.121 288.886C370.232 289.23 369.458 289.76 368.799 290.477V299.206C369.43 299.865 370.204 300.381 371.121 300.754C372.067 301.127 373.07 301.313 374.131 301.313ZM390.035 306V283.597H395.926V306H390.035ZM392.959 280.931C392.042 280.931 391.253 280.601 390.594 279.942C389.935 279.283 389.605 278.494 389.605 277.577C389.605 276.631 389.935 275.843 390.594 275.212C391.253 274.553 392.042 274.223 392.959 274.223C393.905 274.223 394.693 274.553 395.324 275.212C395.983 275.843 396.313 276.631 396.313 277.577C396.313 278.494 395.983 279.283 395.324 279.942C394.693 280.601 393.905 280.931 392.959 280.931ZM400.533 306V275.9L406.424 274.911V306H400.533ZM421.996 306.43C419.76 306.43 417.725 305.914 415.89 304.882C414.084 303.85 412.651 302.46 411.59 300.711C410.529 298.962 409.999 296.999 409.999 294.82C409.999 292.641 410.501 290.678 411.504 288.929C412.536 287.18 413.926 285.79 415.675 284.758C417.424 283.726 419.373 283.21 421.523 283.21C423.673 283.21 425.579 283.74 427.242 284.801C428.905 285.862 430.209 287.295 431.155 289.101C432.13 290.907 432.617 292.957 432.617 295.25V296.798H416.019C416.277 297.687 416.693 298.489 417.266 299.206C417.868 299.923 418.599 300.482 419.459 300.883C420.348 301.284 421.294 301.485 422.297 301.485C423.3 301.485 424.218 301.327 425.049 301.012C425.909 300.697 426.64 300.252 427.242 299.679L431.112 303.205C429.736 304.323 428.317 305.14 426.855 305.656C425.422 306.172 423.802 306.43 421.996 306.43ZM415.933 292.584H426.812C426.611 291.695 426.239 290.921 425.694 290.262C425.178 289.574 424.547 289.044 423.802 288.671C423.085 288.27 422.283 288.069 421.394 288.069C420.477 288.069 419.645 288.255 418.9 288.628C418.155 289.001 417.524 289.531 417.008 290.219C416.521 290.878 416.162 291.667 415.933 292.584ZM452.015 306.387C450.409 306.387 448.99 306.1 447.758 305.527C446.525 304.925 445.565 304.108 444.877 303.076C444.189 302.044 443.845 300.854 443.845 299.507C443.845 297.357 444.647 295.694 446.253 294.519C447.887 293.315 450.123 292.713 452.961 292.713C454.91 292.713 456.745 293.014 458.465 293.616V291.982C458.465 290.692 458.063 289.717 457.261 289.058C456.458 288.399 455.283 288.069 453.735 288.069C452.789 288.069 451.771 288.227 450.682 288.542C449.592 288.829 448.331 289.287 446.898 289.918L444.748 285.575C446.525 284.772 448.216 284.17 449.822 283.769C451.456 283.368 453.09 283.167 454.724 283.167C457.734 283.167 460.07 283.898 461.733 285.36C463.424 286.793 464.27 288.829 464.27 291.466V306H458.465V304.409C457.547 305.097 456.558 305.599 455.498 305.914C454.437 306.229 453.276 306.387 452.015 306.387ZM449.435 299.378C449.435 300.238 449.807 300.926 450.553 301.442C451.298 301.929 452.287 302.173 453.52 302.173C454.494 302.173 455.397 302.058 456.229 301.829C457.06 301.571 457.805 301.198 458.465 300.711V297.443C457.748 297.156 457.003 296.941 456.229 296.798C455.455 296.655 454.623 296.583 453.735 296.583C452.387 296.583 451.327 296.841 450.553 297.357C449.807 297.844 449.435 298.518 449.435 299.378ZM468.728 314.772V283.597H474.533V285.446C476.368 284.013 478.489 283.296 480.897 283.296C483.019 283.296 484.939 283.812 486.659 284.844C488.379 285.876 489.741 287.266 490.744 289.015C491.776 290.735 492.292 292.67 492.292 294.82C492.292 296.97 491.776 298.919 490.744 300.668C489.712 302.388 488.322 303.764 486.573 304.796C484.825 305.799 482.875 306.301 480.725 306.301C479.607 306.301 478.532 306.158 477.5 305.871C476.468 305.556 475.508 305.111 474.619 304.538V314.772H468.728ZM479.951 301.313C481.184 301.313 482.288 301.026 483.262 300.453C484.266 299.88 485.054 299.106 485.627 298.131C486.201 297.156 486.487 296.053 486.487 294.82C486.487 293.587 486.201 292.484 485.627 291.509C485.054 290.506 484.266 289.732 483.262 289.187C482.288 288.614 481.184 288.327 479.951 288.327C478.862 288.327 477.859 288.513 476.941 288.886C476.053 289.23 475.279 289.76 474.619 290.477V299.206C475.25 299.865 476.024 300.381 476.941 300.754C477.887 301.127 478.891 301.313 479.951 301.313ZM495.855 314.772V283.597H501.66V285.446C503.495 284.013 505.616 283.296 508.024 283.296C510.146 283.296 512.066 283.812 513.786 284.844C515.506 285.876 516.868 287.266 517.871 289.015C518.903 290.735 519.419 292.67 519.419 294.82C519.419 296.97 518.903 298.919 517.871 300.668C516.839 302.388 515.449 303.764 513.7 304.796C511.952 305.799 510.002 306.301 507.852 306.301C506.734 306.301 505.659 306.158 504.627 305.871C503.595 305.556 502.635 305.111 501.746 304.538V314.772H495.855ZM507.078 301.313C508.311 301.313 509.415 301.026 510.389 300.453C511.393 299.88 512.181 299.106 512.754 298.131C513.328 297.156 513.614 296.053 513.614 294.82C513.614 293.587 513.328 292.484 512.754 291.509C512.181 290.506 511.393 289.732 510.389 289.187C509.415 288.614 508.311 288.327 507.078 288.327C505.989 288.327 504.986 288.513 504.068 288.886C503.18 289.23 502.406 289.76 501.746 290.477V299.206C502.377 299.865 503.151 300.381 504.068 300.754C505.014 301.127 506.018 301.313 507.078 301.313ZM115.322 366V335.9L121.213 334.911V345.403C122.99 343.998 125.083 343.296 127.491 343.296C129.612 343.296 131.533 343.812 133.253 344.844C134.973 345.876 136.335 347.266 137.338 349.015C138.37 350.735 138.886 352.67 138.886 354.82C138.886 356.97 138.37 358.919 137.338 360.668C136.306 362.388 134.916 363.764 133.167 364.796C131.418 365.799 129.469 366.301 127.319 366.301C126.201 366.301 125.112 366.143 124.051 365.828C122.99 365.513 122.016 365.054 121.127 364.452V366H115.322ZM126.545 361.313C127.778 361.313 128.881 361.026 129.856 360.453C130.859 359.88 131.648 359.106 132.221 358.131C132.794 357.156 133.081 356.053 133.081 354.82C133.081 353.587 132.794 352.484 132.221 351.509C131.648 350.506 130.859 349.732 129.856 349.187C128.881 348.614 127.778 348.327 126.545 348.327C125.456 348.327 124.452 348.513 123.535 348.886C122.646 349.23 121.872 349.76 121.213 350.477V359.206C121.844 359.865 122.618 360.381 123.535 360.754C124.481 361.127 125.484 361.313 126.545 361.313ZM149.587 366.387C147.982 366.387 146.563 366.1 145.33 365.527C144.097 364.925 143.137 364.108 142.449 363.076C141.761 362.044 141.417 360.854 141.417 359.507C141.417 357.357 142.22 355.694 143.825 354.519C145.459 353.315 147.695 352.713 150.533 352.713C152.482 352.713 154.317 353.014 156.037 353.616V351.982C156.037 350.692 155.636 349.717 154.833 349.058C154.03 348.399 152.855 348.069 151.307 348.069C150.361 348.069 149.343 348.227 148.254 348.542C147.165 348.829 145.903 349.287 144.47 349.918L142.32 345.575C144.097 344.772 145.789 344.17 147.394 343.769C149.028 343.368 150.662 343.167 152.296 343.167C155.306 343.167 157.642 343.898 159.305 345.36C160.996 346.793 161.842 348.829 161.842 351.466V366H156.037V364.409C155.12 365.097 154.131 365.599 153.07 365.914C152.009 366.229 150.848 366.387 149.587 366.387ZM147.007 359.378C147.007 360.238 147.38 360.926 148.125 361.442C148.87 361.929 149.859 362.173 151.092 362.173C152.067 362.173 152.97 362.058 153.801 361.829C154.632 361.571 155.378 361.198 156.037 360.711V357.443C155.32 357.156 154.575 356.941 153.801 356.798C153.027 356.655 152.196 356.583 151.307 356.583C149.96 356.583 148.899 356.841 148.125 357.357C147.38 357.844 147.007 358.518 147.007 359.378ZM174.686 366.43C172.622 366.43 170.715 366.172 168.967 365.656C167.218 365.111 165.699 364.337 164.409 363.334L167.333 359.421C168.623 360.281 169.855 360.926 171.031 361.356C172.235 361.786 173.424 362.001 174.6 362.001C175.918 362.001 176.965 361.786 177.739 361.356C178.541 360.897 178.943 360.31 178.943 359.593C178.943 359.02 178.713 358.561 178.255 358.217C177.825 357.873 177.122 357.629 176.148 357.486L171.848 356.841C169.612 356.497 167.92 355.78 166.774 354.691C165.627 353.573 165.054 352.111 165.054 350.305C165.054 348.843 165.426 347.596 166.172 346.564C166.946 345.503 168.021 344.686 169.397 344.113C170.801 343.511 172.464 343.21 174.385 343.21C176.019 343.21 177.61 343.439 179.158 343.898C180.734 344.357 182.211 345.059 183.587 346.005L180.749 349.832C179.516 349.058 178.341 348.499 177.223 348.155C176.105 347.811 174.972 347.639 173.826 347.639C172.765 347.639 171.905 347.84 171.246 348.241C170.615 348.642 170.3 349.173 170.3 349.832C170.3 350.434 170.529 350.907 170.988 351.251C171.446 351.595 172.235 351.839 173.353 351.982L177.61 352.627C179.846 352.942 181.551 353.659 182.727 354.777C183.902 355.866 184.49 357.285 184.49 359.034C184.49 360.467 184.06 361.743 183.2 362.861C182.34 363.95 181.179 364.825 179.717 365.484C178.255 366.115 176.578 366.43 174.686 366.43ZM198.388 366.43C196.152 366.43 194.116 365.914 192.282 364.882C190.476 363.85 189.042 362.46 187.982 360.711C186.921 358.962 186.391 356.999 186.391 354.82C186.391 352.641 186.892 350.678 187.896 348.929C188.928 347.18 190.318 345.79 192.067 344.758C193.815 343.726 195.765 343.21 197.915 343.21C200.065 343.21 201.971 343.74 203.634 344.801C205.296 345.862 206.601 347.295 207.547 349.101C208.521 350.907 209.009 352.957 209.009 355.25V356.798H192.411C192.669 357.687 193.084 358.489 193.658 359.206C194.26 359.923 194.991 360.482 195.851 360.883C196.739 361.284 197.685 361.485 198.689 361.485C199.692 361.485 200.609 361.327 201.441 361.012C202.301 360.697 203.032 360.252 203.634 359.679L207.504 363.205C206.128 364.323 204.709 365.14 203.247 365.656C201.813 366.172 200.194 366.43 198.388 366.43ZM192.325 352.584H203.204C203.003 351.695 202.63 350.921 202.086 350.262C201.57 349.574 200.939 349.044 200.194 348.671C199.477 348.27 198.674 348.069 197.786 348.069C196.868 348.069 196.037 348.255 195.292 348.628C194.546 349.001 193.916 349.531 193.4 350.219C192.912 350.878 192.554 351.667 192.325 352.584ZM222.981 366.301C220.86 366.301 218.939 365.785 217.219 364.753C215.499 363.721 214.123 362.345 213.091 360.625C212.088 358.876 211.586 356.927 211.586 354.777C211.586 352.627 212.088 350.692 213.091 348.972C214.123 347.223 215.513 345.847 217.262 344.844C219.011 343.812 220.974 343.296 223.153 343.296C224.271 343.296 225.346 343.454 226.378 343.769C227.41 344.056 228.37 344.486 229.259 345.059V335.9L235.15 334.911V366H229.345V364.151C227.51 365.584 225.389 366.301 222.981 366.301ZM223.927 361.27C225.016 361.27 226.005 361.098 226.894 360.754C227.811 360.381 228.6 359.837 229.259 359.12V350.391C228.6 349.732 227.811 349.216 226.894 348.843C225.977 348.47 224.988 348.284 223.927 348.284C222.694 348.284 221.576 348.571 220.573 349.144C219.598 349.689 218.824 350.463 218.251 351.466C217.678 352.441 217.391 353.544 217.391 354.777C217.391 356.01 217.678 357.113 218.251 358.088C218.824 359.063 219.598 359.837 220.573 360.41C221.576 360.983 222.694 361.27 223.927 361.27ZM259.36 366.43C257.124 366.43 255.089 365.914 253.254 364.882C251.448 363.85 250.015 362.46 248.954 360.711C247.894 358.962 247.363 356.999 247.363 354.82C247.363 352.641 247.865 350.678 248.868 348.929C249.9 347.18 251.291 345.79 253.039 344.758C254.788 343.726 256.737 343.21 258.887 343.21C261.037 343.21 262.944 343.74 264.606 344.801C266.269 345.862 267.573 347.295 268.519 349.101C269.494 350.907 269.981 352.957 269.981 355.25V356.798H253.383C253.641 357.687 254.057 358.489 254.63 359.206C255.232 359.923 255.963 360.482 256.823 360.883C257.712 361.284 258.658 361.485 259.661 361.485C260.665 361.485 261.582 361.327 262.413 361.012C263.273 360.697 264.004 360.252 264.606 359.679L268.476 363.205C267.1 364.323 265.681 365.14 264.219 365.656C262.786 366.172 261.166 366.43 259.36 366.43ZM253.297 352.584H264.176C263.976 351.695 263.603 350.921 263.058 350.262C262.542 349.574 261.912 349.044 261.166 348.671C260.45 348.27 259.647 348.069 258.758 348.069C257.841 348.069 257.01 348.255 256.264 348.628C255.519 349.001 254.888 349.531 254.372 350.219C253.885 350.878 253.527 351.667 253.297 352.584ZM273.032 356.239V351.251H289.2V356.239H273.032ZM293.285 366V335.9L299.176 334.911V366H293.285ZM314.748 366.43C312.512 366.43 310.477 365.914 308.642 364.882C306.836 363.85 305.403 362.46 304.342 360.711C303.281 358.962 302.751 356.999 302.751 354.82C302.751 352.641 303.253 350.678 304.256 348.929C305.288 347.18 306.678 345.79 308.427 344.758C310.176 343.726 312.125 343.21 314.275 343.21C316.425 343.21 318.331 343.74 319.994 344.801C321.657 345.862 322.961 347.295 323.907 349.101C324.882 350.907 325.369 352.957 325.369 355.25V356.798H308.771C309.029 357.687 309.445 358.489 310.018 359.206C310.62 359.923 311.351 360.482 312.211 360.883C313.1 361.284 314.046 361.485 315.049 361.485C316.052 361.485 316.97 361.327 317.801 361.012C318.661 360.697 319.392 360.252 319.994 359.679L323.864 363.205C322.488 364.323 321.069 365.14 319.607 365.656C318.174 366.172 316.554 366.43 314.748 366.43ZM308.685 352.584H319.564C319.363 351.695 318.991 350.921 318.446 350.262C317.93 349.574 317.299 349.044 316.554 348.671C315.837 348.27 315.035 348.069 314.146 348.069C313.229 348.069 312.397 348.255 311.652 348.628C310.907 349.001 310.276 349.531 309.76 350.219C309.273 350.878 308.914 351.667 308.685 352.584ZM336.116 366.387C334.511 366.387 333.092 366.1 331.859 365.527C330.627 364.925 329.666 364.108 328.978 363.076C328.29 362.044 327.946 360.854 327.946 359.507C327.946 357.357 328.749 355.694 330.354 354.519C331.988 353.315 334.224 352.713 337.062 352.713C339.012 352.713 340.846 353.014 342.566 353.616V351.982C342.566 350.692 342.165 349.717 341.362 349.058C340.56 348.399 339.384 348.069 337.836 348.069C336.89 348.069 335.873 348.227 334.783 348.542C333.694 348.829 332.433 349.287 330.999 349.918L328.849 345.575C330.627 344.772 332.318 344.17 333.923 343.769C335.557 343.368 337.191 343.167 338.825 343.167C341.835 343.167 344.172 343.898 345.834 345.36C347.526 346.793 348.371 348.829 348.371 351.466V366H342.566V364.409C341.649 365.097 340.66 365.599 339.599 365.914C338.539 366.229 337.378 366.387 336.116 366.387ZM333.536 359.378C333.536 360.238 333.909 360.926 334.654 361.442C335.4 361.929 336.389 362.173 337.621 362.173C338.596 362.173 339.499 362.058 340.33 361.829C341.162 361.571 341.907 361.198 342.566 360.711V357.443C341.85 357.156 341.104 356.941 340.33 356.798C339.556 356.655 338.725 356.583 337.836 356.583C336.489 356.583 335.428 356.841 334.654 357.357C333.909 357.844 333.536 358.518 333.536 359.378ZM352.83 366V343.597H358.721V346.091C359.437 345.116 360.297 344.371 361.301 343.855C362.304 343.339 363.436 343.081 364.698 343.081C365.787 343.11 366.604 343.282 367.149 343.597V348.757C366.719 348.556 366.246 348.413 365.73 348.327C365.214 348.212 364.683 348.155 364.139 348.155C362.992 348.155 361.946 348.442 361 349.015C360.054 349.588 359.294 350.405 358.721 351.466V366H352.83ZM370.383 366V343.597H376.274V345.446C377.965 343.927 380.058 343.167 382.552 343.167C384.3 343.167 385.834 343.554 387.153 344.328C388.5 345.073 389.546 346.12 390.292 347.467C391.037 348.786 391.41 350.334 391.41 352.111V366H385.519V352.971C385.519 351.509 385.103 350.362 384.272 349.531C383.44 348.671 382.308 348.241 380.875 348.241C379.871 348.241 378.983 348.442 378.209 348.843C377.435 349.216 376.79 349.76 376.274 350.477V366H370.383ZM395.872 366V343.597H401.763V366H395.872ZM398.796 340.931C397.878 340.931 397.09 340.601 396.431 339.942C395.771 339.283 395.442 338.494 395.442 337.577C395.442 336.631 395.771 335.843 396.431 335.212C397.09 334.553 397.878 334.223 398.796 334.223C399.742 334.223 400.53 334.553 401.161 335.212C401.82 335.843 402.15 336.631 402.15 337.577C402.15 338.494 401.82 339.283 401.161 339.942C400.53 340.601 399.742 340.931 398.796 340.931ZM406.37 366V343.597H412.261V345.446C413.952 343.927 416.045 343.167 418.539 343.167C420.288 343.167 421.821 343.554 423.14 344.328C424.487 345.073 425.534 346.12 426.279 347.467C427.024 348.786 427.397 350.334 427.397 352.111V366H421.506V352.971C421.506 351.509 421.09 350.362 420.259 349.531C419.428 348.671 418.295 348.241 416.862 348.241C415.859 348.241 414.97 348.442 414.196 348.843C413.422 349.216 412.777 349.76 412.261 350.477V366H406.37ZM443.125 375.202C441.405 375.202 439.742 375.016 438.137 374.643C436.532 374.299 435.084 373.797 433.794 373.138L435.858 368.58C437.091 369.182 438.295 369.626 439.47 369.913C440.645 370.2 441.821 370.343 442.996 370.343C444.745 370.343 446.063 369.97 446.952 369.225C447.869 368.48 448.328 367.362 448.328 365.871V364.108C446.493 365.455 444.444 366.129 442.179 366.129C440.058 366.129 438.137 365.627 436.417 364.624C434.726 363.592 433.364 362.202 432.332 360.453C431.329 358.704 430.827 356.769 430.827 354.648C430.827 352.527 431.329 350.606 432.332 348.886C433.364 347.166 434.754 345.804 436.503 344.801C438.252 343.769 440.201 343.253 442.351 343.253C443.44 343.253 444.501 343.411 445.533 343.726C446.565 344.041 447.525 344.486 448.414 345.059V343.597H454.219V365.957C454.219 368.91 453.259 371.189 451.338 372.794C449.446 374.399 446.708 375.202 443.125 375.202ZM443.082 361.141C444.171 361.141 445.16 360.969 446.049 360.625C446.938 360.252 447.697 359.736 448.328 359.077V350.305C447.697 349.674 446.923 349.187 446.006 348.843C445.117 348.47 444.157 348.284 443.125 348.284C441.892 348.284 440.789 348.571 439.814 349.144C438.839 349.689 438.065 350.448 437.492 351.423C436.919 352.369 436.632 353.444 436.632 354.648C436.632 355.881 436.904 356.984 437.449 357.959C438.022 358.934 438.796 359.708 439.771 360.281C440.774 360.854 441.878 361.141 443.082 361.141ZM115.322 434.772V403.597H121.127V405.446C122.962 404.013 125.083 403.296 127.491 403.296C129.612 403.296 131.533 403.812 133.253 404.844C134.973 405.876 136.335 407.266 137.338 409.015C138.37 410.735 138.886 412.67 138.886 414.82C138.886 416.97 138.37 418.919 137.338 420.668C136.306 422.388 134.916 423.764 133.167 424.796C131.418 425.799 129.469 426.301 127.319 426.301C126.201 426.301 125.126 426.158 124.094 425.871C123.062 425.556 122.102 425.111 121.213 424.538V434.772H115.322ZM126.545 421.313C127.778 421.313 128.881 421.026 129.856 420.453C130.859 419.88 131.648 419.106 132.221 418.131C132.794 417.156 133.081 416.053 133.081 414.82C133.081 413.587 132.794 412.484 132.221 411.509C131.648 410.506 130.859 409.732 129.856 409.187C128.881 408.614 127.778 408.327 126.545 408.327C125.456 408.327 124.452 408.513 123.535 408.886C122.646 409.23 121.872 409.76 121.213 410.477V419.206C121.844 419.865 122.618 420.381 123.535 420.754C124.481 421.127 125.484 421.313 126.545 421.313ZM142.449 426V395.9L148.34 394.911V426H142.449ZM160.085 426.387C158.48 426.387 157.061 426.1 155.828 425.527C154.595 424.925 153.635 424.108 152.947 423.076C152.259 422.044 151.915 420.854 151.915 419.507C151.915 417.357 152.718 415.694 154.323 414.519C155.957 413.315 158.193 412.713 161.031 412.713C162.98 412.713 164.815 413.014 166.535 413.616V411.982C166.535 410.692 166.134 409.717 165.331 409.058C164.528 408.399 163.353 408.069 161.805 408.069C160.859 408.069 159.841 408.227 158.752 408.542C157.663 408.829 156.401 409.287 154.968 409.918L152.818 405.575C154.595 404.772 156.287 404.17 157.892 403.769C159.526 403.368 161.16 403.167 162.794 403.167C165.804 403.167 168.14 403.898 169.803 405.36C171.494 406.793 172.34 408.829 172.34 411.466V426H166.535V424.409C165.618 425.097 164.629 425.599 163.568 425.914C162.507 426.229 161.346 426.387 160.085 426.387ZM157.505 419.378C157.505 420.238 157.878 420.926 158.623 421.442C159.368 421.929 160.357 422.173 161.59 422.173C162.565 422.173 163.468 422.058 164.299 421.829C165.13 421.571 165.876 421.198 166.535 420.711V417.443C165.818 417.156 165.073 416.941 164.299 416.798C163.525 416.655 162.694 416.583 161.805 416.583C160.458 416.583 159.397 416.841 158.623 417.357C157.878 417.844 157.505 418.518 157.505 419.378ZM187.42 426.344C184.926 426.344 183.034 425.785 181.744 424.667C180.482 423.52 179.852 421.858 179.852 419.679V408.499H175.251V403.597H179.852V397.878L185.743 396.545V403.597H192.15V408.499H185.743V418.475C185.743 419.507 185.972 420.252 186.431 420.711C186.889 421.141 187.692 421.356 188.839 421.356C189.412 421.356 189.928 421.327 190.387 421.27C190.874 421.184 191.404 421.041 191.978 420.84V425.699C191.376 425.9 190.616 426.057 189.699 426.172C188.81 426.287 188.05 426.344 187.42 426.344ZM198.463 426V408.499H193.475V403.597H198.463V401.447C198.463 398.924 199.194 397.004 200.656 395.685C202.118 394.338 204.225 393.664 206.977 393.664C207.579 393.664 208.196 393.693 208.826 393.75C209.457 393.807 210.002 393.908 210.46 394.051V398.996C209.916 398.881 209.443 398.795 209.041 398.738C208.64 398.681 208.196 398.652 207.708 398.652C206.59 398.652 205.745 398.896 205.171 399.383C204.627 399.842 204.354 400.573 204.354 401.576V403.597H210.46V408.499H204.354V426H198.463ZM224.464 426.43C222.228 426.43 220.207 425.914 218.401 424.882C216.595 423.85 215.161 422.46 214.101 420.711C213.04 418.962 212.51 416.999 212.51 414.82C212.51 412.641 213.026 410.678 214.058 408.929C215.118 407.152 216.552 405.747 218.358 404.715C220.192 403.683 222.228 403.167 224.464 403.167C226.7 403.167 228.721 403.683 230.527 404.715C232.361 405.747 233.795 407.152 234.827 408.929C235.887 410.678 236.418 412.641 236.418 414.82C236.418 416.999 235.887 418.962 234.827 420.711C233.795 422.46 232.376 423.85 230.57 424.882C228.764 425.914 226.728 426.43 224.464 426.43ZM224.464 421.313C225.639 421.313 226.685 421.026 227.603 420.453C228.549 419.88 229.294 419.106 229.839 418.131C230.412 417.128 230.699 416.024 230.699 414.82C230.699 413.587 230.412 412.484 229.839 411.509C229.294 410.534 228.549 409.76 227.603 409.187C226.685 408.585 225.639 408.284 224.464 408.284C223.317 408.284 222.271 408.585 221.325 409.187C220.379 409.76 219.633 410.534 219.089 411.509C218.544 412.484 218.272 413.587 218.272 414.82C218.272 416.024 218.544 417.128 219.089 418.131C219.633 419.106 220.379 419.88 221.325 420.453C222.271 421.026 223.317 421.313 224.464 421.313ZM240.039 426V403.597H245.93V406.091C246.646 405.116 247.506 404.371 248.51 403.855C249.513 403.339 250.645 403.081 251.907 403.081C252.996 403.11 253.813 403.282 254.358 403.597V408.757C253.928 408.556 253.455 408.413 252.939 408.327C252.423 408.212 251.892 408.155 251.348 408.155C250.201 408.155 249.155 408.442 248.209 409.015C247.263 409.588 246.503 410.405 245.93 411.466V426H240.039ZM257.592 426V403.597H263.483V405.317C265.088 403.884 267.037 403.167 269.331 403.167C270.793 403.167 272.097 403.468 273.244 404.07C274.39 404.643 275.336 405.46 276.082 406.521C276.999 405.432 278.074 404.6 279.307 404.027C280.568 403.454 281.958 403.167 283.478 403.167C285.169 403.167 286.645 403.554 287.907 404.328C289.197 405.073 290.2 406.12 290.917 407.467C291.662 408.786 292.035 410.334 292.035 412.111V426H286.187V412.971C286.187 411.509 285.8 410.362 285.026 409.531C284.252 408.671 283.22 408.241 281.93 408.241C281.041 408.241 280.224 408.427 279.479 408.8C278.762 409.173 278.146 409.732 277.63 410.477C277.658 410.735 277.687 410.993 277.716 411.251C277.744 411.509 277.759 411.796 277.759 412.111V426H271.868V412.971C271.868 411.509 271.481 410.362 270.707 409.531C269.961 408.671 268.944 408.241 267.654 408.241C266.765 408.241 265.962 408.413 265.246 408.757C264.558 409.101 263.97 409.617 263.483 410.305V426H257.592ZM315.79 426.344C313.296 426.344 311.404 425.785 310.114 424.667C308.852 423.52 308.222 421.858 308.222 419.679V408.499H303.621V403.597H308.222V397.878L314.113 396.545V403.597H320.52V408.499H314.113V418.475C314.113 419.507 314.342 420.252 314.801 420.711C315.259 421.141 316.062 421.356 317.209 421.356C317.782 421.356 318.298 421.327 318.757 421.27C319.244 421.184 319.774 421.041 320.348 420.84V425.699C319.746 425.9 318.986 426.057 318.069 426.172C317.18 426.287 316.42 426.344 315.79 426.344ZM334.315 426.43C332.079 426.43 330.058 425.914 328.252 424.882C326.446 423.85 325.013 422.46 323.952 420.711C322.892 418.962 322.361 416.999 322.361 414.82C322.361 412.641 322.877 410.678 323.909 408.929C324.97 407.152 326.403 405.747 328.209 404.715C330.044 403.683 332.079 403.167 334.315 403.167C336.551 403.167 338.572 403.683 340.378 404.715C342.213 405.747 343.646 407.152 344.678 408.929C345.739 410.678 346.269 412.641 346.269 414.82C346.269 416.999 345.739 418.962 344.678 420.711C343.646 422.46 342.227 423.85 340.421 424.882C338.615 425.914 336.58 426.43 334.315 426.43ZM334.315 421.313C335.491 421.313 336.537 421.026 337.454 420.453C338.4 419.88 339.146 419.106 339.69 418.131C340.264 417.128 340.55 416.024 340.55 414.82C340.55 413.587 340.264 412.484 339.69 411.509C339.146 410.534 338.4 409.76 337.454 409.187C336.537 408.585 335.491 408.284 334.315 408.284C333.169 408.284 332.122 408.585 331.176 409.187C330.23 409.76 329.485 410.534 328.94 411.509C328.396 412.484 328.123 413.587 328.123 414.82C328.123 416.024 328.396 417.128 328.94 418.131C329.485 419.106 330.23 419.88 331.176 420.453C332.122 421.026 333.169 421.313 334.315 421.313ZM358.541 426V395.9L364.432 394.61V405.446C366.123 403.927 368.216 403.167 370.71 403.167C372.458 403.167 373.992 403.554 375.311 404.328C376.658 405.073 377.704 406.12 378.45 407.467C379.195 408.786 379.568 410.334 379.568 412.111V426H373.677V412.971C373.677 411.509 373.261 410.362 372.43 409.531C371.598 408.671 370.466 408.241 369.033 408.241C368.029 408.241 367.141 408.442 366.367 408.843C365.593 409.216 364.948 409.76 364.432 410.477V426H358.541ZM394.995 426.43C392.759 426.43 390.724 425.914 388.889 424.882C387.083 423.85 385.65 422.46 384.589 420.711C383.528 418.962 382.998 416.999 382.998 414.82C382.998 412.641 383.5 410.678 384.503 408.929C385.535 407.18 386.925 405.79 388.674 404.758C390.423 403.726 392.372 403.21 394.522 403.21C396.672 403.21 398.578 403.74 400.241 404.801C401.904 405.862 403.208 407.295 404.154 409.101C405.129 410.907 405.616 412.957 405.616 415.25V416.798H389.018C389.276 417.687 389.692 418.489 390.265 419.206C390.867 419.923 391.598 420.482 392.458 420.883C393.347 421.284 394.293 421.485 395.296 421.485C396.299 421.485 397.217 421.327 398.048 421.012C398.908 420.697 399.639 420.252 400.241 419.679L404.111 423.205C402.735 424.323 401.316 425.14 399.854 425.656C398.421 426.172 396.801 426.43 394.995 426.43ZM388.932 412.584H399.811C399.61 411.695 399.238 410.921 398.693 410.262C398.177 409.574 397.546 409.044 396.801 408.671C396.084 408.27 395.282 408.069 394.393 408.069C393.476 408.069 392.644 408.255 391.899 408.628C391.154 409.001 390.523 409.531 390.007 410.219C389.52 410.878 389.161 411.667 388.932 412.584ZM409.225 426V395.9L415.116 394.911V426H409.225ZM419.723 434.772V403.597H425.528V405.446C427.363 404.013 429.484 403.296 431.892 403.296C434.014 403.296 435.934 403.812 437.654 404.844C439.374 405.876 440.736 407.266 441.739 409.015C442.771 410.735 443.287 412.67 443.287 414.82C443.287 416.97 442.771 418.919 441.739 420.668C440.707 422.388 439.317 423.764 437.568 424.796C435.82 425.799 433.87 426.301 431.72 426.301C430.602 426.301 429.527 426.158 428.495 425.871C427.463 425.556 426.503 425.111 425.614 424.538V434.772H419.723ZM430.946 421.313C432.179 421.313 433.283 421.026 434.257 420.453C435.261 419.88 436.049 419.106 436.622 418.131C437.196 417.156 437.482 416.053 437.482 414.82C437.482 413.587 437.196 412.484 436.622 411.509C436.049 410.506 435.261 409.732 434.257 409.187C433.283 408.614 432.179 408.327 430.946 408.327C429.857 408.327 428.854 408.513 427.936 408.886C427.048 409.23 426.274 409.76 425.614 410.477V419.206C426.245 419.865 427.019 420.381 427.936 420.754C428.882 421.127 429.886 421.313 430.946 421.313ZM126.459 486.43C124.022 486.43 121.643 485.986 119.321 485.097C116.999 484.18 114.935 482.89 113.129 481.227L116.698 476.755C118.447 478.303 120.124 479.421 121.729 480.109C123.363 480.797 125.083 481.141 126.889 481.141C128.15 481.141 129.24 480.998 130.157 480.711C131.074 480.396 131.777 479.951 132.264 479.378C132.78 478.805 133.038 478.131 133.038 477.357C133.038 476.325 132.665 475.537 131.92 474.992C131.175 474.419 129.899 473.974 128.093 473.659L122.116 472.627C119.565 472.197 117.615 471.294 116.268 469.918C114.949 468.542 114.29 466.765 114.29 464.586C114.29 462.723 114.763 461.103 115.709 459.727C116.684 458.351 118.045 457.305 119.794 456.588C121.571 455.843 123.678 455.47 126.115 455.47C128.322 455.47 130.515 455.843 132.694 456.588C134.901 457.333 136.851 458.365 138.542 459.684L135.188 464.328C132.035 461.92 128.867 460.716 125.685 460.716C124.567 460.716 123.592 460.859 122.761 461.146C121.93 461.433 121.285 461.834 120.826 462.35C120.396 462.837 120.181 463.425 120.181 464.113C120.181 465.03 120.511 465.747 121.17 466.263C121.829 466.75 122.933 467.123 124.481 467.381L130.157 468.327C133.167 468.814 135.417 469.775 136.908 471.208C138.399 472.613 139.144 474.476 139.144 476.798C139.144 478.747 138.628 480.453 137.596 481.915C136.564 483.348 135.088 484.466 133.167 485.269C131.275 486.043 129.039 486.43 126.459 486.43ZM142.449 486V463.597H148.34V466.091C149.057 465.116 149.917 464.371 150.92 463.855C151.923 463.339 153.056 463.081 154.317 463.081C155.406 463.11 156.223 463.282 156.768 463.597V468.757C156.338 468.556 155.865 468.413 155.349 468.327C154.833 468.212 154.303 468.155 153.758 468.155C152.611 468.155 151.565 468.442 150.619 469.015C149.673 469.588 148.913 470.405 148.34 471.466V486H142.449ZM160.002 486V463.597H165.893V486H160.002ZM162.926 460.931C162.008 460.931 161.22 460.601 160.561 459.942C159.901 459.283 159.572 458.494 159.572 457.577C159.572 456.631 159.901 455.843 160.561 455.212C161.22 454.553 162.008 454.223 162.926 454.223C163.872 454.223 164.66 454.553 165.291 455.212C165.95 455.843 166.28 456.631 166.28 457.577C166.28 458.494 165.95 459.283 165.291 459.942C164.66 460.601 163.872 460.931 162.926 460.931ZM179.537 486V455.9H185.772V480.496H202.241V486H179.537ZM213.289 486.387C211.684 486.387 210.265 486.1 209.032 485.527C207.799 484.925 206.839 484.108 206.151 483.076C205.463 482.044 205.119 480.854 205.119 479.507C205.119 477.357 205.922 475.694 207.527 474.519C209.161 473.315 211.397 472.713 214.235 472.713C216.184 472.713 218.019 473.014 219.739 473.616V471.982C219.739 470.692 219.338 469.717 218.535 469.058C217.732 468.399 216.557 468.069 215.009 468.069C214.063 468.069 213.045 468.227 211.956 468.542C210.867 468.829 209.605 469.287 208.172 469.918L206.022 465.575C207.799 464.772 209.491 464.17 211.096 463.769C212.73 463.368 214.364 463.167 215.998 463.167C219.008 463.167 221.344 463.898 223.007 465.36C224.698 466.793 225.544 468.829 225.544 471.466V486H219.739V484.409C218.822 485.097 217.833 485.599 216.772 485.914C215.711 486.229 214.55 486.387 213.289 486.387ZM210.709 479.378C210.709 480.238 211.082 480.926 211.827 481.442C212.572 481.929 213.561 482.173 214.794 482.173C215.769 482.173 216.672 482.058 217.503 481.829C218.334 481.571 219.08 481.198 219.739 480.711V477.443C219.022 477.156 218.277 476.941 217.503 476.798C216.729 476.655 215.898 476.583 215.009 476.583C213.662 476.583 212.601 476.841 211.827 477.357C211.082 477.844 210.709 478.518 210.709 479.378ZM230.003 486V463.597H235.894V465.446C237.585 463.927 239.678 463.167 242.172 463.167C243.92 463.167 245.454 463.554 246.773 464.328C248.12 465.073 249.166 466.12 249.912 467.467C250.657 468.786 251.03 470.334 251.03 472.111V486H245.139V472.971C245.139 471.509 244.723 470.362 243.892 469.531C243.06 468.671 241.928 468.241 240.495 468.241C239.491 468.241 238.603 468.442 237.829 468.843C237.055 469.216 236.41 469.76 235.894 470.477V486H230.003ZM255.492 486V455.9L261.383 454.911V473.014L271.058 463.597H277.723L267.145 473.874L278.368 486H270.843L261.383 475.766V486H255.492ZM287.069 486.387C285.464 486.387 284.045 486.1 282.812 485.527C281.58 484.925 280.619 484.108 279.931 483.076C279.243 482.044 278.899 480.854 278.899 479.507C278.899 477.357 279.702 475.694 281.307 474.519C282.941 473.315 285.177 472.713 288.015 472.713C289.965 472.713 291.799 473.014 293.519 473.616V471.982C293.519 470.692 293.118 469.717 292.315 469.058C291.513 468.399 290.337 468.069 288.789 468.069C287.843 468.069 286.826 468.227 285.736 468.542C284.647 468.829 283.386 469.287 281.952 469.918L279.802 465.575C281.58 464.772 283.271 464.17 284.876 463.769C286.51 463.368 288.144 463.167 289.778 463.167C292.788 463.167 295.125 463.898 296.787 465.36C298.479 466.793 299.324 468.829 299.324 471.466V486H293.519V484.409C292.602 485.097 291.613 485.599 290.552 485.914C289.492 486.229 288.331 486.387 287.069 486.387ZM284.489 479.378C284.489 480.238 284.862 480.926 285.607 481.442C286.353 481.929 287.342 482.173 288.574 482.173C289.549 482.173 290.452 482.058 291.283 481.829C292.115 481.571 292.86 481.198 293.519 480.711V477.443C292.803 477.156 292.057 476.941 291.283 476.798C290.509 476.655 289.678 476.583 288.789 476.583C287.442 476.583 286.381 476.841 285.607 477.357C284.862 477.844 284.489 478.518 284.489 479.378ZM303.783 486V463.597H309.674V465.446C311.365 463.927 313.458 463.167 315.952 463.167C317.701 463.167 319.234 463.554 320.553 464.328C321.9 465.073 322.947 466.12 323.692 467.467C324.437 468.786 324.81 470.334 324.81 472.111V486H318.919V472.971C318.919 471.509 318.503 470.362 317.672 469.531C316.841 468.671 315.708 468.241 314.275 468.241C313.272 468.241 312.383 468.442 311.609 468.843C310.835 469.216 310.19 469.76 309.674 470.477V486H303.783ZM337.657 486.43C335.593 486.43 333.687 486.172 331.938 485.656C330.19 485.111 328.67 484.337 327.38 483.334L330.304 479.421C331.594 480.281 332.827 480.926 334.002 481.356C335.206 481.786 336.396 482.001 337.571 482.001C338.89 482.001 339.936 481.786 340.71 481.356C341.513 480.897 341.914 480.31 341.914 479.593C341.914 479.02 341.685 478.561 341.226 478.217C340.796 477.873 340.094 477.629 339.119 477.486L334.819 476.841C332.583 476.497 330.892 475.78 329.745 474.691C328.599 473.573 328.025 472.111 328.025 470.305C328.025 468.843 328.398 467.596 329.143 466.564C329.917 465.503 330.992 464.686 332.368 464.113C333.773 463.511 335.436 463.21 337.356 463.21C338.99 463.21 340.581 463.439 342.129 463.898C343.706 464.357 345.182 465.059 346.558 466.005L343.72 469.832C342.488 469.058 341.312 468.499 340.194 468.155C339.076 467.811 337.944 467.639 336.797 467.639C335.737 467.639 334.877 467.84 334.217 468.241C333.587 468.642 333.271 469.173 333.271 469.832C333.271 470.434 333.501 470.907 333.959 471.251C334.418 471.595 335.206 471.839 336.324 471.982L340.581 472.627C342.817 472.942 344.523 473.659 345.698 474.777C346.874 475.866 347.461 477.285 347.461 479.034C347.461 480.467 347.031 481.743 346.171 482.861C345.311 483.95 344.15 484.825 342.688 485.484C341.226 486.115 339.549 486.43 337.657 486.43ZM359.045 486V455.9L364.936 454.911V486H359.045ZM380.508 486.43C378.272 486.43 376.236 485.914 374.402 484.882C372.596 483.85 371.162 482.46 370.102 480.711C369.041 478.962 368.511 476.999 368.511 474.82C368.511 472.641 369.012 470.678 370.016 468.929C371.048 467.18 372.438 465.79 374.187 464.758C375.935 463.726 377.885 463.21 380.035 463.21C382.185 463.21 384.091 463.74 385.754 464.801C387.416 465.862 388.721 467.295 389.667 469.101C390.641 470.907 391.129 472.957 391.129 475.25V476.798H374.531C374.789 477.687 375.204 478.489 375.778 479.206C376.38 479.923 377.111 480.482 377.971 480.883C378.859 481.284 379.805 481.485 380.809 481.485C381.812 481.485 382.729 481.327 383.561 481.012C384.421 480.697 385.152 480.252 385.754 479.679L389.624 483.205C388.248 484.323 386.829 485.14 385.367 485.656C383.933 486.172 382.314 486.43 380.508 486.43ZM374.445 472.584H385.324C385.123 471.695 384.75 470.921 384.206 470.262C383.69 469.574 383.059 469.044 382.314 468.671C381.597 468.27 380.794 468.069 379.906 468.069C378.988 468.069 378.157 468.255 377.412 468.628C376.666 469.001 376.036 469.531 375.52 470.219C375.032 470.878 374.674 471.667 374.445 472.584ZM401.876 486.387C400.271 486.387 398.852 486.1 397.619 485.527C396.386 484.925 395.426 484.108 394.738 483.076C394.05 482.044 393.706 480.854 393.706 479.507C393.706 477.357 394.509 475.694 396.114 474.519C397.748 473.315 399.984 472.713 402.822 472.713C404.771 472.713 406.606 473.014 408.326 473.616V471.982C408.326 470.692 407.925 469.717 407.122 469.058C406.319 468.399 405.144 468.069 403.596 468.069C402.65 468.069 401.632 468.227 400.543 468.542C399.454 468.829 398.192 469.287 396.759 469.918L394.609 465.575C396.386 464.772 398.078 464.17 399.683 463.769C401.317 463.368 402.951 463.167 404.585 463.167C407.595 463.167 409.931 463.898 411.594 465.36C413.285 466.793 414.131 468.829 414.131 471.466V486H408.326V484.409C407.409 485.097 406.42 485.599 405.359 485.914C404.298 486.229 403.137 486.387 401.876 486.387ZM399.296 479.378C399.296 480.238 399.669 480.926 400.414 481.442C401.159 481.929 402.148 482.173 403.381 482.173C404.356 482.173 405.259 482.058 406.09 481.829C406.921 481.571 407.667 481.198 408.326 480.711V477.443C407.609 477.156 406.864 476.941 406.09 476.798C405.316 476.655 404.485 476.583 403.596 476.583C402.249 476.583 401.188 476.841 400.414 477.357C399.669 477.844 399.296 478.518 399.296 479.378ZM418.59 486V463.597H424.481V466.091C425.197 465.116 426.057 464.371 427.061 463.855C428.064 463.339 429.196 463.081 430.458 463.081C431.547 463.11 432.364 463.282 432.909 463.597V468.757C432.479 468.556 432.006 468.413 431.49 468.327C430.974 468.212 430.443 468.155 429.899 468.155C428.752 468.155 427.706 468.442 426.76 469.015C425.814 469.588 425.054 470.405 424.481 471.466V486H418.59ZM436.142 486V463.597H442.033V465.446C443.725 463.927 445.817 463.167 448.311 463.167C450.06 463.167 451.594 463.554 452.912 464.328C454.26 465.073 455.306 466.12 456.051 467.467C456.797 468.786 457.169 470.334 457.169 472.111V486H451.278V472.971C451.278 471.509 450.863 470.362 450.031 469.531C449.2 468.671 448.068 468.241 446.634 468.241C445.631 468.241 444.742 468.442 443.968 468.843C443.194 469.216 442.549 469.76 442.033 470.477V486H436.142ZM115.709 546V515.9H138.843V521.318H121.944V528.198H133.081V533.444H121.944V540.582H139.015V546H115.709ZM143.037 546V523.597H148.928V525.446C150.619 523.927 152.712 523.167 155.206 523.167C156.955 523.167 158.488 523.554 159.807 524.328C161.154 525.073 162.201 526.12 162.946 527.467C163.691 528.786 164.064 530.334 164.064 532.111V546H158.173V532.971C158.173 531.509 157.757 530.362 156.926 529.531C156.095 528.671 154.962 528.241 153.529 528.241C152.526 528.241 151.637 528.442 150.863 528.843C150.089 529.216 149.444 529.76 148.928 530.477V546H143.037ZM179.792 555.202C178.072 555.202 176.409 555.016 174.804 554.643C173.199 554.299 171.751 553.797 170.461 553.138L172.525 548.58C173.758 549.182 174.962 549.626 176.137 549.913C177.312 550.2 178.488 550.343 179.663 550.343C181.412 550.343 182.73 549.97 183.619 549.225C184.536 548.48 184.995 547.362 184.995 545.871V544.108C183.16 545.455 181.111 546.129 178.846 546.129C176.725 546.129 174.804 545.627 173.084 544.624C171.393 543.592 170.031 542.202 168.999 540.453C167.996 538.704 167.494 536.769 167.494 534.648C167.494 532.527 167.996 530.606 168.999 528.886C170.031 527.166 171.421 525.804 173.17 524.801C174.919 523.769 176.868 523.253 179.018 523.253C180.107 523.253 181.168 523.411 182.2 523.726C183.232 524.041 184.192 524.486 185.081 525.059V523.597H190.886V545.957C190.886 548.91 189.926 551.189 188.005 552.794C186.113 554.399 183.375 555.202 179.792 555.202ZM179.749 541.141C180.838 541.141 181.827 540.969 182.716 540.625C183.605 540.252 184.364 539.736 184.995 539.077V530.305C184.364 529.674 183.59 529.187 182.673 528.843C181.784 528.47 180.824 528.284 179.792 528.284C178.559 528.284 177.456 528.571 176.481 529.144C175.506 529.689 174.732 530.448 174.159 531.423C173.586 532.369 173.299 533.444 173.299 534.648C173.299 535.881 173.571 536.984 174.116 537.959C174.689 538.934 175.463 539.708 176.438 540.281C177.441 540.854 178.545 541.141 179.749 541.141ZM195.485 546V515.9L201.376 514.911V546H195.485ZM205.983 546V523.597H211.874V546H205.983ZM208.907 520.931C207.99 520.931 207.201 520.601 206.542 519.942C205.883 519.283 205.553 518.494 205.553 517.577C205.553 516.631 205.883 515.843 206.542 515.212C207.201 514.553 207.99 514.223 208.907 514.223C209.853 514.223 210.641 514.553 211.272 515.212C211.931 515.843 212.261 516.631 212.261 517.577C212.261 518.494 211.931 519.283 211.272 519.942C210.641 520.601 209.853 520.931 208.907 520.931ZM224.866 546.43C222.802 546.43 220.896 546.172 219.147 545.656C217.399 545.111 215.879 544.337 214.589 543.334L217.513 539.421C218.803 540.281 220.036 540.926 221.211 541.356C222.415 541.786 223.605 542.001 224.78 542.001C226.099 542.001 227.145 541.786 227.919 541.356C228.722 540.897 229.123 540.31 229.123 539.593C229.123 539.02 228.894 538.561 228.435 538.217C228.005 537.873 227.303 537.629 226.328 537.486L222.028 536.841C219.792 536.497 218.101 535.78 216.954 534.691C215.808 533.573 215.234 532.111 215.234 530.305C215.234 528.843 215.607 527.596 216.352 526.564C217.126 525.503 218.201 524.686 219.577 524.113C220.982 523.511 222.645 523.21 224.565 523.21C226.199 523.21 227.79 523.439 229.338 523.898C230.915 524.357 232.391 525.059 233.767 526.005L230.929 529.832C229.697 529.058 228.521 528.499 227.403 528.155C226.285 527.811 225.153 527.639 224.006 527.639C222.946 527.639 222.086 527.84 221.426 528.241C220.796 528.642 220.48 529.173 220.48 529.832C220.48 530.434 220.71 530.907 221.168 531.251C221.627 531.595 222.415 531.839 223.533 531.982L227.79 532.627C230.026 532.942 231.732 533.659 232.907 534.777C234.083 535.866 234.67 537.285 234.67 539.034C234.67 540.467 234.24 541.743 233.38 542.861C232.52 543.95 231.359 544.825 229.897 545.484C228.435 546.115 226.758 546.43 224.866 546.43ZM237.603 546V515.9L243.494 514.61V525.446C245.186 523.927 247.278 523.167 249.772 523.167C251.521 523.167 253.055 523.554 254.373 524.328C255.721 525.073 256.767 526.12 257.512 527.467C258.258 528.786 258.63 530.334 258.63 532.111V546H252.739V532.971C252.739 531.509 252.324 530.362 251.492 529.531C250.661 528.671 249.529 528.241 248.095 528.241C247.092 528.241 246.203 528.442 245.429 528.843C244.655 529.216 244.01 529.76 243.494 530.477V546H237.603Z" fill="black"/>
<path d="M125.744 230.182C125.668 229.534 125.357 229.031 124.811 228.673C124.266 228.315 123.597 228.136 122.804 228.136C122.224 228.136 121.717 228.23 121.283 228.418C120.852 228.605 120.516 228.863 120.273 229.191C120.034 229.519 119.915 229.892 119.915 230.31C119.915 230.659 119.998 230.96 120.164 231.211C120.335 231.458 120.552 231.665 120.816 231.831C121.08 231.993 121.357 232.127 121.647 232.234C121.937 232.336 122.203 232.419 122.446 232.483L123.776 232.841C124.116 232.93 124.496 233.054 124.913 233.212C125.335 233.369 125.738 233.585 126.121 233.857C126.509 234.126 126.829 234.471 127.08 234.893C127.332 235.315 127.457 235.832 127.457 236.446C127.457 237.153 127.272 237.793 126.901 238.364C126.535 238.935 125.998 239.388 125.29 239.725C124.587 240.062 123.733 240.23 122.727 240.23C121.79 240.23 120.978 240.079 120.292 239.776C119.61 239.474 119.073 239.052 118.681 238.511C118.293 237.969 118.074 237.341 118.023 236.625H119.659C119.702 237.119 119.868 237.528 120.158 237.852C120.452 238.172 120.822 238.411 121.27 238.568C121.722 238.722 122.207 238.798 122.727 238.798C123.332 238.798 123.876 238.7 124.357 238.504C124.839 238.304 125.22 238.027 125.501 237.673C125.783 237.315 125.923 236.898 125.923 236.42C125.923 235.986 125.802 235.632 125.559 235.359C125.316 235.087 124.996 234.865 124.6 234.695C124.204 234.524 123.776 234.375 123.315 234.247L121.705 233.787C120.682 233.493 119.872 233.073 119.276 232.528C118.679 231.982 118.381 231.268 118.381 230.386C118.381 229.653 118.579 229.014 118.975 228.469C119.376 227.919 119.913 227.493 120.586 227.19C121.263 226.884 122.02 226.73 122.855 226.73C123.699 226.73 124.449 226.881 125.105 227.184C125.761 227.482 126.281 227.891 126.665 228.411C127.053 228.931 127.257 229.521 127.278 230.182H125.744ZM129.348 228.315V226.909H139.166V228.315H135.05V240H133.464V228.315H129.348ZM140.62 240H138.958L143.765 226.909H145.401L150.208 240H148.546L144.634 228.98H144.532L140.62 240ZM141.234 234.886H147.933V236.293H141.234V234.886ZM152.247 240V226.909H156.671C157.693 226.909 158.533 227.084 159.189 227.433C159.845 227.778 160.331 228.254 160.646 228.859C160.962 229.464 161.119 230.152 161.119 230.923C161.119 231.695 160.962 232.379 160.646 232.975C160.331 233.572 159.847 234.04 159.195 234.381C158.544 234.718 157.71 234.886 156.696 234.886H153.117V233.455H156.645C157.344 233.455 157.906 233.352 158.333 233.148C158.763 232.943 159.074 232.653 159.266 232.278C159.462 231.899 159.56 231.447 159.56 230.923C159.56 230.399 159.462 229.941 159.266 229.549C159.07 229.157 158.757 228.854 158.326 228.641C157.896 228.424 157.327 228.315 156.619 228.315H153.833V240H152.247ZM158.409 234.119L161.631 240H159.79L156.619 234.119H158.409ZM163.045 228.315V226.909H172.863V228.315H168.747V240H167.162V228.315H163.045ZM176.895 226.909V240H175.31V226.909H176.895ZM190.454 226.909V240H188.92L181.787 229.722H181.659V240H180.074V226.909H181.608L188.767 237.213H188.895V226.909H190.454ZM202.575 231C202.434 230.57 202.249 230.184 202.019 229.843C201.793 229.498 201.523 229.204 201.207 228.961C200.896 228.718 200.542 228.533 200.146 228.405C199.75 228.277 199.315 228.213 198.842 228.213C198.067 228.213 197.361 228.413 196.726 228.814C196.091 229.214 195.586 229.805 195.211 230.585C194.836 231.364 194.649 232.321 194.649 233.455C194.649 234.588 194.839 235.545 195.218 236.325C195.597 237.104 196.111 237.695 196.758 238.095C197.406 238.496 198.135 238.696 198.944 238.696C199.694 238.696 200.355 238.536 200.926 238.217C201.501 237.893 201.949 237.437 202.268 236.849C202.592 236.256 202.754 235.56 202.754 234.759L203.24 234.861H199.302V233.455H204.288V234.861C204.288 235.939 204.058 236.876 203.598 237.673C203.142 238.47 202.511 239.088 201.706 239.527C200.905 239.962 199.984 240.179 198.944 240.179C197.785 240.179 196.767 239.906 195.889 239.361C195.015 238.815 194.334 238.04 193.844 237.034C193.358 236.028 193.115 234.835 193.115 233.455C193.115 232.419 193.253 231.488 193.53 230.661C193.812 229.83 194.208 229.123 194.719 228.539C195.231 227.955 195.836 227.508 196.535 227.197C197.233 226.886 198.003 226.73 198.842 226.73C199.532 226.73 200.176 226.835 200.773 227.043C201.373 227.248 201.908 227.54 202.377 227.919C202.85 228.294 203.244 228.744 203.559 229.268C203.875 229.788 204.092 230.365 204.211 231H202.575ZM212.066 240V226.909H216.642C217.554 226.909 218.306 227.067 218.899 227.382C219.491 227.693 219.932 228.113 220.222 228.641C220.512 229.165 220.657 229.747 220.657 230.386C220.657 230.949 220.556 231.413 220.356 231.78C220.16 232.146 219.9 232.436 219.576 232.649C219.257 232.862 218.909 233.02 218.534 233.122V233.25C218.935 233.276 219.338 233.416 219.743 233.672C220.147 233.928 220.486 234.294 220.759 234.771C221.032 235.249 221.168 235.832 221.168 236.523C221.168 237.179 221.019 237.769 220.721 238.293C220.422 238.817 219.951 239.233 219.308 239.54C218.664 239.847 217.827 240 216.796 240H212.066ZM213.651 238.594H216.796C217.831 238.594 218.566 238.393 219.001 237.993C219.44 237.588 219.659 237.098 219.659 236.523C219.659 236.08 219.547 235.67 219.321 235.295C219.095 234.916 218.773 234.614 218.355 234.388C217.938 234.158 217.444 234.043 216.873 234.043H213.651V238.594ZM213.651 232.662H216.591C217.069 232.662 217.499 232.568 217.882 232.381C218.27 232.193 218.577 231.929 218.803 231.588C219.033 231.247 219.148 230.847 219.148 230.386C219.148 229.811 218.948 229.323 218.547 228.923C218.147 228.518 217.512 228.315 216.642 228.315H213.651V232.662ZM223.773 240V226.909H228.196C229.219 226.909 230.058 227.084 230.714 227.433C231.371 227.778 231.857 228.254 232.172 228.859C232.487 229.464 232.645 230.152 232.645 230.923C232.645 231.695 232.487 232.379 232.172 232.975C231.857 233.572 231.373 234.04 230.721 234.381C230.069 234.718 229.236 234.886 228.222 234.886H224.642V233.455H228.17C228.869 233.455 229.432 233.352 229.858 233.148C230.288 232.943 230.599 232.653 230.791 232.278C230.987 231.899 231.085 231.447 231.085 230.923C231.085 230.399 230.987 229.941 230.791 229.549C230.595 229.157 230.282 228.854 229.852 228.641C229.421 228.424 228.852 228.315 228.145 228.315H225.358V240H223.773ZM229.935 234.119L233.156 240H231.315L228.145 234.119H229.935ZM236.872 226.909V240H235.286V226.909H236.872ZM240.05 240V226.909H247.951V228.315H241.635V232.739H247.542V234.145H241.635V238.594H248.053V240H240.05ZM250.808 240V226.909H258.657V228.315H252.393V232.739H258.069V234.145H252.393V240H250.808Z" fill="#4D4D4D"/>
<path d="M117 243.58H259.782V244.807H117V243.58Z" fill="#4D4D4D"/>
</svg>
