<svg xmlns="http://www.w3.org/2000/svg" viewBox="0 0 341.11 335.56"><g id="Layer_2" data-name="Layer 2"><g id="Layer_1-2" data-name="Layer 1"><path d="M172.32,182.19c.17,4.13.42,11.56.79,19,.65,13.17,1.23,26.35.95,39.55-.15,6.92-.07,13.84-.1,20.76q-.11,19.74-.22,39.47a35.6,35.6,0,0,1-3.67,16,21.29,21.29,0,0,1-13.14,11.32,70.59,70.59,0,0,1-11.56,2.63c-5,.68-10,1.3-15,1.82-4,.41-8.1.67-12.15.92-5.91.37-11.83.68-17.74,1-5.57.29-11.14.59-16.72.76-5.19.16-10.4.23-15.6.22q-16.63,0-33.27-.2-6.13-.06-12.28-.38a44.24,44.24,0,0,1-12.81-2.55,12.72,12.72,0,0,1-8.63-10.19,72.3,72.3,0,0,1-1-9.85A212.08,212.08,0,0,1,.53,290c0-.53.19-1.08-.35-1.51a.64.64,0,0,1,0-.64c.55-.43.48-1,.5-1.6.16-3.82.34-7.64.44-11.46q.38-13.17.66-26.34c.08-4,0-7.92,0-11.88q0-18.24.1-36.47C2,189,1.91,178,2,166.91c.09-13.67.34-27.34.39-41q.06-15.56-.24-31.1c-.14-7.33-.63-14.66-.85-22-.3-9.88-.57-19.76,0-29.64A53.94,53.94,0,0,1,2.7,33.06a21.75,21.75,0,0,1,1.08-3.22c2.25-5.33,6.47-8.2,11.93-9.54a21,21,0,0,1,7.9-.33,79.21,79.21,0,0,0,8.85.58c8.47.23,16.94.15,25.41-.08C65.93,20.26,74,20,82,19.72c12.46-.37,24.93-.78,37.4-.74,4.85,0,9.71,0,14.56.14s9.91.46,14.85.82a27,27,0,0,1,8.62,2,15.19,15.19,0,0,1,7.67,6.9,33.88,33.88,0,0,1,3.11,8.83,95.1,95.1,0,0,1,2.21,15.94c.56,10,.53,20.1.67,30.15.17,12.19.52,24.38.72,36.57.15,9.37.21,18.73.28,28.1C172.2,158.56,172.24,168.72,172.32,182.19ZM2.25,287.51h.92c6.51,0,13,0,19.53.05q40.61.24,81.21.5c7.79.05,15.57.14,23.36.2,13.71.09,27.4.53,41.1,1.17.44,0,.89.06,1.34.11s.74.21.73.69-.38.62-.77.68a3.19,3.19,0,0,1-.62,0l-9.39-.39c-5.13-.2-10.25-.43-15.38-.55q-10.69-.25-21.39-.35-26.81-.27-53.63-.46-33.21-.21-66.44-.32c-.26,0-.52.05-.81.08-.08,2-.15,3.87-.25,5.76a153,153,0,0,0,.06,20.54c.2,2.27.44,4.53.84,6.76a10.88,10.88,0,0,0,7.39,8.93,55.65,55.65,0,0,0,5.53,1.63,55.35,55.35,0,0,0,12.31,1.22q13.32.2,26.66.26c10.12,0,20.25.23,30.37-.19,5.3-.23,10.6-.44,15.89-.71q8.73-.43,17.43-1c4-.24,7.9-.53,11.85-.9,5.41-.5,10.81-1.1,16.18-2a62.32,62.32,0,0,0,11.49-2.87,18.3,18.3,0,0,0,9.3-7.22,31.89,31.89,0,0,0,4.68-11.71,54.26,54.26,0,0,0,.57-9.27q.09-17.51.2-35c0-7.92,0-15.85.12-23.77.1-8.47,0-16.94-.35-25.41-.3-6.29-.72-12.59-.93-18.88q-.39-12.45-.53-24.9c-.23-17.77,0-35.54-.51-53.31-.34-13-.43-26-.68-39.05q-.23-11.62-.59-23.24a87.34,87.34,0,0,0-2.11-16.26,35,35,0,0,0-2.86-8.49,14,14,0,0,0-7.88-6.9,26.93,26.93,0,0,0-7.55-1.6c-5-.35-10-.72-14.95-.81q-11.58-.23-23.15-.06c-8.57.1-17.15.38-25.72.6-5.2.14-10.39.33-15.59.47-7,.2-13.91.45-20.87.52-6,.06-12-.09-18.08-.13-.61,0-1.23.14-1.84.11-1.71-.08-3.43-.21-5.14-.33a1.51,1.51,0,0,1-.79-.15,1.94,1.94,0,0,0-1.27-.32,17.08,17.08,0,0,0-6.12.69C10.37,23.29,6.81,26,5,30.73a24,24,0,0,0-1.09,3.65,71.7,71.7,0,0,0-1.44,15.4c0,7.33.08,14.67.26,22,.14,5.82.56,11.63.71,17.45.22,8.4.43,16.8.42,25.2,0,11.61-.3,23.21-.36,34.82-.06,12.19,0,24.39,0,36.58,0,14.09-.23,28.17-.2,42.26,0,14.43,0,28.86-.59,43.29-.16,4.12-.3,8.26-.43,12.39C2.21,285,2.25,286.16,2.25,287.51Z"/><path d="M256.07,153.46a3.1,3.1,0,0,0-2.18.44,15.54,15.54,0,0,0-4,3,45.42,45.42,0,0,0-7.14,9.19A57.53,57.53,0,0,0,235,186.79a33.58,33.58,0,0,0-.19,10.59,15.19,15.19,0,0,0,3.95,7.92,23.16,23.16,0,0,0,9.16,6.18c2.93,1.09,5.91,2.06,8.87,3.08a27.62,27.62,0,0,1,6.22,3,14.17,14.17,0,0,1,6.41,10.7,28.71,28.71,0,0,1-1.15,11.13,88.31,88.31,0,0,1-11,24.8c-1.26,1.94-2.48,3.89-3.72,5.84a7.07,7.07,0,0,1-.75,1,1.05,1.05,0,0,1-1.3.28,1,1,0,0,1-.37-1.36,8.27,8.27,0,0,1,.71-1.26c2.07-3.33,4.26-6.6,6.2-10a81.33,81.33,0,0,0,8.64-21.81,23.71,23.71,0,0,0,.57-8.72,12.07,12.07,0,0,0-5.91-9.1,32,32,0,0,0-6.51-2.86c-2.57-.87-5.16-1.71-7.7-2.68a25.43,25.43,0,0,1-10.92-7.89,17.16,17.16,0,0,1-3.73-9.56,44.62,44.62,0,0,1,2.09-16.91,58,58,0,0,1,12.07-22,24.93,24.93,0,0,1,4.67-4.21,9.37,9.37,0,0,1,3.84-1.67c2-.29,3.32.91,3,2.86a19.65,19.65,0,0,1-1.23,4,73.76,73.76,0,0,1-5.63,10.33c-1.57,2.55-3.15,5.1-4.62,7.7a26.73,26.73,0,0,0-3.12,8.06,17.29,17.29,0,0,0,.42,8.57c1.23,4,4.05,6.19,8.09,6.92a18.09,18.09,0,0,0,8.45-.71,39.24,39.24,0,0,0,17.95-11.51c1.73-1.91,3.42-3.87,5.13-5.8l1.77-2a46.48,46.48,0,0,1-10.28-3.35,22.27,22.27,0,0,1-3.25-1.78,8,8,0,0,1-3.79-7.35c.06-1.17.17-2.34.29-3.5a6.13,6.13,0,0,0-.05-2.76,1.05,1.05,0,0,1,0-.7,3.11,3.11,0,0,0,.06-1.93,15.21,15.21,0,0,0-4-8.21,19.18,19.18,0,0,0-9.8-6,2.33,2.33,0,0,1-1.11-.67,1,1,0,0,1,.1-1.77c3.42-2.63,5.81-6.14,8.17-9.66,3-4.51,5.95-9.1,9-13.64A54.09,54.09,0,0,1,279.34,108c2.88-2.59,5.91-4.94,10-5.76l-.76-.82a4.53,4.53,0,0,1,0-6.72,10.41,10.41,0,0,1,5.61-2.87,18.86,18.86,0,0,1,9.57.71A32,32,0,0,1,317,100.65a41.4,41.4,0,0,1,10.38,17.15,59.94,59.94,0,0,1,3.06,21.87,38.78,38.78,0,0,1-5.09,17.8,18,18,0,0,1-7.1,6.89,3.19,3.19,0,0,0-1.48,1.67,23.09,23.09,0,0,1-8,9.69l-.34.26a12.77,12.77,0,0,1,.69,1.61,33.72,33.72,0,0,0,2.12,5.7,78.31,78.31,0,0,1,4.47,12.63,93.11,93.11,0,0,1,3,13.8,54.63,54.63,0,0,1,.14,14.73,228.49,228.49,0,0,1-9.37,41c-1.56,4.81-3.5,9.49-5.24,14.24-.78,2.13-1.47,4.29-2.2,6.44,0,.07,0,.14-.06.2-.26.69-.76,1-1.31.88a1.09,1.09,0,0,1-.77-1.38,12.41,12.41,0,0,1,.47-1.79c.87-2.43,1.73-4.87,2.65-7.28a209.29,209.29,0,0,0,6.82-19.8c2.29-8.41,4.28-16.88,5.79-25.46a91.05,91.05,0,0,0,1.45-12,56.35,56.35,0,0,0-.8-11.31,117.77,117.77,0,0,0-5.3-19.82c-.45-1.3-1-2.55-1.56-3.83s-1-2.47-1.47-3.74-.7-2.52-1.07-3.9c-6.48,3.43-13.42,3.85-20.67,2.91.58.88.19,1.48-.33,2.13a104.64,104.64,0,0,1-8.17,9.31,40.2,40.2,0,0,1-17.95,10.15,17.77,17.77,0,0,1-9.1.22c-5.31-1.33-8.3-4.83-9.33-10.14a20.89,20.89,0,0,1,1.18-11.75,58.94,58.94,0,0,1,5.28-9.92,105.9,105.9,0,0,0,6-10.34c.69-1.43,1.26-2.91,1.83-4.38A10.16,10.16,0,0,0,256.07,153.46Zm14.39,10.36c-.09,1.06-.18,2.11-.26,3.17a6.06,6.06,0,0,0,3,5.85,14.53,14.53,0,0,0,1.89,1.06c1.31.59,2.64,1.16,4,1.68a35.62,35.62,0,0,0,19.16,2c7.79-1.35,13.44-5.51,16.71-12.79a45.66,45.66,0,0,0,3.7-16.52,62.35,62.35,0,0,0-.58-12.36,50.47,50.47,0,0,0-5.62-17.07,26,26,0,0,0-13.57-12.27c-2-.79-4-1.64-6-2.43a2.52,2.52,0,0,0-1.09-.17,19,19,0,0,0-2.14.31,14.89,14.89,0,0,0-5.37,2.56,41.12,41.12,0,0,0-7.8,7.34,100.34,100.34,0,0,0-7.19,10.21c-2.56,3.88-5.12,7.76-7.75,11.59a34.23,34.23,0,0,1-5.22,6.15,1.88,1.88,0,0,0,.4.26A22.11,22.11,0,0,1,267,150a1.31,1.31,0,0,0,1.22.56,11.94,11.94,0,0,1,5.06.77c2.67,1.06,5.09,2.9,4.91,6.95a4.31,4.31,0,0,0,0,.72c.25,2.45-2.59,5.15-4.92,5C272.41,163.86,271.52,163.86,270.46,163.82Zm48.12-2.29c.39-.25.63-.38.84-.54a14.5,14.5,0,0,0,3.13-3.27,26.81,26.81,0,0,0,3.29-6.41,42.28,42.28,0,0,0,2.4-17.06,60.66,60.66,0,0,0-3.8-18.11,37.69,37.69,0,0,0-10.68-15.48,28.69,28.69,0,0,0-11.49-6.28,15.87,15.87,0,0,0-8.26-.31,7.9,7.9,0,0,0-4,2.23,2.29,2.29,0,0,0,.05,3.49,11.45,11.45,0,0,0,2.59,1.83c1.21.63,2.52,1.07,3.78,1.6,1.74.74,3.5,1.46,5.21,2.25a25.66,25.66,0,0,1,8.94,6.86,41.66,41.66,0,0,1,7.2,13.27,61.51,61.51,0,0,1,1.08,34.79C318.77,160.71,318.7,161,318.58,161.53Zm-49.05-7.44c.28,1.06.65,2.13.85,3.24a32.1,32.1,0,0,1,.31,3.39,1,1,0,0,0,.49.84,4.42,4.42,0,0,0,3.65-.37,2.67,2.67,0,0,0,1.2-1.85,17.09,17.09,0,0,0-.07-2.48,3.17,3.17,0,0,0-.91-1.92,8.1,8.1,0,0,0-4.27-2.17Z"/><path d="M314,1.71a28.44,28.44,0,0,1,13.4,2.5c6.07,2.65,10.5,7,12.64,13.37a23.47,23.47,0,0,1,0,14.17,29.48,29.48,0,0,1-5.28,10.15A48.45,48.45,0,0,1,319,54.67a69.36,69.36,0,0,1-22.33,7.08,97.54,97.54,0,0,1-17.74,1A86.91,86.91,0,0,1,243,54a28.26,28.26,0,0,1-8.28-5.88,18.87,18.87,0,0,1-5.56-13.3A17.38,17.38,0,0,1,231.82,26a30.26,30.26,0,0,1,9-9.33,71.35,71.35,0,0,1,14.48-7.52,123.79,123.79,0,0,1,28.6-7.68A119.66,119.66,0,0,1,301.66,0c3.53,0,7.06.34,10.59.5A1.8,1.8,0,0,1,314,1.71Zm-1.19,1.35c-1.45-.09-2.8-.19-4.14-.24a130.16,130.16,0,0,0-30.07,2.35A115.69,115.69,0,0,0,251,14.06a51.88,51.88,0,0,0-9.9,5.83A25.9,25.9,0,0,0,233.85,28a13.84,13.84,0,0,0-1.77,9.32,17.34,17.34,0,0,0,4.68,8.91,25.48,25.48,0,0,0,6.88,5,83.77,83.77,0,0,0,33.42,8.71,93.82,93.82,0,0,0,16.33-.51,71.47,71.47,0,0,0,18.5-4.49,51.53,51.53,0,0,0,18-11.65C334,39,337,34.22,338,28.32c1.33-7.9-1-14.41-7.53-19.21a25.34,25.34,0,0,0-15.24-4.69C314.07,4.41,313.06,4.44,312.79,3.06Z"/><path d="M257.44,71.27c0,3.7-1.43,5.45-4.12,6.11a5.32,5.32,0,0,1-6-2.68,4.07,4.07,0,0,1-.37-2.3,7.7,7.7,0,0,1,2.87-5.62,7.46,7.46,0,0,1,1.9-1c.25-.11.73-.14.87,0a7.9,7.9,0,0,0,2,1.16A5.35,5.35,0,0,1,257.44,71.27ZM252,67.69a7.93,7.93,0,0,0-1.26.94A6.11,6.11,0,0,0,249,72.52a2.31,2.31,0,0,0,.7,1.86,3.38,3.38,0,0,0,4.41.27,2.51,2.51,0,0,0,.9-1.08c.43-1.4.3-3.62-1.36-4.59A16.3,16.3,0,0,1,252,67.69Z"/><path d="M263.24,95.25a5.87,5.87,0,0,1,3.41.86A2.52,2.52,0,0,1,268,98.58a8.13,8.13,0,0,1-4.28,6.87,3.72,3.72,0,0,1-4.38-.71c-1.89-2-2.29-4-1-6.51a2,2,0,0,1,.43-.57c.5-.47,1-.91,1.53-1.39A3.52,3.52,0,0,1,263.24,95.25Zm-.09,2.12a1.83,1.83,0,0,0-1.6.7c-.36.37-.76.7-1.15,1a2.16,2.16,0,0,0-.64,2.5,5.34,5.34,0,0,0,.6,1.07,1.88,1.88,0,0,0,2.93.49,5.94,5.94,0,0,0,2.09-2.64C266.24,98.29,266.05,97.58,263.15,97.37Z"/><path d="M93.46,64.7l-2.79.41a3.08,3.08,0,0,0-.17.42A12.33,12.33,0,0,1,87.29,71a23,23,0,0,1-10,5.92A42.71,42.71,0,0,1,65,78.79a74.17,74.17,0,0,1-21.72-2.94,33.2,33.2,0,0,1-6.5-2.61A17,17,0,0,1,32.35,70c-2.31-2.44-2.3-4.85,0-7.27A13.37,13.37,0,0,1,36.23,60a37.84,37.84,0,0,1,9-2.9,131.2,131.2,0,0,1,18.5-2.52,86.92,86.92,0,0,1,12.91,0,30.3,30.3,0,0,1,11.15,2.8,16.54,16.54,0,0,1,5.62,4.46c.21.27.43.53.7.85l2.17-1c1.73-.76,3.45-1.56,5.2-2.26a8.86,8.86,0,0,1,4-.6,5.86,5.86,0,0,1,5.13,3.46,12,12,0,0,1,1.13,5,28.1,28.1,0,0,1-4.58,16.56,29.55,29.55,0,0,1-4.38,5.47,15.18,15.18,0,0,1-4.24,2.89,6.55,6.55,0,0,1-4.62.48,8.46,8.46,0,0,0-1.31-.27,4,4,0,0,0-.85,0l-.09.24c.34.32.66.65,1,.94,1,.76,2,1.46,2.94,2.27,2.87,2.51,3,5.7.35,8.47a14.39,14.39,0,0,1-4.5,3,38.57,38.57,0,0,1-9,2.76,61.59,61.59,0,0,1-12.92,1.32A64.88,64.88,0,0,1,49.1,108.1a22,22,0,0,1-3-1.33,9.76,9.76,0,0,1-2-1.41,3.57,3.57,0,0,1-.4-5.25c.49-.61,1.08-1.14,1.65-1.75a2.18,2.18,0,0,0-.25-.28A45.37,45.37,0,0,1,30.78,76.27,59,59,0,0,1,28.38,66a11.36,11.36,0,0,1,0-1.75.69.69,0,0,1,.73-.72c.45,0,.64.34.67.77.28,4.41,1.69,8.56,3,12.73a40.62,40.62,0,0,0,5.81,11.58A45.68,45.68,0,0,0,46,96.79a1.39,1.39,0,0,0,1.8.25,37.46,37.46,0,0,1,9.66-2.93,88.83,88.83,0,0,1,16.84-1.47A95.92,95.92,0,0,1,86,93.58a3.93,3.93,0,0,1,.92.12c.9.34,1.37-.12,1.85-.81a36.72,36.72,0,0,0,6.63-16.82,19.8,19.8,0,0,0-1-9.16C94.15,66.17,93.8,65.46,93.46,64.7Zm-5.71-5.4a10.82,10.82,0,0,0-2.84-1.38,35.42,35.42,0,0,0-10.64-1.87,96.76,96.76,0,0,0-13.83.39,126.77,126.77,0,0,0-16.1,2.5,32.52,32.52,0,0,0-7.79,2.69A10.26,10.26,0,0,0,33,64.43a2.76,2.76,0,0,0,0,3.93,5.85,5.85,0,0,0,1.14,1.19,26.49,26.49,0,0,0,3.5,2.36,35.94,35.94,0,0,0,5,2.1A67.42,67.42,0,0,0,57.9,77a54.26,54.26,0,0,0,14.4-.44,28.92,28.92,0,0,0,10.23-3.7,16.42,16.42,0,0,0,5-4.59A8,8,0,0,0,89,64.87C86.45,63.5,86.3,61.61,87.75,59.3Zm4.46,31.47c.79.16,1.6.29,2.4.49a4.2,4.2,0,0,0,2.62-.2,12.12,12.12,0,0,0,3.87-2.33,26.82,26.82,0,0,0,4.83-5.89,26.55,26.55,0,0,0,4.18-15.5,11.64,11.64,0,0,0-.71-3.74,4.61,4.61,0,0,0-5.31-3.1C100.78,61,98,62.84,95,64.1c.11.28.18.47.26.65a19.81,19.81,0,0,1,1.89,8.49,29.07,29.07,0,0,1-2.06,11C94.22,86.4,93.2,88.51,92.21,90.77Zm-45.53,8.6a22.43,22.43,0,0,0-1.88,1.9,1.94,1.94,0,0,0,.27,2.86,7.22,7.22,0,0,0,1.49,1.09,21.48,21.48,0,0,0,2.81,1.28A62.49,62.49,0,0,0,68.9,110a61.63,61.63,0,0,0,15.94-1.87,29.74,29.74,0,0,0,6.78-2.46A11.32,11.32,0,0,0,95.13,103a4.26,4.26,0,0,0,1.1-3A2.26,2.26,0,0,0,95,97.8c-1.7-.72-3.48-1.28-5.22-1.93a1.46,1.46,0,0,0-1.87.51,26,26,0,0,1-5.84,5A26.14,26.14,0,0,1,65.89,106a37.91,37.91,0,0,1-18.24-6Zm40.1-4c-.44-.1-.67-.18-.9-.21-3.39-.3-6.78-.72-10.18-.87a81.43,81.43,0,0,0-16.05,1A47.59,47.59,0,0,0,50,97.8c-.5.19-1,.43-1.62.72.45.31.75.53,1.06.72a37.22,37.22,0,0,0,12.1,4.57,25.26,25.26,0,0,0,8.62.46A27.09,27.09,0,0,0,85.06,97.1C85.61,96.59,86.12,96,86.78,95.36Zm5.6-32.12a4.52,4.52,0,0,0-1.76-1.79l.18,2ZM89,62.89a2.88,2.88,0,0,0-.33-2C88.19,61.89,88.25,62.26,89,62.89Zm.8,31.31,1,.26C90.34,93.67,90.34,93.67,89.83,94.2Z"/><path d="M119,91.56a13.1,13.1,0,0,1,2.94-4.22,5.08,5.08,0,0,1,1-.76.73.73,0,0,1,1.07.26.74.74,0,0,1-.18,1c-.67.65-1.37,1.27-2,2a21.34,21.34,0,0,0-1.3,1.79c.43.17.72.26,1,.39a3.38,3.38,0,0,1,2.22,3.49,12.83,12.83,0,0,1-.29,2.24,17.23,17.23,0,0,1-.87,2.17,1.94,1.94,0,0,0,1.56.11,7.76,7.76,0,0,1,2.74-.41,24.21,24.21,0,0,1,8.15,1,13.4,13.4,0,0,1,6.07,4.12,19.09,19.09,0,0,1,2.75,4.23c.62,1.3,1.21,2.61,1.79,3.93a12.86,12.86,0,0,1,1,4.41,1.82,1.82,0,0,0,.91,1.58,19.52,19.52,0,0,1,5.81,5.64,11.1,11.1,0,0,1,.36,12.29,21.53,21.53,0,0,1-6.74,7,46.65,46.65,0,0,1-13.71,6.35,75.85,75.85,0,0,1-16,2.75,84.4,84.4,0,0,1-21.29-1.23,52.17,52.17,0,0,1-17.23-6.09,22.38,22.38,0,0,1-5.3-4.24A13.37,13.37,0,0,1,71,137.89a9.21,9.21,0,0,1,.1-8,13.91,13.91,0,0,1,3.45-4.46A28.13,28.13,0,0,1,82,120.71c2.47-1.11,5-2.06,7.54-3.07.38-.15.77-.28,1.22-.44.06-.79.1-1.58.19-2.36a29.85,29.85,0,0,1,.41-3,7.31,7.31,0,0,1,4.78-5.64,16.11,16.11,0,0,1,4.94-1,5.43,5.43,0,0,0,4-1.81,12.1,12.1,0,0,1,9-4.15c.2,0,.4,0,.73-.1a5.05,5.05,0,0,1-.76-3.91,2.85,2.85,0,0,1,1.88-2.68c.51-.18,1-.47,1.49-.65S118.47,91.69,119,91.56ZM90.73,119a8.8,8.8,0,0,0-1,.27c-2,.79-4.07,1.52-6,2.39a31.18,31.18,0,0,0-7.41,4.45,13.39,13.39,0,0,0-3.52,4.15,7.52,7.52,0,0,0,0,7.42,12.54,12.54,0,0,0,2.1,2.91,25.87,25.87,0,0,0,3.55,3,32.79,32.79,0,0,0,7.25,3.69,70.33,70.33,0,0,0,22.31,4.27,79.28,79.28,0,0,0,15.55-.79,60,60,0,0,0,16.15-4.54,33.67,33.67,0,0,0,9.5-6.12,15.9,15.9,0,0,0,3.87-5.42,8.93,8.93,0,0,0,.55-5.56,13.1,13.1,0,0,0-4.44-6.92.82.82,0,0,0-.55-.19c-.54,0-1.07.17-1.69.27v1.84a26.06,26.06,0,0,1-.55,6.47,6.65,6.65,0,0,1-3.85,4.7,30.44,30.44,0,0,1-3.41,1.17c-2.17.64-4.36,1.25-6.54,1.86-1.78.5-3.55,1.1-5.36,1.47a36,36,0,0,1-8,.3l-13.52-.26c-1.45,0-2.9,0-4.34-.05a10,10,0,0,1-9.13-6.19,15.47,15.47,0,0,1-1.38-6.2c0-2.21,0-4.41,0-6.61Zm54.47.26c-.15-1.44-.27-2.66-.4-3.88a1.48,1.48,0,0,0-.2-.47,17.4,17.4,0,0,1-.81-1.76,22.45,22.45,0,0,0-3.65-7,11.93,11.93,0,0,0-5.67-4,19.23,19.23,0,0,0-5.27-.91,5.61,5.61,0,0,0-.76.06c0,.47,0,.88,0,1.29a2,2,0,0,1-2.16,2.14c-.41,0-.82,0-1.24,0a1.22,1.22,0,0,0-1.09.46,1.77,1.77,0,0,1-1.94.65,10.85,10.85,0,0,0-4.36-.18c-1.54.19-2.84-.69-4-1.61a2.45,2.45,0,0,1-1-2.26,4.93,4.93,0,0,0-.05-.69,9.28,9.28,0,0,0-5.15,2.27c-.56.55-1.11,1.12-1.69,1.66a6.2,6.2,0,0,1-3.58,1.7c-1,.13-2.05.21-3.07.37-4,.66-6,2.44-6.43,6.35-.2,1.91-.17,3.84-.41,5.74-.3,2.46.85,4,2.78,5.28l.35.23c1.36.86,2.89.78,4.41.78.93,0,1.42-.77,2.09-1.23a14.47,14.47,0,0,1,2.32-1.52c2.22-.95,4-.85,5.64,1,.35.38.67.78,1,1.15a12.92,12.92,0,0,0,1.4,1.37,4.29,4.29,0,0,0,1.36.7,1.27,1.27,0,0,0,1.6-.56,7.85,7.85,0,0,1,1.25-1.5,9.52,9.52,0,0,1,1.87-1.44,2.54,2.54,0,0,1,3.45.52c.41.47.82.93,1.24,1.38.88.95,1.39.94,2.15-.09.51-.69.95-1.43,1.42-2.15a10.07,10.07,0,0,1,2.56-2.8,1.93,1.93,0,0,1,2.78.22,24.12,24.12,0,0,0,2,1.82,11.05,11.05,0,0,0,1,.7c.24-.33.41-.59.6-.82.83-1,1.65-2,2.5-3a4.4,4.4,0,0,1,5.3-.84C143.87,118.62,144.43,118.86,145.2,119.23ZM92.37,124.4c0,1.3,0,2.42,0,3.54a13,13,0,0,0,1.75,6,7.5,7.5,0,0,0,5.62,3.95,43.09,43.09,0,0,0,5.45.32c2.2.05,4.41,0,6.61,0,3.31.07,6.61.18,9.92.3A27.51,27.51,0,0,0,132,136.77c2.07-.73,4.23-1.22,6.34-1.84a29.7,29.7,0,0,0,3.23-1.05,5.16,5.16,0,0,0,3.2-3.91,7.45,7.45,0,0,0,.23-1.32c.08-1.47.13-3,.16-4.43,0-.75,0-1.51-.07-2.26l-2.1-1a5.42,5.42,0,0,0-2.77-.65,2.52,2.52,0,0,0-2.4,1.63,3.63,3.63,0,0,1-.46.79c-.28.33-.65.59-.9.94-.77,1-1.57,1.28-2.65.57a20.66,20.66,0,0,1-2.09-1.67c-.44-.37-.84-.79-1.31-1.24a8,8,0,0,0-1.09.89c-.62.73-1.19,1.51-1.76,2.28s-1.06,1.53-1.61,2.28a2.17,2.17,0,0,1-1.9.84,2.61,2.61,0,0,1-1.91-.88c-.52-.54-1-1.1-1.53-1.67a1.09,1.09,0,0,0-1.48-.27,5.62,5.62,0,0,0-1.26.89,24,24,0,0,0-1.66,2,2.3,2.3,0,0,1-2.06,1,4.58,4.58,0,0,1-2.85-1c-.65-.56-1.22-1.2-1.83-1.82l-1.37-1.39a2,2,0,0,0-1.51-.54,4,4,0,0,0-2.25.62,11.14,11.14,0,0,0-1.66,1.23,4.58,4.58,0,0,1-4,1.42h-.21a7.35,7.35,0,0,1-5.28-2C93,124.86,92.75,124.69,92.37,124.4Zm23.09-28.31h.05c0,.24,0,.49,0,.72a3.16,3.16,0,0,0,2.59,2.65c.44.05.89.09,1.32.18a1.63,1.63,0,0,0,1.92-1,6.41,6.41,0,0,0,.78-3.06A2.16,2.16,0,0,0,120,93.24a8.1,8.1,0,0,0-3.82.92,1.2,1.2,0,0,0-.52.72A6.79,6.79,0,0,0,115.46,96.09Zm11.34,5.12a4.55,4.55,0,0,0-2,.25,2.51,2.51,0,0,1-1.49.11,9.18,9.18,0,0,0-2.66-.18,7.29,7.29,0,0,1-3.84-.34,4.12,4.12,0,0,0-1.92-.14,1,1,0,0,0-.43,1.75,10.42,10.42,0,0,0,2,1.19,2.33,2.33,0,0,0,1.9.11,2.36,2.36,0,0,1,1-.16c.71.07,1.41.21,2.12.33.46.08,1,.34,1.34-.14a2.53,2.53,0,0,1,2.29-.86C126.67,103.14,127,103.53,126.8,101.21Z"/><path d="M159.18,268.74c-.55,0-1.1,0-1.65,0a1.69,1.69,0,0,1-1.65-1.18,8.15,8.15,0,0,0-1.91-3.37.79.79,0,0,1,0-1.13.81.81,0,0,1,1.11-.24,4.2,4.2,0,0,1,1.15,1.15c.56.9,1,1.86,1.58,2.94.74,0,1.59-.06,2.44-.17,1.26-.15,2.51-.42,3.77-.53,1-.09,1.68.29,1.78.89a1.52,1.52,0,0,1-1,1.64c-1.2.59-2.45,1.07-3.69,1.58-.44.18-.91.3-1.37.45a1.78,1.78,0,0,0-1.29,1.47c-.18.91-.36,1.82-.58,2.72a4.48,4.48,0,0,1-2.25,2.92,16.72,16.72,0,0,1-8.68,2.26c-5.78,0-11.56-.29-17.35-.45-1.44,0-2.89,0-4.33-.08-3.69-.12-7.37-.27-11-.41a76.65,76.65,0,0,0-9.7.35c-4,.38-8,.62-11.94.93-5.54.44-11.08.17-16.63.2-1.1,0-2.19-.16-3.29-.22-1.69-.08-3.37-.12-5.06-.2s-3.5-.23-5.25-.32c-2-.11-3.93-.14-5.88-.31a15.82,15.82,0,0,1-3.12-.62,4.09,4.09,0,0,1-2.91-3.2,11.32,11.32,0,0,1-.28-2.46c0-2-.11-3.93,0-5.88.14-2.13.43-4.25.74-6.35a4.67,4.67,0,0,1,3.2-3.85c.78-.3,1.69-.39,2.17-1.25.1-.17.5-.23.76-.23a13.19,13.19,0,0,1,2.27.07,24,24,0,0,0,5.15.19,78.25,78.25,0,0,1,11.66.07c2.3.2,4.61.24,6.91.38l9,.57c1,.06,1.92.1,2.89.1,5.58,0,11.16.09,16.74,0,2.82,0,5.64-.29,8.46-.32,4.44-.06,8.88-.13,13.32,0,4.16.14,8.32.48,12.46.89a18.53,18.53,0,0,1,6.94,1.84c.3.16.64.25.94.41a4.08,4.08,0,0,1,.85.57.78.78,0,0,1,.12,1,.77.77,0,0,1-1,.35c-.61-.22-1.21-.49-1.82-.72-.83-.31-1.67-.62-2.51-.89a31.58,31.58,0,0,0-7.55-1c-3.23-.2-6.45-.55-9.68-.7-2.58-.12-5.17-.11-7.75-.06-2.37,0-4.74.27-7.12.34q-4.59.13-9.19.16c-3.34,0-6.68-.09-10-.05-4.21.06-8.39-.29-12.59-.56-2.06-.13-4.12-.2-6.19-.33-1.85-.11-3.7-.32-5.56-.36-2.65-.06-5.3-.06-7.95,0a29.89,29.89,0,0,1-6.48-.26,11.48,11.48,0,0,0-1.44-.09,1.13,1.13,0,0,0-1,.38,2.85,2.85,0,0,1-.88.52,7,7,0,0,1-.86.34A3.61,3.61,0,0,0,52.59,262,64.81,64.81,0,0,0,52,273.64a5.79,5.79,0,0,0,0,.72c.2,1.9.85,2.69,2.71,3.14a13,13,0,0,0,2.25.3c2.74.19,5.49.35,8.24.52.65,0,1.31.05,2,.07l6.6.26c1.59.07,3.17.17,4.75.18,2.72,0,5.44.08,8.16,0,3.27-.1,6.53-.33,9.8-.5,5.36-.27,10.68-1.19,16.07-1,3.13.08,6.26.25,9.39.37,1.69.06,3.38.09,5.07.13,4.33.09,8.67.16,13,.26,2.3.06,4.61.18,6.91.23A17.79,17.79,0,0,0,153.2,277a9.35,9.35,0,0,0,2.06-1.17,2,2,0,0,0,.62-.92,18.77,18.77,0,0,0,.53-2c.1-.43.13-.88.24-1.32a3.47,3.47,0,0,1,2-2.46l.54-.27Z"/><path d="M87.06,303.24c.17-1.2.23-1.24,1.44-1.27a9.72,9.72,0,0,1,7.56,3.19,13,13,0,0,1,3.57,11.3,9.73,9.73,0,0,1-5.36,7.41,12.4,12.4,0,0,1-11.33.6,10.18,10.18,0,0,1-6.3-9.1,14.1,14.1,0,0,1,.16-3,8.16,8.16,0,0,1,3.39-5.47,33.14,33.14,0,0,1,5.49-3.06Zm-9,11.24a9.19,9.19,0,0,0,6.72,9.15,11.42,11.42,0,0,0,9.92-1.72,7.94,7.94,0,0,0,3.46-5.41,11.67,11.67,0,0,0-3.81-11,7.37,7.37,0,0,0-4-1.94,1.67,1.67,0,0,0-.89.06,64.19,64.19,0,0,0-7.68,4A7.51,7.51,0,0,0,78.05,314.48Z"/><path d="M54.7,212.92l-.44,2.34a5.48,5.48,0,0,0,3.66-.76c.18-.1.33-.33.5-.33a1.5,1.5,0,0,1,.93.22.9.9,0,0,1,.18.82,2.27,2.27,0,0,1-.84,1,8,8,0,0,1-4.8.82c-1-.11-1.5-.59-1.91-1.84-2,1.17-3.85.71-5.69-.5-.16.46-.29.92-.47,1.37a1,1,0,0,1-1.1.7,1,1,0,0,1-.71-1.21c.07-.57.13-1.15.21-1.73a1.93,1.93,0,0,1,.24-.77c1-1.27,1-2.8,1.21-4.3.06-.51.07-1,.14-1.54s.38-.94.89-.92.8.33.81,1-.06,1.58-.09,2.37c0,.19,0,.38-.08.79l1.5-1.2,1.23-1a1,1,0,0,1,1.32-.14,1.08,1.08,0,0,1,.35,1.3,3.26,3.26,0,0,1-.74,1.22c-.57.59-1.23,1.09-1.85,1.64l-1.12,1a2.08,2.08,0,0,0,2.82.19c.71-.59.89-.59,1.79.07l.25-1c.09-.39.19-.79.26-1.19a2.56,2.56,0,0,0,.13-1.11c-.25-.81.21-1.4.52-2a.84.84,0,0,1,1-.43,3.62,3.62,0,0,0,1.09-.06c1.22-.24,2.43-.49,3.63-.77a1.38,1.38,0,0,1,1.47.51.8.8,0,0,1,.11,1,1.13,1.13,0,0,1-.85.41c-1.53-.22-2.92.35-4.36.62-.82.16-.6.85-.73,1.51,1-.11,1.84-.23,2.72-.31a10,10,0,0,1,1.55-.07.88.88,0,0,1,1,.87c0,.54-.33.86-1,.91s-1.51.08-2.26.15S55.58,212.81,54.7,212.92Z"/><path d="M37.75,227.9c0,1.24,0,2.37,0,3.49,0,.76-.11,1.51-.19,2.26a2.4,2.4,0,0,1-.23.79.92.92,0,0,1-1.65.17,2,2,0,0,1-.17-2.25,4.89,4.89,0,0,0,.42-2.39c0-.68,0-1.36,0-2a1.57,1.57,0,0,0-1.38.06,1.93,1.93,0,0,1-1.69-.09.9.9,0,0,1-.64-.95.88.88,0,0,1,.83-.79,8.38,8.38,0,0,1,1.23-.07h1.49a2.08,2.08,0,0,0,.27-.29c.75-1.18,1.08-1.22,2-.16a1.12,1.12,0,0,0,1,.37c1.27,0,2.55-.05,3.82,0a1.66,1.66,0,0,1,1.06.25,1.33,1.33,0,0,0,1.33.23c1.11-.19,2.24-.35,3.36-.51a3.47,3.47,0,0,1,.72,0c.63.06,1,.45,1,1s-.37.78-1,.85c-1.54.18-3.07.36-4.61.57-1,.14-1,.17-1.16,1.16,0,.14,0,.28,0,.52a6.65,6.65,0,0,0,.88.07c1.28,0,2.55,0,3.83,0a2.77,2.77,0,0,1,.71,0,.85.85,0,0,1,.71.9.84.84,0,0,1-.74.86,4.58,4.58,0,0,1-.83,0H43.16l-.41,1.79c.4,0,.69.08,1,.08.89,0,1.79,0,2.68,0a3.72,3.72,0,0,0,2.36-.61,1.24,1.24,0,0,1,.36-.19.87.87,0,0,1,1.1.32.83.83,0,0,1-.16,1.12,4,4,0,0,1-2.91,1.13c-1.1,0-2.21,0-3.31-.08a12.79,12.79,0,0,1-2.21-.39,1.45,1.45,0,0,1-.87-2.25,3.83,3.83,0,0,0,.53-1.74c.07-.58.23-1.14.32-1.71a1.27,1.27,0,0,0-1.16-1.46C39.61,227.88,38.75,227.9,37.75,227.9Z"/><path d="M99.87,224.86a5.17,5.17,0,0,0-2.06,3.33,7.92,7.92,0,0,0-.09,1.54c0,.64.23.85.85,1a3.26,3.26,0,0,0,2.65-.88c.73-.59.75-.57,1.66-.37.07-.33.15-.65.21-1a7.65,7.65,0,0,1,1.24-3,2.24,2.24,0,0,1,3.1-.59l1.06.64a2,2,0,0,1,1,2.3A6.88,6.88,0,0,1,106.8,232a3,3,0,0,1-2.47.41,2,2,0,0,1-1.51-1.59c-.25.22-.45.41-.66.58A4.87,4.87,0,0,1,98,232.49,2.55,2.55,0,0,1,95.85,230a7.37,7.37,0,0,1,2.22-5.9,2.18,2.18,0,0,1,3.75.52c.32.56.27,1-.15,1.28a.89.89,0,0,1-1.18-.27C100.31,225.39,100.14,225.18,99.87,224.86Zm4.89,5.71a1.21,1.21,0,0,0,1.39-.42,5.4,5.4,0,0,0,.9-1.23c1-1.83.8-1.8-.93-2.61-.06,0-.14,0-.3,0A6.77,6.77,0,0,0,104.76,230.57Z"/><path d="M97.31,210.67c.72-1,1.27-1.75,1.85-2.51.44-.58.9-1.13,1.36-1.69a1,1,0,0,1,1.18-.4,1,1,0,0,1,.66,1,3.9,3.9,0,0,1,0,1c-.19,1-.42,2.09-.6,3.14a11.4,11.4,0,0,0-.07,1.29.86.86,0,0,0,.16.19c.75.5.89.76.69,1.29a1.75,1.75,0,0,1-1.63,1.05,1.32,1.32,0,0,1-1.13-1.27c0-.66,0-1.31.06-2,0-.33,0-.66,0-1.22A22.74,22.74,0,0,0,97.39,214c-.3.52-.51,1.09-1.27,1-.56-.1-.72-.46-.74-1.5,0-1.44,0-2.88-.08-4.43a1.69,1.69,0,0,0-.81,1.39c-.26,1.1-.47,2.22-.75,3.32a4.16,4.16,0,0,1-.51,1.23.89.89,0,0,1-1.63-.12,3.93,3.93,0,0,1-.19-1.8,12,12,0,0,1,.65-2.17c.37-1.07.8-2.11,1.17-3.18.21-.61.49-1.08,1.24-1a1.34,1.34,0,0,0,.2,0c1.6-.21,2,.07,2.34,1.64C97.14,209,97.19,209.72,97.31,210.67Z"/><path d="M31.79,193l.5-.63c.22-.27.42-.55.66-.8,1-1,2.15-.78,2.55.63.19.66.28,1.34.43,2,.1.45.23.89.35,1.34l.22,0c.16-1.28.31-2.56.48-3.84.1-.82.51-1.22,1.25-1.24s1.15.55.89,1.07c-.58,1.12-.45,2.35-.66,3.52s-.34,2.45-.5,3.68a2.32,2.32,0,0,1-.15.59c-.18.43-.41.81-.94.86a1.12,1.12,0,0,1-1.07-.67,14.89,14.89,0,0,1-1.55-4.24c-.14-.53-.25-1.06-.41-1.73A10.65,10.65,0,0,0,32,196.87c-.16.45-.25.93-.45,1.36a2.21,2.21,0,0,1-.7.84c-.81.52-1.56.13-1.56-.82s.12-1.64.2-2.46c.19-1.85.4-3.69.57-5.54a1.24,1.24,0,0,1,1-1.2,1,1,0,0,1,.82.18.91.91,0,0,1,.2.82c-.51.93-.31,1.94-.46,2.9Z"/><path d="M107.13,210.52c.67-.08,1.18-.09,1.67-.2.94-.22,1.86-.5,2.78-.77.67-.19,1.09-.05,1.29.44a.87.87,0,0,1-.57,1.17,26.45,26.45,0,0,1-3.16.89,22.61,22.61,0,0,1-2.3.28l-.23,1.22c1.58-.07,3.06-.11,4.52-.23a2.89,2.89,0,0,0,1-.47c.55-.31,1-.29,1.29.09s.25.82-.16,1.29a2.58,2.58,0,0,1-1.91.92c-1.82,0-3.64,0-5.46,0a2.62,2.62,0,0,1-1.06-.36.78.78,0,0,1-.37-1.2,2.91,2.91,0,0,0,.15-2.33.8.8,0,0,1,.3-1.08,1.55,1.55,0,0,0,.61-1.88,1.11,1.11,0,0,1,.26-1.2,2.56,2.56,0,0,0,.4-.81c.26-.62.83-.9,1.28-.47s.94.3,1.43.25c1.16-.1,2.32-.26,3.49-.31a1.19,1.19,0,0,1,1.33,1.25c0,.56-.54,1.12-1,.88-1.11-.59-2.22-.21-3.33-.14-.38,0-.74.14-1.12.17a.82.82,0,0,0-.82.77C107.37,209.22,107.27,209.76,107.13,210.52Z"/><path d="M123.22,226.88l-.5,2.24a8.18,8.18,0,0,0,1.17-.19q1.32-.42,2.61-.93c.71-.29,1.14-.22,1.41.3s.08.9-.51,1.29a3,3,0,0,1-.64.33,12.59,12.59,0,0,1-5.43,1c-1.2-.09-1.69-.65-1.46-1.82.06-.27.27-.65.49-.71.77-.21.86-.79.93-1.4-.86-1-.85-1.16,0-1.94.06-.73.07-1.41.16-2.07s.49-.95,1.22-.81a5.14,5.14,0,0,0,1.3,0c1.2-.11,2.39-.24,3.58-.37a1.39,1.39,0,0,1,1.27.55.82.82,0,0,1,.13,1,.79.79,0,0,1-1,.42c-1.37-.44-2.72,0-4.07.12-.75.09-.76.18-.61,1.16h2.51c.48,0,1,0,1.45,0s.95.33,1,.83a.91.91,0,0,1-1,1c-1,0-1.92,0-2.89,0Z"/><path d="M104.64,194.34a8.35,8.35,0,0,0,1.77-3.51,19.54,19.54,0,0,1,.48-2.42,2.25,2.25,0,0,1,.58-.94.94.94,0,0,1,1.65.83c-.19.94-.45,1.86-.63,2.81a9.85,9.85,0,0,0-.23,2,2.06,2.06,0,0,0,.46,1.11,1,1,0,0,0,1.45.14s.09-.1.15-.14c.59-.46,1-.5,1.37-.14s.32.71,0,1.31a2.63,2.63,0,0,1-4,.38c-.3-.26-.56-.58-.88-.92-.38.5-.71,1-1.07,1.42a1.66,1.66,0,0,1-1.9.68,1.58,1.58,0,0,1-1.08-1.6,38.37,38.37,0,0,1,.44-7.5,1.33,1.33,0,0,1,.44-.79,1.06,1.06,0,0,1,.83-.21.92.92,0,0,1,.54.64,6.21,6.21,0,0,1-.12,1.72A18.2,18.2,0,0,0,104.64,194.34Z"/><path d="M78.55,216.8A4.51,4.51,0,0,1,74.7,215a2.26,2.26,0,0,1,.12-3.17,1,1,0,0,1,1.31-.21c.38.27.44.71.17,1.29s-.33.8.21,1.3a3.48,3.48,0,0,0,4.12.17.65.65,0,0,0,.21-1,4.09,4.09,0,0,0-.7-.74c-.48-.39-1-.75-1.5-1.09-1.22-.83-1.59-1.84-1-3.53A4.6,4.6,0,0,1,79,206.32a2.34,2.34,0,0,1,3.39.43,2.64,2.64,0,0,1-.12,3.48.82.82,0,0,1-1.34-.95,2.93,2.93,0,0,0,.3-.86.66.66,0,0,0-.54-.77.9.9,0,0,0-.72.21,2.5,2.5,0,0,0-.59.94,1,1,0,0,0,.41,1.25c.62.42,1.24.87,1.82,1.35a3.13,3.13,0,0,1,1.27,2.38,2.11,2.11,0,0,1-.79,1.81A5.14,5.14,0,0,1,78.55,216.8Z"/><path d="M56.86,230l1.39-.43c.63-.19,1-.07,1.24.38s0,.85-.49,1.2a4.78,4.78,0,0,1-.64.32c-.22.09-.45.16-.76.27.08.37.16.72.23,1.08.12.54.27,1.07.34,1.61a.91.91,0,0,1-.62,1.06A.92.92,0,0,1,56.4,235a3.3,3.3,0,0,1-.3-.95c-.14-.65-.25-1.31-.38-2-.48.05-.82.09-1.16.11a1.07,1.07,0,0,0-1,.86c-.19.58-.45,1.15-.69,1.72a1,1,0,0,1-1.89-.16,2.71,2.71,0,0,1-.07-1,31.2,31.2,0,0,1,1.74-6.34,4.78,4.78,0,0,1,.32-.64c.32-.51.68-1,1.39-.85a1.73,1.73,0,0,1,1.4,1.21C56.12,227.89,56.45,228.85,56.86,230Z"/><path d="M91.89,230.75a9.41,9.41,0,0,0-.78-.95,18.22,18.22,0,0,0-1.58-1.33,2.43,2.43,0,0,1-.91-2.83,5.2,5.2,0,0,1,4.66-3.45,1.9,1.9,0,0,1,1.91,1.9,6,6,0,0,1-.16,1.63.77.77,0,0,1-1,.62.82.82,0,0,1-.6-1,7.28,7.28,0,0,0,.07-.93c0-.45-.27-.58-.69-.52a4,4,0,0,0-2.35,2.15.94.94,0,0,0,.42,1.06,17.56,17.56,0,0,1,1.92,1.72,4.47,4.47,0,0,1,.91,1.58,1.52,1.52,0,0,1-.85,2,6.37,6.37,0,0,1-4.4.63A4.37,4.37,0,0,1,86.63,232a2,2,0,0,1-.32-2.29.87.87,0,0,1,1-.55A.85.85,0,0,1,88,230c.07,1,.36,1.24,1.32,1.28A4.1,4.1,0,0,0,91.89,230.75Z"/><path d="M66.58,190.77l-.94.5a.76.76,0,0,1-1.08-.26.77.77,0,0,1,.19-1.1,3.8,3.8,0,0,1,1-.6,6.73,6.73,0,0,1,4.25-.18,3.91,3.91,0,0,1,1.61,6.54,7.62,7.62,0,0,1-5.43,2.1,2.26,2.26,0,0,1-.89-.19.84.84,0,0,1-.35-1.42,2.39,2.39,0,0,0,.55-1.17C65.81,193.67,66.16,192.35,66.58,190.77Zm2.54,0c-1.29,1.46-1.53,3.19-1.88,5.07a5.68,5.68,0,0,0,3.07-1.56,2,2,0,0,0,.39-2.19A1.94,1.94,0,0,0,69.12,190.75Z"/><path d="M53,196.94c-.35.33-.64.61-.94.88a2.1,2.1,0,0,1-2.39.38,1.77,1.77,0,0,1-1.11-1.91,33.92,33.92,0,0,1,.44-3.47c.16-.91.47-1.79.71-2.69a2.5,2.5,0,0,1,.11-.39,1.45,1.45,0,0,1,1.21-1,.85.85,0,0,1,.82.67,1.4,1.4,0,0,1-.24,1.62,1.3,1.3,0,0,0-.47.61c-.27,1.34-.5,2.7-.71,4.05a2.54,2.54,0,0,0,.06.67c.13,0,.22.06.25,0,1.34-1.23,2.49-2.56,2.6-4.5a7,7,0,0,1,.15-1.12.86.86,0,0,1,.89-.71.87.87,0,0,1,.91.81,9.87,9.87,0,0,1,0,1.44c-.07,1-.19,1.92-.24,2.88a2,2,0,0,0,.43,1.81c.33.31.2.78-.15,1.1a1.31,1.31,0,0,1-1.62,0,2.62,2.62,0,0,1-.42-.57C53.19,197.39,53.13,197.2,53,196.94Z"/><path d="M90.26,193.5a2.92,2.92,0,0,1-3-1.7c-.63-1.06-1.19-2.17-1.72-3.28a2.83,2.83,0,0,1-.18-1.2.64.64,0,0,1,.64-.69,1.3,1.3,0,0,1,.87.37,2.73,2.73,0,0,1,.44,1A9.31,9.31,0,0,0,89,191.08c.56.73.81.72,1.49.07a5.52,5.52,0,0,0,1.5-2.32,14.93,14.93,0,0,1,.72-1.7.92.92,0,0,1,1.09-.59.88.88,0,0,1,.68,1.1,7.2,7.2,0,0,1-.64,2.05,45.22,45.22,0,0,0-2.52,6.65c-.23.68-.43,1.37-.68,2a.92.92,0,0,1-1.12.68c-.49-.1-.74-.45-.68-1.09a4.78,4.78,0,0,1,.27-1.1C89.44,195.81,89.82,194.75,90.26,193.5Z"/><path d="M112.64,226.34c-.15,1-.31,2.07-.47,3.11a4.5,4.5,0,0,1-.08.51c-.17.67-.52,1-1,.92s-.82-.4-.86-1.11a9.17,9.17,0,0,1,0-2c.21-1.32.51-2.63.81-3.93.11-.49.34-.94.92-1a1.45,1.45,0,0,1,1.51.69c.5.89,1,1.79,1.53,2.69a2.07,2.07,0,0,0,.69.81c0-.46,0-.92.08-1.38s0-1.1.1-1.65a.83.83,0,0,1,.68-.81,1.34,1.34,0,0,1,1.34.34,1,1,0,0,1,.08,1.06,4.6,4.6,0,0,0-.33,1.26c-.12,1-.16,1.92-.26,2.88a4.31,4.31,0,0,1-.25,1c-.15.43-.37.84-.9.88a1.38,1.38,0,0,1-1.34-.61c-.27-.44-.5-.9-.74-1.36l-1.29-2.42Z"/><path d="M94.83,195.1a13.45,13.45,0,0,1,1.69-6.2A2.52,2.52,0,0,1,99,187.54a2.18,2.18,0,0,1,2,1.82,8.32,8.32,0,0,1-2.42,7.71,2.87,2.87,0,0,1-2.73.46,1.33,1.33,0,0,1-1-1.19C94.8,195.93,94.83,195.51,94.83,195.1Zm1.89.73c1.06-.24,1.42-1.05,1.82-1.77a5.72,5.72,0,0,0,.47-4.43,1.36,1.36,0,0,1-1.46,1.26A10.47,10.47,0,0,0,96.72,195.83Z"/><path d="M131.37,228.73a6.32,6.32,0,0,0,3.46-.54c-.09-.48-.49-.71-.85-.94-.66-.43-1.36-.8-2-1.23a2.39,2.39,0,0,1-1.26-3,2.76,2.76,0,0,1,2.85-1.92,3.63,3.63,0,0,1,3.23,1.7,2.84,2.84,0,0,1,.38.83.81.81,0,0,1-1.41.71,3.46,3.46,0,0,1-.32-.52,2,2,0,0,0-1.93-1,1,1,0,0,0-1,.69c-.18.51.18.75.54,1,.7.43,1.45.8,2.11,1.3a5.53,5.53,0,0,1,1.35,1.38,1.8,1.8,0,0,1-.95,2.85,9.19,9.19,0,0,1-4.55.58,1.89,1.89,0,0,1-1.59-2.08.9.9,0,0,1,.67-.83.82.82,0,0,1,1,.4C131.15,228.27,131.24,228.49,131.37,228.73Z"/><path d="M71.93,232.48a9.87,9.87,0,0,1-1.31.64,4.28,4.28,0,0,1-1.4.26A1.27,1.27,0,0,1,68,232.14a7.29,7.29,0,0,1,1.43-4.76,1.8,1.8,0,0,1,3.25.26c.27.5.45,1.06.71,1.69a6.81,6.81,0,0,0,2.14-1.58c.59-.71,1-.86,1.47-.56s.54,1,0,1.65a9.51,9.51,0,0,1-1.59,1.45c-.56.44-1.18.8-1.9,1.29.35.16.55.25.76.33a.82.82,0,0,1-.19,1.57,1.66,1.66,0,0,1-1.62-.44C72.26,232.87,72.11,232.69,71.93,232.48Zm-2-1.08,1.76-1a4,4,0,0,0-.76-2A4.84,4.84,0,0,0,69.91,231.4Z"/><path d="M91.08,211.21A5.84,5.84,0,0,1,89,215.74a3.21,3.21,0,0,1-3.39.49,2.42,2.42,0,0,1-1.69-2.46,6.05,6.05,0,0,1,.19-1.53,13.43,13.43,0,0,1,2.51-4.81c1-1.17,2.24-.91,2.82.47a3.09,3.09,0,0,0,.64,1A2.92,2.92,0,0,1,91.08,211.21Zm-3.32-2.47a12.23,12.23,0,0,0-2,4.54c-.06.46-.08.95.4,1.17a1.41,1.41,0,0,0,1.55-.12,3.78,3.78,0,0,0,1.42-2.65,1.68,1.68,0,0,0-.07-.9C88.73,210.11,88.27,209.5,87.76,208.74Z"/><path d="M47.42,194a4.89,4.89,0,0,1-2.77,4.66,3.74,3.74,0,0,1-2.6.31,1.62,1.62,0,0,1-1.32-1.63,10.21,10.21,0,0,1,.33-2.53,15.77,15.77,0,0,1,2.32-4.57,1.15,1.15,0,0,1,2-.1,2.9,2.9,0,0,0,.34.36C47.12,191.51,47.44,192.1,47.42,194ZM44.32,192c-.87,1.63-1.85,3.21-1.71,5.37a9.55,9.55,0,0,0,1.28-.39c1.45-.72,1.67-2,1.66-3.47A1.43,1.43,0,0,0,44.32,192Z"/><path d="M146.72,227.55c.08.23.1.3.13.36.35.73.33,1.08-.08,1.37a1.26,1.26,0,0,1-1.56-.38,2.08,2.08,0,0,1,.16-2.57,5.39,5.39,0,0,1,1.15-.86c.44-.26.92-.46,1.38-.68a1.89,1.89,0,0,0,.79-2.89,1.12,1.12,0,0,0-.77-.38,11.58,11.58,0,0,0-1.86.07c-.73.07-1.39.24-1.66,1.11a.79.79,0,0,1-1.09.49.85.85,0,0,1-.43-1.12,2.37,2.37,0,0,1,1.89-1.95,27.63,27.63,0,0,1,3.26-.4,2.35,2.35,0,0,1,2.51,1.73,10.73,10.73,0,0,1,.36,2.53,2.13,2.13,0,0,1-1.13,1.86c-.54.36-1.14.61-1.71.93S147.18,227.28,146.72,227.55Z"/><path d="M32.43,214.24c1-.15,1.83-.29,2.68-.39a13,13,0,0,1,1.64-.11c.73,0,1.16.35,1.16.9a1.07,1.07,0,0,1-1.11,1,34.73,34.73,0,0,0-3.67.47,7.12,7.12,0,0,0-1.63.6c-.39.17-.78.21-1-.11a1.2,1.2,0,0,1-.3-.91c.72-2.6.69-5.31,1.16-7.94.17-.92.39-1.24,1-1.23s.91.45.84,1.39c-.08,1.2-.27,2.38-.4,3.58C32.61,212.33,32.53,213.21,32.43,214.24Z"/><path d="M59.88,196.83c.61-.13,1.07-.22,1.52-.34.27-.08.5-.24.76-.32a.78.78,0,0,1,1,.36.84.84,0,0,1-.15,1,4.19,4.19,0,0,1-4.24.8,1.5,1.5,0,0,1-.81-1.35,23.23,23.23,0,0,1,.89-6.93,1.31,1.31,0,0,1,1.51-.92,1.67,1.67,0,0,1,.95,1.57c-.07.26-.35.46-.55.67s-.52.31-.55.51A16.38,16.38,0,0,0,59.88,196.83Z"/><path d="M95.55,271c2,.06,4,.1,6,.19a2.88,2.88,0,0,1,1.07.28.86.86,0,0,1,.49,1.11.88.88,0,0,1-1,.6c-1.23-.08-2.46-.16-3.69-.22-1.44-.07-2.88-.12-4.32-.17a2.75,2.75,0,0,0-1.67.34.86.86,0,0,1-1.27-.21.84.84,0,0,1,.42-1.2,6.41,6.41,0,0,1,1.5-.59,5,5,0,0,1,1.23-.09h1.24Z"/><path d="M42.71,208.25a2.68,2.68,0,0,1-.2.81,10.07,10.07,0,0,0-.81,3.27c-.2,1-.39,2-.6,3a1.42,1.42,0,0,1-.3.74.9.9,0,0,1-1.56-.37,1.5,1.5,0,0,1,0-.81c.41-2.08.82-4.17,1.25-6.25a4.67,4.67,0,0,1,.36-1.17,1.12,1.12,0,0,1,1.21-.59C42.53,207,42.73,207.38,42.71,208.25Z"/><path d="M116,271.93h3.61a2.22,2.22,0,0,1,1.54.47.86.86,0,0,1,.32,1,.81.81,0,0,1-.92.5l-8.14-.26a2.47,2.47,0,0,1-.61,0,.77.77,0,0,1-.64-.82.74.74,0,0,1,.71-.76c.41,0,.82,0,1.24,0H116Z"/><path d="M75.73,270.09c1.43.17,2.87.32,4.29.52a3.61,3.61,0,0,1,1.15.42c.56.32.73.76.53,1.19s-.6.58-1.22.43a14.16,14.16,0,0,0-2-.44c-1.47-.13-3-.17-4.42-.24-.17,0-.34,0-.51,0a.75.75,0,0,1-.83-.62.77.77,0,0,1,.56-1,5,5,0,0,1,1.21-.2c.41,0,.83,0,1.24,0Z"/><path d="M22.2,181.23a1.63,1.63,0,0,1,1.13.84c.28.4.1.77-.15,1.13s-.79.58-.71,1.18a5.51,5.51,0,0,0,.8,2.63c.12.17.34.3.38.48a1.83,1.83,0,0,1,0,1,.69.69,0,0,1-1,.25,3.45,3.45,0,0,1-1.19-1.08,7.73,7.73,0,0,1-.7-5.2A1.41,1.41,0,0,1,22.2,181.23Z"/><path d="M138.69,271.49c.93,0,1.86-.07,2.78-.12.5,0,.9.07,1.06.59s-.1.86-.71,1.09a2.85,2.85,0,0,1-1,.18c-1.27,0-2.55,0-3.82,0-.68,0-1.36.1-2.05.15a4.16,4.16,0,0,1-.61,0,.78.78,0,0,1-.85-.73.75.75,0,0,1,.69-.88c.88-.12,1.76-.23,2.65-.29.62,0,1.24,0,1.86,0Z"/><path d="M60.82,269.59a15.84,15.84,0,0,1,2,0,7.19,7.19,0,0,1,1.75.52.73.73,0,0,1,.31,1,.67.67,0,0,1-.81.48,35.39,35.39,0,0,0-5.44-.25c-.66,0-1-.33-1-.83s.28-.79.95-.83,1.51,0,2.27,0Z"/><path d="M26.33,184.53l1,.88a3.72,3.72,0,0,1,.81.77,1,1,0,0,1,0,.85.92.92,0,0,1-.75.39,3.45,3.45,0,0,1-2.74-3.93,1.8,1.8,0,0,1,1.8-1.39.79.79,0,0,1,.74,1.26A12.36,12.36,0,0,1,26.33,184.53Z"/><path d="M155.15,217.18c0,.58.08,1.16.08,1.74a3.17,3.17,0,0,1-1,2.3c-.48.49-1,.57-1.37.26s-.44-.8,0-1.36a2.51,2.51,0,0,0,.62-1.9c-.05-.43-.11-.79-.63-.91a.73.73,0,0,1-.58-.85c.05-.5.41-.68.84-.77a1.54,1.54,0,0,1,1.63.81c.14.23.27.47.41.71Z"/><path d="M155.17,217.21c0-.78.56-1,1.22-1.13a1.29,1.29,0,0,1,1.43.75,5.06,5.06,0,0,1,.57,2.67.8.8,0,0,1-.7.87c-.46.07-.8-.16-.94-.74a6.32,6.32,0,0,0-.44-1.58l-1.16-.87Z"/><path d="M146.09,233.18c.63,0,1,.35,1,.87s-.36.81-1,.79-1.06-.36-1-.86A.87.87,0,0,1,146.09,233.18Z"/><path d="M276.65,128.37a8.88,8.88,0,0,1-1.08-6.54,8.25,8.25,0,0,1,1.48-3.14,3.07,3.07,0,0,1,2.76-1.32,5.56,5.56,0,0,1,3,.56,1.63,1.63,0,0,0,1,.06c3.52-.56,6.56,3.39,6.09,6.67a4.19,4.19,0,0,1-.35,1.07,14.26,14.26,0,0,1-3,4,4.61,4.61,0,0,1-2.87,1.27,29.51,29.51,0,0,1-3.39.2,5.68,5.68,0,0,1-3.2-1C276.16,129.6,276.1,129.35,276.65,128.37Zm3.46.89.06.2c1.16-.09,2.32-.13,3.48-.28a2.7,2.7,0,0,0,1.8-.9c.75-.94,1.48-1.89,2.17-2.87a2.87,2.87,0,0,0,.25-2.67,4.82,4.82,0,0,0-2-2.53,1.54,1.54,0,0,0-1.53-.25c0,3.19,0,3.19-1.42,6.32-.1.22-.17.45-.27.67A3.41,3.41,0,0,1,280.11,129.26Z"/><path d="M299.21,26.41l-.85,1.43c.65-.11,1.2-.23,1.75-.3,1-.12,1.91-.26,2.87-.31a1.08,1.08,0,0,1,1.28,1c0,.63-.42,1-1.23,1.11-1.43.17-2.87.34-4.3.53a10.06,10.06,0,0,0-1.06.22v2.09a.53.53,0,0,0,.59.57,7.18,7.18,0,0,0,4.15-1,1.17,1.17,0,0,1,1.14-.27.9.9,0,0,1,.58,1.08,1.6,1.6,0,0,1-1.05,1.31,26.16,26.16,0,0,1-3.39.82,9.89,9.89,0,0,1-2.37,0,1.84,1.84,0,0,1-1.83-2.06c0-1.68.08-3.36.12-5,0-.42,0-.83,0-1.24,0-.73.13-1,.83-1.22,2-.61,3.95-1.2,5.92-1.79a6,6,0,0,1,.61-.13,1.25,1.25,0,0,1,1.48.4,1.61,1.61,0,0,1-.15,1.65,1.58,1.58,0,0,1-1.82.59,2.49,2.49,0,0,0-1.08-.1C300.64,26,299.89,26.22,299.21,26.41Z"/><path d="M258,35.78a2.49,2.49,0,0,0-1.92-1.34c-.5-.11-1-.09-1.53-.22a6.32,6.32,0,0,1-1.71-.66,2.31,2.31,0,0,1-1.08-2,4.21,4.21,0,0,1,2.06-3.91,6.18,6.18,0,0,1,4.23-.93,2,2,0,0,1,1.41.76c.22.27.45.52.67.78a.94.94,0,0,1,.14,1.3,1,1,0,0,1-1.39.15,1.61,1.61,0,0,1-.54-.46,1.28,1.28,0,0,0-1.44-.54,3.25,3.25,0,0,0-2.81,1.79c-.42,1-.17,1.4.88,1.59.64.11,1.29.16,1.93.3a4.88,4.88,0,0,1,2.31,1.29,2.68,2.68,0,0,1-.09,4.15,7.43,7.43,0,0,1-6.77,1.51A5.49,5.49,0,0,1,250.18,38a1,1,0,0,1-.19-1.55c.39-.44.93-.44,1.57,0l.17.13a4.89,4.89,0,0,0,6-.41A4,4,0,0,0,258,35.78Z"/><path d="M285.46,30.54c.2.89.42,1.79.6,2.69a4.21,4.21,0,0,1,.11,1.22,1.06,1.06,0,0,1-1,1,1.14,1.14,0,0,1-1.07-.83c0-.13-.05-.27-.08-.41-.39-2-.8-3.9-1.17-5.86a8.2,8.2,0,0,1-.08-1.64,1,1,0,0,1,1.83-.4,5.73,5.73,0,0,0,1.82,2.06c.92.82,1.85,1.64,2.79,2.45.3.27.62.5,1.06.85,0-.42.05-.68.05-.94,0-1.48,0-3-.07-4.44a1.59,1.59,0,0,1,.67-1.43,1.3,1.3,0,0,1,.94-.17,1.69,1.69,0,0,1,.76,2.32,1.41,1.41,0,0,0-.31,1c.06.93.12,1.85.19,2.72,1.11.58,1.11.65,1,1.81a4.33,4.33,0,0,1-.78,2.2,1.1,1.1,0,0,1-2,0c-.12-.16-.22-.38-.38-.46a17.64,17.64,0,0,1-3.92-3.17l-.81-.72Z"/><path d="M272.15,31.55c.17-1,.28-2,.52-3a2.73,2.73,0,0,1,2.52-1.92c.14,0,.28,0,.42,0a4.13,4.13,0,0,1,4,1.76,5.89,5.89,0,0,1,1,5.38,4.23,4.23,0,0,1-5.09,2.83,4.11,4.11,0,0,1-3.28-4.07v-.92ZM274.64,29a8.58,8.58,0,0,0-.25,3.69,1.94,1.94,0,0,0,1.8,1.8,2.12,2.12,0,0,0,2.4-1.49,3.94,3.94,0,0,0-.89-3.55c-.73-.88-1.71-.68-2.67-.56Z"/><path d="M310.31,23.66a2.8,2.8,0,0,1,2.4,1c.47.57.51,1,.1,1.47a1,1,0,0,1-1.4,0,1.82,1.82,0,0,0-2.35-.08,1.11,1.11,0,0,0,.29,2,18.11,18.11,0,0,1,2,1,3.2,3.2,0,0,1,1.53,2.66,2.65,2.65,0,0,1-1.62,2.74,3.68,3.68,0,0,1-3.65-.07,2.48,2.48,0,0,1-.9-1,1.23,1.23,0,0,1,.09-.95.8.8,0,0,1,1-.37c.26.08.49.26.76.32a4.12,4.12,0,0,0,1.29.19.84.84,0,0,0,.59-1.48,3.62,3.62,0,0,0-1.1-.72c-.39-.2-.84-.31-1.24-.5A3.1,3.1,0,0,1,307,25.26,3.81,3.81,0,0,1,310.31,23.66Z"/><path d="M262.08,34.32a6.9,6.9,0,0,1,.76-3.34,4.52,4.52,0,0,1,2.49-2.35,6.35,6.35,0,0,0,.81-.44.86.86,0,0,1,1.12.21.84.84,0,0,1,.1,1.13,2.28,2.28,0,0,1-.92.78,3.13,3.13,0,0,0-2.08,2.59c-.1.47-.09,1-.16,1.43a2.15,2.15,0,0,0,3.32,2A7.07,7.07,0,0,0,269,35.11c.47-.46.85-1,1.31-1.46a1.06,1.06,0,0,1,1.55-.19,1,1,0,0,1,.07,1.47,22.86,22.86,0,0,1-2.82,3,4.48,4.48,0,0,1-6.45-1A4,4,0,0,1,262.08,34.32Z"/><path d="M320.8,21a4.32,4.32,0,0,1,.68.66.92.92,0,0,1-.41,1.35,2.27,2.27,0,0,1-2.15-.41,1.57,1.57,0,0,1-.15-1.93,5.62,5.62,0,0,1,4-2.89,2.79,2.79,0,0,1,2.28.54,13,13,0,0,1,1.74,1.49,3.7,3.7,0,0,1,.45,4.66A27.23,27.23,0,0,1,325,27.15c-.42.49-.89.94-1.29,1.46a2,2,0,0,0-.51,1.59.94.94,0,0,1-.74,1.13c-.51.15-1-.15-1.27-.74a2,2,0,0,1,0-1.67A7.86,7.86,0,0,1,323,26.16a26.19,26.19,0,0,0,2-2.19c1-1.27.86-2.13-.32-3.2-.23-.21-.47-.39-.71-.59a1.48,1.48,0,0,0-1.81-.13C321.76,20.32,321.34,20.65,320.8,21Z"/><path d="M322.8,35.36c1.15,0,1.62.37,1.63,1.34a1.59,1.59,0,0,1-1.76,1.67,5.92,5.92,0,0,1-1.76-.4.9.9,0,0,1-.28-1.45A2.56,2.56,0,0,1,322.8,35.36Z"/></g></g></svg>