<svg xmlns="http://www.w3.org/2000/svg" viewBox="0 0 307.69 240.43"><g id="Layer_2" data-name="Layer 2"><g id="Layer_1-2" data-name="Layer 1"><path d="M42,111.66c-.23,1.29-.46,2.57-.68,3.86a91.37,91.37,0,0,1-3.68,15.66,40,40,0,0,1-2.94,6.58c-2.29,3.93-5.63,5-9.9,3.46a30.26,30.26,0,0,1-3-1.31c-5.31-2.53-7.64-7-7.92-12.62a31.34,31.34,0,0,1,1.35-10.19c6-20.92,14.73-40.56,27.85-58.07A93.73,93.73,0,0,1,56.8,43.93,47.44,47.44,0,0,1,80,32.77a44.74,44.74,0,0,1,27.66,3.84,61,61,0,0,1,25.29,22.63c4.93,7.7,8.08,16.15,10.45,24.92a138.16,138.16,0,0,1,4,24.24,174.63,174.63,0,0,1,.64,21.7,23.81,23.81,0,0,1-1.46,8,21.24,21.24,0,0,1-1.33,2.76,9.11,9.11,0,0,1-7.72,4.65c-4,.25-7.78-.77-11.5-2-1.14-.39-2.21-1-3.34-1.4-1.4-.51-2.83-.93-4.25-1.38-.12,0-.25,0-.36-.06a1.69,1.69,0,0,1-1.35-1.69,1.56,1.56,0,0,1,1.55-1.47,9.49,9.49,0,0,1,5.2,1.31A33.23,33.23,0,0,0,133.6,142a20.54,20.54,0,0,0,3.42.22,6.21,6.21,0,0,0,5.7-3.51,18.51,18.51,0,0,0,2.05-8.91c0-5.85-.05-11.71-.36-17.55a131.32,131.32,0,0,0-3.18-23.09c-2.3-9.73-5.4-19.15-10.78-27.69-6.38-10.13-14.83-17.91-25.89-22.61-14.29-6.06-27.94-4.39-40.85,3.94-6.16,4-11,9.38-15.57,15C39,69.11,32.08,81.73,26.43,95.07a161,161,0,0,0-8.14,23.19c-.89,3.51-1.56,7.07-1,10.73a9.81,9.81,0,0,0,5.37,7.7,29.65,29.65,0,0,0,3.46,1.54c2.52.87,4.17.34,5.56-1.95a30.38,30.38,0,0,0,2.34-4.88,88.94,88.94,0,0,0,4-16.32c.66-3.93,1.32-7.85,1.94-11.78a14.23,14.23,0,0,0,.2-3C39.06,82,45.49,66.32,56.88,52.43a31.07,31.07,0,0,1,14.65-9.89c1-.34,2-.66,2.79.37.16.2.66.23,1,.17,14.81-2.57,27.47,2.34,38.89,11.29a54.59,54.59,0,0,1,17.41,22.52c4.35,10.73,5.61,21.87,2.74,33.17-4,15.68-13.67,26.42-29.1,31.47-14.51,4.74-28.71,3.7-42.15-3.82-9.83-5.49-16.44-13.8-20.21-24.39-.2-.55-.4-1.11-.61-1.66ZM88.47,141a55.43,55.43,0,0,0,11.5-1.35c15-3.66,25.27-12.54,30.31-27.23a45.28,45.28,0,0,0,1.87-20,48.91,48.91,0,0,0-6.24-19.68,56.9,56.9,0,0,0-21.16-20.85c-7.87-4.5-16.3-6.91-25.46-6.07a24.18,24.18,0,0,0-15.24,6.72,46.1,46.1,0,0,0-8,10.25,81.46,81.46,0,0,0-5.41,11.83A177.12,177.12,0,0,0,44.18,98.7a16.4,16.4,0,0,0,0,6.8c2.14,10.71,7.17,19.66,15.92,26.33C68.46,138.22,78.07,140.89,88.47,141Z"/><path d="M164.82,83.41c-.45-3.54-1-6.88-1.28-10.24-.79-9.86-1.79-19.71-.94-29.63a76.9,76.9,0,0,1,2.33-13.71,31.09,31.09,0,0,1,13.73-18.42,58.91,58.91,0,0,1,18.7-7.52,126.5,126.5,0,0,1,20.22-2.83c5.77-.42,11.56-.67,17.34-.9a265.15,265.15,0,0,1,31.64.89,77.18,77.18,0,0,1,15.27,2.81c12.43,3.55,20.32,11.59,23.75,24a69.28,69.28,0,0,1,2,21.89,63,63,0,0,1-2,13.58A36.9,36.9,0,0,1,289.2,85.67a75,75,0,0,1-18.84,8.21,158,158,0,0,1-28.17,5.59,255,255,0,0,1-30.52,1.43A166.3,166.3,0,0,1,185,98.55a25.14,25.14,0,0,0-8.82-.26,12.22,12.22,0,0,0-5.54,2.23c-4.46,3.44-9.4,3.68-14.48,1.31a18.2,18.2,0,0,0-1.81-.81,2.94,2.94,0,0,1-1.84-1.34,3,3,0,0,0-.92-.79,1.45,1.45,0,0,1,.89-2.66,4.49,4.49,0,0,1,.9,0,4.78,4.78,0,0,0,4.14-1.36,17.35,17.35,0,0,0,4.25-5.35,8.79,8.79,0,0,0,.82-3.11C162.74,85,163.1,83.84,164.82,83.41ZM157.53,99a10,10,0,0,0,7.83.62,10.33,10.33,0,0,0,5.64-4c.9-1.22,1.26-1.24,2.61-.76a3.24,3.24,0,0,0,1.53.21,32.42,32.42,0,0,1,10.81.29,165.1,165.1,0,0,0,27.19,2.27q12.13.06,24.22-1a163.1,163.1,0,0,0,29.35-5.14,77.26,77.26,0,0,0,20.18-8.28,33.66,33.66,0,0,0,15.85-22A73.67,73.67,0,0,0,304,37.35a46.43,46.43,0,0,0-2.67-12,28.05,28.05,0,0,0-18-17.55,74.22,74.22,0,0,0-8-2.18c-7.1-1.55-14.35-1.8-21.58-2.1a294.48,294.48,0,0,0-39.4,1.07,109.74,109.74,0,0,0-17.66,2.83,53,53,0,0,0-17.05,7.28A27.79,27.79,0,0,0,168,31.19a81.66,81.66,0,0,0-2.19,13.92c-.56,7.43,0,14.83.58,22.23.41,5.41,1,10.81,1.53,16.21.12,1.38.2,2.77.2,4.16,0,1.19-.46,1.56-1.69,1.58a4.24,4.24,0,0,1-.48,0,61.53,61.53,0,0,1-3.74,5.39A57.38,57.38,0,0,1,157.53,99Z"/><path d="M103.17,145.23c0-.18,0-.36,0-.54,0-1.11.52-1.74,1.38-1.76a1.39,1.39,0,0,1,1.48,1.5c0,3.71,2.24,6.22,4.52,8.78a20,20,0,0,0,13.2,6.76c5.63.62,11.27,1.17,16.9,1.79a64.24,64.24,0,0,1,16.05,3.4c8,3.08,14.47,8.35,19.85,15a77.46,77.46,0,0,1,12,21.37,314,314,0,0,1,10.92,36.15,4.46,4.46,0,0,1,.2,1.24,1.58,1.58,0,0,1-3,.74,7.3,7.3,0,0,1-.5-1.54c-2.72-10.69-5.63-21.33-9.34-31.73a85.78,85.78,0,0,0-10.55-21.13,54.33,54.33,0,0,0-10-10.7,40.54,40.54,0,0,0-21.08-8.81c-5.56-.71-11.15-1.15-16.71-1.85-3.4-.43-6.79-1-10.14-1.73a15.58,15.58,0,0,1-7.8-4.36,76.09,76.09,0,0,1-5.25-6A10.93,10.93,0,0,1,103.17,145.23Z"/><path d="M0,235.84c0-.17.1-.53.21-.87,3.06-9.53,6-19.1,10.36-28.15A81.24,81.24,0,0,1,20.25,191a45.26,45.26,0,0,1,18.24-13.57c4-1.67,8.06-3.22,12.1-4.8,8.12-3.17,15.92-6.9,22.75-12.44A35.78,35.78,0,0,0,81,152.26a52.85,52.85,0,0,0,2.65-4.92c.17-.32.25-.69.41-1a1.42,1.42,0,0,1,1.79-.83,1.47,1.47,0,0,1,.89,1.91,10.55,10.55,0,0,1-.4,1.2A30.15,30.15,0,0,1,77.46,161,76.07,76.07,0,0,1,55.7,174c-5.14,2.08-10.3,4.09-15.45,6.16A43.65,43.65,0,0,0,19.4,197.68,110.15,110.15,0,0,0,8.31,221c-1.65,4.72-3.15,9.49-4.73,14.24a9.74,9.74,0,0,1-.65,1.68,1.45,1.45,0,0,1-1.83.78A1.57,1.57,0,0,1,0,235.84Z"/><path d="M68.22,100.48A11.33,11.33,0,0,1,58.43,96a9.58,9.58,0,0,1-2.28-6.12A18.2,18.2,0,0,1,59.72,78a7.75,7.75,0,0,1,.8-1,2.06,2.06,0,0,1,2.79-.26,3.17,3.17,0,0,0,2.18.57c4-.21,7.23,1.5,10.11,4a17.81,17.81,0,0,1,2.09,2.48,9,9,0,0,1,.51,10.57,20.43,20.43,0,0,1-2.46,3.1C73.19,100.23,72.44,100.51,68.22,100.48ZM59.89,85.93c-.15.24-.31.38-.32.53-.07,1-.13,1.92-.13,2.88a8.1,8.1,0,0,0,5.67,7.52c4.45,1.28,7.4.32,9.91-3.58C77.38,89.63,76.91,87,73.2,84c-.28,1-.55,2-.8,3-.44,1.65-1.18,2.37-2.9,2.38a18.86,18.86,0,0,1-4.1-.44A11.42,11.42,0,0,1,59.89,85.93Z"/><path d="M102.82,75.12c1.3.18,2.63.29,3.92.56a8.63,8.63,0,0,1,5.47,3.56,33.25,33.25,0,0,1,2.11,3.36,6.35,6.35,0,0,1-.17,6.39,12.84,12.84,0,0,1-3.86,4.24c-.83.6-1.7,1.15-2.51,1.77a6.15,6.15,0,0,1-7.12.47c-4.23-2.32-6.84-5.8-6.87-10.85a6.12,6.12,0,0,0-.16-1.42c-.7-2.88,0-4.91,2.65-6.2C98.3,76,100.37,74.84,102.82,75.12ZM97.05,85.57c.49,3.13,3,6.36,5.56,7.17a3.39,3.39,0,0,0,2.43,0,18.22,18.22,0,0,0,5.53-4.3c1.87-2.43,1.5-4.87-1-6.82a25.19,25.19,0,0,1-.48,2.62c-.65,2.24-1.61,3-3.92,2.92a32.69,32.69,0,0,1-4.81-.65C99.29,86.33,98.28,85.94,97.05,85.57Z"/><path d="M95.31,118.58a14.17,14.17,0,0,1,7,1,2.88,2.88,0,0,1,2.06,2.68,1.63,1.63,0,0,1-1,1.72,1.36,1.36,0,0,1-1.76-.53c-.85-1.43-2.27-1.48-3.62-1.58a24.84,24.84,0,0,0-15,3.56l-.78.46a1.39,1.39,0,0,1-1.94-.3,1.46,1.46,0,0,1,.11-2,2.74,2.74,0,0,1,.78-.74C85.66,120.44,90.27,118.21,95.31,118.58Z"/><path d="M203.38,50.29c1.42-.45,2.83-.93,4.26-1.36s3-.92,4.52-1.29c1.22-.29,1.91,0,2.25.91a1.84,1.84,0,0,1-1.2,2.31,4.23,4.23,0,0,1-.68.24c-2.9.79-5.79,1.6-8.7,2.35-1.17.3-2,.8-2,2.14a13.86,13.86,0,0,1-.38,2.1,7.19,7.19,0,0,0,1.69,0c2.43-.69,4.86-1.4,7.25-2.2a4.78,4.78,0,0,0,1.54-1.18c.63-.59,1.27-.93,2.1-.43a1.5,1.5,0,0,1,.41,2.22,4.32,4.32,0,0,1-1.6,1.86c-4.55,2-9.22,3.59-14.33,2.82a4.45,4.45,0,0,1-1.82-.67c-1.22-.86-1.17-2.07.19-2.89,1-.61,1.91-1.35,1.76-2.5-.23-1.71.66-3.1.94-4.65s.65-3.19,1-4.78c.37-1.75.75-3.51,1.13-5.26a3.13,3.13,0,0,1,.12-.53c.38-1.18,1-1.84,1.78-1.79,1,.07,1.36.86,1.61,1.7a8.17,8.17,0,0,0,.3.78c1.39-.32,2.72-.64,4.06-.94,1.76-.4,3.53-.79,5.3-1.15a2.44,2.44,0,0,1,1.41,0,2.2,2.2,0,0,1,1.19,1.17,1.85,1.85,0,0,1-.53,1.55,3.87,3.87,0,0,1-1.8.7c-3.43.67-6.86,1.29-10.28,2-.31.06-.75.35-.8.6-.41,2-.75,4-1.1,6Z"/><path d="M180.65,50,189,48c.5-3.05,1-6,1.48-9a23.31,23.31,0,0,1,.49-2.49,1.51,1.51,0,1,1,3,.34,10.4,10.4,0,0,1-.11,2.16c-.51,3.27-1.13,6.52-1.58,9.79-.56,4.12-1,8.26-1.51,12.39-.15,1.16-.61,1.69-1.46,1.79a1.81,1.81,0,0,1-1.93-1.32c-.43-1-.75-1.91.07-2.88a2.27,2.27,0,0,0,.43-1.15c.25-1.91.45-3.82.66-5.73-1.16-.28-5.66.54-7.81,1.45,0,1.86,0,3.78,0,5.71a10.86,10.86,0,0,1-.13,2,2,2,0,0,1-3,1.18c-.4-.3-.82-1.17-.66-1.48.94-1.8.43-3.68.53-5.52a4,4,0,0,0-.53-2.94,1.24,1.24,0,0,1,0-1.17c.67-.86.47-1.83.58-2.77.4-3.59.86-7.17,1.3-10.76a2.38,2.38,0,0,1,.11-.53c.4-1.22,1.3-1.89,2.23-1.68s1.31.94,1.08,2.35c-.26,1.6-.8,3.15-1,4.75C180.94,44.82,180.85,47.22,180.65,50Z"/><path d="M264.63,43.27c.35,5.59-2.45,9.32-6.4,12.47a5.41,5.41,0,0,1-4.63.9,6.83,6.83,0,0,1-5.55-6.8c-.09-5.45,2-10.08,5.25-14.29,1.44-1.87,2.49-1.91,4.45-.56a3.23,3.23,0,0,0,1.45.47A3.66,3.66,0,0,1,262,36.94a5.54,5.54,0,0,0,.65.86A5.55,5.55,0,0,1,264.63,43.27Zm-8.89-5.89c-2.9,4-4.72,8.3-4.36,13.27.16,2.32,3.43,3.58,5.28,2.14a11.21,11.21,0,0,0,4.73-10.69,3.9,3.9,0,0,0-2.52-3.22A12.62,12.62,0,0,1,255.74,37.38Z"/><path d="M281.56,35.67a7.14,7.14,0,0,1,1.07,1,1.44,1.44,0,0,1-.66,2.12,3.51,3.51,0,0,1-3.37-.65,2.44,2.44,0,0,1-.23-3,8.88,8.88,0,0,1,6.2-4.55,4.44,4.44,0,0,1,3.6.85,23.54,23.54,0,0,1,2.73,2.34,5.82,5.82,0,0,1,.71,7.34,41.14,41.14,0,0,1-3.44,4.17c-.67.77-1.41,1.49-2,2.29a3.24,3.24,0,0,0-.81,2.51,1.48,1.48,0,0,1-1.17,1.78c-.8.23-1.54-.23-2-1.17a3.18,3.18,0,0,1,0-2.63,12.34,12.34,0,0,1,2.86-4.34,37.13,37.13,0,0,0,3.19-3.45c1.54-2,1.35-3.35-.5-5-.35-.32-.74-.61-1.11-.92a2.31,2.31,0,0,0-2.85-.2C283.07,34.56,282.41,35.08,281.56,35.67Z"/><path d="M223,54.8a4.38,4.38,0,0,0,1.56,0c1.86-.83,3.68-1.75,5.5-2.65a4.68,4.68,0,0,0,.57-.45,1.39,1.39,0,0,1,1.83,0,1.34,1.34,0,0,1,.31,1.93A6.07,6.07,0,0,1,231,55.54a28.56,28.56,0,0,1-5.46,2.35,7.7,7.7,0,0,1-3.72-.1c-1.91-.44-2.45-1.32-2.27-3.29a41.37,41.37,0,0,1,.65-4.84c.8-3.95,1.69-7.89,2.58-11.83a2.67,2.67,0,0,1,1.68-2.18c1-.36,1.91-.11,2.13,1a11.31,11.31,0,0,1,.15,3.39c0,.4-.65.75-1,1.13s-.78.63-.85,1c-.68,3.92-1.31,7.84-1.94,11.77A5.72,5.72,0,0,0,223,54.8Z"/><path d="M240.47,53.22A7.09,7.09,0,0,0,244,51.57c1.13-1,2.3-.73,2.72-.13.55.77.35,1.77-.72,2.68a9.27,9.27,0,0,1-5.9,2.43c-2.41.05-3.14-.69-3.12-3.09a76.72,76.72,0,0,1,1.44-14.18c.18-.89.27-1.79.5-2.66a2.9,2.9,0,0,1,.71-1.42,1.92,1.92,0,0,1,1.44-.44c1.43.31,2,2.66,1.08,3.78a2.55,2.55,0,0,0-.67,1.19c-.42,4.13-.79,8.26-1.16,12.4A8.22,8.22,0,0,0,240.47,53.22Z"/><path d="M284.7,58.22c1.81,0,2.55.58,2.56,2.12A2.5,2.5,0,0,1,284.49,63a9.46,9.46,0,0,1-2.76-.63,1.42,1.42,0,0,1-.45-2.28A4,4,0,0,1,284.7,58.22Z"/></g></g></svg>