<svg width="1350" height="701" viewBox="0 0 1350 701" fill="none" xmlns="http://www.w3.org/2000/svg">
<rect width="1350" height="670" fill="#FFF8EA"/>
<rect x="236" y="21" width="893" height="448" fill="#FDFDFD"/>
<path fill-rule="evenodd" clip-rule="evenodd" d="M325.128 312.138H330.672C331.813 309.406 334.899 308.237 338.526 308.237C341.777 308.237 344.592 309.176 345.963 311.337C348.715 310.19 351.678 310.208 354.456 311.389C355.815 309.191 358.65 308.237 361.926 308.237C365.599 308.237 368.716 309.436 369.822 312.242L374.871 312.143C374.843 311.555 374.795 310.958 374.728 310.356C374.729 310.354 374.73 310.353 374.731 310.352C374.251 305.988 372.765 301.324 370.379 297.409C368.075 294.33 365.044 291.644 361.133 289.851C350.822 288.262 337.45 292.946 327.318 302.083C326.258 304.789 325.566 307.631 325.267 310.35C325.268 310.352 325.27 310.353 325.271 310.354C325.204 310.956 325.156 311.551 325.128 312.138ZM325.11 314.24C325.242 322.137 326.712 327.944 330.029 332.739C333.811 338.205 340.175 342.517 350 345.954C359.825 342.517 366.189 338.205 369.971 332.739C373.288 327.945 374.758 322.139 374.89 314.246L370.245 314.336C370.25 314.448 370.252 314.561 370.252 314.676C370.252 319.235 366.524 322.932 361.926 322.932C357.328 322.932 353.6 319.235 353.6 314.676C353.6 314.209 353.639 313.77 353.714 313.358C351.416 312.357 348.994 312.337 346.726 313.297C346.809 313.726 346.852 314.185 346.852 314.676C346.852 319.235 343.124 322.932 338.526 322.932C333.928 322.932 330.2 319.235 330.2 314.676C330.2 314.528 330.204 314.383 330.212 314.24H325.11ZM376.994 307.944C376.996 307.942 376.998 307.939 377 307.937C377 328.793 377.787 347.531 379.362 364.15C380.185 364.842 380.872 365.596 381.383 366.436C380.829 366.858 380.265 367.269 379.693 367.669C378.576 365.668 375.812 363.975 370.56 361.681C370.378 361.601 369.173 361.08 368.256 360.68C366.092 363.88 358.733 365.895 350 365.895C341.267 365.895 333.908 363.88 331.744 360.68C330.827 361.08 329.622 361.601 329.44 361.681C324.188 363.975 321.424 365.668 320.307 367.669C319.735 367.269 319.171 366.858 318.617 366.436C319.128 365.596 319.815 364.842 320.638 364.15C322.213 347.531 323 328.793 323 307.937C323.002 307.939 323.004 307.942 323.006 307.944C323.322 293.291 335.287 281.511 350 281.511C364.713 281.511 376.678 293.291 376.994 307.944ZM366.009 359.683C365.263 359.342 364.567 359.012 363.913 358.688H336.087C335.433 359.012 334.737 359.342 333.991 359.683C334.649 360.391 335.959 361.149 337.869 361.797C341.034 362.871 345.366 363.493 350 363.493C354.635 363.493 358.966 362.871 362.131 361.797C364.041 361.149 365.351 360.391 366.009 359.683ZM363.913 358.688C361.348 357.415 359.429 356.223 357.705 354.779C355.209 352.69 353.482 350.259 352.608 347.382C351.977 347.614 351.333 347.842 350.676 348.065L350.542 348.111L350 348.327L349.458 348.111L349.324 348.065C348.667 347.842 348.023 347.614 347.392 347.382C346.518 350.259 344.791 352.69 342.295 354.779C340.571 356.223 338.652 357.415 336.087 358.688H363.913ZM350 379.108C320.177 379.108 296 354.907 296 325.054C296 295.201 320.177 271 350 271C379.823 271 404 295.201 404 325.054C404 354.907 379.823 379.108 350 379.108ZM350 377.006C378.664 377.006 401.9 353.746 401.9 325.054C401.9 296.362 378.664 273.102 350 273.102C321.336 273.102 298.1 296.362 298.1 325.054C298.1 353.746 321.336 377.006 350 377.006ZM350 338.267C345.573 338.267 341.3 334.88 341.3 331.751V330.76H358.7V331.751C358.7 334.88 354.427 338.267 350 338.267ZM350.3 336.165C353.072 336.165 355.787 334.325 356.6 332.562H343.7C344.513 334.325 347.528 336.165 350.3 336.165ZM338.3 316.646C337.14 316.646 336.2 316.484 336.2 315.26C336.2 314.035 337.14 313.042 338.3 313.042C339.46 313.042 340.4 314.035 340.4 315.26C340.4 316.484 339.46 316.646 338.3 316.646ZM361.7 316.646C360.54 316.646 359.6 316.484 359.6 315.26C359.6 314.035 360.54 313.042 361.7 313.042C362.86 313.042 363.8 314.035 363.8 315.26C363.8 316.484 362.86 316.646 361.7 316.646ZM338.526 320.83C341.969 320.83 344.752 318.07 344.752 314.676C344.752 311.826 342.598 310.339 338.526 310.339C334.455 310.339 332.3 311.826 332.3 314.676C332.3 318.07 335.083 320.83 338.526 320.83ZM361.926 320.83C365.369 320.83 368.152 318.07 368.152 314.676C368.152 311.826 365.998 310.339 361.926 310.339C357.855 310.339 355.7 311.826 355.7 314.676C355.7 318.07 358.483 320.83 361.926 320.83Z" fill="black"/>
<path d="M680.437 83.6523L680.404 83.6315C679.642 83.156 678.762 82.9004 677.842 82.9004C677.212 82.9004 676.351 83.1899 675.285 83.796C675.525 88.0284 672.011 91.7192 667.454 91.7192C663.374 91.7192 660.335 89.8736 658.364 86.7529C656.939 84.4955 656.173 81.6375 656.173 79.5351C656.173 78.4289 657.312 77.7234 659.185 77.1214C660.787 76.6064 662.776 76.2767 664.712 76.2401C669.667 76.1465 673.51 77.8612 674.857 81.6948C675.965 81.1353 676.954 80.8471 677.842 80.8471C678.92 80.8471 679.962 81.0949 680.904 81.5613C682.293 77.8214 686.103 76.1476 691 76.2401C692.936 76.2767 694.925 76.6064 696.528 77.1214C698.401 77.7234 699.539 78.4289 699.539 79.5351C699.539 81.6375 698.774 84.4955 697.348 86.7529C695.378 89.8736 692.339 91.7192 688.259 91.7192C683.65 91.7192 680.109 87.9445 680.437 83.6523ZM658.369 79.6925C658.316 79.7257 658.27 79.7566 658.233 79.7839C658.292 81.4949 658.949 83.831 660.103 85.6573C661.713 88.2072 664.115 89.6659 667.454 89.6659C671.26 89.6659 674.038 86.2472 673.03 82.7276C672.15 79.6559 669.079 78.2113 664.751 78.2931C663.015 78.3259 661.225 78.6226 659.814 79.0761C659.195 79.2751 658.693 79.4922 658.369 79.6925ZM697.343 79.6925C697.02 79.4922 696.517 79.2751 695.898 79.0761C694.487 78.6226 692.697 78.3259 690.961 78.2931C686.634 78.2113 683.563 79.6559 682.683 82.7276C681.674 86.2472 684.453 89.6659 688.259 89.6659C691.598 89.6659 694 88.2072 695.61 85.6573C696.763 83.831 697.42 81.4949 697.479 79.7839C697.442 79.7566 697.397 79.7257 697.343 79.6925ZM699.73 69.5711C698.377 67.0736 696.629 64.697 694.419 62.6688C694.199 63.4241 693.88 63.9808 693.574 64.2067C692.118 65.2823 689.014 65.2823 684.259 64.2067C686.685 65.1845 686.685 66.0156 684.259 66.7C681.834 67.3845 678.438 66.26 674.072 63.3267C675.333 65.7712 674.945 66.7489 672.907 66.26C670.396 65.6575 668.081 64.1636 664.186 59.9069C664.119 59.8705 664.052 59.8337 663.986 59.7965C662.645 60.5869 661.425 61.4914 660.319 62.4826C659.783 63.1021 659.274 63.7566 658.791 64.4449C656.812 67.2684 655.357 70.6083 654.476 73.9788C653.847 76.3846 653.509 78.8061 653.482 81.0667C653.482 81.1276 653.482 81.1884 653.482 81.2631L653.483 81.352C653.514 89.5193 654.936 95.4453 658.307 100.307C659.837 102.514 661.798 104.528 664.253 106.369C664.26 106.374 664.267 106.379 664.273 106.385C666.141 107.783 668.292 109.081 670.755 110.287C672.883 111.329 675.243 112.304 677.853 113.215C680.498 112.291 682.886 111.304 685.036 110.245C690.704 107.456 694.716 104.178 697.4 100.307C700.77 95.4453 702.192 89.5193 702.224 81.352L702.224 81.2596L702.224 81.2491C702.224 81.1884 702.224 81.1276 702.225 81.0915C702.196 78.7281 701.832 76.1952 701.152 73.6896C700.775 72.2971 700.3 70.913 699.73 69.5711ZM662.679 107.752C661.314 108.683 659.664 109.227 657.886 109.227C653.974 109.227 650.678 106.591 649.681 103C647.01 102.585 644.967 100.277 644.967 97.4933C644.967 97.0978 645.008 96.7118 645.086 96.3396C642.556 94.8649 640.856 92.1241 640.856 88.9867C640.856 85.3348 643.159 82.2205 646.394 81.0144C646.23 80.4741 646.141 79.9007 646.141 79.3067C646.141 76.1987 648.561 73.6552 651.62 73.453C652.458 66.5545 655.96 60.4766 661.067 56.2761C660.699 54.6265 661.396 53.0228 662.584 52.1733C663.87 51.255 665.338 50.9617 666.989 51.2933C667.127 49.9609 668.091 49.0901 669.882 48.6807C671.672 48.2713 673.351 48.7022 674.917 49.9733C676.048 48.9364 677.44 48.6369 679.094 49.075C680.078 49.3358 681.025 49.7829 682.098 50.6054C693.661 52.4705 702.712 61.831 704.096 73.5375C707.203 74.0761 709.565 76.7825 709.565 80.04C709.565 80.7603 709.45 81.4537 709.236 82.1027C711.351 83.2031 712.795 85.4131 712.795 87.96C712.795 88.3384 712.763 88.7094 712.702 89.0704C714.176 90.0735 715.144 91.7638 715.144 93.68C715.144 96.7581 712.646 99.2533 709.565 99.2533C709.206 99.2533 708.855 99.2195 708.515 99.1547C707.981 101.269 706.237 102.903 704.062 103.278C704.204 103.77 704.28 104.289 704.28 104.827C704.28 107.905 701.782 110.4 698.701 110.4C697.816 110.4 696.979 110.194 696.235 109.828C694.802 110.923 693.01 111.573 691.066 111.573C689.989 111.573 688.959 111.374 688.011 111.009C686.282 111.963 684.38 112.869 682.291 113.729C685.499 125.234 704.046 125.814 708.57 133.221C708.027 133.634 707.476 134.035 706.916 134.426C705.822 132.472 703.117 130.818 697.977 128.577C697.798 128.499 696.619 127.99 695.721 127.6C693.604 130.725 686.401 132.693 677.853 132.693C669.306 132.693 662.103 130.725 659.985 127.6C659.087 127.99 657.908 128.499 657.73 128.577C652.59 130.818 649.884 132.472 648.791 134.426C648.231 134.035 647.679 133.634 647.136 133.221C651.66 125.814 670.208 125.234 673.415 113.729C669.071 111.942 665.538 109.951 662.679 107.752ZM693.522 126.626C692.792 126.293 692.111 125.97 691.471 125.653H664.236C663.596 125.97 662.914 126.293 662.185 126.626C662.828 127.317 664.11 128.057 665.98 128.69C669.078 129.739 673.317 130.347 677.853 130.347C682.389 130.347 686.628 129.739 689.726 128.69C691.596 128.057 692.878 127.317 693.522 126.626ZM691.471 125.653C688.96 124.41 687.082 123.246 685.394 121.835C682.952 119.794 681.261 117.42 680.406 114.61C679.788 114.836 679.158 115.059 678.515 115.277L677.853 115.502L677.192 115.277C676.548 115.059 675.918 114.836 675.301 114.61C674.445 117.42 672.755 119.794 670.312 121.835C668.624 123.246 666.746 124.41 664.236 125.653H691.471ZM677.853 145.6C648.663 145.6 625 121.961 625 92.8C625 63.6394 648.663 40 677.853 40C707.043 40 730.706 63.6394 730.706 92.8C730.706 121.961 707.043 145.6 677.853 145.6ZM677.853 143.547C705.908 143.547 728.651 120.827 728.651 92.8C728.651 64.7734 705.908 42.0533 677.853 42.0533C649.798 42.0533 627.055 64.7734 627.055 92.8C627.055 120.827 649.798 143.547 677.853 143.547ZM676.793 104.594C676.231 104.515 675.839 103.996 675.918 103.435C675.997 102.873 676.516 102.481 677.078 102.56C680.315 103.012 684.341 101.335 685.419 99.2546C685.68 98.751 686.3 98.5541 686.804 98.8148C687.308 99.0754 687.506 99.6949 687.245 100.198C685.731 103.119 680.836 105.158 676.793 104.594ZM666.402 84.8117C665.266 84.8117 664.346 84.6411 664.346 83.345C664.346 82.049 665.266 80.9984 666.402 80.9984C667.537 80.9984 668.457 82.049 668.457 83.345C668.457 84.6411 667.537 84.8117 666.402 84.8117ZM688.13 83.3792C686.162 84.2562 685.68 85.0672 685.287 84.546C684.894 84.0248 685.781 81.916 687.619 81.3418C687.727 81.3082 687.849 81.2418 687.973 81.1925C689.25 80.6818 690.773 81.2685 691.261 81.916C692.037 82.944 690.099 82.5022 688.13 83.3792Z" fill="black"/>
<path fill-rule="evenodd" clip-rule="evenodd" d="M1023.39 311.688C1023.46 312.433 1023.49 313.148 1023.5 313.822C1023.5 313.883 1023.5 313.943 1023.5 314.004C1023.5 314.038 1023.5 314.073 1023.5 314.107C1023.45 328.095 1019.37 338.431 1002.28 345.495C1005.38 356.651 1023.27 357.214 1027.64 364.396C1027.12 364.796 1026.58 365.186 1026.04 365.565C1026 365.596 1025.95 365.627 1025.91 365.659C1024.86 363.758 1022.25 362.152 1017.28 359.974C1017.04 359.868 1014.91 358.945 1014.27 358.664C1010.42 356.961 1007.82 355.572 1005.67 353.879L997.916 358.414L990.269 353.813C988.114 355.534 985.484 356.941 981.587 358.664C980.95 358.945 978.823 359.868 978.582 359.974C973.673 362.125 971.065 363.718 969.989 365.588C969.978 365.58 969.967 365.572 969.956 365.565C969.416 365.186 968.884 364.796 968.36 364.396C972.726 357.214 990.623 356.651 993.718 345.495C976.63 338.431 972.555 328.095 972.501 314.107C972.5 314.073 972.5 314.038 972.5 314.004C972.5 313.943 972.5 313.883 972.5 313.822C972.508 313.148 972.545 312.433 972.612 311.688C972.538 310.893 972.5 310.086 972.5 309.271C972.5 295.133 972.5 283.671 998 283.671C1023.5 283.671 1023.5 295.133 1023.5 309.271C1023.5 310.086 1023.46 310.893 1023.39 311.688ZM1004.24 352.414C1002.43 350.655 1001.16 348.653 1000.46 346.349C999.867 346.569 999.259 346.784 998.638 346.996L998 347.214L997.362 346.996C996.741 346.784 996.133 346.569 995.537 346.349C994.841 348.647 993.572 350.644 991.778 352.4L997.93 356.101L1004.24 352.414ZM998 376.4C969.833 376.4 947 353.477 947 325.2C947 296.923 969.833 274 998 274C1026.17 274 1049 296.923 1049 325.2C1049 353.477 1026.17 376.4 998 376.4ZM998 374.409C1025.07 374.409 1047.02 352.377 1047.02 325.2C1047.02 298.023 1025.07 275.991 998 275.991C970.929 275.991 948.983 298.023 948.983 325.2C948.983 352.377 970.929 374.409 998 374.409ZM1021.52 313.999C1021.52 313.94 1021.52 313.881 1021.52 313.846C1021.45 308.559 1019.67 302.396 1016.39 297.704C1012.3 291.839 1006.23 288.507 998 288.507C989.77 288.507 983.698 291.839 979.606 297.704C976.333 302.396 974.547 308.559 974.483 313.822C974.483 313.881 974.483 313.94 974.484 314.013L974.484 314.099C974.514 322.019 975.887 327.765 979.139 332.48C982.71 337.657 988.721 341.741 998 344.996C1007.28 341.741 1013.29 337.657 1016.86 332.48C1020.11 327.765 1021.49 322.019 1021.52 314.099L1021.52 314.009L1021.52 313.999ZM998 325.769C1003.95 325.769 1006.92 329.467 1007.63 331.504C1007.26 332.201 1004.5 332.273 1001.54 331.173C999.571 330.44 998.39 329.455 998 328.219C997.61 329.455 996.429 330.44 994.458 331.173C991.502 332.273 988.739 332.201 988.367 331.504C989.075 329.467 992.051 325.769 998 325.769ZM986.95 317.236C985.855 317.236 984.967 317.083 984.967 315.923C984.967 314.763 985.855 313.822 986.95 313.822C988.045 313.822 988.933 314.763 988.933 315.923C988.933 317.083 988.045 317.236 986.95 317.236ZM1009.05 317.236C1007.95 317.236 1007.07 317.083 1007.07 315.923C1007.07 314.763 1007.95 313.822 1009.05 313.822C1010.15 313.822 1011.03 314.763 1011.03 315.923C1011.03 317.083 1010.15 317.236 1009.05 317.236ZM1001.51 314.121C999.337 313.173 997.049 313.154 994.908 314.063C994.986 314.47 995.027 314.905 995.027 315.37C995.027 319.689 991.506 323.19 987.164 323.19C982.821 323.19 979.3 319.689 979.3 315.37C979.3 315.23 979.304 315.092 979.311 314.957H974.2V312.966H979.746C980.824 310.379 983.738 309.271 987.164 309.271C990.234 309.271 992.893 310.161 994.188 312.208C996.786 311.12 999.584 311.137 1002.21 312.257C1003.49 310.175 1006.17 309.271 1009.26 309.271C1012.73 309.271 1015.68 310.406 1016.72 313.064L1021.73 312.966L1021.77 314.957L1017.12 315.048C1017.12 315.153 1017.13 315.261 1017.13 315.37C1017.13 319.689 1013.61 323.19 1009.26 323.19C1004.92 323.19 1001.4 319.689 1001.4 315.37C1001.4 314.927 1001.44 314.511 1001.51 314.121ZM987.164 321.198C990.415 321.198 993.044 318.585 993.044 315.37C993.044 312.671 991.009 311.262 987.164 311.262C983.318 311.262 981.283 312.671 981.283 315.37C981.283 318.585 983.912 321.198 987.164 321.198ZM1009.26 321.198C1012.52 321.198 1015.14 318.585 1015.14 315.37C1015.14 312.671 1013.11 311.262 1009.26 311.262C1005.42 311.262 1003.38 312.671 1003.38 315.37C1003.38 318.585 1006.01 321.198 1009.26 321.198Z" fill="black"/>
<path fill-rule="evenodd" clip-rule="evenodd" d="M802.157 561.934C802.158 561.932 802.16 561.93 802.162 561.928C802.162 578.827 802.799 594.01 804.073 607.475C804.737 608.037 805.293 608.647 805.707 609.327C805.258 609.669 804.803 610.003 804.34 610.327C803.436 608.706 801.2 607.334 796.953 605.475C796.805 605.41 795.831 604.988 795.089 604.664C793.339 607.257 787.387 608.889 780.323 608.889C773.26 608.889 767.308 607.257 765.558 604.664C764.816 604.988 763.842 605.41 763.694 605.475C759.446 607.334 757.211 608.706 756.307 610.327C755.844 610.003 755.389 609.669 754.94 609.327C755.354 608.647 755.909 608.037 756.574 607.475C757.848 594.01 758.485 578.827 758.485 561.928C758.487 561.93 758.489 561.932 758.49 561.934C758.746 550.062 768.423 540.516 780.323 540.516C786.277 540.516 791.673 542.905 795.613 546.778C795.659 546.809 795.706 546.839 795.753 546.87C795.749 546.882 795.745 546.894 795.741 546.906C799.602 550.765 802.03 556.065 802.157 561.934ZM794.183 550.495C786.882 563.644 768.935 558.44 763.217 569.15C762.246 563.816 762.089 559.238 762.747 555.415C761.451 558.11 760.627 561.077 760.319 563.884C760.32 563.885 760.321 563.886 760.322 563.887C760.239 564.637 760.192 565.375 760.184 566.094C760.184 566.135 760.184 566.178 760.184 566.228L760.184 566.302C760.21 573.076 761.386 577.992 764.171 582.025C767.229 586.454 772.377 589.947 780.323 592.732C788.27 589.947 793.418 586.454 796.476 582.025C799.261 577.992 800.437 573.076 800.463 566.302L800.463 566.225L800.463 566.216C800.463 566.178 800.463 566.139 800.463 566.109C800.454 565.385 800.408 564.642 800.324 563.888C800.325 563.887 800.326 563.886 800.327 563.885C799.938 560.349 798.736 556.57 796.806 553.398C796.036 552.366 795.164 551.389 794.183 550.495ZM793.272 603.856C792.669 603.58 792.106 603.313 791.577 603.05H769.07C768.541 603.313 767.978 603.58 767.375 603.856C767.907 604.43 768.966 605.044 770.512 605.569C773.072 606.439 776.575 606.943 780.323 606.943C784.072 606.943 787.575 606.439 790.135 605.569C791.681 605.044 792.74 604.43 793.272 603.856ZM791.577 603.05C789.502 602.018 787.95 601.053 786.555 599.883C784.537 598.19 783.14 596.22 782.433 593.889C781.923 594.077 781.402 594.262 780.87 594.443L780.762 594.48L780.323 594.655L779.885 594.48L779.777 594.443C779.245 594.262 778.724 594.077 778.214 593.889C777.507 596.22 776.11 598.19 774.092 599.883C772.697 601.053 771.145 602.018 769.07 603.05H791.577ZM780.323 619.596C756.202 619.596 736.647 599.987 736.647 575.798C736.647 551.609 756.202 532 780.323 532C804.445 532 824 551.609 824 575.798C824 599.987 804.445 619.596 780.323 619.596ZM780.323 617.892C803.507 617.892 822.301 599.046 822.301 575.798C822.301 552.55 803.507 533.703 780.323 533.703C757.14 533.703 738.346 552.55 738.346 575.798C738.346 599.046 757.14 617.892 780.323 617.892ZM780.323 586.504C776.742 586.504 773.287 583.759 773.287 581.224V580.421H787.36V581.224C787.36 583.759 783.904 586.504 780.323 586.504ZM780.566 584.801C782.808 584.801 785.004 583.309 785.662 581.881H775.228C775.885 583.309 778.324 584.801 780.566 584.801ZM770.86 568.985C769.922 568.985 769.162 568.854 769.162 567.862C769.162 566.869 769.922 566.065 770.86 566.065C771.798 566.065 772.559 566.869 772.559 567.862C772.559 568.854 771.798 568.985 770.86 568.985ZM789.787 568.985C788.849 568.985 788.088 568.854 788.088 567.862C788.088 566.869 788.849 566.065 789.787 566.065C790.725 566.065 791.485 566.869 791.485 567.862C791.485 568.854 790.725 568.985 789.787 568.985Z" fill="black"/>
<path fill-rule="evenodd" clip-rule="evenodd" d="M675.586 619.353C652.433 619.353 633.663 600.621 633.663 577.515C633.663 554.409 652.433 535.678 675.586 535.678C698.74 535.678 717.51 554.409 717.51 577.515C717.51 600.621 698.74 619.353 675.586 619.353ZM675.586 617.726C697.84 617.726 715.88 599.723 715.88 577.515C715.88 555.308 697.84 537.305 675.586 537.305C653.333 537.305 635.293 555.308 635.293 577.515C635.293 599.723 653.333 617.726 675.586 617.726ZM654.859 565.248C654.858 565.154 654.857 565.059 654.857 564.964C654.857 553.411 664.242 544.045 675.819 544.045C687.396 544.045 696.781 553.411 696.781 564.964C696.781 566.031 696.701 567.08 696.547 568.104C696.547 568.142 696.548 568.18 696.548 568.218C696.548 568.268 696.548 568.317 696.548 568.367C696.548 568.395 696.548 568.423 696.548 568.45C696.536 571.572 696.277 574.471 695.622 577.153C695.698 576.966 695.774 576.777 695.85 576.585C695.668 577.212 695.477 577.825 695.276 578.423C694.956 579.489 694.565 580.519 694.094 581.514C690.985 588.686 686.169 593.357 679.646 595.529H679.634C683.238 603.282 696.561 603.998 699.952 609.544C699.521 609.871 699.083 610.189 698.639 610.499C698.603 610.524 698.566 610.55 698.529 610.576C697.665 609.022 695.519 607.71 691.432 605.93C691.234 605.844 689.486 605.089 688.962 604.859C685.796 603.468 683.656 602.333 681.894 600.95L675.517 604.656L669.231 600.896C667.46 602.302 665.298 603.452 662.094 604.859C661.571 605.089 659.822 605.844 659.624 605.93C655.589 607.688 653.445 608.99 652.561 610.518C652.552 610.511 652.543 610.505 652.534 610.499C652.09 610.189 651.652 609.871 651.221 609.544C654.612 603.998 667.935 603.282 671.539 595.529H671.527C665.003 593.357 660.187 588.685 657.078 581.511C656.608 580.519 656.218 579.491 655.898 578.427C655.697 577.828 655.505 577.214 655.323 576.585C655.399 576.777 655.475 576.967 655.552 577.155C654.896 574.472 654.637 571.572 654.625 568.45C654.625 568.423 654.625 568.395 654.625 568.367C654.625 568.317 654.625 568.268 654.625 568.218C654.636 567.306 654.71 566.305 654.859 565.248ZM667.661 590.15C668.24 590.121 668.825 590.016 669.418 589.834C670.377 591.515 672.433 592.322 675.586 592.254C678.74 592.322 680.796 591.515 681.755 589.834C682.348 590.016 682.933 590.121 683.512 590.15C686.855 588.21 689.333 585.997 691.091 583.464C693.764 579.611 694.892 574.916 694.918 568.444L694.918 568.371L694.918 568.363C694.918 568.314 694.918 568.266 694.918 568.238C694.881 565.132 694.111 561.657 692.682 558.524C676.876 569.283 672.503 554.077 657.11 562.351C656.568 564.339 656.278 566.348 656.255 568.218C656.255 568.266 656.255 568.314 656.255 568.374L656.255 568.444C656.28 574.916 657.409 579.611 660.082 583.464C661.84 585.997 664.318 588.21 667.661 590.15ZM677.863 595.529H673.31C672.706 597.102 671.752 598.496 670.472 599.741L675.529 602.766L680.713 599.753C679.427 598.505 678.468 597.107 677.863 595.529ZM675.586 579.142C677.963 579.183 680.897 580.353 682.288 581.26C683.216 581.865 683.488 582.794 683.104 584.049C683.19 583.504 682.452 582.931 680.891 582.332C678.549 581.433 676.635 581.609 675.586 580.447C674.538 581.609 672.624 581.433 670.282 582.332C668.721 582.931 667.983 583.504 668.069 584.049C667.685 582.794 667.957 581.865 668.885 581.26C670.276 580.353 673.21 579.183 675.586 579.142ZM666.503 571.24C665.603 571.24 664.873 571.104 664.873 570.077C664.873 569.05 665.603 568.218 666.503 568.218C667.403 568.218 668.133 569.05 668.133 570.077C668.133 571.104 667.403 571.24 666.503 571.24ZM684.67 571.24C683.77 571.24 683.04 571.104 683.04 570.077C683.04 569.05 683.77 568.218 684.67 568.218C685.57 568.218 686.3 569.05 686.3 570.077C686.3 571.104 685.57 571.24 684.67 571.24Z" fill="black"/>
<path fill-rule="evenodd" clip-rule="evenodd" d="M558.332 573.433C557.473 573.433 556.777 573.304 556.777 572.32C556.777 571.336 557.473 570.538 558.332 570.538C559.191 570.538 559.888 571.336 559.888 572.32C559.888 573.304 559.191 573.433 558.332 573.433ZM575.665 573.433C574.806 573.433 574.109 573.304 574.109 572.32C574.109 571.336 574.806 570.538 575.665 570.538C576.524 570.538 577.22 571.336 577.22 572.32C577.22 573.304 576.524 573.433 575.665 573.433ZM567.11 589.135C563.83 589.135 560.665 586.472 560.665 584.013V583.233H573.554V584.013C573.554 586.472 570.389 589.135 567.11 589.135ZM567.11 587.576C569.18 587.576 571.208 586.154 571.815 584.792H562.404C563.011 586.154 565.039 587.576 567.11 587.576ZM571.889 600.756C570.477 599.378 569.477 597.811 568.93 596.007C568.463 596.179 567.986 596.348 567.499 596.514L566.998 596.684L566.498 596.514C566.011 596.348 565.534 596.179 565.067 596.007C564.521 597.806 563.526 599.37 562.119 600.745L566.944 603.643L571.889 600.756ZM545.004 611.053C545.013 611.059 545.021 611.065 545.03 611.071C545.874 609.607 547.919 608.359 551.769 606.675C551.958 606.593 553.626 605.87 554.126 605.649C557.183 604.3 559.245 603.199 560.935 601.851L566.932 605.454L573.016 601.903C574.697 603.229 576.739 604.316 579.76 605.649C580.259 605.87 581.927 606.593 582.116 606.675C586.015 608.381 588.063 609.638 588.887 611.127C588.922 611.102 588.957 611.078 588.993 611.053C589.416 610.756 589.834 610.451 590.244 610.138C586.821 604.514 572.784 604.073 570.357 595.338C583.759 589.807 586.955 581.714 586.998 570.761C586.998 570.734 586.998 570.707 586.997 570.68C586.998 570.633 586.998 570.585 586.998 570.538C586.907 563.007 582.29 549.156 566.998 549.156C551.707 549.156 547.09 563.007 546.999 570.538C546.999 570.585 546.999 570.633 546.999 570.68C546.999 570.707 546.999 570.734 547 570.761C547.042 581.714 550.238 589.807 563.64 595.338C561.212 604.073 547.176 604.514 543.752 610.138C544.163 610.451 544.581 610.756 545.004 611.053H545.004ZM566.998 619.537C544.908 619.537 527 601.588 527 579.447C527 557.306 544.908 539.356 566.998 539.356C589.089 539.356 606.997 557.306 606.997 579.447C606.997 601.588 589.089 619.537 566.998 619.537ZM566.998 617.978C588.23 617.978 605.441 600.727 605.441 579.447C605.441 558.167 588.23 540.916 566.998 540.916C545.767 540.916 528.555 558.167 528.555 579.447C528.555 600.727 545.767 617.978 566.998 617.978ZM585.442 570.676C585.442 570.63 585.442 570.584 585.442 570.557C585.392 566.417 583.991 561.591 581.424 557.917C578.216 553.325 573.453 550.715 566.998 550.715C560.544 550.715 555.781 553.325 552.573 557.917C550.006 561.591 548.604 566.417 548.555 570.538C548.555 570.584 548.555 570.63 548.555 570.687L548.555 570.755C548.579 576.956 549.655 581.455 552.206 585.147C555.007 589.201 559.721 592.398 566.998 594.948C574.276 592.398 578.99 589.201 581.791 585.147C584.341 581.455 585.418 576.956 585.442 570.755L585.442 570.684L585.442 570.676ZM562.401 566.871C562.727 567.152 562.764 567.644 562.484 567.971C562.204 568.297 561.713 568.334 561.387 568.054C560.65 567.419 559.564 567.086 558.248 567.086C556.794 567.086 555.628 567.49 554.893 568.257C554.596 568.568 554.103 568.578 553.794 568.28C553.484 567.982 553.474 567.488 553.771 567.178C554.83 566.072 556.402 565.527 558.248 565.527C559.91 565.527 561.354 565.97 562.401 566.871ZM571.38 566.871C572.427 565.97 573.871 565.527 575.534 565.527C577.379 565.527 578.951 566.072 580.01 567.178C580.307 567.488 580.298 567.982 579.988 568.28C579.678 568.578 579.186 568.568 578.888 568.257C578.153 567.49 576.987 567.086 575.534 567.086C574.217 567.086 573.131 567.419 572.394 568.054C572.068 568.334 571.577 568.297 571.297 567.971C571.017 567.644 571.055 567.152 571.38 566.871Z" fill="black"/>
<circle cx="678" cy="334" r="69" fill="#F6E3B5"/>
<path fill-rule="evenodd" clip-rule="evenodd" d="M648.25 314.756C648.25 308.545 648.25 302.771 649.795 297.964C651.341 293.157 654.431 289.318 660.613 286.978C665.061 282.159 667.719 280.461 670.601 279.774C672.954 279.212 673.402 280.335 671.946 283.141C676.987 279.774 680.909 278.483 683.71 279.268C686.511 280.054 686.511 281.008 683.71 282.131C689.2 280.896 692.785 280.896 694.465 282.131C695.143 282.628 695.877 284.525 695.75 286.746C708.75 291.298 708.75 302.125 708.75 314.756C708.75 315.238 708.739 315.718 708.716 316.195C708.694 316.672 708.661 317.146 708.617 317.617C708.697 318.499 708.74 319.345 708.75 320.144C708.75 320.215 708.75 320.287 708.75 320.359C708.75 320.399 708.75 320.44 708.75 320.48C708.685 337.041 703.851 349.276 683.58 357.639C687.252 370.846 708.482 371.513 713.661 380.016C713.039 380.489 712.408 380.95 711.767 381.399C711.714 381.436 711.661 381.473 711.608 381.51C710.361 379.26 707.264 377.359 701.367 374.78C701.081 374.655 698.558 373.562 697.803 373.229C693.234 371.214 690.144 369.569 687.602 367.564L678.4 372.933L669.329 367.487C666.773 369.524 663.653 371.189 659.029 373.229C658.274 373.562 655.751 374.655 655.465 374.78C649.642 377.326 646.548 379.212 645.272 381.426C645.259 381.417 645.246 381.408 645.233 381.399C644.592 380.95 643.961 380.489 643.339 380.016C648.518 371.513 669.748 370.846 673.42 357.639C653.149 349.276 648.315 337.041 648.251 320.48C648.25 320.44 648.25 320.399 648.25 320.359C648.25 320.287 648.25 320.215 648.25 320.144C648.26 319.345 648.303 318.499 648.383 317.617C648.295 316.675 648.25 315.721 648.25 314.756ZM706.349 318.797C706.006 312.865 703.922 306.215 700.32 301.062C695.467 294.119 688.263 290.174 678.5 290.174C668.737 290.174 661.533 294.119 656.68 301.062C653.074 306.221 650.989 312.882 650.65 318.797H655.308C655.341 318.797 655.374 318.798 655.406 318.802C656.532 316.437 659.133 315.092 664.719 315.092C670.305 315.092 672.907 316.437 674.033 318.802C674.065 318.798 674.097 318.797 674.131 318.797H682.869C682.903 318.797 682.935 318.798 682.967 318.802C684.093 316.437 686.695 315.092 692.281 315.092C697.867 315.092 700.468 316.437 701.594 318.802C701.626 318.798 701.659 318.797 701.692 318.797H706.349ZM650.603 320.48C650.641 329.851 652.269 336.652 656.125 342.231C660.362 348.36 667.493 353.195 678.5 357.049C689.507 353.195 696.638 348.36 700.875 342.231C704.731 336.652 706.359 329.851 706.397 320.48H702.133C702.301 321.323 702.364 322.253 702.364 323.261C702.364 328.33 698.989 331.565 692.281 331.43C685.572 331.294 682.197 328.33 682.197 323.261C682.197 322.253 682.26 321.323 682.429 320.48H674.571C674.74 321.323 674.803 322.253 674.803 323.261C674.803 328.33 671.428 331.294 664.719 331.43C658.011 331.565 654.636 328.33 654.636 323.261C654.636 322.253 654.699 321.323 654.867 320.48H650.603ZM685.898 365.831C683.761 363.748 682.25 361.378 681.422 358.651C680.715 358.91 679.994 359.166 679.257 359.417L678.5 359.675L677.743 359.417C677.006 359.166 676.285 358.91 675.578 358.651C674.753 361.37 673.247 363.735 671.12 365.814L678.417 370.196L685.898 365.831ZM678.5 394.226C645.087 394.226 618 367.089 618 333.613C618 300.137 645.087 273 678.5 273C711.913 273 739 300.137 739 333.613C739 367.089 711.913 394.226 678.5 394.226ZM678.5 391.869C710.614 391.869 736.647 365.787 736.647 333.613C736.647 301.439 710.614 275.357 678.5 275.357C646.386 275.357 620.353 301.439 620.353 333.613C620.353 365.787 646.386 391.869 678.5 391.869ZM669.671 343.13C669.066 342.895 668.765 342.212 669.001 341.605C669.236 340.998 669.917 340.697 670.523 340.933C673.276 342.004 675.972 342.537 678.615 342.537C681.253 342.537 683.864 342.006 686.456 340.941C687.058 340.694 687.745 340.982 687.991 341.584C688.238 342.187 687.95 342.875 687.349 343.122C684.478 344.302 681.564 344.894 678.615 344.894C675.672 344.894 672.689 344.304 669.671 343.13ZM665.392 324.521C664.092 324.521 663.039 324.325 663.039 322.837C663.039 321.35 664.092 320.144 665.392 320.144C666.691 320.144 667.744 321.35 667.744 322.837C667.744 324.325 666.691 324.521 665.392 324.521ZM691.608 324.521C690.309 324.521 689.256 324.325 689.256 322.837C689.256 321.35 690.309 320.144 691.608 320.144C692.908 320.144 693.961 321.35 693.961 322.837C693.961 324.325 692.908 324.521 691.608 324.521ZM664.686 329.746C670.441 329.63 673.122 327.412 673.122 323.261C673.122 320.829 672.719 319.398 671.777 318.489C670.632 317.385 668.421 316.776 664.719 316.776C661.018 316.776 658.807 317.385 657.662 318.489C656.72 319.398 656.317 320.829 656.317 323.261C656.317 327.515 659.084 329.86 664.686 329.746ZM692.314 329.746C697.916 329.86 700.683 327.515 700.683 323.261C700.683 320.829 700.28 319.398 699.338 318.489C698.193 317.385 695.982 316.776 692.281 316.776C688.579 316.776 686.368 317.385 685.223 318.489C684.281 319.398 683.878 320.829 683.878 323.261C683.878 327.412 686.559 329.63 692.314 329.746Z" fill="black"/>
<path d="M426.025 273.779C425.903 274.317 426.24 274.853 426.779 274.975L435.555 276.967C436.094 277.089 436.63 276.752 436.752 276.213C436.874 275.675 436.537 275.139 435.998 275.017L428.197 273.246L429.967 265.445C430.089 264.906 429.752 264.37 429.213 264.248C428.675 264.126 428.139 264.463 428.017 265.002L426.025 273.779ZM600.975 165.221C601.097 164.683 600.76 164.147 600.221 164.025L591.445 162.033C590.906 161.911 590.37 162.248 590.248 162.787C590.126 163.325 590.463 163.861 591.002 163.983L598.803 165.754L597.033 173.555C596.911 174.094 597.248 174.63 597.787 174.752C598.325 174.874 598.861 174.537 598.983 173.998L600.975 165.221ZM427.533 274.846L600.533 165.846L599.467 164.154L426.467 273.154L427.533 274.846Z" fill="black"/>
<path d="M426.348 328.242C425.929 328.602 425.882 329.233 426.242 329.652L432.109 336.477C432.469 336.896 433.1 336.943 433.519 336.583C433.938 336.223 433.985 335.592 433.625 335.173L428.41 329.106L434.477 323.891C434.896 323.531 434.943 322.9 434.583 322.481C434.223 322.062 433.592 322.015 433.173 322.375L426.348 328.242ZM586.652 341.758C587.071 341.398 587.118 340.767 586.758 340.348L580.891 333.523C580.531 333.104 579.9 333.057 579.481 333.417C579.062 333.777 579.015 334.408 579.375 334.827L584.59 340.894L578.523 346.109C578.104 346.469 578.057 347.1 578.417 347.519C578.777 347.938 579.408 347.985 579.827 347.625L586.652 341.758ZM426.925 329.997L585.925 341.997L586.075 340.003L427.075 328.003L426.925 329.997Z" fill="black"/>
<path d="M769.22 341.374C768.874 341.805 768.943 342.434 769.374 342.78L776.393 348.413C776.824 348.758 777.454 348.689 777.799 348.259C778.145 347.828 778.076 347.199 777.645 346.853L771.406 341.846L776.413 335.607C776.758 335.176 776.689 334.546 776.259 334.201C775.828 333.855 775.199 333.924 774.853 334.355L769.22 341.374ZM924.793 325.748C925.139 325.317 925.07 324.688 924.639 324.342L917.62 318.709C917.189 318.363 916.56 318.432 916.214 318.863C915.868 319.294 915.937 319.923 916.368 320.269L922.608 325.276L917.601 331.515C917.255 331.946 917.324 332.575 917.755 332.921C918.185 333.267 918.815 333.198 919.161 332.767L924.793 325.748ZM770.109 342.994L924.122 326.116L923.904 324.128L769.891 341.006L770.109 342.994Z" fill="black"/>
<path d="M757.797 164.021C757.256 164.133 756.909 164.662 757.021 165.203L758.847 174.016C758.96 174.556 759.489 174.904 760.03 174.792C760.57 174.68 760.918 174.151 760.806 173.61L759.182 165.776L767.016 164.153C767.556 164.04 767.904 163.511 767.792 162.97C767.68 162.43 767.151 162.082 766.61 162.194L757.797 164.021ZM924.203 274.979C924.744 274.867 925.091 274.338 924.979 273.797L923.153 264.984C923.04 264.444 922.511 264.096 921.97 264.208C921.43 264.32 921.082 264.849 921.194 265.39L922.818 273.224L914.984 274.847C914.444 274.96 914.096 275.489 914.208 276.03C914.32 276.57 914.849 276.918 915.39 276.806L924.203 274.979ZM757.451 165.836L923.451 274.836L924.549 273.164L758.549 164.164L757.451 165.836Z" fill="black"/>
<path d="M678.707 200.293C678.317 199.902 677.683 199.902 677.293 200.293L670.929 206.657C670.538 207.047 670.538 207.681 670.929 208.071C671.319 208.462 671.953 208.462 672.343 208.071L678 202.414L683.657 208.071C684.047 208.462 684.681 208.462 685.071 208.071C685.462 207.681 685.462 207.047 685.071 206.657L678.707 200.293ZM677.293 250.707C677.683 251.098 678.317 251.098 678.707 250.707L685.071 244.343C685.462 243.953 685.462 243.319 685.071 242.929C684.681 242.538 684.047 242.538 683.657 242.929L678 248.586L672.343 242.929C671.953 242.538 671.319 242.538 670.929 242.929C670.538 243.319 670.538 243.953 670.929 244.343L677.293 250.707ZM677 201V250H679V201H677Z" fill="black"/>
<path d="M678.707 475.293C678.317 474.902 677.683 474.902 677.293 475.293L670.929 481.657C670.538 482.047 670.538 482.681 670.929 483.071C671.319 483.462 671.953 483.462 672.343 483.071L678 477.414L683.657 483.071C684.047 483.462 684.681 483.462 685.071 483.071C685.462 482.681 685.462 482.047 685.071 481.657L678.707 475.293ZM677.293 525.707C677.683 526.098 678.317 526.098 678.707 525.707L685.071 519.343C685.462 518.953 685.462 518.319 685.071 517.929C684.681 517.538 684.047 517.538 683.657 517.929L678 523.586L672.343 517.929C671.953 517.538 671.319 517.538 670.929 517.929C670.538 518.319 670.538 518.953 670.929 519.343L677.293 525.707ZM677 476V525H679V476H677Z" fill="black"/>
<path d="M657.908 154.364H655.595L659.692 166H662.294L666.396 154.364H664.078L661.055 163.523H660.936L657.908 154.364ZM667.838 166H669.895V157.273H667.838V166ZM668.872 156.034C669.526 156.034 670.06 155.534 670.06 154.92C670.06 154.301 669.526 153.801 668.872 153.801C668.213 153.801 667.679 154.301 667.679 154.92C667.679 155.534 668.213 156.034 668.872 156.034ZM678.908 159.58C678.624 158.102 677.442 157.159 675.396 157.159C673.294 157.159 671.862 158.193 671.868 159.807C671.862 161.08 672.646 161.92 674.322 162.267L675.811 162.58C676.612 162.756 676.987 163.08 676.987 163.574C676.987 164.17 676.339 164.619 675.362 164.619C674.419 164.619 673.805 164.21 673.629 163.426L671.624 163.619C671.879 165.222 673.226 166.17 675.368 166.17C677.55 166.17 679.089 165.04 679.095 163.386C679.089 162.142 678.288 161.381 676.641 161.023L675.152 160.705C674.266 160.506 673.913 160.199 673.919 159.693C673.913 159.102 674.567 158.693 675.425 158.693C676.374 158.693 676.874 159.21 677.033 159.784L678.908 159.58ZM686.354 162.33C686.354 163.659 685.405 164.318 684.496 164.318C683.507 164.318 682.848 163.619 682.848 162.511V157.273H680.791V162.83C680.791 164.926 681.984 166.114 683.7 166.114C685.007 166.114 685.928 165.426 686.325 164.449H686.416V166H688.411V157.273H686.354V162.33ZM693.037 166.176C694.406 166.176 695.224 165.534 695.599 164.801H695.668V166H697.645V160.159C697.645 157.852 695.764 157.159 694.099 157.159C692.264 157.159 690.855 157.977 690.401 159.568L692.321 159.841C692.526 159.244 693.105 158.733 694.111 158.733C695.065 158.733 695.588 159.222 695.588 160.08V160.114C695.588 160.705 694.969 160.733 693.429 160.898C691.736 161.08 690.116 161.585 690.116 163.551C690.116 165.267 691.372 166.176 693.037 166.176ZM693.571 164.665C692.713 164.665 692.099 164.273 692.099 163.517C692.099 162.727 692.787 162.398 693.707 162.267C694.247 162.193 695.327 162.057 695.594 161.841V162.869C695.594 163.841 694.81 164.665 693.571 164.665ZM701.77 154.364H699.713V166H701.77V154.364ZM651.286 187C654.832 187 656.934 184.807 656.934 181.17C656.934 177.545 654.832 175.364 651.366 175.364H647.343V187H651.286ZM649.451 185.176V177.188H651.246C653.61 177.188 654.843 178.506 654.843 181.17C654.843 183.847 653.61 185.176 651.184 185.176H649.451ZM662.71 187.17C664.744 187.17 666.141 186.176 666.505 184.659L664.585 184.443C664.306 185.182 663.624 185.568 662.738 185.568C661.408 185.568 660.528 184.693 660.511 183.199H666.59V182.568C666.59 179.506 664.749 178.159 662.602 178.159C660.102 178.159 658.471 179.994 658.471 182.688C658.471 185.426 660.079 187.17 662.71 187.17ZM660.516 181.812C660.579 180.699 661.403 179.761 662.63 179.761C663.812 179.761 664.607 180.625 664.619 181.812H660.516ZM675.228 180.58C674.944 179.102 673.762 178.159 671.717 178.159C669.614 178.159 668.183 179.193 668.188 180.807C668.183 182.08 668.967 182.92 670.643 183.267L672.131 183.58C672.933 183.756 673.308 184.08 673.308 184.574C673.308 185.17 672.66 185.619 671.683 185.619C670.739 185.619 670.126 185.21 669.95 184.426L667.944 184.619C668.2 186.222 669.546 187.17 671.688 187.17C673.87 187.17 675.41 186.04 675.415 184.386C675.41 183.142 674.609 182.381 672.961 182.023L671.472 181.705C670.586 181.506 670.234 181.199 670.239 180.693C670.234 180.102 670.887 179.693 671.745 179.693C672.694 179.693 673.194 180.21 673.353 180.784L675.228 180.58ZM677.112 187H679.168V178.273H677.112V187ZM678.146 177.034C678.799 177.034 679.333 176.534 679.333 175.92C679.333 175.301 678.799 174.801 678.146 174.801C677.487 174.801 676.952 175.301 676.952 175.92C676.952 176.534 677.487 177.034 678.146 177.034ZM685.079 190.455C687.437 190.455 689.175 189.375 689.175 187.142V178.273H687.147V179.716H687.033C686.721 179.085 686.067 178.159 684.528 178.159C682.511 178.159 680.925 179.739 680.925 182.608C680.925 185.455 682.511 186.875 684.522 186.875C686.016 186.875 686.715 186.074 687.033 185.432H687.136V187.085C687.136 188.369 686.283 188.898 685.113 188.898C683.874 188.898 683.329 188.312 683.079 187.801L681.227 188.25C681.602 189.472 682.857 190.455 685.079 190.455ZM685.096 185.261C683.738 185.261 683.022 184.205 683.022 182.597C683.022 181.011 683.727 179.847 685.096 179.847C686.42 179.847 687.147 180.943 687.147 182.597C687.147 184.261 686.408 185.261 685.096 185.261ZM693.34 181.886C693.34 180.625 694.102 179.898 695.187 179.898C696.249 179.898 696.886 180.597 696.886 181.761V187H698.942V181.443C698.948 179.352 697.755 178.159 695.954 178.159C694.647 178.159 693.749 178.784 693.352 179.756H693.249V178.273H691.283V187H693.34V181.886ZM704.897 187.17C706.931 187.17 708.329 186.176 708.692 184.659L706.772 184.443C706.494 185.182 705.812 185.568 704.925 185.568C703.596 185.568 702.715 184.693 702.698 183.199H708.778V182.568C708.778 179.506 706.937 178.159 704.789 178.159C702.289 178.159 700.658 179.994 700.658 182.688C700.658 185.426 702.266 187.17 704.897 187.17ZM702.704 181.812C702.766 180.699 703.59 179.761 704.817 179.761C705.999 179.761 706.795 180.625 706.806 181.812H702.704ZM710.518 187H712.575V181.869C712.575 180.761 713.41 179.977 714.54 179.977C714.887 179.977 715.319 180.04 715.495 180.097V178.205C715.308 178.17 714.984 178.148 714.756 178.148C713.756 178.148 712.921 178.716 712.603 179.727H712.512V178.273H710.518V187Z" fill="#4D4D4D"/>
<path d="M603.418 414.131H607.014V424H609.105V414.131H612.702V412.364H603.418V414.131ZM616.999 424.17C619.033 424.17 620.43 423.176 620.794 421.659L618.874 421.443C618.595 422.182 617.913 422.568 617.027 422.568C615.697 422.568 614.817 421.693 614.8 420.199H620.879V419.568C620.879 416.506 619.038 415.159 616.891 415.159C614.391 415.159 612.76 416.994 612.76 419.688C612.76 422.426 614.368 424.17 616.999 424.17ZM614.805 418.812C614.868 417.699 615.692 416.761 616.919 416.761C618.101 416.761 618.896 417.625 618.908 418.812H614.805ZM625.131 424.176C626.5 424.176 627.318 423.534 627.693 422.801H627.761V424H629.739V418.159C629.739 415.852 627.858 415.159 626.193 415.159C624.358 415.159 622.949 415.977 622.494 417.568L624.415 417.841C624.619 417.244 625.199 416.733 626.205 416.733C627.159 416.733 627.682 417.222 627.682 418.08V418.114C627.682 418.705 627.062 418.733 625.523 418.898C623.83 419.08 622.21 419.585 622.21 421.551C622.21 423.267 623.466 424.176 625.131 424.176ZM625.665 422.665C624.807 422.665 624.193 422.273 624.193 421.517C624.193 420.727 624.881 420.398 625.801 420.267C626.341 420.193 627.42 420.057 627.688 419.841V420.869C627.688 421.841 626.903 422.665 625.665 422.665ZM631.807 424H633.864V418.693C633.864 417.619 634.58 416.892 635.466 416.892C636.335 416.892 636.932 417.477 636.932 418.375V424H638.949V418.557C638.949 417.574 639.534 416.892 640.528 416.892C641.358 416.892 642.017 417.381 642.017 418.46V424H644.08V418.142C644.08 416.193 642.955 415.159 641.352 415.159C640.085 415.159 639.119 415.784 638.733 416.756H638.642C638.307 415.767 637.46 415.159 636.284 415.159C635.114 415.159 634.239 415.761 633.875 416.756H633.773V415.273H631.807V424ZM650.226 424H657.459V422.233H652.334V412.364H650.226V424ZM663.061 424.17C665.095 424.17 666.493 423.176 666.857 421.659L664.936 421.443C664.658 422.182 663.976 422.568 663.089 422.568C661.76 422.568 660.879 421.693 660.862 420.199H666.942V419.568C666.942 416.506 665.101 415.159 662.953 415.159C660.453 415.159 658.822 416.994 658.822 419.688C658.822 422.426 660.43 424.17 663.061 424.17ZM660.868 418.812C660.93 417.699 661.754 416.761 662.982 416.761C664.163 416.761 664.959 417.625 664.97 418.812H660.868ZM671.193 424.176C672.562 424.176 673.381 423.534 673.756 422.801H673.824V424H675.801V418.159C675.801 415.852 673.92 415.159 672.256 415.159C670.42 415.159 669.011 415.977 668.557 417.568L670.477 417.841C670.682 417.244 671.261 416.733 672.267 416.733C673.222 416.733 673.744 417.222 673.744 418.08V418.114C673.744 418.705 673.125 418.733 671.585 418.898C669.892 419.08 668.273 419.585 668.273 421.551C668.273 423.267 669.528 424.176 671.193 424.176ZM671.727 422.665C670.869 422.665 670.256 422.273 670.256 421.517C670.256 420.727 670.943 420.398 671.864 420.267C672.403 420.193 673.483 420.057 673.75 419.841V420.869C673.75 421.841 672.966 422.665 671.727 422.665ZM681.108 424.153C682.608 424.153 683.284 423.261 683.608 422.625H683.733V424H685.756V412.364H683.693V416.716H683.608C683.295 416.085 682.653 415.159 681.114 415.159C679.097 415.159 677.511 416.739 677.511 419.648C677.511 422.523 679.051 424.153 681.108 424.153ZM681.682 422.466C680.324 422.466 679.608 421.273 679.608 419.636C679.608 418.011 680.312 416.847 681.682 416.847C683.006 416.847 683.733 417.943 683.733 419.636C683.733 421.33 682.994 422.466 681.682 422.466ZM695.393 424.17C696.422 424.17 697.564 423.852 698.376 423.148L699.121 424H701.348L699.643 422.006C700.212 421.244 700.655 420.114 700.655 418.517H698.888C698.888 419.284 698.706 419.972 698.399 420.545L696.274 418.057L697.007 417.517C697.979 416.812 698.553 415.966 698.553 414.864C698.553 413.443 697.433 412.222 695.598 412.222C693.757 412.222 692.547 413.443 692.547 415.097C692.547 416.136 693.07 416.983 693.74 417.812C692.445 418.705 691.558 419.54 691.558 420.909C691.558 422.761 693.013 424.17 695.393 424.17ZM697.257 421.864C696.706 422.261 696.075 422.477 695.456 422.477C694.314 422.477 693.575 421.739 693.575 420.818C693.575 420.415 693.882 419.807 694.655 419.239L694.842 419.102L697.257 421.864ZM695.223 416.801C694.734 416.199 694.382 415.659 694.382 415.125C694.382 414.494 694.882 413.909 695.626 413.909C696.359 413.909 696.808 414.455 696.808 414.955C696.808 415.545 696.49 415.96 695.882 416.352L695.223 416.801ZM710.528 424C714.074 424 716.176 421.807 716.176 418.17C716.176 414.545 714.074 412.364 710.608 412.364H706.585V424H710.528ZM708.693 422.176V414.188H710.489C712.852 414.188 714.085 415.506 714.085 418.17C714.085 420.847 712.852 422.176 710.426 422.176H708.693ZM721.952 424.17C723.986 424.17 725.384 423.176 725.747 421.659L723.827 421.443C723.548 422.182 722.866 422.568 721.98 422.568C720.651 422.568 719.77 421.693 719.753 420.199H725.832V419.568C725.832 416.506 723.991 415.159 721.844 415.159C719.344 415.159 717.713 416.994 717.713 419.688C717.713 422.426 719.321 424.17 721.952 424.17ZM719.759 418.812C719.821 417.699 720.645 416.761 721.872 416.761C723.054 416.761 723.849 417.625 723.861 418.812H719.759ZM734.47 417.58C734.186 416.102 733.004 415.159 730.959 415.159C728.857 415.159 727.425 416.193 727.43 417.807C727.425 419.08 728.209 419.92 729.885 420.267L731.374 420.58C732.175 420.756 732.55 421.08 732.55 421.574C732.55 422.17 731.902 422.619 730.925 422.619C729.982 422.619 729.368 422.21 729.192 421.426L727.186 421.619C727.442 423.222 728.788 424.17 730.93 424.17C733.112 424.17 734.652 423.04 734.658 421.386C734.652 420.142 733.851 419.381 732.203 419.023L730.714 418.705C729.828 418.506 729.476 418.199 729.482 417.693C729.476 417.102 730.129 416.693 730.987 416.693C731.936 416.693 732.436 417.21 732.595 417.784L734.47 417.58ZM736.354 424H738.411V415.273H736.354V424ZM737.388 414.034C738.041 414.034 738.575 413.534 738.575 412.92C738.575 412.301 738.041 411.801 737.388 411.801C736.729 411.801 736.195 412.301 736.195 412.92C736.195 413.534 736.729 414.034 737.388 414.034ZM744.321 427.455C746.679 427.455 748.418 426.375 748.418 424.142V415.273H746.389V416.716H746.276C745.963 416.085 745.31 415.159 743.77 415.159C741.753 415.159 740.168 416.739 740.168 419.608C740.168 422.455 741.753 423.875 743.764 423.875C745.259 423.875 745.957 423.074 746.276 422.432H746.378V424.085C746.378 425.369 745.526 425.898 744.355 425.898C743.116 425.898 742.571 425.312 742.321 424.801L740.469 425.25C740.844 426.472 742.099 427.455 744.321 427.455ZM744.338 422.261C742.98 422.261 742.264 421.205 742.264 419.597C742.264 418.011 742.969 416.847 744.338 416.847C745.662 416.847 746.389 417.943 746.389 419.597C746.389 421.261 745.651 422.261 744.338 422.261ZM752.582 418.886C752.582 417.625 753.344 416.898 754.429 416.898C755.491 416.898 756.128 417.597 756.128 418.761V424H758.185V418.443C758.19 416.352 756.997 415.159 755.196 415.159C753.889 415.159 752.991 415.784 752.594 416.756H752.491V415.273H750.526V424H752.582V418.886ZM631.511 435.131H635.108V445H637.199V435.131H640.795V433.364H631.511V435.131ZM645.092 445.17C647.126 445.17 648.524 444.176 648.888 442.659L646.967 442.443C646.689 443.182 646.007 443.568 645.121 443.568C643.791 443.568 642.911 442.693 642.893 441.199H648.973V440.568C648.973 437.506 647.132 436.159 644.984 436.159C642.484 436.159 640.854 437.994 640.854 440.688C640.854 443.426 642.462 445.17 645.092 445.17ZM642.899 439.812C642.962 438.699 643.786 437.761 645.013 437.761C646.195 437.761 646.99 438.625 647.001 439.812H642.899ZM654.52 445.17C656.713 445.17 658.111 443.869 658.259 442.017H656.293C656.116 442.955 655.44 443.494 654.537 443.494C653.253 443.494 652.423 442.42 652.423 440.636C652.423 438.875 653.27 437.818 654.537 437.818C655.526 437.818 656.134 438.455 656.293 439.295H658.259C658.116 437.403 656.639 436.159 654.509 436.159C651.952 436.159 650.338 438.006 650.338 440.67C650.338 443.312 651.912 445.17 654.52 445.17ZM662.004 439.886C662.004 438.625 662.788 437.898 663.891 437.898C664.97 437.898 665.607 438.585 665.607 439.761V445H667.663V439.443C667.663 437.335 666.47 436.159 664.658 436.159C663.317 436.159 662.464 436.767 662.061 437.756H661.959V433.364H659.947V445H662.004V439.886ZM671.817 439.886C671.817 438.625 672.578 437.898 673.663 437.898C674.726 437.898 675.362 438.597 675.362 439.761V445H677.419V439.443C677.425 437.352 676.232 436.159 674.43 436.159C673.124 436.159 672.226 436.784 671.828 437.756H671.726V436.273H669.76V445H671.817V439.886ZM683.317 445.17C685.874 445.17 687.499 443.369 687.499 440.67C687.499 437.966 685.874 436.159 683.317 436.159C680.76 436.159 679.135 437.966 679.135 440.67C679.135 443.369 680.76 445.17 683.317 445.17ZM683.328 443.523C681.913 443.523 681.22 442.261 681.22 440.665C681.22 439.068 681.913 437.79 683.328 437.79C684.72 437.79 685.413 439.068 685.413 440.665C685.413 442.261 684.72 443.523 683.328 443.523ZM691.301 433.364H689.244V445H691.301V433.364ZM697.223 445.17C699.78 445.17 701.405 443.369 701.405 440.67C701.405 437.966 699.78 436.159 697.223 436.159C694.666 436.159 693.041 437.966 693.041 440.67C693.041 443.369 694.666 445.17 697.223 445.17ZM697.234 443.523C695.82 443.523 695.126 442.261 695.126 440.665C695.126 439.068 695.82 437.79 697.234 437.79C698.626 437.79 699.32 439.068 699.32 440.665C699.32 442.261 698.626 443.523 697.234 443.523ZM706.946 448.455C709.304 448.455 711.043 447.375 711.043 445.142V436.273H709.014V437.716H708.901C708.588 437.085 707.935 436.159 706.395 436.159C704.378 436.159 702.793 437.739 702.793 440.608C702.793 443.455 704.378 444.875 706.389 444.875C707.884 444.875 708.582 444.074 708.901 443.432H709.003V445.085C709.003 446.369 708.151 446.898 706.98 446.898C705.741 446.898 705.196 446.312 704.946 445.801L703.094 446.25C703.469 447.472 704.724 448.455 706.946 448.455ZM706.963 443.261C705.605 443.261 704.889 442.205 704.889 440.597C704.889 439.011 705.594 437.847 706.963 437.847C708.287 437.847 709.014 438.943 709.014 440.597C709.014 442.261 708.276 443.261 706.963 443.261ZM713.151 445H715.207V436.273H713.151V445ZM714.185 435.034C714.838 435.034 715.372 434.534 715.372 433.92C715.372 433.301 714.838 432.801 714.185 432.801C713.526 432.801 712.991 433.301 712.991 433.92C712.991 434.534 713.526 435.034 714.185 435.034ZM724.22 438.58C723.936 437.102 722.754 436.159 720.709 436.159C718.607 436.159 717.175 437.193 717.18 438.807C717.175 440.08 717.959 440.92 719.635 441.267L721.124 441.58C721.925 441.756 722.3 442.08 722.3 442.574C722.3 443.17 721.652 443.619 720.675 443.619C719.732 443.619 719.118 443.21 718.942 442.426L716.936 442.619C717.192 444.222 718.538 445.17 720.68 445.17C722.862 445.17 724.402 444.04 724.408 442.386C724.402 441.142 723.601 440.381 721.953 440.023L720.464 439.705C719.578 439.506 719.226 439.199 719.232 438.693C719.226 438.102 719.879 437.693 720.737 437.693C721.686 437.693 722.186 438.21 722.345 438.784L724.22 438.58ZM730.462 436.273H728.74V434.182H726.683V436.273H725.445V437.864H726.683V442.716C726.672 444.358 727.865 445.165 729.411 445.119C729.996 445.102 730.399 444.989 730.621 444.915L730.274 443.307C730.161 443.335 729.928 443.386 729.672 443.386C729.155 443.386 728.74 443.205 728.74 442.375V437.864H730.462V436.273Z" fill="#4D4D4D"/>
<path d="M544.436 638.29C544.078 635.705 542.089 634.205 539.51 634.205C536.47 634.205 534.18 636.42 534.18 640.182C534.18 643.938 536.442 646.159 539.51 646.159C542.277 646.159 544.112 644.369 544.436 642.148L542.311 642.136C542.044 643.5 540.93 644.267 539.538 644.267C537.652 644.267 536.3 642.852 536.3 640.182C536.3 637.557 537.641 636.097 539.544 636.097C540.959 636.097 542.067 636.898 542.311 638.29H544.436ZM548.332 634.364H546.276V646H548.332V634.364ZM550.447 646H552.504V637.273H550.447V646ZM551.482 636.034C552.135 636.034 552.669 635.534 552.669 634.92C552.669 634.301 552.135 633.801 551.482 633.801C550.822 633.801 550.288 634.301 550.288 634.92C550.288 635.534 550.822 636.034 551.482 636.034ZM558.483 646.17C560.517 646.17 561.915 645.176 562.278 643.659L560.358 643.443C560.08 644.182 559.398 644.568 558.511 644.568C557.182 644.568 556.301 643.693 556.284 642.199H562.364V641.568C562.364 638.506 560.523 637.159 558.375 637.159C555.875 637.159 554.244 638.994 554.244 641.688C554.244 644.426 555.852 646.17 558.483 646.17ZM556.29 640.812C556.352 639.699 557.176 638.761 558.403 638.761C559.585 638.761 560.381 639.625 560.392 640.812H556.29ZM566.161 640.886C566.161 639.625 566.922 638.898 568.007 638.898C569.07 638.898 569.706 639.597 569.706 640.761V646H571.763V640.443C571.768 638.352 570.575 637.159 568.774 637.159C567.467 637.159 566.57 637.784 566.172 638.756H566.07V637.273H564.104V646H566.161V640.886ZM578.212 637.273H576.49V635.182H574.433V637.273H573.195V638.864H574.433V643.716C574.422 645.358 575.615 646.165 577.161 646.119C577.746 646.102 578.149 645.989 578.371 645.915L578.024 644.307C577.911 644.335 577.678 644.386 577.422 644.386C576.905 644.386 576.49 644.205 576.49 643.375V638.864H578.212V637.273ZM582.082 634.364H580.446V635.534C580.446 636.46 580.082 637.17 579.668 637.795L580.622 638.415C581.457 637.722 582.082 636.528 582.082 635.523V634.364ZM589.517 639.58C589.233 638.102 588.051 637.159 586.006 637.159C583.903 637.159 582.472 638.193 582.477 639.807C582.472 641.08 583.256 641.92 584.932 642.267L586.42 642.58C587.222 642.756 587.597 643.08 587.597 643.574C587.597 644.17 586.949 644.619 585.972 644.619C585.028 644.619 584.415 644.21 584.239 643.426L582.233 643.619C582.489 645.222 583.835 646.17 585.977 646.17C588.159 646.17 589.699 645.04 589.705 643.386C589.699 642.142 588.898 641.381 587.25 641.023L585.761 640.705C584.875 640.506 584.523 640.199 584.528 639.693C584.523 639.102 585.176 638.693 586.034 638.693C586.983 638.693 587.483 639.21 587.642 639.784L589.517 639.58ZM601.784 637.562H603.812C603.773 635.597 602.097 634.205 599.619 634.205C597.176 634.205 595.341 635.58 595.347 637.636C595.347 639.307 596.534 640.267 598.449 640.761L599.773 641.102C601.028 641.42 601.858 641.812 601.864 642.716C601.858 643.71 600.915 644.375 599.54 644.375C598.222 644.375 597.199 643.784 597.114 642.562H595.04C595.125 644.875 596.847 646.176 599.557 646.176C602.347 646.176 603.966 644.784 603.972 642.733C603.966 640.716 602.301 639.795 600.551 639.381L599.46 639.108C598.506 638.881 597.472 638.477 597.483 637.506C597.489 636.631 598.273 635.989 599.591 635.989C600.847 635.989 601.676 636.574 601.784 637.562ZM609.567 646.17C612.124 646.17 613.749 644.369 613.749 641.67C613.749 638.966 612.124 637.159 609.567 637.159C607.01 637.159 605.385 638.966 605.385 641.67C605.385 644.369 607.01 646.17 609.567 646.17ZM609.578 644.523C608.163 644.523 607.47 643.261 607.47 641.665C607.47 640.068 608.163 638.79 609.578 638.79C610.97 638.79 611.663 640.068 611.663 641.665C611.663 643.261 610.97 644.523 609.578 644.523ZM619.915 637.273H618.102V636.585C618.102 635.903 618.386 635.523 619.153 635.523C619.477 635.523 619.75 635.597 619.92 635.648L620.335 634.057C620.068 633.966 619.483 633.818 618.773 633.818C617.256 633.818 616.045 634.688 616.045 636.449V637.273H614.756V638.864H616.045V646H618.102V638.864H619.915V637.273ZM625.884 637.273H624.162V635.182H622.105V637.273H620.866V638.864H622.105V643.716C622.094 645.358 623.287 646.165 624.832 646.119C625.418 646.102 625.821 645.989 626.043 645.915L625.696 644.307C625.582 644.335 625.349 644.386 625.094 644.386C624.577 644.386 624.162 644.205 624.162 643.375V638.864H625.884V637.273ZM629.405 646H631.553L633.189 640.102H633.308L634.945 646H637.087L639.558 637.273H637.456L635.945 643.375H635.859L634.291 637.273H632.217L630.649 643.409H630.57L629.036 637.273H626.939L629.405 646ZM643.506 646.176C644.875 646.176 645.693 645.534 646.068 644.801H646.136V646H648.114V640.159C648.114 637.852 646.233 637.159 644.568 637.159C642.733 637.159 641.324 637.977 640.869 639.568L642.79 639.841C642.994 639.244 643.574 638.733 644.58 638.733C645.534 638.733 646.057 639.222 646.057 640.08V640.114C646.057 640.705 645.438 640.733 643.898 640.898C642.205 641.08 640.585 641.585 640.585 643.551C640.585 645.267 641.841 646.176 643.506 646.176ZM644.04 644.665C643.182 644.665 642.568 644.273 642.568 643.517C642.568 642.727 643.256 642.398 644.176 642.267C644.716 642.193 645.795 642.057 646.062 641.841V642.869C646.062 643.841 645.278 644.665 644.04 644.665ZM650.182 646H652.239V640.869C652.239 639.761 653.074 638.977 654.205 638.977C654.551 638.977 654.983 639.04 655.159 639.097V637.205C654.972 637.17 654.648 637.148 654.42 637.148C653.42 637.148 652.585 637.716 652.267 638.727H652.176V637.273H650.182V646ZM660.03 646.17C662.064 646.17 663.462 645.176 663.825 643.659L661.905 643.443C661.626 644.182 660.945 644.568 660.058 644.568C658.729 644.568 657.848 643.693 657.831 642.199H663.911V641.568C663.911 638.506 662.07 637.159 659.922 637.159C657.422 637.159 655.791 638.994 655.791 641.688C655.791 644.426 657.399 646.17 660.03 646.17ZM657.837 640.812C657.899 639.699 658.723 638.761 659.95 638.761C661.132 638.761 661.928 639.625 661.939 640.812H657.837ZM673.653 646C677.199 646 679.301 643.807 679.301 640.17C679.301 636.545 677.199 634.364 673.733 634.364H669.71V646H673.653ZM671.818 644.176V636.188H673.614C675.977 636.188 677.21 637.506 677.21 640.17C677.21 642.847 675.977 644.176 673.551 644.176H671.818ZM685.077 646.17C687.111 646.17 688.509 645.176 688.872 643.659L686.952 643.443C686.673 644.182 685.991 644.568 685.105 644.568C683.776 644.568 682.895 643.693 682.878 642.199H688.957V641.568C688.957 638.506 687.116 637.159 684.969 637.159C682.469 637.159 680.838 638.994 680.838 641.688C680.838 644.426 682.446 646.17 685.077 646.17ZM682.884 640.812C682.946 639.699 683.77 638.761 684.997 638.761C686.179 638.761 686.974 639.625 686.986 640.812H682.884ZM698.243 637.273H696.055L694.044 643.756H693.953L691.947 637.273H689.754L692.862 646H695.135L698.243 637.273ZM703.233 646.17C705.267 646.17 706.665 645.176 707.028 643.659L705.108 643.443C704.83 644.182 704.148 644.568 703.261 644.568C701.932 644.568 701.051 643.693 701.034 642.199H707.114V641.568C707.114 638.506 705.273 637.159 703.125 637.159C700.625 637.159 698.994 638.994 698.994 641.688C698.994 644.426 700.602 646.17 703.233 646.17ZM701.04 640.812C701.102 639.699 701.926 638.761 703.153 638.761C704.335 638.761 705.131 639.625 705.142 640.812H701.04ZM710.911 634.364H708.854V646H710.911V634.364ZM716.832 646.17C719.389 646.17 721.014 644.369 721.014 641.67C721.014 638.966 719.389 637.159 716.832 637.159C714.276 637.159 712.651 638.966 712.651 641.67C712.651 644.369 714.276 646.17 716.832 646.17ZM716.844 644.523C715.429 644.523 714.736 643.261 714.736 641.665C714.736 640.068 715.429 638.79 716.844 638.79C718.236 638.79 718.929 640.068 718.929 641.665C718.929 643.261 718.236 644.523 716.844 644.523ZM722.76 649.273H724.817V644.625H724.902C725.226 645.261 725.902 646.153 727.402 646.153C729.459 646.153 730.999 644.523 730.999 641.648C730.999 638.739 729.413 637.159 727.396 637.159C725.857 637.159 725.214 638.085 724.902 638.716H724.783V637.273H722.76V649.273ZM724.777 641.636C724.777 639.943 725.504 638.847 726.828 638.847C728.197 638.847 728.902 640.011 728.902 641.636C728.902 643.273 728.186 644.466 726.828 644.466C725.516 644.466 724.777 643.33 724.777 641.636ZM732.76 646H734.817V640.693C734.817 639.619 735.533 638.892 736.419 638.892C737.288 638.892 737.885 639.477 737.885 640.375V646H739.902V640.557C739.902 639.574 740.487 638.892 741.482 638.892C742.311 638.892 742.97 639.381 742.97 640.46V646H745.033V640.142C745.033 638.193 743.908 637.159 742.305 637.159C741.038 637.159 740.072 637.784 739.686 638.756H739.595C739.26 637.767 738.413 637.159 737.237 637.159C736.067 637.159 735.192 637.761 734.828 638.756H734.726V637.273H732.76V646ZM750.983 646.17C753.017 646.17 754.415 645.176 754.778 643.659L752.858 643.443C752.58 644.182 751.898 644.568 751.011 644.568C749.682 644.568 748.801 643.693 748.784 642.199H754.864V641.568C754.864 638.506 753.023 637.159 750.875 637.159C748.375 637.159 746.744 638.994 746.744 641.688C746.744 644.426 748.352 646.17 750.983 646.17ZM748.79 640.812C748.852 639.699 749.676 638.761 750.903 638.761C752.085 638.761 752.881 639.625 752.892 640.812H748.79ZM758.661 640.886C758.661 639.625 759.422 638.898 760.507 638.898C761.57 638.898 762.206 639.597 762.206 640.761V646H764.263V640.443C764.268 638.352 763.075 637.159 761.274 637.159C759.967 637.159 759.07 637.784 758.672 638.756H758.57V637.273H756.604V646H758.661V640.886ZM770.712 637.273H768.99V635.182H766.933V637.273H765.695V638.864H766.933V643.716C766.922 645.358 768.115 646.165 769.661 646.119C770.246 646.102 770.649 645.989 770.871 645.915L770.524 644.307C770.411 644.335 770.178 644.386 769.922 644.386C769.405 644.386 768.99 644.205 768.99 643.375V638.864H770.712V637.273ZM775.98 636.131H779.577V646H781.668V636.131H785.264V634.364H775.98V636.131ZM789.561 646.17C791.595 646.17 792.993 645.176 793.357 643.659L791.436 643.443C791.158 644.182 790.476 644.568 789.589 644.568C788.26 644.568 787.379 643.693 787.362 642.199H793.442V641.568C793.442 638.506 791.601 637.159 789.453 637.159C786.953 637.159 785.322 638.994 785.322 641.688C785.322 644.426 786.93 646.17 789.561 646.17ZM787.368 640.812C787.43 639.699 788.254 638.761 789.482 638.761C790.663 638.761 791.459 639.625 791.47 640.812H787.368ZM797.693 646.176C799.062 646.176 799.881 645.534 800.256 644.801H800.324V646H802.301V640.159C802.301 637.852 800.42 637.159 798.756 637.159C796.92 637.159 795.511 637.977 795.057 639.568L796.977 639.841C797.182 639.244 797.761 638.733 798.767 638.733C799.722 638.733 800.244 639.222 800.244 640.08V640.114C800.244 640.705 799.625 640.733 798.085 640.898C796.392 641.08 794.773 641.585 794.773 643.551C794.773 645.267 796.028 646.176 797.693 646.176ZM798.227 644.665C797.369 644.665 796.756 644.273 796.756 643.517C796.756 642.727 797.443 642.398 798.364 642.267C798.903 642.193 799.983 642.057 800.25 641.841V642.869C800.25 643.841 799.466 644.665 798.227 644.665ZM804.369 646H806.426V640.693C806.426 639.619 807.142 638.892 808.028 638.892C808.898 638.892 809.494 639.477 809.494 640.375V646H811.511V640.557C811.511 639.574 812.097 638.892 813.091 638.892C813.92 638.892 814.58 639.381 814.58 640.46V646H816.642V640.142C816.642 638.193 815.517 637.159 813.915 637.159C812.648 637.159 811.682 637.784 811.295 638.756H811.205C810.869 637.767 810.023 637.159 808.847 637.159C807.676 637.159 806.801 637.761 806.438 638.756H806.335V637.273H804.369V646Z" fill="#4D4D4D"/>
<path d="M923.101 402H930.334V400.233H925.209V390.364H923.101V402ZM934.584 402.176C935.953 402.176 936.771 401.534 937.146 400.801H937.214V402H939.192V396.159C939.192 393.852 937.311 393.159 935.646 393.159C933.811 393.159 932.402 393.977 931.947 395.568L933.868 395.841C934.072 395.244 934.652 394.733 935.658 394.733C936.612 394.733 937.135 395.222 937.135 396.08V396.114C937.135 396.705 936.516 396.733 934.976 396.898C933.283 397.08 931.663 397.585 931.663 399.551C931.663 401.267 932.919 402.176 934.584 402.176ZM935.118 400.665C934.26 400.665 933.646 400.273 933.646 399.517C933.646 398.727 934.334 398.398 935.254 398.267C935.794 398.193 936.874 398.057 937.141 397.841V398.869C937.141 399.841 936.357 400.665 935.118 400.665ZM943.317 396.886C943.317 395.625 944.078 394.898 945.163 394.898C946.226 394.898 946.862 395.597 946.862 396.761V402H948.919V396.443C948.925 394.352 947.732 393.159 945.93 393.159C944.624 393.159 943.726 393.784 943.328 394.756H943.226V393.273H941.26V402H943.317V396.886ZM954.805 405.455C957.163 405.455 958.902 404.375 958.902 402.142V393.273H956.874V394.716H956.76C956.447 394.085 955.794 393.159 954.254 393.159C952.237 393.159 950.652 394.739 950.652 397.608C950.652 400.455 952.237 401.875 954.249 401.875C955.743 401.875 956.442 401.074 956.76 400.432H956.862V402.085C956.862 403.369 956.01 403.898 954.839 403.898C953.601 403.898 953.055 403.312 952.805 402.801L950.953 403.25C951.328 404.472 952.584 405.455 954.805 405.455ZM954.822 400.261C953.464 400.261 952.749 399.205 952.749 397.597C952.749 396.011 953.453 394.847 954.822 394.847C956.146 394.847 956.874 395.943 956.874 397.597C956.874 399.261 956.135 400.261 954.822 400.261ZM966.572 398.33C966.572 399.659 965.624 400.318 964.714 400.318C963.726 400.318 963.067 399.619 963.067 398.511V393.273H961.01V398.83C961.01 400.926 962.203 402.114 963.919 402.114C965.226 402.114 966.146 401.426 966.544 400.449H966.635V402H968.629V393.273H966.572V398.33ZM973.256 402.176C974.625 402.176 975.443 401.534 975.818 400.801H975.886V402H977.864V396.159C977.864 393.852 975.983 393.159 974.318 393.159C972.483 393.159 971.074 393.977 970.619 395.568L972.54 395.841C972.744 395.244 973.324 394.733 974.33 394.733C975.284 394.733 975.807 395.222 975.807 396.08V396.114C975.807 396.705 975.188 396.733 973.648 396.898C971.955 397.08 970.335 397.585 970.335 399.551C970.335 401.267 971.591 402.176 973.256 402.176ZM973.79 400.665C972.932 400.665 972.318 400.273 972.318 399.517C972.318 398.727 973.006 398.398 973.926 398.267C974.466 398.193 975.545 398.057 975.812 397.841V398.869C975.812 399.841 975.028 400.665 973.79 400.665ZM983.727 405.455C986.085 405.455 987.824 404.375 987.824 402.142V393.273H985.795V394.716H985.682C985.369 394.085 984.716 393.159 983.176 393.159C981.159 393.159 979.574 394.739 979.574 397.608C979.574 400.455 981.159 401.875 983.17 401.875C984.665 401.875 985.364 401.074 985.682 400.432H985.784V402.085C985.784 403.369 984.932 403.898 983.761 403.898C982.523 403.898 981.977 403.312 981.727 402.801L979.875 403.25C980.25 404.472 981.506 405.455 983.727 405.455ZM983.744 400.261C982.386 400.261 981.67 399.205 981.67 397.597C981.67 396.011 982.375 394.847 983.744 394.847C985.068 394.847 985.795 395.943 985.795 397.597C985.795 399.261 985.057 400.261 983.744 400.261ZM993.795 402.17C995.83 402.17 997.227 401.176 997.591 399.659L995.67 399.443C995.392 400.182 994.71 400.568 993.824 400.568C992.494 400.568 991.614 399.693 991.597 398.199H997.676V397.568C997.676 394.506 995.835 393.159 993.688 393.159C991.188 393.159 989.557 394.994 989.557 397.688C989.557 400.426 991.165 402.17 993.795 402.17ZM991.602 396.812C991.665 395.699 992.489 394.761 993.716 394.761C994.898 394.761 995.693 395.625 995.705 396.812H991.602ZM1003.48 402H1010.71V400.233H1005.58V390.364H1003.48V402ZM1016.31 402.17C1018.35 402.17 1019.74 401.176 1020.11 399.659L1018.19 399.443C1017.91 400.182 1017.23 400.568 1016.34 400.568C1015.01 400.568 1014.13 399.693 1014.11 398.199H1020.19V397.568C1020.19 394.506 1018.35 393.159 1016.2 393.159C1013.7 393.159 1012.07 394.994 1012.07 397.688C1012.07 400.426 1013.68 402.17 1016.31 402.17ZM1014.12 396.812C1014.18 395.699 1015 394.761 1016.23 394.761C1017.41 394.761 1018.21 395.625 1018.22 396.812H1014.12ZM1024.44 402.176C1025.81 402.176 1026.63 401.534 1027.01 400.801H1027.07V402H1029.05V396.159C1029.05 393.852 1027.17 393.159 1025.51 393.159C1023.67 393.159 1022.26 393.977 1021.81 395.568L1023.73 395.841C1023.93 395.244 1024.51 394.733 1025.52 394.733C1026.47 394.733 1026.99 395.222 1026.99 396.08V396.114C1026.99 396.705 1026.38 396.733 1024.84 396.898C1023.14 397.08 1021.52 397.585 1021.52 399.551C1021.52 401.267 1022.78 402.176 1024.44 402.176ZM1024.98 400.665C1024.12 400.665 1023.51 400.273 1023.51 399.517C1023.51 398.727 1024.19 398.398 1025.11 398.267C1025.65 398.193 1026.73 398.057 1027 397.841V398.869C1027 399.841 1026.22 400.665 1024.98 400.665ZM1031.12 402H1033.18V396.869C1033.18 395.761 1034.01 394.977 1035.14 394.977C1035.49 394.977 1035.92 395.04 1036.1 395.097V393.205C1035.91 393.17 1035.59 393.148 1035.36 393.148C1034.36 393.148 1033.52 393.716 1033.2 394.727H1033.11V393.273H1031.12V402ZM1039.52 396.886C1039.52 395.625 1040.28 394.898 1041.37 394.898C1042.43 394.898 1043.07 395.597 1043.07 396.761V402H1045.12V396.443C1045.13 394.352 1043.93 393.159 1042.13 393.159C1040.83 393.159 1039.93 393.784 1039.53 394.756H1039.43V393.273H1037.46V402H1039.52V396.886ZM1047.21 402H1049.27V393.273H1047.21V402ZM1048.25 392.034C1048.9 392.034 1049.43 391.534 1049.43 390.92C1049.43 390.301 1048.9 389.801 1048.25 389.801C1047.59 389.801 1047.05 390.301 1047.05 390.92C1047.05 391.534 1047.59 392.034 1048.25 392.034ZM1053.44 396.886C1053.44 395.625 1054.2 394.898 1055.29 394.898C1056.35 394.898 1056.99 395.597 1056.99 396.761V402H1059.04V396.443C1059.05 394.352 1057.86 393.159 1056.06 393.159C1054.75 393.159 1053.85 393.784 1053.45 394.756H1053.35V393.273H1051.38V402H1053.44V396.886ZM1064.93 405.455C1067.29 405.455 1069.03 404.375 1069.03 402.142V393.273H1067V394.716H1066.88C1066.57 394.085 1065.92 393.159 1064.38 393.159C1062.36 393.159 1060.78 394.739 1060.78 397.608C1060.78 400.455 1062.36 401.875 1064.37 401.875C1065.87 401.875 1066.57 401.074 1066.88 400.432H1066.99V402.085C1066.99 403.369 1066.13 403.898 1064.96 403.898C1063.73 403.898 1063.18 403.312 1062.93 402.801L1061.08 403.25C1061.45 404.472 1062.71 405.455 1064.93 405.455ZM1064.95 400.261C1063.59 400.261 1062.87 399.205 1062.87 397.597C1062.87 396.011 1063.58 394.847 1064.95 394.847C1066.27 394.847 1067 395.943 1067 397.597C1067 399.261 1066.26 400.261 1064.95 400.261ZM967.636 414.562H969.664C969.624 412.597 967.948 411.205 965.471 411.205C963.028 411.205 961.192 412.58 961.198 414.636C961.198 416.307 962.386 417.267 964.3 417.761L965.624 418.102C966.88 418.42 967.71 418.812 967.715 419.716C967.71 420.71 966.766 421.375 965.391 421.375C964.073 421.375 963.05 420.784 962.965 419.562H960.891C960.977 421.875 962.698 423.176 965.408 423.176C968.198 423.176 969.817 421.784 969.823 419.733C969.817 417.716 968.153 416.795 966.403 416.381L965.312 416.108C964.357 415.881 963.323 415.477 963.335 414.506C963.34 413.631 964.124 412.989 965.442 412.989C966.698 412.989 967.528 413.574 967.636 414.562ZM971.612 426.273H973.668V421.625H973.754C974.077 422.261 974.754 423.153 976.254 423.153C978.31 423.153 979.85 421.523 979.85 418.648C979.85 415.739 978.265 414.159 976.248 414.159C974.708 414.159 974.066 415.085 973.754 415.716H973.634V414.273H971.612V426.273ZM973.629 418.636C973.629 416.943 974.356 415.847 975.68 415.847C977.049 415.847 977.754 417.011 977.754 418.636C977.754 420.273 977.038 421.466 975.68 421.466C974.367 421.466 973.629 420.33 973.629 418.636ZM985.475 423.17C987.509 423.17 988.907 422.176 989.271 420.659L987.35 420.443C987.072 421.182 986.39 421.568 985.504 421.568C984.174 421.568 983.293 420.693 983.276 419.199H989.356V418.568C989.356 415.506 987.515 414.159 985.367 414.159C982.867 414.159 981.237 415.994 981.237 418.688C981.237 421.426 982.844 423.17 985.475 423.17ZM983.282 417.812C983.344 416.699 984.168 415.761 985.396 415.761C986.577 415.761 987.373 416.625 987.384 417.812H983.282ZM994.903 423.17C997.096 423.17 998.494 421.869 998.641 420.017H996.675C996.499 420.955 995.823 421.494 994.92 421.494C993.636 421.494 992.806 420.42 992.806 418.636C992.806 416.875 993.653 415.818 994.92 415.818C995.908 415.818 996.516 416.455 996.675 417.295H998.641C998.499 415.403 997.022 414.159 994.891 414.159C992.335 414.159 990.721 416.006 990.721 418.67C990.721 421.312 992.295 423.17 994.903 423.17ZM1000.33 423H1002.39V414.273H1000.33V423ZM1001.36 413.034C1002.02 413.034 1002.55 412.534 1002.55 411.92C1002.55 411.301 1002.02 410.801 1001.36 410.801C1000.71 410.801 1000.17 411.301 1000.17 411.92C1000.17 412.534 1000.71 413.034 1001.36 413.034ZM1007.01 423.176C1008.38 423.176 1009.2 422.534 1009.58 421.801H1009.64V423H1011.62V417.159C1011.62 414.852 1009.74 414.159 1008.08 414.159C1006.24 414.159 1004.83 414.977 1004.38 416.568L1006.3 416.841C1006.5 416.244 1007.08 415.733 1008.09 415.733C1009.04 415.733 1009.56 416.222 1009.56 417.08V417.114C1009.56 417.705 1008.95 417.733 1007.41 417.898C1005.71 418.08 1004.09 418.585 1004.09 420.551C1004.09 422.267 1005.35 423.176 1007.01 423.176ZM1007.55 421.665C1006.69 421.665 1006.08 421.273 1006.08 420.517C1006.08 419.727 1006.76 419.398 1007.68 419.267C1008.22 419.193 1009.3 419.057 1009.57 418.841V419.869C1009.57 420.841 1008.79 421.665 1007.55 421.665ZM1015.75 411.364H1013.69V423H1015.75V411.364ZM1017.86 423H1019.92V414.273H1017.86V423ZM1018.9 413.034C1019.55 413.034 1020.08 412.534 1020.08 411.92C1020.08 411.301 1019.55 410.801 1018.9 410.801C1018.24 410.801 1017.7 411.301 1017.7 411.92C1017.7 412.534 1018.24 413.034 1018.9 413.034ZM1028.93 416.58C1028.65 415.102 1027.47 414.159 1025.42 414.159C1023.32 414.159 1021.89 415.193 1021.89 416.807C1021.89 418.08 1022.67 418.92 1024.35 419.267L1025.83 419.58C1026.64 419.756 1027.01 420.08 1027.01 420.574C1027.01 421.17 1026.36 421.619 1025.39 421.619C1024.44 421.619 1023.83 421.21 1023.65 420.426L1021.65 420.619C1021.9 422.222 1023.25 423.17 1025.39 423.17C1027.57 423.17 1029.11 422.04 1029.12 420.386C1029.11 419.142 1028.31 418.381 1026.66 418.023L1025.18 417.705C1024.29 417.506 1023.94 417.199 1023.94 416.693C1023.94 416.102 1024.59 415.693 1025.45 415.693C1026.4 415.693 1026.9 416.21 1027.06 416.784L1028.93 416.58ZM1035.17 414.273H1033.45V412.182H1031.39V414.273H1030.16V415.864H1031.39V420.716C1031.38 422.358 1032.58 423.165 1034.12 423.119C1034.71 423.102 1035.11 422.989 1035.33 422.915L1034.99 421.307C1034.87 421.335 1034.64 421.386 1034.38 421.386C1033.87 421.386 1033.45 421.205 1033.45 420.375V415.864H1035.17V414.273Z" fill="#4D4D4D"/>
<path d="M334.216 402C337.761 402 339.864 399.807 339.864 396.17C339.864 392.545 337.761 390.364 334.295 390.364H330.273V402H334.216ZM332.381 400.176V392.188H334.176C336.54 392.188 337.773 393.506 337.773 396.17C337.773 398.847 336.54 400.176 334.114 400.176H332.381ZM345.639 402.17C347.673 402.17 349.071 401.176 349.435 399.659L347.514 399.443C347.236 400.182 346.554 400.568 345.668 400.568C344.338 400.568 343.457 399.693 343.44 398.199H349.52V397.568C349.52 394.506 347.679 393.159 345.531 393.159C343.031 393.159 341.401 394.994 341.401 397.688C341.401 400.426 343.009 402.17 345.639 402.17ZM343.446 396.812C343.509 395.699 344.332 394.761 345.56 394.761C346.741 394.761 347.537 395.625 347.548 396.812H343.446ZM358.158 395.58C357.874 394.102 356.692 393.159 354.646 393.159C352.544 393.159 351.112 394.193 351.118 395.807C351.112 397.08 351.896 397.92 353.572 398.267L355.061 398.58C355.862 398.756 356.237 399.08 356.237 399.574C356.237 400.17 355.589 400.619 354.612 400.619C353.669 400.619 353.055 400.21 352.879 399.426L350.874 399.619C351.129 401.222 352.476 402.17 354.618 402.17C356.8 402.17 358.339 401.04 358.345 399.386C358.339 398.142 357.538 397.381 355.891 397.023L354.402 396.705C353.516 396.506 353.163 396.199 353.169 395.693C353.163 395.102 353.817 394.693 354.675 394.693C355.624 394.693 356.124 395.21 356.283 395.784L358.158 395.58ZM360.041 402H362.098V393.273H360.041V402ZM361.075 392.034C361.729 392.034 362.263 391.534 362.263 390.92C362.263 390.301 361.729 389.801 361.075 389.801C360.416 389.801 359.882 390.301 359.882 390.92C359.882 391.534 360.416 392.034 361.075 392.034ZM368.009 405.455C370.366 405.455 372.105 404.375 372.105 402.142V393.273H370.077V394.716H369.963C369.651 394.085 368.997 393.159 367.457 393.159C365.44 393.159 363.855 394.739 363.855 397.608C363.855 400.455 365.44 401.875 367.452 401.875C368.946 401.875 369.645 401.074 369.963 400.432H370.065V402.085C370.065 403.369 369.213 403.898 368.043 403.898C366.804 403.898 366.259 403.312 366.009 402.801L364.156 403.25C364.531 404.472 365.787 405.455 368.009 405.455ZM368.026 400.261C366.668 400.261 365.952 399.205 365.952 397.597C365.952 396.011 366.656 394.847 368.026 394.847C369.349 394.847 370.077 395.943 370.077 397.597C370.077 399.261 369.338 400.261 368.026 400.261ZM376.27 396.886C376.27 395.625 377.031 394.898 378.116 394.898C379.179 394.898 379.815 395.597 379.815 396.761V402H381.872V396.443C381.878 394.352 380.685 393.159 378.884 393.159C377.577 393.159 376.679 393.784 376.281 394.756H376.179V393.273H374.213V402H376.27V396.886ZM315.109 423H317.217V418.739H319.364L321.648 423H324.001L321.484 418.386C322.853 417.835 323.575 416.665 323.575 415.085C323.575 412.864 322.143 411.364 319.472 411.364H315.109V423ZM317.217 416.989V413.125H319.148C320.722 413.125 321.427 413.847 321.427 415.085C321.427 416.324 320.722 416.989 319.16 416.989H317.217ZM329.163 423.17C331.197 423.17 332.594 422.176 332.958 420.659L331.038 420.443C330.759 421.182 330.077 421.568 329.191 421.568C327.862 421.568 326.981 420.693 326.964 419.199H333.043V418.568C333.043 415.506 331.202 414.159 329.055 414.159C326.555 414.159 324.924 415.994 324.924 418.688C324.924 421.426 326.532 423.17 329.163 423.17ZM326.969 417.812C327.032 416.699 327.856 415.761 329.083 415.761C330.265 415.761 331.06 416.625 331.072 417.812H326.969ZM341.681 416.58C341.397 415.102 340.215 414.159 338.17 414.159C336.067 414.159 334.636 415.193 334.641 416.807C334.636 418.08 335.42 418.92 337.096 419.267L338.585 419.58C339.386 419.756 339.761 420.08 339.761 420.574C339.761 421.17 339.113 421.619 338.136 421.619C337.192 421.619 336.579 421.21 336.403 420.426L334.397 420.619C334.653 422.222 335.999 423.17 338.141 423.17C340.323 423.17 341.863 422.04 341.869 420.386C341.863 419.142 341.062 418.381 339.414 418.023L337.925 417.705C337.039 417.506 336.687 417.199 336.692 416.693C336.687 416.102 337.34 415.693 338.198 415.693C339.147 415.693 339.647 416.21 339.806 416.784L341.681 416.58ZM347.428 423.17C349.462 423.17 350.86 422.176 351.224 420.659L349.303 420.443C349.025 421.182 348.343 421.568 347.457 421.568C346.127 421.568 345.246 420.693 345.229 419.199H351.309V418.568C351.309 415.506 349.468 414.159 347.32 414.159C344.82 414.159 343.19 415.994 343.19 418.688C343.19 421.426 344.798 423.17 347.428 423.17ZM345.235 417.812C345.298 416.699 346.121 415.761 347.349 415.761C348.531 415.761 349.326 416.625 349.337 417.812H345.235ZM355.56 423.176C356.93 423.176 357.748 422.534 358.123 421.801H358.191V423H360.168V417.159C360.168 414.852 358.288 414.159 356.623 414.159C354.788 414.159 353.379 414.977 352.924 416.568L354.844 416.841C355.049 416.244 355.629 415.733 356.634 415.733C357.589 415.733 358.112 416.222 358.112 417.08V417.114C358.112 417.705 357.492 417.733 355.952 417.898C354.259 418.08 352.64 418.585 352.64 420.551C352.64 422.267 353.896 423.176 355.56 423.176ZM356.094 421.665C355.237 421.665 354.623 421.273 354.623 420.517C354.623 419.727 355.31 419.398 356.231 419.267C356.771 419.193 357.85 419.057 358.117 418.841V419.869C358.117 420.841 357.333 421.665 356.094 421.665ZM362.237 423H364.293V417.869C364.293 416.761 365.129 415.977 366.259 415.977C366.606 415.977 367.038 416.04 367.214 416.097V414.205C367.026 414.17 366.702 414.148 366.475 414.148C365.475 414.148 364.64 414.716 364.322 415.727H364.231V414.273H362.237V423ZM372.028 423.17C374.221 423.17 375.619 421.869 375.766 420.017H373.8C373.624 420.955 372.948 421.494 372.045 421.494C370.761 421.494 369.931 420.42 369.931 418.636C369.931 416.875 370.778 415.818 372.045 415.818C373.033 415.818 373.641 416.455 373.8 417.295H375.766C375.624 415.403 374.147 414.159 372.016 414.159C369.46 414.159 367.846 416.006 367.846 418.67C367.846 421.312 369.42 423.17 372.028 423.17ZM379.512 417.886C379.512 416.625 380.296 415.898 381.398 415.898C382.478 415.898 383.114 416.585 383.114 417.761V423H385.171V417.443C385.171 415.335 383.978 414.159 382.165 414.159C380.825 414.159 379.972 414.767 379.569 415.756H379.467V411.364H377.455V423H379.512V417.886ZM391.131 423.17C393.165 423.17 394.563 422.176 394.927 420.659L393.006 420.443C392.728 421.182 392.046 421.568 391.16 421.568C389.83 421.568 388.95 420.693 388.933 419.199H395.012V418.568C395.012 415.506 393.171 414.159 391.023 414.159C388.523 414.159 386.893 415.994 386.893 418.688C386.893 421.426 388.501 423.17 391.131 423.17ZM388.938 417.812C389.001 416.699 389.825 415.761 391.052 415.761C392.234 415.761 393.029 416.625 393.04 417.812H388.938ZM396.752 423H398.809V417.869C398.809 416.761 399.644 415.977 400.775 415.977C401.121 415.977 401.553 416.04 401.729 416.097V414.205C401.542 414.17 401.218 414.148 400.991 414.148C399.991 414.148 399.156 414.716 398.837 415.727H398.746V414.273H396.752V423Z" fill="#4D4D4D"/>
</svg>
