<svg width="1174" height="670" viewBox="0 0 1174 670" fill="none" xmlns="http://www.w3.org/2000/svg">
<rect width="1174" height="670" fill="#8D498A"/>
<path d="M115.709 310V279.9H121.944V292.026H135.79V279.9H142.025V310H135.79V297.659H121.944V310H115.709ZM158.032 310.43C155.796 310.43 153.775 309.914 151.969 308.882C150.163 307.85 148.73 306.46 147.669 304.711C146.608 302.962 146.078 300.999 146.078 298.82C146.078 296.641 146.594 294.678 147.626 292.929C148.687 291.152 150.12 289.747 151.926 288.715C153.761 287.683 155.796 287.167 158.032 287.167C160.268 287.167 162.289 287.683 164.095 288.715C165.93 289.747 167.363 291.152 168.395 292.929C169.456 294.678 169.986 296.641 169.986 298.82C169.986 300.999 169.456 302.962 168.395 304.711C167.363 306.46 165.944 307.85 164.138 308.882C162.332 309.914 160.297 310.43 158.032 310.43ZM158.032 305.313C159.207 305.313 160.254 305.026 161.171 304.453C162.117 303.88 162.862 303.106 163.407 302.131C163.98 301.128 164.267 300.024 164.267 298.82C164.267 297.587 163.98 296.484 163.407 295.509C162.862 294.534 162.117 293.76 161.171 293.187C160.254 292.585 159.207 292.284 158.032 292.284C156.885 292.284 155.839 292.585 154.893 293.187C153.947 293.76 153.202 294.534 152.657 295.509C152.112 296.484 151.84 297.587 151.84 298.82C151.84 300.024 152.112 301.128 152.657 302.131C153.202 303.106 153.947 303.88 154.893 304.453C155.839 305.026 156.885 305.313 158.032 305.313ZM177.864 310L171.715 287.597H177.305L181.003 302.045L185.475 287.597H190.42L194.849 302.088L198.547 287.597H204.051L197.859 310H192.226L187.883 295.681L183.54 310H177.864ZM215.473 310V287.597H221.364V289.317C222.97 287.884 224.919 287.167 227.212 287.167C228.674 287.167 229.979 287.468 231.125 288.07C232.272 288.643 233.218 289.46 233.963 290.521C234.881 289.432 235.956 288.6 237.188 288.027C238.45 287.454 239.84 287.167 241.359 287.167C243.051 287.167 244.527 287.554 245.788 288.328C247.078 289.073 248.082 290.12 248.798 291.467C249.544 292.786 249.916 294.334 249.916 296.111V310H244.068V296.971C244.068 295.509 243.681 294.362 242.907 293.531C242.133 292.671 241.101 292.241 239.811 292.241C238.923 292.241 238.106 292.427 237.36 292.8C236.644 293.173 236.027 293.732 235.511 294.477C235.54 294.735 235.569 294.993 235.597 295.251C235.626 295.509 235.64 295.796 235.64 296.111V310H229.749V296.971C229.749 295.509 229.362 294.362 228.588 293.531C227.843 292.671 226.825 292.241 225.535 292.241C224.647 292.241 223.844 292.413 223.127 292.757C222.439 293.101 221.852 293.617 221.364 294.305V310H215.473ZM254.4 310V287.597H260.291V310H254.4ZM257.324 284.931C256.407 284.931 255.618 284.601 254.959 283.942C254.3 283.283 253.97 282.494 253.97 281.577C253.97 280.631 254.3 279.843 254.959 279.212C255.618 278.553 256.407 278.223 257.324 278.223C258.27 278.223 259.058 278.553 259.689 279.212C260.348 279.843 260.678 280.631 260.678 281.577C260.678 282.494 260.348 283.283 259.689 283.942C259.058 284.601 258.27 284.931 257.324 284.931ZM276.164 319.202C274.444 319.202 272.782 319.016 271.176 318.643C269.571 318.299 268.123 317.797 266.833 317.138L268.897 312.58C270.13 313.182 271.334 313.626 272.509 313.913C273.685 314.2 274.86 314.343 276.035 314.343C277.784 314.343 279.103 313.97 279.991 313.225C280.909 312.48 281.367 311.362 281.367 309.871V308.108C279.533 309.455 277.483 310.129 275.218 310.129C273.097 310.129 271.176 309.627 269.456 308.624C267.765 307.592 266.403 306.202 265.371 304.453C264.368 302.704 263.866 300.769 263.866 298.648C263.866 296.527 264.368 294.606 265.371 292.886C266.403 291.166 267.794 289.804 269.542 288.801C271.291 287.769 273.24 287.253 275.39 287.253C276.48 287.253 277.54 287.411 278.572 287.726C279.604 288.041 280.565 288.486 281.453 289.059V287.597H287.258V309.957C287.258 312.91 286.298 315.189 284.377 316.794C282.485 318.399 279.748 319.202 276.164 319.202ZM276.121 305.141C277.211 305.141 278.2 304.969 279.088 304.625C279.977 304.252 280.737 303.736 281.367 303.077V294.305C280.737 293.674 279.963 293.187 279.045 292.843C278.157 292.47 277.196 292.284 276.164 292.284C274.932 292.284 273.828 292.571 272.853 293.144C271.879 293.689 271.105 294.448 270.531 295.423C269.958 296.369 269.671 297.444 269.671 298.648C269.671 299.881 269.944 300.984 270.488 301.959C271.062 302.934 271.836 303.708 272.81 304.281C273.814 304.854 274.917 305.141 276.121 305.141ZM291.857 310V279.9L297.748 278.61V289.446C299.439 287.927 301.532 287.167 304.026 287.167C305.775 287.167 307.308 287.554 308.627 288.328C309.974 289.073 311.021 290.12 311.766 291.467C312.511 292.786 312.884 294.334 312.884 296.111V310H306.993V296.971C306.993 295.509 306.577 294.362 305.746 293.531C304.915 292.671 303.782 292.241 302.349 292.241C301.346 292.241 300.457 292.442 299.683 292.843C298.909 293.216 298.264 293.76 297.748 294.477V310H291.857ZM327.967 310.344C325.473 310.344 323.581 309.785 322.291 308.667C321.03 307.52 320.399 305.858 320.399 303.679V292.499H315.798V287.597H320.399V281.878L326.29 280.545V287.597H332.697V292.499H326.29V302.475C326.29 303.507 326.52 304.252 326.978 304.711C327.437 305.141 328.24 305.356 329.386 305.356C329.96 305.356 330.476 305.327 330.934 305.27C331.422 305.184 331.952 305.041 332.525 304.84V309.699C331.923 309.9 331.164 310.057 330.246 310.172C329.358 310.287 328.598 310.344 327.967 310.344ZM348.478 310L342.329 287.597H347.919L351.617 302.045L356.089 287.597H361.034L365.463 302.088L369.161 287.597H374.665L368.473 310H362.84L358.497 295.681L354.154 310H348.478ZM388.402 310.43C386.166 310.43 384.131 309.914 382.296 308.882C380.49 307.85 379.057 306.46 377.996 304.711C376.936 302.962 376.405 300.999 376.405 298.82C376.405 296.641 376.907 294.678 377.91 292.929C378.942 291.18 380.333 289.79 382.081 288.758C383.83 287.726 385.779 287.21 387.929 287.21C390.079 287.21 391.986 287.74 393.648 288.801C395.311 289.862 396.615 291.295 397.561 293.101C398.536 294.907 399.023 296.957 399.023 299.25V300.798H382.425C382.683 301.687 383.099 302.489 383.672 303.206C384.274 303.923 385.005 304.482 385.865 304.883C386.754 305.284 387.7 305.485 388.703 305.485C389.707 305.485 390.624 305.327 391.455 305.012C392.315 304.697 393.046 304.252 393.648 303.679L397.518 307.205C396.142 308.323 394.723 309.14 393.261 309.656C391.828 310.172 390.208 310.43 388.402 310.43ZM382.339 296.584H393.218C393.018 295.695 392.645 294.921 392.1 294.262C391.584 293.574 390.954 293.044 390.208 292.671C389.492 292.27 388.689 292.069 387.8 292.069C386.883 292.069 386.052 292.255 385.306 292.628C384.561 293.001 383.93 293.531 383.414 294.219C382.927 294.878 382.569 295.667 382.339 296.584ZM421.646 310.301C419.525 310.301 417.604 309.785 415.884 308.753C414.164 307.721 412.788 306.345 411.756 304.625C410.753 302.876 410.251 300.927 410.251 298.777C410.251 296.627 410.753 294.692 411.756 292.972C412.788 291.223 414.178 289.847 415.927 288.844C417.676 287.812 419.639 287.296 421.818 287.296C422.936 287.296 424.011 287.454 425.043 287.769C426.075 288.056 427.035 288.486 427.924 289.059V279.9L433.815 278.911V310H428.01V308.151C426.175 309.584 424.054 310.301 421.646 310.301ZM422.592 305.27C423.681 305.27 424.67 305.098 425.559 304.754C426.476 304.381 427.265 303.837 427.924 303.12V294.391C427.265 293.732 426.476 293.216 425.559 292.843C424.642 292.47 423.653 292.284 422.592 292.284C421.359 292.284 420.241 292.571 419.238 293.144C418.263 293.689 417.489 294.463 416.916 295.466C416.343 296.441 416.056 297.544 416.056 298.777C416.056 300.01 416.343 301.113 416.916 302.088C417.489 303.063 418.263 303.837 419.238 304.41C420.241 304.983 421.359 305.27 422.592 305.27ZM449.375 310.43C447.139 310.43 445.104 309.914 443.269 308.882C441.463 307.85 440.03 306.46 438.969 304.711C437.908 302.962 437.378 300.999 437.378 298.82C437.378 296.641 437.88 294.678 438.883 292.929C439.915 291.18 441.305 289.79 443.054 288.758C444.803 287.726 446.752 287.21 448.902 287.21C451.052 287.21 452.958 287.74 454.621 288.801C456.284 289.862 457.588 291.295 458.534 293.101C459.509 294.907 459.996 296.957 459.996 299.25V300.798H443.398C443.656 301.687 444.072 302.489 444.645 303.206C445.247 303.923 445.978 304.482 446.838 304.883C447.727 305.284 448.673 305.485 449.676 305.485C450.679 305.485 451.597 305.327 452.428 305.012C453.288 304.697 454.019 304.252 454.621 303.679L458.491 307.205C457.115 308.323 455.696 309.14 454.234 309.656C452.801 310.172 451.181 310.43 449.375 310.43ZM443.312 296.584H454.191C453.99 295.695 453.618 294.921 453.073 294.262C452.557 293.574 451.926 293.044 451.181 292.671C450.464 292.27 449.662 292.069 448.773 292.069C447.856 292.069 447.024 292.255 446.279 292.628C445.534 293.001 444.903 293.531 444.387 294.219C443.9 294.878 443.541 295.667 443.312 296.584ZM471.99 310.43C469.926 310.43 468.02 310.172 466.271 309.656C464.523 309.111 463.003 308.337 461.713 307.334L464.637 303.421C465.927 304.281 467.16 304.926 468.335 305.356C469.539 305.786 470.729 306.001 471.904 306.001C473.223 306.001 474.269 305.786 475.043 305.356C475.846 304.897 476.247 304.31 476.247 303.593C476.247 303.02 476.018 302.561 475.559 302.217C475.129 301.873 474.427 301.629 473.452 301.486L469.152 300.841C466.916 300.497 465.225 299.78 464.078 298.691C462.932 297.573 462.358 296.111 462.358 294.305C462.358 292.843 462.731 291.596 463.476 290.564C464.25 289.503 465.325 288.686 466.701 288.113C468.106 287.511 469.769 287.21 471.689 287.21C473.323 287.21 474.914 287.439 476.462 287.898C478.039 288.357 479.515 289.059 480.891 290.005L478.053 293.832C476.821 293.058 475.645 292.499 474.527 292.155C473.409 291.811 472.277 291.639 471.13 291.639C470.07 291.639 469.21 291.84 468.55 292.241C467.92 292.642 467.604 293.173 467.604 293.832C467.604 294.434 467.834 294.907 468.292 295.251C468.751 295.595 469.539 295.839 470.657 295.982L474.914 296.627C477.15 296.942 478.856 297.659 480.031 298.777C481.207 299.866 481.794 301.285 481.794 303.034C481.794 304.467 481.364 305.743 480.504 306.861C479.644 307.95 478.483 308.825 477.021 309.484C475.559 310.115 473.882 310.43 471.99 310.43ZM484.727 310V287.597H490.618V310H484.727ZM487.651 284.931C486.734 284.931 485.946 284.601 485.286 283.942C484.627 283.283 484.297 282.494 484.297 281.577C484.297 280.631 484.627 279.843 485.286 279.212C485.946 278.553 486.734 278.223 487.651 278.223C488.597 278.223 489.386 278.553 490.016 279.212C490.676 279.843 491.005 280.631 491.005 281.577C491.005 282.494 490.676 283.283 490.016 283.942C489.386 284.601 488.597 284.931 487.651 284.931ZM506.491 319.202C504.771 319.202 503.109 319.016 501.503 318.643C499.898 318.299 498.45 317.797 497.16 317.138L499.224 312.58C500.457 313.182 501.661 313.626 502.836 313.913C504.012 314.2 505.187 314.343 506.362 314.343C508.111 314.343 509.43 313.97 510.318 313.225C511.236 312.48 511.694 311.362 511.694 309.871V308.108C509.86 309.455 507.81 310.129 505.545 310.129C503.424 310.129 501.503 309.627 499.783 308.624C498.092 307.592 496.73 306.202 495.698 304.453C494.695 302.704 494.193 300.769 494.193 298.648C494.193 296.527 494.695 294.606 495.698 292.886C496.73 291.166 498.121 289.804 499.869 288.801C501.618 287.769 503.567 287.253 505.717 287.253C506.807 287.253 507.867 287.411 508.899 287.726C509.931 288.041 510.892 288.486 511.78 289.059V287.597H517.585V309.957C517.585 312.91 516.625 315.189 514.704 316.794C512.812 318.399 510.075 319.202 506.491 319.202ZM506.448 305.141C507.538 305.141 508.527 304.969 509.415 304.625C510.304 304.252 511.064 303.736 511.694 303.077V294.305C511.064 293.674 510.29 293.187 509.372 292.843C508.484 292.47 507.523 292.284 506.491 292.284C505.259 292.284 504.155 292.571 503.18 293.144C502.206 293.689 501.432 294.448 500.858 295.423C500.285 296.369 499.998 297.444 499.998 298.648C499.998 299.881 500.271 300.984 500.815 301.959C501.389 302.934 502.163 303.708 503.137 304.281C504.141 304.854 505.244 305.141 506.448 305.141ZM522.184 310V287.597H528.075V289.446C529.767 287.927 531.859 287.167 534.353 287.167C536.102 287.167 537.636 287.554 538.954 288.328C540.302 289.073 541.348 290.12 542.093 291.467C542.839 292.786 543.211 294.334 543.211 296.111V310H537.32V296.971C537.32 295.509 536.905 294.362 536.073 293.531C535.242 292.671 534.11 292.241 532.676 292.241C531.673 292.241 530.784 292.442 530.01 292.843C529.236 293.216 528.591 293.76 528.075 294.477V310H522.184ZM563.462 310.387C561.857 310.387 560.438 310.1 559.205 309.527C557.972 308.925 557.012 308.108 556.324 307.076C555.636 306.044 555.292 304.854 555.292 303.507C555.292 301.357 556.095 299.694 557.7 298.519C559.334 297.315 561.57 296.713 564.408 296.713C566.357 296.713 568.192 297.014 569.912 297.616V295.982C569.912 294.692 569.511 293.717 568.708 293.058C567.905 292.399 566.73 292.069 565.182 292.069C564.236 292.069 563.218 292.227 562.129 292.542C561.04 292.829 559.778 293.287 558.345 293.918L556.195 289.575C557.972 288.772 559.664 288.17 561.269 287.769C562.903 287.368 564.537 287.167 566.171 287.167C569.181 287.167 571.517 287.898 573.18 289.36C574.871 290.793 575.717 292.829 575.717 295.466V310H569.912V308.409C568.995 309.097 568.006 309.599 566.945 309.914C565.884 310.229 564.723 310.387 563.462 310.387ZM560.882 303.378C560.882 304.238 561.255 304.926 562 305.442C562.745 305.929 563.734 306.173 564.967 306.173C565.942 306.173 566.845 306.058 567.676 305.829C568.507 305.571 569.253 305.198 569.912 304.711V301.443C569.195 301.156 568.45 300.941 567.676 300.798C566.902 300.655 566.071 300.583 565.182 300.583C563.835 300.583 562.774 300.841 562 301.357C561.255 301.844 560.882 302.518 560.882 303.378ZM599.447 310.344C596.953 310.344 595.061 309.785 593.771 308.667C592.51 307.52 591.879 305.858 591.879 303.679V292.499H587.278V287.597H591.879V281.878L597.77 280.545V287.597H604.177V292.499H597.77V302.475C597.77 303.507 597.999 304.252 598.458 304.711C598.917 305.141 599.719 305.356 600.866 305.356C601.439 305.356 601.955 305.327 602.414 305.27C602.901 305.184 603.432 305.041 604.005 304.84V309.699C603.403 309.9 602.643 310.057 601.726 310.172C600.837 310.287 600.078 310.344 599.447 310.344ZM617.973 310.43C615.737 310.43 613.716 309.914 611.91 308.882C610.104 307.85 608.67 306.46 607.61 304.711C606.549 302.962 606.019 300.999 606.019 298.82C606.019 296.641 606.535 294.678 607.567 292.929C608.627 291.152 610.061 289.747 611.867 288.715C613.701 287.683 615.737 287.167 617.973 287.167C620.209 287.167 622.23 287.683 624.036 288.715C625.87 289.747 627.304 291.152 628.336 292.929C629.396 294.678 629.927 296.641 629.927 298.82C629.927 300.999 629.396 302.962 628.336 304.711C627.304 306.46 625.885 307.85 624.079 308.882C622.273 309.914 620.237 310.43 617.973 310.43ZM617.973 305.313C619.148 305.313 620.194 305.026 621.112 304.453C622.058 303.88 622.803 303.106 623.348 302.131C623.921 301.128 624.208 300.024 624.208 298.82C624.208 297.587 623.921 296.484 623.348 295.509C622.803 294.534 622.058 293.76 621.112 293.187C620.194 292.585 619.148 292.284 617.973 292.284C616.826 292.284 615.78 292.585 614.834 293.187C613.888 293.76 613.142 294.534 612.598 295.509C612.053 296.484 611.781 297.587 611.781 298.82C611.781 300.024 612.053 301.128 612.598 302.131C613.142 303.106 613.888 303.88 614.834 304.453C615.78 305.026 616.826 305.313 617.973 305.313ZM635.741 319.245C635.225 319.245 634.723 319.216 634.236 319.159C633.777 319.13 633.39 319.087 633.075 319.03V313.956C633.648 314.071 634.336 314.128 635.139 314.128C637.289 314.128 638.779 313.11 639.611 311.075L639.955 310.215L631.226 287.597H637.719L643.309 302.862L649.63 287.597H655.994L645.674 311.806C644.9 313.612 644.054 315.06 643.137 316.149C642.219 317.238 641.159 318.027 639.955 318.514C638.779 319.001 637.375 319.245 635.741 319.245ZM125.943 370.344C123.449 370.344 121.557 369.785 120.267 368.667C119.006 367.52 118.375 365.858 118.375 363.679V352.499H113.774V347.597H118.375V341.878L124.266 340.545V347.597H130.673V352.499H124.266V362.475C124.266 363.507 124.495 364.252 124.954 364.711C125.413 365.141 126.215 365.356 127.362 365.356C127.935 365.356 128.451 365.327 128.91 365.27C129.397 365.184 129.928 365.041 130.501 364.84V369.699C129.899 369.9 129.139 370.057 128.222 370.172C127.333 370.287 126.574 370.344 125.943 370.344ZM144.469 370.43C142.233 370.43 140.212 369.914 138.406 368.882C136.6 367.85 135.166 366.46 134.106 364.711C133.045 362.962 132.515 360.999 132.515 358.82C132.515 356.641 133.031 354.678 134.063 352.929C135.123 351.152 136.557 349.747 138.363 348.715C140.197 347.683 142.233 347.167 144.469 347.167C146.705 347.167 148.726 347.683 150.532 348.715C152.366 349.747 153.8 351.152 154.832 352.929C155.892 354.678 156.423 356.641 156.423 358.82C156.423 360.999 155.892 362.962 154.832 364.711C153.8 366.46 152.381 367.85 150.575 368.882C148.769 369.914 146.733 370.43 144.469 370.43ZM144.469 365.313C145.644 365.313 146.69 365.026 147.608 364.453C148.554 363.88 149.299 363.106 149.844 362.131C150.417 361.128 150.704 360.024 150.704 358.82C150.704 357.587 150.417 356.484 149.844 355.509C149.299 354.534 148.554 353.76 147.608 353.187C146.69 352.585 145.644 352.284 144.469 352.284C143.322 352.284 142.276 352.585 141.33 353.187C140.384 353.76 139.638 354.534 139.094 355.509C138.549 356.484 138.277 357.587 138.277 358.82C138.277 360.024 138.549 361.128 139.094 362.131C139.638 363.106 140.384 363.88 141.33 364.453C142.276 365.026 143.322 365.313 144.469 365.313ZM179.659 370.43C177.423 370.43 175.388 369.914 173.553 368.882C171.747 367.85 170.314 366.46 169.253 364.711C168.192 362.962 167.662 360.999 167.662 358.82C167.662 356.641 168.164 354.678 169.167 352.929C170.199 351.18 171.589 349.79 173.338 348.758C175.087 347.726 177.036 347.21 179.186 347.21C181.336 347.21 183.242 347.74 184.905 348.801C186.568 349.862 187.872 351.295 188.818 353.101C189.793 354.907 190.28 356.957 190.28 359.25V360.798H173.682C173.94 361.687 174.356 362.489 174.929 363.206C175.531 363.923 176.262 364.482 177.122 364.883C178.011 365.284 178.957 365.485 179.96 365.485C180.963 365.485 181.881 365.327 182.712 365.012C183.572 364.697 184.303 364.252 184.905 363.679L188.775 367.205C187.399 368.323 185.98 369.14 184.518 369.656C183.085 370.172 181.465 370.43 179.659 370.43ZM173.596 356.584H184.475C184.274 355.695 183.902 354.921 183.357 354.262C182.841 353.574 182.21 353.044 181.465 352.671C180.748 352.27 179.946 352.069 179.057 352.069C178.14 352.069 177.308 352.255 176.563 352.628C175.818 353.001 175.187 353.531 174.671 354.219C174.184 354.878 173.825 355.667 173.596 356.584ZM193.889 370V347.597H199.78V349.446C201.472 347.927 203.564 347.167 206.058 347.167C207.807 347.167 209.341 347.554 210.659 348.328C212.007 349.073 213.053 350.12 213.798 351.467C214.544 352.786 214.916 354.334 214.916 356.111V370H209.025V356.971C209.025 355.509 208.61 354.362 207.778 353.531C206.947 352.671 205.815 352.241 204.381 352.241C203.378 352.241 202.489 352.442 201.715 352.843C200.941 353.216 200.296 353.76 199.78 354.477V370H193.889ZM230.086 370.43C227.878 370.43 225.886 369.928 224.109 368.925C222.331 367.893 220.927 366.503 219.895 364.754C218.863 362.977 218.347 360.999 218.347 358.82C218.347 356.613 218.863 354.635 219.895 352.886C220.927 351.137 222.331 349.747 224.109 348.715C225.886 347.683 227.878 347.167 230.086 347.167C231.863 347.167 233.554 347.511 235.16 348.199C236.794 348.887 238.198 349.876 239.374 351.166L235.762 354.993C234.93 354.076 234.056 353.402 233.139 352.972C232.25 352.513 231.275 352.284 230.215 352.284C229.068 352.284 228.036 352.571 227.119 353.144C226.23 353.717 225.513 354.491 224.969 355.466C224.453 356.441 224.195 357.559 224.195 358.82C224.195 360.024 224.453 361.128 224.969 362.131C225.513 363.106 226.259 363.88 227.205 364.453C228.151 364.998 229.197 365.27 230.344 365.27C231.347 365.27 232.279 365.069 233.139 364.668C234.027 364.238 234.873 363.607 235.676 362.776L239.202 366.474C238.055 367.707 236.679 368.681 235.074 369.398C233.468 370.086 231.806 370.43 230.086 370.43ZM253.186 370.43C250.95 370.43 248.929 369.914 247.123 368.882C245.317 367.85 243.884 366.46 242.823 364.711C241.763 362.962 241.232 360.999 241.232 358.82C241.232 356.641 241.748 354.678 242.78 352.929C243.841 351.152 245.274 349.747 247.08 348.715C248.915 347.683 250.95 347.167 253.186 347.167C255.422 347.167 257.443 347.683 259.249 348.715C261.084 349.747 262.517 351.152 263.549 352.929C264.61 354.678 265.14 356.641 265.14 358.82C265.14 360.999 264.61 362.962 263.549 364.711C262.517 366.46 261.098 367.85 259.292 368.882C257.486 369.914 255.451 370.43 253.186 370.43ZM253.186 365.313C254.362 365.313 255.408 365.026 256.325 364.453C257.271 363.88 258.017 363.106 258.561 362.131C259.135 361.128 259.421 360.024 259.421 358.82C259.421 357.587 259.135 356.484 258.561 355.509C258.017 354.534 257.271 353.76 256.325 353.187C255.408 352.585 254.362 352.284 253.186 352.284C252.04 352.284 250.993 352.585 250.047 353.187C249.101 353.76 248.356 354.534 247.811 355.509C247.267 356.484 246.994 357.587 246.994 358.82C246.994 360.024 247.267 361.128 247.811 362.131C248.356 363.106 249.101 363.88 250.047 364.453C250.993 365.026 252.04 365.313 253.186 365.313ZM277.447 370.43C275.727 370.43 274.194 370.057 272.846 369.312C271.528 368.538 270.481 367.477 269.707 366.13C268.962 364.783 268.589 363.235 268.589 361.486V347.597H274.48V360.626C274.48 362.059 274.896 363.206 275.727 364.066C276.587 364.926 277.734 365.356 279.167 365.356C280.142 365.356 281.016 365.17 281.79 364.797C282.593 364.396 283.252 363.837 283.768 363.12V347.597H289.659V370H283.768V368.194C282.048 369.685 279.941 370.43 277.447 370.43ZM294.251 370V347.597H300.142V350.091C300.858 349.116 301.718 348.371 302.722 347.855C303.725 347.339 304.857 347.081 306.119 347.081C307.208 347.11 308.025 347.282 308.57 347.597V352.757C308.14 352.556 307.667 352.413 307.151 352.327C306.635 352.212 306.104 352.155 305.56 352.155C304.413 352.155 303.367 352.442 302.421 353.015C301.475 353.588 300.715 354.405 300.142 355.466V370H294.251ZM318.941 370.387C317.336 370.387 315.917 370.1 314.684 369.527C313.452 368.925 312.491 368.108 311.803 367.076C311.115 366.044 310.771 364.854 310.771 363.507C310.771 361.357 311.574 359.694 313.179 358.519C314.813 357.315 317.049 356.713 319.887 356.713C321.837 356.713 323.671 357.014 325.391 357.616V355.982C325.391 354.692 324.99 353.717 324.187 353.058C323.385 352.399 322.209 352.069 320.661 352.069C319.715 352.069 318.698 352.227 317.608 352.542C316.519 352.829 315.258 353.287 313.824 353.918L311.674 349.575C313.452 348.772 315.143 348.17 316.748 347.769C318.382 347.368 320.016 347.167 321.65 347.167C324.66 347.167 326.997 347.898 328.659 349.36C330.351 350.793 331.196 352.829 331.196 355.466V370H325.391V368.409C324.474 369.097 323.485 369.599 322.424 369.914C321.364 370.229 320.203 370.387 318.941 370.387ZM316.361 363.378C316.361 364.238 316.734 364.926 317.479 365.442C318.225 365.929 319.214 366.173 320.446 366.173C321.421 366.173 322.324 366.058 323.155 365.829C323.987 365.571 324.732 365.198 325.391 364.711V361.443C324.675 361.156 323.929 360.941 323.155 360.798C322.381 360.655 321.55 360.583 320.661 360.583C319.314 360.583 318.253 360.841 317.479 361.357C316.734 361.844 316.361 362.518 316.361 363.378ZM346.921 379.202C345.201 379.202 343.538 379.016 341.933 378.643C340.328 378.299 338.88 377.797 337.59 377.138L339.654 372.58C340.887 373.182 342.091 373.626 343.266 373.913C344.441 374.2 345.617 374.343 346.792 374.343C348.541 374.343 349.859 373.97 350.748 373.225C351.665 372.48 352.124 371.362 352.124 369.871V368.108C350.289 369.455 348.24 370.129 345.975 370.129C343.854 370.129 341.933 369.627 340.213 368.624C338.522 367.592 337.16 366.202 336.128 364.453C335.125 362.704 334.623 360.769 334.623 358.648C334.623 356.527 335.125 354.606 336.128 352.886C337.16 351.166 338.55 349.804 340.299 348.801C342.048 347.769 343.997 347.253 346.147 347.253C347.236 347.253 348.297 347.411 349.329 347.726C350.361 348.041 351.321 348.486 352.21 349.059V347.597H358.015V369.957C358.015 372.91 357.055 375.189 355.134 376.794C353.242 378.399 350.504 379.202 346.921 379.202ZM346.878 365.141C347.967 365.141 348.956 364.969 349.845 364.625C350.734 364.252 351.493 363.736 352.124 363.077V354.305C351.493 353.674 350.719 353.187 349.802 352.843C348.913 352.47 347.953 352.284 346.921 352.284C345.688 352.284 344.585 352.571 343.61 353.144C342.635 353.689 341.861 354.448 341.288 355.423C340.715 356.369 340.428 357.444 340.428 358.648C340.428 359.881 340.7 360.984 341.245 361.959C341.818 362.934 342.592 363.708 343.567 364.281C344.57 364.854 345.674 365.141 346.878 365.141ZM373.579 370.43C371.343 370.43 369.308 369.914 367.473 368.882C365.667 367.85 364.234 366.46 363.173 364.711C362.112 362.962 361.582 360.999 361.582 358.82C361.582 356.641 362.084 354.678 363.087 352.929C364.119 351.18 365.509 349.79 367.258 348.758C369.007 347.726 370.956 347.21 373.106 347.21C375.256 347.21 377.162 347.74 378.825 348.801C380.488 349.862 381.792 351.295 382.738 353.101C383.713 354.907 384.2 356.957 384.2 359.25V360.798H367.602C367.86 361.687 368.276 362.489 368.849 363.206C369.451 363.923 370.182 364.482 371.042 364.883C371.931 365.284 372.877 365.485 373.88 365.485C374.883 365.485 375.801 365.327 376.632 365.012C377.492 364.697 378.223 364.252 378.825 363.679L382.695 367.205C381.319 368.323 379.9 369.14 378.438 369.656C377.005 370.172 375.385 370.43 373.579 370.43ZM367.516 356.584H378.395C378.194 355.695 377.822 354.921 377.277 354.262C376.761 353.574 376.13 353.044 375.385 352.671C374.668 352.27 373.866 352.069 372.977 352.069C372.06 352.069 371.228 352.255 370.483 352.628C369.738 353.001 369.107 353.531 368.591 354.219C368.104 354.878 367.745 355.667 367.516 356.584ZM407.167 370.43C404.959 370.43 402.967 369.928 401.19 368.925C399.412 367.893 398.008 366.503 396.976 364.754C395.944 362.977 395.428 360.999 395.428 358.82C395.428 356.613 395.944 354.635 396.976 352.886C398.008 351.137 399.412 349.747 401.19 348.715C402.967 347.683 404.959 347.167 407.167 347.167C408.944 347.167 410.635 347.511 412.241 348.199C413.875 348.887 415.279 349.876 416.455 351.166L412.843 354.993C412.011 354.076 411.137 353.402 410.22 352.972C409.331 352.513 408.356 352.284 407.296 352.284C406.149 352.284 405.117 352.571 404.2 353.144C403.311 353.717 402.594 354.491 402.05 355.466C401.534 356.441 401.276 357.559 401.276 358.82C401.276 360.024 401.534 361.128 402.05 362.131C402.594 363.106 403.34 363.88 404.286 364.453C405.232 364.998 406.278 365.27 407.425 365.27C408.428 365.27 409.36 365.069 410.22 364.668C411.108 364.238 411.954 363.607 412.757 362.776L416.283 366.474C415.136 367.707 413.76 368.681 412.155 369.398C410.549 370.086 408.887 370.43 407.167 370.43ZM419.345 370V347.597H425.236V350.091C425.953 349.116 426.813 348.371 427.816 347.855C428.82 347.339 429.952 347.081 431.213 347.081C432.303 347.11 433.12 347.282 433.664 347.597V352.757C433.234 352.556 432.761 352.413 432.245 352.327C431.729 352.212 431.199 352.155 430.654 352.155C429.508 352.155 428.461 352.442 427.515 353.015C426.569 353.588 425.81 354.405 425.236 355.466V370H419.345ZM447.863 370.43C445.627 370.43 443.592 369.914 441.757 368.882C439.951 367.85 438.518 366.46 437.457 364.711C436.397 362.962 435.866 360.999 435.866 358.82C435.866 356.641 436.368 354.678 437.371 352.929C438.403 351.18 439.794 349.79 441.542 348.758C443.291 347.726 445.24 347.21 447.39 347.21C449.54 347.21 451.447 347.74 453.109 348.801C454.772 349.862 456.076 351.295 457.022 353.101C457.997 354.907 458.484 356.957 458.484 359.25V360.798H441.886C442.144 361.687 442.56 362.489 443.133 363.206C443.735 363.923 444.466 364.482 445.326 364.883C446.215 365.284 447.161 365.485 448.164 365.485C449.168 365.485 450.085 365.327 450.916 365.012C451.776 364.697 452.507 364.252 453.109 363.679L456.979 367.205C455.603 368.323 454.184 369.14 452.722 369.656C451.289 370.172 449.669 370.43 447.863 370.43ZM441.8 356.584H452.679C452.479 355.695 452.106 354.921 451.561 354.262C451.045 353.574 450.415 353.044 449.669 352.671C448.953 352.27 448.15 352.069 447.261 352.069C446.344 352.069 445.513 352.255 444.767 352.628C444.022 353.001 443.391 353.531 442.875 354.219C442.388 354.878 442.03 355.667 441.8 356.584ZM469.231 370.387C467.626 370.387 466.207 370.1 464.974 369.527C463.742 368.925 462.781 368.108 462.093 367.076C461.405 366.044 461.061 364.854 461.061 363.507C461.061 361.357 461.864 359.694 463.469 358.519C465.103 357.315 467.339 356.713 470.177 356.713C472.127 356.713 473.961 357.014 475.681 357.616V355.982C475.681 354.692 475.28 353.717 474.477 353.058C473.675 352.399 472.499 352.069 470.951 352.069C470.005 352.069 468.988 352.227 467.898 352.542C466.809 352.829 465.548 353.287 464.114 353.918L461.964 349.575C463.742 348.772 465.433 348.17 467.038 347.769C468.672 347.368 470.306 347.167 471.94 347.167C474.95 347.167 477.287 347.898 478.949 349.36C480.641 350.793 481.486 352.829 481.486 355.466V370H475.681V368.409C474.764 369.097 473.775 369.599 472.714 369.914C471.654 370.229 470.493 370.387 469.231 370.387ZM466.651 363.378C466.651 364.238 467.024 364.926 467.769 365.442C468.515 365.929 469.504 366.173 470.736 366.173C471.711 366.173 472.614 366.058 473.445 365.829C474.277 365.571 475.022 365.198 475.681 364.711V361.443C474.965 361.156 474.219 360.941 473.445 360.798C472.671 360.655 471.84 360.583 470.951 360.583C469.604 360.583 468.543 360.841 467.769 361.357C467.024 361.844 466.651 362.518 466.651 363.378ZM496.566 370.344C494.072 370.344 492.18 369.785 490.89 368.667C489.629 367.52 488.998 365.858 488.998 363.679V352.499H484.397V347.597H488.998V341.878L494.889 340.545V347.597H501.296V352.499H494.889V362.475C494.889 363.507 495.118 364.252 495.577 364.711C496.036 365.141 496.838 365.356 497.985 365.356C498.558 365.356 499.074 365.327 499.533 365.27C500.02 365.184 500.551 365.041 501.124 364.84V369.699C500.522 369.9 499.762 370.057 498.845 370.172C497.956 370.287 497.197 370.344 496.566 370.344ZM504.17 370V347.597H510.061V370H504.17ZM507.094 344.931C506.176 344.931 505.388 344.601 504.729 343.942C504.069 343.283 503.74 342.494 503.74 341.577C503.74 340.631 504.069 339.843 504.729 339.212C505.388 338.553 506.176 338.223 507.094 338.223C508.04 338.223 508.828 338.553 509.459 339.212C510.118 339.843 510.448 340.631 510.448 341.577C510.448 342.494 510.118 343.283 509.459 343.942C508.828 344.601 508.04 344.931 507.094 344.931ZM521.935 370L512.346 347.597H518.753L524.902 362.518L531.008 347.597H537.286L527.654 370H521.935ZM550.576 370.43C548.34 370.43 546.305 369.914 544.47 368.882C542.664 367.85 541.231 366.46 540.17 364.711C539.109 362.962 538.579 360.999 538.579 358.82C538.579 356.641 539.081 354.678 540.084 352.929C541.116 351.18 542.506 349.79 544.255 348.758C546.004 347.726 547.953 347.21 550.103 347.21C552.253 347.21 554.159 347.74 555.822 348.801C557.485 349.862 558.789 351.295 559.735 353.101C560.71 354.907 561.197 356.957 561.197 359.25V360.798H544.599C544.857 361.687 545.273 362.489 545.846 363.206C546.448 363.923 547.179 364.482 548.039 364.883C548.928 365.284 549.874 365.485 550.877 365.485C551.88 365.485 552.798 365.327 553.629 365.012C554.489 364.697 555.22 364.252 555.822 363.679L559.692 367.205C558.316 368.323 556.897 369.14 555.435 369.656C554.002 370.172 552.382 370.43 550.576 370.43ZM544.513 356.584H555.392C555.191 355.695 554.819 354.921 554.274 354.262C553.758 353.574 553.127 353.044 552.382 352.671C551.665 352.27 550.863 352.069 549.974 352.069C549.057 352.069 548.225 352.255 547.48 352.628C546.735 353.001 546.104 353.531 545.588 354.219C545.101 354.878 544.742 355.667 544.513 356.584ZM584.422 370.43C582.186 370.43 580.15 369.914 578.316 368.882C576.51 367.85 575.076 366.46 574.016 364.711C572.955 362.962 572.425 360.999 572.425 358.82C572.425 356.641 572.926 354.678 573.93 352.929C574.962 351.18 576.352 349.79 578.101 348.758C579.849 347.726 581.799 347.21 583.949 347.21C586.099 347.21 588.005 347.74 589.668 348.801C591.33 349.862 592.635 351.295 593.581 353.101C594.555 354.907 595.043 356.957 595.043 359.25V360.798H578.445C578.703 361.687 579.118 362.489 579.692 363.206C580.294 363.923 581.025 364.482 581.885 364.883C582.773 365.284 583.719 365.485 584.723 365.485C585.726 365.485 586.643 365.327 587.475 365.012C588.335 364.697 589.066 364.252 589.668 363.679L593.538 367.205C592.162 368.323 590.743 369.14 589.281 369.656C587.847 370.172 586.228 370.43 584.422 370.43ZM578.359 356.584H589.238C589.037 355.695 588.664 354.921 588.12 354.262C587.604 353.574 586.973 353.044 586.228 352.671C585.511 352.27 584.708 352.069 583.82 352.069C582.902 352.069 582.071 352.255 581.326 352.628C580.58 353.001 579.95 353.531 579.434 354.219C578.946 354.878 578.588 355.667 578.359 356.584ZM598.652 370V347.597H604.543V349.317C606.148 347.884 608.098 347.167 610.391 347.167C611.853 347.167 613.157 347.468 614.304 348.07C615.451 348.643 616.397 349.46 617.142 350.521C618.059 349.432 619.134 348.6 620.367 348.027C621.628 347.454 623.019 347.167 624.538 347.167C626.229 347.167 627.706 347.554 628.967 348.328C630.257 349.073 631.26 350.12 631.977 351.467C632.722 352.786 633.095 354.334 633.095 356.111V370H627.247V356.971C627.247 355.509 626.86 354.362 626.086 353.531C625.312 352.671 624.28 352.241 622.99 352.241C622.101 352.241 621.284 352.427 620.539 352.8C619.822 353.173 619.206 353.732 618.69 354.477C618.719 354.735 618.747 354.993 618.776 355.251C618.805 355.509 618.819 355.796 618.819 356.111V370H612.928V356.971C612.928 355.509 612.541 354.362 611.767 353.531C611.022 352.671 610.004 352.241 608.714 352.241C607.825 352.241 607.023 352.413 606.306 352.757C605.618 353.101 605.03 353.617 604.543 354.305V370H598.652ZM648.501 370.43C646.265 370.43 644.244 369.914 642.438 368.882C640.632 367.85 639.199 366.46 638.138 364.711C637.077 362.962 636.547 360.999 636.547 358.82C636.547 356.641 637.063 354.678 638.095 352.929C639.156 351.152 640.589 349.747 642.395 348.715C644.23 347.683 646.265 347.167 648.501 347.167C650.737 347.167 652.758 347.683 654.564 348.715C656.399 349.747 657.832 351.152 658.864 352.929C659.925 354.678 660.455 356.641 660.455 358.82C660.455 360.999 659.925 362.962 658.864 364.711C657.832 366.46 656.413 367.85 654.607 368.882C652.801 369.914 650.766 370.43 648.501 370.43ZM648.501 365.313C649.676 365.313 650.723 365.026 651.64 364.453C652.586 363.88 653.331 363.106 653.876 362.131C654.449 361.128 654.736 360.024 654.736 358.82C654.736 357.587 654.449 356.484 653.876 355.509C653.331 354.534 652.586 353.76 651.64 353.187C650.723 352.585 649.676 352.284 648.501 352.284C647.354 352.284 646.308 352.585 645.362 353.187C644.416 353.76 643.671 354.534 643.126 355.509C642.581 356.484 642.309 357.587 642.309 358.82C642.309 360.024 642.581 361.128 643.126 362.131C643.671 363.106 644.416 363.88 645.362 364.453C646.308 365.026 647.354 365.313 648.501 365.313ZM674.697 370.344C672.203 370.344 670.311 369.785 669.021 368.667C667.76 367.52 667.129 365.858 667.129 363.679V352.499H662.528V347.597H667.129V341.878L673.02 340.545V347.597H679.427V352.499H673.02V362.475C673.02 363.507 673.249 364.252 673.708 364.711C674.167 365.141 674.969 365.356 676.116 365.356C676.689 365.356 677.205 365.327 677.664 365.27C678.151 365.184 678.682 365.041 679.255 364.84V369.699C678.653 369.9 677.893 370.057 676.976 370.172C676.087 370.287 675.328 370.344 674.697 370.344ZM682.301 370V347.597H688.192V370H682.301ZM685.225 344.931C684.307 344.931 683.519 344.601 682.86 343.942C682.2 343.283 681.871 342.494 681.871 341.577C681.871 340.631 682.2 339.843 682.86 339.212C683.519 338.553 684.307 338.223 685.225 338.223C686.171 338.223 686.959 338.553 687.59 339.212C688.249 339.843 688.579 340.631 688.579 341.577C688.579 342.494 688.249 343.283 687.59 343.942C686.959 344.601 686.171 344.931 685.225 344.931ZM703.721 370.43C701.485 370.43 699.464 369.914 697.658 368.882C695.852 367.85 694.418 366.46 693.358 364.711C692.297 362.962 691.767 360.999 691.767 358.82C691.767 356.641 692.283 354.678 693.315 352.929C694.375 351.152 695.809 349.747 697.615 348.715C699.449 347.683 701.485 347.167 703.721 347.167C705.957 347.167 707.978 347.683 709.784 348.715C711.618 349.747 713.052 351.152 714.084 352.929C715.144 354.678 715.675 356.641 715.675 358.82C715.675 360.999 715.144 362.962 714.084 364.711C713.052 366.46 711.633 367.85 709.827 368.882C708.021 369.914 705.985 370.43 703.721 370.43ZM703.721 365.313C704.896 365.313 705.942 365.026 706.86 364.453C707.806 363.88 708.551 363.106 709.096 362.131C709.669 361.128 709.956 360.024 709.956 358.82C709.956 357.587 709.669 356.484 709.096 355.509C708.551 354.534 707.806 353.76 706.86 353.187C705.942 352.585 704.896 352.284 703.721 352.284C702.574 352.284 701.528 352.585 700.582 353.187C699.636 353.76 698.89 354.534 698.346 355.509C697.801 356.484 697.529 357.587 697.529 358.82C697.529 360.024 697.801 361.128 698.346 362.131C698.89 363.106 699.636 363.88 700.582 364.453C701.528 365.026 702.574 365.313 703.721 365.313ZM719.296 370V347.597H725.187V349.446C726.878 347.927 728.971 347.167 731.465 347.167C733.213 347.167 734.747 347.554 736.066 348.328C737.413 349.073 738.459 350.12 739.205 351.467C739.95 352.786 740.323 354.334 740.323 356.111V370H734.432V356.971C734.432 355.509 734.016 354.362 733.185 353.531C732.353 352.671 731.221 352.241 729.788 352.241C728.784 352.241 727.896 352.442 727.122 352.843C726.348 353.216 725.703 353.76 725.187 354.477V370H719.296ZM751.923 370.387C750.318 370.387 748.899 370.1 747.666 369.527C746.433 368.925 745.473 368.108 744.785 367.076C744.097 366.044 743.753 364.854 743.753 363.507C743.753 361.357 744.556 359.694 746.161 358.519C747.795 357.315 750.031 356.713 752.869 356.713C754.818 356.713 756.653 357.014 758.373 357.616V355.982C758.373 354.692 757.972 353.717 757.169 353.058C756.366 352.399 755.191 352.069 753.643 352.069C752.697 352.069 751.679 352.227 750.59 352.542C749.501 352.829 748.239 353.287 746.806 353.918L744.656 349.575C746.433 348.772 748.125 348.17 749.73 347.769C751.364 347.368 752.998 347.167 754.632 347.167C757.642 347.167 759.978 347.898 761.641 349.36C763.332 350.793 764.178 352.829 764.178 355.466V370H758.373V368.409C757.456 369.097 756.467 369.599 755.406 369.914C754.345 370.229 753.184 370.387 751.923 370.387ZM749.343 363.378C749.343 364.238 749.716 364.926 750.461 365.442C751.206 365.929 752.195 366.173 753.428 366.173C754.403 366.173 755.306 366.058 756.137 365.829C756.968 365.571 757.714 365.198 758.373 364.711V361.443C757.656 361.156 756.911 360.941 756.137 360.798C755.363 360.655 754.532 360.583 753.643 360.583C752.296 360.583 751.235 360.841 750.461 361.357C749.716 361.844 749.343 362.518 749.343 363.378ZM768.636 370V339.9L774.527 338.911V370H768.636ZM798.75 370.43C796.514 370.43 794.479 369.914 792.644 368.882C790.838 367.85 789.405 366.46 788.344 364.711C787.283 362.962 786.753 360.999 786.753 358.82C786.753 356.641 787.255 354.678 788.258 352.929C789.29 351.18 790.68 349.79 792.429 348.758C794.178 347.726 796.127 347.21 798.277 347.21C800.427 347.21 802.333 347.74 803.996 348.801C805.659 349.862 806.963 351.295 807.909 353.101C808.884 354.907 809.371 356.957 809.371 359.25V360.798H792.773C793.031 361.687 793.447 362.489 794.02 363.206C794.622 363.923 795.353 364.482 796.213 364.883C797.102 365.284 798.048 365.485 799.051 365.485C800.054 365.485 800.972 365.327 801.803 365.012C802.663 364.697 803.394 364.252 803.996 363.679L807.866 367.205C806.49 368.323 805.071 369.14 803.609 369.656C802.176 370.172 800.556 370.43 798.75 370.43ZM792.687 356.584H803.566C803.365 355.695 802.993 354.921 802.448 354.262C801.932 353.574 801.301 353.044 800.556 352.671C799.839 352.27 799.037 352.069 798.148 352.069C797.231 352.069 796.399 352.255 795.654 352.628C794.909 353.001 794.278 353.531 793.762 354.219C793.275 354.878 792.916 355.667 792.687 356.584ZM810.572 370L819.172 358.605L810.787 347.597H817.624L822.569 354.262L827.471 347.597H834.093L825.837 358.519L834.609 370H827.729L822.44 362.862L817.151 370H810.572ZM836.832 378.772V347.597H842.637V349.446C844.471 348.013 846.593 347.296 849.001 347.296C851.122 347.296 853.043 347.812 854.763 348.844C856.483 349.876 857.844 351.266 858.848 353.015C859.88 354.735 860.396 356.67 860.396 358.82C860.396 360.97 859.88 362.919 858.848 364.668C857.816 366.388 856.425 367.764 854.677 368.796C852.928 369.799 850.979 370.301 848.829 370.301C847.711 370.301 846.636 370.158 845.604 369.871C844.572 369.556 843.611 369.111 842.723 368.538V378.772H836.832ZM848.055 365.313C849.287 365.313 850.391 365.026 851.366 364.453C852.369 363.88 853.157 363.106 853.731 362.131C854.304 361.156 854.591 360.053 854.591 358.82C854.591 357.587 854.304 356.484 853.731 355.509C853.157 354.506 852.369 353.732 851.366 353.187C850.391 352.614 849.287 352.327 848.055 352.327C846.965 352.327 845.962 352.513 845.045 352.886C844.156 353.23 843.382 353.76 842.723 354.477V363.206C843.353 363.865 844.127 364.381 845.045 364.754C845.991 365.127 846.994 365.313 848.055 365.313ZM863.959 370V347.597H869.85V350.091C870.566 349.116 871.426 348.371 872.43 347.855C873.433 347.339 874.565 347.081 875.827 347.081C876.916 347.11 877.733 347.282 878.278 347.597V352.757C877.848 352.556 877.375 352.413 876.859 352.327C876.343 352.212 875.812 352.155 875.268 352.155C874.121 352.155 873.075 352.442 872.129 353.015C871.183 353.588 870.423 354.405 869.85 355.466V370H863.959ZM892.476 370.43C890.24 370.43 888.205 369.914 886.37 368.882C884.564 367.85 883.131 366.46 882.07 364.711C881.01 362.962 880.479 360.999 880.479 358.82C880.479 356.641 880.981 354.678 881.984 352.929C883.016 351.18 884.407 349.79 886.155 348.758C887.904 347.726 889.853 347.21 892.003 347.21C894.153 347.21 896.06 347.74 897.722 348.801C899.385 349.862 900.689 351.295 901.635 353.101C902.61 354.907 903.097 356.957 903.097 359.25V360.798H886.499C886.757 361.687 887.173 362.489 887.746 363.206C888.348 363.923 889.079 364.482 889.939 364.883C890.828 365.284 891.774 365.485 892.777 365.485C893.781 365.485 894.698 365.327 895.529 365.012C896.389 364.697 897.12 364.252 897.722 363.679L901.592 367.205C900.216 368.323 898.797 369.14 897.335 369.656C895.902 370.172 894.282 370.43 892.476 370.43ZM886.413 356.584H897.292C897.092 355.695 896.719 354.921 896.174 354.262C895.658 353.574 895.028 353.044 894.282 352.671C893.566 352.27 892.763 352.069 891.874 352.069C890.957 352.069 890.126 352.255 889.38 352.628C888.635 353.001 888.004 353.531 887.488 354.219C887.001 354.878 886.643 355.667 886.413 356.584ZM915.092 370.43C913.028 370.43 911.121 370.172 909.373 369.656C907.624 369.111 906.105 368.337 904.815 367.334L907.739 363.421C909.029 364.281 910.261 364.926 911.437 365.356C912.641 365.786 913.83 366.001 915.006 366.001C916.324 366.001 917.371 365.786 918.145 365.356C918.947 364.897 919.349 364.31 919.349 363.593C919.349 363.02 919.119 362.561 918.661 362.217C918.231 361.873 917.528 361.629 916.554 361.486L912.254 360.841C910.018 360.497 908.326 359.78 907.18 358.691C906.033 357.573 905.46 356.111 905.46 354.305C905.46 352.843 905.832 351.596 906.578 350.564C907.352 349.503 908.427 348.686 909.803 348.113C911.207 347.511 912.87 347.21 914.791 347.21C916.425 347.21 918.016 347.439 919.564 347.898C921.14 348.357 922.617 349.059 923.993 350.005L921.155 353.832C919.922 353.058 918.747 352.499 917.629 352.155C916.511 351.811 915.378 351.639 914.232 351.639C913.171 351.639 912.311 351.84 911.652 352.241C911.021 352.642 910.706 353.173 910.706 353.832C910.706 354.434 910.935 354.907 911.394 355.251C911.852 355.595 912.641 355.839 913.759 355.982L918.016 356.627C920.252 356.942 921.957 357.659 923.133 358.777C924.308 359.866 924.896 361.285 924.896 363.034C924.896 364.467 924.466 365.743 923.606 366.861C922.746 367.95 921.585 368.825 920.123 369.484C918.661 370.115 916.984 370.43 915.092 370.43ZM936.214 370.43C934.15 370.43 932.244 370.172 930.495 369.656C928.746 369.111 927.227 368.337 925.937 367.334L928.861 363.421C930.151 364.281 931.384 364.926 932.559 365.356C933.763 365.786 934.953 366.001 936.128 366.001C937.447 366.001 938.493 365.786 939.267 365.356C940.07 364.897 940.471 364.31 940.471 363.593C940.471 363.02 940.242 362.561 939.783 362.217C939.353 361.873 938.651 361.629 937.676 361.486L933.376 360.841C931.14 360.497 929.449 359.78 928.302 358.691C927.155 357.573 926.582 356.111 926.582 354.305C926.582 352.843 926.955 351.596 927.7 350.564C928.474 349.503 929.549 348.686 930.925 348.113C932.33 347.511 933.992 347.21 935.913 347.21C937.547 347.21 939.138 347.439 940.686 347.898C942.263 348.357 943.739 349.059 945.115 350.005L942.277 353.832C941.044 353.058 939.869 352.499 938.751 352.155C937.633 351.811 936.501 351.639 935.354 351.639C934.293 351.639 933.433 351.84 932.774 352.241C932.143 352.642 931.828 353.173 931.828 353.832C931.828 354.434 932.057 354.907 932.516 355.251C932.975 355.595 933.763 355.839 934.881 355.982L939.138 356.627C941.374 356.942 943.08 357.659 944.255 358.777C945.43 359.866 946.018 361.285 946.018 363.034C946.018 364.467 945.588 365.743 944.728 366.861C943.868 367.95 942.707 368.825 941.245 369.484C939.783 370.115 938.106 370.43 936.214 370.43ZM948.951 370V347.597H954.842V370H948.951ZM951.875 344.931C950.958 344.931 950.169 344.601 949.51 343.942C948.851 343.283 948.521 342.494 948.521 341.577C948.521 340.631 948.851 339.843 949.51 339.212C950.169 338.553 950.958 338.223 951.875 338.223C952.821 338.223 953.609 338.553 954.24 339.212C954.899 339.843 955.229 340.631 955.229 341.577C955.229 342.494 954.899 343.283 954.24 343.942C953.609 344.601 952.821 344.931 951.875 344.931ZM970.371 370.43C968.135 370.43 966.114 369.914 964.308 368.882C962.502 367.85 961.069 366.46 960.008 364.711C958.947 362.962 958.417 360.999 958.417 358.82C958.417 356.641 958.933 354.678 959.965 352.929C961.026 351.152 962.459 349.747 964.265 348.715C966.1 347.683 968.135 347.167 970.371 347.167C972.607 347.167 974.628 347.683 976.434 348.715C978.269 349.747 979.702 351.152 980.734 352.929C981.795 354.678 982.325 356.641 982.325 358.82C982.325 360.999 981.795 362.962 980.734 364.711C979.702 366.46 978.283 367.85 976.477 368.882C974.671 369.914 972.636 370.43 970.371 370.43ZM970.371 365.313C971.546 365.313 972.593 365.026 973.51 364.453C974.456 363.88 975.201 363.106 975.746 362.131C976.319 361.128 976.606 360.024 976.606 358.82C976.606 357.587 976.319 356.484 975.746 355.509C975.201 354.534 974.456 353.76 973.51 353.187C972.593 352.585 971.546 352.284 970.371 352.284C969.224 352.284 968.178 352.585 967.232 353.187C966.286 353.76 965.541 354.534 964.996 355.509C964.451 356.484 964.179 357.587 964.179 358.82C964.179 360.024 964.451 361.128 964.996 362.131C965.541 363.106 966.286 363.88 967.232 364.453C968.178 365.026 969.224 365.313 970.371 365.313ZM985.946 370V347.597H991.837V349.446C993.528 347.927 995.621 347.167 998.115 347.167C999.864 347.167 1001.4 347.554 1002.72 348.328C1004.06 349.073 1005.11 350.12 1005.86 351.467C1006.6 352.786 1006.97 354.334 1006.97 356.111V370H1001.08V356.971C1001.08 355.509 1000.67 354.362 999.835 353.531C999.004 352.671 997.871 352.241 996.438 352.241C995.435 352.241 994.546 352.442 993.772 352.843C992.998 353.216 992.353 353.76 991.837 354.477V370H985.946ZM115.322 430V407.597H121.213V430H115.322ZM118.246 404.931C117.329 404.931 116.54 404.601 115.881 403.942C115.222 403.283 114.892 402.494 114.892 401.577C114.892 400.631 115.222 399.843 115.881 399.212C116.54 398.553 117.329 398.223 118.246 398.223C119.192 398.223 119.98 398.553 120.611 399.212C121.27 399.843 121.6 400.631 121.6 401.577C121.6 402.494 121.27 403.283 120.611 403.942C119.98 404.601 119.192 404.931 118.246 404.931ZM125.82 430V407.597H131.711V409.446C133.402 407.927 135.495 407.167 137.989 407.167C139.738 407.167 141.271 407.554 142.59 408.328C143.937 409.073 144.984 410.12 145.729 411.467C146.474 412.786 146.847 414.334 146.847 416.111V430H140.956V416.971C140.956 415.509 140.54 414.362 139.709 413.531C138.878 412.671 137.745 412.241 136.312 412.241C135.309 412.241 134.42 412.442 133.646 412.843C132.872 413.216 132.227 413.76 131.711 414.477V430H125.82ZM159.745 430V425.958L172.301 413.23C172.903 412.599 173.376 412.012 173.72 411.467C174.092 410.922 174.35 410.392 174.494 409.876C174.666 409.331 174.752 408.787 174.752 408.242C174.752 407.124 174.279 406.192 173.333 405.447C172.415 404.702 171.24 404.329 169.807 404.329C168.431 404.329 167.155 404.616 165.98 405.189C164.804 405.734 163.514 406.68 162.11 408.027L158.928 404.157C160.619 402.58 162.382 401.405 164.217 400.631C166.051 399.828 167.972 399.427 169.979 399.427C172.014 399.427 173.806 399.785 175.354 400.502C176.902 401.219 178.106 402.208 178.966 403.469C179.826 404.73 180.256 406.207 180.256 407.898C180.256 408.873 180.112 409.79 179.826 410.65C179.568 411.51 179.138 412.384 178.536 413.273C177.934 414.133 177.131 415.065 176.128 416.068L167.012 425.227L180.729 425.184V430H159.745ZM203.881 430.344C201.387 430.344 199.495 429.785 198.205 428.667C196.943 427.52 196.312 425.858 196.312 423.679V412.499H191.712V407.597H196.312V401.878L202.204 400.545V407.597H208.611V412.499H202.204V422.475C202.204 423.507 202.433 424.252 202.892 424.711C203.35 425.141 204.153 425.356 205.3 425.356C205.873 425.356 206.389 425.327 206.848 425.27C207.335 425.184 207.865 425.041 208.439 424.84V429.699C207.837 429.9 207.077 430.057 206.16 430.172C205.271 430.287 204.511 430.344 203.881 430.344ZM222.406 430.43C220.17 430.43 218.149 429.914 216.343 428.882C214.537 427.85 213.104 426.46 212.043 424.711C210.982 422.962 210.452 420.999 210.452 418.82C210.452 416.641 210.968 414.678 212 412.929C213.061 411.152 214.494 409.747 216.3 408.715C218.135 407.683 220.17 407.167 222.406 407.167C224.642 407.167 226.663 407.683 228.469 408.715C230.304 409.747 231.737 411.152 232.769 412.929C233.83 414.678 234.36 416.641 234.36 418.82C234.36 420.999 233.83 422.962 232.769 424.711C231.737 426.46 230.318 427.85 228.512 428.882C226.706 429.914 224.671 430.43 222.406 430.43ZM222.406 425.313C223.581 425.313 224.628 425.026 225.545 424.453C226.491 423.88 227.236 423.106 227.781 422.131C228.354 421.128 228.641 420.024 228.641 418.82C228.641 417.587 228.354 416.484 227.781 415.509C227.236 414.534 226.491 413.76 225.545 413.187C224.628 412.585 223.581 412.284 222.406 412.284C221.259 412.284 220.213 412.585 219.267 413.187C218.321 413.76 217.576 414.534 217.031 415.509C216.486 416.484 216.214 417.587 216.214 418.82C216.214 420.024 216.486 421.128 217.031 422.131C217.576 423.106 218.321 423.88 219.267 424.453C220.213 425.026 221.259 425.313 222.406 425.313ZM256.565 430.473C252.408 430.473 248.81 429.126 245.772 426.431L249.126 422.518C250.416 423.607 251.663 424.396 252.867 424.883C254.071 425.37 255.389 425.614 256.823 425.614C257.998 425.614 259.016 425.399 259.876 424.969C260.736 424.539 261.409 423.937 261.897 423.163C262.413 422.389 262.671 421.486 262.671 420.454C262.671 418.992 262.097 417.788 260.951 416.842C259.833 415.896 258.371 415.423 256.565 415.423C255.676 415.423 254.773 415.552 253.856 415.81C252.938 416.039 252.007 416.412 251.061 416.928L247.148 415.767L247.836 399.9H266.799V404.716H252.566L252.222 412.499C253.196 412.012 254.185 411.653 255.189 411.424C256.192 411.166 257.238 411.037 258.328 411.037C260.363 411.037 262.126 411.424 263.617 412.198C265.136 412.943 266.311 414.004 267.143 415.38C267.974 416.756 268.39 418.361 268.39 420.196C268.39 422.231 267.888 424.023 266.885 425.571C265.91 427.119 264.534 428.323 262.757 429.183C260.979 430.043 258.915 430.473 256.565 430.473ZM283.384 439.245C282.868 439.245 282.366 439.216 281.879 439.159C281.42 439.13 281.033 439.087 280.718 439.03V433.956C281.291 434.071 281.979 434.128 282.782 434.128C284.932 434.128 286.423 433.11 287.254 431.075L287.598 430.215L278.869 407.597H285.362L290.952 422.862L297.273 407.597H303.637L293.317 431.806C292.543 433.612 291.697 435.06 290.78 436.149C289.863 437.238 288.802 438.027 287.598 438.514C286.423 439.001 285.018 439.245 283.384 439.245ZM316.974 430.43C314.738 430.43 312.702 429.914 310.868 428.882C309.062 427.85 307.628 426.46 306.568 424.711C305.507 422.962 304.977 420.999 304.977 418.82C304.977 416.641 305.478 414.678 306.482 412.929C307.514 411.18 308.904 409.79 310.653 408.758C312.401 407.726 314.351 407.21 316.501 407.21C318.651 407.21 320.557 407.74 322.22 408.801C323.882 409.862 325.187 411.295 326.133 413.101C327.107 414.907 327.595 416.957 327.595 419.25V420.798H310.997C311.255 421.687 311.67 422.489 312.244 423.206C312.846 423.923 313.577 424.482 314.437 424.883C315.325 425.284 316.271 425.485 317.275 425.485C318.278 425.485 319.195 425.327 320.027 425.012C320.887 424.697 321.618 424.252 322.22 423.679L326.09 427.205C324.714 428.323 323.295 429.14 321.833 429.656C320.399 430.172 318.78 430.43 316.974 430.43ZM310.911 416.584H321.79C321.589 415.695 321.216 414.921 320.672 414.262C320.156 413.574 319.525 413.044 318.78 412.671C318.063 412.27 317.26 412.069 316.372 412.069C315.454 412.069 314.623 412.255 313.878 412.628C313.132 413.001 312.502 413.531 311.986 414.219C311.498 414.878 311.14 415.667 310.911 416.584ZM338.342 430.387C336.737 430.387 335.318 430.1 334.085 429.527C332.852 428.925 331.892 428.108 331.204 427.076C330.516 426.044 330.172 424.854 330.172 423.507C330.172 421.357 330.975 419.694 332.58 418.519C334.214 417.315 336.45 416.713 339.288 416.713C341.237 416.713 343.072 417.014 344.792 417.616V415.982C344.792 414.692 344.391 413.717 343.588 413.058C342.785 412.399 341.61 412.069 340.062 412.069C339.116 412.069 338.098 412.227 337.009 412.542C335.92 412.829 334.658 413.287 333.225 413.918L331.075 409.575C332.852 408.772 334.544 408.17 336.149 407.769C337.783 407.368 339.417 407.167 341.051 407.167C344.061 407.167 346.397 407.898 348.06 409.36C349.751 410.793 350.597 412.829 350.597 415.466V430H344.792V428.409C343.875 429.097 342.886 429.599 341.825 429.914C340.764 430.229 339.603 430.387 338.342 430.387ZM335.762 423.378C335.762 424.238 336.135 424.926 336.88 425.442C337.625 425.929 338.614 426.173 339.847 426.173C340.822 426.173 341.725 426.058 342.556 425.829C343.387 425.571 344.133 425.198 344.792 424.711V421.443C344.075 421.156 343.33 420.941 342.556 420.798C341.782 420.655 340.951 420.583 340.062 420.583C338.715 420.583 337.654 420.841 336.88 421.357C336.135 421.844 335.762 422.518 335.762 423.378ZM355.055 430V407.597H360.946V410.091C361.663 409.116 362.523 408.371 363.526 407.855C364.53 407.339 365.662 407.081 366.923 407.081C368.013 407.11 368.83 407.282 369.374 407.597V412.757C368.944 412.556 368.471 412.413 367.955 412.327C367.439 412.212 366.909 412.155 366.364 412.155C365.218 412.155 364.171 412.442 363.225 413.015C362.279 413.588 361.52 414.405 360.946 415.466V430H355.055ZM392.181 430.43C389.945 430.43 387.924 429.914 386.118 428.882C384.312 427.85 382.878 426.46 381.818 424.711C380.757 422.962 380.227 420.999 380.227 418.82C380.227 416.641 380.743 414.678 381.775 412.929C382.835 411.152 384.269 409.747 386.075 408.715C387.909 407.683 389.945 407.167 392.181 407.167C394.417 407.167 396.438 407.683 398.244 408.715C400.078 409.747 401.512 411.152 402.544 412.929C403.604 414.678 404.135 416.641 404.135 418.82C404.135 420.999 403.604 422.962 402.544 424.711C401.512 426.46 400.093 427.85 398.287 428.882C396.481 429.914 394.445 430.43 392.181 430.43ZM392.181 425.313C393.356 425.313 394.402 425.026 395.32 424.453C396.266 423.88 397.011 423.106 397.556 422.131C398.129 421.128 398.416 420.024 398.416 418.82C398.416 417.587 398.129 416.484 397.556 415.509C397.011 414.534 396.266 413.76 395.32 413.187C394.402 412.585 393.356 412.284 392.181 412.284C391.034 412.284 389.988 412.585 389.042 413.187C388.096 413.76 387.35 414.534 386.806 415.509C386.261 416.484 385.989 417.587 385.989 418.82C385.989 420.024 386.261 421.128 386.806 422.131C387.35 423.106 388.096 423.88 389.042 424.453C389.988 425.026 391.034 425.313 392.181 425.313ZM407.756 430V399.9L413.647 398.911V430H407.756ZM428.617 430.301C426.495 430.301 424.575 429.785 422.855 428.753C421.135 427.721 419.759 426.345 418.727 424.625C417.723 422.876 417.222 420.927 417.222 418.777C417.222 416.627 417.723 414.692 418.727 412.972C419.759 411.223 421.149 409.847 422.898 408.844C424.646 407.812 426.61 407.296 428.789 407.296C429.907 407.296 430.982 407.454 432.014 407.769C433.046 408.056 434.006 408.486 434.895 409.059V399.9L440.786 398.911V430H434.981V428.151C433.146 429.584 431.025 430.301 428.617 430.301ZM429.563 425.27C430.652 425.27 431.641 425.098 432.53 424.754C433.447 424.381 434.235 423.837 434.895 423.12V414.391C434.235 413.732 433.447 413.216 432.53 412.843C431.612 412.47 430.623 412.284 429.563 412.284C428.33 412.284 427.212 412.571 426.209 413.144C425.234 413.689 424.46 414.463 423.887 415.466C423.313 416.441 423.027 417.544 423.027 418.777C423.027 420.01 423.313 421.113 423.887 422.088C424.46 423.063 425.234 423.837 426.209 424.41C427.212 424.983 428.33 425.27 429.563 425.27ZM453.766 430.43C451.702 430.43 449.795 430.172 448.047 429.656C446.298 429.111 444.779 428.337 443.489 427.334L446.413 423.421C447.703 424.281 448.935 424.926 450.111 425.356C451.315 425.786 452.504 426.001 453.68 426.001C454.998 426.001 456.045 425.786 456.819 425.356C457.621 424.897 458.023 424.31 458.023 423.593C458.023 423.02 457.793 422.561 457.335 422.217C456.905 421.873 456.202 421.629 455.228 421.486L450.928 420.841C448.692 420.497 447 419.78 445.854 418.691C444.707 417.573 444.134 416.111 444.134 414.305C444.134 412.843 444.506 411.596 445.252 410.564C446.026 409.503 447.101 408.686 448.477 408.113C449.881 407.511 451.544 407.21 453.465 407.21C455.099 407.21 456.69 407.439 458.238 407.898C459.814 408.357 461.291 409.059 462.667 410.005L459.829 413.832C458.596 413.058 457.421 412.499 456.303 412.155C455.185 411.811 454.052 411.639 452.906 411.639C451.845 411.639 450.985 411.84 450.326 412.241C449.695 412.642 449.38 413.173 449.38 413.832C449.38 414.434 449.609 414.907 450.068 415.251C450.526 415.595 451.315 415.839 452.433 415.982L456.69 416.627C458.926 416.942 460.631 417.659 461.807 418.777C462.982 419.866 463.57 421.285 463.57 423.034C463.57 424.467 463.14 425.743 462.28 426.861C461.42 427.95 460.259 428.825 458.797 429.484C457.335 430.115 455.658 430.43 453.766 430.43ZM125.943 490.344C123.449 490.344 121.557 489.785 120.267 488.667C119.006 487.52 118.375 485.858 118.375 483.679V472.499H113.774V467.597H118.375V461.878L124.266 460.545V467.597H130.673V472.499H124.266V482.475C124.266 483.507 124.495 484.252 124.954 484.711C125.413 485.141 126.215 485.356 127.362 485.356C127.935 485.356 128.451 485.327 128.91 485.27C129.397 485.184 129.928 485.041 130.501 484.84V489.699C129.899 489.9 129.139 490.057 128.222 490.172C127.333 490.287 126.574 490.344 125.943 490.344ZM133.547 490V459.9L139.438 458.61V469.446C141.129 467.927 143.222 467.167 145.716 467.167C147.464 467.167 148.998 467.554 150.317 468.328C151.664 469.073 152.71 470.12 153.456 471.467C154.201 472.786 154.574 474.334 154.574 476.111V490H148.683V476.971C148.683 475.509 148.267 474.362 147.436 473.531C146.604 472.671 145.472 472.241 144.039 472.241C143.035 472.241 142.147 472.442 141.373 472.843C140.599 473.216 139.954 473.76 139.438 474.477V490H133.547ZM159.036 490V467.597H164.927V470.091C165.644 469.116 166.504 468.371 167.507 467.855C168.51 467.339 169.643 467.081 170.904 467.081C171.993 467.11 172.81 467.282 173.355 467.597V472.757C172.925 472.556 172.452 472.413 171.936 472.327C171.42 472.212 170.89 472.155 170.345 472.155C169.198 472.155 168.152 472.442 167.206 473.015C166.26 473.588 165.5 474.405 164.927 475.466V490H159.036ZM187.511 490.43C185.275 490.43 183.254 489.914 181.448 488.882C179.642 487.85 178.208 486.46 177.148 484.711C176.087 482.962 175.557 480.999 175.557 478.82C175.557 476.641 176.073 474.678 177.105 472.929C178.165 471.152 179.599 469.747 181.405 468.715C183.239 467.683 185.275 467.167 187.511 467.167C189.747 467.167 191.768 467.683 193.574 468.715C195.408 469.747 196.842 471.152 197.874 472.929C198.934 474.678 199.465 476.641 199.465 478.82C199.465 480.999 198.934 482.962 197.874 484.711C196.842 486.46 195.423 487.85 193.617 488.882C191.811 489.914 189.775 490.43 187.511 490.43ZM187.511 485.313C188.686 485.313 189.732 485.026 190.65 484.453C191.596 483.88 192.341 483.106 192.886 482.131C193.459 481.128 193.746 480.024 193.746 478.82C193.746 477.587 193.459 476.484 192.886 475.509C192.341 474.534 191.596 473.76 190.65 473.187C189.732 472.585 188.686 472.284 187.511 472.284C186.364 472.284 185.318 472.585 184.372 473.187C183.426 473.76 182.68 474.534 182.136 475.509C181.591 476.484 181.319 477.587 181.319 478.82C181.319 480.024 181.591 481.128 182.136 482.131C182.68 483.106 183.426 483.88 184.372 484.453C185.318 485.026 186.364 485.313 187.511 485.313ZM211.772 490.43C210.052 490.43 208.518 490.057 207.171 489.312C205.852 488.538 204.806 487.477 204.032 486.13C203.286 484.783 202.914 483.235 202.914 481.486V467.597H208.805V480.626C208.805 482.059 209.22 483.206 210.052 484.066C210.912 484.926 212.058 485.356 213.492 485.356C214.466 485.356 215.341 485.17 216.115 484.797C216.917 484.396 217.577 483.837 218.093 483.12V467.597H223.984V490H218.093V488.194C216.373 489.685 214.266 490.43 211.772 490.43ZM239.841 499.202C238.121 499.202 236.458 499.016 234.853 498.643C233.248 498.299 231.8 497.797 230.51 497.138L232.574 492.58C233.807 493.182 235.011 493.626 236.186 493.913C237.361 494.2 238.537 494.343 239.712 494.343C241.461 494.343 242.779 493.97 243.668 493.225C244.585 492.48 245.044 491.362 245.044 489.871V488.108C243.209 489.455 241.16 490.129 238.895 490.129C236.774 490.129 234.853 489.627 233.133 488.624C231.442 487.592 230.08 486.202 229.048 484.453C228.045 482.704 227.543 480.769 227.543 478.648C227.543 476.527 228.045 474.606 229.048 472.886C230.08 471.166 231.47 469.804 233.219 468.801C234.968 467.769 236.917 467.253 239.067 467.253C240.156 467.253 241.217 467.411 242.249 467.726C243.281 468.041 244.241 468.486 245.13 469.059V467.597H250.935V489.957C250.935 492.91 249.975 495.189 248.054 496.794C246.162 498.399 243.424 499.202 239.841 499.202ZM239.798 485.141C240.887 485.141 241.876 484.969 242.765 484.625C243.654 484.252 244.413 483.736 245.044 483.077V474.305C244.413 473.674 243.639 473.187 242.722 472.843C241.833 472.47 240.873 472.284 239.841 472.284C238.608 472.284 237.505 472.571 236.53 473.144C235.555 473.689 234.781 474.448 234.208 475.423C233.635 476.369 233.348 477.444 233.348 478.648C233.348 479.881 233.62 480.984 234.165 481.959C234.738 482.934 235.512 483.708 236.487 484.281C237.49 484.854 238.594 485.141 239.798 485.141ZM255.534 490V459.9L261.425 458.61V469.446C263.116 467.927 265.209 467.167 267.703 467.167C269.452 467.167 270.985 467.554 272.304 468.328C273.651 469.073 274.698 470.12 275.443 471.467C276.188 472.786 276.561 474.334 276.561 476.111V490H270.67V476.971C270.67 475.509 270.254 474.362 269.423 473.531C268.592 472.671 267.459 472.241 266.026 472.241C265.023 472.241 264.134 472.442 263.36 472.843C262.586 473.216 261.941 473.76 261.425 474.477V490H255.534ZM300.596 490.43C298.36 490.43 296.339 489.914 294.533 488.882C292.727 487.85 291.293 486.46 290.233 484.711C289.172 482.962 288.642 480.999 288.642 478.82C288.642 476.641 289.158 474.678 290.19 472.929C291.25 471.152 292.684 469.747 294.49 468.715C296.324 467.683 298.36 467.167 300.596 467.167C302.832 467.167 304.853 467.683 306.659 468.715C308.493 469.747 309.927 471.152 310.959 472.929C312.019 474.678 312.55 476.641 312.55 478.82C312.55 480.999 312.019 482.962 310.959 484.711C309.927 486.46 308.508 487.85 306.702 488.882C304.896 489.914 302.86 490.43 300.596 490.43ZM300.596 485.313C301.771 485.313 302.817 485.026 303.735 484.453C304.681 483.88 305.426 483.106 305.971 482.131C306.544 481.128 306.831 480.024 306.831 478.82C306.831 477.587 306.544 476.484 305.971 475.509C305.426 474.534 304.681 473.76 303.735 473.187C302.817 472.585 301.771 472.284 300.596 472.284C299.449 472.284 298.403 472.585 297.457 473.187C296.511 473.76 295.765 474.534 295.221 475.509C294.676 476.484 294.404 477.587 294.404 478.82C294.404 480.024 294.676 481.128 295.221 482.131C295.765 483.106 296.511 483.88 297.457 484.453C298.403 485.026 299.449 485.313 300.596 485.313ZM316.171 498.772V467.597H321.976V469.446C323.81 468.013 325.932 467.296 328.34 467.296C330.461 467.296 332.382 467.812 334.102 468.844C335.822 469.876 337.183 471.266 338.187 473.015C339.219 474.735 339.735 476.67 339.735 478.82C339.735 480.97 339.219 482.919 338.187 484.668C337.155 486.388 335.764 487.764 334.016 488.796C332.267 489.799 330.318 490.301 328.168 490.301C327.05 490.301 325.975 490.158 324.943 489.871C323.911 489.556 322.95 489.111 322.062 488.538V498.772H316.171ZM327.394 485.313C328.626 485.313 329.73 485.026 330.705 484.453C331.708 483.88 332.496 483.106 333.07 482.131C333.643 481.156 333.93 480.053 333.93 478.82C333.93 477.587 333.643 476.484 333.07 475.509C332.496 474.506 331.708 473.732 330.705 473.187C329.73 472.614 328.626 472.327 327.394 472.327C326.304 472.327 325.301 472.513 324.384 472.886C323.495 473.23 322.721 473.76 322.062 474.477V483.206C322.692 483.865 323.466 484.381 324.384 484.754C325.33 485.127 326.333 485.313 327.394 485.313ZM354.263 490.43C352.027 490.43 349.991 489.914 348.157 488.882C346.351 487.85 344.917 486.46 343.857 484.711C342.796 482.962 342.266 480.999 342.266 478.82C342.266 476.641 342.767 474.678 343.771 472.929C344.803 471.18 346.193 469.79 347.942 468.758C349.69 467.726 351.64 467.21 353.79 467.21C355.94 467.21 357.846 467.74 359.509 468.801C361.171 469.862 362.476 471.295 363.422 473.101C364.396 474.907 364.884 476.957 364.884 479.25V480.798H348.286C348.544 481.687 348.959 482.489 349.533 483.206C350.135 483.923 350.866 484.482 351.726 484.883C352.614 485.284 353.56 485.485 354.564 485.485C355.567 485.485 356.484 485.327 357.316 485.012C358.176 484.697 358.907 484.252 359.509 483.679L363.379 487.205C362.003 488.323 360.584 489.14 359.122 489.656C357.688 490.172 356.069 490.43 354.263 490.43ZM348.2 476.584H359.079C358.878 475.695 358.505 474.921 357.961 474.262C357.445 473.574 356.814 473.044 356.069 472.671C355.352 472.27 354.549 472.069 353.661 472.069C352.743 472.069 351.912 472.255 351.167 472.628C350.421 473.001 349.791 473.531 349.275 474.219C348.787 474.878 348.429 475.667 348.2 476.584ZM368.493 490V467.597H374.384V469.446C376.075 467.927 378.168 467.167 380.662 467.167C382.411 467.167 383.944 467.554 385.263 468.328C386.61 469.073 387.657 470.12 388.402 471.467C389.147 472.786 389.52 474.334 389.52 476.111V490H383.629V476.971C383.629 475.509 383.213 474.362 382.382 473.531C381.551 472.671 380.418 472.241 378.985 472.241C377.982 472.241 377.093 472.442 376.319 472.843C375.545 473.216 374.9 473.76 374.384 474.477V490H368.493ZM393.423 480.239V475.251H409.591V480.239H393.423ZM424.641 490.43C422.405 490.43 420.37 489.914 418.535 488.882C416.729 487.85 415.296 486.46 414.235 484.711C413.175 482.962 412.644 480.999 412.644 478.82C412.644 476.641 413.146 474.678 414.149 472.929C415.181 471.18 416.572 469.79 418.32 468.758C420.069 467.726 422.018 467.21 424.168 467.21C426.318 467.21 428.225 467.74 429.887 468.801C431.55 469.862 432.854 471.295 433.8 473.101C434.775 474.907 435.262 476.957 435.262 479.25V480.798H418.664C418.922 481.687 419.338 482.489 419.911 483.206C420.513 483.923 421.244 484.482 422.104 484.883C422.993 485.284 423.939 485.485 424.942 485.485C425.946 485.485 426.863 485.327 427.694 485.012C428.554 484.697 429.285 484.252 429.887 483.679L433.757 487.205C432.381 488.323 430.962 489.14 429.5 489.656C428.067 490.172 426.447 490.43 424.641 490.43ZM418.578 476.584H429.457C429.257 475.695 428.884 474.921 428.339 474.262C427.823 473.574 427.193 473.044 426.447 472.671C425.731 472.27 424.928 472.069 424.039 472.069C423.122 472.069 422.291 472.255 421.545 472.628C420.8 473.001 420.169 473.531 419.653 474.219C419.166 474.878 418.808 475.667 418.578 476.584ZM438.872 490V467.597H444.763V469.446C446.454 467.927 448.547 467.167 451.041 467.167C452.789 467.167 454.323 467.554 455.642 468.328C456.989 469.073 458.035 470.12 458.781 471.467C459.526 472.786 459.899 474.334 459.899 476.111V490H454.008V476.971C454.008 475.509 453.592 474.362 452.761 473.531C451.929 472.671 450.797 472.241 449.364 472.241C448.36 472.241 447.472 472.442 446.698 472.843C445.924 473.216 445.279 473.76 444.763 474.477V490H438.872ZM474.724 490.301C472.603 490.301 470.682 489.785 468.962 488.753C467.242 487.721 465.866 486.345 464.834 484.625C463.831 482.876 463.329 480.927 463.329 478.777C463.329 476.627 463.831 474.692 464.834 472.972C465.866 471.223 467.256 469.847 469.005 468.844C470.754 467.812 472.717 467.296 474.896 467.296C476.014 467.296 477.089 467.454 478.121 467.769C479.153 468.056 480.113 468.486 481.002 469.059V459.9L486.893 458.911V490H481.088V488.151C479.253 489.584 477.132 490.301 474.724 490.301ZM475.67 485.27C476.759 485.27 477.748 485.098 478.637 484.754C479.554 484.381 480.343 483.837 481.002 483.12V474.391C480.343 473.732 479.554 473.216 478.637 472.843C477.72 472.47 476.731 472.284 475.67 472.284C474.437 472.284 473.319 472.571 472.316 473.144C471.341 473.689 470.567 474.463 469.994 475.466C469.421 476.441 469.134 477.544 469.134 478.777C469.134 480.01 469.421 481.113 469.994 482.088C470.567 483.063 471.341 483.837 472.316 484.41C473.319 484.983 474.437 485.27 475.67 485.27ZM502.453 490.43C500.217 490.43 498.182 489.914 496.347 488.882C494.541 487.85 493.108 486.46 492.047 484.711C490.986 482.962 490.456 480.999 490.456 478.82C490.456 476.641 490.958 474.678 491.961 472.929C492.993 471.18 494.383 469.79 496.132 468.758C497.881 467.726 499.83 467.21 501.98 467.21C504.13 467.21 506.036 467.74 507.699 468.801C509.362 469.862 510.666 471.295 511.612 473.101C512.587 474.907 513.074 476.957 513.074 479.25V480.798H496.476C496.734 481.687 497.15 482.489 497.723 483.206C498.325 483.923 499.056 484.482 499.916 484.883C500.805 485.284 501.751 485.485 502.754 485.485C503.757 485.485 504.675 485.327 505.506 485.012C506.366 484.697 507.097 484.252 507.699 483.679L511.569 487.205C510.193 488.323 508.774 489.14 507.312 489.656C505.879 490.172 504.259 490.43 502.453 490.43ZM496.39 476.584H507.269C507.068 475.695 506.696 474.921 506.151 474.262C505.635 473.574 505.004 473.044 504.259 472.671C503.542 472.27 502.74 472.069 501.851 472.069C500.934 472.069 500.102 472.255 499.357 472.628C498.612 473.001 497.981 473.531 497.465 474.219C496.978 474.878 496.619 475.667 496.39 476.584ZM527.046 490.301C524.925 490.301 523.004 489.785 521.284 488.753C519.564 487.721 518.188 486.345 517.156 484.625C516.153 482.876 515.651 480.927 515.651 478.777C515.651 476.627 516.153 474.692 517.156 472.972C518.188 471.223 519.579 469.847 521.327 468.844C523.076 467.812 525.04 467.296 527.218 467.296C528.336 467.296 529.411 467.454 530.443 467.769C531.475 468.056 532.436 468.486 533.324 469.059V459.9L539.215 458.911V490H533.41V488.151C531.576 489.584 529.454 490.301 527.046 490.301ZM527.992 485.27C529.082 485.27 530.071 485.098 530.959 484.754C531.877 484.381 532.665 483.837 533.324 483.12V474.391C532.665 473.732 531.877 473.216 530.959 472.843C530.042 472.47 529.053 472.284 527.992 472.284C526.76 472.284 525.642 472.571 524.638 473.144C523.664 473.689 522.89 474.463 522.316 475.466C521.743 476.441 521.456 477.544 521.456 478.777C521.456 480.01 521.743 481.113 522.316 482.088C522.89 483.063 523.664 483.837 524.638 484.41C525.642 484.983 526.76 485.27 527.992 485.27ZM552.461 498.772V467.597H558.266V469.446C560.1 468.013 562.222 467.296 564.63 467.296C566.751 467.296 568.672 467.812 570.392 468.844C572.112 469.876 573.473 471.266 574.477 473.015C575.509 474.735 576.025 476.67 576.025 478.82C576.025 480.97 575.509 482.919 574.477 484.668C573.445 486.388 572.054 487.764 570.306 488.796C568.557 489.799 566.608 490.301 564.458 490.301C563.34 490.301 562.265 490.158 561.233 489.871C560.201 489.556 559.24 489.111 558.352 488.538V498.772H552.461ZM563.684 485.313C564.916 485.313 566.02 485.026 566.995 484.453C567.998 483.88 568.786 483.106 569.36 482.131C569.933 481.156 570.22 480.053 570.22 478.82C570.22 477.587 569.933 476.484 569.36 475.509C568.786 474.506 567.998 473.732 566.995 473.187C566.02 472.614 564.916 472.327 563.684 472.327C562.594 472.327 561.591 472.513 560.674 472.886C559.785 473.23 559.011 473.76 558.352 474.477V483.206C558.982 483.865 559.756 484.381 560.674 484.754C561.62 485.127 562.623 485.313 563.684 485.313ZM579.588 490V459.9L585.479 458.911V490H579.588ZM597.224 490.387C595.618 490.387 594.199 490.1 592.967 489.527C591.734 488.925 590.774 488.108 590.086 487.076C589.398 486.044 589.054 484.854 589.054 483.507C589.054 481.357 589.856 479.694 591.462 478.519C593.096 477.315 595.332 476.713 598.17 476.713C600.119 476.713 601.954 477.014 603.674 477.616V475.982C603.674 474.692 603.272 473.717 602.47 473.058C601.667 472.399 600.492 472.069 598.944 472.069C597.998 472.069 596.98 472.227 595.891 472.542C594.801 472.829 593.54 473.287 592.107 473.918L589.957 469.575C591.734 468.772 593.425 468.17 595.031 467.769C596.665 467.368 598.299 467.167 599.933 467.167C602.943 467.167 605.279 467.898 606.942 469.36C608.633 470.793 609.479 472.829 609.479 475.466V490H603.674V488.409C602.756 489.097 601.767 489.599 600.707 489.914C599.646 490.229 598.485 490.387 597.224 490.387ZM594.644 483.378C594.644 484.238 595.016 484.926 595.762 485.442C596.507 485.929 597.496 486.173 598.729 486.173C599.703 486.173 600.606 486.058 601.438 485.829C602.269 485.571 603.014 485.198 603.674 484.711V481.443C602.957 481.156 602.212 480.941 601.438 480.798C600.664 480.655 599.832 480.583 598.944 480.583C597.596 480.583 596.536 480.841 595.762 481.357C595.016 481.844 594.644 482.518 594.644 483.378ZM616.13 499.245C615.614 499.245 615.113 499.216 614.625 499.159C614.167 499.13 613.78 499.087 613.464 499.03V493.956C614.038 494.071 614.726 494.128 615.528 494.128C617.678 494.128 619.169 493.11 620 491.075L620.344 490.215L611.615 467.597H618.108L623.698 482.862L630.019 467.597H636.383L626.063 491.806C625.289 493.612 624.444 495.06 623.526 496.149C622.609 497.238 621.548 498.027 620.344 498.514C619.169 499.001 617.764 499.245 616.13 499.245ZM644.13 480.841C644.072 479.522 644.13 478.404 644.302 477.487C644.474 476.57 644.818 475.753 645.334 475.036C645.85 474.291 646.552 473.588 647.441 472.929L649.677 471.338C650.565 470.679 651.196 470.077 651.569 469.532C651.97 468.959 652.171 468.371 652.171 467.769C652.171 467.11 651.97 466.536 651.569 466.049C651.167 465.533 650.623 465.132 649.935 464.845C649.247 464.53 648.458 464.372 647.57 464.372C646.28 464.372 645.09 464.702 644.001 465.361C642.911 466.02 642.08 466.909 641.507 468.027L636.777 466.049C637.407 464.673 638.267 463.498 639.357 462.523C640.446 461.548 641.707 460.789 643.141 460.244C644.603 459.699 646.151 459.427 647.785 459.427C649.734 459.427 651.468 459.785 652.988 460.502C654.507 461.19 655.711 462.136 656.6 463.34C657.488 464.544 657.933 465.92 657.933 467.468C657.933 468.5 657.761 469.432 657.417 470.263C657.101 471.066 656.557 471.854 655.783 472.628C655.009 473.402 653.948 474.248 652.601 475.165L651.44 475.982C650.522 476.584 649.877 477.258 649.505 478.003C649.161 478.748 649.017 479.694 649.075 480.841H644.13ZM646.624 490.43C645.678 490.43 644.861 490.086 644.173 489.398C643.485 488.71 643.141 487.893 643.141 486.947C643.141 485.972 643.485 485.141 644.173 484.453C644.861 483.765 645.678 483.421 646.624 483.421C647.57 483.421 648.387 483.765 649.075 484.453C649.763 485.141 650.107 485.972 650.107 486.947C650.107 487.893 649.763 488.71 649.075 489.398C648.387 490.086 647.57 490.43 646.624 490.43Z" fill="white"/>
<path d="M122.625 227H118.585V213.909H122.804C124.074 213.909 125.161 214.171 126.064 214.695C126.967 215.215 127.66 215.963 128.141 216.939C128.623 217.911 128.864 219.074 128.864 220.429C128.864 221.793 128.621 222.967 128.135 223.951C127.649 224.931 126.942 225.685 126.013 226.214C125.084 226.738 123.955 227 122.625 227ZM120.17 225.594H122.523C123.605 225.594 124.502 225.385 125.214 224.967C125.925 224.55 126.456 223.955 126.805 223.184C127.155 222.413 127.33 221.494 127.33 220.429C127.33 219.372 127.157 218.462 126.812 217.7C126.467 216.933 125.951 216.344 125.265 215.935C124.579 215.522 123.724 215.315 122.702 215.315H120.17V225.594ZM131.523 227V213.909H139.423V215.315H133.108V219.739H139.014V221.145H133.108V225.594H139.526V227H131.523ZM149.44 217.182C149.363 216.534 149.052 216.031 148.506 215.673C147.961 215.315 147.292 215.136 146.499 215.136C145.92 215.136 145.413 215.23 144.978 215.418C144.548 215.605 144.211 215.863 143.968 216.191C143.729 216.519 143.61 216.892 143.61 217.31C143.61 217.659 143.693 217.96 143.859 218.211C144.03 218.458 144.247 218.665 144.511 218.831C144.776 218.993 145.053 219.127 145.342 219.234C145.632 219.336 145.898 219.419 146.141 219.483L147.471 219.841C147.812 219.93 148.191 220.054 148.609 220.212C149.031 220.369 149.433 220.585 149.817 220.857C150.205 221.126 150.524 221.471 150.776 221.893C151.027 222.315 151.153 222.832 151.153 223.446C151.153 224.153 150.967 224.793 150.597 225.364C150.23 225.935 149.693 226.388 148.986 226.725C148.283 227.062 147.428 227.23 146.423 227.23C145.485 227.23 144.673 227.079 143.987 226.776C143.305 226.474 142.768 226.052 142.376 225.511C141.989 224.969 141.769 224.341 141.718 223.625H143.354C143.397 224.119 143.563 224.528 143.853 224.852C144.147 225.172 144.518 225.411 144.965 225.568C145.417 225.722 145.903 225.798 146.423 225.798C147.028 225.798 147.571 225.7 148.053 225.504C148.534 225.304 148.915 225.027 149.197 224.673C149.478 224.315 149.619 223.898 149.619 223.42C149.619 222.986 149.497 222.632 149.254 222.359C149.011 222.087 148.692 221.865 148.295 221.695C147.899 221.524 147.471 221.375 147.011 221.247L145.4 220.787C144.377 220.493 143.567 220.073 142.971 219.528C142.374 218.982 142.076 218.268 142.076 217.386C142.076 216.653 142.274 216.014 142.67 215.469C143.071 214.919 143.608 214.493 144.281 214.19C144.959 213.884 145.715 213.73 146.55 213.73C147.394 213.73 148.144 213.881 148.8 214.184C149.457 214.482 149.977 214.891 150.36 215.411C150.748 215.931 150.952 216.521 150.974 217.182H149.44ZM155.344 213.909V227H153.759V213.909H155.344ZM167.472 218C167.331 217.57 167.146 217.184 166.915 216.843C166.69 216.498 166.419 216.204 166.104 215.961C165.793 215.718 165.439 215.533 165.043 215.405C164.646 215.277 164.212 215.213 163.739 215.213C162.963 215.213 162.258 215.413 161.623 215.814C160.988 216.214 160.483 216.805 160.108 217.585C159.733 218.364 159.545 219.321 159.545 220.455C159.545 221.588 159.735 222.545 160.114 223.325C160.494 224.104 161.007 224.695 161.655 225.095C162.303 225.496 163.031 225.696 163.841 225.696C164.591 225.696 165.251 225.536 165.822 225.217C166.398 224.893 166.845 224.437 167.165 223.849C167.489 223.256 167.651 222.56 167.651 221.759L168.136 221.861H164.199V220.455H169.185V221.861C169.185 222.939 168.955 223.876 168.494 224.673C168.038 225.47 167.408 226.088 166.602 226.527C165.801 226.962 164.881 227.179 163.841 227.179C162.682 227.179 161.663 226.906 160.786 226.361C159.912 225.815 159.23 225.04 158.74 224.034C158.254 223.028 158.011 221.835 158.011 220.455C158.011 219.419 158.15 218.488 158.427 217.661C158.708 216.83 159.104 216.123 159.616 215.539C160.127 214.955 160.732 214.508 161.431 214.197C162.13 213.886 162.899 213.73 163.739 213.73C164.429 213.73 165.072 213.835 165.669 214.043C166.27 214.248 166.805 214.54 167.273 214.919C167.746 215.294 168.141 215.744 168.456 216.268C168.771 216.788 168.989 217.365 169.108 218H167.472ZM182.28 213.909V227H180.746L173.613 216.722H173.485V227H171.9V213.909H173.434L180.593 224.213H180.721V213.909H182.28ZM201.049 218H199.464C199.37 217.544 199.206 217.143 198.972 216.798C198.741 216.453 198.46 216.163 198.128 215.929C197.8 215.69 197.435 215.511 197.035 215.392C196.634 215.273 196.217 215.213 195.782 215.213C194.989 215.213 194.271 215.413 193.628 215.814C192.989 216.214 192.479 216.805 192.1 217.585C191.725 218.364 191.538 219.321 191.538 220.455C191.538 221.588 191.725 222.545 192.1 223.325C192.479 224.104 192.989 224.695 193.628 225.095C194.271 225.496 194.989 225.696 195.782 225.696C196.217 225.696 196.634 225.636 197.035 225.517C197.435 225.398 197.8 225.221 198.128 224.987C198.46 224.748 198.741 224.456 198.972 224.111C199.206 223.761 199.37 223.361 199.464 222.909H201.049C200.93 223.578 200.712 224.177 200.397 224.705C200.082 225.234 199.69 225.683 199.221 226.054C198.752 226.42 198.226 226.7 197.642 226.891C197.063 227.083 196.442 227.179 195.782 227.179C194.665 227.179 193.673 226.906 192.803 226.361C191.934 225.815 191.25 225.04 190.751 224.034C190.253 223.028 190.004 221.835 190.004 220.455C190.004 219.074 190.253 217.881 190.751 216.875C191.25 215.869 191.934 215.094 192.803 214.548C193.673 214.003 194.665 213.73 195.782 213.73C196.442 213.73 197.063 213.826 197.642 214.018C198.226 214.21 198.752 214.491 199.221 214.862C199.69 215.228 200.082 215.675 200.397 216.204C200.712 216.728 200.93 217.327 201.049 218ZM203.611 227V213.909H205.196V219.739H212.176V213.909H213.761V227H212.176V221.145H205.196V227H203.611ZM217.472 227H215.81L220.617 213.909H222.253L227.06 227H225.398L221.486 215.98H221.384L217.472 227ZM218.085 221.886H224.784V223.293H218.085V221.886ZM229.099 227V213.909H230.684V225.594H236.769V227H229.099ZM239.224 227V213.909H240.809V225.594H246.894V227H239.224ZM249.349 227V213.909H257.249V215.315H250.934V219.739H256.84V221.145H250.934V225.594H257.352V227H249.349ZM270.487 213.909V227H268.953L261.82 216.722H261.692V227H260.107V213.909H261.641L268.8 224.213H268.928V213.909H270.487ZM282.608 218C282.468 217.57 282.282 217.184 282.052 216.843C281.826 216.498 281.556 216.204 281.24 215.961C280.929 215.718 280.576 215.533 280.179 215.405C279.783 215.277 279.348 215.213 278.875 215.213C278.1 215.213 277.395 215.413 276.76 215.814C276.125 216.214 275.62 216.805 275.245 217.585C274.87 218.364 274.682 219.321 274.682 220.455C274.682 221.588 274.872 222.545 275.251 223.325C275.63 224.104 276.144 224.695 276.792 225.095C277.439 225.496 278.168 225.696 278.978 225.696C279.728 225.696 280.388 225.536 280.959 225.217C281.534 224.893 281.982 224.437 282.301 223.849C282.625 223.256 282.787 222.56 282.787 221.759L283.273 221.861H279.336V220.455H284.321V221.861C284.321 222.939 284.091 223.876 283.631 224.673C283.175 225.47 282.544 226.088 281.739 226.527C280.938 226.962 280.017 227.179 278.978 227.179C277.819 227.179 276.8 226.906 275.922 226.361C275.049 225.815 274.367 225.04 273.877 224.034C273.391 223.028 273.148 221.835 273.148 220.455C273.148 219.419 273.287 218.488 273.564 217.661C273.845 216.83 274.241 216.123 274.752 215.539C275.264 214.955 275.869 214.508 276.568 214.197C277.267 213.886 278.036 213.73 278.875 213.73C279.566 213.73 280.209 213.835 280.806 214.043C281.407 214.248 281.941 214.54 282.41 214.919C282.883 215.294 283.277 215.744 283.593 216.268C283.908 216.788 284.125 217.365 284.245 218H282.608ZM287.036 227V213.909H294.937V215.315H288.622V219.739H294.528V221.145H288.622V225.594H295.039V227H287.036Z" fill="white"/>
<path d="M117 230.58H296.215V231.807H117V230.58Z" fill="white"/>
</svg>
