<svg width="1342" height="790" viewBox="0 0 1342 790" fill="none" xmlns="http://www.w3.org/2000/svg">
<rect width="1342" height="790" fill="#F5F5F5"/>
<path d="M148 395.504L948 170V611L148 395.504Z" fill="#EEE6CD"/>
<circle cx="911" cy="324" r="9" fill="#8BA0D6"/>
<circle cx="789" cy="295" r="9" fill="#8BA0D6"/>
<circle cx="765" cy="392" r="9" fill="#8BA0D6"/>
<circle cx="854" cy="356" r="9" fill="#8BA0D6"/>
<circle cx="893" cy="428" r="9" fill="#8BA0D6"/>
<circle cx="893" cy="506" r="9" fill="#8BA0D6"/>
<circle cx="827" cy="524" r="9" fill="#8BA0D6"/>
<circle cx="818" cy="450" r="9" fill="#8BA0D6"/>
<circle cx="913" cy="569" r="9" fill="#8BA0D6"/>
<circle cx="911" cy="221" r="9" fill="#8BA0D6"/>
<circle cx="863" cy="247" r="9" fill="#8BA0D6"/>
<path d="M944.814 292.953L943.724 293.983L943.724 293.983L944.814 292.953ZM922.372 267.669C921.544 267.646 920.854 268.299 920.831 269.127L920.452 282.621C920.428 283.449 921.081 284.14 921.909 284.163C922.737 284.186 923.427 283.534 923.45 282.706L923.787 270.71L935.783 271.047C936.611 271.07 937.301 270.418 937.324 269.59C937.347 268.762 936.695 268.072 935.867 268.048L922.372 267.669ZM945.904 291.922L923.42 268.138L921.24 270.199L943.724 293.983L945.904 291.922ZM1091.94 318.491C1042.68 342.499 983.546 331.739 945.904 291.922L943.724 293.983C982.267 334.753 1042.82 345.77 1093.25 321.188L1091.94 318.491Z" fill="black"/>
<path d="M931.05 417.025L930.904 415.533L930.904 415.533L931.05 417.025ZM918.171 417.217C917.645 417.857 917.738 418.802 918.378 419.328L928.806 427.902C929.446 428.428 930.391 428.335 930.917 427.695C931.443 427.056 931.351 426.11 930.711 425.584L921.441 417.964L929.062 408.694C929.588 408.054 929.496 407.109 928.856 406.583C928.216 406.057 927.271 406.149 926.745 406.789L918.171 417.217ZM930.904 415.533L919.184 416.677L919.476 419.663L931.196 418.518L930.904 415.533ZM1042.28 470.712C1018.72 432.581 975.514 411.177 930.904 415.533L931.196 418.518C974.667 414.274 1016.77 435.132 1039.72 472.289L1042.28 470.712Z" fill="black"/>
<path d="M918.999 606.772L920.499 606.772L920.499 606.772L918.999 606.772ZM920.06 589.439C919.474 588.854 918.524 588.854 917.938 589.439L908.392 598.985C907.807 599.571 907.807 600.521 908.392 601.107C908.978 601.693 909.928 601.693 910.514 601.107L918.999 592.621L927.484 601.107C928.07 601.692 929.02 601.692 929.606 601.107C930.191 600.521 930.191 599.571 929.606 598.985L920.06 589.439ZM920.499 606.772L920.499 590.5L917.499 590.5L917.499 606.772L920.499 606.772ZM1005.67 691.94C958.631 691.94 920.5 653.809 920.499 606.772L917.499 606.772C917.5 655.466 956.974 694.94 1005.67 694.94L1005.67 691.94Z" fill="black"/>
<path d="M689.092 354.644L688.858 356.125L688.858 356.125L689.092 354.644ZM720.707 360.717C721.377 360.229 721.525 359.291 721.038 358.621L713.1 347.702C712.613 347.031 711.675 346.883 711.005 347.37C710.335 347.857 710.186 348.795 710.674 349.466L717.729 359.172L708.023 366.228C707.353 366.715 707.205 367.653 707.692 368.323C708.179 368.993 709.117 369.142 709.787 368.654L720.707 360.717ZM688.858 356.125L719.59 360.985L720.059 358.022L689.327 353.162L688.858 356.125ZM638.926 269.46C624.173 307.658 648.413 349.73 688.858 356.125L689.327 353.162C650.769 347.065 627.66 306.956 641.724 270.541L638.926 269.46Z" fill="black"/>
<path d="M768.125 456.896L769.423 457.648L769.423 457.648L768.125 456.896ZM771.519 453.153C771.306 452.352 770.484 451.876 769.684 452.09L756.639 455.564C755.838 455.778 755.362 456.599 755.575 457.4C755.788 458.2 756.61 458.677 757.411 458.463L769.006 455.375L772.095 466.97C772.308 467.771 773.13 468.247 773.931 468.034C774.731 467.82 775.207 466.999 774.994 466.198L771.519 453.153ZM769.423 457.648L771.368 454.291L768.772 452.787L766.827 456.144L769.423 457.648ZM639.965 476.149C678.937 513.326 742.424 504.253 769.423 457.648L766.827 456.144C740.801 501.07 679.603 509.815 642.035 473.978L639.965 476.149Z" fill="black"/>
<path d="M840.968 567.298L842.44 567.583L842.44 567.583L840.968 567.298ZM844.744 553.413C844.28 552.726 843.348 552.545 842.661 553.008L831.471 560.56C830.785 561.024 830.604 561.956 831.067 562.643C831.53 563.329 832.463 563.51 833.149 563.047L843.096 556.334L849.809 566.281C850.272 566.968 851.205 567.149 851.891 566.685C852.578 566.222 852.759 565.29 852.296 564.603L844.744 553.413ZM842.44 567.583L844.973 554.538L842.028 553.966L839.495 567.012L842.44 567.583ZM723.285 652.233C779.227 660.327 831.668 623.072 842.44 567.583L839.495 567.012C829.028 620.928 778.072 657.128 723.715 649.264L723.285 652.233Z" fill="black"/>
<path d="M816.048 227.952L814.763 227.178L814.763 227.178L816.048 227.952ZM810.046 235.861C810.245 236.665 811.059 237.155 811.863 236.955L824.965 233.703C825.769 233.504 826.259 232.69 826.06 231.886C825.86 231.082 825.047 230.592 824.243 230.792L812.596 233.682L809.706 222.036C809.506 221.232 808.692 220.742 807.888 220.941C807.084 221.141 806.594 221.954 806.794 222.758L810.046 235.861ZM814.763 227.178L810.217 234.726L812.787 236.273L817.333 228.726L814.763 227.178ZM954 148.5C897.003 148.5 844.171 178.354 814.763 227.178L817.333 228.726C846.198 180.803 898.055 151.5 954 151.5L954 148.5Z" fill="black"/>
<path d="M694.622 675.427L678.2 671.758V666.542C684.546 661.939 688.7 654.462 688.7 646.01V633.345H690.8V616.096C690.8 614.28 690.495 612.516 689.939 610.844L699.2 608.104V616.847C696.762 617.721 695 620.043 695 622.791V629.124H707.6V622.791C707.6 620.043 705.838 617.721 703.4 616.847V606.863L706.025 606.086L663.5 591L620.975 606.086L637.061 610.842C636.504 612.516 636.2 614.28 636.2 616.096V633.345H638.3V646.01C638.3 654.462 642.454 661.939 648.8 666.542V671.758L632.378 675.425C619.791 678.238 611 689.251 611 702.213V722H716V702.213C716 689.251 707.209 678.238 694.622 675.427ZM703.4 624.902H699.2V622.791C699.2 621.628 700.143 620.68 701.3 620.68C702.457 620.68 703.4 621.628 703.4 622.791V624.902ZM691.821 679.125L680.3 700.353V717.778H665.6V697.208L677.188 675.857L691.821 679.125ZM669.189 681.78L666.69 678.43L672.627 675.448L669.189 681.78ZM654.375 675.446L660.312 678.428L657.813 681.778L654.375 675.446ZM663.5 681.189L666.98 685.852L663.5 692.263L660.02 685.852L663.5 681.189ZM640.4 616.096C640.4 613.094 641.463 610.255 643.409 608.015H683.591C685.537 610.257 686.6 613.094 686.6 616.096V629.124H684.5H642.5H640.4V616.096ZM634.625 605.723L663.5 595.479L692.375 605.723L688.081 606.992C687.476 606.073 686.776 605.208 685.985 604.412L685.371 603.794H641.631L641.015 604.412C640.224 605.208 639.524 606.073 638.919 606.992L634.625 605.723ZM642.5 646.01V633.345H684.5V646.01C684.5 657.649 675.079 667.119 663.5 667.119C651.921 667.119 642.5 657.649 642.5 646.01ZM663.5 671.34C667.251 671.34 670.8 670.49 674 669.008V670.036L663.5 675.313L653 670.036V669.008C656.2 670.49 659.749 671.34 663.5 671.34ZM649.812 675.855L661.4 697.208V717.778H646.7V700.353L635.179 679.125L649.812 675.855ZM615.2 702.213C615.2 692.06 621.582 683.328 630.979 680.201L642.5 701.43V717.778H636.2V709.335H632V717.778H615.2V702.213ZM711.8 717.778H695V709.335H690.8V717.778H684.5V701.43L696.021 680.201C705.418 683.328 711.8 692.06 711.8 702.213V717.778Z" fill="#3E3E3E"/>
<path d="M1028.53 658.209C1028.3 658.208 1028.08 658.134 1027.9 657.997C1027.71 657.861 1027.58 657.669 1027.51 657.45C1027.44 657.23 1027.45 656.996 1027.52 656.779C1027.6 656.563 1027.74 656.377 1027.93 656.249C1029.26 655.586 1030.71 655.216 1032.2 655.164C1033.68 655.112 1035.15 655.38 1036.52 655.949C1036.66 655.991 1036.78 656.059 1036.89 656.15C1037 656.24 1037.09 656.351 1037.15 656.476C1037.22 656.601 1037.26 656.737 1037.27 656.877C1037.28 657.017 1037.27 657.159 1037.23 657.293C1037.18 657.427 1037.12 657.552 1037.02 657.66C1036.93 657.768 1036.82 657.857 1036.7 657.922C1036.57 657.987 1036.44 658.027 1036.3 658.039C1036.16 658.052 1036.02 658.036 1035.88 657.994C1034.81 657.532 1033.66 657.298 1032.49 657.307C1031.32 657.316 1030.17 657.568 1029.11 658.046C1028.94 658.153 1028.74 658.209 1028.53 658.209V658.209Z" fill="#3E3E3E"/>
<path d="M1059.68 657.742C1059.54 657.743 1059.41 657.717 1059.28 657.665C1057.29 656.87 1053.09 656.625 1051.96 657.466C1051.84 657.55 1051.71 657.612 1051.58 657.646C1051.44 657.681 1051.3 657.689 1051.16 657.669C1051.02 657.649 1050.89 657.602 1050.77 657.53C1050.64 657.459 1050.54 657.364 1050.45 657.251C1050.37 657.139 1050.31 657.01 1050.27 656.874C1050.24 656.738 1050.23 656.596 1050.25 656.456C1050.27 656.317 1050.32 656.183 1050.39 656.062C1050.46 655.941 1050.56 655.835 1050.67 655.75C1052.75 654.207 1057.94 654.826 1060.07 655.68C1060.3 655.772 1060.49 655.943 1060.61 656.161C1060.73 656.38 1060.77 656.633 1060.72 656.878C1060.68 657.122 1060.55 657.342 1060.35 657.501C1060.16 657.66 1059.92 657.746 1059.67 657.746L1059.68 657.742Z" fill="#3E3E3E"/>
<path d="M1035.94 664.389C1035.7 664.389 1035.46 664.307 1035.27 664.156C1034.62 663.631 1033.81 663.346 1032.97 663.346C1032.14 663.346 1031.32 663.631 1030.67 664.156C1030.56 664.244 1030.43 664.309 1030.3 664.348C1030.16 664.387 1030.02 664.399 1029.88 664.384C1029.74 664.368 1029.61 664.325 1029.48 664.257C1029.36 664.189 1029.25 664.097 1029.16 663.987C1029.07 663.877 1029.01 663.751 1028.97 663.615C1028.93 663.48 1028.92 663.338 1028.93 663.198C1028.97 662.915 1029.11 662.657 1029.33 662.479C1030.37 661.651 1031.65 661.2 1032.98 661.2C1034.3 661.2 1035.59 661.651 1036.62 662.479C1036.79 662.618 1036.92 662.807 1036.98 663.021C1037.04 663.235 1037.04 663.463 1036.96 663.673C1036.89 663.883 1036.75 664.064 1036.57 664.193C1036.39 664.321 1036.17 664.39 1035.95 664.389H1035.94Z" fill="#3E3E3E"/>
<path d="M1059.12 664.454C1058.87 664.453 1058.64 664.369 1058.45 664.216C1057.79 663.694 1056.98 663.41 1056.15 663.41C1055.31 663.41 1054.5 663.694 1053.84 664.216C1053.62 664.38 1053.34 664.452 1053.07 664.415C1052.79 664.378 1052.54 664.236 1052.37 664.019C1052.2 663.801 1052.11 663.525 1052.14 663.249C1052.17 662.972 1052.3 662.717 1052.51 662.537C1053.55 661.711 1054.83 661.262 1056.15 661.262C1057.47 661.262 1058.76 661.711 1059.79 662.537C1059.96 662.676 1060.09 662.865 1060.15 663.079C1060.21 663.293 1060.21 663.52 1060.13 663.73C1060.06 663.939 1059.92 664.121 1059.74 664.249C1059.56 664.377 1059.34 664.445 1059.12 664.445V664.454Z" fill="#3E3E3E"/>
<path d="M1048.29 680.956C1047.85 681.414 1047.32 681.774 1046.74 682.013C1046.15 682.251 1045.52 682.362 1044.89 682.339C1044.49 682.348 1044.08 682.271 1043.71 682.114C1043.34 681.956 1043.01 681.721 1042.73 681.424C1042.65 681.308 1042.54 681.211 1042.42 681.137C1042.3 681.063 1042.16 681.015 1042.02 680.995C1041.88 680.975 1041.73 680.983 1041.59 681.019C1041.45 681.056 1041.33 681.12 1041.21 681.207C1041.1 681.294 1041 681.403 1040.93 681.528C1040.86 681.652 1040.82 681.789 1040.8 681.932C1040.78 682.074 1040.8 682.218 1040.84 682.355C1040.88 682.492 1040.94 682.62 1041.03 682.732C1041.5 683.282 1042.08 683.724 1042.73 684.027C1043.38 684.33 1044.09 684.485 1044.81 684.483H1045.05C1045.96 684.489 1046.86 684.304 1047.69 683.942C1048.52 683.58 1049.27 683.048 1049.88 682.38C1050.06 682.166 1050.15 681.893 1050.13 681.616C1050.11 681.339 1049.98 681.082 1049.77 680.897C1049.57 680.712 1049.3 680.614 1049.02 680.625C1048.74 680.635 1048.48 680.752 1048.29 680.952V680.956Z" fill="#3E3E3E"/>
<path d="M1043.46 677.904C1043.82 677.903 1044.17 677.823 1044.5 677.67C1044.63 677.612 1044.75 677.528 1044.84 677.425C1044.94 677.321 1045.01 677.199 1045.06 677.067C1045.11 676.934 1045.14 676.792 1045.13 676.651C1045.12 676.509 1045.09 676.37 1045.03 676.242C1044.97 676.113 1044.89 675.998 1044.78 675.902C1044.68 675.806 1044.56 675.732 1044.42 675.684C1044.29 675.636 1044.15 675.615 1044.01 675.622C1043.86 675.629 1043.73 675.664 1043.6 675.725C1043.55 675.751 1043.5 675.765 1043.45 675.765C1043.4 675.765 1043.34 675.751 1043.3 675.725C1043.14 675.636 1043.02 675.497 1042.96 675.331C1043.01 675.059 1042.95 674.78 1042.79 674.551C1042.64 674.323 1042.4 674.162 1042.14 674.102C1041.87 674.042 1041.58 674.088 1041.35 674.23C1041.11 674.372 1040.94 674.6 1040.87 674.866C1040.79 675.318 1040.83 675.784 1041 676.212C1041.17 676.641 1041.45 677.015 1041.81 677.293C1042.27 677.684 1042.85 677.901 1043.46 677.904V677.904Z" fill="#3E3E3E"/>
<path d="M1111.19 696.104C1110.95 694.267 1110.28 692.514 1109.22 690.995C1108.16 689.476 1106.75 688.236 1105.11 687.382C1099.06 684.134 1089.83 685.195 1083.83 687.92C1082.86 688.414 1081.81 688.708 1080.73 688.784C1079.65 688.86 1078.56 688.716 1077.54 688.362C1076.68 687.983 1075.91 687.437 1075.27 686.756C1074.63 686.075 1074.13 685.272 1073.8 684.395C1074.01 683.728 1074.19 683.109 1074.31 682.588C1074.89 682.94 1075.52 683.2 1076.18 683.357C1077.11 683.568 1078.07 683.589 1079.01 683.417C1079.95 683.246 1080.84 682.886 1081.63 682.36C1084.17 680.587 1085.94 677.904 1086.56 674.867C1086.99 672.967 1087 670.998 1086.59 669.095C1086.51 668.756 1086.42 668.422 1086.3 668.094C1086.17 667.726 1086.02 667.368 1085.84 667.022C1087.46 661.367 1088.02 655.463 1087.51 649.604C1087.08 643.772 1085.5 635.642 1080.3 630.02C1071.79 620.844 1063.49 619 1052.86 619C1037.85 619 1030.26 629.33 1027.06 635.488C1022.98 643.356 1023.61 652.172 1025.33 655.856C1025.37 657.196 1025.53 658.529 1025.83 659.837L1025.93 660.337C1026.41 663.437 1026.69 666.564 1026.77 669.7C1026.79 674.777 1027.45 679.832 1028.73 684.745C1030.85 691.063 1038.93 698.486 1046.57 698.959C1047.08 698.994 1047.6 699.009 1048.13 699.009C1049.45 698.997 1050.76 698.893 1052.07 698.696C1053.41 702.055 1054.1 706.344 1052.93 708.074C1052.87 708.134 1052.81 708.191 1052.75 708.245C1051.55 708.952 1050.3 709.564 1049.01 710.078L1047.3 710.85C1039.69 714.339 1030.36 719.546 1025.71 728.931C1023.41 733.568 1025.32 736.221 1027.34 737.64C1032.46 741.197 1041.44 743 1054.03 743C1071.88 743 1084.43 738.238 1089.04 735.421L1089.6 735.084C1092 733.624 1095.62 731.42 1094.8 727.758C1093.09 720.063 1086.77 712.924 1077.49 708.177C1076.75 707.786 1075.99 707.417 1075.21 707.068C1072.74 705.233 1071.16 698.67 1070.39 693.99C1073.98 703.717 1084.81 710.726 1094.83 712.263C1095.56 712.372 1096.29 712.427 1097.02 712.426C1101.04 712.441 1104.91 710.888 1107.8 708.097C1109.31 706.53 1110.4 704.616 1110.99 702.524C1111.58 700.432 1111.65 698.227 1111.19 696.104V696.104ZM1073.61 708.507C1073.47 709.793 1072.78 710.008 1071.39 710.436C1070.37 710.665 1069.42 711.121 1068.6 711.77C1067.88 712.463 1067.23 713.231 1066.67 714.06C1065.68 715.4 1064.66 716.787 1063.41 717.143C1062.92 717.292 1062.41 717.38 1061.91 717.402C1060.9 717.42 1059.89 717.279 1058.92 716.984C1058.42 716.858 1057.95 716.738 1057.53 716.671C1057.27 716.623 1057.01 716.588 1056.75 716.566C1055.6 716.536 1054.45 716.663 1053.33 716.944C1052.59 717.122 1051.84 717.224 1051.08 717.248V717.248C1051 717.225 1050.91 717.216 1050.82 717.22C1050.73 717.186 1050 716.86 1050 716.86C1049.59 716.645 1049.25 716.329 1049 715.943C1048.75 715.556 1048.6 715.111 1048.57 714.652C1048.53 713.961 1048.58 713.268 1048.73 712.591L1049.91 712.06C1051.37 711.491 1052.77 710.788 1054.09 709.961C1054.23 709.848 1054.36 709.728 1054.48 709.602C1054.63 709.454 1054.76 709.292 1054.87 709.118C1056.53 706.639 1055.52 701.712 1054.25 698.329C1056.13 697.967 1057.98 697.454 1059.78 696.794C1059.91 696.745 1060.03 696.67 1060.14 696.575C1060.24 696.479 1060.32 696.364 1060.38 696.236C1060.44 696.108 1060.47 695.969 1060.48 695.829C1060.48 695.688 1060.46 695.547 1060.41 695.415C1060.36 695.283 1060.29 695.162 1060.19 695.059C1060.1 694.956 1059.98 694.872 1059.85 694.814C1059.72 694.755 1059.59 694.722 1059.45 694.717C1059.31 694.711 1059.16 694.734 1059.03 694.783C1056.95 695.569 1054.8 696.143 1052.6 696.498C1050.67 696.848 1048.7 696.966 1046.74 696.85C1040.61 696.47 1032.86 690.272 1030.79 684.095C1029.58 679.364 1028.96 674.503 1028.94 669.621C1028.86 666.383 1028.56 663.155 1028.06 659.955L1027.96 659.436C1027.66 658.191 1027.5 656.917 1027.48 655.637C1027.48 655.519 1027.48 655.303 1027.47 655.011C1027.2 647.749 1028.63 643.339 1031.71 641.9C1033.03 641.18 1034.16 640.143 1034.98 638.882C1035.67 637.687 1036.77 636.775 1038.06 636.309C1039.42 635.908 1040.87 635.926 1042.22 636.358C1043.26 636.659 1044.34 636.803 1045.42 636.787C1046.92 636.754 1048.42 636.563 1049.88 636.217C1051.79 635.691 1053.8 635.683 1055.71 636.195C1056.41 636.41 1057.06 636.775 1057.6 637.265C1058.15 637.755 1058.58 638.358 1058.87 639.032C1059.81 640.952 1061.46 642.432 1063.47 643.159C1067.42 644.514 1068.83 647.934 1067.8 653.613C1067.54 655.062 1067.48 656.54 1067.62 658.006C1068.01 663.122 1070.43 667.616 1072.46 668.544C1072.49 668.567 1072.51 668.589 1072.54 668.609C1072.57 668.619 1072.6 668.628 1072.63 668.634C1072.66 668.634 1072.69 668.673 1072.72 668.684C1072.75 668.694 1072.8 668.684 1072.84 668.684C1072.91 668.697 1072.98 668.704 1073.05 668.705C1073.19 668.701 1073.32 668.672 1073.45 668.619C1073.5 668.596 1073.56 668.569 1073.6 668.538C1073.67 668.495 1073.73 668.446 1073.79 668.39C1073.83 668.348 1073.86 668.304 1073.89 668.257C1073.93 668.221 1073.96 668.182 1073.99 668.141C1074.34 667.468 1074.82 666.87 1075.4 666.383C1076.1 665.808 1076.9 665.386 1077.77 665.144C1078.64 664.902 1079.55 664.846 1080.45 664.979C1081.16 665.141 1081.82 665.459 1082.4 665.909C1082.97 666.359 1083.43 666.93 1083.76 667.582C1083.97 667.962 1084.14 668.361 1084.27 668.774C1084.36 669.029 1084.43 669.291 1084.48 669.556C1084.83 671.154 1084.82 672.807 1084.46 674.402C1083.97 676.883 1082.54 679.081 1080.48 680.544C1079.92 680.919 1079.3 681.176 1078.64 681.299C1077.99 681.423 1077.31 681.412 1076.66 681.265C1075.75 681.002 1074.9 680.528 1074.21 679.88C1074.05 679.761 1073.87 679.684 1073.68 679.659C1073.49 679.634 1073.3 679.661 1073.12 679.737C1072.94 679.813 1072.79 679.935 1072.68 680.091C1072.56 680.246 1072.49 680.43 1072.48 680.622C1072.32 681.81 1072.04 682.979 1071.64 684.108C1071.11 685.617 1070.36 687.041 1069.41 688.332C1069 688.853 1068.56 689.348 1068.08 689.813C1067.52 690.34 1066.91 690.816 1066.26 691.235C1066.07 691.362 1065.92 691.548 1065.84 691.765C1065.76 691.981 1065.76 692.218 1065.83 692.439C1065.89 692.659 1066.03 692.853 1066.21 692.99C1066.4 693.127 1066.62 693.201 1066.85 693.201C1067.07 693.201 1067.27 693.139 1067.45 693.021C1067.65 692.89 1067.81 692.759 1067.99 692.628C1068.55 696.674 1070.13 705.447 1073.61 708.507Z" fill="#3E3E3E"/>
<path d="M1076.18 674.699C1076.25 674.714 1076.32 674.722 1076.39 674.723C1076.64 674.723 1076.88 674.637 1077.07 674.481C1077.26 674.324 1077.39 674.107 1077.44 673.865C1077.63 673.302 1078 672.816 1078.49 672.487C1078.99 672.158 1079.58 672.004 1080.17 672.049C1080.45 672.083 1080.74 672.003 1080.96 671.827C1081.18 671.651 1081.33 671.393 1081.36 671.11C1081.39 670.828 1081.31 670.543 1081.14 670.32C1080.96 670.096 1080.7 669.952 1080.42 669.918C1079.3 669.803 1078.17 670.093 1077.24 670.734C1076.31 671.376 1075.64 672.328 1075.34 673.419C1075.31 673.558 1075.31 673.702 1075.34 673.842C1075.36 673.982 1075.42 674.115 1075.49 674.234C1075.57 674.353 1075.67 674.456 1075.79 674.536C1075.91 674.615 1076.04 674.671 1076.18 674.699Z" fill="#3E3E3E"/>
<path d="M1059.25 665.054V667.67C1059.25 668.113 1059.07 668.538 1058.76 668.852C1058.45 669.165 1058.02 669.342 1057.58 669.342H1056.68C1056.46 669.341 1056.24 669.297 1056.04 669.213C1055.84 669.128 1055.66 669.005 1055.5 668.849C1055.35 668.694 1055.23 668.51 1055.15 668.307C1055.07 668.105 1055.02 667.888 1055.03 667.67V665.054C1055.02 664.836 1055.07 664.619 1055.15 664.417C1055.23 664.214 1055.35 664.03 1055.5 663.875C1055.66 663.719 1055.84 663.596 1056.04 663.511C1056.24 663.427 1056.46 663.383 1056.68 663.382H1057.58C1058.02 663.382 1058.45 663.559 1058.76 663.872C1059.07 664.186 1059.25 664.611 1059.25 665.054Z" fill="#3E3E3E"/>
<path d="M1036.52 665.118V667.734C1036.52 667.952 1036.48 668.168 1036.39 668.37C1036.31 668.571 1036.18 668.754 1036.03 668.907C1035.87 669.06 1035.69 669.182 1035.49 669.264C1035.28 669.346 1035.07 669.387 1034.85 669.385H1033.95C1033.73 669.387 1033.51 669.346 1033.31 669.264C1033.11 669.182 1032.93 669.06 1032.77 668.907C1032.61 668.754 1032.49 668.571 1032.41 668.37C1032.32 668.168 1032.28 667.952 1032.28 667.734V665.118C1032.28 664.675 1032.45 664.25 1032.77 663.936C1033.08 663.623 1033.51 663.446 1033.95 663.446H1034.85C1035.29 663.446 1035.72 663.623 1036.03 663.936C1036.35 664.25 1036.52 664.675 1036.52 665.118V665.118Z" fill="#3E3E3E"/>
<path d="M1102 453.137C1106.76 453.137 1110.64 449.276 1110.64 444.527V435.916H1093.36V444.527C1093.36 449.276 1097.23 453.137 1102 453.137ZM1097.68 440.221H1106.32V444.527C1106.32 446.901 1104.38 448.832 1102 448.832C1099.62 448.832 1097.68 446.901 1097.68 444.527V440.221Z" fill="#3E3E3E"/>
<path d="M1102 532.787C1103.19 532.787 1104.16 531.823 1104.16 530.634C1104.16 529.445 1103.19 528.481 1102 528.481C1100.81 528.481 1099.84 529.445 1099.84 530.634C1099.84 531.823 1100.81 532.787 1102 532.787Z" fill="#3E3E3E"/>
<path d="M1102 541.398C1103.19 541.398 1104.16 540.434 1104.16 539.245C1104.16 538.056 1103.19 537.092 1102 537.092C1100.81 537.092 1099.84 538.056 1099.84 539.245C1099.84 540.434 1100.81 541.398 1102 541.398Z" fill="#3E3E3E"/>
<path d="M1102 550.008C1103.19 550.008 1104.16 549.044 1104.16 547.855C1104.16 546.666 1103.19 545.703 1102 545.703C1100.81 545.703 1099.84 546.666 1099.84 547.855C1099.84 549.044 1100.81 550.008 1102 550.008Z" fill="#3E3E3E"/>
<path d="M1140.88 511.501V506.954C1140.88 503.394 1137.97 500.496 1134.4 500.496H1130.08C1126.6 500.496 1123.78 503.243 1123.63 506.67L1117.12 505.228V499.909C1123.65 495.214 1127.92 487.589 1127.92 478.97V461.748V456.621L1137.16 452.014C1139.46 450.871 1140.88 448.574 1140.88 446.021C1140.88 442.856 1138.72 440.168 1135.61 439.481L1126.94 437.559C1122.76 436.633 1118.96 434.321 1116.22 431.051L1114.29 428.735C1111.24 425.09 1106.76 423 1102 423C1097.24 423 1092.76 425.09 1089.71 428.737L1087.78 431.049C1085.04 434.323 1081.23 436.635 1077.06 437.559L1068.38 439.481C1065.28 440.17 1063.12 442.858 1063.12 446.021C1063.12 448.574 1064.54 450.871 1066.84 452.014L1076.08 456.621V461.748V478.97C1076.08 487.589 1080.35 495.214 1086.88 499.909V505.228L1069.99 508.967C1057.04 511.837 1048 523.067 1048 536.287V556.466H1156V536.287C1156 525.866 1150.11 516.295 1140.88 511.501ZM1151.68 536.287V545.703L1150.82 545.057C1148.65 543.438 1147.36 540.863 1147.36 538.168V534.939H1151.59C1151.62 535.389 1151.68 535.833 1151.68 536.287ZM1127.92 506.954C1127.92 505.766 1128.89 504.802 1130.08 504.802H1134.4C1135.59 504.802 1136.56 505.766 1136.56 506.954V509.471V517.718C1136.56 518.906 1135.59 519.871 1134.4 519.871H1130.08C1128.89 519.871 1127.92 518.906 1127.92 517.718V507.622V506.954ZM1115.65 509.312L1116.56 509.514L1113.47 524.908L1105.39 519.537L1115.65 509.312ZM1123.6 460.485C1117.13 464.116 1109.83 466.054 1102.4 466.054H1101.6C1094.16 466.054 1086.86 464.114 1080.4 460.485V456.248C1086.79 458.472 1093.47 459.596 1100.27 459.596H1103.73C1110.53 459.596 1117.2 458.474 1123.6 456.25V460.485ZM1068.77 448.163C1067.95 447.756 1067.44 446.933 1067.44 446.021C1067.44 444.891 1068.21 443.928 1069.32 443.685L1078 441.763C1083.1 440.63 1087.75 437.804 1091.1 433.804L1093.03 431.492C1095.25 428.832 1098.52 427.305 1102 427.305C1105.48 427.305 1108.75 428.832 1110.97 431.49L1112.9 433.806C1116.25 437.804 1120.9 440.63 1126 441.763L1134.68 443.685C1135.79 443.93 1136.56 444.891 1136.56 446.021C1136.56 446.933 1136.05 447.756 1135.23 448.163L1127.92 451.807V449.949L1124.59 451.288C1117.92 453.943 1110.91 455.29 1103.73 455.29H1100.27C1093.09 455.29 1086.08 453.943 1079.41 451.284L1076.08 449.964V451.805L1068.77 448.163ZM1080.4 478.97V465.369C1086.97 468.635 1094.23 470.359 1101.6 470.359H1102.4C1109.76 470.359 1117.01 468.639 1123.6 465.365V478.97C1123.6 490.839 1113.91 500.496 1102 500.496C1090.09 500.496 1080.4 490.839 1080.4 478.97ZM1102 504.802C1105.86 504.802 1109.51 503.934 1112.8 502.423V506.063L1102 516.827L1091.2 506.063V502.423C1094.49 503.934 1098.14 504.802 1102 504.802ZM1088.35 509.312L1098.61 519.537L1090.53 524.908L1087.44 509.514L1088.35 509.312ZM1052.38 534.939H1056.64V538.168C1056.64 540.863 1055.35 543.438 1053.18 545.057L1052.32 545.703V536.285C1052.32 535.833 1052.35 535.387 1052.38 534.939ZM1134.4 552.161V543.55H1130.08V552.161H1073.92V543.55H1069.6V552.161H1052.32V551.084L1055.78 548.501C1059.02 546.075 1060.96 542.211 1060.96 538.168V530.634H1053.01C1055.1 522.015 1061.88 515.176 1070.93 513.174L1083.22 510.45L1087.56 532.057L1102 522.458L1116.45 532.057L1120.78 510.45L1123.6 511.073V517.718C1123.6 521.278 1126.51 524.176 1130.08 524.176V532.787H1134.4V524.176C1137.97 524.176 1140.88 521.278 1140.88 517.718V516.465C1145.94 519.75 1149.53 524.848 1150.97 530.634H1143.04V538.168C1143.04 542.211 1144.98 546.075 1148.22 548.501L1151.68 551.084V552.161H1134.4Z" fill="#3E3E3E"/>
<path d="M1051.91 139.084L1036.02 135.546V130.516C1042.16 126.076 1046.18 118.865 1046.18 110.714V98.2109C1049.68 97.301 1052.28 94.1415 1052.28 90.3571V86.2857C1052.28 81.7949 1048.63 78.1429 1044.15 78.1429H1042.12C1041.44 78.1429 1040.8 78.2793 1040.19 78.4849C1035.55 73.0902 1028.95 70 1021.8 70C1014.64 70 1008.05 73.0902 1003.41 78.4849C1002.8 78.2793 1002.16 78.1429 1001.48 78.1429H999.447C994.964 78.1429 991.319 81.7949 991.319 86.2857V90.3571C991.319 94.1415 993.92 97.301 997.415 98.2109V110.714C997.415 118.865 1001.43 126.076 1007.57 130.516V135.546L991.685 139.082C979.506 141.796 971 152.416 971 164.917V184H1072.6V164.917C1072.6 152.416 1064.09 141.796 1051.91 139.084ZM995.383 142.431L999.447 141.525V179.929H995.383V142.431ZM1003.51 148.599L1006.26 160.982L1021.8 149.859L1037.34 160.982L1040.09 148.599V179.929H1003.51V148.599ZM1044.15 141.527L1048.21 142.433V179.929H1044.15V141.527ZM1037.81 140.114L1034.7 154.091L1025.12 147.235L1034.53 139.383L1037.81 140.114ZM1048.21 86.2857V90.3571C1048.21 92.6025 1046.39 94.4286 1044.15 94.4286H1042.12C1041 94.4286 1040.09 93.5166 1040.09 92.3929V84.25C1040.09 83.9467 1040.16 83.6576 1040.29 83.393C1040.31 83.3441 1040.35 83.3075 1040.38 83.2627C1040.5 83.053 1040.66 82.8576 1040.85 82.6968C1041.2 82.4097 1041.63 82.2143 1042.12 82.2143H1044.15C1046.39 82.2143 1048.21 84.0403 1048.21 86.2857ZM995.383 90.3571V86.2857C995.383 84.0403 997.206 82.2143 999.447 82.2143H1001.48C1001.96 82.2143 1002.39 82.4097 1002.74 82.6947C1002.94 82.8555 1003.1 83.0489 1003.22 83.2606C1003.24 83.3075 1003.28 83.3441 1003.31 83.3909C1003.44 83.6576 1003.51 83.9467 1003.51 84.25V92.3929C1003.51 93.5166 1002.6 94.4286 1001.48 94.4286H999.447C997.206 94.4286 995.383 92.6025 995.383 90.3571ZM1001.48 110.714V98.5C1004.84 98.5 1007.57 95.7599 1007.57 92.3929V84.25C1007.57 83.8754 1007.53 83.511 1007.46 83.1507C1007.44 83.0489 1007.42 82.9512 1007.4 82.8515C1007.33 82.5787 1007.25 82.314 1007.15 82.0555C1007.12 81.97 1007.09 81.8845 1007.06 81.801C1006.93 81.5059 1006.78 81.2188 1006.6 80.9481C1010.46 76.5591 1015.92 74.0714 1021.8 74.0714C1027.68 74.0714 1033.13 76.5591 1036.99 80.9501C1036.82 81.2209 1036.67 81.5079 1036.54 81.8031C1036.5 81.8845 1036.48 81.97 1036.44 82.0555C1036.34 82.314 1036.26 82.5807 1036.2 82.8515C1036.17 82.9512 1036.15 83.0489 1036.13 83.1507C1036.07 83.511 1036.02 83.8754 1036.02 84.25V92.3929C1036.02 95.7599 1038.76 98.5 1042.12 98.5V110.714C1042.12 121.939 1033 131.071 1021.8 131.071C1010.59 131.071 1001.48 121.939 1001.48 110.714ZM1021.8 135.143C1025.43 135.143 1028.86 134.322 1031.96 132.893V136.226L1021.8 144.709L1011.64 136.226V132.893C1014.73 134.322 1018.17 135.143 1021.8 135.143ZM1009.07 139.383L1018.48 147.235L1008.89 154.091L1005.79 140.114L1009.07 139.383ZM975.064 164.917C975.064 154.775 981.69 146.111 991.319 143.394V179.929H975.064V164.917ZM1068.53 179.929H1052.28V143.394C1061.91 146.111 1068.53 154.777 1068.53 164.917V179.929Z" fill="#3E3E3E"/>
<path d="M1024.85 116.821C1025.41 116.821 1025.86 117.279 1025.86 117.839C1025.86 120.646 1028.14 122.928 1030.94 122.928H1033.99V118.857H1030.94C1030.38 118.857 1029.93 118.399 1029.93 117.839C1029.93 115.032 1027.65 112.75 1024.85 112.75H1021.8H1018.75C1015.95 112.75 1013.67 115.032 1013.67 117.839C1013.67 118.399 1013.22 118.857 1012.65 118.857H1009.61V122.928H1012.65C1015.45 122.928 1017.73 120.646 1017.73 117.839C1017.73 117.279 1018.19 116.821 1018.75 116.821H1021.8H1024.85Z" fill="#3E3E3E"/>
<path d="M1019.66 100.535H1023.93C1024.43 103.98 1027.37 106.643 1030.94 106.643C1034.86 106.643 1038.05 103.447 1038.05 99.5176C1038.05 95.5886 1034.86 92.3926 1030.94 92.3926C1028.12 92.3926 1025.69 94.0659 1024.54 96.464H1019.05C1017.91 94.0659 1015.48 92.3926 1012.65 92.3926C1008.73 92.3926 1005.54 95.5886 1005.54 99.5176C1005.54 103.447 1008.73 106.643 1012.65 106.643C1016.23 106.643 1019.16 103.98 1019.66 100.535ZM1030.94 96.464C1032.62 96.464 1033.99 97.834 1033.99 99.5176C1033.99 101.201 1032.62 102.571 1030.94 102.571C1029.26 102.571 1027.89 101.201 1027.89 99.5176C1027.89 97.834 1029.26 96.464 1030.94 96.464ZM1009.61 99.5176C1009.61 97.834 1010.97 96.464 1012.65 96.464C1014.33 96.464 1015.7 97.834 1015.7 99.5176C1015.7 101.201 1014.33 102.571 1012.65 102.571C1010.97 102.571 1009.61 101.201 1009.61 99.5176Z" fill="#3E3E3E"/>
<path d="M1021.8 159.571C1022.92 159.571 1023.83 158.66 1023.83 157.536C1023.83 156.411 1022.92 155.5 1021.8 155.5C1020.68 155.5 1019.77 156.411 1019.77 157.536C1019.77 158.66 1020.68 159.571 1021.8 159.571Z" fill="#3E3E3E"/>
<path d="M1021.8 167.714C1022.92 167.714 1023.83 166.803 1023.83 165.678C1023.83 164.554 1022.92 163.643 1021.8 163.643C1020.68 163.643 1019.77 164.554 1019.77 165.678C1019.77 166.803 1020.68 167.714 1021.8 167.714Z" fill="#3E3E3E"/>
<path d="M1021.8 175.857C1022.92 175.857 1023.83 174.946 1023.83 173.821C1023.83 172.697 1022.92 171.786 1021.8 171.786C1020.68 171.786 1019.77 172.697 1019.77 173.821C1019.77 174.946 1020.68 175.857 1021.8 175.857Z" fill="#3E3E3E"/>
<path d="M1127.2 281.405C1125.39 281.752 1124.31 282.625 1124.31 283.747C1124.31 284.015 1124.41 284.273 1124.59 284.471C1124.77 284.669 1125.02 284.792 1125.29 284.816C1125.55 284.839 1125.82 284.761 1126.03 284.598C1126.24 284.434 1126.38 284.196 1126.43 283.932C1127.35 283.449 1128.4 283.283 1129.43 283.458C1129.85 283.51 1130.25 283.685 1130.58 283.96C1130.28 283.816 1129.94 283.751 1129.61 283.772C1129.28 283.792 1128.96 283.896 1128.68 284.075C1128.39 284.254 1128.16 284.501 1128 284.794C1127.84 285.087 1127.76 285.416 1127.76 285.749V287.091C1127.76 287.616 1127.97 288.12 1128.34 288.491C1128.72 288.862 1129.22 289.071 1129.74 289.071C1130.27 289.071 1130.77 288.862 1131.15 288.491C1131.52 288.12 1131.73 287.616 1131.73 287.091V285.749C1131.72 285.39 1131.61 285.041 1131.42 284.74C1131.51 284.787 1131.62 284.819 1131.73 284.833C1131.86 284.834 1131.99 284.808 1132.12 284.757C1132.38 284.652 1132.59 284.448 1132.7 284.188C1132.81 283.929 1132.82 283.637 1132.71 283.374C1131.95 281.441 1129.32 280.994 1127.2 281.405Z" fill="#3E3E3E"/>
<path d="M1145.23 302.201C1144.66 302.821 1143.95 303.298 1143.16 303.594C1142.37 303.889 1141.52 303.996 1140.68 303.905C1139.4 303.98 1138.13 303.541 1137.17 302.685C1137.1 302.564 1137 302.459 1136.88 302.376C1136.77 302.293 1136.64 302.235 1136.5 302.204C1136.36 302.173 1136.21 302.17 1136.07 302.196C1135.93 302.221 1135.8 302.275 1135.68 302.353C1135.56 302.431 1135.46 302.532 1135.38 302.65C1135.3 302.768 1135.25 302.901 1135.22 303.041C1135.19 303.181 1135.19 303.325 1135.22 303.464C1135.25 303.603 1135.31 303.735 1135.39 303.852C1136.05 304.579 1136.85 305.152 1137.76 305.529C1138.66 305.906 1139.63 306.078 1140.61 306.033C1140.73 306.033 1140.85 306.033 1140.97 306.033C1142.1 306.098 1143.22 305.901 1144.26 305.458C1145.29 305.014 1146.21 304.336 1146.94 303.477C1147.11 303.251 1147.18 302.967 1147.14 302.688C1147.1 302.408 1146.95 302.156 1146.72 301.986C1146.5 301.817 1146.21 301.744 1145.93 301.784C1145.65 301.824 1145.4 301.973 1145.23 302.199L1145.23 302.201Z" fill="#3E3E3E"/>
<path d="M1140.01 299.587C1140.68 299.585 1141.35 299.459 1141.97 299.214C1142.1 299.164 1142.22 299.088 1142.32 298.991C1142.42 298.894 1142.5 298.779 1142.56 298.65C1142.62 298.522 1142.65 298.385 1142.65 298.245C1142.65 298.105 1142.63 297.966 1142.58 297.836C1142.53 297.705 1142.45 297.586 1142.35 297.485C1142.26 297.384 1142.14 297.303 1142.01 297.247C1141.88 297.191 1141.75 297.16 1141.61 297.157C1141.47 297.154 1141.33 297.179 1141.2 297.23C1140.69 297.479 1140.11 297.55 1139.55 297.432C1138.99 297.314 1138.49 297.013 1138.12 296.578C1137.6 295.703 1138.58 294.725 1139.02 294.346C1139.23 294.163 1139.37 293.901 1139.39 293.62C1139.41 293.338 1139.32 293.06 1139.14 292.845C1138.95 292.63 1138.69 292.497 1138.41 292.475C1138.13 292.453 1137.85 292.544 1137.63 292.728C1136.83 293.235 1136.25 294.025 1136 294.94C1135.76 295.856 1135.86 296.831 1136.3 297.673C1136.7 298.284 1137.25 298.781 1137.9 299.117C1138.55 299.452 1139.28 299.614 1140.01 299.587Z" fill="#3E3E3E"/>
<path d="M1150.09 280.851C1148.29 281.198 1147.21 282.071 1147.21 283.194C1147.21 283.461 1147.3 283.72 1147.48 283.918C1147.66 284.116 1147.91 284.239 1148.18 284.262C1148.45 284.286 1148.71 284.208 1148.92 284.044C1149.13 283.88 1149.28 283.643 1149.32 283.379C1150.24 282.896 1151.29 282.729 1152.32 282.904C1152.75 282.955 1153.15 283.133 1153.48 283.415C1153.22 283.286 1152.93 283.218 1152.64 283.215C1152.11 283.218 1151.61 283.427 1151.24 283.798C1150.87 284.169 1150.66 284.671 1150.66 285.195V286.558C1150.66 287.084 1150.87 287.587 1151.24 287.959C1151.61 288.33 1152.11 288.539 1152.64 288.539C1153.16 288.539 1153.67 288.33 1154.04 287.959C1154.41 287.587 1154.62 287.084 1154.62 286.558V285.195C1154.61 284.835 1154.5 284.485 1154.3 284.184C1154.4 284.232 1154.51 284.264 1154.62 284.28C1154.75 284.28 1154.89 284.254 1155.01 284.203C1155.27 284.098 1155.48 283.894 1155.59 283.635C1155.71 283.376 1155.71 283.083 1155.61 282.821C1154.84 280.887 1152.22 280.442 1150.09 280.851Z" fill="#3E3E3E"/>
<path d="M1155.42 276.543C1152.37 275.593 1149.07 275.794 1146.16 277.107C1145.98 277.216 1145.82 277.359 1145.7 277.529C1145.57 277.698 1145.48 277.891 1145.43 278.095C1145.38 278.3 1145.38 278.512 1145.41 278.72C1145.44 278.928 1145.51 279.128 1145.62 279.308C1145.73 279.487 1145.88 279.643 1146.05 279.767C1146.22 279.891 1146.41 279.98 1146.62 280.029C1146.82 280.077 1147.03 280.085 1147.24 280.052C1147.45 280.018 1147.65 279.944 1147.83 279.833C1149.95 279.023 1152.28 278.937 1154.45 279.588C1154.65 279.652 1154.86 279.675 1155.07 279.658C1155.28 279.64 1155.48 279.581 1155.67 279.485C1155.86 279.388 1156.02 279.256 1156.16 279.096C1156.29 278.935 1156.4 278.75 1156.46 278.55C1156.52 278.35 1156.55 278.139 1156.53 277.93C1156.51 277.721 1156.45 277.518 1156.36 277.331C1156.26 277.145 1156.13 276.979 1155.97 276.844C1155.81 276.709 1155.62 276.606 1155.42 276.543V276.543Z" fill="#3E3E3E"/>
<path d="M1192.01 285.21C1192.4 284.013 1192.47 282.736 1192.21 281.504C1191.96 280.272 1191.39 279.128 1190.56 278.182C1192.31 276.905 1195.01 273.868 1193.61 267.747C1193.25 266.158 1192.45 264.701 1191.3 263.539C1190.16 262.377 1188.72 261.555 1187.13 261.165C1188.28 259.733 1188.9 257.95 1188.89 256.115C1188.88 254.28 1188.24 252.505 1187.07 251.088C1186.06 249.863 1184.74 248.923 1183.26 248.36C1181.77 247.796 1180.17 247.628 1178.59 247.872C1178.64 246.985 1178.51 246.097 1178.2 245.265C1177.88 244.433 1177.4 243.676 1176.78 243.04C1176.07 242.229 1175.17 241.6 1174.17 241.203C1173.16 240.807 1172.08 240.655 1171 240.759C1170.95 240.144 1170.77 239.546 1170.48 238.998C1169.54 237.302 1168 236.019 1166.16 235.401C1164.82 234.902 1163.38 234.711 1161.96 234.843C1160.54 234.975 1159.16 235.426 1157.93 236.164C1156.42 234.477 1154.36 233.39 1152.11 233.099C1149.81 232.771 1147.48 233.262 1145.51 234.486C1145.05 234.81 1144.66 235.222 1144.36 235.697C1142.49 234.889 1140.38 234.833 1138.47 235.542C1137.2 235.973 1136.11 236.794 1135.35 237.884C1134.57 237.232 1133.66 236.745 1132.69 236.454C1131.72 236.163 1130.7 236.074 1129.69 236.191C1128.28 236.332 1126.92 236.767 1125.69 237.47C1124.46 238.172 1123.39 239.125 1122.56 240.267C1121.77 241.321 1121.33 242.598 1121.31 243.915C1119.9 243.742 1118.46 244.022 1117.22 244.715C1115.97 245.408 1114.97 246.478 1114.38 247.772C1113.95 248.7 1113.73 249.711 1113.74 250.733C1113.74 251.754 1113.97 252.762 1114.41 253.686C1113.54 254.006 1112.78 254.541 1112.18 255.241C1111.58 255.941 1111.16 256.782 1110.98 257.685C1110.77 258.644 1110.78 259.636 1111 260.592C1111.21 261.549 1111.64 262.446 1112.24 263.222C1110.59 264.028 1109.27 265.384 1108.51 267.055C1108.05 268.378 1107.89 269.787 1108.03 271.18C1108.17 272.574 1108.62 273.919 1109.34 275.12C1108.39 275.797 1107.66 276.75 1107.26 277.852C1107 278.717 1106.94 279.625 1107.06 280.517C1107.19 281.409 1107.5 282.264 1107.98 283.025C1108.49 283.932 1109.2 284.71 1110.05 285.301C1110.91 285.891 1111.89 286.278 1112.92 286.432C1112.47 287.832 1112.52 289.345 1113.08 290.706C1113.43 291.424 1113.93 292.061 1114.54 292.578C1115.15 293.094 1115.86 293.48 1116.62 293.709C1116.46 294.377 1116.45 295.073 1116.6 295.745C1116.75 296.417 1117.05 297.045 1117.48 297.583C1117.99 298.282 1118.67 298.85 1119.44 299.241C1120.22 299.631 1121.08 299.833 1121.95 299.83C1122.18 299.825 1122.41 299.806 1122.64 299.774C1123.37 304.913 1125.49 309.754 1128.78 313.776C1130.86 315.919 1133.37 317.598 1136.15 318.701C1138.92 319.804 1141.9 320.308 1144.89 320.178C1145.26 320.171 1145.63 320.144 1146 320.097C1146.82 322.893 1147.75 326.503 1146.48 327.444C1145.68 327.943 1144.84 328.371 1143.97 328.722L1143.77 328.813C1143.27 329.045 1142.71 329.305 1142.12 329.563C1141.62 329.776 1141.08 330.016 1140.53 330.274C1139.81 330.598 1139.06 330.945 1138.29 331.326C1137.66 331.631 1136.99 331.965 1136.31 332.318C1133.82 333.566 1131.42 334.99 1129.14 336.578C1124.08 339.911 1119.95 344.476 1117.14 349.843C1114.67 354.82 1116.73 357.665 1118.89 359.177C1120.14 360.03 1121.47 360.75 1122.87 361.325V361.325L1122.9 361.34C1124.2 361.896 1125.54 362.354 1126.91 362.71C1133.74 364.387 1140.77 365.152 1147.8 364.984C1153.25 364.994 1158.68 364.576 1164.06 363.734C1165.42 363.5 1166.72 363.265 1167.95 363.012H1167.99C1174.2 361.872 1180.19 359.771 1185.76 356.785L1186.33 356.434C1188.92 354.858 1192.84 352.477 1191.96 348.573C1190.27 342.125 1186.45 336.442 1181.1 332.455C1180.03 331.582 1178.91 330.767 1177.75 330.012C1177.61 329.916 1177.48 329.828 1177.34 329.748C1176.02 328.872 1174.65 328.08 1173.23 327.376H1173.21C1172.41 326.95 1171.57 326.552 1170.85 326.245C1170.58 326.067 1170.34 325.857 1170.13 325.621C1167.33 322.748 1165.39 315.303 1164.73 310.888C1165.79 310.007 1166.77 309.042 1167.67 308.003C1169.66 305.708 1171.28 303.122 1172.48 300.336C1173.11 300.758 1173.82 301.061 1174.56 301.231C1176.36 301.568 1178.22 301.276 1179.83 300.402C1181.44 299.528 1182.7 298.126 1183.4 296.433C1183.8 296.356 1184.2 296.244 1184.59 296.096C1185.96 295.611 1187.12 294.668 1187.87 293.427C1188.63 292.186 1188.94 290.722 1188.74 289.282C1189.53 288.863 1190.23 288.285 1190.8 287.585C1191.36 286.884 1191.77 286.076 1192.01 285.21V285.21ZM1122.36 358.744C1121.58 358.365 1120.83 357.931 1120.11 357.445C1118.72 356.476 1117.1 354.732 1119.05 350.805C1120.81 347.355 1123.22 344.268 1126.13 341.708C1123.7 347.063 1122.42 352.865 1122.36 358.744V358.744ZM1126.17 360.28C1125.56 360.09 1124.99 359.886 1124.44 359.669C1125.02 348.754 1126.74 344.274 1130.53 338.226C1131.12 337.813 1131.73 337.41 1132.36 337.014C1128.31 344.101 1126.18 352.119 1126.17 360.28ZM1189.88 349.033C1190.39 351.263 1188.07 352.867 1185.22 354.604L1184.64 354.958C1179.68 357.641 1174.34 359.554 1168.8 360.631C1168.99 355.186 1173 337.093 1180.22 334.501C1184.96 338.145 1188.36 343.255 1189.88 349.033V349.033ZM1178.31 332.993C1170.4 337.4 1166.67 355.55 1166.67 361.087C1166.12 361.195 1165.56 361.3 1164.99 361.4C1165.38 353.576 1169.1 336.388 1177.24 332.248C1177.59 332.487 1177.96 332.729 1178.32 332.993H1178.31ZM1169.81 328.095C1170.29 328.308 1170.75 328.549 1171.22 328.775C1167.99 333.818 1159.62 339.446 1152.57 339.731C1147.72 339.93 1143.57 338.728 1141.41 336.537C1140.45 335.587 1139.89 334.308 1139.84 332.959C1140.37 332.704 1140.9 332.446 1141.41 332.218L1141.56 332.152C1141.8 333.642 1142.6 334.987 1143.78 335.926C1143.84 335.971 1143.9 336.012 1143.96 336.049C1146.04 337.497 1148.54 338.224 1151.07 338.121C1151.28 338.121 1151.49 338.121 1151.7 338.109C1155.23 337.757 1158.65 336.675 1161.74 334.932C1164.83 333.188 1167.53 330.822 1169.65 327.983C1169.72 328.019 1169.75 328.055 1169.81 328.091L1169.81 328.095ZM1175.01 299.146C1174.12 298.887 1173.3 298.433 1172.6 297.817C1172.47 297.717 1172.31 297.651 1172.14 297.623C1171.98 297.596 1171.81 297.609 1171.65 297.66C1171.49 297.711 1171.34 297.8 1171.22 297.919C1171.1 298.038 1171.01 298.183 1170.96 298.343C1169.83 301.366 1168.17 304.163 1166.06 306.602C1165.11 307.712 1164.06 308.731 1162.91 309.645C1162.63 309.879 1162.26 310.209 1161.85 310.575C1161.3 311.074 1160.66 311.64 1160.04 312.134C1159.82 312.312 1159.69 312.564 1159.66 312.839C1159.63 313.114 1159.71 313.389 1159.88 313.606C1160.05 313.823 1160.3 313.966 1160.57 314.004C1160.85 314.042 1161.12 313.973 1161.35 313.81C1161.85 313.412 1162.36 312.958 1162.84 312.532C1163.56 316.449 1165.26 323.078 1168.06 326.492C1165.47 331.021 1157.35 335.785 1151.64 335.979C1149.37 336.175 1147.11 335.593 1145.22 334.331C1145.18 334.296 1145.13 334.264 1145.08 334.235C1144.3 333.608 1143.79 332.716 1143.63 331.731C1143.62 331.563 1143.61 331.394 1143.62 331.226L1144.66 330.753L1144.85 330.668C1145.86 330.262 1146.84 329.751 1147.75 329.145C1150.11 327.399 1149.2 323.466 1148.11 319.735C1149.17 319.477 1150.28 319.096 1151.29 318.751C1151.85 318.557 1152.37 318.378 1152.81 318.246C1152.94 318.206 1153.07 318.141 1153.18 318.053C1153.29 317.965 1153.38 317.856 1153.44 317.733C1153.51 317.61 1153.55 317.475 1153.57 317.336C1153.58 317.197 1153.57 317.057 1153.53 316.923C1153.49 316.789 1153.42 316.664 1153.34 316.555C1153.25 316.446 1153.14 316.356 1153.02 316.289C1152.89 316.222 1152.76 316.181 1152.62 316.166C1152.48 316.151 1152.34 316.164 1152.21 316.204C1151.74 316.342 1151.19 316.532 1150.59 316.736C1149.29 317.232 1147.95 317.611 1146.59 317.867C1146.02 317.967 1145.45 318.027 1144.88 318.046C1142.2 318.172 1139.51 317.73 1137.01 316.747C1134.51 315.765 1132.24 314.266 1130.36 312.347C1127.14 308.315 1125.12 303.459 1124.53 298.332C1124.28 296.946 1123.98 294.005 1123.66 290.892C1123.32 287.529 1122.96 284.077 1122.64 282.246C1123.16 281.761 1123.61 281.198 1123.96 280.578C1124.17 280.596 1124.38 280.574 1124.58 280.512C1126.85 279.83 1129.28 279.83 1131.55 280.512C1131.96 280.641 1132.4 280.603 1132.77 280.409C1133.15 280.214 1133.43 279.878 1133.56 279.474C1133.69 279.07 1133.65 278.632 1133.46 278.255C1133.26 277.879 1132.93 277.595 1132.52 277.467C1130.07 276.732 1127.48 276.625 1124.98 277.156C1125.01 276.625 1124.98 276.092 1124.9 275.567C1126.61 275.912 1128.4 275.671 1129.96 274.884C1130.9 274.341 1131.66 273.524 1132.12 272.541C1132.96 273.455 1134.01 274.146 1135.18 274.552C1136.35 274.957 1137.6 275.064 1138.83 274.862C1139.87 274.716 1140.88 274.363 1141.78 273.824C1142.69 273.286 1143.48 272.572 1144.11 271.726C1144.82 272.471 1145.7 273.048 1146.66 273.417C1147.63 273.785 1148.66 273.935 1149.69 273.855C1150.49 273.869 1151.28 273.723 1152.01 273.427C1152.75 273.13 1153.42 272.688 1153.98 272.128C1154.26 272.697 1154.62 273.219 1155.06 273.676C1155.9 274.464 1156.89 275.071 1157.97 275.46C1159.05 275.848 1160.2 276.01 1161.35 275.936C1160.93 276.844 1160.7 277.83 1160.69 278.83C1160.67 279.831 1160.86 280.824 1161.25 281.745C1161.61 282.495 1162.13 283.16 1162.76 283.696C1163.4 284.231 1164.14 284.624 1164.94 284.848C1164.93 285.614 1165.08 286.374 1165.37 287.081C1165.66 287.789 1166.1 288.429 1166.65 288.962C1167.24 289.414 1167.92 289.731 1168.64 289.891C1169.37 290.05 1170.12 290.048 1170.84 289.884C1170.81 290.724 1170.96 291.561 1171.28 292.337C1171.6 293.114 1172.09 293.813 1172.7 294.386C1173.45 294.883 1174.31 295.183 1175.2 295.257C1176.1 295.332 1176.99 295.179 1177.81 294.812C1178.62 295.703 1179.7 296.302 1180.88 296.516C1180.3 297.509 1179.42 298.295 1178.37 298.766C1177.32 299.237 1176.15 299.368 1175.02 299.142L1175.01 299.146Z" fill="#3E3E3E"/>
<path d="M638.985 163.079C641.534 163.079 646.402 164.047 648.092 164.943V175.701H654.592V172.065H651.728V163.341L651.248 162.818C648.953 160.324 640.848 159.442 638.985 159.442C636.192 159.442 633.569 160.529 631.595 162.503L634.168 165.074C635.454 163.787 637.164 163.079 638.985 163.079Z" fill="#3E3E3E"/>
<path d="M655.309 165.281C656.204 164.309 662.025 163.079 664.897 163.079C666.72 163.079 668.429 163.787 669.713 165.073L672.288 162.503C670.318 160.529 667.693 159.442 664.899 159.442C663.036 159.442 654.932 160.324 652.634 162.818L655.309 165.281Z" fill="#3E3E3E"/>
<path d="M640.634 165.968H637.586C636.582 165.968 635.768 166.783 635.768 167.786C635.768 168.79 636.582 169.605 637.586 169.605H640.634C641.638 169.605 642.453 168.79 642.453 167.786C642.453 166.783 641.638 165.968 640.634 165.968Z" fill="#3E3E3E"/>
<path d="M665.536 165.968H662.486C661.483 165.968 660.668 166.783 660.668 167.786C660.668 168.79 661.483 169.605 662.486 169.605H665.536C666.54 169.605 667.354 168.79 667.354 167.786C667.354 166.783 666.541 165.968 665.536 165.968Z" fill="#3E3E3E"/>
<path d="M657.369 177.907H645.304V181.544H657.369V177.907Z" fill="#3E3E3E"/>
<path d="M655.084 182.479H647.718V186.115H655.084V182.479Z" fill="#3E3E3E"/>
<path d="M678.711 199.485C678.72 199.194 678.755 198.909 678.755 198.614V175.651C679.69 172.815 680.212 169.792 680.212 166.648V155.874C680.212 139.953 667.26 127 651.338 127C650.521 127 649.718 127.055 648.918 127.122V127.112C617.206 127.112 614.7 157.395 614.674 157.829V205.927C608.708 211.792 605 219.946 605 228.951V255.911H697.802V228.951C697.802 215.846 689.95 204.547 678.711 199.485ZM682.931 206.246C679.414 221.142 666.018 231.85 650.61 231.85C635.493 231.85 622.479 221.809 618.555 207.315C619.934 206.118 621.426 205.053 623.016 204.134C625.59 217.017 636.981 226.759 650.61 226.759C664.512 226.759 676.061 216.617 678.324 203.35C679.955 204.172 681.495 205.142 682.931 206.246ZM626.102 198.614V180.639C628.716 185.335 632.601 189.225 637.292 191.849V196.649C633.36 196.65 629.592 197.359 626.105 198.653C626.104 198.64 626.102 198.627 626.102 198.614ZM676.458 153.558C664.463 155.528 654.92 143.029 653.157 140.546V137.967C657.087 142.392 664.461 148.459 675.58 148.923C676.009 150.418 676.313 151.964 676.458 153.558ZM649.52 131.966C648.223 134.046 641.429 143.9 628.512 145.179C632.302 137.124 640.211 131.397 649.52 130.728V131.966ZM627.097 148.923C638.22 148.454 645.595 142.379 649.52 137.954V140.61C641.797 153.83 630.348 154.498 626.184 154.252C626.302 152.415 626.607 150.632 627.097 148.923ZM626.102 162.859V157.855C626.415 157.867 626.747 157.877 627.116 157.877C632.478 157.877 643.535 156.277 651.468 144.37C655.129 149.016 664.501 158.95 676.576 157.224V166.646C676.576 180.56 665.255 191.881 651.338 191.881C637.421 191.881 626.101 180.56 626.101 166.646V162.859H626.102ZM640.928 193.545C644.163 194.802 647.666 195.517 651.34 195.517C655.18 195.517 658.839 194.749 662.195 193.38V204.871C652.61 212.013 643.442 206.617 640.928 204.852V193.545ZM637.292 200.285V206.62L637.952 207.165C638.043 207.239 644.031 212.074 652.037 212.074C656.064 212.074 660.602 210.849 665.155 207.178L665.833 206.633V200.301C668.999 200.336 672.034 200.902 674.876 201.891C673.267 213.857 663.014 223.123 650.613 223.123C638.402 223.123 628.28 214.138 626.434 202.439C629.784 201.059 633.448 200.287 637.292 200.285ZM675.119 198.112C672.179 197.193 669.06 196.689 665.83 196.657V191.578C669.52 189.424 672.701 186.493 675.119 182.986V198.112ZM674.166 145.18C661.277 143.909 654.48 134.1 653.158 131.985V130.729C662.467 131.397 670.375 137.124 674.166 145.18ZM618.306 157.96C618.366 157.167 619.534 143.657 630.466 135.979C625.522 141.163 622.466 148.161 622.466 155.874V162.859V166.646V198.614C622.466 199.159 622.517 199.692 622.547 200.228C621.065 200.993 619.649 201.868 618.31 202.844L618.306 157.96ZM608.636 228.951C608.636 221.806 611.281 215.28 615.621 210.254C620.341 224.528 633.195 234.446 648.265 235.387V252.274H627.436V234.088H623.8V252.274H608.636V228.951ZM694.166 252.274H680.212V234.088H676.576V252.274H651.901V235.429C667.801 234.868 681.578 224.093 686.001 208.958C691.044 214.128 694.164 221.177 694.164 228.951V252.274H694.166Z" fill="#3E3E3E"/>
<path d="M653.379 154.123H649.743V157.829H653.379V154.123Z" fill="#3E3E3E"/>
<path d="M616.576 232.984V231.45H618.111V227.813H616.576V226.279H612.94V227.813H611.405V231.45H612.94V232.984H616.576ZM613.747 230.644V228.621H615.77V230.644H613.747Z" fill="#3E3E3E"/>
<path d="M637.292 216.984H640.928V215.45H642.463V211.813H640.928V210.279H637.292V211.813H635.757V215.45H637.292V216.984ZM638.098 214.644V212.621H640.121V214.644H638.098Z" fill="#3E3E3E"/>
<path d="M656.619 219.166H660.255V217.632H661.789V213.995H660.255V212.461H656.619V213.995H655.084V217.632H656.619V219.166ZM657.426 216.826V214.803H659.449V216.826H657.426Z" fill="#3E3E3E"/>
<path d="M633.939 245.991H637.576V244.456H639.11V240.82H637.576V239.285H633.939V240.82H632.405V244.456H633.939V245.991ZM634.747 243.649V241.625H636.77V243.649H634.747Z" fill="#3E3E3E"/>
<path d="M669.181 235.934H665.545V237.469H664.01V241.105H665.545V242.638H669.181V241.103H670.716V237.467H669.181V235.934ZM668.374 238.274V240.298H666.351V238.274H668.374Z" fill="#3E3E3E"/>
<path d="M688.474 242.638H684.838V244.173H683.303V247.809H684.838V249.344H688.474V247.809H690.009V244.173H688.474V242.638ZM687.667 244.979V247.002H685.644V244.979H687.667Z" fill="#3E3E3E"/>
<path d="M689.485 220.746H685.848V222.281H684.314V225.917H685.848V227.451H689.485V225.917H691.019V222.281H689.485V220.746ZM688.678 223.088V225.111H686.656V223.088H688.678Z" fill="#3E3E3E"/>
<path d="M660.255 243.649H656.619V245.183H655.084V248.82H656.619V250.354H660.255V248.82H661.789V245.183H660.255V243.649ZM659.449 245.991V248.014H657.426V245.991H659.449Z" fill="#3E3E3E"/>
<path d="M621.462 243.161H619.928V241.626H616.291V243.161H614.758V246.797H616.293V248.331H619.929V246.797H621.464V243.161H621.462ZM619.122 243.968V245.991H617.099V243.968H619.122Z" fill="#3E3E3E"/>
<path d="M583.164 456.124V466.65H589.524V463.092H586.722V454.555L586.252 454.044C584.006 451.604 576.076 450.741 574.253 450.741C571.521 450.741 568.953 451.804 567.022 453.736L569.54 456.252C570.798 454.994 572.471 454.299 574.253 454.299C576.747 454.299 581.509 455.246 583.164 456.124Z" fill="#3E3E3E"/>
<path d="M599.607 454.299C601.39 454.299 603.062 454.992 604.319 456.25L606.838 453.736C604.911 451.804 602.342 450.741 599.608 450.741C597.785 450.741 589.857 451.604 587.608 454.044L590.227 456.454C591.1 455.502 596.796 454.299 599.607 454.299Z" fill="#3E3E3E"/>
<path d="M575.866 460.685C576.848 460.685 577.645 459.888 577.645 458.906C577.645 457.924 576.848 457.127 575.866 457.127H572.883C571.901 457.127 571.104 457.924 571.104 458.906C571.104 459.888 571.901 460.685 572.883 460.685H575.866Z" fill="#3E3E3E"/>
<path d="M600.232 457.127H597.247C596.265 457.127 595.468 457.924 595.468 458.906C595.468 459.888 596.265 460.685 597.247 460.685H600.232C601.214 460.685 602.011 459.888 602.011 458.906C602.011 457.924 601.215 457.127 600.232 457.127Z" fill="#3E3E3E"/>
<path d="M600.758 474.995L599.565 471.644C596.357 472.786 594.314 469.93 594.095 469.61L593.568 468.809H580.435L579.484 468.819L578.955 469.601C578.731 469.931 576.683 472.784 573.48 471.645L572.286 474.997C573.219 475.328 574.109 475.471 574.947 475.471C577.806 475.471 580.058 473.813 581.31 472.367H591.735C593.354 474.235 596.652 476.458 600.758 474.995Z" fill="#3E3E3E"/>
<path d="M590.005 473.282H582.798V476.84H590.005V473.282Z" fill="#3E3E3E"/>
<path d="M600.519 487.155V482.185C607.794 477.94 612.995 470.549 614.26 461.882C614.408 461.892 614.549 461.926 614.698 461.926C618.38 461.926 621.374 458.932 621.374 455.25C621.374 451.57 618.38 448.575 614.698 448.575C614.663 448.575 614.627 448.584 614.591 448.585V447.252C614.591 431.673 601.918 419 586.34 419C570.762 419 558.088 431.673 558.088 447.252V448.577C558.082 448.577 558.077 448.575 558.071 448.575C554.391 448.575 551.395 451.57 551.395 455.25C551.395 458.932 554.389 461.926 558.071 461.926C558.189 461.926 558.303 461.898 558.42 461.892C559.713 470.73 565.09 478.251 572.593 482.45V487.146C555.173 487.152 541 501.328 541 518.752V545.131H631.802V518.752C631.802 501.434 617.798 487.33 600.519 487.155ZM605.731 513.821H616.726V515.956H605.731V513.821ZM616.726 510.263H605.731V491.258C609.784 492.072 613.506 493.781 616.726 496.144V510.263ZM614.698 452.132C616.417 452.132 617.816 453.529 617.816 455.249C617.816 456.968 616.417 458.367 614.698 458.367C614.653 458.367 614.609 458.355 614.562 458.354C614.566 458.165 614.591 457.981 614.591 457.79V452.14C614.627 452.14 614.663 452.132 614.698 452.132ZM610.874 444.515C603.263 443.534 597.478 436.539 595.945 434.508C596.235 432.799 596.906 428.523 596.981 424.999C604.494 428.608 609.918 435.888 610.874 444.515ZM586.34 422.557C588.8 422.557 591.173 422.929 593.416 423.601C593.548 426.681 592.818 431.73 592.401 434.117C580.044 447.71 566.098 446.601 561.719 445.83C562.46 432.876 573.202 422.557 586.34 422.557ZM558.073 458.368C556.353 458.368 554.954 456.969 554.954 455.25C554.954 453.531 556.353 452.133 558.073 452.133C558.078 452.133 558.084 452.135 558.09 452.135V457.793C558.09 457.987 558.115 458.173 558.119 458.365C558.104 458.364 558.088 458.368 558.073 458.368ZM561.648 457.79V449.421C562.894 449.613 564.598 449.792 566.647 449.792C573.488 449.792 584.111 447.804 593.923 437.706C596.535 440.906 602.765 447.351 611.033 448.113V457.79C611.033 471.404 599.957 482.481 586.34 482.481C572.723 482.481 561.648 471.406 561.648 457.79ZM586.34 486.039C590.097 486.039 593.678 485.288 596.961 483.948V495.192C587.582 502.179 578.612 496.899 576.153 495.173V484.108C579.319 485.339 582.746 486.039 586.34 486.039ZM572.596 490.704V496.902L573.242 497.436C573.33 497.509 579.19 502.239 587.023 502.239C590.964 502.239 595.404 501.041 599.859 497.449L600.522 496.915V490.72C601.08 490.726 601.626 490.764 602.176 490.804V519.514H620.284V499.219C625.2 504.274 628.244 511.161 628.244 518.752V534.49H613.407V523.781H609.849V541.575H562.953V523.779H559.395V534.489H544.558V518.752C544.558 503.29 557.135 490.71 572.596 490.704ZM544.558 538.047H559.395V541.573H544.558V538.047ZM613.407 541.573V538.047H628.244V541.573H613.407Z" fill="#3E3E3E"/>
<path d="M84.3026 145H114.729V136.435H94.8494V127.464H113.173V118.878H94.8494V109.929H114.729V101.364H84.3026V145ZM131.753 126.335C131.774 122.607 133.947 120.391 137.25 120.391C140.553 120.391 142.513 122.564 142.491 126.186V145H152.911V124.141C152.932 116.768 148.436 111.847 141.554 111.847C136.717 111.847 133.053 114.297 131.604 118.281H131.241V112.273H121.334V145H131.753V126.335ZM189.936 112.273H178.963L172.912 134.815H172.571L166.542 112.273H155.569L166.776 145H178.708L189.936 112.273ZM193.931 145H204.35V112.273H193.931V145ZM199.152 108.459C202.113 108.459 204.5 106.222 204.5 103.473C204.5 100.724 202.113 98.5085 199.152 98.5085C196.211 98.5085 193.804 100.724 193.804 103.473C193.804 106.222 196.211 108.459 199.152 108.459ZM239.555 122.266C239.001 115.788 233.695 111.847 224.832 111.847C215.968 111.847 210.322 115.703 210.364 122.266C210.322 127.294 213.539 130.533 220.08 131.747L225.79 132.834C228.496 133.366 229.732 134.219 229.775 135.668C229.732 137.308 227.9 138.395 225.237 138.395C222.275 138.395 220.272 137.116 219.825 134.73L209.533 134.986C210.279 141.463 215.84 145.618 225.194 145.618C233.951 145.618 240.322 141.25 240.364 134.517C240.322 129.744 237.168 126.911 230.648 125.653L224.342 124.46C221.572 123.906 220.677 122.926 220.698 121.669C220.677 120.007 222.616 118.984 225.023 118.984C227.772 118.984 229.69 120.455 229.988 122.521L239.555 122.266ZM245.494 145H255.913V112.273H245.494V145ZM250.714 108.459C253.676 108.459 256.062 106.222 256.062 103.473C256.062 100.724 253.676 98.5085 250.714 98.5085C247.774 98.5085 245.366 100.724 245.366 103.473C245.366 106.222 247.774 108.459 250.714 108.459ZM277.822 145.618C288.113 145.618 294.356 138.821 294.356 128.743C294.356 118.643 288.113 111.847 277.822 111.847C267.531 111.847 261.288 118.643 261.288 128.743C261.288 138.821 267.531 145.618 277.822 145.618ZM277.886 137.756C274.029 137.756 271.898 134.091 271.898 128.679C271.898 123.246 274.029 119.56 277.886 119.56C281.614 119.56 283.745 123.246 283.745 128.679C283.745 134.091 281.614 137.756 277.886 137.756ZM310.112 126.335C310.134 122.607 312.307 120.391 315.609 120.391C318.912 120.391 320.872 122.564 320.851 126.186V145H331.27V124.141C331.291 116.768 326.795 111.847 319.913 111.847C315.077 111.847 311.412 114.297 309.963 118.281H309.601V112.273H299.693V145H310.112V126.335ZM337.721 145H348.14V112.273H337.721V145ZM342.941 108.459C345.902 108.459 348.289 106.222 348.289 103.473C348.289 100.724 345.902 98.5085 342.941 98.5085C340 98.5085 337.593 100.724 337.593 103.473C337.593 106.222 340 108.459 342.941 108.459ZM365.19 126.335C365.212 122.607 367.385 120.391 370.688 120.391C373.99 120.391 375.95 122.564 375.929 126.186V145H386.348V124.141C386.369 116.768 381.874 111.847 374.991 111.847C370.155 111.847 366.49 114.297 365.041 118.281H364.679V112.273H354.771V145H365.19V126.335ZM408.054 157.955C417.919 157.955 424.652 153.459 424.652 145.128V112.273H414.276V117.876H413.978C412.721 114.872 409.865 111.847 404.709 111.847C397.87 111.847 391.669 117.109 391.669 128.594C391.669 139.716 397.571 144.553 404.752 144.553C409.567 144.553 412.784 142.315 414.02 139.29H414.382V145.043C414.382 149.219 411.826 150.732 408.331 150.732C404.986 150.732 402.983 149.453 402.429 147.429L392.564 147.983C393.331 153.714 398.722 157.955 408.054 157.955ZM408.374 136.967C404.517 136.967 402.365 133.835 402.365 128.594C402.365 123.374 404.496 119.986 408.374 119.986C412.188 119.986 414.404 123.288 414.404 128.594C414.404 133.857 412.167 136.967 408.374 136.967ZM82.875 182.929H96.1278V218H106.526V182.929H119.757V174.364H82.875V182.929ZM135.439 218.618C145.73 218.618 151.973 211.821 151.973 201.743C151.973 191.643 145.73 184.847 135.439 184.847C125.148 184.847 118.905 191.643 118.905 201.743C118.905 211.821 125.148 218.618 135.439 218.618ZM135.503 210.756C131.646 210.756 129.516 207.091 129.516 201.679C129.516 196.246 131.646 192.56 135.503 192.56C139.232 192.56 141.362 196.246 141.362 201.679C141.362 207.091 139.232 210.756 135.503 210.756ZM172.566 230.955C182.431 230.955 189.164 226.459 189.164 218.128V185.273H178.788V190.876H178.489C177.232 187.872 174.377 184.847 169.221 184.847C162.381 184.847 156.181 190.109 156.181 201.594C156.181 212.716 162.083 217.553 169.263 217.553C174.079 217.553 177.296 215.315 178.532 212.29H178.894V218.043C178.894 222.219 176.337 223.732 172.843 223.732C169.498 223.732 167.495 222.453 166.941 220.429L157.076 220.983C157.843 226.714 163.234 230.955 172.566 230.955ZM172.886 209.967C169.029 209.967 166.877 206.835 166.877 201.594C166.877 196.374 169.008 192.986 172.886 192.986C176.7 192.986 178.915 196.288 178.915 201.594C178.915 206.857 176.678 209.967 172.886 209.967ZM211.105 218.618C219.691 218.618 225.338 214.463 226.531 208.028L216.964 207.751C216.154 209.925 214.024 211.097 211.297 211.097C207.291 211.097 204.819 208.433 204.819 204.428V204.151H226.637V201.551C226.637 190.77 220.075 184.847 210.785 184.847C200.899 184.847 194.549 191.622 194.549 201.764C194.549 212.247 200.814 218.618 211.105 218.618ZM204.819 198.099C204.968 194.839 207.547 192.368 210.998 192.368C214.429 192.368 216.9 194.754 216.943 198.099H204.819ZM250.432 185.273H244.53V177.432H234.111V185.273H229.786V192.943H234.111V208.859C234.047 215.486 238.351 218.81 245.702 218.469C248.216 218.341 250.027 217.83 251.028 217.531L249.452 210.01C249.004 210.116 247.96 210.33 247.172 210.33C245.489 210.33 244.53 209.648 244.53 207.709V192.943H250.432V185.273ZM266.87 199.335C266.891 195.607 269.107 193.391 272.41 193.391C275.755 193.391 277.694 195.543 277.673 199.186V218H288.092V197.141C288.113 189.726 283.596 184.847 276.714 184.847C271.813 184.847 268.362 187.254 266.891 191.281H266.529V174.364H256.451V218H266.87V199.335ZM309.894 218.618C318.48 218.618 324.127 214.463 325.32 208.028L315.753 207.751C314.944 209.925 312.813 211.097 310.086 211.097C306.08 211.097 303.608 208.433 303.608 204.428V204.151H325.426V201.551C325.426 190.77 318.864 184.847 309.574 184.847C299.688 184.847 293.338 191.622 293.338 201.764C293.338 212.247 299.603 218.618 309.894 218.618ZM303.608 198.099C303.757 194.839 306.336 192.368 309.787 192.368C313.218 192.368 315.689 194.754 315.732 198.099H303.608ZM330.748 218H341.167V200.23C341.167 196.331 343.937 193.71 347.665 193.71C348.901 193.71 350.755 193.923 351.756 194.264V185.209C350.883 184.974 349.796 184.825 348.837 184.825C345.258 184.825 342.403 186.913 341.21 191.239H340.869V185.273H330.748V218Z" fill="black"/>
</svg>
