<svg width="1374" height="726" viewBox="0 0 1374 726" fill="none" xmlns="http://www.w3.org/2000/svg">
<rect width="1355" height="726" fill="#F5F5F5"/>
<path d="M200 367.504L1000 142V583L200 367.504Z" fill="#EEE6CD"/>
<path d="M200 367.553L1000 327V407L200 367.553Z" fill="#F8D974"/>
<path d="M182.649 357.525C182.853 354.063 180.129 351.177 176.702 351.177H160.11L161.885 341.426C161.895 341.367 161.901 341.307 161.901 341.247C161.901 337.016 159.433 332.964 155.906 331.397C155.329 331.134 154.721 331 154.097 331C151.946 331 150.112 332.596 149.8 334.724L147.643 342.544C146.377 347.128 143.336 351.037 139.3 353.267C138.686 353.606 138.143 353.941 137.679 354.242C137.325 352.578 135.846 351.325 134.078 351.325H124.685C122.653 351.325 121 352.977 121 355.008V390.316C121 392.347 122.653 394 124.685 394H134.078C136.11 394 137.762 392.347 137.762 390.316V389.972C141.04 391.96 144.863 393.046 148.722 393.046H171.852C175.129 393.046 177.937 390.51 178.111 387.388C178.212 385.442 177.397 383.691 176.031 382.517C178.061 381.611 179.503 379.695 179.631 377.421C179.72 375.475 178.901 373.723 177.528 372.544C179.555 371.625 181.027 369.691 181.151 367.459C181.251 365.541 180.463 363.791 179.058 362.578C181.082 361.663 182.542 359.74 182.649 357.525ZM135.762 390.316C135.762 391.245 135.007 392.001 134.078 392.001H124.685C123.756 392.001 123 391.245 123 390.316V355.008C123 354.08 123.756 353.325 124.685 353.325H134.078C135.007 353.325 135.762 354.08 135.762 355.008V356.107V388.107V390.316H135.762ZM176.422 361.147H175.185C175.183 361.147 175.181 361.146 175.18 361.146H161.478C160.925 361.146 160.478 361.593 160.478 362.146C160.478 362.699 160.925 363.146 161.478 363.146H175.177C175.179 363.146 175.18 363.147 175.182 363.147C177.455 363.147 179.273 365.057 179.153 367.351C179.038 369.427 177.126 371.117 174.892 371.117H173.662C173.66 371.117 173.659 371.118 173.657 371.118H158.615C158.063 371.118 157.615 371.565 157.615 372.118C157.615 372.67 158.063 373.118 158.615 373.118H173.659C173.661 373.118 173.662 373.117 173.663 373.117C175.933 373.118 177.736 375.03 177.634 377.321C177.518 379.392 175.61 381.077 173.382 381.077H172.142C172.119 381.077 172.101 381.088 172.079 381.089H155.753C155.2 381.089 154.753 381.537 154.753 382.089C154.753 382.642 155.2 383.089 155.753 383.089H172.139C172.154 383.089 172.167 383.081 172.182 383.081C174.475 383.103 176.23 385.027 176.113 387.281C175.998 389.357 174.086 391.046 171.852 391.046H148.722C144.813 391.046 140.941 389.824 137.762 387.595V356.608C138.243 356.258 139.147 355.635 140.267 355.017C144.772 352.529 148.163 348.176 149.57 343.077L151.745 335.193C151.758 335.148 151.767 335.102 151.773 335.055C151.969 333.549 153.63 332.555 155.085 333.221C157.851 334.45 159.866 337.778 159.901 341.159L157.929 351.999C157.816 352.608 158.286 353.177 158.912 353.177H176.702C178.953 353.177 180.79 355.069 180.652 357.417C180.553 359.474 178.654 361.147 176.422 361.147Z" fill="#525252"/>
<path d="M127.769 386.76C127.769 388.256 128.981 389.473 130.472 389.473C131.962 389.473 133.175 388.256 133.175 386.76C133.175 383.231 127.769 383.233 127.769 386.76ZM130.472 388.473C129.532 388.473 128.769 387.705 128.769 386.76C128.769 385.594 129.624 385.073 130.472 385.073C131.319 385.073 132.175 385.594 132.175 386.76C132.175 387.705 131.411 388.473 130.472 388.473Z" fill="#525252"/>
<path d="M645.795 360.663H650.291V373H652.905V360.663H657.401V358.455H645.795V360.663ZM662.772 373.213C665.314 373.213 667.061 371.97 667.516 370.074L665.115 369.804C664.767 370.727 663.915 371.21 662.807 371.21C661.145 371.21 660.044 370.116 660.023 368.249H667.623V367.46C667.623 363.632 665.321 361.949 662.637 361.949C659.512 361.949 657.473 364.243 657.473 367.609C657.473 371.033 659.483 373.213 662.772 373.213ZM660.03 366.516C660.108 365.124 661.138 363.952 662.672 363.952C664.15 363.952 665.144 365.031 665.158 366.516H660.03ZM674.556 373.213C677.298 373.213 679.045 371.587 679.229 369.271H676.772C676.552 370.443 675.707 371.118 674.577 371.118C672.972 371.118 671.935 369.776 671.935 367.545C671.935 365.344 672.994 364.023 674.577 364.023C675.813 364.023 676.573 364.818 676.772 365.869H679.229C679.052 363.504 677.205 361.949 674.542 361.949C671.346 361.949 669.329 364.257 669.329 367.588C669.329 370.891 671.296 373.213 674.556 373.213ZM683.912 366.608C683.912 365.031 684.892 364.122 686.27 364.122C687.619 364.122 688.414 364.982 688.414 366.452V373H690.985V366.054C690.985 363.419 689.494 361.949 687.228 361.949C685.552 361.949 684.487 362.709 683.983 363.945H683.855V358.455H681.341V373H683.912V366.608ZM696.177 366.608C696.177 365.031 697.129 364.122 698.485 364.122C699.814 364.122 700.609 364.996 700.609 366.452V373H703.18V366.054C703.187 363.44 701.696 361.949 699.444 361.949C697.811 361.949 696.689 362.73 696.191 363.945H696.064V362.091H693.606V373H696.177V366.608ZM710.552 373.213C713.748 373.213 715.779 370.962 715.779 367.588C715.779 364.207 713.748 361.949 710.552 361.949C707.356 361.949 705.325 364.207 705.325 367.588C705.325 370.962 707.356 373.213 710.552 373.213ZM710.566 371.153C708.798 371.153 707.931 369.577 707.931 367.581C707.931 365.585 708.798 363.987 710.566 363.987C712.306 363.987 713.173 365.585 713.173 367.581C713.173 369.577 712.306 371.153 710.566 371.153ZM720.533 358.455H717.962V373H720.533V358.455ZM727.935 373.213C731.131 373.213 733.162 370.962 733.162 367.588C733.162 364.207 731.131 361.949 727.935 361.949C724.739 361.949 722.708 364.207 722.708 367.588C722.708 370.962 724.739 373.213 727.935 373.213ZM727.949 371.153C726.181 371.153 725.314 369.577 725.314 367.581C725.314 365.585 726.181 363.987 727.949 363.987C729.689 363.987 730.556 365.585 730.556 367.581C730.556 369.577 729.689 371.153 727.949 371.153ZM740.089 377.318C743.036 377.318 745.21 375.969 745.21 373.178V362.091H742.674V363.895H742.532C742.141 363.107 741.325 361.949 739.4 361.949C736.879 361.949 734.897 363.923 734.897 367.51C734.897 371.068 736.879 372.844 739.393 372.844C741.261 372.844 742.134 371.842 742.532 371.04H742.66V373.107C742.66 374.712 741.594 375.372 740.131 375.372C738.583 375.372 737.901 374.641 737.589 374.001L735.273 374.562C735.742 376.089 737.312 377.318 740.089 377.318ZM740.11 370.827C738.413 370.827 737.518 369.506 737.518 367.496C737.518 365.514 738.398 364.058 740.11 364.058C741.765 364.058 742.674 365.429 742.674 367.496C742.674 369.577 741.751 370.827 740.11 370.827ZM747.844 373H750.415V362.091H747.844V373ZM749.137 360.543C749.954 360.543 750.621 359.918 750.621 359.151C750.621 358.376 749.954 357.751 749.137 357.751C748.313 357.751 747.646 358.376 747.646 359.151C747.646 359.918 748.313 360.543 749.137 360.543ZM757.818 373.213C760.559 373.213 762.306 371.587 762.491 369.271H760.034C759.814 370.443 758.968 371.118 757.839 371.118C756.234 371.118 755.197 369.776 755.197 367.545C755.197 365.344 756.255 364.023 757.839 364.023C759.075 364.023 759.835 364.818 760.034 365.869H762.491C762.314 363.504 760.467 361.949 757.804 361.949C754.608 361.949 752.591 364.257 752.591 367.588C752.591 370.891 754.558 373.213 757.818 373.213ZM767.741 373.22C769.453 373.22 770.476 372.418 770.945 371.501H771.03V373H773.501V365.699C773.501 362.815 771.151 361.949 769.07 361.949C766.776 361.949 765.014 362.972 764.446 364.96L766.847 365.301C767.102 364.555 767.827 363.916 769.084 363.916C770.277 363.916 770.93 364.527 770.93 365.599V365.642C770.93 366.381 770.156 366.416 768.232 366.622C766.115 366.849 764.091 367.482 764.091 369.939C764.091 372.084 765.661 373.22 767.741 373.22ZM768.409 371.331C767.337 371.331 766.57 370.841 766.57 369.896C766.57 368.909 767.429 368.497 768.58 368.334C769.254 368.241 770.604 368.071 770.938 367.801V369.087C770.938 370.301 769.957 371.331 768.409 371.331ZM778.658 358.455H776.087V373H778.658V358.455ZM791.021 373.213C794.217 373.213 796.248 370.962 796.248 367.588C796.248 364.207 794.217 361.949 791.021 361.949C787.825 361.949 785.794 364.207 785.794 367.588C785.794 370.962 787.825 373.213 791.021 373.213ZM791.035 371.153C789.267 371.153 788.4 369.577 788.4 367.581C788.4 365.585 789.267 363.987 791.035 363.987C792.775 363.987 793.642 365.585 793.642 367.581C793.642 369.577 792.775 371.153 791.035 371.153ZM798.43 377.091H801.001V371.281H801.108C801.513 372.077 802.358 373.192 804.233 373.192C806.804 373.192 808.729 371.153 808.729 367.56C808.729 363.923 806.747 361.949 804.226 361.949C802.301 361.949 801.499 363.107 801.108 363.895H800.959V362.091H798.43V377.091ZM800.952 367.545C800.952 365.429 801.861 364.058 803.516 364.058C805.227 364.058 806.108 365.514 806.108 367.545C806.108 369.591 805.213 371.082 803.516 371.082C801.875 371.082 800.952 369.662 800.952 367.545ZM816.378 362.091H814.226V359.477H811.655V362.091H810.107V364.08H811.655V370.145C811.641 372.197 813.132 373.206 815.064 373.149C815.795 373.128 816.3 372.986 816.577 372.893L816.143 370.884C816.001 370.919 815.71 370.983 815.391 370.983C814.744 370.983 814.226 370.756 814.226 369.719V364.08H816.378V362.091ZM818.528 373H821.099V362.091H818.528V373ZM819.821 360.543C820.637 360.543 821.305 359.918 821.305 359.151C821.305 358.376 820.637 357.751 819.821 357.751C818.997 357.751 818.329 358.376 818.329 359.151C818.329 359.918 818.997 360.543 819.821 360.543ZM823.743 373H826.314V366.366C826.314 365.024 827.209 364.115 828.317 364.115C829.403 364.115 830.149 364.847 830.149 365.969V373H832.67V366.196C832.67 364.967 833.402 364.115 834.645 364.115C835.682 364.115 836.506 364.726 836.506 366.075V373H839.084V365.678C839.084 363.241 837.678 361.949 835.675 361.949C834.091 361.949 832.884 362.73 832.401 363.945H832.287C831.868 362.709 830.81 361.949 829.339 361.949C827.876 361.949 826.783 362.702 826.328 363.945H826.2V362.091H823.743V373ZM841.692 373H844.263V362.091H841.692V373ZM842.985 360.543C843.801 360.543 844.469 359.918 844.469 359.151C844.469 358.376 843.801 357.751 842.985 357.751C842.161 357.751 841.493 358.376 841.493 359.151C841.493 359.918 842.161 360.543 842.985 360.543ZM855.529 364.974C855.174 363.128 853.697 361.949 851.14 361.949C848.512 361.949 846.722 363.241 846.729 365.259C846.722 366.849 847.702 367.901 849.798 368.334L851.658 368.724C852.66 368.945 853.129 369.349 853.129 369.967C853.129 370.713 852.319 371.274 851.097 371.274C849.918 371.274 849.151 370.763 848.931 369.783L846.424 370.024C846.744 372.027 848.427 373.213 851.104 373.213C853.832 373.213 855.756 371.8 855.763 369.733C855.756 368.178 854.755 367.226 852.695 366.778L850.835 366.381C849.727 366.132 849.286 365.749 849.293 365.116C849.286 364.378 850.103 363.866 851.175 363.866C852.362 363.866 852.987 364.513 853.185 365.23L855.529 364.974ZM857.884 373H860.455V366.366C860.455 365.024 861.349 364.115 862.457 364.115C863.544 364.115 864.29 364.847 864.29 365.969V373H866.811V366.196C866.811 364.967 867.543 364.115 868.786 364.115C869.822 364.115 870.646 364.726 870.646 366.075V373H873.224V365.678C873.224 363.241 871.818 361.949 869.815 361.949C868.232 361.949 867.024 362.73 866.541 363.945H866.428C866.009 362.709 864.95 361.949 863.48 361.949C862.017 361.949 860.923 362.702 860.469 363.945H860.341V362.091H857.884V373Z" fill="black"/>
<path d="M688.432 265.727C688.432 261.026 685.562 258.256 681.749 258.256C677.928 258.256 675.065 261.026 675.065 265.727C675.065 270.422 677.928 273.199 681.749 273.199C685.562 273.199 688.432 270.429 688.432 265.727ZM685.783 265.727C685.783 269.037 684.121 270.834 681.749 270.834C679.384 270.834 677.714 269.037 677.714 265.727C677.714 262.418 679.384 260.621 681.749 260.621C684.121 260.621 685.783 262.418 685.783 265.727ZM696.257 262.091H694.105V259.477H691.534V262.091H689.985V264.08H691.534V270.145C691.52 272.197 693.011 273.206 694.943 273.149C695.674 273.128 696.179 272.986 696.456 272.893L696.022 270.884C695.88 270.919 695.589 270.983 695.27 270.983C694.623 270.983 694.105 270.756 694.105 269.719V264.08H696.257V262.091ZM701.212 266.608C701.212 265.031 702.192 264.122 703.57 264.122C704.92 264.122 705.715 264.982 705.715 266.452V273H708.286V266.054C708.286 263.419 706.795 261.949 704.529 261.949C702.853 261.949 701.788 262.709 701.283 263.945H701.156V258.455H698.641V273H701.212V266.608ZM715.737 273.213C718.279 273.213 720.026 271.97 720.481 270.074L718.08 269.804C717.732 270.727 716.88 271.21 715.772 271.21C714.11 271.21 713.009 270.116 712.988 268.249H720.587V267.46C720.587 263.632 718.286 261.949 715.602 261.949C712.477 261.949 710.438 264.243 710.438 267.609C710.438 271.033 712.448 273.213 715.737 273.213ZM712.995 266.516C713.073 265.124 714.103 263.952 715.637 263.952C717.114 263.952 718.109 265.031 718.123 266.516H712.995ZM722.762 273H725.333V266.587C725.333 265.202 726.377 264.222 727.791 264.222C728.224 264.222 728.764 264.3 728.984 264.371V262.006C728.75 261.963 728.345 261.935 728.061 261.935C726.811 261.935 725.767 262.645 725.369 263.909H725.255V262.091H722.762V273ZM735.653 277.091H738.224V271.281H738.331C738.735 272.077 739.581 273.192 741.456 273.192C744.027 273.192 745.951 271.153 745.951 267.56C745.951 263.923 743.97 261.949 741.449 261.949C739.524 261.949 738.721 263.107 738.331 263.895H738.181V262.091H735.653V277.091ZM738.174 267.545C738.174 265.429 739.083 264.058 740.738 264.058C742.45 264.058 743.331 265.514 743.331 267.545C743.331 269.591 742.436 271.082 740.738 271.082C739.098 271.082 738.174 269.662 738.174 267.545ZM752.912 273.213C756.108 273.213 758.139 270.962 758.139 267.588C758.139 264.207 756.108 261.949 752.912 261.949C749.716 261.949 747.684 264.207 747.684 267.588C747.684 270.962 749.716 273.213 752.912 273.213ZM752.926 271.153C751.157 271.153 750.291 269.577 750.291 267.581C750.291 265.585 751.157 263.987 752.926 263.987C754.666 263.987 755.532 265.585 755.532 267.581C755.532 269.577 754.666 271.153 752.926 271.153ZM768.943 264.974C768.588 263.128 767.111 261.949 764.554 261.949C761.926 261.949 760.136 263.241 760.143 265.259C760.136 266.849 761.116 267.901 763.212 268.334L765.072 268.724C766.074 268.945 766.543 269.349 766.543 269.967C766.543 270.713 765.733 271.274 764.511 271.274C763.332 271.274 762.565 270.763 762.345 269.783L759.838 270.024C760.158 272.027 761.841 273.213 764.518 273.213C767.246 273.213 769.17 271.8 769.178 269.733C769.17 268.178 768.169 267.226 766.109 266.778L764.249 266.381C763.141 266.132 762.7 265.749 762.707 265.116C762.7 264.378 763.517 263.866 764.589 263.866C765.776 263.866 766.401 264.513 766.599 265.23L768.943 264.974ZM779.92 264.974C779.565 263.128 778.087 261.949 775.531 261.949C772.903 261.949 771.113 263.241 771.12 265.259C771.113 266.849 772.093 267.901 774.188 268.334L776.049 268.724C777.05 268.945 777.519 269.349 777.519 269.967C777.519 270.713 776.71 271.274 775.488 271.274C774.309 271.274 773.542 270.763 773.322 269.783L770.815 270.024C771.134 272.027 772.817 273.213 775.495 273.213C778.222 273.213 780.147 271.8 780.154 269.733C780.147 268.178 779.146 267.226 777.086 266.778L775.225 266.381C774.117 266.132 773.677 265.749 773.684 265.116C773.677 264.378 774.494 263.866 775.566 263.866C776.752 263.866 777.377 264.513 777.576 265.23L779.92 264.974ZM782.274 273H784.845V262.091H782.274V273ZM783.567 260.543C784.384 260.543 785.051 259.918 785.051 259.151C785.051 258.376 784.384 257.751 783.567 257.751C782.743 257.751 782.075 258.376 782.075 259.151C782.075 259.918 782.743 260.543 783.567 260.543ZM787.603 273H790.131V271.281H790.28C790.685 272.077 791.53 273.192 793.405 273.192C795.976 273.192 797.901 271.153 797.901 267.56C797.901 263.923 795.919 261.949 793.398 261.949C791.473 261.949 790.671 263.107 790.28 263.895H790.174V258.455H787.603V273ZM790.124 267.545C790.124 265.429 791.033 264.058 792.688 264.058C794.4 264.058 795.28 265.514 795.28 267.545C795.28 269.591 794.385 271.082 792.688 271.082C791.047 271.082 790.124 269.662 790.124 267.545ZM802.658 258.455H800.087V273H802.658V258.455ZM810.131 273.213C812.674 273.213 814.421 271.97 814.875 270.074L812.475 269.804C812.127 270.727 811.275 271.21 810.167 271.21C808.505 271.21 807.404 270.116 807.382 268.249H814.982V267.46C814.982 263.632 812.681 261.949 809.996 261.949C806.871 261.949 804.833 264.243 804.833 267.609C804.833 271.033 806.843 273.213 810.131 273.213ZM807.39 266.516C807.468 265.124 808.498 263.952 810.032 263.952C811.509 263.952 812.503 265.031 812.517 266.516H807.39ZM827.643 262.091H825.378V261.232C825.378 260.379 825.733 259.903 826.692 259.903C827.097 259.903 827.438 259.996 827.651 260.06L828.169 258.071C827.835 257.957 827.104 257.773 826.216 257.773C824.32 257.773 822.807 258.859 822.807 261.061V262.091H821.195V264.08H822.807V273H825.378V264.08H827.643V262.091ZM836.61 268.412C836.61 270.074 835.424 270.898 834.288 270.898C833.052 270.898 832.228 270.024 832.228 268.639V262.091H829.657V269.037C829.657 271.658 831.148 273.142 833.293 273.142C834.927 273.142 836.077 272.283 836.575 271.061H836.688V273H839.181V262.091H836.61V268.412ZM847.272 262.091H845.12V259.477H842.549V262.091H841.001V264.08H842.549V270.145C842.535 272.197 844.027 273.206 845.958 273.149C846.69 273.128 847.194 272.986 847.471 272.893L847.038 270.884C846.896 270.919 846.605 270.983 846.285 270.983C845.639 270.983 845.12 270.756 845.12 269.719V264.08H847.272V262.091ZM856.376 268.412C856.376 270.074 855.19 270.898 854.053 270.898C852.817 270.898 851.994 270.024 851.994 268.639V262.091H849.423V269.037C849.423 271.658 850.914 273.142 853.059 273.142C854.692 273.142 855.843 272.283 856.34 271.061H856.454V273H858.947V262.091H856.376V268.412ZM861.591 273H864.162V266.587C864.162 265.202 865.206 264.222 866.619 264.222C867.052 264.222 867.592 264.3 867.812 264.371V262.006C867.578 261.963 867.173 261.935 866.889 261.935C865.639 261.935 864.595 262.645 864.197 263.909H864.083V262.091H861.591V273ZM873.901 273.213C876.443 273.213 878.19 271.97 878.645 270.074L876.244 269.804C875.896 270.727 875.044 271.21 873.936 271.21C872.274 271.21 871.173 270.116 871.152 268.249H878.751V267.46C878.751 263.632 876.45 261.949 873.766 261.949C870.641 261.949 868.602 264.243 868.602 267.609C868.602 271.033 870.612 273.213 873.901 273.213ZM871.159 266.516C871.237 265.124 872.267 263.952 873.801 263.952C875.278 263.952 876.273 265.031 876.287 266.516H871.159ZM889.549 264.974C889.194 263.128 887.716 261.949 885.159 261.949C882.532 261.949 880.742 263.241 880.749 265.259C880.742 266.849 881.722 267.901 883.817 268.334L885.678 268.724C886.679 268.945 887.148 269.349 887.148 269.967C887.148 270.713 886.338 271.274 885.117 271.274C883.938 271.274 883.171 270.763 882.951 269.783L880.444 270.024C880.763 272.027 882.446 273.213 885.124 273.213C887.851 273.213 889.776 271.8 889.783 269.733C889.776 268.178 888.775 267.226 886.715 266.778L884.854 266.381C883.746 266.132 883.306 265.749 883.313 265.116C883.306 264.378 884.123 263.866 885.195 263.866C886.381 263.866 887.006 264.513 887.205 265.23L889.549 264.974Z" fill="black"/>
<circle cx="972" cy="371" r="9" fill="#4664AF"/>
<circle cx="954" cy="289" r="9" fill="#8BA0D6"/>
<circle cx="972" cy="237" r="9" fill="#4664AF"/>
<circle cx="906" cy="298" r="9" fill="#8BA0D6"/>
<circle cx="924" cy="448" r="9" fill="#8BA0D6"/>
<circle cx="981" cy="478" r="9" fill="#8BA0D6"/>
<circle cx="933" cy="518" r="9" fill="#8BA0D6"/>
<circle cx="888" cy="496" r="9" fill="#8BA0D6"/>
<circle cx="972" cy="550" r="9" fill="#8BA0D6"/>
<circle cx="963" cy="193" r="9" fill="#8BA0D6"/>
<circle cx="915" cy="219" r="9" fill="#8BA0D6"/>
<path d="M1104.24 447.674H1106.89C1106.85 445.341 1104.94 443.73 1102.02 443.73C1099.15 443.73 1097.05 445.315 1097.06 447.693C1097.05 449.624 1098.42 450.729 1100.63 451.26L1102.05 451.618C1103.48 451.963 1104.27 452.372 1104.28 453.254C1104.27 454.213 1103.36 454.865 1101.96 454.865C1100.52 454.865 1099.48 454.2 1099.39 452.89H1096.72C1096.79 455.722 1098.81 457.185 1101.99 457.185C1105.19 457.185 1107.06 455.658 1107.07 453.261C1107.06 451.081 1105.42 449.924 1103.15 449.413L1101.97 449.131C1100.83 448.869 1099.88 448.447 1099.9 447.508C1099.9 446.664 1100.65 446.044 1102 446.044C1103.33 446.044 1104.14 446.645 1104.24 447.674ZM1108.88 460.682H1111.6V455.428H1111.69C1112.06 456.246 1112.89 457.16 1114.47 457.16C1116.71 457.16 1118.46 455.389 1118.46 452.104C1118.46 448.729 1116.64 447.054 1114.48 447.054C1112.84 447.054 1112.05 448.032 1111.69 448.831H1111.57V447.182H1108.88V460.682ZM1111.55 452.091C1111.55 450.339 1112.29 449.221 1113.61 449.221C1114.96 449.221 1115.68 450.391 1115.68 452.091C1115.68 453.804 1114.95 454.993 1113.61 454.993C1112.3 454.993 1111.55 453.842 1111.55 452.091ZM1120.27 457H1123V451.445C1123 450.237 1123.88 449.406 1125.08 449.406C1125.46 449.406 1125.97 449.47 1126.23 449.553V447.137C1125.99 447.08 1125.65 447.041 1125.37 447.041C1124.27 447.041 1123.37 447.68 1123.01 448.895H1122.91V447.182H1120.27V457ZM1131.65 457.192C1134.08 457.192 1135.72 456.009 1136.1 454.188L1133.59 454.021C1133.31 454.769 1132.61 455.159 1131.7 455.159C1130.34 455.159 1129.48 454.258 1129.48 452.794V452.788H1136.16V452.04C1136.16 448.703 1134.14 447.054 1131.55 447.054C1128.66 447.054 1126.78 449.106 1126.78 452.136C1126.78 455.249 1128.63 457.192 1131.65 457.192ZM1129.48 451.1C1129.53 449.982 1130.38 449.087 1131.59 449.087C1132.77 449.087 1133.59 449.93 1133.6 451.1H1129.48ZM1140.74 457.185C1142.19 457.185 1143.13 456.553 1143.61 455.638H1143.68V457H1146.27V450.378C1146.27 448.038 1144.29 447.054 1142.1 447.054C1139.75 447.054 1138.2 448.179 1137.82 449.969L1140.34 450.173C1140.53 449.521 1141.11 449.042 1142.09 449.042C1143.01 449.042 1143.54 449.509 1143.54 450.314V450.352C1143.54 450.985 1142.87 451.068 1141.17 451.234C1139.22 451.413 1137.48 452.065 1137.48 454.258C1137.48 456.201 1138.87 457.185 1140.74 457.185ZM1141.52 455.306C1140.68 455.306 1140.08 454.916 1140.08 454.168C1140.08 453.401 1140.71 453.024 1141.67 452.89C1142.27 452.807 1143.24 452.666 1143.56 452.449V453.491C1143.56 454.52 1142.71 455.306 1141.52 455.306ZM1152 457.16C1153.58 457.16 1154.41 456.246 1154.78 455.428H1154.9V457H1157.58V443.909H1154.87V448.831H1154.78C1154.42 448.032 1153.63 447.054 1151.99 447.054C1149.84 447.054 1148.02 448.729 1148.02 452.104C1148.02 455.389 1149.76 457.16 1152 457.16ZM1152.86 454.993C1151.52 454.993 1150.8 453.804 1150.8 452.091C1150.8 450.391 1151.51 449.221 1152.86 449.221C1154.18 449.221 1154.93 450.339 1154.93 452.091C1154.93 453.842 1154.17 454.993 1152.86 454.993ZM1159.82 457H1162.55V447.182H1159.82V457ZM1161.19 445.916C1162 445.916 1162.67 445.296 1162.67 444.536C1162.67 443.781 1162 443.161 1161.19 443.161C1160.39 443.161 1159.72 443.781 1159.72 444.536C1159.72 445.296 1160.39 445.916 1161.19 445.916ZM1167.45 451.324C1167.46 450.058 1168.21 449.317 1169.31 449.317C1170.4 449.317 1171.06 450.033 1171.06 451.234V457H1173.78V450.749C1173.78 448.46 1172.44 447.054 1170.39 447.054C1168.93 447.054 1167.88 447.77 1167.44 448.914H1167.32V447.182H1164.73V457H1167.45V451.324ZM1180.35 460.886C1183.15 460.886 1185.15 459.608 1185.15 457.096V447.182H1182.44V448.831H1182.34C1181.98 448.032 1181.18 447.054 1179.54 447.054C1177.38 447.054 1175.56 448.729 1175.56 452.072C1175.56 455.338 1177.33 456.859 1179.54 456.859C1181.11 456.859 1181.98 456.073 1182.34 455.261H1182.46V457.058C1182.46 458.406 1181.59 458.93 1180.41 458.93C1179.21 458.93 1178.6 458.406 1178.38 457.812L1175.86 458.151C1176.19 459.697 1177.7 460.886 1180.35 460.886ZM1180.41 454.814C1179.07 454.814 1178.34 453.753 1178.34 452.059C1178.34 450.391 1179.06 449.221 1180.41 449.221C1181.73 449.221 1182.47 450.339 1182.47 452.059C1182.47 453.791 1181.72 454.814 1180.41 454.814ZM1191.48 460.682H1194.2V455.428H1194.29C1194.66 456.246 1195.49 457.16 1197.07 457.16C1199.31 457.16 1201.06 455.389 1201.06 452.104C1201.06 448.729 1199.23 447.054 1197.08 447.054C1195.44 447.054 1194.65 448.032 1194.29 448.831H1194.17V447.182H1191.48V460.682ZM1194.15 452.091C1194.15 450.339 1194.89 449.221 1196.21 449.221C1197.56 449.221 1198.28 450.391 1198.28 452.091C1198.28 453.804 1197.55 454.993 1196.21 454.993C1194.9 454.993 1194.15 453.842 1194.15 452.091ZM1207.31 457.192C1210.29 457.192 1212.14 455.153 1212.14 452.129C1212.14 449.087 1210.29 447.054 1207.31 447.054C1204.33 447.054 1202.48 449.087 1202.48 452.129C1202.48 455.153 1204.33 457.192 1207.31 457.192ZM1207.32 455.082C1205.95 455.082 1205.24 453.823 1205.24 452.11C1205.24 450.397 1205.95 449.131 1207.32 449.131C1208.67 449.131 1209.37 450.397 1209.37 452.11C1209.37 453.823 1208.67 455.082 1207.32 455.082ZM1222.08 449.982C1221.84 448.173 1220.38 447.054 1217.9 447.054C1215.39 447.054 1213.73 448.217 1213.74 450.109C1213.73 451.58 1214.66 452.532 1216.58 452.915L1218.28 453.254C1219.13 453.427 1219.52 453.74 1219.54 454.232C1219.52 454.814 1218.89 455.229 1217.94 455.229C1216.97 455.229 1216.32 454.814 1216.15 454.015L1213.48 454.156C1213.73 456.035 1215.33 457.192 1217.93 457.192C1220.48 457.192 1222.3 455.894 1222.3 453.957C1222.3 452.538 1221.37 451.688 1219.47 451.298L1217.69 450.94C1216.77 450.742 1216.44 450.429 1216.44 449.956C1216.44 449.368 1217.1 448.984 1217.94 448.984C1218.89 448.984 1219.45 449.502 1219.59 450.135L1222.08 449.982ZM1224.02 457H1226.74V447.182H1224.02V457ZM1225.39 445.916C1226.2 445.916 1226.86 445.296 1226.86 444.536C1226.86 443.781 1226.2 443.161 1225.39 443.161C1224.58 443.161 1223.92 443.781 1223.92 444.536C1223.92 445.296 1224.58 445.916 1225.39 445.916ZM1234.14 447.182H1232.3V444.83H1229.57V447.182H1228.23V449.227H1229.57V454.341C1229.56 456.265 1230.87 457.217 1232.85 457.134C1233.55 457.109 1234.05 456.968 1234.32 456.879L1233.9 454.852C1233.76 454.878 1233.47 454.942 1233.22 454.942C1232.67 454.942 1232.3 454.737 1232.3 453.983V449.227H1234.14V447.182ZM1235.92 457H1238.64V447.182H1235.92V457ZM1237.29 445.916C1238.1 445.916 1238.76 445.296 1238.76 444.536C1238.76 443.781 1238.1 443.161 1237.29 443.161C1236.48 443.161 1235.82 443.781 1235.82 444.536C1235.82 445.296 1236.48 445.916 1237.29 445.916ZM1249.98 447.182H1247.09L1245.06 454.207H1244.96L1242.92 447.182H1240.04L1243.48 457H1246.54L1249.98 447.182ZM1251.37 457H1254.09V447.182H1251.37V457ZM1252.74 445.916C1253.55 445.916 1254.21 445.296 1254.21 444.536C1254.21 443.781 1253.55 443.161 1252.74 443.161C1251.93 443.161 1251.27 443.781 1251.27 444.536C1251.27 445.296 1251.93 445.916 1252.74 445.916ZM1261.5 447.182H1259.65V444.83H1256.93V447.182H1255.58V449.227H1256.93V454.341C1256.91 456.265 1258.22 457.217 1260.2 457.134C1260.9 457.109 1261.4 456.968 1261.68 456.879L1261.25 454.852C1261.11 454.878 1260.83 454.942 1260.57 454.942C1260.03 454.942 1259.65 454.737 1259.65 453.983V449.227H1261.5V447.182ZM1264.95 460.682C1266.98 460.682 1268.05 459.646 1268.61 458.061L1272.42 447.195L1269.54 447.182L1267.49 454.392H1267.39L1265.35 447.182H1262.49L1266.01 457.281L1265.85 457.697C1265.49 458.617 1264.81 458.662 1263.85 458.368L1263.24 460.401C1263.63 460.567 1264.26 460.682 1264.95 460.682ZM1099.89 482.185C1101.34 482.185 1102.28 481.553 1102.76 480.638H1102.83V482H1105.42V475.378C1105.42 473.038 1103.43 472.054 1101.25 472.054C1098.9 472.054 1097.35 473.179 1096.97 474.969L1099.49 475.173C1099.68 474.521 1100.26 474.042 1101.24 474.042C1102.16 474.042 1102.69 474.509 1102.69 475.314V475.352C1102.69 475.985 1102.02 476.068 1100.31 476.234C1098.37 476.413 1096.63 477.065 1096.63 479.258C1096.63 481.201 1098.01 482.185 1099.89 482.185ZM1100.67 480.306C1099.83 480.306 1099.23 479.916 1099.23 479.168C1099.23 478.401 1099.86 478.024 1100.82 477.89C1101.41 477.807 1102.39 477.666 1102.71 477.449V478.491C1102.71 479.52 1101.86 480.306 1100.67 480.306ZM1110.25 476.324C1110.26 475.058 1111.01 474.317 1112.11 474.317C1113.2 474.317 1113.86 475.033 1113.86 476.234V482H1116.58V475.749C1116.58 473.46 1115.24 472.054 1113.19 472.054C1111.73 472.054 1110.68 472.77 1110.24 473.914H1110.12V472.182H1107.53V482H1110.25V476.324ZM1122.34 482.16C1123.93 482.16 1124.75 481.246 1125.13 480.428H1125.25V482H1127.93V468.909H1125.21V473.831H1125.13C1124.77 473.032 1123.98 472.054 1122.34 472.054C1120.18 472.054 1118.36 473.729 1118.36 477.104C1118.36 480.389 1120.11 482.16 1122.34 482.16ZM1123.21 479.993C1121.87 479.993 1121.14 478.804 1121.14 477.091C1121.14 475.391 1121.86 474.221 1123.21 474.221C1124.53 474.221 1125.27 475.339 1125.27 477.091C1125.27 478.842 1124.52 479.993 1123.21 479.993ZM1137.06 468.909H1134.33V482H1137.06V468.909ZM1143.68 482.192C1146.65 482.192 1148.51 480.153 1148.51 477.129C1148.51 474.087 1146.65 472.054 1143.68 472.054C1140.7 472.054 1138.84 474.087 1138.84 477.129C1138.84 480.153 1140.7 482.192 1143.68 482.192ZM1143.69 480.082C1142.31 480.082 1141.61 478.823 1141.61 477.11C1141.61 475.397 1142.31 474.131 1143.69 474.131C1145.04 474.131 1145.74 475.397 1145.74 477.11C1145.74 478.823 1145.04 480.082 1143.69 480.082ZM1159.1 472.182H1156.21L1154.18 479.207H1154.08L1152.04 472.182H1149.16L1152.6 482H1155.66L1159.1 472.182ZM1164.63 482.192C1167.06 482.192 1168.7 481.009 1169.08 479.188L1166.56 479.021C1166.29 479.769 1165.58 480.159 1164.68 480.159C1163.31 480.159 1162.45 479.258 1162.45 477.794V477.788H1169.14V477.04C1169.14 473.703 1167.12 472.054 1164.52 472.054C1161.63 472.054 1159.76 474.106 1159.76 477.136C1159.76 480.249 1161.61 482.192 1164.63 482.192ZM1162.45 476.1C1162.51 474.982 1163.36 474.087 1164.57 474.087C1165.75 474.087 1166.57 474.93 1166.57 476.1H1162.45Z" fill="black"/>
<path d="M1096.64 303.191H1100.65V314H1103.38V303.191H1107.39V300.909H1096.64V303.191ZM1112.16 314.192C1114.59 314.192 1116.23 313.009 1116.61 311.188L1114.09 311.021C1113.82 311.769 1113.11 312.159 1112.21 312.159C1110.84 312.159 1109.98 311.258 1109.98 309.794V309.788H1116.67V309.04C1116.67 305.703 1114.65 304.054 1112.05 304.054C1109.16 304.054 1107.29 306.106 1107.29 309.136C1107.29 312.249 1109.14 314.192 1112.16 314.192ZM1109.98 308.1C1110.04 306.982 1110.89 306.087 1112.1 306.087C1113.28 306.087 1114.1 306.93 1114.1 308.1H1109.98ZM1122.92 314.192C1125.35 314.192 1126.98 313.009 1127.37 311.188L1124.85 311.021C1124.57 311.769 1123.87 312.159 1122.96 312.159C1121.6 312.159 1120.74 311.258 1120.74 309.794V309.788H1127.42V309.04C1127.42 305.703 1125.41 304.054 1122.81 304.054C1119.92 304.054 1118.05 306.106 1118.05 309.136C1118.05 312.249 1119.9 314.192 1122.92 314.192ZM1120.74 308.1C1120.8 306.982 1121.65 306.087 1122.85 306.087C1124.04 306.087 1124.86 306.93 1124.86 308.1H1120.74ZM1131.92 308.324C1131.93 307.058 1132.69 306.317 1133.78 306.317C1134.88 306.317 1135.54 307.033 1135.53 308.234V314H1138.25V307.749C1138.25 305.46 1136.91 304.054 1134.87 304.054C1133.41 304.054 1132.35 304.77 1131.91 305.914H1131.8V304.182H1129.2V314H1131.92V308.324ZM1148.57 306.982C1148.33 305.173 1146.87 304.054 1144.39 304.054C1141.88 304.054 1140.22 305.217 1140.23 307.109C1140.22 308.58 1141.15 309.532 1143.06 309.915L1144.76 310.254C1145.62 310.427 1146.01 310.74 1146.02 311.232C1146.01 311.814 1145.38 312.229 1144.43 312.229C1143.45 312.229 1142.81 311.814 1142.64 311.015L1139.96 311.156C1140.22 313.035 1141.82 314.192 1144.42 314.192C1146.96 314.192 1148.79 312.894 1148.79 310.957C1148.79 309.538 1147.86 308.688 1145.95 308.298L1144.18 307.94C1143.26 307.742 1142.92 307.429 1142.93 306.956C1142.92 306.368 1143.59 305.984 1144.43 305.984C1145.38 305.984 1145.94 306.502 1146.08 307.135L1148.57 306.982ZM1159.1 317.886C1161.9 317.886 1163.9 316.608 1163.9 314.096V304.182H1161.19V305.831H1161.09C1160.73 305.032 1159.93 304.054 1158.28 304.054C1156.13 304.054 1154.31 305.729 1154.31 309.072C1154.31 312.338 1156.08 313.859 1158.29 313.859C1159.86 313.859 1160.73 313.073 1161.09 312.261H1161.21V314.058C1161.21 315.406 1160.34 315.93 1159.16 315.93C1157.96 315.93 1157.35 315.406 1157.13 314.812L1154.61 315.151C1154.93 316.697 1156.45 317.886 1159.1 317.886ZM1159.15 311.814C1157.82 311.814 1157.09 310.753 1157.09 309.059C1157.09 307.391 1157.8 306.221 1159.15 306.221C1160.48 306.221 1161.22 307.339 1161.22 309.059C1161.22 310.791 1160.46 311.814 1159.15 311.814ZM1170.54 314.192C1172.97 314.192 1174.6 313.009 1174.99 311.188L1172.47 311.021C1172.19 311.769 1171.49 312.159 1170.58 312.159C1169.22 312.159 1168.36 311.258 1168.36 309.794V309.788H1175.04V309.04C1175.04 305.703 1173.02 304.054 1170.43 304.054C1167.54 304.054 1165.67 306.106 1165.67 309.136C1165.67 312.249 1167.51 314.192 1170.54 314.192ZM1168.36 308.1C1168.42 306.982 1169.27 306.087 1170.47 306.087C1171.66 306.087 1172.47 306.93 1172.48 308.1H1168.36ZM1182.04 304.182H1180.2V301.83H1177.47V304.182H1176.13V306.227H1177.47V311.341C1177.46 313.265 1178.77 314.217 1180.75 314.134C1181.45 314.109 1181.95 313.968 1182.22 313.879L1181.79 311.852C1181.66 311.878 1181.37 311.942 1181.12 311.942C1180.57 311.942 1180.2 311.737 1180.2 310.983V306.227H1182.04V304.182ZM1189.04 304.182H1187.19V301.83H1184.47V304.182H1183.13V306.227H1184.47V311.341C1184.46 313.265 1185.77 314.217 1187.74 314.134C1188.44 314.109 1188.94 313.968 1189.22 313.879L1188.79 311.852C1188.66 311.878 1188.37 311.942 1188.11 311.942C1187.57 311.942 1187.19 311.737 1187.19 310.983V306.227H1189.04V304.182ZM1190.81 314H1193.54V304.182H1190.81V314ZM1192.18 302.916C1192.99 302.916 1193.66 302.296 1193.66 301.536C1193.66 300.781 1192.99 300.161 1192.18 300.161C1191.38 300.161 1190.71 300.781 1190.71 301.536C1190.71 302.296 1191.38 302.916 1192.18 302.916ZM1198.44 308.324C1198.45 307.058 1199.2 306.317 1200.3 306.317C1201.39 306.317 1202.05 307.033 1202.05 308.234V314H1204.77V307.749C1204.77 305.46 1203.43 304.054 1201.38 304.054C1199.92 304.054 1198.87 304.77 1198.43 305.914H1198.31V304.182H1195.72V314H1198.44V308.324ZM1211.34 317.886C1214.14 317.886 1216.14 316.608 1216.14 314.096V304.182H1213.43V305.831H1213.33C1212.97 305.032 1212.17 304.054 1210.53 304.054C1208.37 304.054 1206.55 305.729 1206.55 309.072C1206.55 312.338 1208.32 313.859 1210.53 313.859C1212.1 313.859 1212.97 313.073 1213.33 312.261H1213.45V314.058C1213.45 315.406 1212.58 315.93 1211.4 315.93C1210.2 315.93 1209.59 315.406 1209.37 314.812L1206.85 315.151C1207.18 316.697 1208.69 317.886 1211.34 317.886ZM1211.4 311.814C1210.06 311.814 1209.33 310.753 1209.33 309.059C1209.33 307.391 1210.05 306.221 1211.4 306.221C1212.72 306.221 1213.46 307.339 1213.46 309.059C1213.46 310.791 1212.71 311.814 1211.4 311.814ZM1100.7 339.16C1102.29 339.16 1103.11 338.246 1103.49 337.428H1103.61V339H1106.29V325.909H1103.57V330.831H1103.49C1103.13 330.032 1102.34 329.054 1100.7 329.054C1098.54 329.054 1096.72 330.729 1096.72 334.104C1096.72 337.389 1098.47 339.16 1100.7 339.16ZM1101.57 336.993C1100.23 336.993 1099.5 335.804 1099.5 334.091C1099.5 332.391 1100.22 331.221 1101.57 331.221C1102.89 331.221 1103.63 332.339 1103.63 334.091C1103.63 335.842 1102.88 336.993 1101.57 336.993ZM1113 339.192C1115.43 339.192 1117.07 338.009 1117.45 336.188L1114.93 336.021C1114.66 336.769 1113.96 337.159 1113.05 337.159C1111.69 337.159 1110.82 336.258 1110.82 334.794V334.788H1117.51V334.04C1117.51 330.703 1115.49 329.054 1112.9 329.054C1110.01 329.054 1108.13 331.106 1108.13 334.136C1108.13 337.249 1109.98 339.192 1113 339.192ZM1110.82 333.1C1110.88 331.982 1111.73 331.087 1112.94 331.087C1114.12 331.087 1114.94 331.93 1114.95 333.1H1110.82ZM1119.29 342.682H1122.01V337.428H1122.09C1122.47 338.246 1123.3 339.16 1124.88 339.16C1127.12 339.16 1128.86 337.389 1128.86 334.104C1128.86 330.729 1127.04 329.054 1124.89 329.054C1123.24 329.054 1122.46 330.032 1122.09 330.831H1121.97V329.182H1119.29V342.682ZM1121.95 334.091C1121.95 332.339 1122.69 331.221 1124.02 331.221C1125.37 331.221 1126.08 332.391 1126.08 334.091C1126.08 335.804 1125.35 336.993 1124.02 336.993C1122.71 336.993 1121.95 335.842 1121.95 334.091ZM1130.68 339H1133.4V333.445C1133.4 332.237 1134.28 331.406 1135.49 331.406C1135.86 331.406 1136.38 331.47 1136.64 331.553V329.137C1136.39 329.08 1136.05 329.041 1135.78 329.041C1134.68 329.041 1133.78 329.68 1133.42 330.895H1133.32V329.182H1130.68V339ZM1142.06 339.192C1144.49 339.192 1146.13 338.009 1146.51 336.188L1143.99 336.021C1143.72 336.769 1143.01 337.159 1142.11 337.159C1140.74 337.159 1139.88 336.258 1139.88 334.794V334.788H1146.57V334.04C1146.57 330.703 1144.55 329.054 1141.95 329.054C1139.06 329.054 1137.19 331.106 1137.19 334.136C1137.19 337.249 1139.04 339.192 1142.06 339.192ZM1139.88 333.1C1139.94 331.982 1140.79 331.087 1142 331.087C1143.18 331.087 1144 331.93 1144 333.1H1139.88ZM1156.51 331.982C1156.27 330.173 1154.81 329.054 1152.33 329.054C1149.82 329.054 1148.17 330.217 1148.17 332.109C1148.17 333.58 1149.09 334.532 1151.01 334.915L1152.71 335.254C1153.57 335.427 1153.96 335.74 1153.97 336.232C1153.96 336.814 1153.32 337.229 1152.37 337.229C1151.4 337.229 1150.75 336.814 1150.59 336.015L1147.91 336.156C1148.17 338.035 1149.76 339.192 1152.37 339.192C1154.91 339.192 1156.73 337.894 1156.74 335.957C1156.73 334.538 1155.8 333.688 1153.9 333.298L1152.12 332.94C1151.21 332.742 1150.87 332.429 1150.88 331.956C1150.87 331.368 1151.53 330.984 1152.38 330.984C1153.32 330.984 1153.89 331.502 1154.02 332.135L1156.51 331.982ZM1166.62 331.982C1166.38 330.173 1164.92 329.054 1162.44 329.054C1159.93 329.054 1158.27 330.217 1158.28 332.109C1158.27 333.58 1159.2 334.532 1161.12 334.915L1162.82 335.254C1163.67 335.427 1164.06 335.74 1164.08 336.232C1164.06 336.814 1163.43 337.229 1162.48 337.229C1161.51 337.229 1160.86 336.814 1160.7 336.015L1158.02 336.156C1158.27 338.035 1159.87 339.192 1162.47 339.192C1165.02 339.192 1166.84 337.894 1166.84 335.957C1166.84 334.538 1165.91 333.688 1164.01 333.298L1162.23 332.94C1161.32 332.742 1160.98 332.429 1160.98 331.956C1160.98 331.368 1161.64 330.984 1162.49 330.984C1163.43 330.984 1163.99 331.502 1164.13 332.135L1166.62 331.982ZM1173.03 339.192C1175.46 339.192 1177.1 338.009 1177.48 336.188L1174.96 336.021C1174.69 336.769 1173.99 337.159 1173.08 337.159C1171.72 337.159 1170.85 336.258 1170.85 334.794V334.788H1177.54V334.04C1177.54 330.703 1175.52 329.054 1172.93 329.054C1170.04 329.054 1168.16 331.106 1168.16 334.136C1168.16 337.249 1170.01 339.192 1173.03 339.192ZM1170.85 333.1C1170.91 331.982 1171.76 331.087 1172.97 331.087C1174.15 331.087 1174.97 331.93 1174.98 333.1H1170.85ZM1182.94 339.16C1184.52 339.16 1185.34 338.246 1185.72 337.428H1185.84V339H1188.52V325.909H1185.81V330.831H1185.72C1185.36 330.032 1184.57 329.054 1182.93 329.054C1180.77 329.054 1178.95 330.729 1178.95 334.104C1178.95 337.389 1180.7 339.16 1182.94 339.16ZM1183.8 336.993C1182.46 336.993 1181.73 335.804 1181.73 334.091C1181.73 332.391 1182.45 331.221 1183.8 331.221C1185.12 331.221 1185.86 332.339 1185.86 334.091C1185.86 335.842 1185.11 336.993 1183.8 336.993Z" fill="black"/>
<path d="M1042.5 452.5L1042.11 452.819L1042.26 453L1042.5 453L1042.5 452.5ZM983.542 381.003C983.267 380.978 983.023 381.18 982.998 381.455L982.584 385.936C982.559 386.211 982.761 386.454 983.036 386.48C983.311 386.505 983.555 386.303 983.58 386.028L983.948 382.045L987.931 382.412C988.206 382.438 988.449 382.235 988.475 381.96C988.5 381.685 988.298 381.442 988.023 381.416L983.542 381.003ZM1081 452L1042.5 452L1042.5 453L1081 453L1081 452ZM1042.88 452.18L983.88 381.181L983.111 381.82L1042.11 452.819L1042.88 452.18Z" fill="black"/>
<path d="M1041.27 317.671L1040.88 317.991L1041.03 318.171L1041.27 318.171L1041.27 317.671ZM982.308 246.174C982.033 246.149 981.789 246.351 981.764 246.626L981.351 251.107C981.325 251.382 981.528 251.625 981.803 251.651C982.078 251.676 982.321 251.474 982.346 251.199L982.714 247.216L986.697 247.583C986.972 247.609 987.215 247.406 987.241 247.131C987.266 246.856 987.064 246.613 986.789 246.588L982.308 246.174ZM1079.77 317.171L1041.27 317.171L1041.27 318.171L1079.77 318.171L1079.77 317.171ZM1041.65 317.351L982.647 246.352L981.877 246.992L1040.88 317.991L1041.65 317.351Z" fill="black"/>
</svg>
