<svg width="1355" height="726" viewBox="0 0 1355 726" fill="none" xmlns="http://www.w3.org/2000/svg">
<rect width="1355" height="726" fill="#F5F5F5"/>
<path d="M171.651 311H175.06V308.678C175.06 307.005 175.614 305.695 176.413 304.438L174.411 303.255C172.93 304.459 171.651 306.749 171.651 308.699V311ZM177.031 311H180.44V308.678C180.44 307.005 180.994 305.695 181.793 304.438L179.79 303.255C178.31 304.459 177.031 306.749 177.031 308.699V311ZM189.464 326H193.96L198.104 311.735H198.274L202.429 326H206.925L213.168 304.182H208.129L204.517 319.374H204.325L200.352 304.182H196.037L192.053 319.342H191.871L188.26 304.182H183.221L189.464 326ZM221.251 326.32C225.299 326.32 228.026 324.349 228.666 321.312L224.468 321.036C224.01 322.282 222.838 322.932 221.325 322.932C219.056 322.932 217.618 321.43 217.618 318.99V318.979H228.762V317.733C228.762 312.172 225.395 309.423 221.07 309.423C216.254 309.423 213.133 312.843 213.133 317.893C213.133 323.081 216.212 326.32 221.251 326.32ZM217.618 316.167C217.714 314.303 219.131 312.811 221.144 312.811C223.115 312.811 224.479 314.217 224.49 316.167H217.618ZM246.06 326.32C250.417 326.32 253.155 323.763 253.368 320.002H249.086C248.819 321.749 247.669 322.729 246.113 322.729C243.993 322.729 242.619 320.95 242.619 317.818C242.619 314.729 244.004 312.96 246.113 312.96C247.775 312.96 248.841 314.058 249.086 315.688H253.368C253.176 311.906 250.311 309.423 246.039 309.423C241.074 309.423 238.006 312.864 238.006 317.882C238.006 322.857 241.021 326.32 246.06 326.32ZM256.274 326H260.812V316.742C260.812 314.729 262.282 313.344 264.285 313.344C264.914 313.344 265.777 313.45 266.203 313.589V309.562C265.798 309.466 265.233 309.402 264.775 309.402C262.943 309.402 261.441 310.467 260.844 312.491H260.674V309.636H256.274V326ZM275.245 326.32C279.293 326.32 282.021 324.349 282.66 321.312L278.462 321.036C278.004 322.282 276.832 322.932 275.32 322.932C273.05 322.932 271.612 321.43 271.612 318.99V318.979H282.756V317.733C282.756 312.172 279.389 309.423 275.064 309.423C270.249 309.423 267.127 312.843 267.127 317.893C267.127 323.081 270.206 326.32 275.245 326.32ZM271.612 316.167C271.708 314.303 273.125 312.811 275.138 312.811C277.109 312.811 278.473 314.217 278.484 316.167H271.612ZM290.384 326.309C292.802 326.309 294.368 325.254 295.167 323.731H295.295V326H299.599V314.963C299.599 311.064 296.296 309.423 292.653 309.423C288.732 309.423 286.154 311.298 285.526 314.281L289.723 314.622C290.032 313.536 291.001 312.737 292.631 312.737C294.176 312.737 295.06 313.514 295.06 314.857V314.92C295.06 315.975 293.942 316.114 291.097 316.391C287.859 316.689 284.95 317.776 284.95 321.43C284.95 324.668 287.262 326.309 290.384 326.309ZM291.683 323.177C290.288 323.177 289.286 322.527 289.286 321.281C289.286 320.002 290.341 319.374 291.939 319.15C292.93 319.011 294.549 318.777 295.092 318.415V320.151C295.092 321.866 293.675 323.177 291.683 323.177ZM311.824 309.636H308.745V305.716H304.206V309.636H301.969V313.045H304.206V321.568C304.185 324.775 306.369 326.362 309.661 326.224C310.833 326.181 311.664 325.947 312.122 325.798L311.408 322.42C311.184 322.463 310.705 322.57 310.279 322.57C309.373 322.57 308.745 322.229 308.745 320.972V313.045H311.824V309.636ZM322.061 326.32C326.11 326.32 328.837 324.349 329.476 321.312L325.279 321.036C324.821 322.282 323.649 322.932 322.136 322.932C319.867 322.932 318.429 321.43 318.429 318.99V318.979H329.572V317.733C329.572 312.172 326.206 309.423 321.88 309.423C317.065 309.423 313.944 312.843 313.944 317.893C313.944 323.081 317.022 326.32 322.061 326.32ZM318.429 316.167C318.525 314.303 319.941 312.811 321.955 312.811C323.926 312.811 325.289 314.217 325.3 316.167H318.429ZM339.477 326H344.015V316.742C344.015 314.729 345.486 313.344 347.488 313.344C348.117 313.344 348.98 313.45 349.406 313.589V309.562C349.001 309.466 348.437 309.402 347.979 309.402C346.146 309.402 344.644 310.467 344.047 312.491H343.877V309.636H339.477V326ZM358.448 326.32C362.496 326.32 365.224 324.349 365.863 321.312L361.665 321.036C361.207 322.282 360.036 322.932 358.523 322.932C356.254 322.932 354.815 321.43 354.815 318.99V318.979H365.959V317.733C365.959 312.172 362.592 309.423 358.267 309.423C353.452 309.423 350.33 312.843 350.33 317.893C350.33 323.081 353.409 326.32 358.448 326.32ZM354.815 316.167C354.911 314.303 356.328 312.811 358.342 312.811C360.312 312.811 361.676 314.217 361.687 316.167H354.815ZM376.293 332.477C380.969 332.477 384.293 330.347 384.293 326.16V309.636H379.787V312.385H379.616C379.009 311.053 377.678 309.423 374.94 309.423C371.349 309.423 368.313 312.214 368.313 317.786C368.313 323.23 371.264 325.766 374.95 325.766C377.56 325.766 379.02 324.455 379.616 323.102H379.808V326.096C379.808 328.344 378.37 329.217 376.399 329.217C374.396 329.217 373.384 328.344 373.011 327.353L368.814 327.918C369.357 330.496 371.882 332.477 376.293 332.477ZM376.388 322.357C374.162 322.357 372.947 320.588 372.947 317.765C372.947 314.984 374.141 313.035 376.388 313.035C378.594 313.035 379.83 314.899 379.83 317.765C379.83 320.652 378.572 322.357 376.388 322.357ZM398.398 319.033C398.409 321.227 396.907 322.378 395.277 322.378C393.562 322.378 392.454 321.174 392.443 319.246V309.636H387.905V320.055C387.915 323.88 390.153 326.213 393.445 326.213C395.906 326.213 397.674 324.945 398.409 323.028H398.58V326H402.937V309.636H398.398V319.033ZM411.105 304.182H406.567V326H411.105V304.182ZM419.407 326.309C421.825 326.309 423.391 325.254 424.19 323.731H424.318V326H428.622V314.963C428.622 311.064 425.32 309.423 421.676 309.423C417.756 309.423 415.178 311.298 414.549 314.281L418.746 314.622C419.055 313.536 420.025 312.737 421.655 312.737C423.2 312.737 424.084 313.514 424.084 314.857V314.92C424.084 315.975 422.965 316.114 420.121 316.391C416.882 316.689 413.974 317.776 413.974 321.43C413.974 324.668 416.286 326.309 419.407 326.309ZM420.707 323.177C419.311 323.177 418.31 322.527 418.31 321.281C418.31 320.002 419.364 319.374 420.962 319.15C421.953 319.011 423.572 318.777 424.116 318.415V320.151C424.116 321.866 422.699 323.177 420.707 323.177ZM440.847 309.636H437.768V305.716H433.23V309.636H430.993V313.045H433.23V321.568C433.208 324.775 435.392 326.362 438.684 326.224C439.856 326.181 440.687 325.947 441.145 325.798L440.431 322.42C440.208 322.463 439.728 322.57 439.302 322.57C438.397 322.57 437.768 322.229 437.768 320.972V313.045H440.847V309.636ZM443.803 326H448.342V309.636H443.803V326ZM446.083 307.527C447.436 307.527 448.544 306.494 448.544 305.226C448.544 303.969 447.436 302.935 446.083 302.935C444.741 302.935 443.633 303.969 443.633 305.226C443.633 306.494 444.741 307.527 446.083 307.527ZM459.371 326.32C464.335 326.32 467.425 322.921 467.425 317.882C467.425 312.811 464.335 309.423 459.371 309.423C454.406 309.423 451.317 312.811 451.317 317.882C451.317 322.921 454.406 326.32 459.371 326.32ZM459.392 322.804C457.101 322.804 455.93 320.705 455.93 317.85C455.93 314.995 457.101 312.886 459.392 312.886C461.64 312.886 462.812 314.995 462.812 317.85C462.812 320.705 461.64 322.804 459.392 322.804ZM474.914 316.54C474.925 314.43 476.182 313.195 478.014 313.195C479.836 313.195 480.933 314.388 480.922 316.391V326H485.461V315.581C485.461 311.767 483.224 309.423 479.814 309.423C477.385 309.423 475.628 310.616 474.893 312.523H474.701V309.636H470.376V326H474.914V316.54ZM502.653 314.303C502.248 311.288 499.819 309.423 495.685 309.423C491.499 309.423 488.739 311.362 488.75 314.516C488.739 316.966 490.284 318.553 493.48 319.192L496.314 319.757C497.741 320.045 498.391 320.567 498.413 321.387C498.391 322.357 497.337 323.049 495.749 323.049C494.13 323.049 493.054 322.357 492.777 321.025L488.313 321.259C488.739 324.391 491.403 326.32 495.739 326.32C499.979 326.32 503.015 324.157 503.026 320.929C503.015 318.564 501.47 317.147 498.295 316.497L495.334 315.901C493.81 315.57 493.246 315.048 493.256 314.26C493.246 313.28 494.354 312.641 495.76 312.641C497.337 312.641 498.274 313.504 498.498 314.558L502.653 314.303ZM520.22 326.32C525.185 326.32 528.274 322.921 528.274 317.882C528.274 312.811 525.185 309.423 520.22 309.423C515.256 309.423 512.166 312.811 512.166 317.882C512.166 322.921 515.256 326.32 520.22 326.32ZM520.241 322.804C517.951 322.804 516.779 320.705 516.779 317.85C516.779 314.995 517.951 312.886 520.241 312.886C522.489 312.886 523.661 314.995 523.661 317.85C523.661 320.705 522.489 322.804 520.241 322.804ZM535.763 316.54C535.774 314.43 537.031 313.195 538.864 313.195C540.685 313.195 541.783 314.388 541.772 316.391V326H546.31V315.581C546.31 311.767 544.073 309.423 540.664 309.423C538.235 309.423 536.477 310.616 535.742 312.523H535.55V309.636H531.225V326H535.763V316.54ZM554.426 304.182H549.887V326H554.426V304.182ZM560.863 332.136C564.24 332.136 566.03 330.411 566.957 327.768L573.317 309.658L568.512 309.636L565.092 321.653H564.922L561.534 309.636H556.761L562.631 326.469L562.365 327.161C561.768 328.695 560.629 328.77 559.031 328.28L558.008 331.668C558.658 331.945 559.712 332.136 560.863 332.136ZM587.249 326.309C589.667 326.309 591.233 325.254 592.032 323.731H592.16V326H596.464V314.963C596.464 311.064 593.161 309.423 589.518 309.423C585.597 309.423 583.019 311.298 582.391 314.281L586.588 314.622C586.897 313.536 587.867 312.737 589.497 312.737C591.041 312.737 591.926 313.514 591.926 314.857V314.92C591.926 315.975 590.807 316.114 587.963 316.391C584.724 316.689 581.816 317.776 581.816 321.43C581.816 324.668 584.127 326.309 587.249 326.309ZM588.548 323.177C587.153 323.177 586.151 322.527 586.151 321.281C586.151 320.002 587.206 319.374 588.804 319.15C589.795 319.011 591.414 318.777 591.958 318.415V320.151C591.958 321.866 590.541 323.177 588.548 323.177ZM608.785 309.636H605.535V308.539C605.535 307.431 605.983 306.781 607.314 306.781C607.858 306.781 608.412 306.898 608.774 307.016L609.573 303.607C609.008 303.436 607.762 303.159 606.366 303.159C603.287 303.159 600.997 304.896 600.997 308.454V309.636H598.685V313.045H600.997V326H605.535V313.045H608.785V309.636ZM620.261 309.636H617.182V305.716H612.644V309.636H610.407V313.045H612.644V321.568C612.623 324.775 614.806 326.362 618.098 326.224C619.27 326.181 620.101 325.947 620.559 325.798L619.846 322.42C619.622 322.463 619.142 322.57 618.716 322.57C617.811 322.57 617.182 322.229 617.182 320.972V313.045H620.261V309.636ZM630.499 326.32C634.547 326.32 637.275 324.349 637.914 321.312L633.716 321.036C633.258 322.282 632.086 322.932 630.574 322.932C628.304 322.932 626.866 321.43 626.866 318.99V318.979H638.01V317.733C638.01 312.172 634.643 309.423 630.318 309.423C625.502 309.423 622.381 312.843 622.381 317.893C622.381 323.081 625.46 326.32 630.499 326.32ZM626.866 316.167C626.962 314.303 628.379 312.811 630.392 312.811C632.363 312.811 633.727 314.217 633.738 316.167H626.866ZM640.971 326H645.51V316.742C645.51 314.729 646.98 313.344 648.983 313.344C649.611 313.344 650.474 313.45 650.9 313.589V309.562C650.495 309.466 649.931 309.402 649.473 309.402C647.64 309.402 646.138 310.467 645.542 312.491H645.371V309.636H640.971V326ZM673.805 314.303C673.4 311.288 670.971 309.423 666.838 309.423C662.651 309.423 659.892 311.362 659.902 314.516C659.892 316.966 661.436 318.553 664.632 319.192L667.466 319.757C668.894 320.045 669.544 320.567 669.565 321.387C669.544 322.357 668.489 323.049 666.902 323.049C665.282 323.049 664.206 322.357 663.929 321.025L659.466 321.259C659.892 324.391 662.555 326.32 666.891 326.32C671.131 326.32 674.167 324.157 674.178 320.929C674.167 318.564 672.623 317.147 669.448 316.497L666.486 315.901C664.963 315.57 664.398 315.048 664.409 314.26C664.398 313.28 665.506 312.641 666.912 312.641C668.489 312.641 669.426 313.504 669.65 314.558L673.805 314.303ZM684.429 326.32C689.394 326.32 692.483 322.921 692.483 317.882C692.483 312.811 689.394 309.423 684.429 309.423C679.465 309.423 676.375 312.811 676.375 317.882C676.375 322.921 679.465 326.32 684.429 326.32ZM684.45 322.804C682.16 322.804 680.988 320.705 680.988 317.85C680.988 314.995 682.16 312.886 684.45 312.886C686.698 312.886 687.87 314.995 687.87 317.85C687.87 320.705 686.698 322.804 684.45 322.804ZM695.434 326H699.972V316.178C699.972 314.366 701.123 313.163 702.636 313.163C704.127 313.163 705.129 314.185 705.129 315.794V326H709.529V316.007C709.529 314.313 710.498 313.163 712.149 313.163C713.598 313.163 714.685 314.068 714.685 315.89V326H719.213V314.995C719.213 311.447 717.103 309.423 714.056 309.423C711.659 309.423 709.795 310.648 709.124 312.523H708.953C708.431 310.627 706.759 309.423 704.511 309.423C702.306 309.423 700.633 310.595 699.951 312.523H699.759V309.636H695.434V326ZM730.255 326.32C734.303 326.32 737.03 324.349 737.67 321.312L733.472 321.036C733.014 322.282 731.842 322.932 730.329 322.932C728.06 322.932 726.622 321.43 726.622 318.99V318.979H737.765V317.733C737.765 312.172 734.399 309.423 730.074 309.423C725.258 309.423 722.137 312.843 722.137 317.893C722.137 323.081 725.216 326.32 730.255 326.32ZM726.622 316.167C726.718 314.303 728.135 312.811 730.148 312.811C732.119 312.811 733.483 314.217 733.493 316.167H726.622ZM749.431 309.636H746.352V305.716H741.814V309.636H739.577V313.045H741.814V321.568C741.792 324.775 743.976 326.362 747.268 326.224C748.44 326.181 749.271 325.947 749.729 325.798L749.015 322.42C748.792 322.463 748.312 322.57 747.886 322.57C746.981 322.57 746.352 322.229 746.352 320.972V313.045H749.431V309.636ZM757.277 316.54C757.288 314.43 758.577 313.195 760.431 313.195C762.274 313.195 763.36 314.377 763.35 316.391V326H767.888V315.581C767.899 311.746 765.64 309.423 762.231 309.423C759.749 309.423 758.087 310.595 757.341 312.523H757.149V304.182H752.739V326H757.277V316.54ZM771.46 326H775.998V309.636H771.46V326ZM773.739 307.527C775.092 307.527 776.2 306.494 776.2 305.226C776.2 303.969 775.092 302.935 773.739 302.935C772.397 302.935 771.289 303.969 771.289 305.226C771.289 306.494 772.397 307.527 773.739 307.527ZM784.172 316.54C784.182 314.43 785.439 313.195 787.272 313.195C789.094 313.195 790.191 314.388 790.18 316.391V326H794.719V315.581C794.719 311.767 792.481 309.423 789.072 309.423C786.643 309.423 784.885 310.616 784.15 312.523H783.959V309.636H779.633V326H784.172V316.54ZM805.668 332.477C810.344 332.477 813.668 330.347 813.668 326.16V309.636H809.162V312.385H808.991C808.384 311.053 807.053 309.423 804.315 309.423C800.724 309.423 797.688 312.214 797.688 317.786C797.688 323.23 800.639 325.766 804.325 325.766C806.935 325.766 808.395 324.455 808.991 323.102H809.183V326.096C809.183 328.344 807.745 329.217 805.774 329.217C803.771 329.217 802.759 328.344 802.386 327.353L798.189 327.918C798.732 330.496 801.257 332.477 805.668 332.477ZM805.763 322.357C803.537 322.357 802.322 320.588 802.322 317.765C802.322 314.984 803.516 313.035 805.763 313.035C807.969 313.035 809.205 314.899 809.205 317.765C809.205 320.652 807.947 322.357 805.763 322.357ZM824.308 326H828.783V323.379H828.985C829.614 324.743 830.988 326.266 833.63 326.266C837.359 326.266 840.267 323.315 840.267 317.839C840.267 312.214 837.231 309.423 833.641 309.423C830.903 309.423 829.593 311.053 828.985 312.385H828.847V304.182H824.308V326ZM828.751 317.818C828.751 314.899 829.987 313.035 832.192 313.035C834.44 313.035 835.633 314.984 835.633 317.818C835.633 320.673 834.419 322.655 832.192 322.655C830.008 322.655 828.751 320.737 828.751 317.818ZM847.962 326.309C850.38 326.309 851.946 325.254 852.745 323.731H852.873V326H857.177V314.963C857.177 311.064 853.874 309.423 850.231 309.423C846.31 309.423 843.732 311.298 843.104 314.281L847.301 314.622C847.61 313.536 848.58 312.737 850.21 312.737C851.754 312.737 852.638 313.514 852.638 314.857V314.92C852.638 315.975 851.52 316.114 848.675 316.391C845.437 316.689 842.528 317.776 842.528 321.43C842.528 324.668 844.84 326.309 847.962 326.309ZM849.261 323.177C847.866 323.177 846.864 322.527 846.864 321.281C846.864 320.002 847.919 319.374 849.517 319.15C850.508 319.011 852.127 318.777 852.67 318.415V320.151C852.67 321.866 851.254 323.177 849.261 323.177ZM866.728 326.266C869.37 326.266 870.744 324.743 871.373 323.379H871.564V326H876.039V304.182H871.511V312.385H871.373C870.765 311.053 869.455 309.423 866.717 309.423C863.127 309.423 860.091 312.214 860.091 317.839C860.091 323.315 862.999 326.266 866.728 326.266ZM868.166 322.655C865.939 322.655 864.725 320.673 864.725 317.818C864.725 314.984 865.918 313.035 868.166 313.035C870.371 313.035 871.607 314.899 871.607 317.818C871.607 320.737 870.35 322.655 868.166 322.655ZM176.349 358.54C176.36 356.43 177.649 355.195 179.503 355.195C181.346 355.195 182.433 356.377 182.422 358.391V368H186.96V357.581C186.971 353.746 184.712 351.423 181.303 351.423C178.821 351.423 177.159 352.595 176.413 354.523H176.222V346.182H171.811V368H176.349V358.54ZM195.198 368.309C197.616 368.309 199.182 367.254 199.981 365.731H200.109V368H204.413V356.963C204.413 353.064 201.111 351.423 197.467 351.423C193.547 351.423 190.969 353.298 190.34 356.281L194.537 356.622C194.846 355.536 195.816 354.737 197.446 354.737C198.991 354.737 199.875 355.514 199.875 356.857V356.92C199.875 357.975 198.756 358.114 195.912 358.391C192.673 358.689 189.765 359.776 189.765 363.43C189.765 366.668 192.077 368.309 195.198 368.309ZM196.498 365.177C195.102 365.177 194.101 364.527 194.101 363.281C194.101 362.002 195.155 361.374 196.753 361.15C197.744 361.011 199.363 360.777 199.907 360.415V362.151C199.907 363.866 198.49 365.177 196.498 365.177ZM207.934 374.136H212.472V365.379H212.611C213.24 366.743 214.614 368.266 217.256 368.266C220.985 368.266 223.893 365.315 223.893 359.839C223.893 354.214 220.857 351.423 217.267 351.423C214.529 351.423 213.218 353.053 212.611 354.385H212.409V351.636H207.934V374.136ZM212.377 359.818C212.377 356.899 213.612 355.035 215.818 355.035C218.066 355.035 219.259 356.984 219.259 359.818C219.259 362.673 218.044 364.655 215.818 364.655C213.634 364.655 212.377 362.737 212.377 359.818ZM226.919 374.136H231.457V365.379H231.595C232.224 366.743 233.598 368.266 236.24 368.266C239.969 368.266 242.877 365.315 242.877 359.839C242.877 354.214 239.841 351.423 236.251 351.423C233.513 351.423 232.203 353.053 231.595 354.385H231.393V351.636H226.919V374.136ZM231.361 359.818C231.361 356.899 232.597 355.035 234.802 355.035C237.05 355.035 238.243 356.984 238.243 359.818C238.243 362.673 237.029 364.655 234.802 364.655C232.618 364.655 231.361 362.737 231.361 359.818ZM253.36 368.32C257.409 368.32 260.136 366.349 260.775 363.312L256.578 363.036C256.119 364.282 254.948 364.932 253.435 364.932C251.166 364.932 249.727 363.43 249.727 360.99V360.979H260.871V359.733C260.871 354.172 257.504 351.423 253.179 351.423C248.364 351.423 245.242 354.843 245.242 359.893C245.242 365.081 248.321 368.32 253.36 368.32ZM249.727 358.167C249.823 356.303 251.24 354.811 253.254 354.811C255.225 354.811 256.588 356.217 256.599 358.167H249.727ZM268.371 358.54C268.382 356.43 269.639 355.195 271.471 355.195C273.293 355.195 274.39 356.388 274.379 358.391V368H278.918V357.581C278.918 353.767 276.681 351.423 273.271 351.423C270.843 351.423 269.085 352.616 268.35 354.523H268.158V351.636H263.833V368H268.371V358.54ZM296.11 356.303C295.705 353.288 293.276 351.423 289.142 351.423C284.956 351.423 282.196 353.362 282.207 356.516C282.196 358.966 283.741 360.553 286.937 361.192L289.771 361.757C291.199 362.045 291.848 362.567 291.87 363.387C291.848 364.357 290.794 365.049 289.206 365.049C287.587 365.049 286.511 364.357 286.234 363.025L281.77 363.259C282.196 366.391 284.86 368.32 289.196 368.32C293.436 368.32 296.472 366.157 296.483 362.929C296.472 360.564 294.927 359.147 291.752 358.497L288.791 357.901C287.267 357.57 286.703 357.048 286.713 356.26C286.703 355.28 287.811 354.641 289.217 354.641C290.794 354.641 291.731 355.504 291.955 356.558L296.11 356.303ZM301.993 368.277C303.357 368.277 304.539 367.137 304.55 365.72C304.539 364.325 303.357 363.185 301.993 363.185C300.587 363.185 299.426 364.325 299.436 365.72C299.426 367.137 300.587 368.277 301.993 368.277ZM318.892 346.182H314.279V368H318.892V346.182ZM331.306 351.636H328.227V347.716H323.689V351.636H321.452V355.045H323.689V363.568C323.667 366.775 325.851 368.362 329.143 368.224C330.315 368.181 331.146 367.947 331.604 367.798L330.89 364.42C330.667 364.463 330.187 364.57 329.761 364.57C328.856 364.57 328.227 364.229 328.227 362.972V355.045H331.306V351.636ZM341.206 368H345.744V351.636H341.206V368ZM343.485 349.527C344.838 349.527 345.946 348.494 345.946 347.226C345.946 345.969 344.838 344.935 343.485 344.935C342.143 344.935 341.035 345.969 341.035 347.226C341.035 348.494 342.143 349.527 343.485 349.527ZM362.994 356.303C362.59 353.288 360.161 351.423 356.027 351.423C351.84 351.423 349.081 353.362 349.092 356.516C349.081 358.966 350.626 360.553 353.822 361.192L356.656 361.757C358.083 362.045 358.733 362.567 358.754 363.387C358.733 364.357 357.678 365.049 356.091 365.049C354.472 365.049 353.396 364.357 353.119 363.025L348.655 363.259C349.081 366.391 351.744 368.32 356.08 368.32C360.32 368.32 363.357 366.157 363.367 362.929C363.357 360.564 361.812 359.147 358.637 358.497L355.676 357.901C354.152 357.57 353.588 357.048 353.598 356.26C353.588 355.28 354.695 354.641 356.102 354.641C357.678 354.641 358.616 355.504 358.84 356.558L362.994 356.303ZM377.707 346.182H373.169V368H377.707V346.182ZM381.342 368H385.881V351.636H381.342V368ZM383.622 349.527C384.975 349.527 386.083 348.494 386.083 347.226C386.083 345.969 384.975 344.935 383.622 344.935C382.28 344.935 381.172 345.969 381.172 347.226C381.172 348.494 382.28 349.527 383.622 349.527ZM389.516 368H394.055V362.801L395.28 361.406L399.743 368H405.059L398.678 358.721L404.751 351.636H399.541L394.3 357.847H394.055V346.182H389.516V368ZM413.761 368.32C417.809 368.32 420.536 366.349 421.175 363.312L416.978 363.036C416.52 364.282 415.348 364.932 413.835 364.932C411.566 364.932 410.128 363.43 410.128 360.99V360.979H421.271V359.733C421.271 354.172 417.905 351.423 413.58 351.423C408.764 351.423 405.643 354.843 405.643 359.893C405.643 365.081 408.722 368.32 413.761 368.32ZM410.128 358.167C410.224 356.303 411.641 354.811 413.654 354.811C415.625 354.811 416.989 356.217 416.999 358.167H410.128ZM435.843 368.309C438.261 368.309 439.827 367.254 440.626 365.731H440.754V368H445.058V356.963C445.058 353.064 441.755 351.423 438.112 351.423C434.191 351.423 431.613 353.298 430.985 356.281L435.182 356.622C435.491 355.536 436.46 354.737 438.09 354.737C439.635 354.737 440.519 355.514 440.519 356.857V356.92C440.519 357.975 439.401 358.114 436.556 358.391C433.318 358.689 430.409 359.776 430.409 363.43C430.409 366.668 432.721 368.309 435.843 368.309ZM437.142 365.177C435.747 365.177 434.745 364.527 434.745 363.281C434.745 362.002 435.8 361.374 437.398 361.15C438.389 361.011 440.008 360.777 440.551 360.415V362.151C440.551 363.866 439.134 365.177 437.142 365.177ZM455.522 368H460.06V362.801L461.286 361.406L465.749 368H471.065L464.684 358.721L470.756 351.636H465.547L460.305 357.847H460.06V346.182H455.522V368ZM477.521 358.54C477.532 356.43 478.789 355.195 480.621 355.195C482.443 355.195 483.54 356.388 483.53 358.391V368H488.068V357.581C488.068 353.767 485.831 351.423 482.422 351.423C479.993 351.423 478.235 352.616 477.5 354.523H477.308V351.636H472.983V368H477.521V358.54ZM499.102 368.32C503.151 368.32 505.878 366.349 506.517 363.312L502.32 363.036C501.862 364.282 500.69 364.932 499.177 364.932C496.908 364.932 495.47 363.43 495.47 360.99V360.979H506.613V359.733C506.613 354.172 503.247 351.423 498.921 351.423C494.106 351.423 490.985 354.843 490.985 359.893C490.985 365.081 494.063 368.32 499.102 368.32ZM495.47 358.167C495.566 356.303 496.982 354.811 498.996 354.811C500.967 354.811 502.33 356.217 502.341 358.167H495.47ZM517.032 368.32C521.08 368.32 523.808 366.349 524.447 363.312L520.249 363.036C519.791 364.282 518.619 364.932 517.107 364.932C514.838 364.932 513.399 363.43 513.399 360.99V360.979H524.543V359.733C524.543 354.172 521.176 351.423 516.851 351.423C512.036 351.423 508.914 354.843 508.914 359.893C508.914 365.081 511.993 368.32 517.032 368.32ZM513.399 358.167C513.495 356.303 514.912 354.811 516.926 354.811C518.896 354.811 520.26 356.217 520.271 358.167H513.399ZM534.448 351.636V368.735C534.448 369.971 533.926 370.589 532.466 370.589C532.275 370.589 532.104 370.589 531.87 370.567V374.115C532.2 374.126 532.466 374.136 532.786 374.136C536.642 374.136 538.986 372.602 538.986 368.81V351.636H534.448ZM536.706 349.527C538.059 349.527 539.167 348.494 539.167 347.226C539.167 345.969 538.059 344.935 536.706 344.935C535.364 344.935 534.256 345.969 534.256 347.226C534.256 348.494 535.364 349.527 536.706 349.527ZM550.079 368.32C554.127 368.32 556.855 366.349 557.494 363.312L553.296 363.036C552.838 364.282 551.666 364.932 550.154 364.932C547.884 364.932 546.446 363.43 546.446 360.99V360.979H557.59V359.733C557.59 354.172 554.223 351.423 549.898 351.423C545.083 351.423 541.961 354.843 541.961 359.893C541.961 365.081 545.04 368.32 550.079 368.32ZM546.446 358.167C546.542 356.303 547.959 354.811 549.972 354.811C551.943 354.811 553.307 356.217 553.318 358.167H546.446ZM560.551 368H565.09V358.742C565.09 356.729 566.56 355.344 568.563 355.344C569.191 355.344 570.054 355.45 570.48 355.589V351.562C570.075 351.466 569.511 351.402 569.053 351.402C567.22 351.402 565.718 352.467 565.122 354.491H564.951V351.636H560.551V368ZM572.827 368H577.365V362.801L578.59 361.406L583.054 368H588.37L581.989 358.721L588.061 351.636H582.852L577.61 357.847H577.365V346.182H572.827V368ZM597.231 368H601.769V358.742C601.769 356.729 603.24 355.344 605.242 355.344C605.871 355.344 606.734 355.45 607.16 355.589V351.562C606.755 351.466 606.191 351.402 605.732 351.402C603.9 351.402 602.398 352.467 601.801 354.491H601.631V351.636H597.231V368ZM616.202 368.32C620.25 368.32 622.978 366.349 623.617 363.312L619.419 363.036C618.961 364.282 617.789 364.932 616.277 364.932C614.007 364.932 612.569 363.43 612.569 360.99V360.979H623.713V359.733C623.713 354.172 620.346 351.423 616.021 351.423C611.206 351.423 608.084 354.843 608.084 359.893C608.084 365.081 611.163 368.32 616.202 368.32ZM612.569 358.167C612.665 356.303 614.082 354.811 616.096 354.811C618.066 354.811 619.43 356.217 619.441 358.167H612.569ZM631.341 368.309C633.759 368.309 635.325 367.254 636.124 365.731H636.252V368H640.556V356.963C640.556 353.064 637.253 351.423 633.61 351.423C629.689 351.423 627.111 353.298 626.483 356.281L630.68 356.622C630.989 355.536 631.958 354.737 633.588 354.737C635.133 354.737 636.017 355.514 636.017 356.857V356.92C636.017 357.975 634.899 358.114 632.054 358.391C628.816 358.689 625.907 359.776 625.907 363.43C625.907 366.668 628.219 368.309 631.341 368.309ZM632.64 365.177C631.245 365.177 630.243 364.527 630.243 363.281C630.243 362.002 631.298 361.374 632.896 361.15C633.887 361.011 635.506 360.777 636.049 360.415V362.151C636.049 363.866 634.632 365.177 632.64 365.177ZM651.47 368.32C655.827 368.32 658.565 365.763 658.778 362.002H654.496C654.229 363.749 653.079 364.729 651.523 364.729C649.403 364.729 648.029 362.95 648.029 359.818C648.029 356.729 649.414 354.96 651.523 354.96C653.185 354.96 654.251 356.058 654.496 357.688H658.778C658.587 353.906 655.721 351.423 651.449 351.423C646.484 351.423 643.416 354.864 643.416 359.882C643.416 364.857 646.431 368.32 651.47 368.32ZM670.388 351.636H667.309V347.716H662.771V351.636H660.534V355.045H662.771V363.568C662.749 366.775 664.933 368.362 668.225 368.224C669.397 368.181 670.228 367.947 670.686 367.798L669.972 364.42C669.749 364.463 669.269 364.57 668.843 364.57C667.938 364.57 667.309 364.229 667.309 362.972V355.045H670.388V351.636ZM673.344 368H677.883V351.636H673.344V368ZM675.624 349.527C676.977 349.527 678.085 348.494 678.085 347.226C678.085 345.969 676.977 344.935 675.624 344.935C674.282 344.935 673.174 345.969 673.174 347.226C673.174 348.494 674.282 349.527 675.624 349.527ZM688.912 368.32C693.876 368.32 696.966 364.921 696.966 359.882C696.966 354.811 693.876 351.423 688.912 351.423C683.947 351.423 680.858 354.811 680.858 359.882C680.858 364.921 683.947 368.32 688.912 368.32ZM688.933 364.804C686.642 364.804 685.471 362.705 685.471 359.85C685.471 356.995 686.642 354.886 688.933 354.886C691.181 354.886 692.353 356.995 692.353 359.85C692.353 362.705 691.181 364.804 688.933 364.804ZM704.455 358.54C704.466 356.43 705.723 355.195 707.555 355.195C709.377 355.195 710.474 356.388 710.463 358.391V368H715.002V357.581C715.002 353.767 712.765 351.423 709.355 351.423C706.926 351.423 705.169 352.616 704.434 354.523H704.242V351.636H699.917V368H704.455V358.54ZM721.231 368.277C722.595 368.277 723.778 367.137 723.788 365.72C723.778 364.325 722.595 363.185 721.231 363.185C719.825 363.185 718.664 364.325 718.675 365.72C718.664 367.137 719.825 368.277 721.231 368.277ZM738.429 368H742.924L747.069 353.735H747.239L751.394 368H755.89L762.132 346.182H757.093L753.482 361.374H753.29L749.316 346.182H745.002L741.017 361.342H740.836L737.225 346.182H732.186L738.429 368ZM770.216 368.32C774.264 368.32 776.991 366.349 777.631 363.312L773.433 363.036C772.975 364.282 771.803 364.932 770.29 364.932C768.021 364.932 766.583 363.43 766.583 360.99V360.979H777.726V359.733C777.726 354.172 774.36 351.423 770.035 351.423C765.219 351.423 762.098 354.843 762.098 359.893C762.098 365.081 765.177 368.32 770.216 368.32ZM766.583 358.167C766.679 356.303 768.096 354.811 770.109 354.811C772.08 354.811 773.444 356.217 773.454 358.167H766.583ZM784.491 346.182H781.082V348.504C781.082 350.305 780.443 351.615 779.729 352.744L781.732 353.927C783.234 352.67 784.491 350.433 784.491 348.483V346.182ZM786.87 368H791.408V358.742C791.408 356.729 792.878 355.344 794.881 355.344C795.51 355.344 796.373 355.45 796.799 355.589V351.562C796.394 351.466 795.829 351.402 795.371 351.402C793.539 351.402 792.037 352.467 791.44 354.491H791.27V351.636H786.87V368ZM805.841 368.32C809.889 368.32 812.616 366.349 813.256 363.312L809.058 363.036C808.6 364.282 807.428 364.932 805.915 364.932C803.646 364.932 802.208 363.43 802.208 360.99V360.979H813.351V359.733C813.351 354.172 809.985 351.423 805.66 351.423C800.844 351.423 797.723 354.843 797.723 359.893C797.723 365.081 800.802 368.32 805.841 368.32ZM802.208 358.167C802.304 356.303 803.721 354.811 805.734 354.811C807.705 354.811 809.069 356.217 809.079 358.167H802.208ZM179.205 410.32C183.562 410.32 186.3 407.763 186.513 404.002H182.23C181.964 405.749 180.813 406.729 179.258 406.729C177.138 406.729 175.763 404.95 175.763 401.818C175.763 398.729 177.148 396.96 179.258 396.96C180.92 396.96 181.985 398.058 182.23 399.688H186.513C186.321 395.906 183.455 393.423 179.183 393.423C174.219 393.423 171.151 396.864 171.151 401.882C171.151 406.857 174.165 410.32 179.205 410.32ZM196.812 410.32C201.776 410.32 204.866 406.921 204.866 401.882C204.866 396.811 201.776 393.423 196.812 393.423C191.847 393.423 188.758 396.811 188.758 401.882C188.758 406.921 191.847 410.32 196.812 410.32ZM196.833 406.804C194.543 406.804 193.371 404.705 193.371 401.85C193.371 398.995 194.543 396.886 196.833 396.886C199.081 396.886 200.253 398.995 200.253 401.85C200.253 404.705 199.081 406.804 196.833 406.804ZM207.817 410H212.355V400.178C212.355 398.366 213.506 397.163 215.019 397.163C216.51 397.163 217.512 398.185 217.512 399.794V410H221.911V400.007C221.911 398.313 222.881 397.163 224.532 397.163C225.981 397.163 227.068 398.068 227.068 399.89V410H231.595V398.995C231.595 395.447 229.486 393.423 226.439 393.423C224.042 393.423 222.178 394.648 221.507 396.523H221.336C220.814 394.627 219.142 393.423 216.894 393.423C214.688 393.423 213.016 394.595 212.334 396.523H212.142V393.636H207.817V410ZM235.18 416.136H239.719V407.379H239.857C240.486 408.743 241.86 410.266 244.502 410.266C248.231 410.266 251.139 407.315 251.139 401.839C251.139 396.214 248.103 393.423 244.513 393.423C241.775 393.423 240.464 395.053 239.857 396.385H239.655V393.636H235.18V416.136ZM239.623 401.818C239.623 398.899 240.858 397.035 243.064 397.035C245.312 397.035 246.505 398.984 246.505 401.818C246.505 404.673 245.29 406.655 243.064 406.655C240.88 406.655 239.623 404.737 239.623 401.818ZM258.703 388.182H254.165V410H258.703V388.182ZM269.796 410.32C273.844 410.32 276.571 408.349 277.211 405.312L273.013 405.036C272.555 406.282 271.383 406.932 269.87 406.932C267.601 406.932 266.163 405.43 266.163 402.99V402.979H277.306V401.733C277.306 396.172 273.94 393.423 269.615 393.423C264.799 393.423 261.678 396.843 261.678 401.893C261.678 407.081 264.757 410.32 269.796 410.32ZM266.163 400.167C266.259 398.303 267.676 396.811 269.689 396.811C271.66 396.811 273.024 398.217 273.034 400.167H266.163ZM288.972 393.636H285.893V389.716H281.355V393.636H279.118V397.045H281.355V405.568C281.333 408.775 283.517 410.362 286.809 410.224C287.981 410.181 288.812 409.947 289.27 409.798L288.556 406.42C288.333 406.463 287.853 406.57 287.427 406.57C286.522 406.57 285.893 406.229 285.893 404.972V397.045H288.972V393.636ZM299.21 410.32C303.258 410.32 305.985 408.349 306.625 405.312L302.427 405.036C301.969 406.282 300.797 406.932 299.284 406.932C297.015 406.932 295.577 405.43 295.577 402.99V402.979H306.721V401.733C306.721 396.172 303.354 393.423 299.029 393.423C294.213 393.423 291.092 396.843 291.092 401.893C291.092 407.081 294.171 410.32 299.21 410.32ZM295.577 400.167C295.673 398.303 297.09 396.811 299.103 396.811C301.074 396.811 302.438 398.217 302.449 400.167H295.577ZM314.221 388.182H309.682V410H314.221V388.182ZM320.658 416.136C324.035 416.136 325.825 414.411 326.752 411.768L333.112 393.658L328.307 393.636L324.887 405.653H324.717L321.329 393.636H316.556L322.426 410.469L322.16 411.161C321.563 412.695 320.423 412.77 318.825 412.28L317.803 415.668C318.453 415.945 319.507 416.136 320.658 416.136ZM342.377 410H346.916V400.742C346.916 398.729 348.386 397.344 350.389 397.344C351.017 397.344 351.88 397.45 352.306 397.589V393.562C351.902 393.466 351.337 393.402 350.879 393.402C349.047 393.402 347.544 394.467 346.948 396.491H346.777V393.636H342.377V410ZM361.349 410.32C365.397 410.32 368.124 408.349 368.763 405.312L364.566 405.036C364.108 406.282 362.936 406.932 361.423 406.932C359.154 406.932 357.716 405.43 357.716 402.99V402.979H368.859V401.733C368.859 396.172 365.493 393.423 361.167 393.423C356.352 393.423 353.231 396.843 353.231 401.893C353.231 407.081 356.309 410.32 361.349 410.32ZM357.716 400.167C357.812 398.303 359.229 396.811 361.242 396.811C363.213 396.811 364.577 398.217 364.587 400.167H357.716ZM376.487 410.309C378.905 410.309 380.471 409.254 381.27 407.731H381.398V410H385.702V398.963C385.702 395.064 382.4 393.423 378.756 393.423C374.836 393.423 372.258 395.298 371.629 398.281L375.827 398.622C376.135 397.536 377.105 396.737 378.735 396.737C380.28 396.737 381.164 397.514 381.164 398.857V398.92C381.164 399.975 380.045 400.114 377.201 400.391C373.962 400.689 371.054 401.776 371.054 405.43C371.054 408.668 373.366 410.309 376.487 410.309ZM377.787 407.177C376.391 407.177 375.39 406.527 375.39 405.281C375.39 404.002 376.444 403.374 378.042 403.15C379.033 403.011 380.653 402.777 381.196 402.415V404.151C381.196 405.866 379.779 407.177 377.787 407.177ZM396.617 410.32C400.974 410.32 403.712 407.763 403.925 404.002H399.642C399.376 405.749 398.225 406.729 396.67 406.729C394.55 406.729 393.176 404.95 393.176 401.818C393.176 398.729 394.561 396.96 396.67 396.96C398.332 396.96 399.397 398.058 399.642 399.688H403.925C403.733 395.906 400.867 393.423 396.595 393.423C391.631 393.423 388.563 396.864 388.563 401.882C388.563 406.857 391.578 410.32 396.617 410.32ZM415.534 393.636H412.456V389.716H407.917V393.636H405.68V397.045H407.917V405.568C407.896 408.775 410.08 410.362 413.372 410.224C414.544 410.181 415.375 409.947 415.833 409.798L415.119 406.42C414.895 406.463 414.416 406.57 413.99 406.57C413.084 406.57 412.456 406.229 412.456 404.972V397.045H415.534V393.636ZM418.491 410H423.029V393.636H418.491V410ZM420.771 391.527C422.124 391.527 423.232 390.494 423.232 389.226C423.232 387.969 422.124 386.935 420.771 386.935C419.428 386.935 418.32 387.969 418.32 389.226C418.32 390.494 419.428 391.527 420.771 391.527ZM434.058 410.32C439.023 410.32 442.112 406.921 442.112 401.882C442.112 396.811 439.023 393.423 434.058 393.423C429.094 393.423 426.004 396.811 426.004 401.882C426.004 406.921 429.094 410.32 434.058 410.32ZM434.079 406.804C431.789 406.804 430.617 404.705 430.617 401.85C430.617 398.995 431.789 396.886 434.079 396.886C436.327 396.886 437.499 398.995 437.499 401.85C437.499 404.705 436.327 406.804 434.079 406.804ZM449.601 400.54C449.612 398.43 450.869 397.195 452.702 397.195C454.523 397.195 455.621 398.388 455.61 400.391V410H460.148V399.581C460.148 395.767 457.911 393.423 454.502 393.423C452.073 393.423 450.315 394.616 449.58 396.523H449.388V393.636H445.063V410H449.601V400.54ZM468.391 410.309C470.81 410.309 472.376 409.254 473.175 407.731H473.303V410H477.607V398.963C477.607 395.064 474.304 393.423 470.661 393.423C466.74 393.423 464.162 395.298 463.533 398.281L467.731 398.622C468.04 397.536 469.009 396.737 470.639 396.737C472.184 396.737 473.068 397.514 473.068 398.857V398.92C473.068 399.975 471.95 400.114 469.105 400.391C465.866 400.689 462.958 401.776 462.958 405.43C462.958 408.668 465.27 410.309 468.391 410.309ZM469.691 407.177C468.295 407.177 467.294 406.527 467.294 405.281C467.294 404.002 468.349 403.374 469.947 403.15C470.938 403.011 472.557 402.777 473.1 402.415V404.151C473.1 405.866 471.683 407.177 469.691 407.177ZM481.127 410H485.666V400.742C485.666 398.729 487.136 397.344 489.139 397.344C489.767 397.344 490.63 397.45 491.056 397.589V393.562C490.652 393.466 490.087 393.402 489.629 393.402C487.797 393.402 486.294 394.467 485.698 396.491H485.527V393.636H481.127V410ZM496.703 416.136C500.08 416.136 501.87 414.411 502.797 411.768L509.157 393.658L504.352 393.636L500.932 405.653H500.762L497.374 393.636H492.601L498.471 410.469L498.205 411.161C497.608 412.695 496.468 412.77 494.87 412.28L493.848 415.668C494.498 415.945 495.552 416.136 496.703 416.136ZM521.65 410H526.444L529.257 399.709H529.459L532.272 410H537.077L541.519 393.636H536.938L534.445 404.567H534.307L531.622 393.636H527.116L524.474 404.631H524.324L521.789 393.636H517.197L521.65 410ZM548.478 400.54C548.489 398.43 549.778 397.195 551.632 397.195C553.475 397.195 554.561 398.377 554.551 400.391V410H559.089V399.581C559.1 395.746 556.841 393.423 553.432 393.423C550.95 393.423 549.288 394.595 548.542 396.523H548.35V388.182H543.94V410H548.478V400.54ZM570.118 410.32C574.166 410.32 576.894 408.349 577.533 405.312L573.335 405.036C572.877 406.282 571.705 406.932 570.193 406.932C567.923 406.932 566.485 405.43 566.485 402.99V402.979H577.629V401.733C577.629 396.172 574.262 393.423 569.937 393.423C565.122 393.423 562 396.843 562 401.893C562 407.081 565.079 410.32 570.118 410.32ZM566.485 400.167C566.581 398.303 567.998 396.811 570.012 396.811C571.982 396.811 573.346 398.217 573.357 400.167H566.485ZM585.129 400.54C585.139 398.43 586.396 397.195 588.229 397.195C590.051 397.195 591.148 398.388 591.137 400.391V410H595.676V399.581C595.676 395.767 593.438 393.423 590.029 393.423C587.6 393.423 585.843 394.616 585.107 396.523H584.916V393.636H580.59V410H585.129V400.54ZM606.196 410H610.734V393.636H606.196V410ZM608.476 391.527C609.829 391.527 610.937 390.494 610.937 389.226C610.937 387.969 609.829 386.935 608.476 386.935C607.133 386.935 606.025 387.969 606.025 389.226C606.025 390.494 607.133 391.527 608.476 391.527ZM623.074 393.636H619.995V389.716H615.456V393.636H613.219V397.045H615.456V405.568C615.435 408.775 617.619 410.362 620.911 410.224C622.083 410.181 622.914 409.947 623.372 409.798L622.658 406.42C622.434 406.463 621.955 406.57 621.529 406.57C620.623 406.57 619.995 406.229 619.995 404.972V397.045H623.074V393.636ZM640.367 410.32C644.724 410.32 647.462 407.763 647.675 404.002H643.392C643.126 405.749 641.975 406.729 640.42 406.729C638.3 406.729 636.926 404.95 636.926 401.818C636.926 398.729 638.311 396.96 640.42 396.96C642.082 396.96 643.147 398.058 643.392 399.688H647.675C647.483 395.906 644.617 393.423 640.345 393.423C635.381 393.423 632.313 396.864 632.313 401.882C632.313 406.857 635.328 410.32 640.367 410.32ZM657.974 410.32C662.939 410.32 666.028 406.921 666.028 401.882C666.028 396.811 662.939 393.423 657.974 393.423C653.01 393.423 649.92 396.811 649.92 401.882C649.92 406.921 653.01 410.32 657.974 410.32ZM657.995 406.804C655.705 406.804 654.533 404.705 654.533 401.85C654.533 398.995 655.705 396.886 657.995 396.886C660.243 396.886 661.415 398.995 661.415 401.85C661.415 404.705 660.243 406.804 657.995 406.804ZM668.979 410H673.517V400.178C673.517 398.366 674.668 397.163 676.181 397.163C677.672 397.163 678.674 398.185 678.674 399.794V410H683.074V400.007C683.074 398.313 684.043 397.163 685.694 397.163C687.143 397.163 688.23 398.068 688.23 399.89V410H692.757V398.995C692.757 395.447 690.648 393.423 687.601 393.423C685.204 393.423 683.34 394.648 682.669 396.523H682.498C681.976 394.627 680.304 393.423 678.056 393.423C675.85 393.423 674.178 394.595 673.496 396.523H673.304V393.636H668.979V410ZM703.8 410.32C707.848 410.32 710.575 408.349 711.214 405.312L707.017 405.036C706.559 406.282 705.387 406.932 703.874 406.932C701.605 406.932 700.167 405.43 700.167 402.99V402.979H711.31V401.733C711.31 396.172 707.944 393.423 703.619 393.423C698.803 393.423 695.682 396.843 695.682 401.893C695.682 407.081 698.761 410.32 703.8 410.32ZM700.167 400.167C700.263 398.303 701.68 396.811 703.693 396.811C705.664 396.811 707.028 398.217 707.038 400.167H700.167ZM727.887 398.303C727.482 395.288 725.053 393.423 720.92 393.423C716.733 393.423 713.974 395.362 713.984 398.516C713.974 400.966 715.518 402.553 718.714 403.192L721.548 403.757C722.976 404.045 723.626 404.567 723.647 405.387C723.626 406.357 722.571 407.049 720.984 407.049C719.364 407.049 718.288 406.357 718.011 405.025L713.548 405.259C713.974 408.391 716.637 410.32 720.973 410.32C725.213 410.32 728.249 408.157 728.26 404.929C728.249 402.564 726.705 401.147 723.53 400.497L720.568 399.901C719.045 399.57 718.48 399.048 718.491 398.26C718.48 397.28 719.588 396.641 720.994 396.641C722.571 396.641 723.509 397.504 723.732 398.558L727.887 398.303ZM746.765 393.636H743.686V389.716H739.148V393.636H736.911V397.045H739.148V405.568C739.126 408.775 741.31 410.362 744.602 410.224C745.774 410.181 746.605 409.947 747.063 409.798L746.349 406.42C746.126 406.463 745.646 406.57 745.22 406.57C744.315 406.57 743.686 406.229 743.686 404.972V397.045H746.765V393.636ZM756.939 410.32C761.903 410.32 764.993 406.921 764.993 401.882C764.993 396.811 761.903 393.423 756.939 393.423C751.974 393.423 748.885 396.811 748.885 401.882C748.885 406.921 751.974 410.32 756.939 410.32ZM756.96 406.804C754.67 406.804 753.498 404.705 753.498 401.85C753.498 398.995 754.67 396.886 756.96 396.886C759.208 396.886 760.38 398.995 760.38 401.85C760.38 404.705 759.208 406.804 756.96 406.804ZM774.887 416.136H779.426V407.379H779.564C780.193 408.743 781.567 410.266 784.209 410.266C787.938 410.266 790.846 407.315 790.846 401.839C790.846 396.214 787.81 393.423 784.22 393.423C781.482 393.423 780.171 395.053 779.564 396.385H779.362V393.636H774.887V416.136ZM779.33 401.818C779.33 398.899 780.566 397.035 782.771 397.035C785.019 397.035 786.212 398.984 786.212 401.818C786.212 404.673 784.997 406.655 782.771 406.655C780.587 406.655 779.33 404.737 779.33 401.818ZM801.265 410.32C806.23 410.32 809.319 406.921 809.319 401.882C809.319 396.811 806.23 393.423 801.265 393.423C796.301 393.423 793.211 396.811 793.211 401.882C793.211 406.921 796.301 410.32 801.265 410.32ZM801.286 406.804C798.996 406.804 797.824 404.705 797.824 401.85C797.824 398.995 798.996 396.886 801.286 396.886C803.534 396.886 804.706 398.995 804.706 401.85C804.706 404.705 803.534 406.804 801.286 406.804ZM816.808 388.182H812.27V410H816.808V388.182ZM820.444 410H824.982V393.636H820.444V410ZM822.724 391.527C824.077 391.527 825.185 390.494 825.185 389.226C825.185 387.969 824.077 386.935 822.724 386.935C821.381 386.935 820.273 387.969 820.273 389.226C820.273 390.494 821.381 391.527 822.724 391.527ZM836.011 410.32C840.368 410.32 843.106 407.763 843.319 404.002H839.037C838.77 405.749 837.62 406.729 836.064 406.729C833.944 406.729 832.57 404.95 832.57 401.818C832.57 398.729 833.955 396.96 836.064 396.96C837.726 396.96 838.792 398.058 839.037 399.688H843.319C843.128 395.906 840.262 393.423 835.99 393.423C831.025 393.423 827.957 396.864 827.957 401.882C827.957 406.857 830.972 410.32 836.011 410.32ZM849.027 416.136C852.404 416.136 854.194 414.411 855.121 411.768L861.481 393.658L856.676 393.636L853.256 405.653H853.086L849.698 393.636H844.925L850.795 410.469L850.529 411.161C849.933 412.695 848.793 412.77 847.195 412.28L846.172 415.668C846.822 415.945 847.876 416.136 849.027 416.136ZM171.811 452H176.349V442.178C176.349 440.366 177.5 439.163 179.013 439.163C180.504 439.163 181.506 440.185 181.506 441.794V452H185.906V442.007C185.906 440.313 186.875 439.163 188.526 439.163C189.975 439.163 191.062 440.068 191.062 441.89V452H195.589V440.995C195.589 437.447 193.48 435.423 190.433 435.423C188.036 435.423 186.172 436.648 185.501 438.523H185.33C184.808 436.627 183.136 435.423 180.888 435.423C178.683 435.423 177.01 436.595 176.328 438.523H176.136V435.636H171.811V452ZM203.841 452.309C206.259 452.309 207.825 451.254 208.624 449.731H208.752V452H213.056V440.963C213.056 437.064 209.753 435.423 206.11 435.423C202.189 435.423 199.611 437.298 198.983 440.281L203.18 440.622C203.489 439.536 204.458 438.737 206.088 438.737C207.633 438.737 208.517 439.514 208.517 440.857V440.92C208.517 441.975 207.399 442.114 204.554 442.391C201.316 442.689 198.407 443.776 198.407 447.43C198.407 450.668 200.719 452.309 203.841 452.309ZM205.14 449.177C203.745 449.177 202.743 448.527 202.743 447.281C202.743 446.002 203.798 445.374 205.396 445.15C206.387 445.011 208.006 444.777 208.549 444.415V446.151C208.549 447.866 207.132 449.177 205.14 449.177ZM216.577 452H221.115V446.801L222.34 445.406L226.804 452H232.12L225.739 442.721L231.811 435.636H226.602L221.36 441.847H221.115V430.182H216.577V452ZM234.038 452H238.576V435.636H234.038V452ZM236.317 433.527C237.67 433.527 238.778 432.494 238.778 431.226C238.778 429.969 237.67 428.935 236.317 428.935C234.975 428.935 233.867 429.969 233.867 431.226C233.867 432.494 234.975 433.527 236.317 433.527ZM246.75 442.54C246.76 440.43 248.018 439.195 249.85 439.195C251.672 439.195 252.769 440.388 252.758 442.391V452H257.297V441.581C257.297 437.767 255.059 435.423 251.65 435.423C249.221 435.423 247.464 436.616 246.729 438.523H246.537V435.636H242.211V452H246.75V442.54ZM268.246 458.477C272.923 458.477 276.246 456.347 276.246 452.16V435.636H271.74V438.385H271.57C270.962 437.053 269.631 435.423 266.893 435.423C263.303 435.423 260.266 438.214 260.266 443.786C260.266 449.23 263.217 451.766 266.903 451.766C269.513 451.766 270.973 450.455 271.57 449.102H271.761V452.096C271.761 454.344 270.323 455.217 268.352 455.217C266.349 455.217 265.337 454.344 264.964 453.353L260.767 453.918C261.31 456.496 263.835 458.477 268.246 458.477ZM268.342 448.357C266.115 448.357 264.901 446.588 264.901 443.765C264.901 440.984 266.094 439.035 268.342 439.035C270.547 439.035 271.783 440.899 271.783 443.765C271.783 446.652 270.526 448.357 268.342 448.357ZM282.511 452.277C283.874 452.277 285.057 451.137 285.067 449.72C285.057 448.325 283.874 447.185 282.511 447.185C281.104 447.185 279.943 448.325 279.954 449.72C279.943 451.137 281.104 452.277 282.511 452.277ZM314.047 437.82C313.44 432.781 309.626 429.884 304.577 429.884C298.813 429.884 294.413 433.953 294.413 441.091C294.413 448.207 298.738 452.298 304.577 452.298C310.17 452.298 313.547 448.58 314.047 444.564L309.381 444.543C308.944 446.876 307.112 448.218 304.651 448.218C301.338 448.218 299.09 445.757 299.09 441.091C299.09 436.553 301.306 433.964 304.683 433.964C307.208 433.964 309.03 435.423 309.381 437.82H314.047ZM321.936 452.309C324.355 452.309 325.921 451.254 326.72 449.731H326.847V452H331.151V440.963C331.151 437.064 327.849 435.423 324.205 435.423C320.285 435.423 317.707 437.298 317.078 440.281L321.276 440.622C321.585 439.536 322.554 438.737 324.184 438.737C325.729 438.737 326.613 439.514 326.613 440.857V440.92C326.613 441.975 325.494 442.114 322.65 442.391C319.411 442.689 316.503 443.776 316.503 447.43C316.503 450.668 318.815 452.309 321.936 452.309ZM323.236 449.177C321.84 449.177 320.839 448.527 320.839 447.281C320.839 446.002 321.894 445.374 323.492 445.15C324.482 445.011 326.102 444.777 326.645 444.415V446.151C326.645 447.866 325.228 449.177 323.236 449.177ZM339.211 442.54C339.221 440.43 340.479 439.195 342.311 439.195C344.133 439.195 345.23 440.388 345.219 442.391V452H349.758V441.581C349.758 437.767 347.52 435.423 344.111 435.423C341.682 435.423 339.925 436.616 339.189 438.523H338.998V435.636H334.672V452H339.211V442.54ZM363.506 452H368.3L371.112 441.709H371.315L374.127 452H378.932L383.374 435.636H378.794L376.301 446.567H376.162L373.477 435.636H368.971L366.329 446.631H366.18L363.644 435.636H359.053L363.506 452ZM392.843 452.32C396.891 452.32 399.618 450.349 400.257 447.312L396.06 447.036C395.602 448.282 394.43 448.932 392.917 448.932C390.648 448.932 389.21 447.43 389.21 444.99V444.979H400.353V443.733C400.353 438.172 396.987 435.423 392.662 435.423C387.846 435.423 384.725 438.843 384.725 443.893C384.725 449.081 387.804 452.32 392.843 452.32ZM389.21 442.167C389.306 440.303 390.723 438.811 392.736 438.811C394.707 438.811 396.071 440.217 396.081 442.167H389.21ZM420.752 445.033C420.763 447.227 419.26 448.378 417.631 448.378C415.915 448.378 414.807 447.174 414.797 445.246V435.636H410.258V446.055C410.269 449.88 412.506 452.213 415.798 452.213C418.259 452.213 420.028 450.945 420.763 449.028H420.933V452H425.29V435.636H420.752V445.033ZM442.536 440.303C442.131 437.288 439.702 435.423 435.568 435.423C431.381 435.423 428.622 437.362 428.633 440.516C428.622 442.966 430.167 444.553 433.363 445.192L436.197 445.757C437.624 446.045 438.274 446.567 438.295 447.387C438.274 448.357 437.219 449.049 435.632 449.049C434.013 449.049 432.937 448.357 432.66 447.025L428.196 447.259C428.622 450.391 431.286 452.32 435.621 452.32C439.862 452.32 442.898 450.157 442.908 446.929C442.898 444.564 441.353 443.147 438.178 442.497L435.217 441.901C433.693 441.57 433.129 441.048 433.139 440.26C433.129 439.28 434.237 438.641 435.643 438.641C437.219 438.641 438.157 439.504 438.381 440.558L442.536 440.303ZM453.224 452.32C457.272 452.32 459.999 450.349 460.638 447.312L456.441 447.036C455.983 448.282 454.811 448.932 453.298 448.932C451.029 448.932 449.591 447.43 449.591 444.99V444.979H460.734V443.733C460.734 438.172 457.368 435.423 453.042 435.423C448.227 435.423 445.106 438.843 445.106 443.893C445.106 449.081 448.184 452.32 453.224 452.32ZM449.591 442.167C449.687 440.303 451.104 438.811 453.117 438.811C455.088 438.811 456.452 440.217 456.462 442.167H449.591ZM478.033 452.32C482.39 452.32 485.128 449.763 485.341 446.002H481.058C480.792 447.749 479.641 448.729 478.086 448.729C475.966 448.729 474.592 446.95 474.592 443.818C474.592 440.729 475.977 438.96 478.086 438.96C479.748 438.96 480.813 440.058 481.058 441.688H485.341C485.149 437.906 482.283 435.423 478.011 435.423C473.047 435.423 469.979 438.864 469.979 443.882C469.979 448.857 472.994 452.32 478.033 452.32ZM488.247 452H492.785V442.742C492.785 440.729 494.255 439.344 496.258 439.344C496.887 439.344 497.749 439.45 498.176 439.589V435.562C497.771 435.466 497.206 435.402 496.748 435.402C494.916 435.402 493.414 436.467 492.817 438.491H492.646V435.636H488.247V452ZM507.154 452.32C512.118 452.32 515.208 448.921 515.208 443.882C515.208 438.811 512.118 435.423 507.154 435.423C502.189 435.423 499.1 438.811 499.1 443.882C499.1 448.921 502.189 452.32 507.154 452.32ZM507.175 448.804C504.885 448.804 503.713 446.705 503.713 443.85C503.713 440.995 504.885 438.886 507.175 438.886C509.423 438.886 510.595 440.995 510.595 443.85C510.595 446.705 509.423 448.804 507.175 448.804ZM520.977 452H525.771L528.583 441.709H528.786L531.598 452H536.403L540.845 435.636H536.264L533.771 446.567H533.633L530.948 435.636H526.442L523.8 446.631H523.651L521.115 435.636H516.523L520.977 452ZM548.886 452.266C551.528 452.266 552.902 450.743 553.531 449.379H553.722V452H558.197V430.182H553.669V438.385H553.531C552.923 437.053 551.613 435.423 548.875 435.423C545.285 435.423 542.249 438.214 542.249 443.839C542.249 449.315 545.157 452.266 548.886 452.266ZM550.324 448.655C548.097 448.655 546.883 446.673 546.883 443.818C546.883 440.984 548.076 439.035 550.324 439.035C552.529 439.035 553.765 440.899 553.765 443.818C553.765 446.737 552.508 448.655 550.324 448.655ZM572.124 441.24H562.173V444.841H572.124V441.24ZM575.991 452H580.529V435.636H575.991V452ZM578.271 433.527C579.624 433.527 580.732 432.494 580.732 431.226C580.732 429.969 579.624 428.935 578.271 428.935C576.928 428.935 575.82 429.969 575.82 431.226C575.82 432.494 576.928 433.527 578.271 433.527ZM588.703 442.54C588.714 440.43 589.971 439.195 591.803 439.195C593.625 439.195 594.722 440.388 594.711 442.391V452H599.25V441.581C599.25 437.767 597.013 435.423 593.604 435.423C591.175 435.423 589.417 436.616 588.682 438.523H588.49V435.636H584.165V452H588.703V442.54ZM602.827 458.136H607.365V449.379H607.504C608.132 450.743 609.506 452.266 612.148 452.266C615.877 452.266 618.786 449.315 618.786 443.839C618.786 438.214 615.749 435.423 612.159 435.423C609.421 435.423 608.111 437.053 607.504 438.385H607.301V435.636H602.827V458.136ZM607.269 443.818C607.269 440.899 608.505 439.035 610.71 439.035C612.958 439.035 614.151 440.984 614.151 443.818C614.151 446.673 612.937 448.655 610.71 448.655C608.526 448.655 607.269 446.737 607.269 443.818ZM632.305 445.033C632.315 447.227 630.813 448.378 629.183 448.378C627.468 448.378 626.36 447.174 626.349 445.246V435.636H621.811V446.055C621.822 449.88 624.059 452.213 627.351 452.213C629.812 452.213 631.58 450.945 632.315 449.028H632.486V452H636.843V435.636H632.305V445.033ZM649.177 435.636H646.098V431.716H641.56V435.636H639.323V439.045H641.56V447.568C641.539 450.775 643.722 452.362 647.014 452.224C648.186 452.181 649.017 451.947 649.475 451.798L648.762 448.42C648.538 448.463 648.058 448.57 647.632 448.57C646.727 448.57 646.098 448.229 646.098 446.972V439.045H649.177V435.636ZM665.514 440.303C665.109 437.288 662.68 435.423 658.547 435.423C654.36 435.423 651.601 437.362 651.611 440.516C651.601 442.966 653.145 444.553 656.341 445.192L659.175 445.757C660.603 446.045 661.253 446.567 661.274 447.387C661.253 448.357 660.198 449.049 658.611 449.049C656.991 449.049 655.915 448.357 655.638 447.025L651.175 447.259C651.601 450.391 654.264 452.32 658.6 452.32C662.84 452.32 665.876 450.157 665.887 446.929C665.876 444.564 664.331 443.147 661.157 442.497L658.195 441.901C656.672 441.57 656.107 441.048 656.118 440.26C656.107 439.28 657.215 438.641 658.621 438.641C660.198 438.641 661.135 439.504 661.359 440.558L665.514 440.303ZM684.392 435.636H681.313V431.716H676.775V435.636H674.537V439.045H676.775V447.568C676.753 450.775 678.937 452.362 682.229 452.224C683.401 452.181 684.232 451.947 684.69 451.798L683.976 448.42C683.753 448.463 683.273 448.57 682.847 448.57C681.942 448.57 681.313 448.229 681.313 446.972V439.045H684.392V435.636ZM694.566 452.32C699.53 452.32 702.62 448.921 702.62 443.882C702.62 438.811 699.53 435.423 694.566 435.423C689.601 435.423 686.512 438.811 686.512 443.882C686.512 448.921 689.601 452.32 694.566 452.32ZM694.587 448.804C692.297 448.804 691.125 446.705 691.125 443.85C691.125 440.995 692.297 438.886 694.587 438.886C696.835 438.886 698.007 440.995 698.007 443.85C698.007 446.705 696.835 448.804 694.587 448.804ZM712.599 452H717.074V449.379H717.276C717.905 450.743 719.279 452.266 721.921 452.266C725.65 452.266 728.558 449.315 728.558 443.839C728.558 438.214 725.522 435.423 721.932 435.423C719.194 435.423 717.884 437.053 717.276 438.385H717.138V430.182H712.599V452ZM717.042 443.818C717.042 440.899 718.278 439.035 720.483 439.035C722.731 439.035 723.924 440.984 723.924 443.818C723.924 446.673 722.71 448.655 720.483 448.655C718.299 448.655 717.042 446.737 717.042 443.818ZM739.044 452.32C743.092 452.32 745.819 450.349 746.459 447.312L742.261 447.036C741.803 448.282 740.631 448.932 739.118 448.932C736.849 448.932 735.411 447.43 735.411 444.99V444.979H746.555V443.733C746.555 438.172 743.188 435.423 738.863 435.423C734.047 435.423 730.926 438.843 730.926 443.893C730.926 449.081 734.005 452.32 739.044 452.32ZM735.411 442.167C735.507 440.303 736.924 438.811 738.937 438.811C740.908 438.811 742.272 440.217 742.282 442.167H735.411ZM771.715 435.636H766.911L763.523 447.344H763.352L759.954 435.636H755.16L760.881 452H765.994L771.715 435.636ZM774.038 452H778.576V435.636H774.038V452ZM776.317 433.527C777.67 433.527 778.778 432.494 778.778 431.226C778.778 429.969 777.67 428.935 776.317 428.935C774.975 428.935 773.867 429.969 773.867 431.226C773.867 432.494 774.975 433.527 776.317 433.527ZM795.827 440.303C795.422 437.288 792.993 435.423 788.859 435.423C784.672 435.423 781.913 437.362 781.924 440.516C781.913 442.966 783.458 444.553 786.654 445.192L789.488 445.757C790.915 446.045 791.565 446.567 791.586 447.387C791.565 448.357 790.51 449.049 788.923 449.049C787.304 449.049 786.228 448.357 785.951 447.025L781.487 447.259C781.913 450.391 784.577 452.32 788.912 452.32C793.153 452.32 796.189 450.157 796.199 446.929C796.189 444.564 794.644 443.147 791.469 442.497L788.508 441.901C786.984 441.57 786.42 441.048 786.43 440.26C786.42 439.28 787.528 438.641 788.934 438.641C790.51 438.641 791.448 439.504 791.672 440.558L795.827 440.303ZM799.057 452H803.596V435.636H799.057V452ZM801.337 433.527C802.69 433.527 803.798 432.494 803.798 431.226C803.798 429.969 802.69 428.935 801.337 428.935C799.995 428.935 798.887 429.969 798.887 431.226C798.887 432.494 799.995 433.527 801.337 433.527ZM814.624 452.32C819.589 452.32 822.678 448.921 822.678 443.882C822.678 438.811 819.589 435.423 814.624 435.423C809.66 435.423 806.57 438.811 806.57 443.882C806.57 448.921 809.66 452.32 814.624 452.32ZM814.646 448.804C812.355 448.804 811.183 446.705 811.183 443.85C811.183 440.995 812.355 438.886 814.646 438.886C816.894 438.886 818.066 440.995 818.066 443.85C818.066 446.705 816.894 448.804 814.646 448.804ZM830.168 442.54C830.178 440.43 831.436 439.195 833.268 439.195C835.09 439.195 836.187 440.388 836.176 442.391V452H840.715V441.581C840.715 437.767 838.477 435.423 835.068 435.423C832.639 435.423 830.882 436.616 830.146 438.523H829.955V435.636H825.629V452H830.168V442.54ZM851.749 452.32C855.797 452.32 858.525 450.349 859.164 447.312L854.966 447.036C854.508 448.282 853.336 448.932 851.824 448.932C849.554 448.932 848.116 447.43 848.116 444.99V444.979H859.26V443.733C859.26 438.172 855.893 435.423 851.568 435.423C846.752 435.423 843.631 438.843 843.631 443.893C843.631 449.081 846.71 452.32 851.749 452.32ZM848.116 442.167C848.212 440.303 849.629 438.811 851.642 438.811C853.613 438.811 854.977 440.217 854.988 442.167H848.116ZM864.554 458.136C867.931 458.136 869.721 456.411 870.648 453.768L877.008 435.658L872.203 435.636L868.784 447.653H868.613L865.225 435.636H860.453L866.323 452.469L866.056 453.161C865.46 454.695 864.32 454.77 862.722 454.28L861.699 457.668C862.349 457.945 863.404 458.136 864.554 458.136ZM176.477 494.309C178.896 494.309 180.462 493.254 181.261 491.731H181.388V494H185.692V482.963C185.692 479.064 182.39 477.423 178.746 477.423C174.826 477.423 172.248 479.298 171.619 482.281L175.817 482.622C176.126 481.536 177.095 480.737 178.725 480.737C180.27 480.737 181.154 481.514 181.154 482.857V482.92C181.154 483.975 180.036 484.114 177.191 484.391C173.952 484.689 171.044 485.776 171.044 489.43C171.044 492.668 173.356 494.309 176.477 494.309ZM177.777 491.177C176.381 491.177 175.38 490.527 175.38 489.281C175.38 488.002 176.435 487.374 178.033 487.15C179.023 487.011 180.643 486.777 181.186 486.415V488.151C181.186 489.866 179.769 491.177 177.777 491.177ZM193.752 484.54C193.762 482.43 195.02 481.195 196.852 481.195C198.674 481.195 199.771 482.388 199.76 484.391V494H204.299V483.581C204.299 479.767 202.061 477.423 198.652 477.423C196.223 477.423 194.466 478.616 193.73 480.523H193.539V477.636H189.213V494H193.752V484.54ZM213.905 494.266C216.547 494.266 217.922 492.743 218.55 491.379H218.742V494H223.216V472.182H218.689V480.385H218.55C217.943 479.053 216.633 477.423 213.895 477.423C210.305 477.423 207.268 480.214 207.268 485.839C207.268 491.315 210.177 494.266 213.905 494.266ZM215.344 490.655C213.117 490.655 211.903 488.673 211.903 485.818C211.903 482.984 213.096 481.035 215.344 481.035C217.549 481.035 218.785 482.899 218.785 485.818C218.785 488.737 217.528 490.655 215.344 490.655ZM233.891 500.136H238.43V491.379H238.568C239.197 492.743 240.571 494.266 243.213 494.266C246.942 494.266 249.85 491.315 249.85 485.839C249.85 480.214 246.814 477.423 243.224 477.423C240.486 477.423 239.175 479.053 238.568 480.385H238.366V477.636H233.891V500.136ZM238.334 485.818C238.334 482.899 239.569 481.035 241.775 481.035C244.023 481.035 245.216 482.984 245.216 485.818C245.216 488.673 244.001 490.655 241.775 490.655C239.591 490.655 238.334 488.737 238.334 485.818ZM252.876 494H257.414V484.742C257.414 482.729 258.884 481.344 260.887 481.344C261.515 481.344 262.378 481.45 262.805 481.589V477.562C262.4 477.466 261.835 477.402 261.377 477.402C259.545 477.402 258.042 478.467 257.446 480.491H257.275V477.636H252.876V494ZM271.783 494.32C276.747 494.32 279.837 490.921 279.837 485.882C279.837 480.811 276.747 477.423 271.783 477.423C266.818 477.423 263.729 480.811 263.729 485.882C263.729 490.921 266.818 494.32 271.783 494.32ZM271.804 490.804C269.513 490.804 268.342 488.705 268.342 485.85C268.342 482.995 269.513 480.886 271.804 480.886C274.052 480.886 275.224 482.995 275.224 485.85C275.224 488.705 274.052 490.804 271.804 490.804ZM287.454 494.309C289.872 494.309 291.438 493.254 292.237 491.731H292.365V494H296.669V482.963C296.669 479.064 293.366 477.423 289.723 477.423C285.803 477.423 283.224 479.298 282.596 482.281L286.793 482.622C287.102 481.536 288.072 480.737 289.702 480.737C291.246 480.737 292.131 481.514 292.131 482.857V482.92C292.131 483.975 291.012 484.114 288.168 484.391C284.929 484.689 282.021 485.776 282.021 489.43C282.021 492.668 284.332 494.309 287.454 494.309ZM288.754 491.177C287.358 491.177 286.357 490.527 286.357 489.281C286.357 488.002 287.411 487.374 289.009 487.15C290 487.011 291.619 486.777 292.163 486.415V488.151C292.163 489.866 290.746 491.177 288.754 491.177ZM307.583 494.32C311.941 494.32 314.679 491.763 314.892 488.002H310.609C310.343 489.749 309.192 490.729 307.637 490.729C305.517 490.729 304.142 488.95 304.142 485.818C304.142 482.729 305.527 480.96 307.637 480.96C309.299 480.96 310.364 482.058 310.609 483.688H314.892C314.7 479.906 311.834 477.423 307.562 477.423C302.598 477.423 299.529 480.864 299.529 485.882C299.529 490.857 302.544 494.32 307.583 494.32ZM326.501 477.636H323.422V473.716H318.884V477.636H316.647V481.045H318.884V489.568C318.863 492.775 321.047 494.362 324.339 494.224C325.51 494.181 326.341 493.947 326.8 493.798L326.086 490.42C325.862 490.463 325.383 490.57 324.956 490.57C324.051 490.57 323.422 490.229 323.422 488.972V481.045H326.501V477.636ZM329.458 494H333.996V477.636H329.458V494ZM331.737 475.527C333.09 475.527 334.198 474.494 334.198 473.226C334.198 471.969 333.09 470.935 331.737 470.935C330.395 470.935 329.287 471.969 329.287 473.226C329.287 474.494 330.395 475.527 331.737 475.527ZM352.887 477.636H348.082L344.695 489.344H344.524L341.126 477.636H336.332L342.053 494H347.166L352.887 477.636ZM362.11 494.32C366.159 494.32 368.886 492.349 369.525 489.312L365.328 489.036C364.869 490.282 363.698 490.932 362.185 490.932C359.916 490.932 358.477 489.43 358.477 486.99V486.979H369.621V485.733C369.621 480.172 366.254 477.423 361.929 477.423C357.114 477.423 353.992 480.843 353.992 485.893C353.992 491.081 357.071 494.32 362.11 494.32ZM358.477 484.167C358.573 482.303 359.99 480.811 362.004 480.811C363.975 480.811 365.338 482.217 365.349 484.167H358.477ZM379.526 494H384.064V477.636H379.526V494ZM381.806 475.527C383.159 475.527 384.267 474.494 384.267 473.226C384.267 471.969 383.159 470.935 381.806 470.935C380.463 470.935 379.355 471.969 379.355 473.226C379.355 474.494 380.463 475.527 381.806 475.527ZM392.238 484.54C392.249 482.43 393.506 481.195 395.338 481.195C397.16 481.195 398.257 482.388 398.247 484.391V494H402.785V483.581C402.785 479.767 400.548 477.423 397.139 477.423C394.71 477.423 392.952 478.616 392.217 480.523H392.025V477.636H387.7V494H392.238V484.54ZM413.305 500.136H417.844V491.379H417.982C418.611 492.743 419.985 494.266 422.627 494.266C426.356 494.266 429.264 491.315 429.264 485.839C429.264 480.214 426.228 477.423 422.638 477.423C419.9 477.423 418.589 479.053 417.982 480.385H417.78V477.636H413.305V500.136ZM417.748 485.818C417.748 482.899 418.983 481.035 421.189 481.035C423.437 481.035 424.63 482.984 424.63 485.818C424.63 488.673 423.415 490.655 421.189 490.655C419.005 490.655 417.748 488.737 417.748 485.818ZM439.683 494.32C444.648 494.32 447.737 490.921 447.737 485.882C447.737 480.811 444.648 477.423 439.683 477.423C434.719 477.423 431.629 480.811 431.629 485.882C431.629 490.921 434.719 494.32 439.683 494.32ZM439.704 490.804C437.414 490.804 436.242 488.705 436.242 485.85C436.242 482.995 437.414 480.886 439.704 480.886C441.952 480.886 443.124 482.995 443.124 485.85C443.124 488.705 441.952 490.804 439.704 490.804ZM455.226 472.182H450.688V494H455.226V472.182ZM458.862 494H463.4V477.636H458.862V494ZM461.142 475.527C462.495 475.527 463.603 474.494 463.603 473.226C463.603 471.969 462.495 470.935 461.142 470.935C459.799 470.935 458.691 471.969 458.691 473.226C458.691 474.494 459.799 475.527 461.142 475.527ZM474.429 494.32C478.786 494.32 481.524 491.763 481.737 488.002H477.455C477.188 489.749 476.038 490.729 474.482 490.729C472.362 490.729 470.988 488.95 470.988 485.818C470.988 482.729 472.373 480.96 474.482 480.96C476.144 480.96 477.21 482.058 477.455 483.688H481.737C481.546 479.906 478.68 477.423 474.408 477.423C469.443 477.423 466.375 480.864 466.375 485.882C466.375 490.857 469.39 494.32 474.429 494.32ZM487.445 500.136C490.822 500.136 492.612 498.411 493.539 495.768L499.899 477.658L495.094 477.636L491.674 489.653H491.504L488.116 477.636H483.343L489.213 494.469L488.947 495.161C488.35 496.695 487.211 496.77 485.613 496.28L484.59 499.668C485.24 499.945 486.294 500.136 487.445 500.136ZM512.417 483.24H502.466V486.841H512.417V483.24ZM516.284 494H520.822V484.178C520.822 482.366 521.973 481.163 523.485 481.163C524.977 481.163 525.978 482.185 525.978 483.794V494H530.378V484.007C530.378 482.313 531.348 481.163 532.999 481.163C534.448 481.163 535.534 482.068 535.534 483.89V494H540.062V482.995C540.062 479.447 537.953 477.423 534.906 477.423C532.509 477.423 530.645 478.648 529.973 480.523H529.803C529.281 478.627 527.608 477.423 525.36 477.423C523.155 477.423 521.483 478.595 520.801 480.523H520.609V477.636H516.284V494ZM548.313 494.309C550.732 494.309 552.298 493.254 553.097 491.731H553.224V494H557.528V482.963C557.528 479.064 554.226 477.423 550.582 477.423C546.662 477.423 544.084 479.298 543.455 482.281L547.653 482.622C547.962 481.536 548.931 480.737 550.561 480.737C552.106 480.737 552.99 481.514 552.99 482.857V482.92C552.99 483.975 551.871 484.114 549.027 484.391C545.788 484.689 542.88 485.776 542.88 489.43C542.88 492.668 545.192 494.309 548.313 494.309ZM549.613 491.177C548.217 491.177 547.216 490.527 547.216 489.281C547.216 488.002 548.271 487.374 549.869 487.15C550.859 487.011 552.479 486.777 553.022 486.415V488.151C553.022 489.866 551.605 491.177 549.613 491.177ZM561.049 494H565.588V488.801L566.813 487.406L571.277 494H576.593L570.211 484.721L576.284 477.636H571.074L565.833 483.847H565.588V472.182H561.049V494ZM578.51 494H583.049V477.636H578.51V494ZM580.79 475.527C582.143 475.527 583.251 474.494 583.251 473.226C583.251 471.969 582.143 470.935 580.79 470.935C579.448 470.935 578.34 471.969 578.34 473.226C578.34 474.494 579.448 475.527 580.79 475.527ZM591.222 484.54C591.233 482.43 592.49 481.195 594.323 481.195C596.144 481.195 597.242 482.388 597.231 484.391V494H601.769V483.581C601.769 479.767 599.532 477.423 596.123 477.423C593.694 477.423 591.936 478.616 591.201 480.523H591.009V477.636H586.684V494H591.222V484.54ZM612.718 500.477C617.395 500.477 620.719 498.347 620.719 494.16V477.636H616.213V480.385H616.042C615.435 479.053 614.103 477.423 611.365 477.423C607.775 477.423 604.739 480.214 604.739 485.786C604.739 491.23 607.69 493.766 611.376 493.766C613.986 493.766 615.446 492.455 616.042 491.102H616.234V494.096C616.234 496.344 614.796 497.217 612.825 497.217C610.822 497.217 609.81 496.344 609.437 495.353L605.24 495.918C605.783 498.496 608.308 500.477 612.718 500.477ZM612.814 490.357C610.588 490.357 609.373 488.588 609.373 485.765C609.373 482.984 610.566 481.035 612.814 481.035C615.02 481.035 616.255 482.899 616.255 485.765C616.255 488.652 614.998 490.357 612.814 490.357ZM628.23 487.459H632.267V487.097C632.289 485.019 633.034 484.05 634.718 483.038C636.71 481.855 638.01 480.289 638.01 477.786C638.01 474.057 635.005 471.884 630.776 471.884C626.909 471.884 623.755 473.908 623.659 478.169H628.006C628.07 476.433 629.359 475.506 630.755 475.506C632.193 475.506 633.354 476.464 633.354 477.945C633.354 479.341 632.342 480.268 631.032 481.099C629.242 482.228 628.24 483.368 628.23 487.097V487.459ZM630.328 494.277C631.692 494.277 632.875 493.137 632.885 491.72C632.875 490.325 631.692 489.185 630.328 489.185C628.922 489.185 627.761 490.325 627.772 491.72C627.761 493.137 628.922 494.277 630.328 494.277ZM645.009 472.182H641.6V474.504C641.6 476.305 640.961 477.615 640.247 478.744L642.25 479.927C643.752 478.67 645.009 476.433 645.009 474.483V472.182ZM650.357 472.182H646.948V474.504C646.948 476.305 646.309 477.615 645.595 478.744L647.598 479.927C649.1 478.67 650.357 476.433 650.357 474.483V472.182Z" fill="black"/>
<path d="M172.642 213H181.08V202.159H186.807C194.801 202.159 199.795 197.42 199.795 190.176C199.795 183 194.903 178.091 187.062 178.091H172.642V213ZM181.08 195.511V184.892H185.239C189.023 184.892 191.051 186.938 191.051 190.176C191.051 193.398 189.023 195.511 185.239 195.511H181.08ZM203.955 213H212.29V198.784C212.29 195.665 214.506 193.568 217.489 193.568C218.477 193.568 219.96 193.739 220.761 194.011V186.767C220.062 186.58 219.193 186.46 218.426 186.46C215.562 186.46 213.278 188.131 212.324 191.591H212.051V186.818H203.955V213ZM235.02 213.494C243.253 213.494 248.247 208.057 248.247 199.994C248.247 191.915 243.253 186.477 235.02 186.477C226.787 186.477 221.793 191.915 221.793 199.994C221.793 208.057 226.787 213.494 235.02 213.494ZM235.071 207.205C231.986 207.205 230.281 204.273 230.281 199.943C230.281 195.597 231.986 192.648 235.071 192.648C238.054 192.648 239.759 195.597 239.759 199.943C239.759 204.273 238.054 207.205 235.071 207.205ZM259.898 213.443C263.545 213.443 266.068 212.028 267.5 209.352H267.705V213H275.545V195.205C275.545 189.665 270.619 186.477 263.955 186.477C256.915 186.477 252.926 190.023 252.261 194.795L259.949 195.068C260.307 193.398 261.688 192.375 263.886 192.375C265.932 192.375 267.227 193.364 267.227 195.119V195.205C267.227 196.807 265.489 197.148 261.023 197.54C255.722 197.983 251.29 199.943 251.29 205.739C251.29 210.92 254.886 213.443 259.898 213.443ZM262.472 207.989C260.545 207.989 259.182 207.068 259.182 205.33C259.182 203.642 260.511 202.619 262.881 202.261C264.432 202.04 266.341 201.699 267.278 201.205V203.693C267.278 206.25 265.131 207.989 262.472 207.989ZM292.864 213.494C300.227 213.494 304.795 209.216 305.017 202.739H297.227C296.92 205.517 295.25 207.034 292.966 207.034C290.034 207.034 288.125 204.562 288.125 199.909C288.125 195.29 290.051 192.818 292.966 192.818C295.352 192.818 296.903 194.438 297.227 197.114H305.017C304.83 190.67 300.125 186.477 292.847 186.477C284.614 186.477 279.636 191.966 279.636 199.994C279.636 207.989 284.58 213.494 292.864 213.494ZM324.061 186.818H319.339V180.545H311.004V186.818H307.544V192.955H311.004V205.688C310.953 210.989 314.396 213.648 320.277 213.375C322.288 213.273 323.737 212.864 324.538 212.625L323.277 206.608C322.919 206.693 322.084 206.864 321.453 206.864C320.107 206.864 319.339 206.318 319.339 204.767V192.955H324.061V186.818ZM328.314 213H336.649V186.818H328.314V213ZM332.49 183.767C334.859 183.767 336.768 181.977 336.768 179.778C336.768 177.58 334.859 175.807 332.49 175.807C330.138 175.807 328.212 177.58 328.212 179.778C328.212 181.977 330.138 183.767 332.49 183.767ZM367.352 186.818H358.574L353.733 204.852H353.46L348.636 186.818H339.858L348.824 213H358.369L367.352 186.818ZM381.943 213.494C388.812 213.494 393.33 210.17 394.284 205.023L386.631 204.801C385.983 206.54 384.278 207.477 382.097 207.477C378.892 207.477 376.915 205.347 376.915 202.142V201.92H394.369V199.841C394.369 191.216 389.119 186.477 381.688 186.477C373.778 186.477 368.699 191.898 368.699 200.011C368.699 208.398 373.71 213.494 381.943 213.494ZM376.915 197.08C377.034 194.472 379.097 192.494 381.858 192.494C384.602 192.494 386.58 194.403 386.614 197.08H376.915ZM408.939 213H417.376V202.159H423.104C431.098 202.159 436.092 197.42 436.092 190.176C436.092 183 431.2 178.091 423.359 178.091H408.939V213ZM417.376 195.511V184.892H421.536C425.32 184.892 427.348 186.938 427.348 190.176C427.348 193.398 425.32 195.511 421.536 195.511H417.376ZM451.957 213.494C460.19 213.494 465.185 208.057 465.185 199.994C465.185 191.915 460.19 186.477 451.957 186.477C443.724 186.477 438.73 191.915 438.73 199.994C438.73 208.057 443.724 213.494 451.957 213.494ZM452.009 207.205C448.923 207.205 447.219 204.273 447.219 199.943C447.219 195.597 448.923 192.648 452.009 192.648C454.991 192.648 456.696 195.597 456.696 199.943C456.696 204.273 454.991 207.205 452.009 207.205ZM477.79 178.091H469.455V213H477.79V178.091ZM483.095 213H491.43V186.818H483.095V213ZM487.271 183.767C489.641 183.767 491.55 181.977 491.55 179.778C491.55 177.58 489.641 175.807 487.271 175.807C484.919 175.807 482.993 177.58 482.993 179.778C482.993 181.977 484.919 183.767 487.271 183.767ZM508.957 213.494C516.321 213.494 520.889 209.216 521.111 202.739H513.321C513.014 205.517 511.344 207.034 509.06 207.034C506.128 207.034 504.219 204.562 504.219 199.909C504.219 195.29 506.145 192.818 509.06 192.818C511.446 192.818 512.997 194.438 513.321 197.114H521.111C520.923 190.67 516.219 186.477 508.94 186.477C500.707 186.477 495.73 191.966 495.73 199.994C495.73 207.989 500.673 213.494 508.957 213.494ZM530.473 222.818C536.473 222.818 539.456 219.784 540.905 215.506L550.774 186.835L541.996 186.818L537.104 205.5H536.831L532.007 186.818H523.28L532.587 213.955L532.263 214.739C531.462 216.699 529.655 216.733 527.2 215.932L525.359 221.983C526.621 222.494 528.479 222.818 530.473 222.818ZM564.283 178.091V213H572.499V191.438H572.788L581.175 212.778H586.425L594.811 191.557H595.101V213H603.317V178.091H592.868L584.004 199.705H583.595L574.732 178.091H564.283ZM615.96 213.443C619.608 213.443 622.131 212.028 623.562 209.352H623.767V213H631.608V195.205C631.608 189.665 626.682 186.477 620.017 186.477C612.977 186.477 608.989 190.023 608.324 194.795L616.011 195.068C616.369 193.398 617.75 192.375 619.949 192.375C621.994 192.375 623.29 193.364 623.29 195.119V195.205C623.29 196.807 621.551 197.148 617.085 197.54C611.784 197.983 607.352 199.943 607.352 205.739C607.352 210.92 610.949 213.443 615.96 213.443ZM618.534 207.989C616.608 207.989 615.244 207.068 615.244 205.33C615.244 203.642 616.574 202.619 618.943 202.261C620.494 202.04 622.403 201.699 623.341 201.205V203.693C623.341 206.25 621.193 207.989 618.534 207.989ZM636.705 213H645.04V205.142L646.727 203.097L652.966 213H662.597L652.932 198.222L662.222 186.818H652.778L645.415 196.193H645.04V178.091H636.705V213ZM665.205 213H673.54V186.818H665.205V213ZM669.381 183.767C671.75 183.767 673.659 181.977 673.659 179.778C673.659 177.58 671.75 175.807 669.381 175.807C667.028 175.807 665.102 177.58 665.102 179.778C665.102 181.977 667.028 183.767 669.381 183.767ZM687.18 198.068C687.197 195.085 688.936 193.312 691.578 193.312C694.22 193.312 695.788 195.051 695.771 197.949V213H704.107V196.312C704.124 190.415 700.527 186.477 695.021 186.477C691.152 186.477 688.22 188.438 687.061 191.625H686.771V186.818H678.845V213H687.18V198.068ZM721.472 223.364C729.364 223.364 734.75 219.767 734.75 213.102V186.818H726.449V191.301H726.21C725.205 188.898 722.92 186.477 718.795 186.477C713.324 186.477 708.364 190.688 708.364 199.875C708.364 208.773 713.085 212.642 718.83 212.642C722.682 212.642 725.256 210.852 726.244 208.432H726.534V213.034C726.534 216.375 724.489 217.585 721.693 217.585C719.017 217.585 717.415 216.562 716.972 214.943L709.08 215.386C709.693 219.972 714.006 223.364 721.472 223.364ZM721.727 206.574C718.642 206.574 716.92 204.068 716.92 199.875C716.92 195.699 718.625 192.989 721.727 192.989C724.778 192.989 726.551 195.631 726.551 199.875C726.551 204.085 724.761 206.574 721.727 206.574Z" fill="black"/>
<path d="M173.392 556L174.994 551.381H181.812L183.406 556H186.202L179.92 538.545H176.878L170.597 556H173.392ZM175.761 549.165L178.335 541.716H178.472L181.045 549.165H175.761ZM199.77 556.256C202.156 556.256 203.094 554.798 203.554 553.963H203.767V556H206.256V538.545H203.707V545.031H203.554C203.094 544.222 202.224 542.739 199.787 542.739C196.625 542.739 194.298 545.236 194.298 549.48C194.298 553.716 196.591 556.256 199.77 556.256ZM200.332 554.082C198.057 554.082 196.872 552.08 196.872 549.455C196.872 546.855 198.031 544.903 200.332 544.903C202.557 544.903 203.75 546.719 203.75 549.455C203.75 552.207 202.531 554.082 200.332 554.082ZM209.893 556H212.441V548.006C212.441 546.293 213.762 545.057 215.569 545.057C216.097 545.057 216.694 545.151 216.898 545.21V542.773C216.643 542.739 216.14 542.713 215.816 542.713C214.282 542.713 212.969 543.582 212.492 544.989H212.356V542.909H209.893V556ZM224.149 556.264C227.839 556.264 230.251 553.562 230.251 549.514C230.251 545.44 227.839 542.739 224.149 542.739C220.459 542.739 218.047 545.44 218.047 549.514C218.047 553.562 220.459 556.264 224.149 556.264ZM224.158 554.125C221.746 554.125 220.621 552.02 220.621 549.506C220.621 547 221.746 544.869 224.158 544.869C226.553 544.869 227.678 547 227.678 549.506C227.678 552.02 226.553 554.125 224.158 554.125ZM235.644 548.227C235.644 546.139 236.923 544.946 238.695 544.946C240.425 544.946 241.474 546.08 241.474 547.98V556H244.022V547.673C244.022 544.435 242.241 542.739 239.565 542.739C237.596 542.739 236.309 543.651 235.704 545.04H235.542V542.909H233.096V556H235.644V548.227ZM253.082 556.264C255.937 556.264 257.957 554.858 258.536 552.727L256.124 552.293C255.664 553.528 254.556 554.159 253.107 554.159C250.925 554.159 249.46 552.744 249.391 550.222H258.698V549.318C258.698 544.588 255.869 542.739 252.903 542.739C249.255 542.739 246.852 545.517 246.852 549.54C246.852 553.605 249.221 556.264 253.082 556.264ZM249.4 548.312C249.502 546.455 250.849 544.844 252.92 544.844C254.897 544.844 256.192 546.31 256.201 548.312H249.4ZM267.877 560.909H270.425V553.963H270.579C271.039 554.798 271.977 556.256 274.363 556.256C277.533 556.256 279.835 553.716 279.835 549.48C279.835 545.236 277.499 542.739 274.337 542.739C271.908 542.739 271.031 544.222 270.579 545.031H270.366V542.909H267.877V560.909ZM270.374 549.455C270.374 546.719 271.567 544.903 273.792 544.903C276.102 544.903 277.261 546.855 277.261 549.455C277.261 552.08 276.067 554.082 273.792 554.082C271.602 554.082 270.374 552.207 270.374 549.455ZM288.204 556.264C291.894 556.264 294.306 553.562 294.306 549.514C294.306 545.44 291.894 542.739 288.204 542.739C284.513 542.739 282.102 545.44 282.102 549.514C282.102 553.562 284.513 556.264 288.204 556.264ZM288.212 554.125C285.8 554.125 284.675 552.02 284.675 549.506C284.675 547 285.8 544.869 288.212 544.869C290.607 544.869 291.732 547 291.732 549.506C291.732 552.02 290.607 554.125 288.212 554.125ZM299.699 538.545H297.151V556H299.699V538.545ZM303.127 556H305.675V542.909H303.127V556ZM304.414 540.889C305.292 540.889 306.025 540.207 306.025 539.372C306.025 538.537 305.292 537.847 304.414 537.847C303.528 537.847 302.803 538.537 302.803 539.372C302.803 540.207 303.528 540.889 304.414 540.889ZM314.618 556.264C317.712 556.264 319.714 554.406 319.996 551.858H317.516C317.192 553.273 316.092 554.108 314.635 554.108C312.479 554.108 311.089 552.31 311.089 549.455C311.089 546.651 312.504 544.886 314.635 544.886C316.254 544.886 317.243 545.909 317.516 547.136H319.996C319.723 544.494 317.567 542.739 314.592 542.739C310.902 542.739 308.516 545.517 308.516 549.514C308.516 553.46 310.817 556.264 314.618 556.264ZM324.332 560.909C326.437 560.909 327.766 559.81 328.525 557.747L333.937 542.935L331.184 542.909L327.869 553.068H327.732L324.417 542.909H321.69L326.479 556.17L326.164 557.04C325.516 558.778 324.604 558.923 323.207 558.54L322.593 560.628C322.9 560.764 323.565 560.909 324.332 560.909ZM346.499 556.29C348.664 556.29 349.883 555.19 350.369 554.21H350.471V556H352.96V547.307C352.96 543.497 349.96 542.739 347.88 542.739C345.511 542.739 343.329 543.693 342.477 546.08L344.871 546.625C345.246 545.696 346.201 544.801 347.914 544.801C349.559 544.801 350.403 545.662 350.403 547.145V547.205C350.403 548.134 349.448 548.116 347.096 548.389C344.616 548.679 342.076 549.327 342.076 552.301C342.076 554.875 344.011 556.29 346.499 556.29ZM347.053 554.244C345.613 554.244 344.573 553.597 344.573 552.335C344.573 550.972 345.783 550.486 347.258 550.29C348.085 550.179 350.045 549.957 350.411 549.591V551.278C350.411 552.83 349.175 554.244 347.053 554.244ZM361.254 556.256C363.641 556.256 364.578 554.798 365.038 553.963H365.251V556H367.74V538.545H365.192V545.031H365.038C364.578 544.222 363.709 542.739 361.271 542.739C358.109 542.739 355.783 545.236 355.783 549.48C355.783 553.716 358.075 556.256 361.254 556.256ZM361.817 554.082C359.541 554.082 358.357 552.08 358.357 549.455C358.357 546.855 359.516 544.903 361.817 544.903C364.041 544.903 365.234 546.719 365.234 549.455C365.234 552.207 364.016 554.082 361.817 554.082ZM382.576 542.909H379.84L376.533 552.983H376.397L373.082 542.909H370.346L375.102 556H377.829L382.576 542.909ZM390.016 556.264C393.707 556.264 396.119 553.562 396.119 549.514C396.119 545.44 393.707 542.739 390.016 542.739C386.326 542.739 383.914 545.44 383.914 549.514C383.914 553.562 386.326 556.264 390.016 556.264ZM390.025 554.125C387.613 554.125 386.488 552.02 386.488 549.506C386.488 547 387.613 544.869 390.025 544.869C392.42 544.869 393.545 547 393.545 549.506C393.545 552.02 392.42 554.125 390.025 554.125ZM404.477 556.264C407.571 556.264 409.574 554.406 409.855 551.858H407.375C407.051 553.273 405.952 554.108 404.494 554.108C402.338 554.108 400.949 552.31 400.949 549.455C400.949 546.651 402.364 544.886 404.494 544.886C406.114 544.886 407.102 545.909 407.375 547.136H409.855C409.582 544.494 407.426 542.739 404.452 542.739C400.761 542.739 398.375 545.517 398.375 549.514C398.375 553.46 400.676 556.264 404.477 556.264ZM416.39 556.29C418.555 556.29 419.773 555.19 420.259 554.21H420.362V556H422.85V547.307C422.85 543.497 419.85 542.739 417.771 542.739C415.401 542.739 413.219 543.693 412.367 546.08L414.762 546.625C415.137 545.696 416.092 544.801 417.805 544.801C419.45 544.801 420.293 545.662 420.293 547.145V547.205C420.293 548.134 419.339 548.116 416.987 548.389C414.506 548.679 411.967 549.327 411.967 552.301C411.967 554.875 413.901 556.29 416.39 556.29ZM416.944 554.244C415.504 554.244 414.464 553.597 414.464 552.335C414.464 550.972 415.674 550.486 417.148 550.29C417.975 550.179 419.935 549.957 420.302 549.591V551.278C420.302 552.83 419.066 554.244 416.944 554.244ZM432.355 542.909H429.67V539.773H427.122V542.909H425.205V544.955H427.122V552.685C427.114 555.062 428.929 556.213 430.94 556.17C431.75 556.162 432.295 556.009 432.594 555.898L432.134 553.793C431.963 553.827 431.648 553.903 431.239 553.903C430.412 553.903 429.67 553.631 429.67 552.156V544.955H432.355V542.909ZM440.675 556.264C443.531 556.264 445.55 554.858 446.13 552.727L443.718 552.293C443.258 553.528 442.15 554.159 440.701 554.159C438.519 554.159 437.053 552.744 436.985 550.222H446.292V549.318C446.292 544.588 443.462 542.739 440.496 542.739C436.849 542.739 434.445 545.517 434.445 549.54C434.445 553.605 436.815 556.264 440.675 556.264ZM436.994 548.312C437.096 546.455 438.442 544.844 440.513 544.844C442.491 544.844 443.786 546.31 443.795 548.312H436.994ZM455.471 556H458.019V548.006C458.019 546.293 459.34 545.057 461.147 545.057C461.675 545.057 462.272 545.151 462.477 545.21V542.773C462.221 542.739 461.718 542.713 461.394 542.713C459.86 542.713 458.548 543.582 458.07 544.989H457.934V542.909H455.471V556ZM469.855 556.264C472.71 556.264 474.73 554.858 475.31 552.727L472.898 552.293C472.438 553.528 471.33 554.159 469.881 554.159C467.699 554.159 466.233 552.744 466.165 550.222H475.472V549.318C475.472 544.588 472.642 542.739 469.676 542.739C466.028 542.739 463.625 545.517 463.625 549.54C463.625 553.605 465.994 556.264 469.855 556.264ZM466.173 548.312C466.276 546.455 467.622 544.844 469.693 544.844C471.67 544.844 472.966 546.31 472.974 548.312H466.173ZM488.109 546.105C487.58 544.068 485.987 542.739 483.157 542.739C480.2 542.739 478.103 544.298 478.103 546.616C478.103 548.474 479.228 549.71 481.683 550.256L483.898 550.741C485.16 551.023 485.748 551.585 485.748 552.403C485.748 553.418 484.665 554.21 482.995 554.21C481.469 554.21 480.489 553.554 480.183 552.267L477.719 552.642C478.146 554.96 480.072 556.264 483.012 556.264C486.174 556.264 488.364 554.585 488.364 552.216C488.364 550.366 487.188 549.224 484.785 548.67L482.705 548.193C481.265 547.852 480.643 547.366 480.651 546.48C480.643 545.474 481.734 544.759 483.183 544.759C484.768 544.759 485.501 545.636 485.799 546.514L488.109 546.105ZM491.166 560.909H493.714V553.963H493.868C494.328 554.798 495.266 556.256 497.652 556.256C500.822 556.256 503.124 553.716 503.124 549.48C503.124 545.236 500.788 542.739 497.626 542.739C495.197 542.739 494.32 544.222 493.868 545.031H493.655V542.909H491.166V560.909ZM493.663 549.455C493.663 546.719 494.857 544.903 497.081 544.903C499.391 544.903 500.55 546.855 500.55 549.455C500.55 552.08 499.357 554.082 497.081 554.082C494.891 554.082 493.663 552.207 493.663 549.455ZM511.493 556.264C515.183 556.264 517.595 553.562 517.595 549.514C517.595 545.44 515.183 542.739 511.493 542.739C507.803 542.739 505.391 545.44 505.391 549.514C505.391 553.562 507.803 556.264 511.493 556.264ZM511.501 554.125C509.089 554.125 507.964 552.02 507.964 549.506C507.964 547 509.089 544.869 511.501 544.869C513.896 544.869 515.021 547 515.021 549.506C515.021 552.02 513.896 554.125 511.501 554.125ZM522.988 548.227C522.988 546.139 524.266 544.946 526.039 544.946C527.769 544.946 528.817 546.08 528.817 547.98V556H531.366V547.673C531.366 544.435 529.585 542.739 526.908 542.739C524.94 542.739 523.653 543.651 523.048 545.04H522.886V542.909H520.44V556H522.988V548.227ZM539.684 556.256C542.07 556.256 543.008 554.798 543.468 553.963H543.681V556H546.17V538.545H543.621V545.031H543.468C543.008 544.222 542.138 542.739 539.701 542.739C536.539 542.739 534.212 545.236 534.212 549.48C534.212 553.716 536.505 556.256 539.684 556.256ZM540.246 554.082C537.971 554.082 536.786 552.08 536.786 549.455C536.786 546.855 537.945 544.903 540.246 544.903C542.471 544.903 543.664 546.719 543.664 549.455C543.664 552.207 542.445 554.082 540.246 554.082ZM549.807 556H552.355V542.909H549.807V556ZM551.094 540.889C551.972 540.889 552.705 540.207 552.705 539.372C552.705 538.537 551.972 537.847 551.094 537.847C550.207 537.847 549.483 538.537 549.483 539.372C549.483 540.207 550.207 540.889 551.094 540.889ZM558.332 548.227C558.332 546.139 559.61 544.946 561.383 544.946C563.113 544.946 564.161 546.08 564.161 547.98V556H566.71V547.673C566.71 544.435 564.928 542.739 562.252 542.739C560.283 542.739 558.996 543.651 558.391 545.04H558.229V542.909H555.783V556H558.332V548.227ZM575.616 561.182C578.948 561.182 581.522 559.656 581.522 556.29V542.909H579.025V545.031H578.837C578.386 544.222 577.482 542.739 575.045 542.739C571.883 542.739 569.556 545.236 569.556 549.403C569.556 553.58 571.934 555.804 575.028 555.804C577.431 555.804 578.36 554.449 578.82 553.614H578.982V556.188C578.982 558.241 577.576 559.128 575.641 559.128C573.519 559.128 572.692 558.062 572.241 557.312L570.05 558.216C570.741 559.818 572.488 561.182 575.616 561.182ZM575.59 553.69C573.315 553.69 572.13 551.943 572.13 549.369C572.13 546.855 573.289 544.903 575.59 544.903C577.815 544.903 579.008 546.719 579.008 549.369C579.008 552.071 577.789 553.69 575.59 553.69ZM597.402 542.909H594.717V539.773H592.169V542.909H590.251V544.955H592.169V552.685C592.161 555.062 593.976 556.213 595.987 556.17C596.797 556.162 597.342 556.009 597.641 555.898L597.18 553.793C597.01 553.827 596.695 553.903 596.286 553.903C595.459 553.903 594.717 553.631 594.717 552.156V544.955H597.402V542.909ZM605.594 556.264C609.285 556.264 611.697 553.562 611.697 549.514C611.697 545.44 609.285 542.739 605.594 542.739C601.904 542.739 599.492 545.44 599.492 549.514C599.492 553.562 601.904 556.264 605.594 556.264ZM605.603 554.125C603.191 554.125 602.066 552.02 602.066 549.506C602.066 547 603.191 544.869 605.603 544.869C607.998 544.869 609.123 547 609.123 549.506C609.123 552.02 607.998 554.125 605.603 554.125ZM625.793 556.256C628.18 556.256 629.117 554.798 629.577 553.963H629.79V556H632.279V538.545H629.731V545.031H629.577C629.117 544.222 628.248 542.739 625.81 542.739C622.648 542.739 620.322 545.236 620.322 549.48C620.322 553.716 622.614 556.256 625.793 556.256ZM626.356 554.082C624.08 554.082 622.896 552.08 622.896 549.455C622.896 546.855 624.055 544.903 626.356 544.903C628.58 544.903 629.773 546.719 629.773 549.455C629.773 552.207 628.555 554.082 626.356 554.082ZM635.916 556H638.464V548.006C638.464 546.293 639.786 545.057 641.592 545.057C642.121 545.057 642.717 545.151 642.922 545.21V542.773C642.666 542.739 642.163 542.713 641.839 542.713C640.305 542.713 638.993 543.582 638.516 544.989H638.379V542.909H635.916V556ZM650.3 556.264C653.156 556.264 655.175 554.858 655.755 552.727L653.343 552.293C652.883 553.528 651.775 554.159 650.326 554.159C648.144 554.159 646.678 552.744 646.61 550.222H655.917V549.318C655.917 544.588 653.087 542.739 650.121 542.739C646.474 542.739 644.07 545.517 644.07 549.54C644.07 553.605 646.44 556.264 650.3 556.264ZM646.619 548.312C646.721 546.455 648.067 544.844 650.138 544.844C652.116 544.844 653.411 546.31 653.42 548.312H646.619ZM662.554 556.29C664.719 556.29 665.938 555.19 666.423 554.21H666.526V556H669.014V547.307C669.014 543.497 666.014 542.739 663.935 542.739C661.565 542.739 659.384 543.693 658.531 546.08L660.926 546.625C661.301 545.696 662.256 544.801 663.969 544.801C665.614 544.801 666.457 545.662 666.457 547.145V547.205C666.457 548.134 665.503 548.116 663.151 548.389C660.67 548.679 658.131 549.327 658.131 552.301C658.131 554.875 660.065 556.29 662.554 556.29ZM663.108 554.244C661.668 554.244 660.628 553.597 660.628 552.335C660.628 550.972 661.838 550.486 663.312 550.29C664.139 550.179 666.099 549.957 666.466 549.591V551.278C666.466 552.83 665.23 554.244 663.108 554.244ZM672.408 556H674.957V547.929C674.957 546.165 676.192 544.938 677.641 544.938C679.056 544.938 680.036 545.875 680.036 547.298V556H682.576V547.656C682.576 546.08 683.539 544.938 685.201 544.938C686.548 544.938 687.656 545.688 687.656 547.46V556H690.204V547.222C690.204 544.23 688.533 542.739 686.164 542.739C684.281 542.739 682.866 543.642 682.235 545.04H682.099C681.528 543.608 680.326 542.739 678.579 542.739C676.849 542.739 675.562 543.599 675.016 545.04H674.854V542.909H672.408V556ZM698.52 556.256C700.906 556.256 701.844 554.798 702.304 553.963H702.517V556H705.006V538.545H702.457V545.031H702.304C701.844 544.222 700.974 542.739 698.537 542.739C695.375 542.739 693.048 545.236 693.048 549.48C693.048 553.716 695.341 556.256 698.52 556.256ZM699.082 554.082C696.807 554.082 695.622 552.08 695.622 549.455C695.622 546.855 696.781 544.903 699.082 544.903C701.307 544.903 702.5 546.719 702.5 549.455C702.5 552.207 701.281 554.082 699.082 554.082ZM708.643 556H711.191V548.006C711.191 546.293 712.512 545.057 714.319 545.057C714.847 545.057 715.444 545.151 715.648 545.21V542.773C715.393 542.739 714.89 542.713 714.566 542.713C713.032 542.713 711.719 543.582 711.242 544.989H711.106V542.909H708.643V556ZM722.899 556.264C726.589 556.264 729.001 553.562 729.001 549.514C729.001 545.44 726.589 542.739 722.899 542.739C719.209 542.739 716.797 545.44 716.797 549.514C716.797 553.562 719.209 556.264 722.899 556.264ZM722.908 554.125C720.496 554.125 719.371 552.02 719.371 549.506C719.371 547 720.496 544.869 722.908 544.869C725.303 544.869 726.428 547 726.428 549.506C726.428 552.02 725.303 554.125 722.908 554.125ZM734.394 548.227C734.394 546.139 735.673 544.946 737.445 544.946C739.175 544.946 740.224 546.08 740.224 547.98V556H742.772V547.673C742.772 544.435 740.991 542.739 738.315 542.739C736.346 542.739 735.059 543.651 734.454 545.04H734.292V542.909H731.846V556H734.394V548.227ZM751.832 556.264C754.687 556.264 756.707 554.858 757.286 552.727L754.874 552.293C754.414 553.528 753.306 554.159 751.857 554.159C749.675 554.159 748.21 552.744 748.141 550.222H757.448V549.318C757.448 544.588 754.619 542.739 751.653 542.739C748.005 542.739 745.602 545.517 745.602 549.54C745.602 553.605 747.971 556.264 751.832 556.264ZM748.15 548.312C748.252 546.455 749.599 544.844 751.67 544.844C753.647 544.844 754.942 546.31 754.951 548.312H748.15ZM761.955 556.162C762.884 556.162 763.659 555.403 763.659 554.457C763.659 553.528 762.884 552.761 761.955 552.761C761.017 552.761 760.25 553.528 760.25 554.457C760.25 555.403 761.017 556.162 761.955 556.162ZM772.587 556.264C776.277 556.264 778.689 553.562 778.689 549.514C778.689 545.44 776.277 542.739 772.587 542.739C768.896 542.739 766.484 545.44 766.484 549.514C766.484 553.562 768.896 556.264 772.587 556.264ZM772.595 554.125C770.183 554.125 769.058 552.02 769.058 549.506C769.058 547 770.183 544.869 772.595 544.869C774.99 544.869 776.115 547 776.115 549.506C776.115 552.02 774.99 554.125 772.595 554.125ZM781.533 556H784.082V548.006C784.082 546.293 785.403 545.057 787.21 545.057C787.738 545.057 788.335 545.151 788.539 545.21V542.773C788.283 542.739 787.781 542.713 787.457 542.713C785.923 542.713 784.61 543.582 784.133 544.989H783.996V542.909H781.533V556ZM795.764 561.182C799.097 561.182 801.67 559.656 801.67 556.29V542.909H799.173V545.031H798.986C798.534 544.222 797.631 542.739 795.193 542.739C792.031 542.739 789.705 545.236 789.705 549.403C789.705 553.58 792.082 555.804 795.176 555.804C797.58 555.804 798.509 554.449 798.969 553.614H799.131V556.188C799.131 558.241 797.724 559.128 795.79 559.128C793.668 559.128 792.841 558.062 792.389 557.312L790.199 558.216C790.889 559.818 792.636 561.182 795.764 561.182ZM795.739 553.69C793.463 553.69 792.278 551.943 792.278 549.369C792.278 546.855 793.438 544.903 795.739 544.903C797.963 544.903 799.156 546.719 799.156 549.369C799.156 552.071 797.938 553.69 795.739 553.69Z" fill="black"/>
</svg>
