<svg width="1355" height="726" viewBox="0 0 1355 726" fill="none" xmlns="http://www.w3.org/2000/svg">
<rect width="1355" height="726" fill="#F5F5F5"/>
<path d="M171.651 306H175.06V303.678C175.06 302.005 175.614 300.695 176.413 299.438L174.411 298.255C172.93 299.459 171.651 301.749 171.651 303.699V306ZM177.031 306H180.44V303.678C180.44 302.005 180.994 300.695 181.793 299.438L179.79 298.255C178.31 299.459 177.031 301.749 177.031 303.699V306ZM189.165 299.182H184.553V321H189.165V299.182ZM199.819 321H204.357V315.801L205.582 314.406L210.046 321H215.362L208.981 311.721L215.053 304.636H209.844L204.602 310.847H204.357V299.182H199.819V321ZM221.818 311.54C221.829 309.43 223.086 308.195 224.918 308.195C226.74 308.195 227.837 309.388 227.827 311.391V321H232.365V310.581C232.365 306.767 230.128 304.423 226.719 304.423C224.29 304.423 222.532 305.616 221.797 307.523H221.605V304.636H217.28V321H221.818V311.54ZM243.335 321.32C248.3 321.32 251.389 317.921 251.389 312.882C251.389 307.811 248.3 304.423 243.335 304.423C238.371 304.423 235.281 307.811 235.281 312.882C235.281 317.921 238.371 321.32 243.335 321.32ZM243.357 317.804C241.066 317.804 239.894 315.705 239.894 312.85C239.894 309.995 241.066 307.886 243.357 307.886C245.605 307.886 246.776 309.995 246.776 312.85C246.776 315.705 245.605 317.804 243.357 317.804ZM257.158 321H261.952L264.765 310.709H264.967L267.78 321H272.584L277.027 304.636H272.446L269.953 315.567H269.814L267.13 304.636H262.623L259.981 315.631H259.832L257.297 304.636H252.705L257.158 321ZM286.242 321H302.947V317.197H292.027L302.925 301.92V299.182H286.221V302.985H297.13L286.242 318.262V321ZM313.794 321.32C318.759 321.32 321.848 317.921 321.848 312.882C321.848 307.811 318.759 304.423 313.794 304.423C308.83 304.423 305.74 307.811 305.74 312.882C305.74 317.921 308.83 321.32 313.794 321.32ZM313.816 317.804C311.525 317.804 310.353 315.705 310.353 312.85C310.353 309.995 311.525 307.886 313.816 307.886C316.064 307.886 317.235 309.995 317.235 312.85C317.235 315.705 316.064 317.804 313.816 317.804ZM332.193 321.32C337.157 321.32 340.247 317.921 340.247 312.882C340.247 307.811 337.157 304.423 332.193 304.423C327.228 304.423 324.139 307.811 324.139 312.882C324.139 317.921 327.228 321.32 332.193 321.32ZM332.214 317.804C329.924 317.804 328.752 315.705 328.752 312.85C328.752 309.995 329.924 307.886 332.214 307.886C334.462 307.886 335.634 309.995 335.634 312.85C335.634 315.705 334.462 317.804 332.214 317.804ZM347.736 299.182H343.198V321H347.736V299.182ZM351.372 321H355.91V304.636H351.372V321ZM353.651 302.527C355.004 302.527 356.112 301.494 356.112 300.226C356.112 298.969 355.004 297.935 353.651 297.935C352.309 297.935 351.201 298.969 351.201 300.226C351.201 301.494 352.309 302.527 353.651 302.527ZM364.084 311.54C364.094 309.43 365.352 308.195 367.184 308.195C369.006 308.195 370.103 309.388 370.092 311.391V321H374.631V310.581C374.631 306.767 372.393 304.423 368.984 304.423C366.555 304.423 364.798 305.616 364.062 307.523H363.871V304.636H359.545V321H364.084V311.54ZM385.58 327.477C390.257 327.477 393.58 325.347 393.58 321.16V304.636H389.074V307.385H388.904C388.296 306.053 386.965 304.423 384.227 304.423C380.637 304.423 377.6 307.214 377.6 312.786C377.6 318.23 380.551 320.766 384.237 320.766C386.847 320.766 388.307 319.455 388.904 318.102H389.095V321.096C389.095 323.344 387.657 324.217 385.686 324.217C383.683 324.217 382.671 323.344 382.298 322.353L378.101 322.918C378.644 325.496 381.169 327.477 385.58 327.477ZM385.676 317.357C383.449 317.357 382.235 315.588 382.235 312.765C382.235 309.984 383.428 308.035 385.676 308.035C387.881 308.035 389.117 309.899 389.117 312.765C389.117 315.652 387.86 317.357 385.676 317.357ZM407.686 314.033C407.696 316.227 406.194 317.378 404.564 317.378C402.849 317.378 401.741 316.174 401.73 314.246V304.636H397.192V315.055C397.203 318.88 399.44 321.213 402.732 321.213C405.193 321.213 406.961 319.945 407.696 318.028H407.867V321H412.224V304.636H407.686V314.033ZM420.52 321.309C422.939 321.309 424.505 320.254 425.304 318.731H425.431V321H429.735V309.963C429.735 306.064 426.433 304.423 422.789 304.423C418.869 304.423 416.291 306.298 415.662 309.281L419.86 309.622C420.169 308.536 421.138 307.737 422.768 307.737C424.313 307.737 425.197 308.514 425.197 309.857V309.92C425.197 310.975 424.078 311.114 421.234 311.391C417.995 311.689 415.087 312.776 415.087 316.43C415.087 319.668 417.399 321.309 420.52 321.309ZM421.82 318.177C420.424 318.177 419.423 317.527 419.423 316.281C419.423 315.002 420.478 314.374 422.076 314.15C423.066 314.011 424.686 313.777 425.229 313.415V315.151C425.229 316.866 423.812 318.177 421.82 318.177ZM437.795 299.182H433.256V321H437.795V299.182ZM441.43 321H445.969V304.636H441.43V321ZM443.71 302.527C445.063 302.527 446.171 301.494 446.171 300.226C446.171 298.969 445.063 297.935 443.71 297.935C442.368 297.935 441.26 298.969 441.26 300.226C441.26 301.494 442.368 302.527 443.71 302.527ZM463.219 309.303C462.814 306.288 460.385 304.423 456.252 304.423C452.065 304.423 449.306 306.362 449.316 309.516C449.306 311.966 450.85 313.553 454.047 314.192L456.88 314.757C458.308 315.045 458.958 315.567 458.979 316.387C458.958 317.357 457.903 318.049 456.316 318.049C454.696 318.049 453.62 317.357 453.343 316.025L448.88 316.259C449.306 319.391 451.969 321.32 456.305 321.32C460.545 321.32 463.581 319.157 463.592 315.929C463.581 313.564 462.037 312.147 458.862 311.497L455.9 310.901C454.377 310.57 453.812 310.048 453.823 309.26C453.812 308.28 454.92 307.641 456.326 307.641C457.903 307.641 458.841 308.504 459.064 309.558L463.219 309.303ZM466.45 321H470.988V311.178C470.988 309.366 472.139 308.163 473.651 308.163C475.143 308.163 476.144 309.185 476.144 310.794V321H480.544V311.007C480.544 309.313 481.514 308.163 483.165 308.163C484.614 308.163 485.7 309.068 485.7 310.89V321H490.228V309.995C490.228 306.447 488.119 304.423 485.072 304.423C482.675 304.423 480.811 305.648 480.139 307.523H479.969C479.447 305.627 477.774 304.423 475.526 304.423C473.321 304.423 471.649 305.595 470.967 307.523H470.775V304.636H466.45V321ZM500.756 321H505.295V304.636H500.756V321ZM503.036 302.527C504.389 302.527 505.497 301.494 505.497 300.226C505.497 298.969 504.389 297.935 503.036 297.935C501.694 297.935 500.586 298.969 500.586 300.226C500.586 301.494 501.694 302.527 503.036 302.527ZM522.545 309.303C522.14 306.288 519.711 304.423 515.578 304.423C511.391 304.423 508.632 306.362 508.643 309.516C508.632 311.966 510.177 313.553 513.373 314.192L516.206 314.757C517.634 315.045 518.284 315.567 518.305 316.387C518.284 317.357 517.229 318.049 515.642 318.049C514.023 318.049 512.947 317.357 512.67 316.025L508.206 316.259C508.632 319.391 511.295 321.32 515.631 321.32C519.871 321.32 522.907 319.157 522.918 315.929C522.907 313.564 521.363 312.147 518.188 311.497L515.226 310.901C513.703 310.57 513.138 310.048 513.149 309.26C513.138 308.28 514.246 307.641 515.653 307.641C517.229 307.641 518.167 308.504 518.39 309.558L522.545 309.303ZM532.719 304.636V321.735C532.719 322.971 532.197 323.589 530.738 323.589C530.546 323.589 530.376 323.589 530.141 323.567V327.115C530.471 327.126 530.738 327.136 531.057 327.136C534.914 327.136 537.258 325.602 537.258 321.81V304.636H532.719ZM534.978 302.527C536.331 302.527 537.439 301.494 537.439 300.226C537.439 298.969 536.331 297.935 534.978 297.935C533.635 297.935 532.528 298.969 532.528 300.226C532.528 301.494 533.635 302.527 534.978 302.527ZM551.387 314.033C551.397 316.227 549.895 317.378 548.265 317.378C546.55 317.378 545.442 316.174 545.431 314.246V304.636H540.893V315.055C540.904 318.88 543.141 321.213 546.433 321.213C548.894 321.213 550.662 319.945 551.397 318.028H551.568V321H555.925V304.636H551.387V314.033ZM573.17 309.303C572.765 306.288 570.336 304.423 566.203 304.423C562.016 304.423 559.257 306.362 559.268 309.516C559.257 311.966 560.802 313.553 563.998 314.192L566.831 314.757C568.259 315.045 568.909 315.567 568.93 316.387C568.909 317.357 567.854 318.049 566.267 318.049C564.648 318.049 563.572 317.357 563.295 316.025L558.831 316.259C559.257 319.391 561.92 321.32 566.256 321.32C570.496 321.32 573.532 319.157 573.543 315.929C573.532 313.564 571.988 312.147 568.813 311.497L565.851 310.901C564.328 310.57 563.763 310.048 563.774 309.26C563.763 308.28 564.871 307.641 566.278 307.641C567.854 307.641 568.792 308.504 569.015 309.558L573.17 309.303ZM585.105 304.636H582.026V300.716H577.488V304.636H575.25V308.045H577.488V316.568C577.466 319.775 579.65 321.362 582.942 321.224C584.114 321.181 584.945 320.947 585.403 320.798L584.689 317.42C584.466 317.463 583.986 317.57 583.56 317.57C582.654 317.57 582.026 317.229 582.026 315.972V308.045H585.105V304.636ZM599.671 321.309C602.089 321.309 603.655 320.254 604.454 318.731H604.582V321H608.886V309.963C608.886 306.064 605.583 304.423 601.94 304.423C598.019 304.423 595.441 306.298 594.813 309.281L599.01 309.622C599.319 308.536 600.289 307.737 601.919 307.737C603.463 307.737 604.347 308.514 604.347 309.857V309.92C604.347 310.975 603.229 311.114 600.384 311.391C597.146 311.689 594.237 312.776 594.237 316.43C594.237 319.668 596.549 321.309 599.671 321.309ZM600.97 318.177C599.575 318.177 598.573 317.527 598.573 316.281C598.573 315.002 599.628 314.374 601.226 314.15C602.217 314.011 603.836 313.777 604.379 313.415V315.151C604.379 316.866 602.963 318.177 600.97 318.177ZM616.945 311.54C616.956 309.43 618.213 308.195 620.045 308.195C621.867 308.195 622.964 309.388 622.954 311.391V321H627.492V310.581C627.492 306.767 625.255 304.423 621.846 304.423C619.417 304.423 617.659 305.616 616.924 307.523H616.732V304.636H612.407V321H616.945V311.54ZM638.012 321H642.551V304.636H638.012V321ZM640.292 302.527C641.645 302.527 642.753 301.494 642.753 300.226C642.753 298.969 641.645 297.935 640.292 297.935C638.95 297.935 637.842 298.969 637.842 300.226C637.842 301.494 638.95 302.527 640.292 302.527ZM646.186 321H650.724V311.178C650.724 309.366 651.875 308.163 653.388 308.163C654.879 308.163 655.881 309.185 655.881 310.794V321H660.281V311.007C660.281 309.313 661.25 308.163 662.901 308.163C664.35 308.163 665.437 309.068 665.437 310.89V321H669.964V309.995C669.964 306.447 667.855 304.423 664.808 304.423C662.411 304.423 660.547 305.648 659.876 307.523H659.705C659.183 305.627 657.511 304.423 655.263 304.423C653.058 304.423 651.385 305.595 650.703 307.523H650.511V304.636H646.186V321ZM678.216 321.309C680.634 321.309 682.2 320.254 682.999 318.731H683.127V321H687.431V309.963C687.431 306.064 684.128 304.423 680.485 304.423C676.564 304.423 673.986 306.298 673.358 309.281L677.555 309.622C677.864 308.536 678.833 307.737 680.463 307.737C682.008 307.737 682.892 308.514 682.892 309.857V309.92C682.892 310.975 681.774 311.114 678.929 311.391C675.691 311.689 672.782 312.776 672.782 316.43C672.782 319.668 675.094 321.309 678.216 321.309ZM679.515 318.177C678.12 318.177 677.118 317.527 677.118 316.281C677.118 315.002 678.173 314.374 679.771 314.15C680.762 314.011 682.381 313.777 682.924 313.415V315.151C682.924 316.866 681.507 318.177 679.515 318.177ZM698.324 327.477C703.001 327.477 706.325 325.347 706.325 321.16V304.636H701.818V307.385H701.648C701.04 306.053 699.709 304.423 696.971 304.423C693.381 304.423 690.344 307.214 690.344 312.786C690.344 318.23 693.295 320.766 696.982 320.766C699.592 320.766 701.051 319.455 701.648 318.102H701.839V321.096C701.839 323.344 700.401 324.217 698.43 324.217C696.428 324.217 695.415 323.344 695.043 322.353L690.845 322.918C691.388 325.496 693.913 327.477 698.324 327.477ZM698.42 317.357C696.193 317.357 694.979 315.588 694.979 312.765C694.979 309.984 696.172 308.035 698.42 308.035C700.625 308.035 701.861 309.899 701.861 312.765C701.861 315.652 700.604 317.357 698.42 317.357ZM709.936 321H714.474V304.636H709.936V321ZM712.216 302.527C713.569 302.527 714.677 301.494 714.677 300.226C714.677 298.969 713.569 297.935 712.216 297.935C710.874 297.935 709.766 298.969 709.766 300.226C709.766 301.494 710.874 302.527 712.216 302.527ZM722.648 311.54C722.659 309.43 723.916 308.195 725.748 308.195C727.57 308.195 728.667 309.388 728.657 311.391V321H733.195V310.581C733.195 306.767 730.958 304.423 727.549 304.423C725.12 304.423 723.362 305.616 722.627 307.523H722.435V304.636H718.11V321H722.648V311.54ZM744.229 321.32C748.278 321.32 751.005 319.349 751.644 316.312L747.447 316.036C746.989 317.282 745.817 317.932 744.304 317.932C742.035 317.932 740.597 316.43 740.597 313.99V313.979H751.74V312.733C751.74 307.172 748.374 304.423 744.048 304.423C739.233 304.423 736.112 307.843 736.112 312.893C736.112 318.081 739.19 321.32 744.229 321.32ZM740.597 311.167C740.692 309.303 742.109 307.811 744.123 307.811C746.094 307.811 747.457 309.217 747.468 311.167H740.597ZM754.702 321H759.24V311.742C759.24 309.729 760.71 308.344 762.713 308.344C763.342 308.344 764.205 308.45 764.631 308.589V304.562C764.226 304.466 763.661 304.402 763.203 304.402C761.371 304.402 759.869 305.467 759.272 307.491H759.102V304.636H754.702V321ZM770.277 327.136C773.654 327.136 775.444 325.411 776.371 322.768L782.731 304.658L777.926 304.636L774.506 316.653H774.336L770.948 304.636H766.175L772.045 321.469L771.779 322.161C771.183 323.695 770.043 323.77 768.445 323.28L767.422 326.668C768.072 326.945 769.126 327.136 770.277 327.136ZM805.612 309.303C805.207 306.288 802.778 304.423 798.644 304.423C794.458 304.423 791.698 306.362 791.709 309.516C791.698 311.966 793.243 313.553 796.439 314.192L799.273 314.757C800.7 315.045 801.35 315.567 801.372 316.387C801.35 317.357 800.296 318.049 798.708 318.049C797.089 318.049 796.013 317.357 795.736 316.025L791.272 316.259C791.698 319.391 794.362 321.32 798.698 321.32C802.938 321.32 805.974 319.157 805.985 315.929C805.974 313.564 804.429 312.147 801.254 311.497L798.293 310.901C796.769 310.57 796.205 310.048 796.215 309.26C796.205 308.28 797.313 307.641 798.719 307.641C800.296 307.641 801.233 308.504 801.457 309.558L805.612 309.303ZM819.336 314.033C819.347 316.227 817.844 317.378 816.214 317.378C814.499 317.378 813.391 316.174 813.381 314.246V304.636H808.842V315.055C808.853 318.88 811.09 321.213 814.382 321.213C816.843 321.213 818.612 319.945 819.347 318.028H819.517V321H823.874V304.636H819.336V314.033ZM827.504 327.136H832.043V318.379H832.181C832.81 319.743 834.184 321.266 836.826 321.266C840.555 321.266 843.463 318.315 843.463 312.839C843.463 307.214 840.427 304.423 836.837 304.423C834.099 304.423 832.789 306.053 832.181 307.385H831.979V304.636H827.504V327.136ZM831.947 312.818C831.947 309.899 833.183 308.035 835.388 308.035C837.636 308.035 838.829 309.984 838.829 312.818C838.829 315.673 837.615 317.655 835.388 317.655C833.204 317.655 831.947 315.737 831.947 312.818ZM853.946 321.32C857.994 321.32 860.722 319.349 861.361 316.312L857.164 316.036C856.705 317.282 855.534 317.932 854.021 317.932C851.752 317.932 850.313 316.43 850.313 313.99V313.979H861.457V312.733C861.457 307.172 858.09 304.423 853.765 304.423C848.95 304.423 845.828 307.843 845.828 312.893C845.828 318.081 848.907 321.32 853.946 321.32ZM850.313 311.167C850.409 309.303 851.826 307.811 853.84 307.811C855.811 307.811 857.174 309.217 857.185 311.167H850.313ZM864.419 321H868.957V311.742C868.957 309.729 870.427 308.344 872.43 308.344C873.058 308.344 873.921 308.45 874.347 308.589V304.562C873.943 304.466 873.378 304.402 872.92 304.402C871.088 304.402 869.585 305.467 868.989 307.491H868.818V304.636H864.419V321ZM876.694 327.136H881.232V318.379H881.371C881.999 319.743 883.374 321.266 886.016 321.266C889.744 321.266 892.653 318.315 892.653 312.839C892.653 307.214 889.616 304.423 886.026 304.423C883.288 304.423 881.978 306.053 881.371 307.385H881.168V304.636H876.694V327.136ZM881.136 312.818C881.136 309.899 882.372 308.035 884.577 308.035C886.825 308.035 888.018 309.984 888.018 312.818C888.018 315.673 886.804 317.655 884.577 317.655C882.393 317.655 881.136 315.737 881.136 312.818ZM903.072 321.32C908.036 321.32 911.126 317.921 911.126 312.882C911.126 307.811 908.036 304.423 903.072 304.423C898.107 304.423 895.018 307.811 895.018 312.882C895.018 317.921 898.107 321.32 903.072 321.32ZM903.093 317.804C900.803 317.804 899.631 315.705 899.631 312.85C899.631 309.995 900.803 307.886 903.093 307.886C905.341 307.886 906.513 309.995 906.513 312.85C906.513 315.705 905.341 317.804 903.093 317.804ZM916.895 321H921.689L924.501 310.709H924.703L927.516 321H932.321L936.763 304.636H932.182L929.689 315.567H929.551L926.866 304.636H922.36L919.718 315.631H919.569L917.033 304.636H912.441L916.895 321ZM946.231 321.32C950.28 321.32 953.007 319.349 953.646 316.312L949.449 316.036C948.991 317.282 947.819 317.932 946.306 317.932C944.037 317.932 942.599 316.43 942.599 313.99V313.979H953.742V312.733C953.742 307.172 950.376 304.423 946.05 304.423C941.235 304.423 938.113 307.843 938.113 312.893C938.113 318.081 941.192 321.32 946.231 321.32ZM942.599 311.167C942.694 309.303 944.111 307.811 946.125 307.811C948.096 307.811 949.459 309.217 949.47 311.167H942.599ZM956.704 321H961.242V311.742C961.242 309.729 962.712 308.344 964.715 308.344C965.344 308.344 966.206 308.45 966.633 308.589V304.562C966.228 304.466 965.663 304.402 965.205 304.402C963.373 304.402 961.871 305.467 961.274 307.491H961.104V304.636H956.704V321ZM969.757 321.277C971.12 321.277 972.303 320.137 972.314 318.72C972.303 317.325 971.12 316.185 969.757 316.185C968.35 316.185 967.189 317.325 967.2 318.72C967.189 320.137 968.35 321.277 969.757 321.277ZM171.896 363H181.218C186.119 363 188.729 360.443 188.729 356.97C188.729 353.742 186.417 351.793 183.935 351.675V351.462C186.204 350.951 187.876 349.342 187.876 346.775C187.876 343.504 185.447 341.182 180.632 341.182H171.896V363ZM176.509 359.229V353.433H180.376C182.592 353.433 183.967 354.712 183.967 356.512C183.967 358.153 182.848 359.229 180.27 359.229H176.509ZM176.509 350.312V344.911H180.014C182.06 344.911 183.221 345.965 183.221 347.542C183.221 349.268 181.815 350.312 179.929 350.312H176.509ZM202.139 356.033C202.149 358.227 200.647 359.378 199.017 359.378C197.302 359.378 196.194 358.174 196.183 356.246V346.636H191.645V357.055C191.656 360.88 193.893 363.213 197.185 363.213C199.646 363.213 201.414 361.945 202.149 360.028H202.32V363H206.677V346.636H202.139V356.033ZM219.011 346.636H215.932V342.716H211.394V346.636H209.157V350.045H211.394V358.568C211.373 361.775 213.556 363.362 216.848 363.224C218.02 363.181 218.851 362.947 219.309 362.798L218.596 359.42C218.372 359.463 217.892 359.57 217.466 359.57C216.561 359.57 215.932 359.229 215.932 357.972V350.045H219.011V346.636ZM228.911 363H233.449V346.636H228.911V363ZM231.191 344.527C232.544 344.527 233.651 343.494 233.651 342.226C233.651 340.969 232.544 339.935 231.191 339.935C229.848 339.935 228.74 340.969 228.74 342.226C228.74 343.494 229.848 344.527 231.191 344.527ZM245.788 346.636H242.71V342.716H238.171V346.636H235.934V350.045H238.171V358.568C238.15 361.775 240.334 363.362 243.626 363.224C244.798 363.181 245.629 362.947 246.087 362.798L245.373 359.42C245.149 359.463 244.67 359.57 244.244 359.57C243.338 359.57 242.71 359.229 242.71 357.972V350.045H245.788V346.636ZM260.354 363.309C262.773 363.309 264.339 362.254 265.138 360.731H265.265V363H269.569V351.963C269.569 348.064 266.267 346.423 262.623 346.423C258.703 346.423 256.125 348.298 255.496 351.281L259.694 351.622C260.003 350.536 260.972 349.737 262.602 349.737C264.147 349.737 265.031 350.514 265.031 351.857V351.92C265.031 352.975 263.912 353.114 261.068 353.391C257.829 353.689 254.921 354.776 254.921 358.43C254.921 361.668 257.233 363.309 260.354 363.309ZM261.654 360.177C260.258 360.177 259.257 359.527 259.257 358.281C259.257 357.002 260.312 356.374 261.91 356.15C262.9 356.011 264.52 355.777 265.063 355.415V357.151C265.063 358.866 263.646 360.177 261.654 360.177ZM280.484 363.32C284.841 363.32 287.579 360.763 287.792 357.002H283.509C283.243 358.749 282.093 359.729 280.537 359.729C278.417 359.729 277.043 357.95 277.043 354.818C277.043 351.729 278.428 349.96 280.537 349.96C282.199 349.96 283.264 351.058 283.509 352.688H287.792C287.6 348.906 284.735 346.423 280.463 346.423C275.498 346.423 272.43 349.864 272.43 354.882C272.43 359.857 275.445 363.32 280.484 363.32ZM299.402 346.636H296.323V342.716H291.784V346.636H289.547V350.045H291.784V358.568C291.763 361.775 293.947 363.362 297.239 363.224C298.411 363.181 299.242 362.947 299.7 362.798L298.986 359.42C298.762 359.463 298.283 359.57 297.857 359.57C296.951 359.57 296.323 359.229 296.323 357.972V350.045H299.402V346.636ZM312.852 356.033C312.862 358.227 311.36 359.378 309.73 359.378C308.015 359.378 306.907 358.174 306.896 356.246V346.636H302.358V357.055C302.369 360.88 304.606 363.213 307.898 363.213C310.359 363.213 312.127 361.945 312.862 360.028H313.033V363H317.39V346.636H312.852V356.033ZM325.686 363.309C328.105 363.309 329.671 362.254 330.47 360.731H330.597V363H334.901V351.963C334.901 348.064 331.599 346.423 327.955 346.423C324.035 346.423 321.457 348.298 320.828 351.281L325.026 351.622C325.335 350.536 326.304 349.737 327.934 349.737C329.479 349.737 330.363 350.514 330.363 351.857V351.92C330.363 352.975 329.244 353.114 326.4 353.391C323.161 353.689 320.253 354.776 320.253 358.43C320.253 361.668 322.565 363.309 325.686 363.309ZM326.986 360.177C325.59 360.177 324.589 359.527 324.589 358.281C324.589 357.002 325.644 356.374 327.242 356.15C328.232 356.011 329.852 355.777 330.395 355.415V357.151C330.395 358.866 328.978 360.177 326.986 360.177ZM342.961 341.182H338.422V363H342.961V341.182ZM351.135 341.182H346.596V363H351.135V341.182ZM357.572 369.136C360.949 369.136 362.739 367.411 363.666 364.768L370.026 346.658L365.221 346.636L361.801 358.653H361.631L358.243 346.636H353.47L359.34 363.469L359.074 364.161C358.477 365.695 357.338 365.77 355.74 365.28L354.717 368.668C355.367 368.945 356.421 369.136 357.572 369.136ZM379.292 363H383.83V353.178C383.83 351.366 384.98 350.163 386.493 350.163C387.985 350.163 388.986 351.185 388.986 352.794V363H393.386V353.007C393.386 351.313 394.355 350.163 396.007 350.163C397.456 350.163 398.542 351.068 398.542 352.89V363H403.07V351.995C403.07 348.447 400.961 346.423 397.914 346.423C395.517 346.423 393.652 347.648 392.981 349.523H392.811C392.289 347.627 390.616 346.423 388.368 346.423C386.163 346.423 384.49 347.595 383.809 349.523H383.617V346.636H379.292V363ZM411.321 363.309C413.739 363.309 415.305 362.254 416.104 360.731H416.232V363H420.536V351.963C420.536 348.064 417.234 346.423 413.59 346.423C409.67 346.423 407.092 348.298 406.463 351.281L410.661 351.622C410.969 350.536 411.939 349.737 413.569 349.737C415.114 349.737 415.998 350.514 415.998 351.857V351.92C415.998 352.975 414.879 353.114 412.035 353.391C408.796 353.689 405.888 354.776 405.888 358.43C405.888 361.668 408.2 363.309 411.321 363.309ZM412.621 360.177C411.225 360.177 410.224 359.527 410.224 358.281C410.224 357.002 411.278 356.374 412.876 356.15C413.867 356.011 415.487 355.777 416.03 355.415V357.151C416.03 358.866 414.613 360.177 412.621 360.177ZM430.087 363.266C432.729 363.266 434.103 361.743 434.732 360.379H434.924V363H439.398V341.182H434.87V349.385H434.732C434.125 348.053 432.814 346.423 430.076 346.423C426.486 346.423 423.45 349.214 423.45 354.839C423.45 360.315 426.358 363.266 430.087 363.266ZM431.525 359.655C429.299 359.655 428.084 357.673 428.084 354.818C428.084 351.984 429.277 350.035 431.525 350.035C433.73 350.035 434.966 351.899 434.966 354.818C434.966 357.737 433.709 359.655 431.525 359.655ZM450.587 363.32C454.635 363.32 457.362 361.349 458.002 358.312L453.804 358.036C453.346 359.282 452.174 359.932 450.661 359.932C448.392 359.932 446.954 358.43 446.954 355.99V355.979H458.097V354.733C458.097 349.172 454.731 346.423 450.406 346.423C445.59 346.423 442.469 349.843 442.469 354.893C442.469 360.081 445.548 363.32 450.587 363.32ZM446.954 353.167C447.05 351.303 448.467 349.811 450.48 349.811C452.451 349.811 453.815 351.217 453.825 353.167H446.954ZM468.002 363H472.541V353.178C472.541 351.366 473.691 350.163 475.204 350.163C476.696 350.163 477.697 351.185 477.697 352.794V363H482.097V353.007C482.097 351.313 483.066 350.163 484.718 350.163C486.167 350.163 487.253 351.068 487.253 352.89V363H491.781V351.995C491.781 348.447 489.672 346.423 486.625 346.423C484.228 346.423 482.363 347.648 481.692 349.523H481.522C481 347.627 479.327 346.423 477.079 346.423C474.874 346.423 473.201 347.595 472.52 349.523H472.328V346.636H468.002V363ZM502.823 363.32C506.871 363.32 509.599 361.349 510.238 358.312L506.04 358.036C505.582 359.282 504.411 359.932 502.898 359.932C500.629 359.932 499.19 358.43 499.19 355.99V355.979H510.334V354.733C510.334 349.172 506.967 346.423 502.642 346.423C497.827 346.423 494.705 349.843 494.705 354.893C494.705 360.081 497.784 363.32 502.823 363.32ZM499.19 353.167C499.286 351.303 500.703 349.811 502.717 349.811C504.688 349.811 506.051 351.217 506.062 353.167H499.19ZM528.943 346.636H525.864V342.716H521.325V346.636H519.088V350.045H521.325V358.568C521.304 361.775 523.488 363.362 526.78 363.224C527.952 363.181 528.783 362.947 529.241 362.798L528.527 359.42C528.303 359.463 527.824 359.57 527.398 359.57C526.492 359.57 525.864 359.229 525.864 357.972V350.045H528.943V346.636ZM536.789 353.54C536.8 351.43 538.089 350.195 539.942 350.195C541.785 350.195 542.872 351.377 542.861 353.391V363H547.4V352.581C547.41 348.746 545.152 346.423 541.743 346.423C539.26 346.423 537.599 347.595 536.853 349.523H536.661V341.182H532.251V363H536.789V353.54ZM550.971 363H555.51V346.636H550.971V363ZM553.251 344.527C554.604 344.527 555.712 343.494 555.712 342.226C555.712 340.969 554.604 339.935 553.251 339.935C551.909 339.935 550.801 340.969 550.801 342.226C550.801 343.494 551.909 344.527 553.251 344.527ZM563.683 353.54C563.694 351.43 564.951 350.195 566.784 350.195C568.605 350.195 569.703 351.388 569.692 353.391V363H574.23V352.581C574.23 348.767 571.993 346.423 568.584 346.423C566.155 346.423 564.397 347.616 563.662 349.523H563.47V346.636H559.145V363H563.683V353.54ZM577.807 363H582.346V357.801L583.571 356.406L588.034 363H593.35L586.969 353.721L593.042 346.636H587.832L582.591 352.847H582.346V341.182H577.807V363ZM600.201 360.017H596.451L596.397 361.21C596.27 364.108 595.439 367.08 595.13 368.327H598.07C598.581 367.038 599.796 364.012 600.083 361.189L600.201 360.017ZM617.662 363.32C622.019 363.32 624.757 360.763 624.97 357.002H620.687C620.421 358.749 619.27 359.729 617.715 359.729C615.595 359.729 614.221 357.95 614.221 354.818C614.221 351.729 615.605 349.96 617.715 349.96C619.377 349.96 620.442 351.058 620.687 352.688H624.97C624.778 348.906 621.912 346.423 617.64 346.423C612.676 346.423 609.608 349.864 609.608 354.882C609.608 359.857 612.623 363.32 617.662 363.32ZM632.542 363.309C634.96 363.309 636.526 362.254 637.325 360.731H637.453V363H641.757V351.963C641.757 348.064 638.454 346.423 634.811 346.423C630.89 346.423 628.312 348.298 627.684 351.281L631.881 351.622C632.19 350.536 633.16 349.737 634.79 349.737C636.334 349.737 637.219 350.514 637.219 351.857V351.92C637.219 352.975 636.1 353.114 633.256 353.391C630.017 353.689 627.108 354.776 627.108 358.43C627.108 361.668 629.42 363.309 632.542 363.309ZM633.841 360.177C632.446 360.177 631.444 359.527 631.444 358.281C631.444 357.002 632.499 356.374 634.097 356.15C635.088 356.011 636.707 355.777 637.251 355.415V357.151C637.251 358.866 635.834 360.177 633.841 360.177ZM649.816 353.54C649.827 351.43 651.084 350.195 652.916 350.195C654.738 350.195 655.835 351.388 655.825 353.391V363H660.363V352.581C660.363 348.767 658.126 346.423 654.717 346.423C652.288 346.423 650.53 347.616 649.795 349.523H649.603V346.636H645.278V363H649.816V353.54ZM674.111 363H678.905L681.718 352.709H681.92L684.733 363H689.537L693.98 346.636H689.399L686.906 357.567H686.768L684.083 346.636H679.577L676.934 357.631H676.785L674.25 346.636H669.658L674.111 363ZM703.448 363.32C707.496 363.32 710.224 361.349 710.863 358.312L706.665 358.036C706.207 359.282 705.036 359.932 703.523 359.932C701.254 359.932 699.815 358.43 699.815 355.99V355.979H710.959V354.733C710.959 349.172 707.592 346.423 703.267 346.423C698.452 346.423 695.33 349.843 695.33 354.893C695.33 360.081 698.409 363.32 703.448 363.32ZM699.815 353.167C699.911 351.303 701.328 349.811 703.342 349.811C705.312 349.811 706.676 351.217 706.687 353.167H699.815ZM729.664 346.636H726.414V345.539C726.414 344.431 726.862 343.781 728.193 343.781C728.737 343.781 729.291 343.898 729.653 344.016L730.452 340.607C729.887 340.436 728.641 340.159 727.245 340.159C724.166 340.159 721.876 341.896 721.876 345.454V346.636H719.564V350.045H721.876V363H726.414V350.045H729.664V346.636ZM732.436 363H736.974V346.636H732.436V363ZM734.716 344.527C736.069 344.527 737.177 343.494 737.177 342.226C737.177 340.969 736.069 339.935 734.716 339.935C733.374 339.935 732.266 340.969 732.266 342.226C732.266 343.494 733.374 344.527 734.716 344.527ZM745.148 353.54C745.159 351.43 746.416 350.195 748.248 350.195C750.07 350.195 751.167 351.388 751.157 353.391V363H755.695V352.581C755.695 348.767 753.458 346.423 750.049 346.423C747.62 346.423 745.862 347.616 745.127 349.523H744.935V346.636H740.61V363H745.148V353.54ZM765.302 363.266C767.944 363.266 769.318 361.743 769.947 360.379H770.138V363H774.613V341.182H770.085V349.385H769.947C769.339 348.053 768.029 346.423 765.291 346.423C761.701 346.423 758.665 349.214 758.665 354.839C758.665 360.315 761.573 363.266 765.302 363.266ZM766.74 359.655C764.513 359.655 763.299 357.673 763.299 354.818C763.299 351.984 764.492 350.035 766.74 350.035C768.945 350.035 770.181 351.899 770.181 354.818C770.181 357.737 768.924 359.655 766.74 359.655ZM789.954 363.309C792.372 363.309 793.938 362.254 794.737 360.731H794.865V363H799.169V351.963C799.169 348.064 795.866 346.423 792.223 346.423C788.303 346.423 785.724 348.298 785.096 351.281L789.293 351.622C789.602 350.536 790.572 349.737 792.202 349.737C793.746 349.737 794.631 350.514 794.631 351.857V351.92C794.631 352.975 793.512 353.114 790.668 353.391C787.429 353.689 784.521 354.776 784.521 358.43C784.521 361.668 786.832 363.309 789.954 363.309ZM791.254 360.177C789.858 360.177 788.857 359.527 788.857 358.281C788.857 357.002 789.911 356.374 791.509 356.15C792.5 356.011 794.119 355.777 794.663 355.415V357.151C794.663 358.866 793.246 360.177 791.254 360.177ZM812.861 363H817.655L820.468 352.709H820.67L823.483 363H828.287L832.73 346.636H828.149L825.656 357.567H825.518L822.833 346.636H818.327L815.684 357.631H815.535L813 346.636H808.408L812.861 363ZM839.817 363.309C842.235 363.309 843.801 362.254 844.6 360.731H844.728V363H849.032V351.963C849.032 348.064 845.73 346.423 842.086 346.423C838.166 346.423 835.588 348.298 834.959 351.281L839.157 351.622C839.466 350.536 840.435 349.737 842.065 349.737C843.61 349.737 844.494 350.514 844.494 351.857V351.92C844.494 352.975 843.375 353.114 840.531 353.391C837.292 353.689 834.384 354.776 834.384 358.43C834.384 361.668 836.696 363.309 839.817 363.309ZM841.117 360.177C839.721 360.177 838.72 359.527 838.72 358.281C838.72 357.002 839.775 356.374 841.373 356.15C842.363 356.011 843.983 355.777 844.526 355.415V357.151C844.526 358.866 843.109 360.177 841.117 360.177ZM854.769 369.136C858.146 369.136 859.936 367.411 860.863 364.768L867.223 346.658L862.418 346.636L858.999 358.653H858.828L855.44 346.636H850.668L856.538 363.469L856.271 364.161C855.675 365.695 854.535 365.77 852.937 365.28L851.914 368.668C852.564 368.945 853.619 369.136 854.769 369.136ZM885.193 346.636H882.114V342.716H877.575V346.636H875.338V350.045H877.575V358.568C877.554 361.775 879.738 363.362 883.03 363.224C884.202 363.181 885.033 362.947 885.491 362.798L884.777 359.42C884.553 359.463 884.074 359.57 883.648 359.57C882.742 359.57 882.114 359.229 882.114 357.972V350.045H885.193V346.636ZM895.367 363.32C900.331 363.32 903.421 359.921 903.421 354.882C903.421 349.811 900.331 346.423 895.367 346.423C890.402 346.423 887.313 349.811 887.313 354.882C887.313 359.921 890.402 363.32 895.367 363.32ZM895.388 359.804C893.097 359.804 891.926 357.705 891.926 354.85C891.926 351.995 893.097 349.886 895.388 349.886C897.636 349.886 898.808 351.995 898.808 354.85C898.808 357.705 897.636 359.804 895.388 359.804ZM923.809 356.033C923.819 358.227 922.317 359.378 920.687 359.378C918.972 359.378 917.864 358.174 917.853 356.246V346.636H913.315V357.055C913.326 360.88 915.563 363.213 918.855 363.213C921.316 363.213 923.084 361.945 923.819 360.028H923.99V363H928.347V346.636H923.809V356.033ZM945.592 351.303C945.187 348.288 942.758 346.423 938.625 346.423C934.438 346.423 931.679 348.362 931.689 351.516C931.679 353.966 933.224 355.553 936.42 356.192L939.253 356.757C940.681 357.045 941.331 357.567 941.352 358.387C941.331 359.357 940.276 360.049 938.689 360.049C937.069 360.049 935.993 359.357 935.716 358.025L931.253 358.259C931.679 361.391 934.342 363.32 938.678 363.32C942.918 363.32 945.954 361.157 945.965 357.929C945.954 355.564 944.41 354.147 941.235 353.497L938.273 352.901C936.75 352.57 936.185 352.048 936.196 351.26C936.185 350.28 937.293 349.641 938.699 349.641C940.276 349.641 941.214 350.504 941.437 351.558L945.592 351.303ZM956.28 363.32C960.328 363.32 963.056 361.349 963.695 358.312L959.498 358.036C959.039 359.282 957.868 359.932 956.355 359.932C954.086 359.932 952.647 358.43 952.647 355.99V355.979H963.791V354.733C963.791 349.172 960.424 346.423 956.099 346.423C951.284 346.423 948.162 349.843 948.162 354.893C948.162 360.081 951.241 363.32 956.28 363.32ZM952.647 353.167C952.743 351.303 954.16 349.811 956.174 349.811C958.145 349.811 959.508 351.217 959.519 353.167H952.647ZM185.426 393.303C185.021 390.288 182.592 388.423 178.459 388.423C174.272 388.423 171.513 390.362 171.523 393.516C171.513 395.966 173.058 397.553 176.254 398.192L179.087 398.757C180.515 399.045 181.165 399.567 181.186 400.387C181.165 401.357 180.11 402.049 178.523 402.049C176.903 402.049 175.827 401.357 175.55 400.025L171.087 400.259C171.513 403.391 174.176 405.32 178.512 405.32C182.752 405.32 185.788 403.157 185.799 399.929C185.788 397.564 184.244 396.147 181.069 395.497L178.107 394.901C176.584 394.57 176.019 394.048 176.03 393.26C176.019 392.28 177.127 391.641 178.533 391.641C180.11 391.641 181.048 392.504 181.271 393.558L185.426 393.303ZM196.05 405.32C201.015 405.32 204.104 401.921 204.104 396.882C204.104 391.811 201.015 388.423 196.05 388.423C191.086 388.423 187.996 391.811 187.996 396.882C187.996 401.921 191.086 405.32 196.05 405.32ZM196.072 401.804C193.781 401.804 192.609 399.705 192.609 396.85C192.609 393.995 193.781 391.886 196.072 391.886C198.319 391.886 199.491 393.995 199.491 396.85C199.491 399.705 198.319 401.804 196.072 401.804ZM207.055 405H211.594V395.178C211.594 393.366 212.744 392.163 214.257 392.163C215.748 392.163 216.75 393.185 216.75 394.794V405H221.15V395.007C221.15 393.313 222.119 392.163 223.77 392.163C225.219 392.163 226.306 393.068 226.306 394.89V405H230.834V393.995C230.834 390.447 228.724 388.423 225.677 388.423C223.28 388.423 221.416 389.648 220.745 391.523H220.574C220.052 389.627 218.38 388.423 216.132 388.423C213.927 388.423 212.254 389.595 211.572 391.523H211.381V388.636H207.055V405ZM241.876 405.32C245.924 405.32 248.651 403.349 249.291 400.312L245.093 400.036C244.635 401.282 243.463 401.932 241.95 401.932C239.681 401.932 238.243 400.43 238.243 397.99V397.979H249.387V396.733C249.387 391.172 246.02 388.423 241.695 388.423C236.879 388.423 233.758 391.843 233.758 396.893C233.758 402.081 236.837 405.32 241.876 405.32ZM238.243 395.167C238.339 393.303 239.756 391.811 241.769 391.811C243.74 391.811 245.104 393.217 245.115 395.167H238.243ZM259.292 405H263.83V395.742C263.83 393.729 265.3 392.344 267.303 392.344C267.931 392.344 268.794 392.45 269.221 392.589V388.562C268.816 388.466 268.251 388.402 267.793 388.402C265.961 388.402 264.458 389.467 263.862 391.491H263.691V388.636H259.292V405ZM275.764 405.309C278.183 405.309 279.749 404.254 280.548 402.731H280.676V405H284.98V393.963C284.98 390.064 281.677 388.423 278.034 388.423C274.113 388.423 271.535 390.298 270.906 393.281L275.104 393.622C275.413 392.536 276.382 391.737 278.012 391.737C279.557 391.737 280.441 392.514 280.441 393.857V393.92C280.441 394.975 279.323 395.114 276.478 395.391C273.24 395.689 270.331 396.776 270.331 400.43C270.331 403.668 272.643 405.309 275.764 405.309ZM277.064 402.177C275.669 402.177 274.667 401.527 274.667 400.281C274.667 399.002 275.722 398.374 277.32 398.15C278.311 398.011 279.93 397.777 280.473 397.415V399.151C280.473 400.866 279.056 402.177 277.064 402.177ZM294.53 405.266C297.172 405.266 298.547 403.743 299.175 402.379H299.367V405H303.841V383.182H299.314V391.385H299.175C298.568 390.053 297.258 388.423 294.52 388.423C290.93 388.423 287.893 391.214 287.893 396.839C287.893 402.315 290.802 405.266 294.53 405.266ZM295.969 401.655C293.742 401.655 292.528 399.673 292.528 396.818C292.528 393.984 293.721 392.035 295.969 392.035C298.174 392.035 299.41 393.899 299.41 396.818C299.41 399.737 298.153 401.655 295.969 401.655ZM307.573 405H312.111V388.636H307.573V405ZM309.853 386.527C311.206 386.527 312.314 385.494 312.314 384.226C312.314 382.969 311.206 381.935 309.853 381.935C308.51 381.935 307.402 382.969 307.402 384.226C307.402 385.494 308.51 386.527 309.853 386.527ZM323.14 405.32C328.105 405.32 331.194 401.921 331.194 396.882C331.194 391.811 328.105 388.423 323.14 388.423C318.176 388.423 315.086 391.811 315.086 396.882C315.086 401.921 318.176 405.32 323.14 405.32ZM323.161 401.804C320.871 401.804 319.699 399.705 319.699 396.85C319.699 393.995 320.871 391.886 323.161 391.886C325.409 391.886 326.581 393.995 326.581 396.85C326.581 399.705 325.409 401.804 323.161 401.804ZM354.703 393.303C354.299 390.288 351.87 388.423 347.736 388.423C343.549 388.423 340.79 390.362 340.801 393.516C340.79 395.966 342.335 397.553 345.531 398.192L348.365 398.757C349.792 399.045 350.442 399.567 350.463 400.387C350.442 401.357 349.387 402.049 347.8 402.049C346.181 402.049 345.105 401.357 344.828 400.025L340.364 400.259C340.79 403.391 343.453 405.32 347.789 405.32C352.029 405.32 355.066 403.157 355.076 399.929C355.066 397.564 353.521 396.147 350.346 395.497L347.385 394.901C345.861 394.57 345.297 394.048 345.307 393.26C345.297 392.28 346.404 391.641 347.811 391.641C349.387 391.641 350.325 392.504 350.549 393.558L354.703 393.303ZM357.934 405H362.472V388.636H357.934V405ZM360.214 386.527C361.567 386.527 362.675 385.494 362.675 384.226C362.675 382.969 361.567 381.935 360.214 381.935C358.872 381.935 357.764 382.969 357.764 384.226C357.764 385.494 358.872 386.527 360.214 386.527ZM373.48 411.477C378.157 411.477 381.481 409.347 381.481 405.16V388.636H376.974V391.385H376.804C376.197 390.053 374.865 388.423 372.127 388.423C368.537 388.423 365.501 391.214 365.501 396.786C365.501 402.23 368.452 404.766 372.138 404.766C374.748 404.766 376.207 403.455 376.804 402.102H376.996V405.096C376.996 407.344 375.558 408.217 373.587 408.217C371.584 408.217 370.572 407.344 370.199 406.353L366.001 406.918C366.545 409.496 369.07 411.477 373.48 411.477ZM373.576 401.357C371.349 401.357 370.135 399.588 370.135 396.765C370.135 393.984 371.328 392.035 373.576 392.035C375.781 392.035 377.017 393.899 377.017 396.765C377.017 399.652 375.76 401.357 373.576 401.357ZM389.631 395.54C389.641 393.43 390.898 392.195 392.731 392.195C394.553 392.195 395.65 393.388 395.639 395.391V405H400.178V394.581C400.178 390.767 397.94 388.423 394.531 388.423C392.102 388.423 390.344 389.616 389.609 391.523H389.418V388.636H385.092V405H389.631V395.54ZM408.421 405.309C410.839 405.309 412.405 404.254 413.204 402.731H413.332V405H417.636V393.963C417.636 390.064 414.333 388.423 410.69 388.423C406.769 388.423 404.191 390.298 403.563 393.281L407.76 393.622C408.069 392.536 409.039 391.737 410.669 391.737C412.213 391.737 413.097 392.514 413.097 393.857V393.92C413.097 394.975 411.979 395.114 409.134 395.391C405.896 395.689 402.987 396.776 402.987 400.43C402.987 403.668 405.299 405.309 408.421 405.309ZM409.72 402.177C408.325 402.177 407.323 401.527 407.323 400.281C407.323 399.002 408.378 398.374 409.976 398.15C410.967 398.011 412.586 397.777 413.129 397.415V399.151C413.129 400.866 411.713 402.177 409.72 402.177ZM425.695 383.182H421.157V405H425.695V383.182ZM444.978 388.636H441.899V384.716H437.361V388.636H435.123V392.045H437.361V400.568C437.339 403.775 439.523 405.362 442.815 405.224C443.987 405.181 444.818 404.947 445.276 404.798L444.562 401.42C444.339 401.463 443.859 401.57 443.433 401.57C442.528 401.57 441.899 401.229 441.899 399.972V392.045H444.978V388.636ZM455.152 405.32C460.116 405.32 463.206 401.921 463.206 396.882C463.206 391.811 460.116 388.423 455.152 388.423C450.187 388.423 447.098 391.811 447.098 396.882C447.098 401.921 450.187 405.32 455.152 405.32ZM455.173 401.804C452.883 401.804 451.711 399.705 451.711 396.85C451.711 393.995 452.883 391.886 455.173 391.886C457.421 391.886 458.593 393.995 458.593 396.85C458.593 399.705 457.421 401.804 455.173 401.804ZM480.472 411.477C485.149 411.477 488.473 409.347 488.473 405.16V388.636H483.967V391.385H483.796C483.189 390.053 481.857 388.423 479.119 388.423C475.529 388.423 472.493 391.214 472.493 396.786C472.493 402.23 475.444 404.766 479.13 404.766C481.74 404.766 483.2 403.455 483.796 402.102H483.988V405.096C483.988 407.344 482.55 408.217 480.579 408.217C478.576 408.217 477.564 407.344 477.191 406.353L472.994 406.918C473.537 409.496 476.062 411.477 480.472 411.477ZM480.568 401.357C478.342 401.357 477.127 399.588 477.127 396.765C477.127 393.984 478.32 392.035 480.568 392.035C482.773 392.035 484.009 393.899 484.009 396.765C484.009 399.652 482.752 401.357 480.568 401.357ZM502.578 398.033C502.589 400.227 501.087 401.378 499.457 401.378C497.741 401.378 496.634 400.174 496.623 398.246V388.636H492.085V399.055C492.095 402.88 494.332 405.213 497.624 405.213C500.085 405.213 501.854 403.945 502.589 402.028H502.759V405H507.116V388.636H502.578V398.033ZM510.747 405H515.285V388.636H510.747V405ZM513.026 386.527C514.379 386.527 515.487 385.494 515.487 384.226C515.487 382.969 514.379 381.935 513.026 381.935C511.684 381.935 510.576 382.969 510.576 384.226C510.576 385.494 511.684 386.527 513.026 386.527ZM524.95 405.266C527.592 405.266 528.967 403.743 529.595 402.379H529.787V405H534.261V383.182H529.734V391.385H529.595C528.988 390.053 527.678 388.423 524.94 388.423C521.349 388.423 518.313 391.214 518.313 396.839C518.313 402.315 521.222 405.266 524.95 405.266ZM526.388 401.655C524.162 401.655 522.947 399.673 522.947 396.818C522.947 393.984 524.141 392.035 526.388 392.035C528.594 392.035 529.83 393.899 529.83 396.818C529.83 399.737 528.572 401.655 526.388 401.655ZM545.45 405.32C549.498 405.32 552.226 403.349 552.865 400.312L548.667 400.036C548.209 401.282 547.037 401.932 545.525 401.932C543.256 401.932 541.817 400.43 541.817 397.99V397.979H552.961V396.733C552.961 391.172 549.594 388.423 545.269 388.423C540.454 388.423 537.332 391.843 537.332 396.893C537.332 402.081 540.411 405.32 545.45 405.32ZM541.817 395.167C541.913 393.303 543.33 391.811 545.344 391.811C547.314 391.811 548.678 393.217 548.689 395.167H541.817ZM567.532 405.309C569.95 405.309 571.516 404.254 572.315 402.731H572.443V405H576.747V393.963C576.747 390.064 573.445 388.423 569.801 388.423C565.881 388.423 563.303 390.298 562.674 393.281L566.871 393.622C567.18 392.536 568.15 391.737 569.78 391.737C571.325 391.737 572.209 392.514 572.209 393.857V393.92C572.209 394.975 571.09 395.114 568.246 395.391C565.007 395.689 562.099 396.776 562.099 400.43C562.099 403.668 564.411 405.309 567.532 405.309ZM568.832 402.177C567.436 402.177 566.435 401.527 566.435 400.281C566.435 399.002 567.489 398.374 569.087 398.15C570.078 398.011 571.697 397.777 572.241 397.415V399.151C572.241 400.866 570.824 402.177 568.832 402.177ZM584.806 395.54C584.817 393.43 586.074 392.195 587.907 392.195C589.728 392.195 590.826 393.388 590.815 395.391V405H595.353V394.581C595.353 390.767 593.116 388.423 589.707 388.423C587.278 388.423 585.52 389.616 584.785 391.523H584.593V388.636H580.268V405H584.806V395.54ZM598.93 405H603.469V388.636H598.93V405ZM601.21 386.527C602.563 386.527 603.671 385.494 603.671 384.226C603.671 382.969 602.563 381.935 601.21 381.935C599.868 381.935 598.76 382.969 598.76 384.226C598.76 385.494 599.868 386.527 601.21 386.527ZM607.104 405H611.642V395.178C611.642 393.366 612.793 392.163 614.306 392.163C615.797 392.163 616.799 393.185 616.799 394.794V405H621.199V395.007C621.199 393.313 622.168 392.163 623.819 392.163C625.268 392.163 626.355 393.068 626.355 394.89V405H630.882V393.995C630.882 390.447 628.773 388.423 625.726 388.423C623.329 388.423 621.465 389.648 620.794 391.523H620.623C620.101 389.627 618.429 388.423 616.181 388.423C613.975 388.423 612.303 389.595 611.621 391.523H611.429V388.636H607.104V405ZM639.134 405.309C641.552 405.309 643.118 404.254 643.917 402.731H644.045V405H648.349V393.963C648.349 390.064 645.046 388.423 641.403 388.423C637.482 388.423 634.904 390.298 634.276 393.281L638.473 393.622C638.782 392.536 639.751 391.737 641.381 391.737C642.926 391.737 643.81 392.514 643.81 393.857V393.92C643.81 394.975 642.692 395.114 639.847 395.391C636.609 395.689 633.7 396.776 633.7 400.43C633.7 403.668 636.012 405.309 639.134 405.309ZM640.433 402.177C639.038 402.177 638.036 401.527 638.036 400.281C638.036 399.002 639.091 398.374 640.689 398.15C641.68 398.011 643.299 397.777 643.842 397.415V399.151C643.842 400.866 642.425 402.177 640.433 402.177ZM656.408 383.182H651.87V405H656.408V383.182ZM673.659 393.303C673.254 390.288 670.825 388.423 666.691 388.423C662.504 388.423 659.745 390.362 659.756 393.516C659.745 395.966 661.29 397.553 664.486 398.192L667.32 398.757C668.747 399.045 669.397 399.567 669.419 400.387C669.397 401.357 668.343 402.049 666.755 402.049C665.136 402.049 664.06 401.357 663.783 400.025L659.319 400.259C659.745 403.391 662.409 405.32 666.744 405.32C670.985 405.32 674.021 403.157 674.031 399.929C674.021 397.564 672.476 396.147 669.301 395.497L666.34 394.901C664.816 394.57 664.252 394.048 664.262 393.26C664.252 392.28 665.36 391.641 666.766 391.641C668.343 391.641 669.28 392.504 669.504 393.558L673.659 393.303ZM692.536 388.636H689.458V384.716H684.919V388.636H682.682V392.045H684.919V400.568C684.898 403.775 687.082 405.362 690.374 405.224C691.546 405.181 692.377 404.947 692.835 404.798L692.121 401.42C691.897 401.463 691.418 401.57 690.992 401.57C690.086 401.57 689.458 401.229 689.458 399.972V392.045H692.536V388.636ZM702.71 405.32C707.675 405.32 710.764 401.921 710.764 396.882C710.764 391.811 707.675 388.423 702.71 388.423C697.746 388.423 694.656 391.811 694.656 396.882C694.656 401.921 697.746 405.32 702.71 405.32ZM702.732 401.804C700.441 401.804 699.269 399.705 699.269 396.85C699.269 393.995 700.441 391.886 702.732 391.886C704.98 391.886 706.151 393.995 706.151 396.85C706.151 399.705 704.98 401.804 702.732 401.804ZM734.274 393.303C733.869 390.288 731.44 388.423 727.306 388.423C723.12 388.423 720.36 390.362 720.371 393.516C720.36 395.966 721.905 397.553 725.101 398.192L727.935 398.757C729.363 399.045 730.012 399.567 730.034 400.387C730.012 401.357 728.958 402.049 727.37 402.049C725.751 402.049 724.675 401.357 724.398 400.025L719.934 400.259C720.36 403.391 723.024 405.32 727.36 405.32C731.6 405.32 734.636 403.157 734.647 399.929C734.636 397.564 733.091 396.147 729.917 395.497L726.955 394.901C725.431 394.57 724.867 394.048 724.877 393.26C724.867 392.28 725.975 391.641 727.381 391.641C728.958 391.641 729.895 392.504 730.119 393.558L734.274 393.303ZM742.171 405.309C744.589 405.309 746.155 404.254 746.954 402.731H747.082V405H751.386V393.963C751.386 390.064 748.083 388.423 744.44 388.423C740.519 388.423 737.941 390.298 737.313 393.281L741.51 393.622C741.819 392.536 742.789 391.737 744.419 391.737C745.963 391.737 746.847 392.514 746.847 393.857V393.92C746.847 394.975 745.729 395.114 742.884 395.391C739.646 395.689 736.737 396.776 736.737 400.43C736.737 403.668 739.049 405.309 742.171 405.309ZM743.47 402.177C742.075 402.177 741.073 401.527 741.073 400.281C741.073 399.002 742.128 398.374 743.726 398.15C744.717 398.011 746.336 397.777 746.879 397.415V399.151C746.879 400.866 745.463 402.177 743.47 402.177ZM763.706 388.636H760.457V387.539C760.457 386.431 760.905 385.781 762.236 385.781C762.78 385.781 763.334 385.898 763.696 386.016L764.495 382.607C763.93 382.436 762.684 382.159 761.288 382.159C758.209 382.159 755.919 383.896 755.919 387.454V388.636H753.607V392.045H755.919V405H760.457V392.045H763.706V388.636ZM773.35 405.32C777.399 405.32 780.126 403.349 780.765 400.312L776.568 400.036C776.11 401.282 774.938 401.932 773.425 401.932C771.156 401.932 769.718 400.43 769.718 397.99V397.979H780.861V396.733C780.861 391.172 777.495 388.423 773.169 388.423C768.354 388.423 765.233 391.843 765.233 396.893C765.233 402.081 768.311 405.32 773.35 405.32ZM769.718 395.167C769.814 393.303 771.23 391.811 773.244 391.811C775.215 391.811 776.578 393.217 776.589 395.167H769.718ZM783.823 405H788.361V395.742C788.361 393.729 789.831 392.344 791.834 392.344C792.463 392.344 793.326 392.45 793.752 392.589V388.562C793.347 388.466 792.782 388.402 792.324 388.402C790.492 388.402 788.99 389.467 788.393 391.491H788.223V388.636H783.823V405ZM803.042 411.136H807.58V402.379H807.718C808.347 403.743 809.721 405.266 812.363 405.266C816.092 405.266 819 402.315 819 396.839C819 391.214 815.964 388.423 812.374 388.423C809.636 388.423 808.326 390.053 807.718 391.385H807.516V388.636H803.042V411.136ZM807.484 396.818C807.484 393.899 808.72 392.035 810.925 392.035C813.173 392.035 814.366 393.984 814.366 396.818C814.366 399.673 813.152 401.655 810.925 401.655C808.741 401.655 807.484 399.737 807.484 396.818ZM826.564 383.182H822.026V405H826.564V383.182ZM834.866 405.309C837.284 405.309 838.85 404.254 839.649 402.731H839.777V405H844.081V393.963C844.081 390.064 840.779 388.423 837.135 388.423C833.215 388.423 830.637 390.298 830.008 393.281L834.205 393.622C834.514 392.536 835.484 391.737 837.114 391.737C838.659 391.737 839.543 392.514 839.543 393.857V393.92C839.543 394.975 838.424 395.114 835.58 395.391C832.341 395.689 829.433 396.776 829.433 400.43C829.433 403.668 831.744 405.309 834.866 405.309ZM836.166 402.177C834.77 402.177 833.769 401.527 833.769 400.281C833.769 399.002 834.823 398.374 836.421 398.15C837.412 398.011 839.031 397.777 839.575 397.415V399.151C839.575 400.866 838.158 402.177 836.166 402.177ZM854.996 405.32C859.353 405.32 862.091 402.763 862.304 399.002H858.021C857.755 400.749 856.604 401.729 855.049 401.729C852.929 401.729 851.555 399.95 851.555 396.818C851.555 393.729 852.939 391.96 855.049 391.96C856.711 391.96 857.776 393.058 858.021 394.688H862.304C862.112 390.906 859.246 388.423 854.974 388.423C850.01 388.423 846.942 391.864 846.942 396.882C846.942 401.857 849.956 405.32 854.996 405.32ZM872.667 405.32C876.715 405.32 879.442 403.349 880.082 400.312L875.884 400.036C875.426 401.282 874.254 401.932 872.741 401.932C870.472 401.932 869.034 400.43 869.034 397.99V397.979H880.178V396.733C880.178 391.172 876.811 388.423 872.486 388.423C867.67 388.423 864.549 391.843 864.549 396.893C864.549 402.081 867.628 405.32 872.667 405.32ZM869.034 395.167C869.13 393.303 870.547 391.811 872.56 391.811C874.531 391.811 875.895 393.217 875.906 395.167H869.034ZM896.754 393.303C896.349 390.288 893.92 388.423 889.787 388.423C885.6 388.423 882.841 390.362 882.852 393.516C882.841 395.966 884.386 397.553 887.582 398.192L890.415 398.757C891.843 399.045 892.493 399.567 892.514 400.387C892.493 401.357 891.438 402.049 889.851 402.049C888.232 402.049 887.156 401.357 886.879 400.025L882.415 400.259C882.841 403.391 885.504 405.32 889.84 405.32C894.08 405.32 897.116 403.157 897.127 399.929C897.116 397.564 895.572 396.147 892.397 395.497L889.435 394.901C887.912 394.57 887.347 394.048 887.358 393.26C887.347 392.28 888.455 391.641 889.862 391.641C891.438 391.641 892.376 392.504 892.599 393.558L896.754 393.303ZM912.958 405.266C915.6 405.266 916.974 403.743 917.603 402.379H917.795V405H922.269V383.182H917.741V391.385H917.603C916.996 390.053 915.685 388.423 912.947 388.423C909.357 388.423 906.321 391.214 906.321 396.839C906.321 402.315 909.229 405.266 912.958 405.266ZM914.396 401.655C912.17 401.655 910.955 399.673 910.955 396.818C910.955 393.984 912.148 392.035 914.396 392.035C916.602 392.035 917.837 393.899 917.837 396.818C917.837 399.737 916.58 401.655 914.396 401.655ZM936.494 398.033C936.505 400.227 935.003 401.378 933.373 401.378C931.657 401.378 930.55 400.174 930.539 398.246V388.636H926.001V399.055C926.011 402.88 928.248 405.213 931.54 405.213C934.001 405.213 935.77 403.945 936.505 402.028H936.675V405H941.032V388.636H936.494V398.033ZM944.663 405H949.201V395.742C949.201 393.729 950.671 392.344 952.674 392.344C953.303 392.344 954.165 392.45 954.592 392.589V388.562C954.187 388.466 953.622 388.402 953.164 388.402C951.332 388.402 949.83 389.467 949.233 391.491H949.062V388.636H944.663V405ZM956.938 405H961.476V388.636H956.938V405ZM959.218 386.527C960.571 386.527 961.679 385.494 961.679 384.226C961.679 382.969 960.571 381.935 959.218 381.935C957.876 381.935 956.768 382.969 956.768 384.226C956.768 385.494 957.876 386.527 959.218 386.527ZM969.65 395.54C969.661 393.43 970.918 392.195 972.75 392.195C974.572 392.195 975.669 393.388 975.659 395.391V405H980.197V394.581C980.197 390.767 977.96 388.423 974.551 388.423C972.122 388.423 970.364 389.616 969.629 391.523H969.437V388.636H965.112V405H969.65V395.54ZM991.146 411.477C995.823 411.477 999.147 409.347 999.147 405.16V388.636H994.64V391.385H994.47C993.863 390.053 992.531 388.423 989.793 388.423C986.203 388.423 983.167 391.214 983.167 396.786C983.167 402.23 986.118 404.766 989.804 404.766C992.414 404.766 993.873 403.455 994.47 402.102H994.662V405.096C994.662 407.344 993.224 408.217 991.253 408.217C989.25 408.217 988.238 407.344 987.865 406.353L983.667 406.918C984.211 409.496 986.736 411.477 991.146 411.477ZM991.242 401.357C989.015 401.357 987.801 399.588 987.801 396.765C987.801 393.984 988.994 392.035 991.242 392.035C993.447 392.035 994.683 393.899 994.683 396.765C994.683 399.652 993.426 401.357 991.242 401.357ZM175.039 447H179.833L182.646 436.709H182.848L185.661 447H190.465L194.908 430.636H190.327L187.834 441.567H187.695L185.011 430.636H180.504L177.862 441.631H177.713L175.178 430.636H170.586L175.039 447ZM197.329 447H201.867V430.636H197.329V447ZM199.608 428.527C200.961 428.527 202.069 427.494 202.069 426.226C202.069 424.969 200.961 423.935 199.608 423.935C198.266 423.935 197.158 424.969 197.158 426.226C197.158 427.494 198.266 428.527 199.608 428.527ZM210.041 425.182H205.502V447H210.041V425.182ZM219.706 447.266C222.348 447.266 223.722 445.743 224.351 444.379H224.543V447H229.017V425.182H224.49V433.385H224.351C223.744 432.053 222.433 430.423 219.695 430.423C216.105 430.423 213.069 433.214 213.069 438.839C213.069 444.315 215.977 447.266 219.706 447.266ZM221.144 443.655C218.918 443.655 217.703 441.673 217.703 438.818C217.703 435.984 218.896 434.035 221.144 434.035C223.35 434.035 224.585 435.899 224.585 438.818C224.585 441.737 223.328 443.655 221.144 443.655ZM248.492 430.636H245.242V429.539C245.242 428.431 245.69 427.781 247.021 427.781C247.565 427.781 248.119 427.898 248.481 428.016L249.28 424.607C248.715 424.436 247.469 424.159 246.073 424.159C242.994 424.159 240.704 425.896 240.704 429.454V430.636H238.392V434.045H240.704V447H245.242V434.045H248.492V430.636ZM251.264 447H255.803V430.636H251.264V447ZM253.544 428.527C254.897 428.527 256.005 427.494 256.005 426.226C256.005 424.969 254.897 423.935 253.544 423.935C252.202 423.935 251.094 424.969 251.094 426.226C251.094 427.494 252.202 428.527 253.544 428.527ZM259.438 447H263.976V437.742C263.976 435.729 265.447 434.344 267.449 434.344C268.078 434.344 268.941 434.45 269.367 434.589V430.562C268.962 430.466 268.398 430.402 267.939 430.402C266.107 430.402 264.605 431.467 264.008 433.491H263.838V430.636H259.438V447ZM278.409 447.32C282.457 447.32 285.185 445.349 285.824 442.312L281.626 442.036C281.168 443.282 279.996 443.932 278.484 443.932C276.214 443.932 274.776 442.43 274.776 439.99V439.979H285.92V438.733C285.92 433.172 282.553 430.423 278.228 430.423C273.413 430.423 270.291 433.843 270.291 438.893C270.291 444.081 273.37 447.32 278.409 447.32ZM274.776 437.167C274.872 435.303 276.289 433.811 278.303 433.811C280.273 433.811 281.637 435.217 281.648 437.167H274.776ZM302.496 435.303C302.092 432.288 299.663 430.423 295.529 430.423C291.342 430.423 288.583 432.362 288.594 435.516C288.583 437.966 290.128 439.553 293.324 440.192L296.158 440.757C297.585 441.045 298.235 441.567 298.256 442.387C298.235 443.357 297.18 444.049 295.593 444.049C293.974 444.049 292.898 443.357 292.621 442.025L288.157 442.259C288.583 445.391 291.246 447.32 295.582 447.32C299.822 447.32 302.859 445.157 302.869 441.929C302.859 439.564 301.314 438.147 298.139 437.497L295.178 436.901C293.654 436.57 293.089 436.048 293.1 435.26C293.089 434.28 294.197 433.641 295.604 433.641C297.18 433.641 298.118 434.504 298.342 435.558L302.496 435.303ZM323.164 440.033C323.175 442.227 321.673 443.378 320.043 443.378C318.327 443.378 317.219 442.174 317.209 440.246V430.636H312.67V441.055C312.681 444.88 314.918 447.213 318.21 447.213C320.671 447.213 322.44 445.945 323.175 444.028H323.345V447H327.702V430.636H323.164V440.033ZM344.948 435.303C344.543 432.288 342.114 430.423 337.98 430.423C333.794 430.423 331.034 432.362 331.045 435.516C331.034 437.966 332.579 439.553 335.775 440.192L338.609 440.757C340.036 441.045 340.686 441.567 340.708 442.387C340.686 443.357 339.632 444.049 338.044 444.049C336.425 444.049 335.349 443.357 335.072 442.025L330.608 442.259C331.034 445.391 333.698 447.32 338.034 447.32C342.274 447.32 345.31 445.157 345.32 441.929C345.31 439.564 343.765 438.147 340.59 437.497L337.629 436.901C336.105 436.57 335.541 436.048 335.551 435.26C335.541 434.28 336.649 433.641 338.055 433.641C339.632 433.641 340.569 434.504 340.793 435.558L344.948 435.303ZM348.178 447H352.717V430.636H348.178V447ZM350.458 428.527C351.811 428.527 352.919 427.494 352.919 426.226C352.919 424.969 351.811 423.935 350.458 423.935C349.116 423.935 348.008 424.969 348.008 426.226C348.008 427.494 349.116 428.527 350.458 428.527ZM360.89 437.54C360.901 435.43 362.158 434.195 363.991 434.195C365.812 434.195 366.91 435.388 366.899 437.391V447H371.437V436.581C371.437 432.767 369.2 430.423 365.791 430.423C363.362 430.423 361.604 431.616 360.869 433.523H360.677V430.636H356.352V447H360.89V437.54ZM382.386 453.477C387.063 453.477 390.387 451.347 390.387 447.16V430.636H385.881V433.385H385.71C385.103 432.053 383.771 430.423 381.033 430.423C377.443 430.423 374.407 433.214 374.407 438.786C374.407 444.23 377.358 446.766 381.044 446.766C383.654 446.766 385.114 445.455 385.71 444.102H385.902V447.096C385.902 449.344 384.464 450.217 382.493 450.217C380.49 450.217 379.478 449.344 379.105 448.353L374.908 448.918C375.451 451.496 377.976 453.477 382.386 453.477ZM382.482 443.357C380.256 443.357 379.041 441.588 379.041 438.765C379.041 435.984 380.234 434.035 382.482 434.035C384.688 434.035 385.923 435.899 385.923 438.765C385.923 441.652 384.666 443.357 382.482 443.357ZM406.972 447.266C409.614 447.266 410.988 445.743 411.617 444.379H411.808V447H416.283V425.182H411.755V433.385H411.617C411.009 432.053 409.699 430.423 406.961 430.423C403.371 430.423 400.335 433.214 400.335 438.839C400.335 444.315 403.243 447.266 406.972 447.266ZM408.41 443.655C406.183 443.655 404.969 441.673 404.969 438.818C404.969 435.984 406.162 434.035 408.41 434.035C410.615 434.035 411.851 435.899 411.851 438.818C411.851 441.737 410.594 443.655 408.41 443.655ZM420.014 447H424.553V437.742C424.553 435.729 426.023 434.344 428.026 434.344C428.654 434.344 429.517 434.45 429.943 434.589V430.562C429.538 430.466 428.974 430.402 428.516 430.402C426.683 430.402 425.181 431.467 424.585 433.491H424.414V430.636H420.014V447ZM438.921 447.32C443.886 447.32 446.975 443.921 446.975 438.882C446.975 433.811 443.886 430.423 438.921 430.423C433.957 430.423 430.867 433.811 430.867 438.882C430.867 443.921 433.957 447.32 438.921 447.32ZM438.943 443.804C436.652 443.804 435.48 441.705 435.48 438.85C435.48 435.995 436.652 433.886 438.943 433.886C441.191 433.886 442.362 435.995 442.362 438.85C442.362 441.705 441.191 443.804 438.943 443.804ZM454.465 437.54C454.475 435.43 455.732 434.195 457.565 434.195C459.387 434.195 460.484 435.388 460.473 437.391V447H465.012V436.581C465.012 432.767 462.774 430.423 459.365 430.423C456.936 430.423 455.178 431.616 454.443 433.523H454.252V430.636H449.926V447H454.465V437.54ZM476.046 447.32C480.094 447.32 482.821 445.349 483.461 442.312L479.263 442.036C478.805 443.282 477.633 443.932 476.12 443.932C473.851 443.932 472.413 442.43 472.413 439.99V439.979H483.556V438.733C483.556 433.172 480.19 430.423 475.865 430.423C471.049 430.423 467.928 433.843 467.928 438.893C467.928 444.081 471.007 447.32 476.046 447.32ZM472.413 437.167C472.509 435.303 473.926 433.811 475.939 433.811C477.91 433.811 479.274 435.217 479.284 437.167H472.413ZM500.133 435.303C499.728 432.288 497.299 430.423 493.166 430.423C488.979 430.423 486.22 432.362 486.23 435.516C486.22 437.966 487.765 439.553 490.961 440.192L493.794 440.757C495.222 441.045 495.872 441.567 495.893 442.387C495.872 443.357 494.817 444.049 493.23 444.049C491.61 444.049 490.534 443.357 490.257 442.025L485.794 442.259C486.22 445.391 488.883 447.32 493.219 447.32C497.459 447.32 500.495 445.157 500.506 441.929C500.495 439.564 498.951 438.147 495.776 437.497L492.814 436.901C491.291 436.57 490.726 436.048 490.737 435.26C490.726 434.28 491.834 433.641 493.24 433.641C494.817 433.641 495.755 434.504 495.978 435.558L500.133 435.303ZM506.017 447.277C507.38 447.277 508.563 446.137 508.573 444.72C508.563 443.325 507.38 442.185 506.017 442.185C504.61 442.185 503.449 443.325 503.46 444.72C503.449 446.137 504.61 447.277 506.017 447.277ZM522.021 425.182H518.612V427.504C518.612 429.305 517.972 430.615 517.259 431.744L519.261 432.927C520.763 431.67 522.021 429.433 522.021 427.483V425.182ZM527.369 425.182H523.96V427.504C523.96 429.305 523.32 430.615 522.607 431.744L524.609 432.927C526.112 431.67 527.369 429.433 527.369 427.483V425.182Z" fill="black"/>
<path d="M191.511 184.557H199.591C199.523 178.028 194.324 173.614 186.21 173.614C178.233 173.614 172.489 177.96 172.54 184.455C172.523 189.756 176.239 192.739 182.273 194.119L185.92 194.972C189.756 195.858 191.477 196.898 191.511 198.858C191.477 200.989 189.483 202.472 186.091 202.472C182.358 202.472 179.903 200.733 179.716 197.375H171.636C171.739 205.54 177.415 209.443 186.193 209.443C194.886 209.443 200.034 205.506 200.068 198.875C200.034 193.301 196.267 189.892 189.381 188.375L186.381 187.693C183.21 187.011 181.199 185.955 181.267 183.875C181.284 181.966 182.92 180.585 186.193 180.585C189.483 180.585 191.29 182.068 191.511 184.557ZM221.222 197.699C221.222 200.75 219.278 202.455 216.807 202.455C214.25 202.455 212.682 200.716 212.665 197.869V182.818H204.33V199.506C204.347 205.42 207.943 209.341 213.33 209.341C217.25 209.341 220.165 207.33 221.324 204.125H221.597V209H229.54V182.818H221.222V197.699ZM234.845 218.818H243.18V204.756H243.351C244.408 207.176 246.76 209.375 250.714 209.375C256.51 209.375 261.18 204.841 261.18 195.926C261.18 186.688 256.237 182.477 250.766 182.477C246.624 182.477 244.357 184.898 243.351 187.301H243.095V182.818H234.845V218.818ZM243.01 195.909C243.01 191.631 244.783 188.989 247.834 188.989C250.919 188.989 252.624 191.699 252.624 195.909C252.624 200.136 250.919 202.881 247.834 202.881C244.783 202.881 243.01 200.153 243.01 195.909ZM277.787 209.494C284.656 209.494 289.173 206.17 290.128 201.023L282.474 200.801C281.827 202.54 280.122 203.477 277.94 203.477C274.736 203.477 272.759 201.347 272.759 198.142V197.92H290.213V195.841C290.213 187.216 284.963 182.477 277.531 182.477C269.622 182.477 264.543 187.898 264.543 196.011C264.543 204.398 269.554 209.494 277.787 209.494ZM272.759 193.08C272.878 190.472 274.94 188.494 277.702 188.494C280.446 188.494 282.423 190.403 282.457 193.08H272.759ZM294.47 209H302.805V194.784C302.805 191.665 305.021 189.568 308.004 189.568C308.993 189.568 310.476 189.739 311.277 190.011V182.767C310.578 182.58 309.709 182.46 308.942 182.46C306.078 182.46 303.794 184.131 302.839 187.591H302.567V182.818H294.47V209ZM314.673 218.818H323.009V204.756H323.179C324.236 207.176 326.588 209.375 330.543 209.375C336.338 209.375 341.009 204.841 341.009 195.926C341.009 186.688 336.065 182.477 330.594 182.477C326.452 182.477 324.185 184.898 323.179 187.301H322.923V182.818H314.673V218.818ZM322.838 195.909C322.838 191.631 324.611 188.989 327.662 188.989C330.747 188.989 332.452 191.699 332.452 195.909C332.452 200.136 330.747 202.881 327.662 202.881C324.611 202.881 322.838 200.153 322.838 195.909ZM357.598 209.494C365.831 209.494 370.825 204.057 370.825 195.994C370.825 187.915 365.831 182.477 357.598 182.477C349.365 182.477 344.371 187.915 344.371 195.994C344.371 204.057 349.365 209.494 357.598 209.494ZM357.649 203.205C354.564 203.205 352.859 200.273 352.859 195.943C352.859 191.597 354.564 188.648 357.649 188.648C360.632 188.648 362.337 191.597 362.337 195.943C362.337 200.273 360.632 203.205 357.649 203.205ZM379.425 209H388.357L392.447 193.744H392.737L396.828 209H405.743L412.578 182.818H404.209L400.783 199.472H400.561L396.675 182.818H388.51L384.726 199.591H384.504L380.976 182.818H372.607L379.425 209ZM427.599 209.494C434.469 209.494 438.986 206.17 439.94 201.023L432.287 200.801C431.639 202.54 429.935 203.477 427.753 203.477C424.548 203.477 422.571 201.347 422.571 198.142V197.92H440.026V195.841C440.026 187.216 434.776 182.477 427.344 182.477C419.435 182.477 414.355 187.898 414.355 196.011C414.355 204.398 419.366 209.494 427.599 209.494ZM422.571 193.08C422.69 190.472 424.753 188.494 427.514 188.494C430.259 188.494 432.236 190.403 432.27 193.08H422.571ZM444.283 209H452.618V194.784C452.618 191.665 454.834 189.568 457.817 189.568C458.805 189.568 460.288 189.739 461.089 190.011V182.767C460.391 182.58 459.521 182.46 458.754 182.46C455.891 182.46 453.607 184.131 452.652 187.591H452.379V182.818H444.283V209ZM487.344 190.812C486.901 185.631 482.656 182.477 475.565 182.477C468.474 182.477 463.957 185.562 463.991 190.812C463.957 194.835 466.531 197.426 471.764 198.398L476.332 199.267C478.497 199.693 479.486 200.375 479.52 201.534C479.486 202.847 478.02 203.716 475.889 203.716C473.52 203.716 471.918 202.693 471.56 200.784L463.327 200.989C463.923 206.17 468.372 209.494 475.855 209.494C482.861 209.494 487.957 206 487.991 200.614C487.957 196.795 485.435 194.528 480.219 193.523L475.173 192.568C472.957 192.125 472.241 191.341 472.259 190.335C472.241 189.006 473.793 188.188 475.719 188.188C477.918 188.188 479.452 189.364 479.69 191.017L487.344 190.812ZM517.186 182.818H512.464V176.545H504.129V182.818H500.669V188.955H504.129V201.688C504.078 206.989 507.521 209.648 513.402 209.375C515.413 209.273 516.862 208.864 517.663 208.625L516.402 202.608C516.044 202.693 515.209 202.864 514.578 202.864C513.232 202.864 512.464 202.318 512.464 200.767V188.955H517.186V182.818ZM533.379 209.494C541.612 209.494 546.607 204.057 546.607 195.994C546.607 187.915 541.612 182.477 533.379 182.477C525.146 182.477 520.152 187.915 520.152 195.994C520.152 204.057 525.146 209.494 533.379 209.494ZM533.43 203.205C530.345 203.205 528.641 200.273 528.641 195.943C528.641 191.597 530.345 188.648 533.43 188.648C536.413 188.648 538.118 191.597 538.118 195.943C538.118 200.273 536.413 203.205 533.43 203.205ZM568.74 209L571.041 201.67H583.092L585.393 209H594.462L582.683 174.091H571.45L559.672 209H568.74ZM573.053 195.261L576.922 182.886H577.195L581.081 195.261H573.053ZM608.801 209.494C616.165 209.494 620.733 205.216 620.955 198.739H613.165C612.858 201.517 611.188 203.034 608.903 203.034C605.972 203.034 604.062 200.562 604.062 195.909C604.062 191.29 605.989 188.818 608.903 188.818C611.29 188.818 612.841 190.438 613.165 193.114H620.955C620.767 186.67 616.062 182.477 608.784 182.477C600.551 182.477 595.574 187.966 595.574 195.994C595.574 203.989 600.517 209.494 608.801 209.494ZM639.999 182.818H635.277V176.545H626.942V182.818H623.482V188.955H626.942V201.688C626.891 206.989 630.334 209.648 636.214 209.375C638.226 209.273 639.675 208.864 640.476 208.625L639.214 202.608C638.857 202.693 638.021 202.864 637.391 202.864C636.044 202.864 635.277 202.318 635.277 200.767V188.955H639.999V182.818ZM644.251 209H652.587V182.818H644.251V209ZM648.428 179.767C650.797 179.767 652.706 177.977 652.706 175.778C652.706 173.58 650.797 171.807 648.428 171.807C646.075 171.807 644.149 173.58 644.149 175.778C644.149 177.977 646.075 179.767 648.428 179.767ZM670.114 209.494C678.347 209.494 683.341 204.057 683.341 195.994C683.341 187.915 678.347 182.477 670.114 182.477C661.881 182.477 656.886 187.915 656.886 195.994C656.886 204.057 661.881 209.494 670.114 209.494ZM670.165 203.205C667.08 203.205 665.375 200.273 665.375 195.943C665.375 191.597 667.08 188.648 670.165 188.648C673.148 188.648 674.852 191.597 674.852 195.943C674.852 200.273 673.148 203.205 670.165 203.205ZM695.946 194.068C695.963 191.085 697.702 189.312 700.344 189.312C702.986 189.312 704.554 191.051 704.537 193.949V209H712.872V192.312C712.889 186.415 709.293 182.477 703.787 182.477C699.918 182.477 696.986 184.438 695.827 187.625H695.537V182.818H687.611V209H695.946V194.068ZM740.891 190.812C740.447 185.631 736.203 182.477 729.112 182.477C722.021 182.477 717.504 185.562 717.538 190.812C717.504 194.835 720.078 197.426 725.311 198.398L729.879 199.267C732.044 199.693 733.033 200.375 733.067 201.534C733.033 202.847 731.567 203.716 729.436 203.716C727.067 203.716 725.464 202.693 725.107 200.784L716.874 200.989C717.47 206.17 721.919 209.494 729.402 209.494C736.408 209.494 741.504 206 741.538 200.614C741.504 196.795 738.982 194.528 733.766 193.523L728.72 192.568C726.504 192.125 725.788 191.341 725.805 190.335C725.788 189.006 727.339 188.188 729.266 188.188C731.464 188.188 732.999 189.364 733.237 191.017L740.891 190.812Z" fill="black"/>
<path d="M173.392 559L174.994 554.381H181.812L183.406 559H186.202L179.92 541.545H176.878L170.597 559H173.392ZM175.761 552.165L178.335 544.716H178.472L181.045 552.165H175.761ZM191.066 551.227C191.066 549.139 192.344 547.946 194.117 547.946C195.847 547.946 196.896 549.08 196.896 550.98V559H199.444V550.673C199.444 547.435 197.663 545.739 194.987 545.739C193.018 545.739 191.731 546.651 191.126 548.04H190.964V545.909H188.518V559H191.066V551.227ZM213.023 559.29C215.188 559.29 216.406 558.19 216.892 557.21H216.994V559H219.483V550.307C219.483 546.497 216.483 545.739 214.403 545.739C212.034 545.739 209.852 546.693 209 549.08L211.395 549.625C211.77 548.696 212.724 547.801 214.438 547.801C216.082 547.801 216.926 548.662 216.926 550.145V550.205C216.926 551.134 215.972 551.116 213.619 551.389C211.139 551.679 208.599 552.327 208.599 555.301C208.599 557.875 210.534 559.29 213.023 559.29ZM213.577 557.244C212.136 557.244 211.097 556.597 211.097 555.335C211.097 553.972 212.307 553.486 213.781 553.29C214.608 553.179 216.568 552.957 216.935 552.591V554.278C216.935 555.83 215.699 557.244 213.577 557.244ZM225.425 551.227C225.425 549.139 226.704 547.946 228.477 547.946C230.207 547.946 231.255 549.08 231.255 550.98V559H233.803V550.673C233.803 547.435 232.022 545.739 229.346 545.739C227.377 545.739 226.09 546.651 225.485 548.04H225.323V545.909H222.877V559H225.425V551.227ZM237.221 559H239.769V545.909H237.221V559ZM238.508 543.889C239.386 543.889 240.119 543.207 240.119 542.372C240.119 541.537 239.386 540.847 238.508 540.847C237.621 540.847 236.897 541.537 236.897 542.372C236.897 543.207 237.621 543.889 238.508 543.889ZM243.197 559H245.746V550.929C245.746 549.165 246.982 547.938 248.43 547.938C249.845 547.938 250.825 548.875 250.825 550.298V559H253.365V550.656C253.365 549.08 254.328 547.938 255.99 547.938C257.337 547.938 258.445 548.688 258.445 550.46V559H260.993V550.222C260.993 547.23 259.322 545.739 256.953 545.739C255.07 545.739 253.655 546.642 253.024 548.04H252.888C252.317 546.608 251.115 545.739 249.368 545.739C247.638 545.739 246.351 546.599 245.805 548.04H245.643V545.909H243.197V559ZM268.218 559.29C270.383 559.29 271.602 558.19 272.087 557.21H272.19V559H274.678V550.307C274.678 546.497 271.678 545.739 269.599 545.739C267.229 545.739 265.048 546.693 264.195 549.08L266.59 549.625C266.965 548.696 267.92 547.801 269.633 547.801C271.278 547.801 272.121 548.662 272.121 550.145V550.205C272.121 551.134 271.167 551.116 268.815 551.389C266.335 551.679 263.795 552.327 263.795 555.301C263.795 557.875 265.729 559.29 268.218 559.29ZM268.772 557.244C267.332 557.244 266.292 556.597 266.292 555.335C266.292 553.972 267.502 553.486 268.977 553.29C269.803 553.179 271.763 552.957 272.13 552.591V554.278C272.13 555.83 270.894 557.244 268.772 557.244ZM280.621 541.545H278.072V559H280.621V541.545ZM290.401 559H292.949V551.006C292.949 549.293 294.27 548.057 296.077 548.057C296.605 548.057 297.202 548.151 297.406 548.21V545.773C297.151 545.739 296.648 545.713 296.324 545.713C294.79 545.713 293.477 546.582 293 547.989H292.864V545.909H290.401V559ZM299.612 559H302.16V545.909H299.612V559ZM300.898 543.889C301.776 543.889 302.509 543.207 302.509 542.372C302.509 541.537 301.776 540.847 300.898 540.847C300.012 540.847 299.288 541.537 299.288 542.372C299.288 543.207 300.012 543.889 300.898 543.889ZM311.077 564.182C314.409 564.182 316.983 562.656 316.983 559.29V545.909H314.486V548.031H314.298C313.847 547.222 312.943 545.739 310.506 545.739C307.344 545.739 305.017 548.236 305.017 552.403C305.017 556.58 307.395 558.804 310.489 558.804C312.892 558.804 313.821 557.449 314.281 556.614H314.443V559.188C314.443 561.241 313.037 562.128 311.102 562.128C308.98 562.128 308.153 561.062 307.702 560.312L305.511 561.216C306.202 562.818 307.949 564.182 311.077 564.182ZM311.051 556.69C308.776 556.69 307.591 554.943 307.591 552.369C307.591 549.855 308.75 547.903 311.051 547.903C313.276 547.903 314.469 549.719 314.469 552.369C314.469 555.071 313.25 556.69 311.051 556.69ZM322.949 551.227C322.949 549.139 324.27 547.946 326.085 547.946C327.841 547.946 328.889 549.062 328.889 550.98V559H331.438V550.673C331.438 547.409 329.648 545.739 326.955 545.739C324.918 545.739 323.69 546.625 323.077 548.04H322.915V541.545H320.401V559H322.949V551.227ZM340.949 545.909H338.264V542.773H335.716V545.909H333.798V547.955H335.716V555.685C335.707 558.062 337.523 559.213 339.534 559.17C340.344 559.162 340.889 559.009 341.188 558.898L340.727 556.793C340.557 556.827 340.241 556.903 339.832 556.903C339.006 556.903 338.264 556.631 338.264 555.156V547.955H340.949V545.909ZM353.366 549.105C352.838 547.068 351.244 545.739 348.415 545.739C345.457 545.739 343.361 547.298 343.361 549.616C343.361 551.474 344.486 552.71 346.94 553.256L349.156 553.741C350.418 554.023 351.006 554.585 351.006 555.403C351.006 556.418 349.923 557.21 348.253 557.21C346.727 557.21 345.747 556.554 345.44 555.267L342.977 555.642C343.403 557.96 345.33 559.264 348.27 559.264C351.432 559.264 353.622 557.585 353.622 555.216C353.622 553.366 352.446 552.224 350.043 551.67L347.963 551.193C346.523 550.852 345.901 550.366 345.909 549.48C345.901 548.474 346.991 547.759 348.44 547.759C350.026 547.759 350.759 548.636 351.057 549.514L353.366 549.105ZM366.585 559.29C368.75 559.29 369.969 558.19 370.455 557.21H370.557V559H373.045V550.307C373.045 546.497 370.045 545.739 367.966 545.739C365.597 545.739 363.415 546.693 362.562 549.08L364.957 549.625C365.332 548.696 366.287 547.801 368 547.801C369.645 547.801 370.489 548.662 370.489 550.145V550.205C370.489 551.134 369.534 551.116 367.182 551.389C364.702 551.679 362.162 552.327 362.162 555.301C362.162 557.875 364.097 559.29 366.585 559.29ZM367.139 557.244C365.699 557.244 364.659 556.597 364.659 555.335C364.659 553.972 365.869 553.486 367.344 553.29C368.17 553.179 370.131 552.957 370.497 552.591V554.278C370.497 555.83 369.261 557.244 367.139 557.244ZM381.954 559.264C385.048 559.264 387.05 557.406 387.332 554.858H384.852C384.528 556.273 383.428 557.108 381.971 557.108C379.815 557.108 378.425 555.31 378.425 552.455C378.425 549.651 379.84 547.886 381.971 547.886C383.59 547.886 384.579 548.909 384.852 550.136H387.332C387.059 547.494 384.903 545.739 381.928 545.739C378.238 545.739 375.852 548.517 375.852 552.514C375.852 556.46 378.153 559.264 381.954 559.264ZM396.168 545.909H393.483V542.773H390.935V545.909H389.017V547.955H390.935V555.685C390.926 558.062 392.741 559.213 394.753 559.17C395.562 559.162 396.108 559.009 396.406 558.898L395.946 556.793C395.776 556.827 395.46 556.903 395.051 556.903C394.224 556.903 393.483 556.631 393.483 555.156V547.955H396.168V545.909ZM398.987 559H401.535V545.909H398.987V559ZM400.273 543.889C401.151 543.889 401.884 543.207 401.884 542.372C401.884 541.537 401.151 540.847 400.273 540.847C399.387 540.847 398.663 541.537 398.663 542.372C398.663 543.207 399.387 543.889 400.273 543.889ZM416.162 545.909H413.426L410.119 555.983H409.983L406.668 545.909H403.932L408.688 559H411.415L416.162 545.909ZM418.557 559H421.105V545.909H418.557V559ZM419.844 543.889C420.722 543.889 421.455 543.207 421.455 542.372C421.455 541.537 420.722 540.847 419.844 540.847C418.957 540.847 418.233 541.537 418.233 542.372C418.233 543.207 418.957 543.889 419.844 543.889ZM434.343 549.105C433.815 547.068 432.221 545.739 429.391 545.739C426.434 545.739 424.337 547.298 424.337 549.616C424.337 551.474 425.462 552.71 427.917 553.256L430.133 553.741C431.394 554.023 431.982 554.585 431.982 555.403C431.982 556.418 430.9 557.21 429.229 557.21C427.704 557.21 426.724 556.554 426.417 555.267L423.954 555.642C424.38 557.96 426.306 559.264 429.246 559.264C432.408 559.264 434.599 557.585 434.599 555.216C434.599 553.366 433.423 552.224 431.019 551.67L428.94 551.193C427.499 550.852 426.877 550.366 426.886 549.48C426.877 548.474 427.968 547.759 429.417 547.759C431.002 547.759 431.735 548.636 432.033 549.514L434.343 549.105ZM443.511 545.909H440.827V542.773H438.278V545.909H436.361V547.955H438.278V555.685C438.27 558.062 440.085 559.213 442.097 559.17C442.906 559.162 443.452 559.009 443.75 558.898L443.29 556.793C443.119 556.827 442.804 556.903 442.395 556.903C441.568 556.903 440.827 556.631 440.827 555.156V547.955H443.511V545.909ZM452.978 540.727H450.702L445.077 561.625H447.353L452.978 540.727ZM460.043 559.256C462.43 559.256 463.367 557.798 463.827 556.963H464.04V559H466.529V541.545H463.981V548.031H463.827C463.367 547.222 462.498 545.739 460.06 545.739C456.898 545.739 454.572 548.236 454.572 552.48C454.572 556.716 456.864 559.256 460.043 559.256ZM460.606 557.082C458.33 557.082 457.146 555.08 457.146 552.455C457.146 549.855 458.305 547.903 460.606 547.903C462.83 547.903 464.023 549.719 464.023 552.455C464.023 555.207 462.805 557.082 460.606 557.082ZM470.166 559H472.714V551.006C472.714 549.293 474.036 548.057 475.842 548.057C476.371 548.057 476.967 548.151 477.172 548.21V545.773C476.916 545.739 476.413 545.713 476.089 545.713C474.555 545.713 473.243 546.582 472.766 547.989H472.629V545.909H470.166V559ZM484.423 559.264C488.113 559.264 490.525 556.562 490.525 552.514C490.525 548.44 488.113 545.739 484.423 545.739C480.732 545.739 478.32 548.44 478.32 552.514C478.32 556.562 480.732 559.264 484.423 559.264ZM484.431 557.125C482.019 557.125 480.894 555.02 480.894 552.506C480.894 550 482.019 547.869 484.431 547.869C486.826 547.869 487.951 550 487.951 552.506C487.951 555.02 486.826 557.125 484.431 557.125ZM495.918 551.227C495.918 549.139 497.196 547.946 498.969 547.946C500.699 547.946 501.747 549.08 501.747 550.98V559H504.295V550.673C504.295 547.435 502.514 545.739 499.838 545.739C497.869 545.739 496.582 546.651 495.977 548.04H495.815V545.909H493.369V559H495.918V551.227ZM513.355 559.264C516.21 559.264 518.23 557.858 518.81 555.727L516.398 555.293C515.938 556.528 514.83 557.159 513.381 557.159C511.199 557.159 509.733 555.744 509.665 553.222H518.972V552.318C518.972 547.588 516.142 545.739 513.176 545.739C509.528 545.739 507.125 548.517 507.125 552.54C507.125 556.605 509.494 559.264 513.355 559.264ZM509.673 551.312C509.776 549.455 511.122 547.844 513.193 547.844C515.17 547.844 516.466 549.31 516.474 551.312H509.673ZM528.151 559H530.699V550.929C530.699 549.165 531.935 547.938 533.384 547.938C534.798 547.938 535.778 548.875 535.778 550.298V559H538.318V550.656C538.318 549.08 539.281 547.938 540.943 547.938C542.29 547.938 543.398 548.688 543.398 550.46V559H545.946V550.222C545.946 547.23 544.276 545.739 541.906 545.739C540.023 545.739 538.608 546.642 537.977 548.04H537.841C537.27 546.608 536.068 545.739 534.321 545.739C532.591 545.739 531.304 546.599 530.759 548.04H530.597V545.909H528.151V559ZM553.171 559.29C555.336 559.29 556.555 558.19 557.04 557.21H557.143V559H559.631V550.307C559.631 546.497 556.631 545.739 554.552 545.739C552.183 545.739 550.001 546.693 549.148 549.08L551.543 549.625C551.918 548.696 552.873 547.801 554.586 547.801C556.231 547.801 557.075 548.662 557.075 550.145V550.205C557.075 551.134 556.12 551.116 553.768 551.389C551.288 551.679 548.748 552.327 548.748 555.301C548.748 557.875 550.683 559.29 553.171 559.29ZM553.725 557.244C552.285 557.244 551.245 556.597 551.245 555.335C551.245 553.972 552.455 553.486 553.93 553.29C554.756 553.179 556.717 552.957 557.083 552.591V554.278C557.083 555.83 555.847 557.244 553.725 557.244ZM563.026 559H565.574V554.355L566.844 553.085L571.293 559H574.42L568.761 551.526L574.062 545.909H571.011L565.795 551.449H565.574V541.545H563.026V559ZM581.488 559.264C584.343 559.264 586.363 557.858 586.942 555.727L584.531 555.293C584.07 556.528 582.962 557.159 581.513 557.159C579.332 557.159 577.866 555.744 577.798 553.222H587.104V552.318C587.104 547.588 584.275 545.739 581.309 545.739C577.661 545.739 575.258 548.517 575.258 552.54C575.258 556.605 577.627 559.264 581.488 559.264ZM577.806 551.312C577.908 549.455 579.255 547.844 581.326 547.844C583.303 547.844 584.599 549.31 584.607 551.312H577.806ZM589.932 559H592.48V551.006C592.48 549.293 593.801 548.057 595.608 548.057C596.136 548.057 596.733 548.151 596.938 548.21V545.773C596.682 545.739 596.179 545.713 595.855 545.713C594.321 545.713 593.009 546.582 592.531 547.989H592.395V545.909H589.932V559ZM611.009 559.264C614.699 559.264 617.111 556.562 617.111 552.514C617.111 548.44 614.699 545.739 611.009 545.739C607.318 545.739 604.906 548.44 604.906 552.514C604.906 556.562 607.318 559.264 611.009 559.264ZM611.017 557.125C608.605 557.125 607.48 555.02 607.48 552.506C607.48 550 608.605 547.869 611.017 547.869C613.412 547.869 614.537 550 614.537 552.506C614.537 555.02 613.412 557.125 611.017 557.125ZM622.504 551.227C622.504 549.139 623.782 547.946 625.555 547.946C627.285 547.946 628.333 549.08 628.333 550.98V559H630.881V550.673C630.881 547.435 629.1 545.739 626.424 545.739C624.455 545.739 623.168 546.651 622.563 548.04H622.401V545.909H619.955V559H622.504V551.227ZM643.199 551.227C643.199 549.139 644.52 547.946 646.335 547.946C648.091 547.946 649.139 549.062 649.139 550.98V559H651.688V550.673C651.688 547.409 649.898 545.739 647.205 545.739C645.168 545.739 643.94 546.625 643.327 548.04H643.165V541.545H640.651V559H643.199V551.227ZM660.602 559.264C664.293 559.264 666.705 556.562 666.705 552.514C666.705 548.44 664.293 545.739 660.602 545.739C656.912 545.739 654.5 548.44 654.5 552.514C654.5 556.562 656.912 559.264 660.602 559.264ZM660.611 557.125C658.199 557.125 657.074 555.02 657.074 552.506C657.074 550 658.199 547.869 660.611 547.869C663.006 547.869 664.131 550 664.131 552.506C664.131 555.02 663.006 557.125 660.611 557.125ZM671.989 559H674.58L677.239 549.548H677.435L680.094 559H682.693L686.537 545.909H683.903L681.355 555.48H681.227L678.67 545.909H676.037L673.463 555.523H673.335L670.77 545.909H668.136L671.989 559ZM705.116 549.105C704.588 547.068 702.994 545.739 700.165 545.739C697.207 545.739 695.111 547.298 695.111 549.616C695.111 551.474 696.236 552.71 698.69 553.256L700.906 553.741C702.168 554.023 702.756 554.585 702.756 555.403C702.756 556.418 701.673 557.21 700.003 557.21C698.477 557.21 697.497 556.554 697.19 555.267L694.727 555.642C695.153 557.96 697.08 559.264 700.02 559.264C703.182 559.264 705.372 557.585 705.372 555.216C705.372 553.366 704.196 552.224 701.793 551.67L699.713 551.193C698.273 550.852 697.651 550.366 697.659 549.48C697.651 548.474 698.741 547.759 700.19 547.759C701.776 547.759 702.509 548.636 702.807 549.514L705.116 549.105ZM716.467 553.571C716.475 555.795 714.822 556.852 713.39 556.852C711.813 556.852 710.722 555.71 710.722 553.929V545.909H708.174V554.236C708.174 557.483 709.955 559.17 712.469 559.17C714.438 559.17 715.776 558.131 716.381 556.733H716.518V559H719.023V545.909H716.467V553.571ZM722.447 563.909H724.996V556.963H725.149C725.609 557.798 726.547 559.256 728.933 559.256C732.104 559.256 734.405 556.716 734.405 552.48C734.405 548.236 732.07 545.739 728.908 545.739C726.479 545.739 725.601 547.222 725.149 548.031H724.936V545.909H722.447V563.909ZM724.945 552.455C724.945 549.719 726.138 547.903 728.362 547.903C730.672 547.903 731.831 549.855 731.831 552.455C731.831 555.08 730.638 557.082 728.362 557.082C726.172 557.082 724.945 555.207 724.945 552.455ZM742.902 559.264C745.757 559.264 747.777 557.858 748.357 555.727L745.945 555.293C745.484 556.528 744.376 557.159 742.928 557.159C740.746 557.159 739.28 555.744 739.212 553.222H748.518V552.318C748.518 547.588 745.689 545.739 742.723 545.739C739.075 545.739 736.672 548.517 736.672 552.54C736.672 556.605 739.041 559.264 742.902 559.264ZM739.22 551.312C739.322 549.455 740.669 547.844 742.74 547.844C744.717 547.844 746.013 549.31 746.021 551.312H739.22ZM751.346 559H753.894V551.006C753.894 549.293 755.215 548.057 757.022 548.057C757.55 548.057 758.147 548.151 758.352 548.21V545.773C758.096 545.739 757.593 545.713 757.269 545.713C755.735 545.713 754.423 546.582 753.945 547.989H753.809V545.909H751.346V559ZM760.557 563.909H763.105V556.963H763.259C763.719 557.798 764.656 559.256 767.043 559.256C770.213 559.256 772.514 556.716 772.514 552.48C772.514 548.236 770.179 545.739 767.017 545.739C764.588 545.739 763.71 547.222 763.259 548.031H763.045V545.909H760.557V563.909ZM763.054 552.455C763.054 549.719 764.247 547.903 766.472 547.903C768.781 547.903 769.94 549.855 769.94 552.455C769.94 555.08 768.747 557.082 766.472 557.082C764.281 557.082 763.054 555.207 763.054 552.455ZM780.884 559.264C784.574 559.264 786.986 556.562 786.986 552.514C786.986 548.44 784.574 545.739 780.884 545.739C777.193 545.739 774.781 548.44 774.781 552.514C774.781 556.562 777.193 559.264 780.884 559.264ZM780.892 557.125C778.48 557.125 777.355 555.02 777.355 552.506C777.355 550 778.48 547.869 780.892 547.869C783.287 547.869 784.412 550 784.412 552.506C784.412 555.02 783.287 557.125 780.892 557.125ZM792.27 559H794.861L797.52 549.548H797.716L800.375 559H802.974L806.818 545.909H804.185L801.636 555.48H801.509L798.952 545.909H796.318L793.744 555.523H793.616L791.051 545.909H788.418L792.27 559ZM814.48 559.264C817.335 559.264 819.355 557.858 819.935 555.727L817.523 555.293C817.062 556.528 815.955 557.159 814.506 557.159C812.324 557.159 810.858 555.744 810.79 553.222H820.097V552.318C820.097 547.588 817.267 545.739 814.301 545.739C810.653 545.739 808.25 548.517 808.25 552.54C808.25 556.605 810.619 559.264 814.48 559.264ZM810.798 551.312C810.901 549.455 812.247 547.844 814.318 547.844C816.295 547.844 817.591 549.31 817.599 551.312H810.798ZM822.924 559H825.472V551.006C825.472 549.293 826.793 548.057 828.6 548.057C829.129 548.057 829.725 548.151 829.93 548.21V545.773C829.674 545.739 829.171 545.713 828.847 545.713C827.313 545.713 826.001 546.582 825.523 547.989H825.387V545.909H822.924V559ZM841.945 549.105C841.416 547.068 839.822 545.739 836.993 545.739C834.036 545.739 831.939 547.298 831.939 549.616C831.939 551.474 833.064 552.71 835.518 553.256L837.734 553.741C838.996 554.023 839.584 554.585 839.584 555.403C839.584 556.418 838.501 557.21 836.831 557.21C835.305 557.21 834.325 556.554 834.018 555.267L831.555 555.642C831.982 557.96 833.908 559.264 836.848 559.264C840.01 559.264 842.2 557.585 842.2 555.216C842.2 553.366 841.024 552.224 838.621 551.67L836.541 551.193C835.101 550.852 834.479 550.366 834.487 549.48C834.479 548.474 835.57 547.759 837.018 547.759C838.604 547.759 839.337 548.636 839.635 549.514L841.945 549.105ZM851.354 559H853.902V545.909H851.354V559ZM852.641 543.889C853.518 543.889 854.251 543.207 854.251 542.372C854.251 541.537 853.518 540.847 852.641 540.847C851.754 540.847 851.03 541.537 851.03 542.372C851.03 543.207 851.754 543.889 852.641 543.889ZM859.879 551.227C859.879 549.139 861.157 547.946 862.93 547.946C864.66 547.946 865.708 549.08 865.708 550.98V559H868.256V550.673C868.256 547.435 866.475 545.739 863.799 545.739C861.83 545.739 860.543 546.651 859.938 548.04H859.776V545.909H857.33V559H859.879V551.227ZM881.484 549.105C880.955 547.068 879.362 545.739 876.532 545.739C873.575 545.739 871.478 547.298 871.478 549.616C871.478 551.474 872.603 552.71 875.058 553.256L877.273 553.741C878.535 554.023 879.123 554.585 879.123 555.403C879.123 556.418 878.04 557.21 876.37 557.21C874.844 557.21 873.864 556.554 873.558 555.267L871.094 555.642C871.521 557.96 873.447 559.264 876.387 559.264C879.549 559.264 881.739 557.585 881.739 555.216C881.739 553.366 880.563 552.224 878.16 551.67L876.08 551.193C874.64 550.852 874.018 550.366 874.026 549.48C874.018 548.474 875.109 547.759 876.558 547.759C878.143 547.759 878.876 548.636 879.174 549.514L881.484 549.105ZM884.541 563.909H887.089V556.963H887.243C887.703 557.798 888.641 559.256 891.027 559.256C894.197 559.256 896.499 556.716 896.499 552.48C896.499 548.236 894.163 545.739 891.001 545.739C888.572 545.739 887.695 547.222 887.243 548.031H887.03V545.909H884.541V563.909ZM887.038 552.455C887.038 549.719 888.232 547.903 890.456 547.903C892.766 547.903 893.925 549.855 893.925 552.455C893.925 555.08 892.732 557.082 890.456 557.082C888.266 557.082 887.038 555.207 887.038 552.455ZM899.354 559H901.902V545.909H899.354V559ZM900.641 543.889C901.518 543.889 902.251 543.207 902.251 542.372C902.251 541.537 901.518 540.847 900.641 540.847C899.754 540.847 899.03 541.537 899.03 542.372C899.03 543.207 899.754 543.889 900.641 543.889ZM905.33 559H907.879V551.006C907.879 549.293 909.2 548.057 911.006 548.057C911.535 548.057 912.131 548.151 912.336 548.21V545.773C912.08 545.739 911.577 545.713 911.254 545.713C909.719 545.713 908.407 546.582 907.93 547.989H907.793V545.909H905.33V559ZM919.714 559.264C922.57 559.264 924.589 557.858 925.169 555.727L922.757 555.293C922.297 556.528 921.189 557.159 919.74 557.159C917.558 557.159 916.092 555.744 916.024 553.222H925.331V552.318C925.331 547.588 922.501 545.739 919.536 545.739C915.888 545.739 913.484 548.517 913.484 552.54C913.484 556.605 915.854 559.264 919.714 559.264ZM916.033 551.312C916.135 549.455 917.482 547.844 919.553 547.844C921.53 547.844 922.825 549.31 922.834 551.312H916.033ZM937.058 551.227C937.058 549.139 938.337 547.946 940.109 547.946C941.839 547.946 942.888 549.08 942.888 550.98V559H945.436V550.673C945.436 547.435 943.655 545.739 940.979 545.739C939.01 545.739 937.723 546.651 937.118 548.04H936.956V545.909H934.51V559H937.058V551.227ZM954.496 559.264C957.351 559.264 959.371 557.858 959.95 555.727L957.538 555.293C957.078 556.528 955.97 557.159 954.521 557.159C952.339 557.159 950.874 555.744 950.805 553.222H960.112V552.318C960.112 547.588 957.283 545.739 954.317 545.739C950.669 545.739 948.266 548.517 948.266 552.54C948.266 556.605 950.635 559.264 954.496 559.264ZM950.814 551.312C950.916 549.455 952.263 547.844 954.334 547.844C956.311 547.844 957.607 549.31 957.615 551.312H950.814ZM965.754 559H968.345L971.004 549.548H971.2L973.859 559H976.459L980.303 545.909H977.669L975.121 555.48H974.993L972.436 545.909H969.803L967.229 555.523H967.101L964.536 545.909H961.902L965.754 559ZM989.072 563.909H991.621V556.963H991.774C992.234 557.798 993.172 559.256 995.558 559.256C998.729 559.256 1001.03 556.716 1001.03 552.48C1001.03 548.236 998.695 545.739 995.533 545.739C993.104 545.739 992.226 547.222 991.774 548.031H991.561V545.909H989.072V563.909ZM991.57 552.455C991.57 549.719 992.763 547.903 994.987 547.903C997.297 547.903 998.456 549.855 998.456 552.455C998.456 555.08 997.263 557.082 994.987 557.082C992.797 557.082 991.57 555.207 991.57 552.455ZM1009.4 559.264C1013.09 559.264 1015.5 556.562 1015.5 552.514C1015.5 548.44 1013.09 545.739 1009.4 545.739C1005.71 545.739 1003.3 548.44 1003.3 552.514C1003.3 556.562 1005.71 559.264 1009.4 559.264ZM1009.41 557.125C1007 557.125 1005.87 555.02 1005.87 552.506C1005.87 550 1007 547.869 1009.41 547.869C1011.8 547.869 1012.93 550 1012.93 552.506C1012.93 555.02 1011.8 557.125 1009.41 557.125ZM1028.16 549.105C1027.63 547.068 1026.03 545.739 1023.2 545.739C1020.25 545.739 1018.15 547.298 1018.15 549.616C1018.15 551.474 1019.27 552.71 1021.73 553.256L1023.95 553.741C1025.21 554.023 1025.79 554.585 1025.79 555.403C1025.79 556.418 1024.71 557.21 1023.04 557.21C1021.52 557.21 1020.54 556.554 1020.23 555.267L1017.77 555.642C1018.19 557.96 1020.12 559.264 1023.06 559.264C1026.22 559.264 1028.41 557.585 1028.41 555.216C1028.41 553.366 1027.24 552.224 1024.83 551.67L1022.75 551.193C1021.31 550.852 1020.69 550.366 1020.7 549.48C1020.69 548.474 1021.78 547.759 1023.23 547.759C1024.81 547.759 1025.55 548.636 1025.85 549.514L1028.16 549.105ZM1041.02 549.105C1040.49 547.068 1038.9 545.739 1036.07 545.739C1033.11 545.739 1031.02 547.298 1031.02 549.616C1031.02 551.474 1032.14 552.71 1034.6 553.256L1036.81 553.741C1038.07 554.023 1038.66 554.585 1038.66 555.403C1038.66 556.418 1037.58 557.21 1035.91 557.21C1034.38 557.21 1033.4 556.554 1033.1 555.267L1030.63 555.642C1031.06 557.96 1032.99 559.264 1035.93 559.264C1039.09 559.264 1041.28 557.585 1041.28 555.216C1041.28 553.366 1040.1 552.224 1037.7 551.67L1035.62 551.193C1034.18 550.852 1033.56 550.366 1033.57 549.48C1033.56 548.474 1034.65 547.759 1036.1 547.759C1037.68 547.759 1038.41 548.636 1038.71 549.514L1041.02 549.105ZM1044.08 559H1046.63V545.909H1044.08V559ZM1045.37 543.889C1046.25 543.889 1046.98 543.207 1046.98 542.372C1046.98 541.537 1046.25 540.847 1045.37 540.847C1044.48 540.847 1043.76 541.537 1043.76 542.372C1043.76 543.207 1044.48 543.889 1045.37 543.889ZM1050.26 559H1052.75V556.963H1052.96C1053.42 557.798 1054.36 559.256 1056.75 559.256C1059.92 559.256 1062.22 556.716 1062.22 552.48C1062.22 548.236 1059.88 545.739 1056.72 545.739C1054.29 545.739 1053.41 547.222 1052.96 548.031H1052.81V541.545H1050.26V559ZM1052.76 552.455C1052.76 549.719 1053.95 547.903 1056.18 547.903C1058.49 547.903 1059.64 549.855 1059.64 552.455C1059.64 555.08 1058.45 557.082 1056.18 557.082C1053.99 557.082 1052.76 555.207 1052.76 552.455ZM1065.08 559H1067.63V545.909H1065.08V559ZM1066.37 543.889C1067.25 543.889 1067.98 543.207 1067.98 542.372C1067.98 541.537 1067.25 540.847 1066.37 540.847C1065.48 540.847 1064.76 541.537 1064.76 542.372C1064.76 543.207 1065.48 543.889 1066.37 543.889ZM1073.61 541.545H1071.06V559H1073.61V541.545ZM1077.03 559H1079.58V545.909H1077.03V559ZM1078.32 543.889C1079.2 543.889 1079.93 543.207 1079.93 542.372C1079.93 541.537 1079.2 540.847 1078.32 540.847C1077.43 540.847 1076.71 541.537 1076.71 542.372C1076.71 543.207 1077.43 543.889 1078.32 543.889ZM1089.12 545.909H1086.44V542.773H1083.89V545.909H1081.97V547.955H1083.89V555.685C1083.88 558.062 1085.69 559.213 1087.71 559.17C1088.52 559.162 1089.06 559.009 1089.36 558.898L1088.9 556.793C1088.73 556.827 1088.41 556.903 1088 556.903C1087.18 556.903 1086.44 556.631 1086.44 555.156V547.955H1089.12V545.909ZM1091.94 559H1094.49V545.909H1091.94V559ZM1093.23 543.889C1094.1 543.889 1094.84 543.207 1094.84 542.372C1094.84 541.537 1094.1 540.847 1093.23 540.847C1092.34 540.847 1091.62 541.537 1091.62 542.372C1091.62 543.207 1092.34 543.889 1093.23 543.889ZM1103.56 559.264C1106.41 559.264 1108.43 557.858 1109.01 555.727L1106.6 555.293C1106.14 556.528 1105.03 557.159 1103.58 557.159C1101.4 557.159 1099.94 555.744 1099.87 553.222H1109.17V552.318C1109.17 547.588 1106.35 545.739 1103.38 545.739C1099.73 545.739 1097.33 548.517 1097.33 552.54C1097.33 556.605 1099.7 559.264 1103.56 559.264ZM1099.88 551.312C1099.98 549.455 1101.33 547.844 1103.4 547.844C1105.37 547.844 1106.67 549.31 1106.68 551.312H1099.88ZM1121.81 549.105C1121.28 547.068 1119.69 545.739 1116.86 545.739C1113.9 545.739 1111.81 547.298 1111.81 549.616C1111.81 551.474 1112.93 552.71 1115.39 553.256L1117.6 553.741C1118.86 554.023 1119.45 554.585 1119.45 555.403C1119.45 556.418 1118.37 557.21 1116.7 557.21C1115.17 557.21 1114.19 556.554 1113.89 555.267L1111.42 555.642C1111.85 557.96 1113.77 559.264 1116.72 559.264C1119.88 559.264 1122.07 557.585 1122.07 555.216C1122.07 553.366 1120.89 552.224 1118.49 551.67L1116.41 551.193C1114.97 550.852 1114.35 550.366 1114.35 549.48C1114.35 548.474 1115.44 547.759 1116.89 547.759C1118.47 547.759 1119.2 548.636 1119.5 549.514L1121.81 549.105Z" fill="black"/>
</svg>
