<svg width="1350" height="670" viewBox="0 0 1350 670" fill="none" xmlns="http://www.w3.org/2000/svg">
<rect width="1350" height="670" fill="#FDF4FA"/>
<path d="M129.718 179.727V211H136.131V190.569H136.391L144.484 210.847H148.851L156.944 190.645H157.204V211H163.617V179.727H155.463L146.851 200.739H146.484L137.872 179.727H129.718ZM179.54 211.458C186.656 211.458 191.084 206.587 191.084 199.364C191.084 192.096 186.656 187.24 179.54 187.24C172.424 187.24 167.996 192.096 167.996 199.364C167.996 206.587 172.424 211.458 179.54 211.458ZM179.57 206.419C176.287 206.419 174.608 203.411 174.608 199.319C174.608 195.226 176.287 192.203 179.57 192.203C182.792 192.203 184.472 195.226 184.472 199.319C184.472 203.411 182.792 206.419 179.57 206.419ZM201.819 197.44C201.834 194.417 203.636 192.646 206.262 192.646C208.873 192.646 210.446 194.356 210.431 197.227V211H216.936V196.066C216.936 190.599 213.729 187.24 208.843 187.24C205.361 187.24 202.842 188.95 201.788 191.684H201.513V187.545H195.314V211H201.819V197.44ZM234.538 187.545H230.125V181.926H223.62V187.545H220.414V192.432H223.62V204.648C223.59 209.244 226.72 211.519 231.438 211.321C233.118 211.26 234.309 210.924 234.966 210.71L233.943 205.869C233.622 205.93 232.935 206.083 232.324 206.083C231.026 206.083 230.125 205.594 230.125 203.793V192.432H234.538V187.545ZM245.784 197.44C245.8 194.417 247.647 192.646 250.304 192.646C252.946 192.646 254.504 194.341 254.488 197.227V211H260.993V196.066C261.009 190.569 257.771 187.24 252.885 187.24C249.327 187.24 246.945 188.92 245.876 191.684H245.601V179.727H239.279V211H245.784V197.44ZM272.617 179.727H266.112V211H272.617V179.727ZM281.844 219.795C286.685 219.795 289.25 217.322 290.579 213.535L299.695 187.576L292.808 187.545L287.906 204.77H287.662L282.806 187.545H275.965L284.379 211.672L283.997 212.664C283.142 214.863 281.508 214.97 279.218 214.268L277.752 219.124C278.683 219.521 280.195 219.795 281.844 219.795ZM321.619 211.382C325.405 211.382 327.375 209.198 328.276 207.244H328.551V211H334.964V179.727H328.475V191.485H328.276C327.406 189.576 325.528 187.24 321.603 187.24C316.457 187.24 312.105 191.241 312.105 199.303C312.105 207.152 316.274 211.382 321.619 211.382ZM323.68 206.205C320.489 206.205 318.748 203.365 318.748 199.273C318.748 195.211 320.458 192.417 323.68 192.417C326.841 192.417 328.612 195.089 328.612 199.273C328.612 203.457 326.81 206.205 323.68 206.205ZM355.354 201.013C355.369 204.159 353.216 205.808 350.879 205.808C348.421 205.808 346.833 204.083 346.818 201.319V187.545H340.313V202.479C340.328 207.961 343.535 211.305 348.253 211.305C351.78 211.305 354.315 209.488 355.369 206.74H355.613V211H361.858V187.545H355.354V201.013ZM377.751 211.458C383.553 211.458 387.462 208.633 388.378 204.281L382.362 203.884C381.706 205.671 380.026 206.602 377.858 206.602C374.605 206.602 372.544 204.449 372.544 200.952V200.937H388.516V199.151C388.516 191.18 383.691 187.24 377.491 187.24C370.589 187.24 366.115 192.142 366.115 199.38C366.115 206.816 370.528 211.458 377.751 211.458ZM372.544 196.906C372.681 194.234 374.712 192.096 377.598 192.096C380.423 192.096 382.377 194.112 382.393 196.906H372.544ZM138.239 271.382C142.026 271.382 143.995 269.198 144.896 267.244H145.171V271H151.585V239.727H145.095V251.485H144.896C144.026 249.576 142.148 247.24 138.223 247.24C133.077 247.24 128.725 251.241 128.725 259.303C128.725 267.152 132.894 271.382 138.239 271.382ZM140.3 266.205C137.109 266.205 135.368 263.365 135.368 259.273C135.368 255.211 137.078 252.417 140.3 252.417C143.461 252.417 145.232 255.089 145.232 259.273C145.232 263.457 143.43 266.205 140.3 266.205ZM163.621 271.443C167.087 271.443 169.332 269.931 170.477 267.748H170.66V271H176.829V255.18C176.829 249.592 172.096 247.24 166.873 247.24C161.254 247.24 157.559 249.928 156.658 254.203L162.674 254.692C163.117 253.134 164.507 251.989 166.843 251.989C169.057 251.989 170.324 253.104 170.324 255.028V255.119C170.324 256.631 168.721 256.83 164.644 257.227C160.002 257.654 155.833 259.212 155.833 264.449C155.833 269.091 159.147 271.443 163.621 271.443ZM165.484 266.953C163.484 266.953 162.048 266.022 162.048 264.235C162.048 262.403 163.56 261.502 165.85 261.181C167.271 260.983 169.592 260.647 170.37 260.128V262.617C170.37 265.075 168.339 266.953 165.484 266.953ZM194.352 247.545H189.939V241.926H183.434V247.545H180.227V252.432H183.434V264.648C183.403 269.244 186.533 271.519 191.252 271.321C192.932 271.26 194.123 270.924 194.779 270.71L193.756 265.869C193.435 265.93 192.748 266.083 192.138 266.083C190.84 266.083 189.939 265.594 189.939 263.793V252.432H194.352V247.545ZM209.026 271.458C214.829 271.458 218.738 268.633 219.654 264.281L213.638 263.884C212.981 265.671 211.301 266.602 209.133 266.602C205.88 266.602 203.819 264.449 203.819 260.952V260.937H219.791V259.151C219.791 251.18 214.966 247.24 208.766 247.24C201.864 247.24 197.39 252.142 197.39 259.38C197.39 266.816 201.803 271.458 209.026 271.458ZM203.819 256.906C203.956 254.234 205.987 252.096 208.873 252.096C211.698 252.096 213.653 254.112 213.668 256.906H203.819ZM243.551 254.234C242.971 249.912 239.489 247.24 233.565 247.24C227.564 247.24 223.609 250.019 223.624 254.539C223.609 258.051 225.823 260.326 230.404 261.243L234.466 262.052C236.512 262.464 237.443 263.212 237.474 264.388C237.443 265.778 235.932 266.77 233.656 266.77C231.335 266.77 229.793 265.778 229.396 263.869L222.998 264.205C223.609 268.694 227.426 271.458 233.641 271.458C239.718 271.458 244.07 268.358 244.086 263.732C244.07 260.342 241.856 258.311 237.306 257.379L233.061 256.524C230.877 256.051 230.068 255.303 230.083 254.173C230.068 252.768 231.656 251.852 233.672 251.852C235.932 251.852 237.275 253.088 237.596 254.6L243.551 254.234ZM258.134 271H264.639V256.921C264.639 254.325 266.288 252.6 268.456 252.6C270.594 252.6 272.03 254.066 272.03 256.371V271H278.336V256.677C278.336 254.249 279.726 252.6 282.092 252.6C284.169 252.6 285.727 253.898 285.727 256.509V271H292.216V255.226C292.216 250.141 289.193 247.24 284.826 247.24C281.39 247.24 278.718 248.996 277.756 251.684H277.511C276.763 248.966 274.366 247.24 271.144 247.24C267.983 247.24 265.586 248.92 264.608 251.684H264.334V247.545H258.134V271ZM297.355 271H303.86V247.545H297.355V271ZM300.622 244.522C302.562 244.522 304.15 243.041 304.15 241.224C304.15 239.422 302.562 237.941 300.622 237.941C298.698 237.941 297.11 239.422 297.11 241.224C297.11 243.041 298.698 244.522 300.622 244.522ZM328.585 254.234C328.005 249.912 324.524 247.24 318.599 247.24C312.598 247.24 308.643 250.019 308.658 254.539C308.643 258.051 310.857 260.326 315.438 261.243L319.5 262.052C321.546 262.464 322.477 263.212 322.508 264.388C322.477 265.778 320.966 266.77 318.691 266.77C316.369 266.77 314.827 265.778 314.43 263.869L308.032 264.205C308.643 268.694 312.46 271.458 318.675 271.458C324.753 271.458 329.105 268.358 329.12 263.732C329.105 260.342 326.89 258.311 322.34 257.379L318.095 256.524C315.911 256.051 315.102 255.303 315.117 254.173C315.102 252.768 316.69 251.852 318.706 251.852C320.966 251.852 322.309 253.088 322.63 254.6L328.585 254.234ZM339.904 271.443C343.37 271.443 345.615 269.931 346.76 267.748H346.944V271H353.113V255.18C353.113 249.592 348.379 247.24 343.157 247.24C337.537 247.24 333.842 249.928 332.941 254.203L338.957 254.692C339.4 253.134 340.79 251.989 343.126 251.989C345.34 251.989 346.608 253.104 346.608 255.028V255.119C346.608 256.631 345.004 256.83 340.927 257.227C336.285 257.654 332.117 259.212 332.117 264.449C332.117 269.091 335.43 271.443 339.904 271.443ZM341.767 266.953C339.767 266.953 338.331 266.022 338.331 264.235C338.331 262.403 339.843 261.502 342.134 261.181C343.554 260.983 345.875 260.647 346.653 260.128V262.617C346.653 265.075 344.623 266.953 341.767 266.953ZM364.664 239.727H358.159V271H364.664V239.727ZM369.875 271H376.38V247.545H369.875V271ZM373.143 244.522C375.082 244.522 376.67 243.041 376.67 241.224C376.67 239.422 375.082 237.941 373.143 237.941C371.219 237.941 369.631 239.422 369.631 241.224C369.631 243.041 371.219 244.522 373.143 244.522ZM392.158 280.284C398.861 280.284 403.625 277.23 403.625 271.229V247.545H397.166V251.485H396.922C396.052 249.576 394.143 247.24 390.218 247.24C385.073 247.24 380.721 251.241 380.721 259.227C380.721 267.03 384.95 270.664 390.234 270.664C393.975 270.664 396.067 268.786 396.922 266.847H397.197V271.137C397.197 274.359 395.135 275.612 392.31 275.612C389.44 275.612 387.989 274.359 387.455 272.939L381.438 273.749C382.217 277.444 385.836 280.284 392.158 280.284ZM392.295 265.778C389.104 265.778 387.363 263.243 387.363 259.196C387.363 255.211 389.073 252.417 392.295 252.417C395.456 252.417 397.227 255.089 397.227 259.196C397.227 263.335 395.426 265.778 392.295 265.778ZM415.307 257.44C415.322 254.417 417.124 252.646 419.75 252.646C422.362 252.646 423.934 254.356 423.919 257.227V271H430.424V256.066C430.424 250.599 427.217 247.24 422.331 247.24C418.85 247.24 416.33 248.95 415.276 251.684H415.002V247.545H408.802V271H415.307V257.44ZM134.223 331H141.094L145.125 316.249H145.415L149.447 331H156.333L162.701 307.545H156.135L152.562 323.212H152.363L148.515 307.545H142.056L138.269 323.304H138.055L134.421 307.545H127.84L134.223 331ZM166.171 331H172.676V307.545H166.171V331ZM169.439 304.522C171.378 304.522 172.966 303.041 172.966 301.224C172.966 299.422 171.378 297.941 169.439 297.941C167.515 297.941 165.927 299.422 165.927 301.224C165.927 303.041 167.515 304.522 169.439 304.522ZM190.362 307.545H185.949V301.926H179.444V307.545H176.238V312.432H179.444V324.648C179.414 329.244 182.544 331.519 187.263 331.321C188.942 331.26 190.133 330.924 190.79 330.71L189.767 325.869C189.446 325.93 188.759 326.083 188.148 326.083C186.85 326.083 185.949 325.594 185.949 323.793V312.432H190.362V307.545ZM201.609 317.44C201.624 314.417 203.472 312.646 206.129 312.646C208.77 312.646 210.328 314.341 210.312 317.227V331H216.817V316.066C216.833 310.569 213.596 307.24 208.709 307.24C205.151 307.24 202.769 308.92 201.7 311.684H201.425V299.727H195.104V331H201.609V317.44ZM244.364 307.545H239.951V301.926H233.446V307.545H230.24V312.432H233.446V324.648C233.416 329.244 236.546 331.519 241.265 331.321C242.944 331.26 244.135 330.924 244.792 330.71L243.769 325.869C243.448 325.93 242.761 326.083 242.15 326.083C240.852 326.083 239.951 325.594 239.951 323.793V312.432H244.364V307.545ZM255.611 317.44C255.626 314.417 257.474 312.646 260.131 312.646C262.772 312.646 264.33 314.341 264.314 317.227V331H270.819V316.066C270.835 310.569 267.597 307.24 262.711 307.24C259.153 307.24 256.771 308.92 255.702 311.684H255.427V299.727H249.106V331H255.611V317.44ZM286.628 331.458C292.43 331.458 296.339 328.633 297.255 324.281L291.239 323.884C290.582 325.671 288.903 326.602 286.734 326.602C283.482 326.602 281.421 324.449 281.421 320.952V320.937H297.393V319.151C297.393 311.18 292.568 307.24 286.368 307.24C279.466 307.24 274.992 312.142 274.992 319.38C274.992 326.816 279.405 331.458 286.628 331.458ZM281.421 316.906C281.558 314.234 283.589 312.096 286.475 312.096C289.3 312.096 291.254 314.112 291.27 316.906H281.421ZM311.59 331H318.095V307.545H311.59V331ZM314.858 304.522C316.797 304.522 318.385 303.041 318.385 301.224C318.385 299.422 316.797 297.941 314.858 297.941C312.934 297.941 311.346 299.422 311.346 301.224C311.346 303.041 312.934 304.522 314.858 304.522ZM323.306 331H329.811V317.73C329.811 314.844 331.918 312.859 334.789 312.859C335.69 312.859 336.927 313.012 337.537 313.211V307.439C336.957 307.301 336.148 307.21 335.491 307.21C332.865 307.21 330.712 308.737 329.857 311.638H329.612V307.545H323.306V331ZM340.901 331H347.406V317.73C347.406 314.844 349.513 312.859 352.384 312.859C353.284 312.859 354.521 313.012 355.132 313.211V307.439C354.552 307.301 353.743 307.21 353.086 307.21C350.46 307.21 348.306 308.737 347.451 311.638H347.207V307.545H340.901V331ZM368.092 331.458C373.895 331.458 377.804 328.633 378.72 324.281L372.704 323.884C372.047 325.671 370.368 326.602 368.199 326.602C364.947 326.602 362.885 324.449 362.885 320.952V320.937H378.858V319.151C378.858 311.18 374.032 307.24 367.833 307.24C360.931 307.24 356.457 312.142 356.457 319.38C356.457 326.816 360.87 331.458 368.092 331.458ZM362.885 316.906C363.023 314.234 365.054 312.096 367.94 312.096C370.765 312.096 372.719 314.112 372.734 316.906H362.885ZM393.669 340.284C400.373 340.284 405.137 337.23 405.137 331.229V307.545H398.678V311.485H398.434C397.563 309.576 395.655 307.24 391.73 307.24C386.584 307.24 382.232 311.241 382.232 319.227C382.232 327.03 386.462 330.664 391.745 330.664C395.487 330.664 397.579 328.786 398.434 326.847H398.709V331.137C398.709 334.359 396.647 335.612 393.822 335.612C390.951 335.612 389.501 334.359 388.966 332.939L382.95 333.749C383.729 337.444 387.348 340.284 393.669 340.284ZM393.807 325.778C390.616 325.778 388.875 323.243 388.875 319.196C388.875 315.211 390.585 312.417 393.807 312.417C396.968 312.417 398.739 315.089 398.739 319.196C398.739 323.335 396.937 325.778 393.807 325.778ZM425.354 321.013C425.37 324.159 423.217 325.808 420.88 325.808C418.422 325.808 416.834 324.083 416.819 321.319V307.545H410.314V322.479C410.329 327.961 413.536 331.305 418.254 331.305C421.781 331.305 424.316 329.488 425.37 326.74H425.614V331H431.859V307.545H425.354V321.013ZM443.568 299.727H437.063V331H443.568V299.727ZM455.467 331.443C458.933 331.443 461.178 329.931 462.323 327.748H462.506V331H468.675V315.18C468.675 309.592 463.941 307.24 458.719 307.24C453.1 307.24 449.405 309.928 448.504 314.203L454.52 314.692C454.963 313.134 456.352 311.989 458.689 311.989C460.903 311.989 462.17 313.104 462.17 315.028V315.119C462.17 316.631 460.567 316.83 456.49 317.227C451.848 317.654 447.679 319.212 447.679 324.449C447.679 329.091 450.993 331.443 455.467 331.443ZM457.33 326.953C455.329 326.953 453.894 326.022 453.894 324.235C453.894 322.403 455.406 321.502 457.696 321.181C459.116 320.983 461.437 320.647 462.216 320.128V322.617C462.216 325.075 460.185 326.953 457.33 326.953ZM473.722 331H480.227V317.73C480.227 314.844 482.334 312.859 485.205 312.859C486.106 312.859 487.343 313.012 487.953 313.211V307.439C487.373 307.301 486.564 307.21 485.907 307.21C483.281 307.21 481.128 308.737 480.273 311.638H480.028V307.545H473.722V331ZM129.596 391H136.101V367.545H129.596V391ZM132.864 364.522C134.803 364.522 136.391 363.041 136.391 361.224C136.391 359.422 134.803 357.941 132.864 357.941C130.94 357.941 129.352 359.422 129.352 361.224C129.352 363.041 130.94 364.522 132.864 364.522ZM147.817 377.44C147.832 374.417 149.634 372.646 152.26 372.646C154.871 372.646 156.444 374.356 156.429 377.227V391H162.934V376.066C162.934 370.599 159.727 367.24 154.841 367.24C151.359 367.24 148.84 368.95 147.786 371.684H147.511V367.545H141.312V391H147.817V377.44ZM178.658 391.458C184.903 391.458 188.828 387.793 189.133 382.403H182.995C182.613 384.907 180.964 386.312 178.734 386.312C175.696 386.312 173.726 383.762 173.726 379.273C173.726 374.844 175.711 372.31 178.734 372.31C181.116 372.31 182.643 373.882 182.995 376.219H189.133C188.858 370.798 184.751 367.24 178.627 367.24C171.512 367.24 167.114 372.172 167.114 379.364C167.114 386.495 171.435 391.458 178.658 391.458ZM203.895 391.458C211.011 391.458 215.439 386.587 215.439 379.364C215.439 372.096 211.011 367.24 203.895 367.24C196.78 367.24 192.351 372.096 192.351 379.364C192.351 386.587 196.78 391.458 203.895 391.458ZM203.926 386.419C200.643 386.419 198.963 383.411 198.963 379.319C198.963 375.226 200.643 372.203 203.926 372.203C207.148 372.203 208.828 375.226 208.828 379.319C208.828 383.411 207.148 386.419 203.926 386.419ZM219.669 391H226.174V376.921C226.174 374.325 227.823 372.6 229.992 372.6C232.129 372.6 233.565 374.066 233.565 376.371V391H239.871V376.677C239.871 374.249 241.261 372.6 243.628 372.6C245.704 372.6 247.262 373.898 247.262 376.509V391H253.752V375.226C253.752 370.141 250.728 367.24 246.361 367.24C242.925 367.24 240.253 368.996 239.291 371.684H239.047C238.298 368.966 235.901 367.24 232.679 367.24C229.518 367.24 227.121 368.92 226.144 371.684H225.869V367.545H219.669V391ZM269.579 391.458C275.381 391.458 279.29 388.633 280.207 384.281L274.19 383.884C273.534 385.671 271.854 386.602 269.686 386.602C266.433 386.602 264.372 384.449 264.372 380.952V380.937H280.344V379.151C280.344 371.18 275.519 367.24 269.319 367.24C262.417 367.24 257.943 372.142 257.943 379.38C257.943 386.816 262.356 391.458 269.579 391.458ZM264.372 376.906C264.509 374.234 266.54 372.096 269.426 372.096C272.251 372.096 274.206 374.112 274.221 376.906H264.372ZM294.541 399.795H301.046V387.244H301.245C302.146 389.198 304.115 391.382 307.902 391.382C313.247 391.382 317.415 387.152 317.415 379.303C317.415 371.241 313.064 367.24 307.918 367.24C303.993 367.24 302.115 369.576 301.245 371.485H300.955V367.545H294.541V399.795ZM300.909 379.273C300.909 375.089 302.68 372.417 305.841 372.417C309.063 372.417 310.773 375.211 310.773 379.273C310.773 383.365 309.032 386.205 305.841 386.205C302.711 386.205 300.909 383.457 300.909 379.273ZM328.44 391.443C331.907 391.443 334.151 389.931 335.297 387.748H335.48V391H341.649V375.18C341.649 369.592 336.915 367.24 331.693 367.24C326.074 367.24 322.378 369.928 321.477 374.203L327.494 374.692C327.936 373.134 329.326 371.989 331.662 371.989C333.876 371.989 335.144 373.104 335.144 375.028V375.119C335.144 376.631 333.54 376.83 329.463 377.227C324.821 377.654 320.653 379.212 320.653 384.449C320.653 389.091 323.966 391.443 328.44 391.443ZM330.303 386.953C328.303 386.953 326.868 386.022 326.868 384.235C326.868 382.403 328.379 381.502 330.67 381.181C332.09 380.983 334.411 380.647 335.19 380.128V382.617C335.19 385.075 333.159 386.953 330.303 386.953ZM359.171 367.545H354.758V361.926H348.253V367.545H345.046V372.432H348.253V384.648C348.222 389.244 351.353 391.519 356.071 391.321C357.751 391.26 358.942 390.924 359.599 390.71L358.575 385.869C358.255 385.93 357.568 386.083 356.957 386.083C355.659 386.083 354.758 385.594 354.758 383.793V372.432H359.171V367.545ZM375.884 367.545H371.471V361.926H364.966V367.545H361.759V372.432H364.966V384.648C364.935 389.244 368.066 391.519 372.784 391.321C374.464 391.26 375.655 390.924 376.311 390.71L375.288 385.869C374.968 385.93 374.281 386.083 373.67 386.083C372.372 386.083 371.471 385.594 371.471 383.793V372.432H375.884V367.545ZM390.558 391.458C396.361 391.458 400.27 388.633 401.186 384.281L395.17 383.884C394.513 385.671 392.833 386.602 390.665 386.602C387.413 386.602 385.351 384.449 385.351 380.952V380.937H401.324V379.151C401.324 371.18 396.498 367.24 390.299 367.24C383.397 367.24 378.923 372.142 378.923 379.38C378.923 386.816 383.336 391.458 390.558 391.458ZM385.351 376.906C385.489 374.234 387.52 372.096 390.406 372.096C393.23 372.096 395.185 374.112 395.2 376.906H385.351ZM405.569 391H412.074V377.73C412.074 374.844 414.181 372.859 417.051 372.859C417.952 372.859 419.189 373.012 419.8 373.211V367.439C419.22 367.301 418.411 367.21 417.754 367.21C415.127 367.21 412.974 368.737 412.119 371.638H411.875V367.545H405.569V391ZM429.668 377.44C429.684 374.417 431.485 372.646 434.112 372.646C436.723 372.646 438.296 374.356 438.28 377.227V391H444.785V376.066C444.785 370.599 441.579 367.24 436.692 367.24C433.211 367.24 430.691 368.95 429.638 371.684H429.363V367.545H423.163V391H429.668V377.44ZM469.427 374.234C468.847 369.912 465.365 367.24 459.441 367.24C453.44 367.24 449.485 370.019 449.5 374.539C449.485 378.051 451.699 380.326 456.28 381.243L460.342 382.052C462.388 382.464 463.319 383.212 463.35 384.388C463.319 385.778 461.808 386.77 459.532 386.77C457.211 386.77 455.669 385.778 455.272 383.869L448.874 384.205C449.485 388.694 453.302 391.458 459.517 391.458C465.594 391.458 469.946 388.358 469.962 383.732C469.946 380.342 467.732 378.311 463.182 377.379L458.937 376.524C456.753 376.051 455.944 375.303 455.959 374.173C455.944 372.768 457.532 371.852 459.548 371.852C461.808 371.852 463.151 373.088 463.472 374.6L469.427 374.234ZM140.193 451.458C147.309 451.458 151.737 446.587 151.737 439.364C151.737 432.096 147.309 427.24 140.193 427.24C133.077 427.24 128.649 432.096 128.649 439.364C128.649 446.587 133.077 451.458 140.193 451.458ZM140.224 446.419C136.941 446.419 135.261 443.411 135.261 439.319C135.261 435.226 136.941 432.203 140.224 432.203C143.446 432.203 145.125 435.226 145.125 439.319C145.125 443.411 143.446 446.419 140.224 446.419ZM168.58 427.545H163.923V425.973C163.923 424.385 164.564 423.453 166.473 423.453C167.251 423.453 168.045 423.621 168.565 423.789L169.71 418.903C168.901 418.658 167.114 418.261 165.114 418.261C160.701 418.261 157.418 420.75 157.418 425.85V427.545H154.104V432.432H157.418V451H163.923V432.432H168.58V427.545ZM193.073 460.284C199.776 460.284 204.54 457.23 204.54 451.229V427.545H198.081V431.485H197.837C196.967 429.576 195.058 427.24 191.134 427.24C185.988 427.24 181.636 431.241 181.636 439.227C181.636 447.03 185.865 450.664 191.149 450.664C194.89 450.664 196.982 448.786 197.837 446.847H198.112V451.137C198.112 454.359 196.05 455.612 193.225 455.612C190.355 455.612 188.904 454.359 188.37 452.939L182.353 453.749C183.132 457.444 186.751 460.284 193.073 460.284ZM193.21 445.778C190.019 445.778 188.278 443.243 188.278 439.196C188.278 435.211 189.988 432.417 193.21 432.417C196.371 432.417 198.142 435.089 198.142 439.196C198.142 443.335 196.341 445.778 193.21 445.778ZM209.717 451H216.222V427.545H209.717V451ZM212.985 424.522C214.924 424.522 216.512 423.041 216.512 421.224C216.512 419.422 214.924 417.941 212.985 417.941C211.061 417.941 209.473 419.422 209.473 421.224C209.473 423.041 211.061 424.522 212.985 424.522ZM232 460.284C238.703 460.284 243.467 457.23 243.467 451.229V427.545H237.008V431.485H236.764C235.893 429.576 233.985 427.24 230.06 427.24C224.914 427.24 220.562 431.241 220.562 439.227C220.562 447.03 224.792 450.664 230.076 450.664C233.817 450.664 235.909 448.786 236.764 446.847H237.039V451.137C237.039 454.359 234.977 455.612 232.152 455.612C229.282 455.612 227.831 454.359 227.296 452.939L221.28 453.749C222.059 457.444 225.678 460.284 232 460.284ZM232.137 445.778C228.946 445.778 227.205 443.243 227.205 439.196C227.205 435.211 228.915 432.417 232.137 432.417C235.298 432.417 237.069 435.089 237.069 439.196C237.069 443.335 235.267 445.778 232.137 445.778ZM263.223 451H270.094L274.125 436.249H274.415L278.447 451H285.333L291.701 427.545H285.135L281.562 443.212H281.363L277.515 427.545H271.056L267.269 443.304H267.055L263.421 427.545H256.84L263.223 451ZM305.18 451.458C312.296 451.458 316.725 446.587 316.725 439.364C316.725 432.096 312.296 427.24 305.18 427.24C298.065 427.24 293.636 432.096 293.636 439.364C293.636 446.587 298.065 451.458 305.18 451.458ZM305.211 446.419C301.928 446.419 300.248 443.411 300.248 439.319C300.248 435.226 301.928 432.203 305.211 432.203C308.433 432.203 310.113 435.226 310.113 439.319C310.113 443.411 308.433 446.419 305.211 446.419ZM320.954 451H327.459V437.73C327.459 434.844 329.566 432.859 332.437 432.859C333.338 432.859 334.575 433.012 335.186 433.211V427.439C334.606 427.301 333.796 427.21 333.14 427.21C330.513 427.21 328.36 428.737 327.505 431.638H327.261V427.545H320.954V451ZM338.549 451H345.054V443.548L346.81 441.548L353.208 451H360.828L351.681 437.7L360.385 427.545H352.918L345.405 436.448H345.054V419.727H338.549V451ZM373.299 451.458C379.102 451.458 383.011 448.633 383.927 444.281L377.911 443.884C377.254 445.671 375.575 446.602 373.406 446.602C370.154 446.602 368.092 444.449 368.092 440.952V440.937H384.065V439.151C384.065 431.18 379.239 427.24 373.04 427.24C366.138 427.24 361.664 432.142 361.664 439.38C361.664 446.816 366.077 451.458 373.299 451.458ZM368.092 436.906C368.23 434.234 370.261 432.096 373.147 432.096C375.972 432.096 377.926 434.112 377.941 436.906H368.092ZM388.31 451H394.815V437.73C394.815 434.844 396.922 432.859 399.793 432.859C400.694 432.859 401.93 433.012 402.541 433.211V427.439C401.961 427.301 401.152 427.21 400.495 427.21C397.869 427.21 395.716 428.737 394.861 431.638H394.616V427.545H388.31V451ZM425.419 434.234C424.839 429.912 421.358 427.24 415.433 427.24C409.432 427.24 405.477 430.019 405.492 434.539C405.477 438.051 407.691 440.326 412.272 441.243L416.334 442.052C418.38 442.464 419.311 443.212 419.342 444.388C419.311 445.778 417.8 446.77 415.525 446.77C413.203 446.77 411.661 445.778 411.264 443.869L404.866 444.205C405.477 448.694 409.294 451.458 415.509 451.458C421.587 451.458 425.939 448.358 425.954 443.732C425.939 440.342 423.724 438.311 419.174 437.379L414.929 436.524C412.745 436.051 411.936 435.303 411.951 434.173C411.936 432.768 413.524 431.852 415.54 431.852C417.8 431.852 419.143 433.088 419.464 434.6L425.419 434.234Z" fill="black"/>
<path d="M630.323 423.074L766 459.741V117.5L889 190.5L962.5 430L1196.06 459.741V580H630.323V423.074Z" fill="url(#paint0_linear)"/>
<path d="M629.323 422.924L767 459.573V118L889 190L963 430L1195.06 459.573" stroke="#87C2F8" stroke-width="2"/>
<rect x="630" y="474" width="566" height="107" fill="url(#paint1_linear)"/>
<path d="M630.354 105.647C630.159 105.451 629.843 105.451 629.647 105.646L626.459 108.821C626.263 109.016 626.262 109.332 626.457 109.528C626.652 109.724 626.968 109.724 627.164 109.53L629.999 106.707L632.821 109.541C633.016 109.737 633.332 109.738 633.528 109.543C633.724 109.348 633.724 109.032 633.53 108.836L630.354 105.647ZM629.5 581.002L630.5 106.001L629.5 105.999L628.5 581L629.5 581.002Z" fill="#A8A8A8"/>
<path d="M630.354 105.647C630.159 105.451 629.843 105.451 629.647 105.646L626.459 108.821C626.263 109.016 626.262 109.332 626.457 109.528C626.652 109.724 626.968 109.724 627.164 109.53L629.999 106.707L632.821 109.541C633.016 109.737 633.332 109.738 633.528 109.543C633.724 109.348 633.724 109.032 633.53 108.836L630.354 105.647ZM629.5 581.002L630.5 106.001L629.5 105.999L628.5 581L629.5 581.002Z" fill="#A8A8A8"/>
<path d="M630.354 105.647C630.159 105.451 629.843 105.451 629.647 105.646L626.459 108.821C626.263 109.016 626.262 109.332 626.457 109.528C626.652 109.724 626.968 109.724 627.164 109.53L629.999 106.707L632.821 109.541C633.016 109.737 633.332 109.738 633.528 109.543C633.724 109.348 633.724 109.032 633.53 108.836L630.354 105.647ZM629.5 581.002L630.5 106.001L629.5 105.999L628.5 581L629.5 581.002Z" fill="#7C7C7C"/>
<path d="M1247.35 581.354C1247.55 581.158 1247.55 580.842 1247.35 580.646L1244.17 577.464C1243.98 577.269 1243.66 577.269 1243.46 577.464C1243.27 577.66 1243.27 577.976 1243.46 578.172L1246.29 581L1243.46 583.828C1243.27 584.024 1243.27 584.34 1243.46 584.536C1243.66 584.731 1243.98 584.731 1244.17 584.536L1247.35 581.354ZM630 581.5H1247V580.5H630V581.5Z" fill="#A8A8A8"/>
<path d="M1247.35 581.354C1247.55 581.158 1247.55 580.842 1247.35 580.646L1244.17 577.464C1243.98 577.269 1243.66 577.269 1243.46 577.464C1243.27 577.66 1243.27 577.976 1243.46 578.172L1246.29 581L1243.46 583.828C1243.27 584.024 1243.27 584.34 1243.46 584.536C1243.66 584.731 1243.98 584.731 1244.17 584.536L1247.35 581.354ZM630 581.5H1247V580.5H630V581.5Z" fill="#A8A8A8"/>
<path d="M1247.35 581.354C1247.55 581.158 1247.55 580.842 1247.35 580.646L1244.17 577.464C1243.98 577.269 1243.66 577.269 1243.46 577.464C1243.27 577.66 1243.27 577.976 1243.46 578.172L1246.29 581L1243.46 583.828C1243.27 584.024 1243.27 584.34 1243.46 584.536C1243.66 584.731 1243.98 584.731 1244.17 584.536L1247.35 581.354ZM630 581.5H1247V580.5H630V581.5Z" fill="#7C7C7C"/>
<path d="M796.688 531C800.011 531 801.886 528.933 801.886 525.524C801.886 522.136 800.011 520.091 796.837 520.091H793.321V531H796.688ZM794.642 529.828V521.263H796.751C799.308 521.263 800.608 522.882 800.608 525.524C800.608 528.188 799.308 529.828 796.602 529.828H794.642ZM806.339 531.192C807.767 531.192 808.513 530.425 808.768 529.892H808.832V531H810.089V525.609C810.089 523.01 808.108 522.712 807.064 522.712C805.828 522.712 804.422 523.138 803.783 524.629L804.976 525.055C805.253 524.459 805.908 523.82 807.107 523.82C808.262 523.82 808.832 524.432 808.832 525.482V525.524C808.832 526.131 808.214 526.078 806.723 526.27C805.205 526.467 803.548 526.803 803.548 528.678C803.548 530.276 804.784 531.192 806.339 531.192ZM806.531 530.062C805.53 530.062 804.805 529.615 804.805 528.741C804.805 527.783 805.679 527.484 806.659 527.357C807.192 527.293 808.619 527.143 808.832 526.888V528.038C808.832 529.061 808.023 530.062 806.531 530.062ZM812.384 531H813.641V522.818H812.384V531ZM813.023 521.455C813.513 521.455 813.918 521.071 813.918 520.602C813.918 520.134 813.513 519.75 813.023 519.75C812.533 519.75 812.128 520.134 812.128 520.602C812.128 521.071 812.533 521.455 813.023 521.455ZM817.201 520.091H815.944V531H817.201V520.091ZM820.313 534.068C821.447 534.068 822.246 533.466 822.72 532.193L826.204 522.839L824.83 522.818L822.571 529.338H822.486L820.228 522.818H818.864L821.889 531.043L821.655 531.682C821.197 532.928 820.632 533.045 819.716 532.811L819.397 533.919C819.524 533.983 819.887 534.068 820.313 534.068ZM832.257 531H833.471V529.743H833.62C833.897 530.19 834.43 531.17 836.007 531.17C838.052 531.17 839.48 529.53 839.48 526.93C839.48 524.352 838.052 522.712 835.985 522.712C834.387 522.712 833.897 523.692 833.62 524.118H833.514V520.091H832.257V531ZM833.492 526.909C833.492 525.077 834.302 523.841 835.836 523.841C837.434 523.841 838.222 525.183 838.222 526.909C838.222 528.656 837.413 530.041 835.836 530.041C834.323 530.041 833.492 528.763 833.492 526.909ZM843.81 531.192C845.238 531.192 845.983 530.425 846.239 529.892H846.303V531H847.56V525.609C847.56 523.01 845.579 522.712 844.535 522.712C843.299 522.712 841.893 523.138 841.253 524.629L842.447 525.055C842.724 524.459 843.379 523.82 844.577 523.82C845.733 523.82 846.303 524.432 846.303 525.482V525.524C846.303 526.131 845.685 526.078 844.194 526.27C842.676 526.467 841.019 526.803 841.019 528.678C841.019 530.276 842.255 531.192 843.81 531.192ZM844.002 530.062C843.001 530.062 842.276 529.615 842.276 528.741C842.276 527.783 843.15 527.484 844.13 527.357C844.662 527.293 846.09 527.143 846.303 526.888V528.038C846.303 529.061 845.493 530.062 844.002 530.062ZM855.65 524.651C855.256 523.489 854.372 522.712 852.752 522.712C851.027 522.712 849.748 523.692 849.748 525.077C849.748 526.206 850.419 526.962 851.921 527.314L853.285 527.634C854.111 527.825 854.5 528.219 854.5 528.784C854.5 529.487 853.754 530.062 852.582 530.062C851.554 530.062 850.909 529.62 850.686 528.741L849.492 529.04C849.785 530.43 850.931 531.17 852.603 531.17C854.505 531.17 855.799 530.132 855.799 528.72C855.799 527.58 855.085 526.861 853.626 526.504L852.411 526.206C851.442 525.966 851.005 525.641 851.005 525.013C851.005 524.31 851.751 523.798 852.752 523.798C853.85 523.798 854.302 524.406 854.521 524.97L855.65 524.651ZM857.692 531H858.949V522.818H857.692V531ZM858.331 521.455C858.821 521.455 859.226 521.071 859.226 520.602C859.226 520.134 858.821 519.75 858.331 519.75C857.841 519.75 857.436 520.134 857.436 520.602C857.436 521.071 857.841 521.455 858.331 521.455ZM864.575 531.17C866.386 531.17 867.579 530.062 867.792 528.614H866.535C866.301 529.509 865.555 530.041 864.575 530.041C863.084 530.041 862.125 528.805 862.125 526.909C862.125 525.055 863.105 523.841 864.575 523.841C865.683 523.841 866.343 524.523 866.535 525.268H867.792C867.579 523.734 866.28 522.712 864.554 522.712C862.338 522.712 860.868 524.459 860.868 526.952C860.868 529.402 862.274 531.17 864.575 531.17ZM875.106 520.091H873.849V531H875.106V520.091ZM877.408 531H878.665V522.818H877.408V531ZM878.048 521.455C878.538 521.455 878.942 521.071 878.942 520.602C878.942 520.134 878.538 519.75 878.048 519.75C877.558 519.75 877.153 520.134 877.153 520.602C877.153 521.071 877.558 521.455 878.048 521.455ZM887.658 522.818H886.295L884.036 529.338H883.951L881.692 522.818H880.329L883.354 531H884.633L887.658 522.818ZM889.318 531H890.575V522.818H889.318V531ZM889.957 521.455C890.447 521.455 890.852 521.071 890.852 520.602C890.852 520.134 890.447 519.75 889.957 519.75C889.467 519.75 889.062 520.134 889.062 520.602C889.062 521.071 889.467 521.455 889.957 521.455ZM894.134 526.078C894.134 524.651 895.018 523.841 896.222 523.841C897.389 523.841 898.097 524.603 898.097 525.886V531H899.354V525.801C899.354 523.713 898.241 522.712 896.585 522.712C895.349 522.712 894.582 523.266 894.198 524.097H894.092V522.818H892.877V531H894.134V526.078ZM904.954 534.239C906.914 534.239 908.491 533.344 908.491 531.234V522.818H907.277V524.118H907.149C906.872 523.692 906.36 522.712 904.762 522.712C902.696 522.712 901.268 524.352 901.268 526.866C901.268 529.423 902.759 530.872 904.741 530.872C906.339 530.872 906.85 529.935 907.127 529.487H907.234V531.149C907.234 532.513 906.275 533.131 904.954 533.131C903.468 533.131 902.946 532.348 902.61 531.895L901.609 532.598C902.12 533.456 903.127 534.239 904.954 534.239ZM904.911 529.743C903.335 529.743 902.525 528.55 902.525 526.845C902.525 525.183 903.313 523.841 904.911 523.841C906.446 523.841 907.255 525.077 907.255 526.845C907.255 528.656 906.424 529.743 904.911 529.743ZM918.441 531.17C920.103 531.17 921.318 530.339 921.701 529.104L920.487 528.763C920.167 529.615 919.427 530.041 918.441 530.041C916.966 530.041 915.948 529.088 915.89 527.335H921.829V526.803C921.829 523.756 920.018 522.712 918.313 522.712C916.098 522.712 914.627 524.459 914.627 526.973C914.627 529.487 916.076 531.17 918.441 531.17ZM915.89 526.249C915.975 524.975 916.875 523.841 918.313 523.841C919.677 523.841 920.551 524.864 920.551 526.249H915.89ZM924.459 522.818H923.01L925.61 526.909L923.01 531H924.459L926.419 527.825L928.38 531H929.828L927.186 526.909L929.828 522.818H928.38L926.419 526.163L924.459 522.818ZM931.622 534.068H932.879V529.743H932.986C933.263 530.19 933.796 531.17 935.372 531.17C937.418 531.17 938.845 529.53 938.845 526.93C938.845 524.352 937.418 522.712 935.351 522.712C933.753 522.712 933.263 523.692 932.986 524.118H932.837V522.818H931.622V534.068ZM932.858 526.909C932.858 525.077 933.668 523.841 935.202 523.841C936.8 523.841 937.588 525.183 937.588 526.909C937.588 528.656 936.778 530.041 935.202 530.041C933.689 530.041 932.858 528.763 932.858 526.909ZM944.193 531.17C945.855 531.17 947.07 530.339 947.453 529.104L946.239 528.763C945.919 529.615 945.179 530.041 944.193 530.041C942.718 530.041 941.7 529.088 941.642 527.335H947.581V526.803C947.581 523.756 945.77 522.712 944.065 522.712C941.85 522.712 940.379 524.459 940.379 526.973C940.379 529.487 941.828 531.17 944.193 531.17ZM941.642 526.249C941.727 524.975 942.627 523.841 944.065 523.841C945.429 523.841 946.303 524.864 946.303 526.249H941.642ZM950.75 526.078C950.75 524.651 951.635 523.841 952.839 523.841C954.005 523.841 954.714 524.603 954.714 525.886V531H955.971V525.801C955.971 523.713 954.857 522.712 953.201 522.712C951.965 522.712 951.198 523.266 950.814 524.097H950.708V522.818H949.493V531H950.75V526.078ZM964.063 524.651C963.669 523.489 962.785 522.712 961.165 522.712C959.44 522.712 958.161 523.692 958.161 525.077C958.161 526.206 958.832 526.962 960.335 527.314L961.698 527.634C962.524 527.825 962.913 528.219 962.913 528.784C962.913 529.487 962.167 530.062 960.995 530.062C959.967 530.062 959.322 529.62 959.099 528.741L957.906 529.04C958.199 530.43 959.344 531.17 961.016 531.17C962.918 531.17 964.212 530.132 964.212 528.72C964.212 527.58 963.499 526.861 962.039 526.504L960.825 526.206C959.855 525.966 959.418 525.641 959.418 525.013C959.418 524.31 960.164 523.798 961.165 523.798C962.263 523.798 962.716 524.406 962.934 524.97L964.063 524.651ZM969.535 531.17C971.197 531.17 972.411 530.339 972.795 529.104L971.581 528.763C971.261 529.615 970.521 530.041 969.535 530.041C968.06 530.041 967.042 529.088 966.984 527.335H972.923V526.803C972.923 523.756 971.112 522.712 969.407 522.712C967.191 522.712 965.721 524.459 965.721 526.973C965.721 529.487 967.17 531.17 969.535 531.17ZM966.984 526.249C967.069 524.975 967.969 523.841 969.407 523.841C970.771 523.841 971.644 524.864 971.644 526.249H966.984ZM980.311 520.091H979.054V531H980.311V520.091ZM986.044 531.17C987.706 531.17 988.92 530.339 989.304 529.104L988.089 528.763C987.77 529.615 987.029 530.041 986.044 530.041C984.568 530.041 983.551 529.088 983.492 527.335H989.432V526.803C989.432 523.756 987.621 522.712 985.916 522.712C983.7 522.712 982.23 524.459 982.23 526.973C982.23 529.487 983.679 531.17 986.044 531.17ZM983.492 526.249C983.578 524.975 984.478 523.841 985.916 523.841C987.28 523.841 988.153 524.864 988.153 526.249H983.492ZM997.785 522.818H996.422L994.163 529.338H994.078L991.819 522.818H990.456L993.481 531H994.76L997.785 522.818ZM1002.58 531.17C1004.24 531.17 1005.46 530.339 1005.84 529.104L1004.63 528.763C1004.31 529.615 1003.57 530.041 1002.58 530.041C1001.11 530.041 1000.09 529.088 1000.03 527.335H1005.97V526.803C1005.97 523.756 1004.16 522.712 1002.45 522.712C1000.24 522.712 998.768 524.459 998.768 526.973C998.768 529.487 1000.22 531.17 1002.58 531.17ZM1000.03 526.249C1000.12 524.975 1001.02 523.841 1002.45 523.841C1003.82 523.841 1004.69 524.864 1004.69 526.249H1000.03ZM1009.14 520.091H1007.88V531H1009.14V520.091Z" fill="black"/>
<path d="M1061.32 203H1062.64V199.016H1065.03C1067.57 199.016 1068.71 197.471 1068.71 195.543C1068.71 193.614 1067.57 192.091 1065.01 192.091H1061.32V203ZM1062.64 197.844V193.263H1064.96C1066.74 193.263 1067.41 194.232 1067.41 195.543C1067.41 196.853 1066.74 197.844 1064.99 197.844H1062.64ZM1071.93 198.078C1071.93 196.651 1072.84 195.841 1074.08 195.841C1075.26 195.841 1075.98 196.587 1075.98 197.886V203H1077.23V197.801C1077.23 195.697 1076.12 194.712 1074.44 194.712C1073.15 194.712 1072.42 195.25 1072.04 196.097H1071.93V192.091H1070.67V203H1071.93V198.078ZM1082.86 203.17C1085.07 203.17 1086.57 201.487 1086.57 198.952C1086.57 196.395 1085.07 194.712 1082.86 194.712C1080.64 194.712 1079.15 196.395 1079.15 198.952C1079.15 201.487 1080.64 203.17 1082.86 203.17ZM1082.86 202.041C1081.17 202.041 1080.41 200.592 1080.41 198.952C1080.41 197.311 1081.17 195.841 1082.86 195.841C1084.54 195.841 1085.31 197.311 1085.31 198.952C1085.31 200.592 1084.54 202.041 1082.86 202.041ZM1089.74 198.078C1089.74 196.651 1090.63 195.841 1091.83 195.841C1093 195.841 1093.7 196.603 1093.7 197.886V203H1094.96V197.801C1094.96 195.713 1093.85 194.712 1092.19 194.712C1090.96 194.712 1090.19 195.266 1089.81 196.097H1089.7V194.818H1088.48V203H1089.74V198.078ZM1100.69 203.17C1102.35 203.17 1103.57 202.339 1103.95 201.104L1102.73 200.763C1102.42 201.615 1101.67 202.041 1100.69 202.041C1099.21 202.041 1098.2 201.088 1098.14 199.335H1104.08V198.803C1104.08 195.756 1102.27 194.712 1100.56 194.712C1098.35 194.712 1096.88 196.459 1096.88 198.973C1096.88 201.487 1098.32 203.17 1100.69 203.17ZM1098.14 198.249C1098.22 196.975 1099.12 195.841 1100.56 195.841C1101.93 195.841 1102.8 196.864 1102.8 198.249H1098.14ZM1110.38 203H1111.59V201.743H1111.74C1112.02 202.19 1112.55 203.17 1114.13 203.17C1116.17 203.17 1117.6 201.53 1117.6 198.93C1117.6 196.352 1116.17 194.712 1114.11 194.712C1112.51 194.712 1112.02 195.692 1111.74 196.118H1111.64V192.091H1110.38V203ZM1111.61 198.909C1111.61 197.077 1112.42 195.841 1113.96 195.841C1115.56 195.841 1116.34 197.183 1116.34 198.909C1116.34 200.656 1115.53 202.041 1113.96 202.041C1112.45 202.041 1111.61 200.763 1111.61 198.909ZM1119.52 203H1120.78V194.818H1119.52V203ZM1120.16 193.455C1120.65 193.455 1121.06 193.071 1121.06 192.602C1121.06 192.134 1120.65 191.75 1120.16 191.75C1119.67 191.75 1119.27 192.134 1119.27 192.602C1119.27 193.071 1119.67 193.455 1120.16 193.455ZM1124.34 192.091H1123.08V203H1124.34V192.091ZM1127.9 192.091H1126.64V203H1127.9V192.091ZM1064.24 224.17C1065.82 224.17 1066.35 223.19 1066.63 222.743H1066.78V224H1067.99V213.091H1066.73V217.118H1066.63C1066.35 216.692 1065.86 215.712 1064.26 215.712C1062.19 215.712 1060.77 217.352 1060.77 219.93C1060.77 222.53 1062.19 224.17 1064.24 224.17ZM1064.41 223.041C1062.83 223.041 1062.02 221.656 1062.02 219.909C1062.02 218.183 1062.81 216.841 1064.41 216.841C1065.94 216.841 1066.75 218.077 1066.75 219.909C1066.75 221.763 1065.92 223.041 1064.41 223.041ZM1075.62 220.655C1075.62 222.189 1074.45 222.892 1073.51 222.892C1072.47 222.892 1071.72 222.125 1071.72 220.932V215.818H1070.47V221.017C1070.47 223.105 1071.57 224.107 1073.11 224.107C1074.34 224.107 1075.15 223.446 1075.54 222.615H1075.62V224H1076.88V215.818H1075.62V220.655ZM1082.61 224.17C1084.28 224.17 1085.49 223.339 1085.87 222.104L1084.66 221.763C1084.34 222.615 1083.6 223.041 1082.61 223.041C1081.14 223.041 1080.12 222.088 1080.06 220.335H1086V219.803C1086 216.756 1084.19 215.712 1082.49 215.712C1080.27 215.712 1078.8 217.459 1078.8 219.973C1078.8 222.487 1080.25 224.17 1082.61 224.17ZM1080.06 219.249C1080.15 217.975 1081.05 216.841 1082.49 216.841C1083.85 216.841 1084.72 217.864 1084.72 219.249H1080.06ZM1095.22 224.17C1096.8 224.17 1097.33 223.19 1097.61 222.743H1097.76V224H1098.97V213.091H1097.71V217.118H1097.61C1097.33 216.692 1096.84 215.712 1095.24 215.712C1093.18 215.712 1091.75 217.352 1091.75 219.93C1091.75 222.53 1093.18 224.17 1095.22 224.17ZM1095.39 223.041C1093.82 223.041 1093.01 221.656 1093.01 219.909C1093.01 218.183 1093.79 216.841 1095.39 216.841C1096.93 216.841 1097.74 218.077 1097.74 219.909C1097.74 221.763 1096.9 223.041 1095.39 223.041ZM1103.86 224.192C1105.28 224.192 1106.03 223.425 1106.29 222.892H1106.35V224H1107.61V218.609C1107.61 216.01 1105.62 215.712 1104.58 215.712C1103.34 215.712 1101.94 216.138 1101.3 217.629L1102.49 218.055C1102.77 217.459 1103.42 216.82 1104.62 216.82C1105.78 216.82 1106.35 217.432 1106.35 218.482V218.524C1106.35 219.131 1105.73 219.078 1104.24 219.27C1102.72 219.467 1101.06 219.803 1101.06 221.678C1101.06 223.276 1102.3 224.192 1103.86 224.192ZM1104.05 223.062C1103.05 223.062 1102.32 222.615 1102.32 221.741C1102.32 220.783 1103.2 220.484 1104.18 220.357C1104.71 220.293 1106.14 220.143 1106.35 219.888V221.038C1106.35 222.061 1105.54 223.062 1104.05 223.062ZM1113.46 215.818H1111.71V213.858H1110.45V215.818H1109.22V216.884H1110.45V221.997C1110.45 223.425 1111.61 224.107 1112.67 224.107C1113.14 224.107 1113.44 224.021 1113.61 223.957L1113.35 222.828C1113.25 222.849 1113.08 222.892 1112.8 222.892C1112.24 222.892 1111.71 222.722 1111.71 221.656V216.884H1113.46V215.818ZM1118.69 224.17C1120.35 224.17 1121.57 223.339 1121.95 222.104L1120.74 221.763C1120.42 222.615 1119.68 223.041 1118.69 223.041C1117.22 223.041 1116.2 222.088 1116.14 220.335H1122.08V219.803C1122.08 216.756 1120.27 215.712 1118.56 215.712C1116.35 215.712 1114.88 217.459 1114.88 219.973C1114.88 222.487 1116.33 224.17 1118.69 224.17ZM1116.14 219.249C1116.23 217.975 1117.13 216.841 1118.56 216.841C1119.93 216.841 1120.8 217.864 1120.8 219.249H1116.14Z" fill="black"/>
<path d="M1107.04 307.091H1105.08V314.527H1104.98L1099.84 307.091H1098.08V318H1100.05V310.569H1100.14L1105.28 318H1107.04V307.091ZM1112.68 318.16C1115.07 318.16 1116.6 316.471 1116.6 313.941C1116.6 311.406 1115.07 309.712 1112.68 309.712C1110.28 309.712 1108.76 311.406 1108.76 313.941C1108.76 316.471 1110.28 318.16 1112.68 318.16ZM1112.69 316.615C1111.36 316.615 1110.71 315.433 1110.71 313.936C1110.71 312.439 1111.36 311.24 1112.69 311.24C1113.99 311.24 1114.64 312.439 1114.64 313.936C1114.64 315.433 1113.99 316.615 1112.69 316.615ZM1122.32 309.818H1120.71V307.858H1118.78V309.818H1117.62V311.31H1118.78V315.859C1118.77 317.398 1119.89 318.154 1121.34 318.112C1121.88 318.096 1122.26 317.989 1122.47 317.92L1122.14 316.413C1122.04 316.439 1121.82 316.487 1121.58 316.487C1121.1 316.487 1120.71 316.317 1120.71 315.539V311.31H1122.32V309.818ZM1131.28 318.16C1133.18 318.16 1134.49 317.228 1134.83 315.805L1133.03 315.603C1132.77 316.295 1132.13 316.658 1131.3 316.658C1130.06 316.658 1129.23 315.837 1129.21 314.436H1134.91V313.845C1134.91 310.974 1133.19 309.712 1131.17 309.712C1128.83 309.712 1127.3 311.432 1127.3 313.957C1127.3 316.525 1128.81 318.16 1131.28 318.16ZM1129.22 313.137C1129.28 312.093 1130.05 311.214 1131.2 311.214C1132.31 311.214 1133.06 312.023 1133.07 313.137H1129.22ZM1138.47 313.206C1138.47 312.023 1139.19 311.342 1140.2 311.342C1141.2 311.342 1141.8 311.997 1141.8 313.089V318H1143.73V312.79C1143.73 310.83 1142.61 309.712 1140.92 309.712C1139.7 309.712 1138.86 310.298 1138.48 311.208H1138.39V309.818H1136.55V318H1138.47V313.206ZM1149.25 318.16C1151.65 318.16 1153.18 316.471 1153.18 313.941C1153.18 311.406 1151.65 309.712 1149.25 309.712C1146.86 309.712 1145.33 311.406 1145.33 313.941C1145.33 316.471 1146.86 318.16 1149.25 318.16ZM1149.27 316.615C1147.94 316.615 1147.29 315.433 1147.29 313.936C1147.29 312.439 1147.94 311.24 1149.27 311.24C1150.57 311.24 1151.22 312.439 1151.22 313.936C1151.22 315.433 1150.57 316.615 1149.27 316.615ZM1160.03 314.559C1160.03 315.805 1159.14 316.423 1158.29 316.423C1157.36 316.423 1156.74 315.768 1156.74 314.729V309.818H1154.81V315.028C1154.81 316.993 1155.93 318.107 1157.54 318.107C1158.76 318.107 1159.63 317.462 1160 316.546H1160.09V318H1161.96V309.818H1160.03V314.559ZM1167.5 321.239C1169.71 321.239 1171.34 320.227 1171.34 318.133V309.818H1169.44V311.171H1169.33C1169.04 310.58 1168.42 309.712 1166.98 309.712C1165.09 309.712 1163.6 311.192 1163.6 313.882C1163.6 316.551 1165.09 317.883 1166.97 317.883C1168.38 317.883 1169.03 317.132 1169.33 316.53H1169.42V318.08C1169.42 319.284 1168.63 319.779 1167.53 319.779C1166.37 319.779 1165.86 319.23 1165.62 318.751L1163.88 319.172C1164.24 320.317 1165.41 321.239 1167.5 321.239ZM1167.51 316.37C1166.24 316.37 1165.57 315.379 1165.57 313.872C1165.57 312.386 1166.23 311.294 1167.51 311.294C1168.75 311.294 1169.44 312.322 1169.44 313.872C1169.44 315.433 1168.74 316.37 1167.51 316.37ZM1175.24 313.206C1175.24 312.023 1175.98 311.342 1177.01 311.342C1178.02 311.342 1178.62 311.986 1178.62 313.089V318H1180.55V312.79C1180.55 310.814 1179.43 309.712 1177.73 309.712C1176.47 309.712 1175.67 310.282 1175.29 311.208H1175.2V307.091H1173.31V318H1175.24V313.206ZM1190.38 309.818H1188.68V309.174C1188.68 308.534 1188.94 308.178 1189.66 308.178C1189.97 308.178 1190.22 308.247 1190.38 308.295L1190.77 306.803C1190.52 306.718 1189.97 306.58 1189.31 306.58C1187.88 306.58 1186.75 307.395 1186.75 309.046V309.818H1185.54V311.31H1186.75V318H1188.68V311.31H1190.38V309.818ZM1197.1 314.559C1197.1 315.805 1196.21 316.423 1195.36 316.423C1194.43 316.423 1193.82 315.768 1193.82 314.729V309.818H1191.89V315.028C1191.89 316.993 1193.01 318.107 1194.61 318.107C1195.84 318.107 1196.7 317.462 1197.08 316.546H1197.16V318H1199.03V309.818H1197.1V314.559ZM1202.94 313.206C1202.94 312.023 1203.66 311.342 1204.67 311.342C1205.67 311.342 1206.27 311.997 1206.27 313.089V318H1208.19V312.79C1208.2 310.83 1207.08 309.712 1205.39 309.712C1204.17 309.712 1203.33 310.298 1202.95 311.208H1202.86V309.818H1201.01V318H1202.94V313.206ZM1213.19 318.144C1214.6 318.144 1215.23 317.308 1215.53 316.711H1215.65V318H1217.55V307.091H1215.61V311.171H1215.53C1215.24 310.58 1214.64 309.712 1213.2 309.712C1211.3 309.712 1209.82 311.192 1209.82 313.92C1209.82 316.615 1211.26 318.144 1213.19 318.144ZM1213.73 316.562C1212.45 316.562 1211.78 315.443 1211.78 313.909C1211.78 312.386 1212.44 311.294 1213.73 311.294C1214.97 311.294 1215.65 312.322 1215.65 313.909C1215.65 315.496 1214.96 316.562 1213.73 316.562ZM1226.07 311.981C1225.8 310.596 1224.69 309.712 1222.78 309.712C1220.81 309.712 1219.46 310.681 1219.47 312.194C1219.46 313.387 1220.2 314.175 1221.77 314.5L1223.17 314.793C1223.92 314.958 1224.27 315.262 1224.27 315.725C1224.27 316.285 1223.66 316.706 1222.74 316.706C1221.86 316.706 1221.29 316.322 1221.12 315.587L1219.24 315.768C1219.48 317.27 1220.74 318.16 1222.75 318.16C1224.8 318.16 1226.24 317.1 1226.24 315.55C1226.24 314.383 1225.49 313.669 1223.94 313.334L1222.55 313.036C1221.72 312.849 1221.39 312.561 1221.39 312.087C1221.39 311.533 1222 311.15 1222.8 311.15C1223.69 311.15 1224.16 311.635 1224.31 312.173L1226.07 311.981ZM1235.64 309.818H1234.03V307.858H1232.1V309.818H1230.94V311.31H1232.1V315.859C1232.09 317.398 1233.21 318.154 1234.66 318.112C1235.2 318.096 1235.58 317.989 1235.79 317.92L1235.47 316.413C1235.36 316.439 1235.14 316.487 1234.9 316.487C1234.42 316.487 1234.03 316.317 1234.03 315.539V311.31H1235.64V309.818ZM1240.73 318.16C1243.13 318.16 1244.65 316.471 1244.65 313.941C1244.65 311.406 1243.13 309.712 1240.73 309.712C1238.34 309.712 1236.81 311.406 1236.81 313.941C1236.81 316.471 1238.34 318.16 1240.73 318.16ZM1240.75 316.615C1239.42 316.615 1238.77 315.433 1238.77 313.936C1238.77 312.439 1239.42 311.24 1240.75 311.24C1242.05 311.24 1242.7 312.439 1242.7 313.936C1242.7 315.433 1242.05 316.615 1240.75 316.615ZM1250.01 321.068H1251.94V316.711H1252.02C1252.32 317.308 1252.96 318.144 1254.36 318.144C1256.29 318.144 1257.74 316.615 1257.74 313.92C1257.74 311.192 1256.25 309.712 1254.36 309.712C1252.92 309.712 1252.31 310.58 1252.02 311.171H1251.91V309.818H1250.01V321.068ZM1251.9 313.909C1251.9 312.322 1252.59 311.294 1253.83 311.294C1255.11 311.294 1255.77 312.386 1255.77 313.909C1255.77 315.443 1255.1 316.562 1253.83 316.562C1252.6 316.562 1251.9 315.496 1251.9 313.909ZM1261.74 318.165C1263.03 318.165 1263.79 317.563 1264.14 316.876H1264.21V318H1266.06V312.524C1266.06 310.362 1264.3 309.712 1262.74 309.712C1261.02 309.712 1259.7 310.479 1259.27 311.97L1261.07 312.226C1261.26 311.667 1261.81 311.187 1262.75 311.187C1263.64 311.187 1264.13 311.645 1264.13 312.45V312.482C1264.13 313.036 1263.55 313.062 1262.11 313.217C1260.52 313.387 1259 313.861 1259 315.704C1259 317.313 1260.18 318.165 1261.74 318.165ZM1262.24 316.748C1261.44 316.748 1260.86 316.381 1260.86 315.672C1260.86 314.932 1261.51 314.623 1262.37 314.5C1262.88 314.431 1263.89 314.303 1264.14 314.101V315.065C1264.14 315.976 1263.4 316.748 1262.24 316.748ZM1268.91 321.068C1270.41 321.068 1271.28 320.296 1271.74 318.991L1275.03 309.829L1272.97 309.818L1271.07 315.997H1270.99L1269.1 309.818H1267.06L1270.02 318.17L1269.86 318.613C1269.5 319.545 1268.94 319.609 1268.1 319.364L1267.65 320.866C1267.91 320.972 1268.38 321.068 1268.91 321.068ZM1102.08 330.818H1100.46V328.858H1098.53V330.818H1097.37V332.31H1098.53V336.859C1098.52 338.398 1099.64 339.154 1101.09 339.112C1101.64 339.096 1102.02 338.989 1102.23 338.92L1101.9 337.413C1101.79 337.439 1101.58 337.487 1101.34 337.487C1100.85 337.487 1100.46 337.317 1100.46 336.539V332.31H1102.08V330.818ZM1105.79 334.206C1105.79 333.023 1106.53 332.342 1107.56 332.342C1108.57 332.342 1109.17 332.986 1109.17 334.089V339H1111.1V333.79C1111.1 331.814 1109.98 330.712 1108.28 330.712C1107.02 330.712 1106.22 331.282 1105.85 332.208H1105.75V328.091H1103.86V339H1105.79V334.206ZM1116.69 339.16C1118.59 339.16 1119.9 338.228 1120.24 336.805L1118.44 336.603C1118.18 337.295 1117.54 337.658 1116.71 337.658C1115.47 337.658 1114.64 336.837 1114.62 335.436H1120.32V334.845C1120.32 331.974 1118.6 330.712 1116.58 330.712C1114.24 330.712 1112.71 332.432 1112.71 334.957C1112.71 337.525 1114.22 339.16 1116.69 339.16ZM1114.63 334.137C1114.69 333.093 1115.46 332.214 1116.61 332.214C1117.72 332.214 1118.47 333.023 1118.48 334.137H1114.63ZM1125.76 339H1127.66V337.711H1127.77C1128.07 338.308 1128.71 339.144 1130.11 339.144C1132.04 339.144 1133.49 337.615 1133.49 334.92C1133.49 332.192 1132 330.712 1130.11 330.712C1128.66 330.712 1128.06 331.58 1127.77 332.171H1127.69V328.091H1125.76V339ZM1127.65 334.909C1127.65 333.322 1128.33 332.294 1129.58 332.294C1130.86 332.294 1131.52 333.386 1131.52 334.909C1131.52 336.443 1130.85 337.562 1129.58 337.562C1128.34 337.562 1127.65 336.496 1127.65 334.909ZM1135.12 339H1137.05V330.818H1135.12V339ZM1136.09 329.657C1136.71 329.657 1137.21 329.188 1137.21 328.613C1137.21 328.032 1136.71 327.564 1136.09 327.564C1135.48 327.564 1134.98 328.032 1134.98 328.613C1134.98 329.188 1135.48 329.657 1136.09 329.657ZM1140.96 328.091H1139.04V339H1140.96V328.091ZM1144.88 328.091H1142.95V339H1144.88V328.091ZM1152.27 339H1154.28L1155.81 333.471H1155.93L1157.46 339H1159.47L1161.79 330.818H1159.82L1158.4 336.539H1158.32L1156.85 330.818H1154.9L1153.43 336.571H1153.36L1151.92 330.818H1149.96L1152.27 339ZM1165.06 334.206C1165.06 333.023 1165.8 332.342 1166.83 332.342C1167.84 332.342 1168.44 332.986 1168.44 334.089V339H1170.37V333.79C1170.37 331.814 1169.25 330.712 1167.55 330.712C1166.29 330.712 1165.49 331.282 1165.11 332.208H1165.02V328.091H1163.13V339H1165.06V334.206ZM1172.33 339H1174.26V330.818H1172.33V339ZM1173.3 329.657C1173.91 329.657 1174.41 329.188 1174.41 328.613C1174.41 328.032 1173.91 327.564 1173.3 327.564C1172.68 327.564 1172.18 328.032 1172.18 328.613C1172.18 329.188 1172.68 329.657 1173.3 329.657ZM1178.17 328.091H1176.24V339H1178.17V328.091ZM1183.78 339.16C1185.68 339.16 1186.99 338.228 1187.33 336.805L1185.53 336.603C1185.27 337.295 1184.63 337.658 1183.8 337.658C1182.56 337.658 1181.73 336.837 1181.71 335.436H1187.41V334.845C1187.41 331.974 1185.69 330.712 1183.67 330.712C1181.33 330.712 1179.8 332.432 1179.8 334.957C1179.8 337.525 1181.31 339.16 1183.78 339.16ZM1181.72 334.137C1181.78 333.093 1182.55 332.214 1183.7 332.214C1184.81 332.214 1185.56 333.023 1185.57 334.137H1181.72ZM1196.34 339.16C1198.39 339.16 1199.7 337.94 1199.84 336.203H1198C1197.83 337.082 1197.2 337.588 1196.35 337.588C1195.15 337.588 1194.37 336.582 1194.37 334.909C1194.37 333.258 1195.16 332.267 1196.35 332.267C1197.28 332.267 1197.85 332.864 1198 333.652H1199.84C1199.71 331.878 1198.32 330.712 1196.32 330.712C1193.93 330.712 1192.41 332.443 1192.41 334.941C1192.41 337.418 1193.89 339.16 1196.34 339.16ZM1204.99 339.16C1207.39 339.16 1208.91 337.471 1208.91 334.941C1208.91 332.406 1207.39 330.712 1204.99 330.712C1202.6 330.712 1201.07 332.406 1201.07 334.941C1201.07 337.471 1202.6 339.16 1204.99 339.16ZM1205 337.615C1203.68 337.615 1203.03 336.433 1203.03 334.936C1203.03 333.439 1203.68 332.24 1205 332.24C1206.31 332.24 1206.96 333.439 1206.96 334.936C1206.96 336.433 1206.31 337.615 1205 337.615ZM1217.58 330.818H1215.53L1213.64 336.896H1213.56L1211.68 330.818H1209.62L1212.53 339H1214.67L1217.58 330.818ZM1222.26 339.16C1224.16 339.16 1225.47 338.228 1225.82 336.805L1224.02 336.603C1223.75 337.295 1223.12 337.658 1222.28 337.658C1221.04 337.658 1220.21 336.837 1220.2 335.436H1225.9V334.845C1225.9 331.974 1224.17 330.712 1222.16 330.712C1219.81 330.712 1218.28 332.432 1218.28 334.957C1218.28 337.525 1219.79 339.16 1222.26 339.16ZM1220.2 334.137C1220.26 333.093 1221.03 332.214 1222.18 332.214C1223.29 332.214 1224.04 333.023 1224.05 334.137H1220.2ZM1227.53 339H1229.46V334.19C1229.46 333.151 1230.24 332.416 1231.3 332.416C1231.62 332.416 1232.03 332.475 1232.19 332.528V330.754C1232.02 330.722 1231.71 330.701 1231.5 330.701C1230.56 330.701 1229.78 331.234 1229.48 332.182H1229.4V330.818H1227.53V339ZM1233.47 339H1235.4V330.818H1233.47V339ZM1234.44 329.657C1235.06 329.657 1235.56 329.188 1235.56 328.613C1235.56 328.032 1235.06 327.564 1234.44 327.564C1233.83 327.564 1233.33 328.032 1233.33 328.613C1233.33 329.188 1233.83 329.657 1234.44 329.657ZM1239.31 334.206C1239.31 333.023 1240.03 332.342 1241.04 332.342C1242.04 332.342 1242.64 332.997 1242.64 334.089V339H1244.57V333.79C1244.57 331.83 1243.45 330.712 1241.76 330.712C1240.54 330.712 1239.7 331.298 1239.32 332.208H1239.23V330.818H1237.39V339H1239.31V334.206ZM1250.08 342.239C1252.29 342.239 1253.92 341.227 1253.92 339.133V330.818H1252.02V332.171H1251.92C1251.62 331.58 1251.01 330.712 1249.57 330.712C1247.68 330.712 1246.19 332.192 1246.19 334.882C1246.19 337.551 1247.68 338.883 1249.56 338.883C1250.96 338.883 1251.62 338.132 1251.92 337.53H1252.01V339.08C1252.01 340.284 1251.21 340.779 1250.12 340.779C1248.95 340.779 1248.44 340.23 1248.21 339.751L1246.47 340.172C1246.82 341.317 1248 342.239 1250.08 342.239ZM1250.1 337.37C1248.83 337.37 1248.16 336.379 1248.16 334.872C1248.16 333.386 1248.82 332.294 1250.1 332.294C1251.34 332.294 1252.02 333.322 1252.02 334.872C1252.02 336.433 1251.33 337.37 1250.1 337.37ZM1102.08 351.818H1100.46V349.858H1098.53V351.818H1097.37V353.31H1098.53V357.859C1098.52 359.398 1099.64 360.154 1101.09 360.112C1101.64 360.096 1102.02 359.989 1102.23 359.92L1101.9 358.413C1101.79 358.439 1101.58 358.487 1101.34 358.487C1100.85 358.487 1100.46 358.317 1100.46 357.539V353.31H1102.08V351.818ZM1105.79 355.206C1105.79 354.023 1106.53 353.342 1107.56 353.342C1108.57 353.342 1109.17 353.986 1109.17 355.089V360H1111.1V354.79C1111.1 352.814 1109.98 351.712 1108.28 351.712C1107.02 351.712 1106.22 352.282 1105.85 353.208H1105.75V349.091H1103.86V360H1105.79V355.206ZM1116.69 360.16C1118.59 360.16 1119.9 359.228 1120.24 357.805L1118.44 357.603C1118.18 358.295 1117.54 358.658 1116.71 358.658C1115.47 358.658 1114.64 357.837 1114.62 356.436H1120.32V355.845C1120.32 352.974 1118.6 351.712 1116.58 351.712C1114.24 351.712 1112.71 353.432 1112.71 355.957C1112.71 358.525 1114.22 360.16 1116.69 360.16ZM1114.63 355.137C1114.69 354.093 1115.46 353.214 1116.61 353.214C1117.72 353.214 1118.47 354.023 1118.48 355.137H1114.63ZM1125.76 360H1127.66V358.711H1127.77C1128.07 359.308 1128.71 360.144 1130.11 360.144C1132.04 360.144 1133.49 358.615 1133.49 355.92C1133.49 353.192 1132 351.712 1130.11 351.712C1128.66 351.712 1128.06 352.58 1127.77 353.171H1127.69V349.091H1125.76V360ZM1127.65 355.909C1127.65 354.322 1128.33 353.294 1129.58 353.294C1130.86 353.294 1131.52 354.386 1131.52 355.909C1131.52 357.443 1130.85 358.562 1129.58 358.562C1128.34 358.562 1127.65 357.496 1127.65 355.909ZM1137.48 360.165C1138.76 360.165 1139.53 359.563 1139.88 358.876H1139.95V360H1141.8V354.524C1141.8 352.362 1140.04 351.712 1138.48 351.712C1136.75 351.712 1135.43 352.479 1135.01 353.97L1136.81 354.226C1137 353.667 1137.54 353.187 1138.49 353.187C1139.38 353.187 1139.87 353.645 1139.87 354.45V354.482C1139.87 355.036 1139.29 355.062 1137.85 355.217C1136.26 355.387 1134.74 355.861 1134.74 357.704C1134.74 359.313 1135.92 360.165 1137.48 360.165ZM1137.98 358.748C1137.18 358.748 1136.6 358.381 1136.6 357.672C1136.6 356.932 1137.24 356.623 1138.11 356.5C1138.61 356.431 1139.63 356.303 1139.88 356.101V357.065C1139.88 357.976 1139.14 358.748 1137.98 358.748ZM1150.2 353.981C1149.94 352.596 1148.83 351.712 1146.91 351.712C1144.94 351.712 1143.6 352.681 1143.6 354.194C1143.6 355.387 1144.33 356.175 1145.91 356.5L1147.3 356.793C1148.05 356.958 1148.4 357.262 1148.4 357.725C1148.4 358.285 1147.8 358.706 1146.88 358.706C1146 358.706 1145.42 358.322 1145.26 357.587L1143.38 357.768C1143.62 359.27 1144.88 360.16 1146.89 360.16C1148.93 360.16 1150.37 359.1 1150.38 357.55C1150.37 356.383 1149.62 355.669 1148.08 355.334L1146.68 355.036C1145.85 354.849 1145.52 354.561 1145.53 354.087C1145.52 353.533 1146.13 353.15 1146.94 353.15C1147.83 353.15 1148.3 353.635 1148.45 354.173L1150.2 353.981ZM1151.97 360H1153.9V351.818H1151.97V360ZM1152.94 350.657C1153.55 350.657 1154.05 350.188 1154.05 349.613C1154.05 349.032 1153.55 348.564 1152.94 348.564C1152.32 348.564 1151.82 349.032 1151.82 349.613C1151.82 350.188 1152.32 350.657 1152.94 350.657ZM1159.45 360.16C1161.51 360.16 1162.82 358.94 1162.96 357.203H1161.11C1160.95 358.082 1160.31 358.588 1159.47 358.588C1158.26 358.588 1157.48 357.582 1157.48 355.909C1157.48 354.258 1158.28 353.267 1159.47 353.267C1160.39 353.267 1160.96 353.864 1161.11 354.652H1162.96C1162.82 352.878 1161.44 351.712 1159.44 351.712C1157.04 351.712 1155.53 353.443 1155.53 355.941C1155.53 358.418 1157.01 360.16 1159.45 360.16ZM1170.19 349.091H1168.26V360H1170.19V349.091ZM1172.17 360H1174.1V351.818H1172.17V360ZM1173.14 350.657C1173.75 350.657 1174.25 350.188 1174.25 349.613C1174.25 349.032 1173.75 348.564 1173.14 348.564C1172.52 348.564 1172.02 349.032 1172.02 349.613C1172.02 350.188 1172.52 350.657 1173.14 350.657ZM1183.39 351.818H1181.34L1179.45 357.896H1179.37L1177.49 351.818H1175.43L1178.35 360H1180.48L1183.39 351.818ZM1184.72 360H1186.65V351.818H1184.72V360ZM1185.69 350.657C1186.31 350.657 1186.81 350.188 1186.81 349.613C1186.81 349.032 1186.31 348.564 1185.69 348.564C1185.08 348.564 1184.58 349.032 1184.58 349.613C1184.58 350.188 1185.08 350.657 1185.69 350.657ZM1190.56 355.206C1190.56 354.023 1191.28 353.342 1192.29 353.342C1193.29 353.342 1193.89 353.997 1193.89 355.089V360H1195.82V354.79C1195.82 352.83 1194.7 351.712 1193.01 351.712C1191.79 351.712 1190.95 352.298 1190.57 353.208H1190.48V351.818H1188.64V360H1190.56V355.206ZM1201.33 363.239C1203.54 363.239 1205.17 362.227 1205.17 360.133V351.818H1203.27V353.171H1203.17C1202.87 352.58 1202.26 351.712 1200.82 351.712C1198.93 351.712 1197.44 353.192 1197.44 355.882C1197.44 358.551 1198.93 359.883 1200.81 359.883C1202.21 359.883 1202.87 359.132 1203.17 358.53H1203.26V360.08C1203.26 361.284 1202.46 361.779 1201.37 361.779C1200.2 361.779 1199.69 361.23 1199.46 360.751L1197.72 361.172C1198.07 362.317 1199.25 363.239 1201.33 363.239ZM1201.35 358.37C1200.08 358.37 1199.41 357.379 1199.41 355.872C1199.41 354.386 1200.07 353.294 1201.35 353.294C1202.59 353.294 1203.27 354.322 1203.27 355.872C1203.27 357.433 1202.58 358.37 1201.35 358.37ZM1214.49 360.16C1216.4 360.16 1217.71 359.228 1218.05 357.805L1216.25 357.603C1215.99 358.295 1215.35 358.658 1214.52 358.658C1213.27 358.658 1212.45 357.837 1212.43 356.436H1218.13V355.845C1218.13 352.974 1216.41 351.712 1214.39 351.712C1212.05 351.712 1210.52 353.432 1210.52 355.957C1210.52 358.525 1212.03 360.16 1214.49 360.16ZM1212.44 355.137C1212.5 354.093 1213.27 353.214 1214.42 353.214C1215.53 353.214 1216.27 354.023 1216.28 355.137H1212.44ZM1221.18 351.818H1219.13L1221.56 355.909L1219.07 360H1221.11L1222.83 357.054L1224.56 360H1226.59L1224.08 355.909L1226.55 351.818H1224.51L1222.83 354.838L1221.18 351.818ZM1228.04 363.068H1229.97V358.711H1230.05C1230.35 359.308 1230.99 360.144 1232.39 360.144C1234.32 360.144 1235.76 358.615 1235.76 355.92C1235.76 353.192 1234.28 351.712 1232.39 351.712C1230.94 351.712 1230.34 352.58 1230.05 353.171H1229.94V351.818H1228.04V363.068ZM1229.93 355.909C1229.93 354.322 1230.61 353.294 1231.85 353.294C1233.14 353.294 1233.8 354.386 1233.8 355.909C1233.8 357.443 1233.13 358.562 1231.85 358.562C1230.62 358.562 1229.93 357.496 1229.93 355.909ZM1241.04 360.16C1242.94 360.16 1244.25 359.228 1244.59 357.805L1242.79 357.603C1242.53 358.295 1241.89 358.658 1241.06 358.658C1239.82 358.658 1238.99 357.837 1238.98 356.436H1244.67V355.845C1244.67 352.974 1242.95 351.712 1240.94 351.712C1238.59 351.712 1237.06 353.432 1237.06 355.957C1237.06 358.525 1238.57 360.16 1241.04 360.16ZM1238.98 355.137C1239.04 354.093 1239.81 353.214 1240.96 353.214C1242.07 353.214 1242.82 354.023 1242.83 355.137H1238.98ZM1248.23 355.206C1248.23 354.023 1248.95 353.342 1249.97 353.342C1250.96 353.342 1251.56 353.997 1251.56 355.089V360H1253.49V354.79C1253.49 352.83 1252.37 351.712 1250.68 351.712C1249.46 351.712 1248.62 352.298 1248.25 353.208H1248.15V351.818H1246.31V360H1248.23V355.206ZM1261.91 353.981C1261.65 352.596 1260.54 351.712 1258.62 351.712C1256.65 351.712 1255.31 352.681 1255.31 354.194C1255.31 355.387 1256.04 356.175 1257.61 356.5L1259.01 356.793C1259.76 356.958 1260.11 357.262 1260.11 357.725C1260.11 358.285 1259.51 358.706 1258.59 358.706C1257.71 358.706 1257.13 358.322 1256.96 357.587L1255.08 357.768C1255.32 359.27 1256.59 360.16 1258.59 360.16C1260.64 360.16 1262.08 359.1 1262.09 357.55C1262.08 356.383 1261.33 355.669 1259.79 355.334L1258.39 355.036C1257.56 354.849 1257.23 354.561 1257.24 354.087C1257.23 353.533 1257.84 353.15 1258.65 353.15C1259.54 353.15 1260.01 353.635 1260.16 354.173L1261.91 353.981ZM1267.3 360.16C1269.21 360.16 1270.52 359.228 1270.86 357.805L1269.06 357.603C1268.8 358.295 1268.16 358.658 1267.33 358.658C1266.08 358.658 1265.26 357.837 1265.24 356.436H1270.94V355.845C1270.94 352.974 1269.21 351.712 1267.2 351.712C1264.86 351.712 1263.33 353.432 1263.33 355.957C1263.33 358.525 1264.84 360.16 1267.3 360.16ZM1265.25 355.137C1265.3 354.093 1266.08 353.214 1267.23 353.214C1268.33 353.214 1269.08 354.023 1269.09 355.137H1265.25ZM1279.04 353.981C1278.77 352.596 1277.66 351.712 1275.75 351.712C1273.77 351.712 1272.43 352.681 1272.44 354.194C1272.43 355.387 1273.17 356.175 1274.74 356.5L1276.13 356.793C1276.89 356.958 1277.24 357.262 1277.24 357.725C1277.24 358.285 1276.63 358.706 1275.71 358.706C1274.83 358.706 1274.25 358.322 1274.09 357.587L1272.21 357.768C1272.45 359.27 1273.71 360.16 1275.72 360.16C1277.76 360.16 1279.21 359.1 1279.21 357.55C1279.21 356.383 1278.46 355.669 1276.91 355.334L1275.52 355.036C1274.69 354.849 1274.36 354.561 1274.36 354.087C1274.36 353.533 1274.97 353.15 1275.77 353.15C1276.66 353.15 1277.13 353.635 1277.28 354.173L1279.04 353.981ZM1283.16 349.091H1281.1L1281.27 356.793H1282.99L1283.16 349.091ZM1282.13 360.117C1282.76 360.117 1283.3 359.595 1283.3 358.945C1283.3 358.306 1282.76 357.784 1282.13 357.784C1281.48 357.784 1280.95 358.306 1280.96 358.945C1280.95 359.595 1281.48 360.117 1282.13 360.117Z" fill="black"/>
<path d="M704.868 218.818H706.146C706.088 217.172 704.57 215.942 702.46 215.942C700.372 215.942 698.732 217.156 698.732 218.989C698.732 220.459 699.797 221.332 701.502 221.822L702.844 222.206C703.994 222.526 705.017 222.93 705.017 224.017C705.017 225.21 703.867 225.999 702.354 225.999C701.054 225.999 699.903 225.423 699.797 224.188H698.433C698.561 225.977 700.01 227.192 702.354 227.192C704.868 227.192 706.296 225.807 706.296 224.038C706.296 221.993 704.357 221.332 703.227 221.034L702.119 220.736C701.31 220.523 700.01 220.097 700.01 218.925C700.01 217.881 700.969 217.114 702.418 217.114C703.739 217.114 704.74 217.742 704.868 218.818ZM713.453 223.655C713.453 225.189 712.281 225.892 711.344 225.892C710.3 225.892 709.554 225.125 709.554 223.932V218.818H708.297V224.017C708.297 226.105 709.405 227.107 710.939 227.107C712.175 227.107 712.985 226.446 713.368 225.615H713.453V227H714.71V218.818H713.453V223.655ZM720.102 227.17C721.679 227.17 722.212 226.19 722.489 225.743H722.638V227H723.852V216.091H722.595V220.118H722.489C722.212 219.692 721.722 218.712 720.124 218.712C718.057 218.712 716.629 220.352 716.629 222.93C716.629 225.53 718.057 227.17 720.102 227.17ZM720.273 226.041C718.696 226.041 717.886 224.656 717.886 222.909C717.886 221.183 718.675 219.841 720.273 219.841C721.807 219.841 722.617 221.077 722.617 222.909C722.617 224.763 721.786 226.041 720.273 226.041ZM729.419 227.17C730.995 227.17 731.528 226.19 731.805 225.743H731.954V227H733.169V216.091H731.912V220.118H731.805C731.528 219.692 731.038 218.712 729.44 218.712C727.373 218.712 725.946 220.352 725.946 222.93C725.946 225.53 727.373 227.17 729.419 227.17ZM729.589 226.041C728.013 226.041 727.203 224.656 727.203 222.909C727.203 221.183 727.991 219.841 729.589 219.841C731.123 219.841 731.933 221.077 731.933 222.909C731.933 224.763 731.102 226.041 729.589 226.041ZM739.076 227.17C740.738 227.17 741.953 226.339 742.336 225.104L741.122 224.763C740.802 225.615 740.062 226.041 739.076 226.041C737.601 226.041 736.583 225.088 736.525 223.335H742.464V222.803C742.464 219.756 740.653 218.712 738.948 218.712C736.732 218.712 735.262 220.459 735.262 222.973C735.262 225.487 736.711 227.17 739.076 227.17ZM736.525 222.249C736.61 220.975 737.51 219.841 738.948 219.841C740.312 219.841 741.185 220.864 741.185 222.249H736.525ZM745.633 222.078C745.633 220.651 746.517 219.841 747.721 219.841C748.888 219.841 749.596 220.603 749.596 221.886V227H750.853V221.801C750.853 219.713 749.74 218.712 748.084 218.712C746.848 218.712 746.081 219.266 745.697 220.097H745.591V218.818H744.376V227H745.633V222.078ZM697.501 248H698.758V239.818H697.501V248ZM698.14 238.455C698.63 238.455 699.035 238.071 699.035 237.602C699.035 237.134 698.63 236.75 698.14 236.75C697.65 236.75 697.245 237.134 697.245 237.602C697.245 238.071 697.65 238.455 698.14 238.455ZM702.318 243.078C702.318 241.651 703.202 240.841 704.406 240.841C705.572 240.841 706.281 241.603 706.281 242.886V248H707.538V242.801C707.538 240.713 706.425 239.712 704.768 239.712C703.532 239.712 702.765 240.266 702.382 241.097H702.275V239.818H701.061V248H702.318V243.078ZM713.159 248.17C714.97 248.17 716.163 247.062 716.376 245.614H715.119C714.885 246.509 714.139 247.041 713.159 247.041C711.668 247.041 710.709 245.805 710.709 243.909C710.709 242.055 711.689 240.841 713.159 240.841C714.267 240.841 714.927 241.523 715.119 242.268H716.376C716.163 240.734 714.864 239.712 713.138 239.712C710.922 239.712 709.452 241.459 709.452 243.952C709.452 246.402 710.858 248.17 713.159 248.17ZM721.538 248.17C723.754 248.17 725.245 246.487 725.245 243.952C725.245 241.395 723.754 239.712 721.538 239.712C719.322 239.712 717.831 241.395 717.831 243.952C717.831 246.487 719.322 248.17 721.538 248.17ZM721.538 247.041C719.855 247.041 719.088 245.592 719.088 243.952C719.088 242.311 719.855 240.841 721.538 240.841C723.221 240.841 723.988 242.311 723.988 243.952C723.988 245.592 723.221 247.041 721.538 247.041ZM727.164 248H728.421V242.886C728.421 241.688 729.295 240.841 730.275 240.841C731.229 240.841 731.894 241.464 731.894 242.396V248H733.173V242.673C733.173 241.619 733.833 240.841 734.984 240.841C735.879 240.841 736.646 241.315 736.646 242.524V248H737.903V242.524C737.903 240.601 736.869 239.712 735.41 239.712C734.238 239.712 733.381 240.25 732.96 241.097H732.874C732.47 240.223 731.756 239.712 730.68 239.712C729.615 239.712 728.826 240.223 728.485 241.097H728.379V239.818H727.164V248ZM743.632 248.17C745.294 248.17 746.508 247.339 746.892 246.104L745.677 245.763C745.358 246.615 744.617 247.041 743.632 247.041C742.156 247.041 741.139 246.088 741.08 244.335H747.02V243.803C747.02 240.756 745.208 239.712 743.504 239.712C741.288 239.712 739.818 241.459 739.818 243.973C739.818 246.487 741.267 248.17 743.632 248.17ZM741.08 243.249C741.165 241.975 742.066 240.841 743.504 240.841C744.868 240.841 745.741 241.864 745.741 243.249H741.08ZM685.339 260.818H683.507V259.987C683.507 259.178 683.847 258.751 684.678 258.751C685.041 258.751 685.254 258.837 685.382 258.879L685.744 257.793C685.552 257.707 685.169 257.58 684.551 257.58C683.379 257.58 682.249 258.283 682.249 259.689V260.818H680.928V261.884H682.249V269H683.507V261.884H685.339V260.818ZM687.101 269H688.358V263.822C688.358 262.714 689.231 261.905 690.425 261.905C690.76 261.905 691.106 261.969 691.192 261.99V260.712C691.048 260.701 690.718 260.69 690.531 260.69C689.551 260.69 688.699 261.244 688.4 262.054H688.315V260.818H687.101V269ZM695.757 269.17C697.973 269.17 699.464 267.487 699.464 264.952C699.464 262.395 697.973 260.712 695.757 260.712C693.541 260.712 692.049 262.395 692.049 264.952C692.049 267.487 693.541 269.17 695.757 269.17ZM695.757 268.041C694.073 268.041 693.306 266.592 693.306 264.952C693.306 263.311 694.073 261.841 695.757 261.841C697.44 261.841 698.207 263.311 698.207 264.952C698.207 266.592 697.44 268.041 695.757 268.041ZM701.383 269H702.64V263.886C702.64 262.688 703.514 261.841 704.494 261.841C705.447 261.841 706.113 262.464 706.113 263.396V269H707.392V263.673C707.392 262.619 708.052 261.841 709.203 261.841C710.097 261.841 710.865 262.315 710.865 263.524V269H712.122V263.524C712.122 261.601 711.088 260.712 709.629 260.712C708.457 260.712 707.599 261.25 707.178 262.097H707.093C706.688 261.223 705.975 260.712 704.899 260.712C703.833 260.712 703.045 261.223 702.704 262.097H702.597V260.818H701.383V269ZM721.047 269.192C722.474 269.192 723.22 268.425 723.475 267.892H723.539V269H724.797V263.609C724.797 261.01 722.815 260.712 721.771 260.712C720.535 260.712 719.129 261.138 718.49 262.629L719.683 263.055C719.96 262.459 720.615 261.82 721.814 261.82C722.969 261.82 723.539 262.432 723.539 263.482V263.524C723.539 264.131 722.922 264.078 721.43 264.27C719.912 264.467 718.255 264.803 718.255 266.678C718.255 268.276 719.491 269.192 721.047 269.192ZM721.238 268.062C720.237 268.062 719.512 267.615 719.512 266.741C719.512 265.783 720.386 265.484 721.366 265.357C721.899 265.293 723.326 265.143 723.539 264.888V266.038C723.539 267.061 722.73 268.062 721.238 268.062ZM734.612 272.239C736.573 272.239 738.149 271.344 738.149 269.234V260.818H736.935V262.118H736.807C736.53 261.692 736.019 260.712 734.421 260.712C732.354 260.712 730.926 262.352 730.926 264.866C730.926 267.423 732.418 268.872 734.399 268.872C735.997 268.872 736.509 267.935 736.786 267.487H736.892V269.149C736.892 270.513 735.933 271.131 734.612 271.131C733.126 271.131 732.604 270.348 732.269 269.895L731.267 270.598C731.778 271.456 732.785 272.239 734.612 272.239ZM734.57 267.743C732.993 267.743 732.183 266.55 732.183 264.845C732.183 263.183 732.972 261.841 734.57 261.841C736.104 261.841 736.913 263.077 736.913 264.845C736.913 266.656 736.082 267.743 734.57 267.743ZM740.45 269H741.707V260.818H740.45V269ZM741.09 259.455C741.58 259.455 741.984 259.071 741.984 258.602C741.984 258.134 741.58 257.75 741.09 257.75C740.6 257.75 740.195 258.134 740.195 258.602C740.195 259.071 740.6 259.455 741.09 259.455ZM747.312 272.239C749.273 272.239 750.849 271.344 750.849 269.234V260.818H749.635V262.118H749.507C749.23 261.692 748.719 260.712 747.121 260.712C745.054 260.712 743.626 262.352 743.626 264.866C743.626 267.423 745.118 268.872 747.099 268.872C748.697 268.872 749.209 267.935 749.486 267.487H749.592V269.149C749.592 270.513 748.634 271.131 747.312 271.131C745.826 271.131 745.304 270.348 744.969 269.895L743.967 270.598C744.479 271.456 745.485 272.239 747.312 272.239ZM747.27 267.743C745.693 267.743 744.884 266.55 744.884 264.845C744.884 263.183 745.672 261.841 747.27 261.841C748.804 261.841 749.614 263.077 749.614 264.845C749.614 266.656 748.783 267.743 747.27 267.743ZM720.405 290H721.64L723.43 283.714H723.558L725.348 290H726.584L729.077 281.818H727.756L725.987 288.061H725.902L724.176 281.818H722.834L721.086 288.082H721.001L719.233 281.818H717.912L720.405 290ZM733.784 290.17C736 290.17 737.491 288.487 737.491 285.952C737.491 283.395 736 281.712 733.784 281.712C731.568 281.712 730.077 283.395 730.077 285.952C730.077 288.487 731.568 290.17 733.784 290.17ZM733.784 289.041C732.101 289.041 731.334 287.592 731.334 285.952C731.334 284.311 732.101 282.841 733.784 282.841C735.467 282.841 736.234 284.311 736.234 285.952C736.234 287.592 735.467 289.041 733.784 289.041ZM739.41 290H740.667V284.822C740.667 283.714 741.541 282.905 742.734 282.905C743.07 282.905 743.416 282.969 743.501 282.99V281.712C743.357 281.701 743.027 281.69 742.841 281.69C741.861 281.69 741.008 282.244 740.71 283.054H740.625V281.818H739.41V290ZM744.991 290H746.248V286.937L747.127 286.122L750.19 290H751.788L748.076 285.312L751.533 281.818H749.977L746.398 285.462H746.248V279.091H744.991V290Z" fill="black"/>
<path d="M940.642 270.091H939.321V281H940.642V270.091ZM943.12 281H944.377V275.886C944.377 274.688 945.251 273.841 946.231 273.841C947.185 273.841 947.85 274.464 947.85 275.396V281H949.129V275.673C949.129 274.619 949.789 273.841 950.94 273.841C951.835 273.841 952.602 274.315 952.602 275.524V281H953.859V275.524C953.859 273.601 952.826 272.712 951.366 272.712C950.194 272.712 949.337 273.25 948.916 274.097H948.831C948.426 273.223 947.712 272.712 946.636 272.712C945.571 272.712 944.782 273.223 944.441 274.097H944.335V272.818H943.12V281ZM956.157 284.068H957.415V279.743H957.521C957.798 280.19 958.331 281.17 959.907 281.17C961.953 281.17 963.38 279.53 963.38 276.93C963.38 274.352 961.953 272.712 959.886 272.712C958.288 272.712 957.798 273.692 957.521 274.118H957.372V272.818H956.157V284.068ZM957.393 276.909C957.393 275.077 958.203 273.841 959.737 273.841C961.335 273.841 962.123 275.183 962.123 276.909C962.123 278.656 961.314 280.041 959.737 280.041C958.224 280.041 957.393 278.763 957.393 276.909ZM970.454 277.655C970.454 279.189 969.282 279.892 968.345 279.892C967.301 279.892 966.555 279.125 966.555 277.932V272.818H965.298V278.017C965.298 280.105 966.406 281.107 967.94 281.107C969.176 281.107 969.986 280.446 970.369 279.615H970.454V281H971.711V272.818H970.454V277.655ZM975.271 270.091H974.014V281H975.271V270.091ZM983.369 274.651C982.975 273.489 982.09 272.712 980.471 272.712C978.745 272.712 977.467 273.692 977.467 275.077C977.467 276.206 978.138 276.962 979.64 277.314L981.004 277.634C981.829 277.825 982.218 278.219 982.218 278.784C982.218 279.487 981.473 280.062 980.301 280.062C979.273 280.062 978.628 279.62 978.404 278.741L977.211 279.04C977.504 280.43 978.649 281.17 980.322 281.17C982.224 281.17 983.518 280.132 983.518 278.72C983.518 277.58 982.804 276.861 981.345 276.504L980.13 276.206C979.161 275.966 978.724 275.641 978.724 275.013C978.724 274.31 979.47 273.798 980.471 273.798C981.568 273.798 982.021 274.406 982.24 274.97L983.369 274.651ZM985.41 281H986.667V272.818H985.41V281ZM986.05 271.455C986.54 271.455 986.944 271.071 986.944 270.602C986.944 270.134 986.54 269.75 986.05 269.75C985.559 269.75 985.155 270.134 985.155 270.602C985.155 271.071 985.559 271.455 986.05 271.455ZM995.66 272.818H994.297L992.038 279.338H991.953L989.694 272.818H988.331L991.356 281H992.635L995.66 272.818ZM1000.46 281.17C1002.12 281.17 1003.33 280.339 1003.72 279.104L1002.5 278.763C1002.18 279.615 1001.44 280.041 1000.46 280.041C998.981 280.041 997.964 279.088 997.905 277.335H1003.84V276.803C1003.84 273.756 1002.03 272.712 1000.33 272.712C998.113 272.712 996.643 274.459 996.643 276.973C996.643 279.487 998.092 281.17 1000.46 281.17ZM997.905 276.249C997.991 274.975 998.891 273.841 1000.33 273.841C1001.69 273.841 1002.57 274.864 1002.57 276.249H997.905ZM944.946 295.651C944.552 294.489 943.668 293.712 942.048 293.712C940.322 293.712 939.044 294.692 939.044 296.077C939.044 297.206 939.715 297.962 941.217 298.314L942.581 298.634C943.407 298.825 943.795 299.219 943.795 299.784C943.795 300.487 943.05 301.062 941.878 301.062C940.85 301.062 940.205 300.62 939.982 299.741L938.788 300.04C939.081 301.43 940.227 302.17 941.899 302.17C943.801 302.17 945.095 301.132 945.095 299.72C945.095 298.58 944.381 297.861 942.922 297.504L941.707 297.206C940.738 296.966 940.301 296.641 940.301 296.013C940.301 295.31 941.047 294.798 942.048 294.798C943.146 294.798 943.598 295.406 943.817 295.97L944.946 295.651ZM946.987 305.068H948.245V300.743H948.351C948.628 301.19 949.161 302.17 950.737 302.17C952.783 302.17 954.21 300.53 954.21 297.93C954.21 295.352 952.783 293.712 950.716 293.712C949.118 293.712 948.628 294.692 948.351 295.118H948.202V293.818H946.987V305.068ZM948.223 297.909C948.223 296.077 949.033 294.841 950.567 294.841C952.165 294.841 952.953 296.183 952.953 297.909C952.953 299.656 952.144 301.041 950.567 301.041C949.054 301.041 948.223 299.763 948.223 297.909ZM959.559 302.17C961.22 302.17 962.435 301.339 962.818 300.104L961.604 299.763C961.284 300.615 960.544 301.041 959.559 301.041C958.083 301.041 957.066 300.088 957.007 298.335H962.946V297.803C962.946 294.756 961.135 293.712 959.431 293.712C957.215 293.712 955.745 295.459 955.745 297.973C955.745 300.487 957.193 302.17 959.559 302.17ZM957.007 297.249C957.092 295.975 957.992 294.841 959.431 294.841C960.794 294.841 961.668 295.864 961.668 297.249H957.007ZM966.116 297.078C966.116 295.651 967 294.841 968.204 294.841C969.37 294.841 970.079 295.603 970.079 296.886V302H971.336V296.801C971.336 294.713 970.223 293.712 968.566 293.712C967.33 293.712 966.563 294.266 966.18 295.097H966.073V293.818H964.859V302H966.116V297.078ZM976.722 302.17C978.299 302.17 978.832 301.19 979.109 300.743H979.258V302H980.472V291.091H979.215V295.118H979.109C978.832 294.692 978.342 293.712 976.744 293.712C974.677 293.712 973.249 295.352 973.249 297.93C973.249 300.53 974.677 302.17 976.722 302.17ZM976.893 301.041C975.316 301.041 974.507 299.656 974.507 297.909C974.507 296.183 975.295 294.841 976.893 294.841C978.427 294.841 979.237 296.077 979.237 297.909C979.237 299.763 978.406 301.041 976.893 301.041ZM982.949 302H984.206V293.818H982.949V302ZM983.589 292.455C984.079 292.455 984.483 292.071 984.483 291.602C984.483 291.134 984.079 290.75 983.589 290.75C983.099 290.75 982.694 291.134 982.694 291.602C982.694 292.071 983.099 292.455 983.589 292.455ZM987.766 297.078C987.766 295.651 988.65 294.841 989.854 294.841C991.021 294.841 991.729 295.603 991.729 296.886V302H992.986V296.801C992.986 294.713 991.873 293.712 990.216 293.712C988.981 293.712 988.214 294.266 987.83 295.097H987.723V293.818H986.509V302H987.766V297.078ZM998.586 305.239C1000.55 305.239 1002.12 304.344 1002.12 302.234V293.818H1000.91V295.118H1000.78C1000.5 294.692 999.992 293.712 998.394 293.712C996.327 293.712 994.9 295.352 994.9 297.866C994.9 300.423 996.391 301.872 998.373 301.872C999.971 301.872 1000.48 300.935 1000.76 300.487H1000.87V302.149C1000.87 303.513 999.907 304.131 998.586 304.131C997.1 304.131 996.578 303.348 996.242 302.895L995.241 303.598C995.752 304.456 996.759 305.239 998.586 305.239ZM998.543 300.743C996.967 300.743 996.157 299.55 996.157 297.845C996.157 296.183 996.945 294.841 998.543 294.841C1000.08 294.841 1000.89 296.077 1000.89 297.845C1000.89 299.656 1000.06 300.743 998.543 300.743Z" fill="black"/>
<path d="M618 222.072V217.657C618 215.158 616.727 213.933 615.028 213.933C613.376 213.933 612.407 215.105 612.348 216.266H612.242C611.991 215.201 611.246 214.359 609.919 214.359C608.295 214.359 607.091 215.531 607.091 217.896V222.072H618ZM616.349 220.096H613.153V217.918C613.153 216.698 613.898 215.941 614.873 215.941C615.741 215.941 616.349 216.538 616.349 217.971V220.096ZM611.73 220.096H608.721V218.099C608.721 216.937 609.333 216.336 610.175 216.336C611.134 216.336 611.73 217.113 611.73 218.141V220.096ZM618.165 209.945C618.165 208.661 617.563 207.894 616.876 207.543V207.479H618V205.625H612.524C610.362 205.625 609.712 207.388 609.712 208.949C609.712 210.669 610.479 211.99 611.97 212.416L612.226 210.616C611.667 210.424 611.187 209.881 611.187 208.938C611.187 208.043 611.645 207.553 612.45 207.553H612.482C613.036 207.553 613.062 208.134 613.217 209.577C613.387 211.165 613.861 212.683 615.704 212.683C617.313 212.683 618.165 211.506 618.165 209.945ZM616.748 209.444C616.748 210.248 616.381 210.824 615.672 210.824C614.932 210.824 614.623 210.179 614.5 209.316C614.431 208.81 614.303 207.798 614.101 207.548H615.065C615.976 207.548 616.748 208.283 616.748 209.444ZM613.206 201.758C612.023 201.758 611.342 201.044 611.342 200.027C611.342 199.03 611.997 198.434 613.089 198.434H618V196.506H612.79C610.83 196.5 609.712 197.619 609.712 199.307C609.712 200.533 610.298 201.374 611.208 201.747V201.843H609.818V203.686H618V201.758H613.206ZM618 194.545V192.617H615.251L614.5 191.914L618 189.41V187.104L613.35 190.46L609.818 187.29V189.544L613.105 192.484V192.617H607.091V194.545H618ZM618 182.199V180.303H616.711V180.191C617.308 179.888 618.144 179.254 618.144 177.847C618.144 175.919 616.615 174.476 613.92 174.476C611.192 174.476 609.712 175.962 609.712 177.853C609.712 179.296 610.58 179.898 611.171 180.191V180.271H607.091V182.199H618ZM613.909 180.308C612.322 180.308 611.294 179.627 611.294 178.385C611.294 177.102 612.386 176.441 613.909 176.441C615.443 176.441 616.562 177.112 616.562 178.385C616.562 179.616 615.496 180.308 613.909 180.308ZM618.165 170.482C618.165 169.198 617.563 168.431 616.876 168.08V168.016H618V166.162H612.524C610.362 166.162 609.712 167.925 609.712 169.486C609.712 171.206 610.479 172.527 611.97 172.954L612.226 171.153C611.667 170.961 611.187 170.418 611.187 169.475C611.187 168.58 611.645 168.09 612.45 168.09H612.482C613.036 168.09 613.062 168.671 613.217 170.114C613.387 171.702 613.861 173.22 615.704 173.22C617.313 173.22 618.165 172.043 618.165 170.482ZM616.748 169.981C616.748 170.786 616.381 171.361 615.672 171.361C614.932 171.361 614.623 170.716 614.5 169.853C614.431 169.347 614.303 168.335 614.101 168.085H615.065C615.976 168.085 616.748 168.82 616.748 169.981ZM607.091 162.295V164.223H618V162.295H607.091ZM618.165 157.958C618.165 156.674 617.563 155.907 616.876 155.555V155.491H618V153.638H612.524C610.362 153.638 609.712 155.401 609.712 156.961C609.712 158.682 610.479 160.003 611.97 160.429L612.226 158.629C611.667 158.437 611.187 157.894 611.187 156.951C611.187 156.056 611.645 155.566 612.45 155.566H612.482C613.036 155.566 613.062 156.146 613.217 157.59C613.387 159.177 613.861 160.695 615.704 160.695C617.313 160.695 618.165 159.518 618.165 157.958ZM616.748 157.457C616.748 158.261 616.381 158.836 615.672 158.836C614.932 158.836 614.623 158.192 614.5 157.329C614.431 156.823 614.303 155.811 614.101 155.561H615.065C615.976 155.561 616.748 156.296 616.748 157.457ZM613.206 149.77C612.023 149.77 611.342 149.057 611.342 148.039C611.342 147.043 611.997 146.447 613.089 146.447H618V144.518H612.79C610.83 144.513 609.712 145.632 609.712 147.32C609.712 148.545 610.298 149.387 611.208 149.76V149.856H609.818V151.699H618V149.77H613.206ZM618.16 138.989C618.16 136.933 616.94 135.623 615.203 135.484V137.327C616.082 137.492 616.588 138.126 616.588 138.973C616.588 140.177 615.582 140.955 613.909 140.955C612.258 140.955 611.267 140.161 611.267 138.973C611.267 138.046 611.864 137.476 612.652 137.327V135.484C610.878 135.617 609.712 137.002 609.712 139C609.712 141.397 611.443 142.91 613.941 142.91C616.418 142.91 618.16 141.434 618.16 138.989ZM618.16 130.279C618.16 128.372 617.228 127.061 615.805 126.72L615.603 128.521C616.295 128.782 616.658 129.421 616.658 130.252C616.658 131.498 615.837 132.324 614.436 132.34V126.641H613.845C610.974 126.641 609.712 128.366 609.712 130.38C609.712 132.724 611.432 134.252 613.957 134.252C616.525 134.252 618.16 132.745 618.16 130.279ZM613.137 132.335C612.093 132.276 611.214 131.504 611.214 130.353C611.214 129.245 612.023 128.5 613.137 128.489V132.335Z" fill="black"/>
<path d="M1199.6 593.748H1202.97V603H1204.93V593.748H1208.3V592.091H1199.6V593.748ZM1209.89 603H1211.82V594.818H1209.89V603ZM1210.86 593.657C1211.48 593.657 1211.98 593.188 1211.98 592.613C1211.98 592.032 1211.48 591.564 1210.86 591.564C1210.24 591.564 1209.74 592.032 1209.74 592.613C1209.74 593.188 1210.24 593.657 1210.86 593.657ZM1213.8 603H1215.73V598.025C1215.73 597.018 1216.4 596.336 1217.23 596.336C1218.05 596.336 1218.61 596.885 1218.61 597.727V603H1220.5V597.897C1220.5 596.975 1221.05 596.336 1221.98 596.336C1222.76 596.336 1223.38 596.794 1223.38 597.806V603H1225.31V597.508C1225.31 595.681 1224.26 594.712 1222.75 594.712C1221.57 594.712 1220.66 595.298 1220.3 596.208H1220.21C1219.9 595.282 1219.1 594.712 1218 594.712C1216.9 594.712 1216.08 595.276 1215.74 596.208H1215.65V594.818H1213.8V603ZM1230.89 603.16C1232.8 603.16 1234.11 602.228 1234.45 600.805L1232.65 600.603C1232.39 601.295 1231.75 601.658 1230.91 601.658C1229.67 601.658 1228.84 600.837 1228.83 599.436H1234.53V598.845C1234.53 595.974 1232.8 594.712 1230.79 594.712C1228.44 594.712 1226.91 596.432 1226.91 598.957C1226.91 601.525 1228.42 603.16 1230.89 603.16ZM1228.83 598.137C1228.89 597.093 1229.66 596.214 1230.81 596.214C1231.92 596.214 1232.67 597.023 1232.68 598.137H1228.83Z" fill="black"/>
<line x1="1087.5" y1="574.009" x2="1087.5" y2="234" stroke="black" stroke-dasharray="5 4"/>
<path d="M793.061 216.939C792.475 216.354 791.525 216.354 790.939 216.939L781.393 226.485C780.808 227.071 780.808 228.021 781.393 228.607C781.979 229.192 782.929 229.192 783.515 228.607L792 220.121L800.485 228.607C801.071 229.192 802.021 229.192 802.607 228.607C803.192 228.021 803.192 227.071 802.607 226.485L793.061 216.939ZM793.5 277V218H790.5V277H793.5Z" fill="white"/>
<path d="M899.939 320.061C900.525 320.646 901.475 320.646 902.061 320.061L911.607 310.515C912.192 309.929 912.192 308.979 911.607 308.393C911.021 307.808 910.071 307.808 909.485 308.393L901 316.879L892.515 308.393C891.929 307.808 890.979 307.808 890.393 308.393C889.808 308.979 889.808 309.929 890.393 310.515L899.939 320.061ZM899.5 260V319H902.5V260H899.5Z" fill="white"/>
<defs>
<linearGradient id="paint0_linear" x1="883.111" y1="74.7389" x2="874.747" y2="601.57" gradientUnits="userSpaceOnUse">
<stop stop-color="#EB098F"/>
<stop offset="1" stop-color="#C4C4C4" stop-opacity="0"/>
</linearGradient>
<linearGradient id="paint1_linear" x1="913" y1="436.962" x2="913" y2="581" gradientUnits="userSpaceOnUse">
<stop stop-color="#7873B9"/>
<stop offset="1" stop-color="white"/>
</linearGradient>
</defs>
</svg>
