<svg width="1350" height="670" viewBox="0 0 1350 670" fill="none" xmlns="http://www.w3.org/2000/svg">
<rect width="1350" height="670" fill="#F7F6FF"/>
<path d="M729.718 223H736.33V210.082H749.752V223H756.349V191.727H749.752V204.63H736.33V191.727H729.718V223ZM772.275 223.458C779.391 223.458 783.819 218.587 783.819 211.364C783.819 204.096 779.391 199.24 772.275 199.24C765.159 199.24 760.731 204.096 760.731 211.364C760.731 218.587 765.159 223.458 772.275 223.458ZM772.306 218.419C769.023 218.419 767.343 215.411 767.343 211.319C767.343 207.226 769.023 204.203 772.306 204.203C775.528 204.203 777.207 207.226 777.207 211.319C777.207 215.411 775.528 218.419 772.306 218.419ZM792.088 223H798.959L802.991 208.249H803.281L807.312 223H814.199L820.566 199.545H814L810.427 215.212H810.229L806.381 199.545H799.921L796.134 215.304H795.921L792.286 199.545H785.705L792.088 223ZM833.988 223H840.493V208.921C840.493 206.325 842.143 204.6 844.311 204.6C846.449 204.6 847.884 206.066 847.884 208.371V223H854.191V208.677C854.191 206.249 855.58 204.6 857.947 204.6C860.024 204.6 861.581 205.898 861.581 208.509V223H868.071V207.226C868.071 202.141 865.047 199.24 860.68 199.24C857.244 199.24 854.572 200.996 853.61 203.684H853.366C852.618 200.966 850.22 199.24 846.998 199.24C843.838 199.24 841.44 200.92 840.463 203.684H840.188V199.545H833.988V223ZM873.209 223H879.714V199.545H873.209V223ZM876.477 196.522C878.416 196.522 880.004 195.041 880.004 193.224C880.004 191.422 878.416 189.941 876.477 189.941C874.553 189.941 872.965 191.422 872.965 193.224C872.965 195.041 874.553 196.522 876.477 196.522ZM895.492 232.284C902.195 232.284 906.959 229.23 906.959 223.229V199.545H900.5V203.485H900.256C899.386 201.576 897.477 199.24 893.552 199.24C888.407 199.24 884.055 203.241 884.055 211.227C884.055 219.03 888.284 222.664 893.568 222.664C897.309 222.664 899.401 220.786 900.256 218.847H900.531V223.137C900.531 226.359 898.469 227.612 895.644 227.612C892.774 227.612 891.323 226.359 890.789 224.939L884.772 225.749C885.551 229.444 889.17 232.284 895.492 232.284ZM895.629 217.778C892.438 217.778 890.697 215.243 890.697 211.196C890.697 207.211 892.407 204.417 895.629 204.417C898.79 204.417 900.561 207.089 900.561 211.196C900.561 215.335 898.759 217.778 895.629 217.778ZM918.641 209.44C918.656 206.417 920.504 204.646 923.161 204.646C925.802 204.646 927.36 206.341 927.345 209.227V223H933.85V208.066C933.865 202.569 930.628 199.24 925.741 199.24C922.184 199.24 919.801 200.92 918.733 203.684H918.458V191.727H912.136V223H918.641V209.44ZM951.444 199.545H947.031V193.926H940.526V199.545H937.32V204.432H940.526V216.648C940.496 221.244 943.626 223.519 948.345 223.321C950.024 223.26 951.215 222.924 951.872 222.71L950.849 217.869C950.528 217.93 949.841 218.083 949.23 218.083C947.932 218.083 947.031 217.594 947.031 215.793V204.432H951.444V199.545ZM970.261 223H977.132L981.163 208.249H981.454L985.485 223H992.372L998.739 199.545H992.173L988.6 215.212H988.401L984.553 199.545H978.094L974.307 215.304H974.093L970.459 199.545H963.878L970.261 223ZM1012.31 223.458C1018.11 223.458 1022.02 220.633 1022.94 216.281L1016.92 215.884C1016.27 217.671 1014.59 218.602 1012.42 218.602C1009.16 218.602 1007.1 216.449 1007.1 212.952V212.937H1023.08V211.151C1023.08 203.18 1018.25 199.24 1012.05 199.24C1005.15 199.24 1000.67 204.142 1000.67 211.38C1000.67 218.816 1005.09 223.458 1012.31 223.458ZM1007.1 208.906C1007.24 206.234 1009.27 204.096 1012.16 204.096C1014.98 204.096 1016.94 206.112 1016.95 208.906H1007.1ZM1037.27 223H1043.78V209.73C1043.78 206.844 1045.88 204.859 1048.76 204.859C1049.66 204.859 1050.89 205.012 1051.5 205.211V199.439C1050.92 199.301 1050.11 199.21 1049.46 199.21C1046.83 199.21 1044.68 200.737 1043.82 203.638H1043.58V199.545H1037.27V223ZM1064.46 223.458C1070.27 223.458 1074.18 220.633 1075.09 216.281L1069.08 215.884C1068.42 217.671 1066.74 218.602 1064.57 218.602C1061.32 218.602 1059.26 216.449 1059.26 212.952V212.937H1075.23V211.151C1075.23 203.18 1070.4 199.24 1064.2 199.24C1057.3 199.24 1052.83 204.142 1052.83 211.38C1052.83 218.816 1057.24 223.458 1064.46 223.458ZM1059.26 208.906C1059.39 206.234 1061.43 204.096 1064.31 204.096C1067.14 204.096 1069.09 206.112 1069.11 208.906H1059.26ZM1088.12 223.382C1091.9 223.382 1093.87 221.198 1094.78 219.244H1095.05V223H1101.46V191.727H1094.97V203.485H1094.78C1093.9 201.576 1092.03 199.24 1088.1 199.24C1082.96 199.24 1078.6 203.241 1078.6 211.303C1078.6 219.152 1082.77 223.382 1088.12 223.382ZM1090.18 218.205C1086.99 218.205 1085.25 215.365 1085.25 211.273C1085.25 207.211 1086.96 204.417 1090.18 204.417C1093.34 204.417 1095.11 207.089 1095.11 211.273C1095.11 215.457 1093.31 218.205 1090.18 218.205ZM1121.85 213.013C1121.87 216.159 1119.71 217.808 1117.38 217.808C1114.92 217.808 1113.33 216.083 1113.32 213.319V199.545H1106.81V214.479C1106.83 219.961 1110.03 223.305 1114.75 223.305C1118.28 223.305 1120.81 221.488 1121.87 218.74H1122.11V223H1128.36V199.545H1121.85V213.013ZM1144.16 223.458C1150.4 223.458 1154.33 219.793 1154.63 214.403H1148.49C1148.11 216.907 1146.46 218.312 1144.23 218.312C1141.2 218.312 1139.23 215.762 1139.23 211.273C1139.23 206.844 1141.21 204.31 1144.23 204.31C1146.62 204.31 1148.14 205.882 1148.49 208.219H1154.63C1154.36 202.798 1150.25 199.24 1144.13 199.24C1137.01 199.24 1132.61 204.172 1132.61 211.364C1132.61 218.495 1136.94 223.458 1144.16 223.458ZM1169.49 223.458C1175.29 223.458 1179.2 220.633 1180.11 216.281L1174.1 215.884C1173.44 217.671 1171.76 218.602 1169.59 218.602C1166.34 218.602 1164.28 216.449 1164.28 212.952V212.937H1180.25V211.151C1180.25 203.18 1175.43 199.24 1169.23 199.24C1162.33 199.24 1157.85 204.142 1157.85 211.38C1157.85 218.816 1162.26 223.458 1169.49 223.458ZM1164.28 208.906C1164.42 206.234 1166.45 204.096 1169.33 204.096C1172.16 204.096 1174.11 206.112 1174.13 208.906H1164.28ZM728.527 257.179H738.101V283H744.637V257.179H754.211V251.727H728.527V257.179ZM771.672 264.783H757.41V269.944H771.672V264.783ZM777.337 251.727V283H783.751V262.569H784.01L792.103 282.847H796.47L804.563 262.645H804.823V283H811.236V251.727H803.082L794.47 272.739H794.104L785.491 251.727H777.337ZM827.159 283.458C834.275 283.458 838.703 278.587 838.703 271.364C838.703 264.096 834.275 259.24 827.159 259.24C820.043 259.24 815.615 264.096 815.615 271.364C815.615 278.587 820.043 283.458 827.159 283.458ZM827.19 278.419C823.907 278.419 822.227 275.411 822.227 271.319C822.227 267.226 823.907 264.203 827.19 264.203C830.411 264.203 832.091 267.226 832.091 271.319C832.091 275.411 830.411 278.419 827.19 278.419ZM843.055 283H849.468V279.244H849.758C850.659 281.198 852.629 283.382 856.416 283.382C861.761 283.382 865.929 279.152 865.929 271.303C865.929 263.241 861.577 259.24 856.431 259.24C852.507 259.24 850.629 261.576 849.758 263.485H849.56V251.727H843.055V283ZM849.422 271.273C849.422 267.089 851.194 264.417 854.355 264.417C857.577 264.417 859.287 267.211 859.287 271.273C859.287 275.365 857.546 278.205 854.355 278.205C851.224 278.205 849.422 275.457 849.422 271.273ZM870.27 283H876.775V259.545H870.27V283ZM873.537 256.522C875.477 256.522 877.065 255.041 877.065 253.224C877.065 251.422 875.477 249.941 873.537 249.941C871.613 249.941 870.025 251.422 870.025 253.224C870.025 255.041 871.613 256.522 873.537 256.522ZM888.491 251.727H881.986V283H888.491V251.727ZM904.39 283.458C910.193 283.458 914.102 280.633 915.018 276.281L909.002 275.884C908.345 277.671 906.665 278.602 904.497 278.602C901.245 278.602 899.183 276.449 899.183 272.952V272.937H915.156V271.151C915.156 263.18 910.33 259.24 904.131 259.24C897.229 259.24 892.755 264.142 892.755 271.38C892.755 278.816 897.168 283.458 904.39 283.458ZM899.183 268.906C899.321 266.234 901.352 264.096 904.238 264.096C907.062 264.096 909.017 266.112 909.032 268.906H899.183ZM935.858 251.727H929.353V283H935.858V251.727ZM947.757 283.443C951.223 283.443 953.468 281.931 954.613 279.748H954.796V283H960.965V267.18C960.965 261.592 956.232 259.24 951.009 259.24C945.39 259.24 941.695 261.928 940.794 266.203L946.81 266.692C947.253 265.134 948.642 263.989 950.979 263.989C953.193 263.989 954.46 265.104 954.46 267.028V267.119C954.46 268.631 952.857 268.83 948.78 269.227C944.138 269.654 939.969 271.212 939.969 276.449C939.969 281.091 943.283 283.443 947.757 283.443ZM949.62 278.953C947.619 278.953 946.184 278.022 946.184 276.235C946.184 274.403 947.696 273.502 949.986 273.181C951.406 272.983 953.727 272.647 954.506 272.128V274.617C954.506 277.075 952.475 278.953 949.62 278.953ZM978.487 259.545H974.074V253.926H967.569V259.545H964.363V264.432H967.569V276.648C967.539 281.244 970.669 283.519 975.388 283.321C977.067 283.26 978.258 282.924 978.915 282.71L977.892 277.869C977.571 277.93 976.884 278.083 976.273 278.083C974.975 278.083 974.074 277.594 974.074 275.793V264.432H978.487V259.545ZM993.162 283.458C998.964 283.458 1002.87 280.633 1003.79 276.281L997.773 275.884C997.117 277.671 995.437 278.602 993.269 278.602C990.016 278.602 987.955 276.449 987.955 272.952V272.937H1003.93V271.151C1003.93 263.18 999.102 259.24 992.902 259.24C986 259.24 981.526 264.142 981.526 271.38C981.526 278.816 985.939 283.458 993.162 283.458ZM987.955 268.906C988.092 266.234 990.123 264.096 993.009 264.096C995.834 264.096 997.789 266.112 997.804 268.906H987.955ZM1023.08 267.577H1008.81V272.739H1023.08V267.577ZM1028.16 291.795H1034.67V279.244H1034.86C1035.76 281.198 1037.73 283.382 1041.52 283.382C1046.87 283.382 1051.03 279.152 1051.03 271.303C1051.03 263.241 1046.68 259.24 1041.54 259.24C1037.61 259.24 1035.73 261.576 1034.86 263.485H1034.57V259.545H1028.16V291.795ZM1034.53 271.273C1034.53 267.089 1036.3 264.417 1039.46 264.417C1042.68 264.417 1044.39 267.211 1044.39 271.273C1044.39 275.365 1042.65 278.205 1039.46 278.205C1036.33 278.205 1034.53 275.457 1034.53 271.273ZM1062.06 283.443C1065.53 283.443 1067.77 281.931 1068.92 279.748H1069.1V283H1075.27V267.18C1075.27 261.592 1070.53 259.24 1065.31 259.24C1059.69 259.24 1056 261.928 1055.1 266.203L1061.11 266.692C1061.56 265.134 1062.95 263.989 1065.28 263.989C1067.5 263.989 1068.76 265.104 1068.76 267.028V267.119C1068.76 268.631 1067.16 268.83 1063.08 269.227C1058.44 269.654 1054.27 271.212 1054.27 276.449C1054.27 281.091 1057.59 283.443 1062.06 283.443ZM1063.92 278.953C1061.92 278.953 1060.49 278.022 1060.49 276.235C1060.49 274.403 1062 273.502 1064.29 273.181C1065.71 272.983 1068.03 272.647 1068.81 272.128V274.617C1068.81 277.075 1066.78 278.953 1063.92 278.953ZM1083.49 291.795C1088.33 291.795 1090.9 289.322 1092.23 285.535L1101.34 259.576L1094.45 259.545L1089.55 276.77H1089.31L1084.45 259.545H1077.61L1086.03 283.672L1085.64 284.664C1084.79 286.863 1083.15 286.97 1080.86 286.268L1079.4 291.124C1080.33 291.521 1081.84 291.795 1083.49 291.795ZM1104.67 283H1111.18V268.921C1111.18 266.325 1112.82 264.6 1114.99 264.6C1117.13 264.6 1118.57 266.066 1118.57 268.371V283H1124.87V268.677C1124.87 266.249 1126.26 264.6 1128.63 264.6C1130.71 264.6 1132.26 265.898 1132.26 268.509V283H1138.75V267.226C1138.75 262.141 1135.73 259.24 1131.36 259.24C1127.93 259.24 1125.25 260.996 1124.29 263.684H1124.05C1123.3 260.966 1120.9 259.24 1117.68 259.24C1114.52 259.24 1112.12 260.92 1111.14 263.684H1110.87V259.545H1104.67V283ZM1154.58 283.458C1160.38 283.458 1164.29 280.633 1165.21 276.281L1159.19 275.884C1158.53 277.671 1156.85 278.602 1154.69 278.602C1151.43 278.602 1149.37 276.449 1149.37 272.952V272.937H1165.34V271.151C1165.34 263.18 1160.52 259.24 1154.32 259.24C1147.42 259.24 1142.94 264.142 1142.94 271.38C1142.94 278.816 1147.36 283.458 1154.58 283.458ZM1149.37 268.906C1149.51 266.234 1151.54 264.096 1154.43 264.096C1157.25 264.096 1159.21 266.112 1159.22 268.906H1149.37ZM1176.09 269.44C1176.11 266.417 1177.91 264.646 1180.54 264.646C1183.15 264.646 1184.72 266.356 1184.71 269.227V283H1191.21V268.066C1191.21 262.599 1188.01 259.24 1183.12 259.24C1179.64 259.24 1177.12 260.95 1176.06 263.684H1175.79V259.545H1169.59V283H1176.09V269.44ZM1208.81 259.545H1204.4V253.926H1197.9V259.545H1194.69V264.432H1197.9V276.648C1197.87 281.244 1201 283.519 1205.71 283.321C1207.39 283.26 1208.59 282.924 1209.24 282.71L1208.22 277.869C1207.9 277.93 1207.21 278.083 1206.6 278.083C1205.3 278.083 1204.4 277.594 1204.4 275.793V264.432H1208.81V259.545ZM1232.23 266.234C1231.65 261.912 1228.17 259.24 1222.24 259.24C1216.24 259.24 1212.29 262.019 1212.3 266.539C1212.29 270.051 1214.5 272.326 1219.08 273.243L1223.15 274.052C1225.19 274.464 1226.12 275.212 1226.15 276.388C1226.12 277.778 1224.61 278.77 1222.34 278.77C1220.02 278.77 1218.47 277.778 1218.08 275.869L1211.68 276.205C1212.29 280.694 1216.11 283.458 1222.32 283.458C1228.4 283.458 1232.75 280.358 1232.77 275.732C1232.75 272.342 1230.54 270.311 1225.99 269.379L1221.74 268.524C1219.56 268.051 1218.75 267.303 1218.76 266.173C1218.75 264.768 1220.34 263.852 1222.35 263.852C1224.61 263.852 1225.95 265.088 1226.28 266.6L1232.23 266.234ZM1243.93 278.724H1238.56L1238.48 280.435C1238.3 284.588 1237.11 288.848 1236.66 290.635H1240.88C1241.61 288.787 1243.35 284.451 1243.76 280.404L1243.93 278.724ZM736.284 343.443C739.75 343.443 741.995 341.931 743.14 339.748H743.324V343H749.493V327.18C749.493 321.592 744.759 319.24 739.537 319.24C733.917 319.24 730.222 321.928 729.321 326.203L735.337 326.692C735.78 325.134 737.17 323.989 739.506 323.989C741.72 323.989 742.988 325.104 742.988 327.028V327.119C742.988 328.631 741.384 328.83 737.307 329.227C732.665 329.654 728.496 331.212 728.496 336.449C728.496 341.091 731.81 343.443 736.284 343.443ZM738.147 338.953C736.147 338.953 734.711 338.022 734.711 336.235C734.711 334.403 736.223 333.502 738.513 333.181C739.934 332.983 742.255 332.647 743.033 332.128V334.617C743.033 337.075 741.002 338.953 738.147 338.953ZM761.044 329.44C761.059 326.417 762.861 324.646 765.488 324.646C768.099 324.646 769.672 326.356 769.656 329.227V343H776.161V328.066C776.161 322.599 772.955 319.24 768.068 319.24C764.587 319.24 762.067 320.95 761.014 323.684H760.739V319.545H754.539V343H761.044V329.44ZM789.931 343.382C793.718 343.382 795.688 341.198 796.589 339.244H796.864V343H803.277V311.727H796.787V323.485H796.589C795.718 321.576 793.84 319.24 789.916 319.24C784.77 319.24 780.418 323.241 780.418 331.303C780.418 339.152 784.587 343.382 789.931 343.382ZM791.992 338.205C788.801 338.205 787.06 335.365 787.06 331.273C787.06 327.211 788.771 324.417 791.992 324.417C795.153 324.417 796.925 327.089 796.925 331.273C796.925 335.457 795.123 338.205 791.992 338.205ZM818.577 343H825.082V328.921C825.082 326.325 826.731 324.6 828.9 324.6C831.038 324.6 832.473 326.066 832.473 328.371V343H838.779V328.677C838.779 326.249 840.169 324.6 842.536 324.6C844.612 324.6 846.17 325.898 846.17 328.509V343H852.66V327.226C852.66 322.141 849.636 319.24 845.269 319.24C841.833 319.24 839.161 320.996 838.199 323.684H837.955C837.207 320.966 834.809 319.24 831.587 319.24C828.426 319.24 826.029 320.92 825.052 323.684H824.777V319.545H818.577V343ZM864.486 343.443C867.953 343.443 870.197 341.931 871.342 339.748H871.526V343H877.695V327.18C877.695 321.592 872.961 319.24 867.739 319.24C862.119 319.24 858.424 321.928 857.523 326.203L863.54 326.692C863.982 325.134 865.372 323.989 867.708 323.989C869.922 323.989 871.19 325.104 871.19 327.028V327.119C871.19 328.631 869.586 328.83 865.509 329.227C860.867 329.654 856.699 331.212 856.699 336.449C856.699 341.091 860.012 343.443 864.486 343.443ZM866.349 338.953C864.349 338.953 862.913 338.022 862.913 336.235C862.913 334.403 864.425 333.502 866.716 333.181C868.136 332.983 870.457 332.647 871.236 332.128V334.617C871.236 337.075 869.205 338.953 866.349 338.953ZM882.741 343H889.246V335.548L891.002 333.548L897.4 343H905.02L895.873 329.7L904.577 319.545H897.11L889.598 328.448H889.246V311.727H882.741V343ZM917.492 343.458C923.294 343.458 927.203 340.633 928.12 336.281L922.103 335.884C921.447 337.671 919.767 338.602 917.599 338.602C914.346 338.602 912.285 336.449 912.285 332.952V332.937H928.257V331.151C928.257 323.18 923.432 319.24 917.232 319.24C910.33 319.24 905.856 324.142 905.856 331.38C905.856 338.816 910.269 343.458 917.492 343.458ZM912.285 328.906C912.422 326.234 914.453 324.096 917.339 324.096C920.164 324.096 922.119 326.112 922.134 328.906H912.285ZM954.93 319.545H950.517V313.926H944.012V319.545H940.805V324.432H944.012V336.648C943.981 341.244 947.112 343.519 951.83 343.321C953.51 343.26 954.701 342.924 955.357 342.71L954.334 337.869C954.014 337.93 953.326 338.083 952.716 338.083C951.418 338.083 950.517 337.594 950.517 335.793V324.432H954.93V319.545ZM966.176 329.44C966.191 326.417 968.039 324.646 970.696 324.646C973.338 324.646 974.895 326.341 974.88 329.227V343H981.385V328.066C981.4 322.569 978.163 319.24 973.277 319.24C969.719 319.24 967.337 320.92 966.268 323.684H965.993V311.727H959.671V343H966.176V329.44ZM997.193 343.458C1003 343.458 1006.9 340.633 1007.82 336.281L1001.8 335.884C1001.15 337.671 999.468 338.602 997.3 338.602C994.047 338.602 991.986 336.449 991.986 332.952V332.937H1007.96V331.151C1007.96 323.18 1003.13 319.24 996.933 319.24C990.031 319.24 985.557 324.142 985.557 331.38C985.557 338.816 989.97 343.458 997.193 343.458ZM991.986 328.906C992.123 326.234 994.154 324.096 997.04 324.096C999.865 324.096 1001.82 326.112 1001.84 328.906H991.986ZM1022.28 343H1028.69V339.244H1028.98C1029.88 341.198 1031.85 343.382 1035.64 343.382C1040.98 343.382 1045.15 339.152 1045.15 331.303C1045.15 323.241 1040.8 319.24 1035.65 319.24C1031.73 319.24 1029.85 321.576 1028.98 323.485H1028.78V311.727H1022.28V343ZM1028.65 331.273C1028.65 327.089 1030.42 324.417 1033.58 324.417C1036.8 324.417 1038.51 327.211 1038.51 331.273C1038.51 335.365 1036.77 338.205 1033.58 338.205C1030.45 338.205 1028.65 335.457 1028.65 331.273ZM1049.49 343H1056V319.545H1049.49V343ZM1052.76 316.522C1054.7 316.522 1056.29 315.041 1056.29 313.224C1056.29 311.422 1054.7 309.941 1052.76 309.941C1050.84 309.941 1049.25 311.422 1049.25 313.224C1049.25 315.041 1050.84 316.522 1052.76 316.522ZM1067.71 311.727H1061.21V343H1067.71V311.727ZM1079.43 311.727H1072.92V343H1079.43V311.727ZM729.596 411.795H736.101V399.244H736.299C737.2 401.198 739.17 403.382 742.957 403.382C748.301 403.382 752.47 399.152 752.47 391.303C752.47 383.241 748.118 379.24 742.972 379.24C739.048 379.24 737.17 381.576 736.299 383.485H736.009V379.545H729.596V411.795ZM735.963 391.273C735.963 387.089 737.735 384.417 740.896 384.417C744.118 384.417 745.828 387.211 745.828 391.273C745.828 395.365 744.087 398.205 740.896 398.205C737.765 398.205 735.963 395.457 735.963 391.273ZM763.495 403.443C766.961 403.443 769.206 401.931 770.351 399.748H770.534V403H776.703V387.18C776.703 381.592 771.97 379.24 766.748 379.24C761.128 379.24 757.433 381.928 756.532 386.203L762.548 386.692C762.991 385.134 764.381 383.989 766.717 383.989C768.931 383.989 770.199 385.104 770.199 387.028V387.119C770.199 388.631 768.595 388.83 764.518 389.227C759.876 389.654 755.707 391.212 755.707 396.449C755.707 401.091 759.021 403.443 763.495 403.443ZM765.358 398.953C763.358 398.953 761.922 398.022 761.922 396.235C761.922 394.403 763.434 393.502 765.724 393.181C767.145 392.983 769.466 392.647 770.244 392.128V394.617C770.244 397.075 768.213 398.953 765.358 398.953ZM784.926 411.795C789.767 411.795 792.332 409.322 793.661 405.535L802.777 379.576L795.89 379.545L790.988 396.77H790.744L785.888 379.545H779.047L787.461 403.672L787.079 404.664C786.224 406.863 784.59 406.97 782.3 406.268L780.834 411.124C781.765 411.521 783.277 411.795 784.926 411.795ZM806.106 403H812.611V388.921C812.611 386.325 814.26 384.6 816.428 384.6C818.566 384.6 820.001 386.066 820.001 388.371V403H826.308V388.677C826.308 386.249 827.697 384.6 830.064 384.6C832.141 384.6 833.698 385.898 833.698 388.509V403H840.188V387.226C840.188 382.141 837.165 379.24 832.797 379.24C829.362 379.24 826.689 380.996 825.727 383.684H825.483C824.735 380.966 822.338 379.24 819.116 379.24C815.955 379.24 813.557 380.92 812.58 383.684H812.305V379.545H806.106V403ZM856.015 403.458C861.818 403.458 865.727 400.633 866.643 396.281L860.627 395.884C859.97 397.671 858.29 398.602 856.122 398.602C852.87 398.602 850.808 396.449 850.808 392.952V392.937H866.781V391.151C866.781 383.18 861.955 379.24 855.756 379.24C848.854 379.24 844.38 384.142 844.38 391.38C844.38 398.816 848.793 403.458 856.015 403.458ZM850.808 388.906C850.946 386.234 852.977 384.096 855.863 384.096C858.688 384.096 860.642 386.112 860.657 388.906H850.808ZM877.531 389.44C877.546 386.417 879.348 384.646 881.974 384.646C884.585 384.646 886.158 386.356 886.143 389.227V403H892.648V388.066C892.648 382.599 889.441 379.24 884.555 379.24C881.073 379.24 878.554 380.95 877.5 383.684H877.225V379.545H871.026V403H877.531V389.44ZM910.25 379.545H905.837V373.926H899.332V379.545H896.125V384.432H899.332V396.648C899.302 401.244 902.432 403.519 907.15 403.321C908.83 403.26 910.021 402.924 910.678 402.71L909.655 397.869C909.334 397.93 908.647 398.083 908.036 398.083C906.738 398.083 905.837 397.594 905.837 395.793V384.432H910.25V379.545ZM935.129 403.458C940.931 403.458 944.84 400.633 945.756 396.281L939.74 395.884C939.083 397.671 937.404 398.602 935.235 398.602C931.983 398.602 929.922 396.449 929.922 392.952V392.937H945.894V391.151C945.894 383.18 941.069 379.24 934.869 379.24C927.967 379.24 923.493 384.142 923.493 391.38C923.493 398.816 927.906 403.458 935.129 403.458ZM929.922 388.906C930.059 386.234 932.09 384.096 934.976 384.096C937.801 384.096 939.755 386.112 939.771 388.906H929.922ZM955.197 379.545H948.478L955.197 391.273L948.234 403H954.953L959.503 394.892L964.13 403H970.772L963.794 391.273L970.589 379.545H963.916L959.503 387.745L955.197 379.545ZM974.452 411.795H980.957V399.244H981.156C982.057 401.198 984.027 403.382 987.813 403.382C993.158 403.382 997.327 399.152 997.327 391.303C997.327 383.241 992.975 379.24 987.829 379.24C983.904 379.24 982.026 381.576 981.156 383.485H980.866V379.545H974.452V411.795ZM980.82 391.273C980.82 387.089 982.591 384.417 985.752 384.417C988.974 384.417 990.684 387.211 990.684 391.273C990.684 395.365 988.943 398.205 985.752 398.205C982.622 398.205 980.82 395.457 980.82 391.273ZM1012.35 403.458C1018.15 403.458 1022.06 400.633 1022.98 396.281L1016.96 395.884C1016.31 397.671 1014.63 398.602 1012.46 398.602C1009.21 398.602 1007.15 396.449 1007.15 392.952V392.937H1023.12V391.151C1023.12 383.18 1018.29 379.24 1012.09 379.24C1005.19 379.24 1000.72 384.142 1000.72 391.38C1000.72 398.816 1005.13 403.458 1012.35 403.458ZM1007.15 388.906C1007.28 386.234 1009.31 384.096 1012.2 384.096C1015.02 384.096 1016.98 386.112 1016.99 388.906H1007.15ZM1027.36 403H1033.87V389.73C1033.87 386.844 1035.97 384.859 1038.85 384.859C1039.75 384.859 1040.98 385.012 1041.59 385.211V379.439C1041.01 379.301 1040.2 379.21 1039.55 379.21C1036.92 379.21 1034.77 380.737 1033.91 383.638H1033.67V379.545H1027.36V403ZM1044.96 403H1051.46V379.545H1044.96V403ZM1048.22 376.522C1050.16 376.522 1051.75 375.041 1051.75 373.224C1051.75 371.422 1050.16 369.941 1048.22 369.941C1046.3 369.941 1044.71 371.422 1044.71 373.224C1044.71 375.041 1046.3 376.522 1048.22 376.522ZM1067.36 403.458C1073.16 403.458 1077.07 400.633 1077.99 396.281L1071.97 395.884C1071.32 397.671 1069.64 398.602 1067.47 398.602C1064.22 398.602 1062.15 396.449 1062.15 392.952V392.937H1078.13V391.151C1078.13 383.18 1073.3 379.24 1067.1 379.24C1060.2 379.24 1055.73 384.142 1055.73 391.38C1055.73 398.816 1060.14 403.458 1067.36 403.458ZM1062.15 388.906C1062.29 386.234 1064.32 384.096 1067.21 384.096C1070.03 384.096 1071.99 386.112 1072 388.906H1062.15ZM1088.88 389.44C1088.89 386.417 1090.69 384.646 1093.32 384.646C1095.93 384.646 1097.5 386.356 1097.49 389.227V403H1103.99V388.066C1103.99 382.599 1100.79 379.24 1095.9 379.24C1092.42 379.24 1089.9 380.95 1088.85 383.684H1088.57V379.545H1082.37V403H1088.88V389.44ZM1119.72 403.458C1125.96 403.458 1129.89 399.793 1130.19 394.403H1124.06C1123.67 396.907 1122.02 398.312 1119.79 398.312C1116.76 398.312 1114.79 395.762 1114.79 391.273C1114.79 386.844 1116.77 384.31 1119.79 384.31C1122.18 384.31 1123.7 385.882 1124.06 388.219H1130.19C1129.92 382.798 1125.81 379.24 1119.69 379.24C1112.57 379.24 1108.17 384.172 1108.17 391.364C1108.17 398.495 1112.5 403.458 1119.72 403.458ZM1145.05 403.458C1150.85 403.458 1154.76 400.633 1155.68 396.281L1149.66 395.884C1149 397.671 1147.32 398.602 1145.15 398.602C1141.9 398.602 1139.84 396.449 1139.84 392.952V392.937H1155.81V391.151C1155.81 383.18 1150.99 379.24 1144.79 379.24C1137.89 379.24 1133.41 384.142 1133.41 391.38C1133.41 398.816 1137.82 403.458 1145.05 403.458ZM1139.84 388.906C1139.98 386.234 1142.01 384.096 1144.89 384.096C1147.72 384.096 1149.67 386.112 1149.69 388.906H1139.84ZM729.596 471.795H736.101V459.244H736.299C737.2 461.198 739.17 463.382 742.957 463.382C748.301 463.382 752.47 459.152 752.47 451.303C752.47 443.241 748.118 439.24 742.972 439.24C739.048 439.24 737.17 441.576 736.299 443.485H736.009V439.545H729.596V471.795ZM735.963 451.273C735.963 447.089 737.735 444.417 740.896 444.417C744.118 444.417 745.828 447.211 745.828 451.273C745.828 455.365 744.087 458.205 740.896 458.205C737.765 458.205 735.963 455.457 735.963 451.273ZM763.312 431.727H756.807V463H763.312V431.727ZM779.212 463.458C785.014 463.458 788.923 460.633 789.839 456.281L783.823 455.884C783.166 457.671 781.487 458.602 779.318 458.602C776.066 458.602 774.005 456.449 774.005 452.952V452.937H789.977V451.151C789.977 443.18 785.152 439.24 778.952 439.24C772.05 439.24 767.576 444.142 767.576 451.38C767.576 458.816 771.989 463.458 779.212 463.458ZM774.005 448.906C774.142 446.234 776.173 444.096 779.059 444.096C781.884 444.096 783.838 446.112 783.854 448.906H774.005ZM800.91 463.443C804.376 463.443 806.621 461.931 807.766 459.748H807.949V463H814.119V447.18C814.119 441.592 809.385 439.24 804.163 439.24C798.543 439.24 794.848 441.928 793.947 446.203L799.963 446.692C800.406 445.134 801.796 443.989 804.132 443.989C806.346 443.989 807.614 445.104 807.614 447.028V447.119C807.614 448.631 806.01 448.83 801.933 449.227C797.291 449.654 793.122 451.212 793.122 456.449C793.122 461.091 796.436 463.443 800.91 463.443ZM802.773 458.953C800.773 458.953 799.337 458.022 799.337 456.235C799.337 454.403 800.849 453.502 803.139 453.181C804.56 452.983 806.881 452.647 807.659 452.128V454.617C807.659 457.075 805.628 458.953 802.773 458.953ZM838.68 446.234C838.1 441.912 834.618 439.24 828.694 439.24C822.693 439.24 818.738 442.019 818.753 446.539C818.738 450.051 820.952 452.326 825.533 453.243L829.595 454.052C831.641 454.464 832.572 455.212 832.603 456.388C832.572 457.778 831.06 458.77 828.785 458.77C826.464 458.77 824.922 457.778 824.525 455.869L818.127 456.205C818.738 460.694 822.555 463.458 828.77 463.458C834.847 463.458 839.199 460.358 839.215 455.732C839.199 452.342 836.985 450.311 832.435 449.379L828.19 448.524C826.006 448.051 825.197 447.303 825.212 446.173C825.197 444.768 826.785 443.852 828.801 443.852C831.06 443.852 832.404 445.088 832.725 446.6L838.68 446.234ZM849.999 463.443C853.465 463.443 855.71 461.931 856.855 459.748H857.038V463H863.207V447.18C863.207 441.592 858.474 439.24 853.251 439.24C847.632 439.24 843.937 441.928 843.036 446.203L849.052 446.692C849.495 445.134 850.885 443.989 853.221 443.989C855.435 443.989 856.702 445.104 856.702 447.028V447.119C856.702 448.631 855.099 448.83 851.022 449.227C846.38 449.654 842.211 451.212 842.211 456.449C842.211 461.091 845.525 463.443 849.999 463.443ZM851.862 458.953C849.862 458.953 848.426 458.022 848.426 456.235C848.426 454.403 849.938 453.502 852.228 453.181C853.648 452.983 855.969 452.647 856.748 452.128V454.617C856.748 457.075 854.717 458.953 851.862 458.953ZM874.759 449.44C874.774 446.417 876.576 444.646 879.203 444.646C881.814 444.646 883.387 446.356 883.371 449.227V463H889.876V448.066C889.876 442.599 886.67 439.24 881.783 439.24C878.302 439.24 875.782 440.95 874.729 443.684H874.454V439.545H868.254V463H874.759V449.44ZM907.479 439.545H903.066V433.926H896.561V439.545H893.354V444.432H896.561V456.648C896.53 461.244 899.66 463.519 904.379 463.321C906.059 463.26 907.25 462.924 907.906 462.71L906.883 457.869C906.562 457.93 905.875 458.083 905.264 458.083C903.967 458.083 903.066 457.594 903.066 455.793V444.432H907.479V439.545ZM928.356 463.443C931.823 463.443 934.067 461.931 935.213 459.748H935.396V463H941.565V447.18C941.565 441.592 936.831 439.24 931.609 439.24C925.99 439.24 922.294 441.928 921.393 446.203L927.41 446.692C927.852 445.134 929.242 443.989 931.578 443.989C933.792 443.989 935.06 445.104 935.06 447.028V447.119C935.06 448.631 933.456 448.83 929.379 449.227C924.737 449.654 920.569 451.212 920.569 456.449C920.569 461.091 923.882 463.443 928.356 463.443ZM930.219 458.953C928.219 458.953 926.784 458.022 926.784 456.235C926.784 454.403 928.295 453.502 930.586 453.181C932.006 452.983 934.327 452.647 935.106 452.128V454.617C935.106 457.075 933.075 458.953 930.219 458.953ZM953.116 449.44C953.132 446.417 954.934 444.646 957.56 444.646C960.171 444.646 961.744 446.356 961.729 449.227V463H968.234V448.066C968.234 442.599 965.027 439.24 960.141 439.24C956.659 439.24 954.14 440.95 953.086 443.684H952.811V439.545H946.612V463H953.116V449.44ZM982.003 463.382C985.79 463.382 987.76 461.198 988.661 459.244H988.936V463H995.349V431.727H988.859V443.485H988.661C987.791 441.576 985.912 439.24 981.988 439.24C976.842 439.24 972.49 443.241 972.49 451.303C972.49 459.152 976.659 463.382 982.003 463.382ZM984.065 458.205C980.873 458.205 979.133 455.365 979.133 451.273C979.133 447.211 980.843 444.417 984.065 444.417C987.226 444.417 988.997 447.089 988.997 451.273C988.997 455.457 987.195 458.205 984.065 458.205ZM1021.34 463.458C1027.14 463.458 1031.05 460.633 1031.97 456.281L1025.95 455.884C1025.29 457.671 1023.61 458.602 1021.45 458.602C1018.19 458.602 1016.13 456.449 1016.13 452.952V452.937H1032.1V451.151C1032.1 443.18 1027.28 439.24 1021.08 439.24C1014.18 439.24 1009.7 444.142 1009.7 451.38C1009.7 458.816 1014.12 463.458 1021.34 463.458ZM1016.13 448.906C1016.27 446.234 1018.3 444.096 1021.19 444.096C1024.01 444.096 1025.97 446.112 1025.98 448.906H1016.13ZM1042.85 449.44C1042.87 446.417 1044.67 444.646 1047.3 444.646C1049.91 444.646 1051.48 446.356 1051.47 449.227V463H1057.97V448.066C1057.97 442.599 1054.76 439.24 1049.88 439.24C1046.4 439.24 1043.88 440.95 1042.82 443.684H1042.55V439.545H1036.35V463H1042.85V449.44ZM1063.1 439.545V464.054C1063.1 465.825 1062.35 466.711 1060.26 466.711C1059.98 466.711 1059.74 466.711 1059.4 466.68V471.765C1059.88 471.78 1060.26 471.795 1060.72 471.795C1066.24 471.795 1069.6 469.597 1069.6 464.161V439.545H1063.1ZM1066.34 436.522C1068.27 436.522 1069.86 435.041 1069.86 433.224C1069.86 431.422 1068.27 429.941 1066.34 429.941C1064.41 429.941 1062.82 431.422 1062.82 433.224C1062.82 435.041 1064.41 436.522 1066.34 436.522ZM1085.41 463.458C1092.53 463.458 1096.95 458.587 1096.95 451.364C1096.95 444.096 1092.53 439.24 1085.41 439.24C1078.3 439.24 1073.87 444.096 1073.87 451.364C1073.87 458.587 1078.3 463.458 1085.41 463.458ZM1085.44 458.419C1082.16 458.419 1080.48 455.411 1080.48 451.319C1080.48 447.226 1082.16 444.203 1085.44 444.203C1088.66 444.203 1090.34 447.226 1090.34 451.319C1090.34 455.411 1088.66 458.419 1085.44 458.419ZM1104.4 471.795C1109.24 471.795 1111.81 469.322 1113.14 465.535L1122.25 439.576L1115.37 439.545L1110.47 456.77H1110.22L1105.36 439.545H1098.52L1106.94 463.672L1106.56 464.664C1105.7 466.863 1104.07 466.97 1101.78 466.268L1100.31 471.124C1101.24 471.521 1102.75 471.795 1104.4 471.795ZM1131.6 463.443C1135.06 463.443 1137.31 461.931 1138.45 459.748H1138.64V463H1144.81V447.18C1144.81 441.592 1140.07 439.24 1134.85 439.24C1129.23 439.24 1125.54 441.928 1124.64 446.203L1130.65 446.692C1131.09 445.134 1132.48 443.989 1134.82 443.989C1137.03 443.989 1138.3 445.104 1138.3 447.028V447.119C1138.3 448.631 1136.7 448.83 1132.62 449.227C1127.98 449.654 1123.81 451.212 1123.81 456.449C1123.81 461.091 1127.12 463.443 1131.6 463.443ZM1133.46 458.953C1131.46 458.953 1130.03 458.022 1130.03 456.235C1130.03 454.403 1131.54 453.502 1133.83 453.181C1135.25 452.983 1137.57 452.647 1138.35 452.128V454.617C1138.35 457.075 1136.32 458.953 1133.46 458.953ZM1149.98 463H1156.39V459.244H1156.68C1157.58 461.198 1159.55 463.382 1163.34 463.382C1168.68 463.382 1172.85 459.152 1172.85 451.303C1172.85 443.241 1168.5 439.24 1163.35 439.24C1159.43 439.24 1157.55 441.576 1156.68 443.485H1156.48V431.727H1149.98V463ZM1156.34 451.273C1156.34 447.089 1158.11 444.417 1161.28 444.417C1164.5 444.417 1166.21 447.211 1166.21 451.273C1166.21 455.365 1164.47 458.205 1161.28 458.205C1158.15 458.205 1156.34 455.457 1156.34 451.273ZM1183.7 431.727H1177.19V463H1183.7V431.727ZM1199.6 463.458C1205.4 463.458 1209.31 460.633 1210.22 456.281L1204.21 455.884C1203.55 457.671 1201.87 458.602 1199.7 458.602C1196.45 458.602 1194.39 456.449 1194.39 452.952V452.937H1210.36V451.151C1210.36 443.18 1205.54 439.24 1199.34 439.24C1192.43 439.24 1187.96 444.142 1187.96 451.38C1187.96 458.816 1192.37 463.458 1199.6 463.458ZM1194.39 448.906C1194.53 446.234 1196.56 444.096 1199.44 444.096C1202.27 444.096 1204.22 446.112 1204.24 448.906H1194.39ZM742.209 499.545H737.551V497.973C737.551 496.385 738.193 495.453 740.102 495.453C740.88 495.453 741.674 495.621 742.194 495.789L743.339 490.903C742.529 490.658 740.743 490.261 738.743 490.261C734.33 490.261 731.047 492.75 731.047 497.85V499.545H727.733V504.432H731.047V523H737.551V504.432H742.209V499.545ZM755.94 523.458C763.056 523.458 767.484 518.587 767.484 511.364C767.484 504.096 763.056 499.24 755.94 499.24C748.824 499.24 744.396 504.096 744.396 511.364C744.396 518.587 748.824 523.458 755.94 523.458ZM755.971 518.419C752.688 518.419 751.008 515.411 751.008 511.319C751.008 507.226 752.688 504.203 755.971 504.203C759.193 504.203 760.872 507.226 760.872 511.319C760.872 515.411 759.193 518.419 755.971 518.419ZM771.714 523H778.219V509.73C778.219 506.844 780.326 504.859 783.197 504.859C784.098 504.859 785.335 505.012 785.946 505.211V499.439C785.365 499.301 784.556 499.21 783.899 499.21C781.273 499.21 779.12 500.737 778.265 503.638H778.021V499.545H771.714V523ZM809.858 523.458C816.104 523.458 820.028 519.793 820.333 514.403H814.195C813.813 516.907 812.164 518.312 809.935 518.312C806.896 518.312 804.926 515.762 804.926 511.273C804.926 506.844 806.911 504.31 809.935 504.31C812.317 504.31 813.844 505.882 814.195 508.219H820.333C820.059 502.798 815.951 499.24 809.828 499.24C802.712 499.24 798.314 504.172 798.314 511.364C798.314 518.495 802.636 523.458 809.858 523.458ZM839.539 513.013C839.554 516.159 837.401 517.808 835.065 517.808C832.607 517.808 831.018 516.083 831.003 513.319V499.545H824.498V514.479C824.513 519.961 827.72 523.305 832.439 523.305C835.966 523.305 838.501 521.488 839.554 518.74H839.799V523H846.044V499.545H839.539V513.013ZM870.762 506.234C870.182 501.912 866.7 499.24 860.776 499.24C854.775 499.24 850.82 502.019 850.835 506.539C850.82 510.051 853.034 512.326 857.615 513.243L861.677 514.052C863.723 514.464 864.654 515.212 864.685 516.388C864.654 517.778 863.142 518.77 860.867 518.77C858.546 518.77 857.004 517.778 856.607 515.869L850.209 516.205C850.82 520.694 854.637 523.458 860.852 523.458C866.929 523.458 871.281 520.358 871.297 515.732C871.281 512.342 869.067 510.311 864.517 509.379L860.272 508.524C858.088 508.051 857.279 507.303 857.294 506.173C857.279 504.768 858.867 503.852 860.883 503.852C863.142 503.852 864.486 505.088 864.807 506.6L870.762 506.234ZM887.868 499.545H883.455V493.926H876.95V499.545H873.744V504.432H876.95V516.648C876.92 521.244 880.05 523.519 884.768 523.321C886.448 523.26 887.639 522.924 888.296 522.71L887.273 517.869C886.952 517.93 886.265 518.083 885.654 518.083C884.356 518.083 883.455 517.594 883.455 515.793V504.432H887.868V499.545ZM902.451 523.458C909.567 523.458 913.995 518.587 913.995 511.364C913.995 504.096 909.567 499.24 902.451 499.24C895.335 499.24 890.907 504.096 890.907 511.364C890.907 518.587 895.335 523.458 902.451 523.458ZM902.482 518.419C899.199 518.419 897.519 515.411 897.519 511.319C897.519 507.226 899.199 504.203 902.482 504.203C905.703 504.203 907.383 507.226 907.383 511.319C907.383 515.411 905.703 518.419 902.482 518.419ZM918.225 523H924.73V508.921C924.73 506.325 926.379 504.6 928.547 504.6C930.685 504.6 932.12 506.066 932.12 508.371V523H938.427V508.677C938.427 506.249 939.816 504.6 942.183 504.6C944.26 504.6 945.817 505.898 945.817 508.509V523H952.307V507.226C952.307 502.141 949.284 499.24 944.917 499.24C941.481 499.24 938.809 500.996 937.847 503.684H937.602C936.854 500.966 934.457 499.24 931.235 499.24C928.074 499.24 925.676 500.92 924.699 503.684H924.424V499.545H918.225V523ZM968.134 523.458C973.937 523.458 977.846 520.633 978.762 516.281L972.746 515.884C972.089 517.671 970.41 518.602 968.241 518.602C964.989 518.602 962.927 516.449 962.927 512.952V512.937H978.9V511.151C978.9 503.18 974.074 499.24 967.875 499.24C960.973 499.24 956.499 504.142 956.499 511.38C956.499 518.816 960.912 523.458 968.134 523.458ZM962.927 508.906C963.065 506.234 965.096 504.096 967.982 504.096C970.807 504.096 972.761 506.112 972.776 508.906H962.927ZM983.145 523H989.65V509.73C989.65 506.844 991.757 504.859 994.628 504.859C995.529 504.859 996.765 505.012 997.376 505.211V499.439C996.796 499.301 995.987 499.21 995.33 499.21C992.704 499.21 990.551 500.737 989.695 503.638H989.451V499.545H983.145V523ZM1020.25 506.234C1019.67 501.912 1016.19 499.24 1010.27 499.24C1004.27 499.24 1000.31 502.019 1000.33 506.539C1000.31 510.051 1002.53 512.326 1007.11 513.243L1011.17 514.052C1013.21 514.464 1014.15 515.212 1014.18 516.388C1014.15 517.778 1012.63 518.77 1010.36 518.77C1008.04 518.77 1006.5 517.778 1006.1 515.869L999.701 516.205C1000.31 520.694 1004.13 523.458 1010.34 523.458C1016.42 523.458 1020.77 520.358 1020.79 515.732C1020.77 512.342 1018.56 510.311 1014.01 509.379L1009.76 508.524C1007.58 508.051 1006.77 507.303 1006.79 506.173C1006.77 504.768 1008.36 503.852 1010.37 503.852C1012.63 503.852 1013.98 505.088 1014.3 506.6L1020.25 506.234ZM1030.47 513.624H1036.26V513.105C1036.29 510.127 1037.36 508.738 1039.77 507.287C1042.63 505.592 1044.49 503.348 1044.49 499.759C1044.49 494.415 1040.19 491.3 1034.12 491.3C1028.58 491.3 1024.06 494.201 1023.92 500.309H1030.15C1030.24 497.82 1032.09 496.491 1034.09 496.491C1036.15 496.491 1037.82 497.866 1037.82 499.988C1037.82 501.989 1036.37 503.317 1034.49 504.508C1031.92 506.127 1030.49 507.761 1030.47 513.105V513.624ZM1033.48 523.397C1035.44 523.397 1037.13 521.763 1037.15 519.732C1037.13 517.732 1035.44 516.098 1033.48 516.098C1031.47 516.098 1029.8 517.732 1029.82 519.732C1029.8 521.763 1031.47 523.397 1033.48 523.397Z" fill="black"/>
<circle cx="371" cy="357" r="214.5" fill="#EB098F" stroke="#EB098F" stroke-width="3"/>
<mask id="path-4-inside-1" fill="white">
<path d="M371 141C413.721 141 455.482 153.668 491.003 177.403C526.524 201.137 554.209 234.872 570.558 274.34C586.907 313.809 591.184 357.24 582.85 399.14C574.515 441.039 553.943 479.527 523.735 509.735L371 357L371 141Z"/>
</mask>
<path d="M371 141C413.721 141 455.482 153.668 491.003 177.403C526.524 201.137 554.209 234.872 570.558 274.34C586.907 313.809 591.184 357.24 582.85 399.14C574.515 441.039 553.943 479.527 523.735 509.735L371 357L371 141Z" fill="white" stroke="#EB098F" stroke-width="6" mask="url(#path-4-inside-1)"/>
<path d="M446.203 284.443H453.184V287H456.125V284.443H457.929V281.979H456.125V272.455H452.275L446.203 282.021V284.443ZM453.241 281.979H449.3V281.865L453.128 275.807H453.241V281.979ZM465.681 287.32C469.339 287.32 471.547 284.536 471.555 279.741C471.562 274.983 469.324 272.256 465.681 272.256C462.03 272.256 459.814 274.976 459.807 279.741C459.793 284.521 462.016 287.312 465.681 287.32ZM465.681 284.77C464.012 284.77 462.932 283.094 462.939 279.741C462.947 276.439 464.019 274.777 465.681 274.777C467.336 274.777 468.415 276.439 468.415 279.741C468.422 283.094 467.343 284.77 465.681 284.77ZM481.709 284.273C481.716 286.02 482.831 287.504 484.912 287.504C486.972 287.504 488.122 286.02 488.115 284.273V283.506C488.122 281.744 487 280.274 484.912 280.274C482.86 280.274 481.716 281.759 481.709 283.506V284.273ZM474.244 275.949C474.252 277.696 475.367 279.166 477.441 279.166C479.507 279.166 480.658 277.71 480.651 275.949V275.182C480.658 273.42 479.536 271.95 477.441 271.95C475.409 271.95 474.252 273.42 474.244 275.182V275.949ZM474.941 287H476.794L486.794 272.455H484.941L474.941 287ZM483.776 283.506C483.783 282.81 484.06 282.092 484.912 282.092C485.807 282.092 486.041 282.81 486.034 283.506V284.273C486.041 284.969 485.779 285.672 484.912 285.672C484.046 285.672 483.783 284.947 483.776 284.273V283.506ZM476.325 275.182C476.333 274.507 476.595 273.768 477.441 273.768C478.335 273.768 478.577 274.486 478.57 275.182V275.949C478.577 276.645 478.307 277.348 477.441 277.348C476.602 277.348 476.333 276.645 476.325 275.949V275.182ZM447.485 315H456.796V312.464H450.56V300.455H447.485V315ZM461.887 315.206C463.499 315.206 464.543 314.503 465.075 313.487H465.161V315H468.03V307.642C468.03 305.043 465.828 303.949 463.399 303.949C460.786 303.949 459.067 305.199 458.648 307.188L461.446 307.415C461.652 306.69 462.298 306.158 463.385 306.158C464.415 306.158 465.004 306.676 465.004 307.571V307.614C465.004 308.317 464.259 308.409 462.362 308.594C460.203 308.793 458.264 309.517 458.264 311.953C458.264 314.112 459.806 315.206 461.887 315.206ZM462.753 313.118C461.823 313.118 461.155 312.685 461.155 311.854C461.155 311.001 461.858 310.582 462.923 310.433C463.584 310.341 464.664 310.185 465.026 309.943V311.101C465.026 312.244 464.081 313.118 462.753 313.118ZM476.18 304.091H474.127V301.477H471.102V304.091H469.61V306.364H471.102V312.045C471.088 314.183 472.544 315.241 474.738 315.149C475.519 315.121 476.073 314.964 476.379 314.865L475.903 312.614C475.754 312.642 475.434 312.713 475.15 312.713C474.546 312.713 474.127 312.486 474.127 311.648V306.364H476.18V304.091ZM483.005 315.213C485.704 315.213 487.522 313.899 487.948 311.875L485.15 311.69C484.845 312.521 484.063 312.955 483.055 312.955C481.542 312.955 480.583 311.953 480.583 310.327V310.32H488.012V309.489C488.012 305.781 485.768 303.949 482.884 303.949C479.674 303.949 477.593 306.229 477.593 309.595C477.593 313.054 479.646 315.213 483.005 315.213ZM480.583 308.445C480.647 307.202 481.592 306.207 482.934 306.207C484.248 306.207 485.157 307.145 485.164 308.445H480.583ZM420.229 343H423.304V338.284H425.89C429.235 338.284 431.181 336.288 431.181 333.384C431.181 330.493 429.27 328.455 425.968 328.455H420.229V343ZM423.304 335.82V330.969H425.378C427.154 330.969 428.013 331.935 428.013 333.384C428.013 334.825 427.154 335.82 425.392 335.82H423.304ZM435.939 343.206C437.551 343.206 438.596 342.503 439.128 341.487H439.213V343H442.083V335.642C442.083 333.043 439.881 331.949 437.452 331.949C434.838 331.949 433.12 333.199 432.701 335.188L435.499 335.415C435.705 334.69 436.351 334.158 437.438 334.158C438.468 334.158 439.057 334.676 439.057 335.571V335.614C439.057 336.317 438.311 336.409 436.415 336.594C434.256 336.793 432.317 337.517 432.317 339.953C432.317 342.112 433.858 343.206 435.939 343.206ZM436.806 341.118C435.875 341.118 435.208 340.685 435.208 339.854C435.208 339.001 435.911 338.582 436.976 338.433C437.637 338.341 438.716 338.185 439.078 337.943V339.101C439.078 340.244 438.134 341.118 436.806 341.118ZM445.907 347.091C448.159 347.091 449.352 345.94 449.97 344.179L454.21 332.105L451.007 332.091L448.727 340.102H448.613L446.355 332.091H443.173L447.086 343.312L446.909 343.774C446.511 344.797 445.751 344.847 444.686 344.52L444.004 346.778C444.437 346.963 445.14 347.091 445.907 347.091ZM455.758 343H458.784V336.452C458.784 335.244 459.551 334.442 460.559 334.442C461.554 334.442 462.221 335.124 462.221 336.196V343H465.154V336.338C465.154 335.209 465.801 334.442 466.902 334.442C467.868 334.442 468.592 335.045 468.592 336.26V343H471.61V335.663C471.61 333.298 470.204 331.949 468.173 331.949C466.575 331.949 465.332 332.766 464.885 334.016H464.771C464.423 332.751 463.308 331.949 461.809 331.949C460.339 331.949 459.224 332.73 458.77 334.016H458.642V332.091H455.758V343ZM478.972 343.213C481.671 343.213 483.489 341.899 483.915 339.875L481.117 339.69C480.811 340.521 480.03 340.955 479.022 340.955C477.509 340.955 476.55 339.953 476.55 338.327V338.32H483.979V337.489C483.979 333.781 481.735 331.949 478.851 331.949C475.641 331.949 473.56 334.229 473.56 337.595C473.56 341.054 475.613 343.213 478.972 343.213ZM476.55 336.445C476.614 335.202 477.559 334.207 478.901 334.207C480.215 334.207 481.124 335.145 481.131 336.445H476.55ZM488.979 336.693C488.986 335.287 489.824 334.463 491.046 334.463C492.26 334.463 492.992 335.259 492.985 336.594V343H496.01V336.054C496.01 333.511 494.519 331.949 492.246 331.949C490.627 331.949 489.455 332.744 488.965 334.016H488.837V332.091H485.953V343H488.979V336.693ZM504.197 332.091H502.145V329.477H499.119V332.091H497.628V334.364H499.119V340.045C499.105 342.183 500.561 343.241 502.756 343.149C503.537 343.121 504.091 342.964 504.396 342.865L503.92 340.614C503.771 340.642 503.452 340.713 503.168 340.713C502.564 340.713 502.145 340.486 502.145 339.648V334.364H504.197V332.091ZM515.089 335.202C514.819 333.192 513.2 331.949 510.444 331.949C507.653 331.949 505.813 333.241 505.82 335.344C505.813 336.977 506.843 338.036 508.974 338.462L510.863 338.838C511.815 339.03 512.248 339.378 512.262 339.925C512.248 340.571 511.545 341.033 510.487 341.033C509.407 341.033 508.69 340.571 508.505 339.683L505.529 339.839C505.813 341.928 507.589 343.213 510.479 343.213C513.306 343.213 515.33 341.771 515.337 339.619C515.33 338.043 514.3 337.098 512.184 336.665L510.21 336.267C509.194 336.047 508.817 335.699 508.825 335.173C508.817 334.52 509.556 334.094 510.494 334.094C511.545 334.094 512.17 334.669 512.319 335.372L515.089 335.202Z" fill="black"/>
</svg>
