<svg width="1350" height="684" viewBox="0 0 1350 684" fill="none" xmlns="http://www.w3.org/2000/svg">
<rect width="1350" height="670" fill="#F7F7FF"/>
<path d="M128.936 193.83H134.389C134.31 189.034 130.369 185.723 124.377 185.723C118.478 185.723 114.155 188.982 114.181 193.869C114.168 197.837 116.967 200.11 121.513 201.201L124.443 201.937C127.373 202.646 129.002 203.487 129.015 205.3C129.002 207.271 127.136 208.612 124.246 208.612C121.289 208.612 119.161 207.245 118.977 204.551H113.472C113.616 210.372 117.781 213.381 124.311 213.381C130.881 213.381 134.744 210.241 134.757 205.314C134.744 200.833 131.367 198.455 126.69 197.404L124.272 196.826C121.933 196.287 119.975 195.42 120.015 193.488C120.015 191.754 121.552 190.479 124.338 190.479C127.058 190.479 128.726 191.714 128.936 193.83ZM147.676 213.394C152.669 213.394 156.033 210.963 156.821 207.219L151.644 206.877C151.079 208.414 149.634 209.216 147.768 209.216C144.97 209.216 143.196 207.363 143.196 204.354V204.341H156.939V202.804C156.939 195.945 152.787 192.555 147.453 192.555C141.514 192.555 137.664 196.773 137.664 203.001C137.664 209.4 141.461 213.394 147.676 213.394ZM143.196 200.873C143.314 198.573 145.062 196.734 147.545 196.734C149.976 196.734 151.657 198.468 151.671 200.873H143.196ZM160.592 213H166.189V201.582C166.189 199.099 168.003 197.391 170.473 197.391C171.248 197.391 172.312 197.522 172.838 197.693V192.726C172.339 192.608 171.642 192.529 171.077 192.529C168.817 192.529 166.965 193.843 166.229 196.339H166.019V192.818H160.592V213ZM195.161 192.818H189.236L185.057 207.258H184.847L180.656 192.818H174.743L181.799 213H188.106L195.161 192.818ZM198.026 213H203.623V192.818H198.026V213ZM200.837 190.217C202.506 190.217 203.873 188.942 203.873 187.379C203.873 185.828 202.506 184.554 200.837 184.554C199.182 184.554 197.815 185.828 197.815 187.379C197.815 188.942 199.182 190.217 200.837 190.217ZM217.225 213.394C222.599 213.394 225.976 210.241 226.239 205.603H220.957C220.628 207.757 219.209 208.966 217.291 208.966C214.676 208.966 212.981 206.772 212.981 202.909C212.981 199.099 214.689 196.918 217.291 196.918C219.341 196.918 220.655 198.271 220.957 200.281H226.239C226.002 195.617 222.468 192.555 217.199 192.555C211.076 192.555 207.292 196.799 207.292 202.988C207.292 209.124 211.01 213.394 217.225 213.394ZM239.02 213.394C244.013 213.394 247.377 210.963 248.165 207.219L242.988 206.877C242.423 208.414 240.978 209.216 239.112 209.216C236.313 209.216 234.54 207.363 234.54 204.354V204.341H248.283V202.804C248.283 195.945 244.131 192.555 238.797 192.555C232.858 192.555 229.008 196.773 229.008 203.001C229.008 209.4 232.805 213.394 239.02 213.394ZM234.54 200.873C234.658 198.573 236.405 196.734 238.889 196.734C241.319 196.734 243.001 198.468 243.014 200.873H234.54ZM267.936 213.328C271.195 213.328 272.89 211.45 273.665 209.768H273.901V213H279.42V186.091H273.836V196.208H273.665C272.916 194.566 271.3 192.555 267.923 192.555C263.495 192.555 259.75 195.998 259.75 202.935C259.75 209.689 263.337 213.328 267.936 213.328ZM269.71 208.874C266.964 208.874 265.466 206.43 265.466 202.909C265.466 199.414 266.938 197.01 269.71 197.01C272.43 197.01 273.954 199.309 273.954 202.909C273.954 206.509 272.403 208.874 269.71 208.874ZM284.022 213H289.619V192.818H284.022V213ZM286.834 190.217C288.502 190.217 289.869 188.942 289.869 187.379C289.869 185.828 288.502 184.554 286.834 184.554C285.178 184.554 283.812 185.828 283.812 187.379C283.812 188.942 285.178 190.217 286.834 190.217ZM310.895 198.573C310.395 194.855 307.4 192.555 302.302 192.555C297.138 192.555 293.735 194.947 293.748 198.836C293.735 201.858 295.64 203.816 299.582 204.604L303.077 205.3C304.838 205.655 305.639 206.299 305.665 207.311C305.639 208.506 304.338 209.36 302.381 209.36C300.383 209.36 299.056 208.506 298.715 206.864L293.209 207.153C293.735 211.016 297.02 213.394 302.367 213.394C307.597 213.394 311.341 210.727 311.355 206.746C311.341 203.829 309.436 202.081 305.521 201.28L301.868 200.544C299.989 200.137 299.293 199.493 299.306 198.521C299.293 197.312 300.659 196.523 302.394 196.523C304.338 196.523 305.494 197.588 305.77 198.888L310.895 198.573ZM323.998 213.394C329.372 213.394 332.748 210.241 333.011 205.603H327.729C327.401 207.757 325.982 208.966 324.063 208.966C321.449 208.966 319.754 206.772 319.754 202.909C319.754 199.099 321.462 196.918 324.063 196.918C326.113 196.918 327.427 198.271 327.729 200.281H333.011C332.775 195.617 329.24 192.555 323.972 192.555C317.849 192.555 314.065 196.799 314.065 202.988C314.065 209.124 317.783 213.394 323.998 213.394ZM345.714 213.394C351.836 213.394 355.647 209.203 355.647 202.988C355.647 196.734 351.836 192.555 345.714 192.555C339.591 192.555 335.78 196.734 335.78 202.988C335.78 209.203 339.591 213.394 345.714 213.394ZM345.74 209.058C342.915 209.058 341.47 206.47 341.47 202.949C341.47 199.427 342.915 196.826 345.74 196.826C348.512 196.826 349.958 199.427 349.958 202.949C349.958 206.47 348.512 209.058 345.74 209.058ZM364.884 201.332C364.897 198.731 366.447 197.207 368.707 197.207C370.954 197.207 372.307 198.678 372.294 201.148V213H377.892V200.15C377.892 195.446 375.132 192.555 370.928 192.555C367.932 192.555 365.764 194.027 364.857 196.379H364.621V192.818H359.286V213H364.884V201.332ZM387.9 201.332C387.913 198.731 389.464 197.207 391.724 197.207C393.971 197.207 395.324 198.678 395.311 201.148V213H400.908V200.15C400.908 195.446 398.149 192.555 393.944 192.555C390.949 192.555 388.781 194.027 387.874 196.379H387.638V192.818H382.303V213H387.9V201.332ZM414.517 213.394C419.51 213.394 422.874 210.963 423.662 207.219L418.485 206.877C417.92 208.414 416.475 209.216 414.609 209.216C411.81 209.216 410.037 207.363 410.037 204.354V204.341H423.78V202.804C423.78 195.945 419.628 192.555 414.294 192.555C408.355 192.555 404.505 196.773 404.505 203.001C404.505 209.4 408.302 213.394 414.517 213.394ZM410.037 200.873C410.155 198.573 411.902 196.734 414.386 196.734C416.816 196.734 418.498 198.468 418.511 200.873H410.037ZM436.551 213.394C441.925 213.394 445.302 210.241 445.565 205.603H440.283C439.955 207.757 438.536 208.966 436.617 208.966C434.002 208.966 432.308 206.772 432.308 202.909C432.308 199.099 434.016 196.918 436.617 196.918C438.667 196.918 439.981 198.271 440.283 200.281H445.565C445.328 195.617 441.794 192.555 436.525 192.555C430.402 192.555 426.618 196.799 426.618 202.988C426.618 209.124 430.337 213.394 436.551 213.394ZM459.883 192.818H456.086V187.983H450.489V192.818H447.73V197.023H450.489V207.534C450.463 211.489 453.156 213.447 457.216 213.276C458.661 213.223 459.686 212.934 460.251 212.75L459.371 208.585C459.095 208.638 458.504 208.769 457.978 208.769C456.861 208.769 456.086 208.349 456.086 206.798V197.023H459.883V192.818ZM463.53 213H469.127V192.818H463.53V213ZM466.341 190.217C468.01 190.217 469.377 188.942 469.377 187.379C469.377 185.828 468.01 184.554 466.341 184.554C464.686 184.554 463.319 185.828 463.319 187.379C463.319 188.942 464.686 190.217 466.341 190.217ZM482.729 213.394C488.852 213.394 492.662 209.203 492.662 202.988C492.662 196.734 488.852 192.555 482.729 192.555C476.606 192.555 472.796 196.734 472.796 202.988C472.796 209.203 476.606 213.394 482.729 213.394ZM482.756 209.058C479.931 209.058 478.485 206.47 478.485 202.949C478.485 199.427 479.931 196.826 482.756 196.826C485.528 196.826 486.973 199.427 486.973 202.949C486.973 206.47 485.528 209.058 482.756 209.058ZM501.899 201.332C501.912 198.731 503.463 197.207 505.723 197.207C507.97 197.207 509.323 198.678 509.31 201.148V213H514.907V200.15C514.907 195.446 512.148 192.555 507.943 192.555C504.948 192.555 502.78 194.027 501.873 196.379H501.637V192.818H496.302V213H501.899V201.332ZM536.111 198.573C535.611 194.855 532.616 192.555 527.517 192.555C522.354 192.555 518.951 194.947 518.964 198.836C518.951 201.858 520.856 203.816 524.798 204.604L528.293 205.3C530.053 205.655 530.855 206.299 530.881 207.311C530.855 208.506 529.554 209.36 527.596 209.36C525.599 209.36 524.272 208.506 523.93 206.864L518.425 207.153C518.951 211.016 522.236 213.394 527.583 213.394C532.813 213.394 536.557 210.727 536.57 206.746C536.557 203.829 534.652 202.081 530.737 201.28L527.084 200.544C525.205 200.137 524.509 199.493 524.522 198.521C524.509 197.312 525.875 196.523 527.609 196.523C529.554 196.523 530.71 197.588 530.986 198.888L536.111 198.573ZM121.67 265.328C124.929 265.328 126.624 263.45 127.399 261.768H127.636V265H133.154V238.091H127.57V248.208H127.399C126.65 246.566 125.034 244.555 121.657 244.555C117.229 244.555 113.485 247.998 113.485 254.935C113.485 261.689 117.072 265.328 121.67 265.328ZM123.444 260.874C120.698 260.874 119.2 258.43 119.2 254.909C119.2 251.414 120.672 249.01 123.444 249.01C126.164 249.01 127.688 251.309 127.688 254.909C127.688 258.509 126.138 260.874 123.444 260.874ZM150.698 256.407C150.711 259.114 148.859 260.533 146.848 260.533C144.733 260.533 143.367 259.048 143.353 256.67V244.818H137.756V257.668C137.769 262.385 140.528 265.263 144.589 265.263C147.624 265.263 149.805 263.699 150.711 261.334H150.922V265H156.296V244.818H150.698V256.407ZM169.97 265.394C174.963 265.394 178.327 262.963 179.115 259.219L173.938 258.877C173.373 260.414 171.928 261.216 170.062 261.216C167.263 261.216 165.49 259.363 165.49 256.354V256.341H179.233V254.804C179.233 247.945 175.081 244.555 169.747 244.555C163.808 244.555 159.958 248.773 159.958 255.001C159.958 261.4 163.755 265.394 169.97 265.394ZM165.49 252.873C165.608 250.573 167.355 248.734 169.839 248.734C172.27 248.734 173.951 250.468 173.964 252.873H165.49ZM202.184 244.818H198.387V239.983H192.79V244.818H190.03V249.023H192.79V259.534C192.763 263.489 195.457 265.447 199.517 265.276C200.962 265.223 201.987 264.934 202.552 264.75L201.672 260.585C201.396 260.638 200.805 260.769 200.279 260.769C199.162 260.769 198.387 260.349 198.387 258.798V249.023H202.184V244.818ZM214.732 265.394C220.855 265.394 224.665 261.203 224.665 254.988C224.665 248.734 220.855 244.555 214.732 244.555C208.609 244.555 204.799 248.734 204.799 254.988C204.799 261.203 208.609 265.394 214.732 265.394ZM214.758 261.058C211.934 261.058 210.488 258.47 210.488 254.949C210.488 251.427 211.934 248.826 214.758 248.826C217.531 248.826 218.976 251.427 218.976 254.949C218.976 258.47 217.531 261.058 214.758 261.058ZM236.868 265H242.466V252.886C242.466 250.652 243.885 249.167 245.751 249.167C247.59 249.167 248.825 250.429 248.825 252.413V265H254.252V252.675C254.252 250.586 255.447 249.167 257.484 249.167C259.271 249.167 260.611 250.284 260.611 252.531V265H266.195V251.427C266.195 247.052 263.594 244.555 259.836 244.555C256.879 244.555 254.58 246.066 253.752 248.379H253.542C252.898 246.04 250.835 244.555 248.063 244.555C245.343 244.555 243.28 246.001 242.439 248.379H242.203V244.818H236.868V265ZM270.616 265H276.214V244.818H270.616V265ZM273.428 242.217C275.097 242.217 276.463 240.942 276.463 239.379C276.463 237.828 275.097 236.554 273.428 236.554C271.773 236.554 270.406 237.828 270.406 239.379C270.406 240.942 271.773 242.217 273.428 242.217ZM297.489 250.573C296.99 246.855 293.994 244.555 288.896 244.555C283.733 244.555 280.33 246.947 280.343 250.836C280.33 253.858 282.235 255.816 286.177 256.604L289.672 257.3C291.432 257.655 292.234 258.299 292.26 259.311C292.234 260.506 290.933 261.36 288.975 261.36C286.978 261.36 285.651 260.506 285.309 258.864L279.804 259.153C280.33 263.016 283.614 265.394 288.962 265.394C294.191 265.394 297.936 262.727 297.949 258.746C297.936 255.829 296.031 254.081 292.116 253.28L288.463 252.544C286.584 252.137 285.888 251.493 285.901 250.521C285.888 249.312 287.254 248.523 288.988 248.523C290.933 248.523 292.089 249.588 292.365 250.888L297.489 250.573ZM318.266 250.573C317.767 246.855 314.771 244.555 309.673 244.555C304.509 244.555 301.106 246.947 301.119 250.836C301.106 253.858 303.011 255.816 306.953 256.604L310.448 257.3C312.209 257.655 313.01 258.299 313.036 259.311C313.01 260.506 311.709 261.36 309.752 261.36C307.754 261.36 306.427 260.506 306.086 258.864L300.58 259.153C301.106 263.016 304.391 265.394 309.738 265.394C314.968 265.394 318.713 262.727 318.726 258.746C318.713 255.829 316.807 254.081 312.892 253.28L309.239 252.544C307.36 252.137 306.664 251.493 306.677 250.521C306.664 249.312 308.03 248.523 309.765 248.523C311.709 248.523 312.866 249.588 313.142 250.888L318.266 250.573ZM331.448 265.394C336.441 265.394 339.804 262.963 340.593 259.219L335.416 258.877C334.851 260.414 333.405 261.216 331.54 261.216C328.741 261.216 326.967 259.363 326.967 256.354V256.341H340.711V254.804C340.711 247.945 336.559 244.555 331.224 244.555C325.285 244.555 321.436 248.773 321.436 255.001C321.436 261.4 325.233 265.394 331.448 265.394ZM326.967 252.873C327.085 250.573 328.833 248.734 331.316 248.734C333.747 248.734 335.429 250.468 335.442 252.873H326.967ZM351.8 265.328C355.059 265.328 356.754 263.45 357.529 261.768H357.766V265H363.284V238.091H357.7V248.208H357.529C356.78 246.566 355.164 244.555 351.787 244.555C347.359 244.555 343.615 247.998 343.615 254.935C343.615 261.689 347.202 265.328 351.8 265.328ZM353.574 260.874C350.828 260.874 349.33 258.43 349.33 254.909C349.33 251.414 350.802 249.01 353.574 249.01C356.294 249.01 357.818 251.309 357.818 254.909C357.818 258.509 356.268 260.874 353.574 260.874ZM114.234 324.568H119.831V313.768H120.002C120.777 315.45 122.472 317.328 125.73 317.328C130.329 317.328 133.916 313.689 133.916 306.935C133.916 299.998 130.172 296.555 125.744 296.555C122.367 296.555 120.751 298.566 120.002 300.208H119.752V296.818H114.234V324.568ZM119.713 306.909C119.713 303.309 121.237 301.01 123.957 301.01C126.729 301.01 128.201 303.414 128.201 306.909C128.201 310.43 126.703 312.874 123.957 312.874C121.263 312.874 119.713 310.509 119.713 306.909ZM143.403 317.381C146.385 317.381 148.317 316.08 149.302 314.201H149.46V317H154.768V303.388C154.768 298.579 150.695 296.555 146.201 296.555C141.366 296.555 138.186 298.868 137.411 302.547L142.588 302.967C142.969 301.627 144.165 300.642 146.175 300.642C148.08 300.642 149.171 301.601 149.171 303.256V303.335C149.171 304.636 147.791 304.807 144.283 305.148C140.289 305.516 136.702 306.857 136.702 311.363C136.702 315.358 139.553 317.381 143.403 317.381ZM145.006 313.518C143.284 313.518 142.049 312.717 142.049 311.179C142.049 309.603 143.35 308.827 145.321 308.551C146.543 308.381 148.54 308.092 149.21 307.645V309.787C149.21 311.902 147.463 313.518 145.006 313.518ZM161.844 324.568C166.009 324.568 168.216 322.44 169.359 319.181L177.203 296.844L171.278 296.818L167.06 311.639H166.85L162.671 296.818H156.785L164.025 317.578L163.696 318.432C162.96 320.324 161.555 320.416 159.584 319.812L158.322 323.99C159.124 324.332 160.425 324.568 161.844 324.568ZM180.068 317H185.665V304.886C185.665 302.652 187.084 301.167 188.95 301.167C190.789 301.167 192.024 302.429 192.024 304.413V317H197.451V304.675C197.451 302.586 198.646 301.167 200.683 301.167C202.47 301.167 203.81 302.284 203.81 304.531V317H209.394V303.427C209.394 299.052 206.793 296.555 203.035 296.555C200.079 296.555 197.779 298.066 196.952 300.379H196.741C196.097 298.04 194.035 296.555 191.262 296.555C188.542 296.555 186.48 298.001 185.639 300.379H185.402V296.818H180.068V317ZM223.013 317.394C228.006 317.394 231.37 314.963 232.158 311.219L226.981 310.877C226.416 312.414 224.971 313.216 223.105 313.216C220.306 313.216 218.533 311.363 218.533 308.354V308.341H232.276V306.804C232.276 299.945 228.124 296.555 222.79 296.555C216.851 296.555 213.001 300.773 213.001 307.001C213.001 313.4 216.798 317.394 223.013 317.394ZM218.533 304.873C218.651 302.573 220.398 300.734 222.882 300.734C225.312 300.734 226.994 302.468 227.007 304.873H218.533ZM241.526 305.332C241.539 302.731 243.09 301.207 245.35 301.207C247.597 301.207 248.95 302.678 248.937 305.148V317H254.534V304.15C254.534 299.446 251.775 296.555 247.57 296.555C244.575 296.555 242.407 298.027 241.5 300.379H241.263V296.818H235.929V317H241.526V305.332ZM269.68 296.818H265.883V291.983H260.286V296.818H257.527V301.023H260.286V311.534C260.259 315.489 262.953 317.447 267.013 317.276C268.458 317.223 269.483 316.934 270.048 316.75L269.168 312.585C268.892 312.638 268.301 312.769 267.775 312.769C266.658 312.769 265.883 312.349 265.883 310.798V301.023H269.68V296.818ZM289.829 302.573C289.33 298.855 286.334 296.555 281.236 296.555C276.073 296.555 272.669 298.947 272.683 302.836C272.669 305.858 274.575 307.816 278.516 308.604L282.011 309.3C283.772 309.655 284.574 310.299 284.6 311.311C284.574 312.506 283.273 313.36 281.315 313.36C279.318 313.36 277.991 312.506 277.649 310.864L272.144 311.153C272.669 315.016 275.954 317.394 281.302 317.394C286.531 317.394 290.276 314.727 290.289 310.746C290.276 307.829 288.371 306.081 284.455 305.28L280.803 304.544C278.924 304.137 278.227 303.493 278.241 302.521C278.227 301.312 279.594 300.523 281.328 300.523C283.273 300.523 284.429 301.588 284.705 302.888L289.829 302.573ZM302.377 317H307.975V296.818H302.377V317ZM305.189 294.217C306.858 294.217 308.224 292.942 308.224 291.379C308.224 289.828 306.858 288.554 305.189 288.554C303.533 288.554 302.167 289.828 302.167 291.379C302.167 292.942 303.533 294.217 305.189 294.217ZM318.056 305.332C318.069 302.731 319.619 301.207 321.879 301.207C324.126 301.207 325.479 302.678 325.466 305.148V317H331.063V304.15C331.063 299.446 328.304 296.555 324.1 296.555C321.104 296.555 318.936 298.027 318.029 300.379H317.793V296.818H312.458V317H318.056V305.332ZM346.21 296.818H342.412V291.983H336.815V296.818H334.056V301.023H336.815V311.534C336.789 315.489 339.482 317.447 343.542 317.276C344.988 317.223 346.013 316.934 346.578 316.75L345.697 312.585C345.421 312.638 344.83 312.769 344.304 312.769C343.188 312.769 342.412 312.349 342.412 310.798V301.023H346.21V296.818ZM358.836 317.394C363.829 317.394 367.193 314.963 367.981 311.219L362.804 310.877C362.239 312.414 360.794 313.216 358.928 313.216C356.13 313.216 354.356 311.363 354.356 308.354V308.341H368.1V306.804C368.1 299.945 363.948 296.555 358.613 296.555C352.674 296.555 348.824 300.773 348.824 307.001C348.824 313.4 352.622 317.394 358.836 317.394ZM354.356 304.873C354.474 302.573 356.222 300.734 358.705 300.734C361.136 300.734 362.818 302.468 362.831 304.873H354.356ZM371.752 317H377.35V305.582C377.35 303.099 379.163 301.391 381.633 301.391C382.408 301.391 383.472 301.522 383.998 301.693V296.726C383.499 296.608 382.802 296.529 382.237 296.529C379.977 296.529 378.125 297.843 377.389 300.339H377.179V296.818H371.752V317ZM386.892 317H392.489V305.582C392.489 303.099 394.302 301.391 396.773 301.391C397.548 301.391 398.612 301.522 399.138 301.693V296.726C398.638 296.608 397.942 296.529 397.377 296.529C395.117 296.529 393.264 297.843 392.529 300.339H392.318V296.818H386.892V317ZM414.974 308.407C414.987 311.114 413.134 312.533 411.124 312.533C409.008 312.533 407.642 311.048 407.629 308.67V296.818H402.032V309.668C402.045 314.385 404.804 317.263 408.864 317.263C411.899 317.263 414.08 315.699 414.987 313.334H415.197V317H420.571V296.818H414.974V308.407ZM425.048 324.568H430.645V313.768H430.816C431.591 315.45 433.286 317.328 436.545 317.328C441.144 317.328 444.731 313.689 444.731 306.935C444.731 299.998 440.986 296.555 436.558 296.555C433.181 296.555 431.565 298.566 430.816 300.208H430.567V296.818H425.048V324.568ZM430.527 306.909C430.527 303.309 432.051 301.01 434.771 301.01C437.544 301.01 439.015 303.414 439.015 306.909C439.015 310.43 437.517 312.874 434.771 312.874C432.078 312.874 430.527 310.509 430.527 306.909ZM459.197 296.818H455.4V291.983H449.802V296.818H447.043V301.023H449.802V311.534C449.776 315.489 452.47 317.447 456.53 317.276C457.975 317.223 459 316.934 459.565 316.75L458.684 312.585C458.409 312.638 457.817 312.769 457.292 312.769C456.175 312.769 455.4 312.349 455.4 310.798V301.023H459.197V296.818ZM114.234 369H119.831V348.818H114.234V369ZM117.045 346.217C118.714 346.217 120.081 344.942 120.081 343.379C120.081 341.828 118.714 340.554 117.045 340.554C115.39 340.554 114.023 341.828 114.023 343.379C114.023 344.942 115.39 346.217 117.045 346.217ZM129.912 357.332C129.925 354.731 131.476 353.207 133.736 353.207C135.982 353.207 137.336 354.678 137.323 357.148V369H142.92V356.15C142.92 351.446 140.161 348.555 135.956 348.555C132.96 348.555 130.792 350.027 129.886 352.379H129.649V348.818H124.315V369H129.912V357.332ZM156.45 369.394C161.824 369.394 165.201 366.241 165.463 361.603H160.181C159.853 363.757 158.434 364.966 156.516 364.966C153.901 364.966 152.206 362.772 152.206 358.909C152.206 355.099 153.914 352.918 156.516 352.918C158.565 352.918 159.879 354.271 160.181 356.281H165.463C165.227 351.617 161.692 348.555 156.424 348.555C150.301 348.555 146.517 352.799 146.517 358.988C146.517 365.124 150.235 369.394 156.45 369.394ZM178.166 369.394C184.289 369.394 188.099 365.203 188.099 358.988C188.099 352.734 184.289 348.555 178.166 348.555C172.043 348.555 168.233 352.734 168.233 358.988C168.233 365.203 172.043 369.394 178.166 369.394ZM178.192 365.058C175.367 365.058 173.922 362.47 173.922 358.949C173.922 355.427 175.367 352.826 178.192 352.826C180.964 352.826 182.41 355.427 182.41 358.949C182.41 362.47 180.964 365.058 178.192 365.058ZM191.739 369H197.336V356.886C197.336 354.652 198.755 353.167 200.621 353.167C202.46 353.167 203.695 354.429 203.695 356.413V369H209.122V356.675C209.122 354.586 210.317 353.167 212.354 353.167C214.141 353.167 215.481 354.284 215.481 356.531V369H221.065V355.427C221.065 351.052 218.464 348.555 214.706 348.555C211.75 348.555 209.45 350.066 208.622 352.379H208.412C207.768 350.04 205.706 348.555 202.933 348.555C200.213 348.555 198.15 350.001 197.31 352.379H197.073V348.818H191.739V369ZM234.684 369.394C239.677 369.394 243.041 366.963 243.829 363.219L238.652 362.877C238.087 364.414 236.642 365.216 234.776 365.216C231.977 365.216 230.204 363.363 230.204 360.354V360.341H243.947V358.804C243.947 351.945 239.795 348.555 234.461 348.555C228.522 348.555 224.672 352.773 224.672 359.001C224.672 365.4 228.469 369.394 234.684 369.394ZM230.204 356.873C230.322 354.573 232.069 352.734 234.553 352.734C236.983 352.734 238.665 354.468 238.678 356.873H230.204ZM265.282 369.394C271.405 369.394 275.215 365.203 275.215 358.988C275.215 352.734 271.405 348.555 265.282 348.555C259.159 348.555 255.349 352.734 255.349 358.988C255.349 365.203 259.159 369.394 265.282 369.394ZM265.308 365.058C262.483 365.058 261.038 362.47 261.038 358.949C261.038 355.427 262.483 352.826 265.308 352.826C268.081 352.826 269.526 355.427 269.526 358.949C269.526 362.47 268.081 365.058 265.308 365.058ZM278.855 376.568H284.452V365.768H284.623C285.398 367.45 287.093 369.328 290.352 369.328C294.95 369.328 298.537 365.689 298.537 358.935C298.537 351.998 294.793 348.555 290.365 348.555C286.988 348.555 285.372 350.566 284.623 352.208H284.373V348.818H278.855V376.568ZM284.334 358.909C284.334 355.309 285.858 353.01 288.578 353.01C291.35 353.01 292.822 355.414 292.822 358.909C292.822 362.43 291.324 364.874 288.578 364.874C285.884 364.874 284.334 362.509 284.334 358.909ZM302.269 376.568H307.866V365.768H308.037C308.812 367.45 310.507 369.328 313.766 369.328C318.364 369.328 321.951 365.689 321.951 358.935C321.951 351.998 318.207 348.555 313.779 348.555C310.402 348.555 308.786 350.566 308.037 352.208H307.787V348.818H302.269V376.568ZM307.748 358.909C307.748 355.309 309.272 353.01 311.992 353.01C314.764 353.01 316.236 355.414 316.236 358.909C316.236 362.43 314.738 364.874 311.992 364.874C309.298 364.874 307.748 362.509 307.748 358.909ZM334.801 369.394C340.924 369.394 344.735 365.203 344.735 358.988C344.735 352.734 340.924 348.555 334.801 348.555C328.679 348.555 324.868 352.734 324.868 358.988C324.868 365.203 328.679 369.394 334.801 369.394ZM334.828 365.058C332.003 365.058 330.558 362.47 330.558 358.949C330.558 355.427 332.003 352.826 334.828 352.826C337.6 352.826 339.045 355.427 339.045 358.949C339.045 362.47 337.6 365.058 334.828 365.058ZM348.374 369H353.972V357.582C353.972 355.099 355.785 353.391 358.255 353.391C359.03 353.391 360.094 353.522 360.62 353.693V348.726C360.121 348.608 359.424 348.529 358.859 348.529C356.599 348.529 354.747 349.843 354.011 352.339H353.801V348.818H348.374V369ZM375.26 348.818H371.463V343.983H365.866V348.818H363.107V353.023H365.866V363.534C365.84 367.489 368.533 369.447 372.593 369.276C374.038 369.223 375.063 368.934 375.628 368.75L374.748 364.585C374.472 364.638 373.881 364.769 373.355 364.769C372.238 364.769 371.463 364.349 371.463 362.798V353.023H375.26V348.818ZM391.849 360.407C391.862 363.114 390.009 364.533 387.999 364.533C385.883 364.533 384.517 363.048 384.504 360.67V348.818H378.907V361.668C378.92 366.385 381.679 369.263 385.739 369.263C388.774 369.263 390.955 367.699 391.862 365.334H392.072V369H397.446V348.818H391.849V360.407ZM407.52 357.332C407.534 354.731 409.084 353.207 411.344 353.207C413.591 353.207 414.944 354.678 414.931 357.148V369H420.528V356.15C420.528 351.446 417.769 348.555 413.564 348.555C410.569 348.555 408.401 350.027 407.494 352.379H407.258V348.818H401.923V369H407.52V357.332ZM424.94 369H430.537V348.818H424.94V369ZM427.752 346.217C429.42 346.217 430.787 344.942 430.787 343.379C430.787 341.828 429.42 340.554 427.752 340.554C426.096 340.554 424.729 341.828 424.729 343.379C424.729 344.942 426.096 346.217 427.752 346.217ZM445.756 348.818H441.958V343.983H436.361V348.818H433.602V353.023H436.361V363.534C436.335 367.489 439.028 369.447 443.088 369.276C444.534 369.223 445.558 368.934 446.123 368.75L445.243 364.585C444.967 364.638 444.376 364.769 443.85 364.769C442.733 364.769 441.958 364.349 441.958 362.798V353.023H445.756V348.818ZM449.402 369H454.999V348.818H449.402V369ZM452.213 346.217C453.882 346.217 455.249 344.942 455.249 343.379C455.249 341.828 453.882 340.554 452.213 340.554C450.558 340.554 449.191 341.828 449.191 343.379C449.191 344.942 450.558 346.217 452.213 346.217ZM468.68 369.394C473.673 369.394 477.037 366.963 477.825 363.219L472.648 362.877C472.083 364.414 470.638 365.216 468.772 365.216C465.973 365.216 464.2 363.363 464.2 360.354V360.341H477.943V358.804C477.943 351.945 473.791 348.555 468.457 348.555C462.518 348.555 458.668 352.773 458.668 359.001C458.668 365.4 462.465 369.394 468.68 369.394ZM464.2 356.873C464.318 354.573 466.065 352.734 468.549 352.734C470.979 352.734 472.661 354.468 472.674 356.873H464.2ZM498.388 354.573C497.889 350.855 494.893 348.555 489.795 348.555C484.631 348.555 481.228 350.947 481.241 354.836C481.228 357.858 483.133 359.816 487.075 360.604L490.57 361.3C492.331 361.655 493.132 362.299 493.158 363.311C493.132 364.506 491.831 365.36 489.874 365.36C487.877 365.36 486.549 364.506 486.208 362.864L480.703 363.153C481.228 367.016 484.513 369.394 489.861 369.394C495.09 369.394 498.835 366.727 498.848 362.746C498.835 359.829 496.929 358.081 493.014 357.28L489.361 356.544C487.482 356.137 486.786 355.493 486.799 354.521C486.786 353.312 488.152 352.523 489.887 352.523C491.831 352.523 492.988 353.588 493.264 354.888L498.388 354.573ZM508.456 365.321H503.831L503.765 366.793C503.607 370.366 502.583 374.032 502.202 375.57H505.828C506.459 373.98 507.956 370.248 508.311 366.766L508.456 365.321ZM114.234 421H119.831V408.886C119.831 406.652 121.25 405.167 123.116 405.167C124.955 405.167 126.19 406.429 126.19 408.413V421H131.617V408.675C131.617 406.586 132.812 405.167 134.849 405.167C136.636 405.167 137.976 406.284 137.976 408.531V421H143.56V407.427C143.56 403.052 140.959 400.555 137.201 400.555C134.245 400.555 131.945 402.066 131.118 404.379H130.907C130.263 402.04 128.201 400.555 125.428 400.555C122.708 400.555 120.646 402.001 119.805 404.379H119.568V400.818H114.234V421ZM153.737 421.381C156.719 421.381 158.651 420.08 159.636 418.201H159.794V421H165.102V407.388C165.102 402.579 161.029 400.555 156.535 400.555C151.7 400.555 148.52 402.868 147.745 406.547L152.922 406.967C153.303 405.627 154.499 404.642 156.509 404.642C158.414 404.642 159.505 405.601 159.505 407.256V407.335C159.505 408.636 158.125 408.807 154.617 409.148C150.623 409.516 147.036 410.857 147.036 415.363C147.036 419.358 149.887 421.381 153.737 421.381ZM155.34 417.518C153.618 417.518 152.383 416.717 152.383 415.179C152.383 413.603 153.684 412.827 155.655 412.551C156.877 412.381 158.874 412.092 159.544 411.645V413.787C159.544 415.902 157.797 417.518 155.34 417.518ZM169.445 421H175.042V414.588L176.553 412.867L182.058 421H188.615L180.744 409.556L188.234 400.818H181.809L175.344 408.478H175.042V394.091H169.445V421ZM190.98 421H196.577V400.818H190.98V421ZM193.792 398.217C195.46 398.217 196.827 396.942 196.827 395.379C196.827 393.828 195.46 392.554 193.792 392.554C192.136 392.554 190.77 393.828 190.77 395.379C190.77 396.942 192.136 398.217 193.792 398.217ZM206.658 409.332C206.671 406.731 208.222 405.207 210.482 405.207C212.728 405.207 214.082 406.678 214.069 409.148V421H219.666V408.15C219.666 403.446 216.907 400.555 212.702 400.555C209.706 400.555 207.538 402.027 206.632 404.379H206.395V400.818H201.061V421H206.658V409.332ZM233.17 428.989C238.938 428.989 243.037 426.361 243.037 421.197V400.818H237.479V404.208H237.269C236.52 402.566 234.878 400.555 231.501 400.555C227.073 400.555 223.328 403.998 223.328 410.87C223.328 417.584 226.968 420.711 231.514 420.711C234.733 420.711 236.533 419.095 237.269 417.426H237.506V421.118C237.506 423.891 235.732 424.968 233.301 424.968C230.831 424.968 229.583 423.891 229.123 422.669L223.946 423.365C224.616 426.545 227.73 428.989 233.17 428.989ZM233.288 416.506C230.542 416.506 229.044 414.325 229.044 410.843C229.044 407.414 230.516 405.01 233.288 405.01C236.008 405.01 237.532 407.309 237.532 410.843C237.532 414.404 235.982 416.506 233.288 416.506ZM266.908 400.818H262.9V399.465C262.9 398.098 263.452 397.297 265.095 397.297C265.765 397.297 266.448 397.441 266.895 397.586L267.88 393.381C267.184 393.171 265.647 392.83 263.925 392.83C260.128 392.83 257.303 394.971 257.303 399.36V400.818H254.452V405.023H257.303V421H262.9V405.023H266.908V400.818ZM270.327 421H275.925V400.818H270.327V421ZM273.139 398.217C274.808 398.217 276.174 396.942 276.174 395.379C276.174 393.828 274.808 392.554 273.139 392.554C271.484 392.554 270.117 393.828 270.117 395.379C270.117 396.942 271.484 398.217 273.139 398.217ZM286.006 409.332C286.019 406.731 287.569 405.207 289.829 405.207C292.076 405.207 293.429 406.678 293.416 409.148V421H299.014V408.15C299.014 403.446 296.254 400.555 292.05 400.555C289.054 400.555 286.886 402.027 285.979 404.379H285.743V400.818H280.408V421H286.006V409.332ZM309.18 421.381C312.163 421.381 314.094 420.08 315.08 418.201H315.237V421H320.545V407.388C320.545 402.579 316.472 400.555 311.979 400.555C307.143 400.555 303.964 402.868 303.189 406.547L308.365 406.967C308.746 405.627 309.942 404.642 311.952 404.642C313.858 404.642 314.948 405.601 314.948 407.256V407.335C314.948 408.636 313.569 408.807 310.06 409.148C306.066 409.516 302.479 410.857 302.479 415.363C302.479 419.358 305.33 421.381 309.18 421.381ZM310.783 417.518C309.062 417.518 307.827 416.717 307.827 415.179C307.827 413.603 309.127 412.827 311.098 412.551C312.32 412.381 314.317 412.092 314.988 411.645V413.787C314.988 415.902 313.24 417.518 310.783 417.518ZM330.485 409.332C330.498 406.731 332.049 405.207 334.309 405.207C336.556 405.207 337.909 406.678 337.896 409.148V421H343.493V408.15C343.493 403.446 340.734 400.555 336.529 400.555C333.534 400.555 331.366 402.027 330.459 404.379H330.222V400.818H324.888V421H330.485V409.332ZM357.023 421.394C362.397 421.394 365.774 418.241 366.037 413.603H360.755C360.426 415.757 359.007 416.966 357.089 416.966C354.474 416.966 352.779 414.772 352.779 410.909C352.779 407.099 354.487 404.918 357.089 404.918C359.139 404.918 360.453 406.271 360.755 408.281H366.037C365.8 403.617 362.266 400.555 356.997 400.555C350.874 400.555 347.09 404.799 347.09 410.988C347.09 417.124 350.808 421.394 357.023 421.394ZM369.62 421H375.218V400.818H369.62V421ZM372.432 398.217C374.101 398.217 375.467 396.942 375.467 395.379C375.467 393.828 374.101 392.554 372.432 392.554C370.777 392.554 369.41 393.828 369.41 395.379C369.41 396.942 370.777 398.217 372.432 398.217ZM385.456 421.381C388.439 421.381 390.37 420.08 391.356 418.201H391.514V421H396.822V407.388C396.822 402.579 392.749 400.555 388.255 400.555C383.42 400.555 380.24 402.868 379.465 406.547L384.642 406.967C385.023 405.627 386.218 404.642 388.229 404.642C390.134 404.642 391.225 405.601 391.225 407.256V407.335C391.225 408.636 389.845 408.807 386.337 409.148C382.342 409.516 378.755 410.857 378.755 415.363C378.755 419.358 381.607 421.381 385.456 421.381ZM387.059 417.518C385.338 417.518 384.103 416.717 384.103 415.179C384.103 413.603 385.404 412.827 387.375 412.551C388.597 412.381 390.594 412.092 391.264 411.645V413.787C391.264 415.902 389.516 417.518 387.059 417.518ZM406.762 394.091H401.164V421H406.762V394.091ZM114.234 473H119.831V461.582C119.831 459.099 121.644 457.391 124.114 457.391C124.89 457.391 125.954 457.522 126.479 457.693V452.726C125.98 452.608 125.284 452.529 124.719 452.529C122.459 452.529 120.606 453.843 119.87 456.339H119.66V452.818H114.234V473ZM137.631 473.394C142.624 473.394 145.988 470.963 146.776 467.219L141.599 466.877C141.034 468.414 139.589 469.216 137.723 469.216C134.925 469.216 133.151 467.363 133.151 464.354V464.341H146.894V462.804C146.894 455.945 142.742 452.555 137.408 452.555C131.469 452.555 127.619 456.773 127.619 463.001C127.619 469.4 131.416 473.394 137.631 473.394ZM133.151 460.873C133.269 458.573 135.017 456.734 137.5 456.734C139.931 456.734 141.612 458.468 141.626 460.873H133.151ZM159.666 473.394C165.04 473.394 168.416 470.241 168.679 465.603H163.397C163.069 467.757 161.65 468.966 159.731 468.966C157.117 468.966 155.422 466.772 155.422 462.909C155.422 459.099 157.13 456.918 159.731 456.918C161.781 456.918 163.095 458.271 163.397 460.281H168.679C168.443 455.617 164.908 452.555 159.639 452.555C153.517 452.555 149.733 456.799 149.733 462.988C149.733 469.124 153.451 473.394 159.666 473.394ZM181.382 473.394C187.504 473.394 191.315 469.203 191.315 462.988C191.315 456.734 187.504 452.555 181.382 452.555C175.259 452.555 171.448 456.734 171.448 462.988C171.448 469.203 175.259 473.394 181.382 473.394ZM181.408 469.058C178.583 469.058 177.138 466.47 177.138 462.949C177.138 459.427 178.583 456.826 181.408 456.826C184.18 456.826 185.626 459.427 185.626 462.949C185.626 466.47 184.18 469.058 181.408 469.058ZM213.083 452.818H207.157L202.979 467.258H202.769L198.578 452.818H192.665L199.721 473H206.027L213.083 452.818ZM224.458 473.394C229.451 473.394 232.815 470.963 233.603 467.219L228.426 466.877C227.862 468.414 226.416 469.216 224.55 469.216C221.752 469.216 219.978 467.363 219.978 464.354V464.341H233.722V462.804C233.722 455.945 229.57 452.555 224.235 452.555C218.296 452.555 214.446 456.773 214.446 463.001C214.446 469.4 218.244 473.394 224.458 473.394ZM219.978 460.873C220.096 458.573 221.844 456.734 224.327 456.734C226.758 456.734 228.44 458.468 228.453 460.873H219.978ZM237.374 473H242.972V461.582C242.972 459.099 244.785 457.391 247.255 457.391C248.03 457.391 249.094 457.522 249.62 457.693V452.726C249.121 452.608 248.424 452.529 247.859 452.529C245.599 452.529 243.747 453.843 243.011 456.339H242.801V452.818H237.374V473ZM256.584 480.568C260.749 480.568 262.956 478.44 264.099 475.181L271.944 452.844L266.018 452.818L261.8 467.639H261.59L257.412 452.818H251.525L258.765 473.578L258.436 474.432C257.701 476.324 256.295 476.416 254.324 475.812L253.062 479.99C253.864 480.332 255.165 480.568 256.584 480.568ZM292.569 473.394C297.562 473.394 300.925 470.963 301.714 467.219L296.537 466.877C295.972 468.414 294.527 469.216 292.661 469.216C289.862 469.216 288.088 467.363 288.088 464.354V464.341H301.832V462.804C301.832 455.945 297.68 452.555 292.345 452.555C286.407 452.555 282.557 456.773 282.557 463.001C282.557 469.4 286.354 473.394 292.569 473.394ZM288.088 460.873C288.207 458.573 289.954 456.734 292.437 456.734C294.868 456.734 296.55 458.468 296.563 460.873H288.088ZM323.722 452.818H317.796L313.618 467.258H313.408L309.216 452.818H303.304L310.359 473H316.666L323.722 452.818ZM335.097 473.394C340.09 473.394 343.454 470.963 344.242 467.219L339.065 466.877C338.5 468.414 337.055 469.216 335.189 469.216C332.39 469.216 330.617 467.363 330.617 464.354V464.341H344.36V462.804C344.36 455.945 340.208 452.555 334.874 452.555C328.935 452.555 325.085 456.773 325.085 463.001C325.085 469.4 328.882 473.394 335.097 473.394ZM330.617 460.873C330.735 458.573 332.482 456.734 334.966 456.734C337.396 456.734 339.078 458.468 339.091 460.873H330.617ZM353.61 461.332C353.623 458.731 355.174 457.207 357.434 457.207C359.681 457.207 361.034 458.678 361.021 461.148V473H366.618V460.15C366.618 455.446 363.859 452.555 359.654 452.555C356.659 452.555 354.491 454.027 353.584 456.379H353.347V452.818H348.013V473H353.61V461.332ZM385.19 461.332C385.203 458.731 386.793 457.207 389.08 457.207C391.353 457.207 392.693 458.665 392.68 461.148V473H398.277V460.15C398.29 455.42 395.505 452.555 391.3 452.555C388.239 452.555 386.189 454.001 385.269 456.379H385.033V446.091H379.593V473H385.19V461.332ZM408.437 473.381C411.419 473.381 413.351 472.08 414.336 470.201H414.494V473H419.802V459.388C419.802 454.579 415.729 452.555 411.236 452.555C406.4 452.555 403.221 454.868 402.445 458.547L407.622 458.967C408.003 457.627 409.199 456.642 411.209 456.642C413.114 456.642 414.205 457.601 414.205 459.256V459.335C414.205 460.636 412.825 460.807 409.317 461.148C405.323 461.516 401.736 462.857 401.736 467.363C401.736 471.358 404.587 473.381 408.437 473.381ZM410.04 469.518C408.319 469.518 407.084 468.717 407.084 467.179C407.084 465.603 408.384 464.827 410.355 464.551C411.577 464.381 413.574 464.092 414.244 463.645V465.787C414.244 467.902 412.497 469.518 410.04 469.518ZM424.145 473H429.742V461.582C429.742 459.099 431.555 457.391 434.025 457.391C434.801 457.391 435.865 457.522 436.391 457.693V452.726C435.891 452.608 435.195 452.529 434.63 452.529C432.37 452.529 430.517 453.843 429.782 456.339H429.571V452.818H424.145V473ZM445.782 473.328C449.04 473.328 450.735 471.45 451.51 469.768H451.747V473H457.265V446.091H451.681V456.208H451.51C450.762 454.566 449.145 452.555 445.769 452.555C441.341 452.555 437.596 455.998 437.596 462.935C437.596 469.689 441.183 473.328 445.782 473.328ZM447.556 468.874C444.809 468.874 443.312 466.43 443.312 462.909C443.312 459.414 444.783 457.01 447.556 457.01C450.275 457.01 451.8 459.309 451.8 462.909C451.8 466.509 450.249 468.874 447.556 468.874ZM471.065 473.394C476.058 473.394 479.421 470.963 480.21 467.219L475.033 466.877C474.468 468.414 473.023 469.216 471.157 469.216C468.358 469.216 466.584 467.363 466.584 464.354V464.341H480.328V462.804C480.328 455.945 476.176 452.555 470.842 452.555C464.903 452.555 461.053 456.773 461.053 463.001C461.053 469.4 464.85 473.394 471.065 473.394ZM466.584 460.873C466.703 458.573 468.45 456.734 470.934 456.734C473.364 456.734 475.046 458.468 475.059 460.873H466.584ZM483.981 473H489.578V461.582C489.578 459.099 491.391 457.391 493.861 457.391C494.637 457.391 495.701 457.522 496.226 457.693V452.726C495.727 452.608 495.031 452.529 494.466 452.529C492.206 452.529 490.353 453.843 489.617 456.339H489.407V452.818H483.981V473Z" fill="black"/>
<path d="M1316.6 642.28V539.26H1281.36V463.266H1247.46V497.104H1219.4V486.208V419.132H1173.47V490.426L1159.73 490.884V419H1143.7V388.368H1134.08V367.794H1096.52V388.368H1086.9V419H1070.87V457.941L1063.47 458.398L1061.25 343.032H1011.79V404.405L994.38 404.863V308.939H988.424V288.698H936.21V308.939H930.254V438.204H919.263V397.899H910.101V378.191H896.819V320.659H877.582V378.191H864.3V397.899H855.137V466.091H848.725L843.688 466.024V387.019L708.109 388.311V566.219H696.658V542.899H655.435V587.705H643.527V571.247H617.418V599.594V604.624H591.311V642.28H1316.6Z" fill="#E6EBF7"/>
<path d="M778.668 640.571C784.086 635.936 787.362 631.022 786.523 626.134C785.026 617.414 772.624 623.019 772.153 616.722C771.332 605.767 818.674 608.328 817.11 594.281C815.579 580.547 780.784 603.013 779.329 593.087C778.43 586.958 831.04 587.478 832.11 573.542C833.179 559.606 794.044 573.09 786.331 568.995C778.619 564.9 860.506 540.1 852.309 521.878C845.625 507.014 791.037 541.783 782.045 538.293C773.054 534.803 816.675 505.381 830.159 478.458C844.105 450.615 832.705 436.596 810.636 458.739C788.566 480.883 752.248 523.145 750.757 510.416C749.265 497.688 774.072 450.62 753.919 454.143C718.466 460.34 715.539 518.898 704.549 564.66C703.386 569.507 691.525 512.453 677.147 529.651C669.751 538.497 683.466 603.642 692.017 640.571H778.668V640.571Z" fill="#96D9C9"/>
<path d="M967.441 362.72C968.333 352.402 960.677 343.316 950.34 342.425C940.004 341.535 930.901 349.177 930.008 359.495C929.116 369.813 936.772 378.899 947.109 379.79C957.446 380.681 966.549 373.038 967.441 362.72Z" fill="white"/>
<path d="M1112.29 338.297C1111.69 342.968 1116.57 346.672 1120.9 346.38C1125.69 346.057 1129.75 342.135 1130.45 337.436C1131.21 332.351 1128.15 328.282 1123.41 327.91C1118.8 327.548 1115.85 331.643 1117.18 335.776C1118.14 338.739 1120.85 339.845 1122.21 339.028C1123.28 338.39 1123.21 336.784 1121.93 336.5C1121.41 336.386 1120.88 336.673 1120.6 337.069C1119.48 336.621 1118.4 334.572 1119.13 332.359C1120.06 329.533 1123.64 329.371 1125.86 330.689C1128.69 332.367 1129.14 335.98 1128.1 338.86C1127.01 341.882 1124.04 344.265 1120.8 344.493C1117.13 344.754 1113.9 341.947 1113.61 338.299C1113.54 337.438 1112.39 337.459 1112.29 338.297Z" fill="#E585BE"/>
<path d="M1246.08 382.661L1249.35 376.736L1259.48 380.929L1265.33 372.856L1273.43 374.756L1274.39 370.666L1263.56 368.123L1258.02 375.774L1247.48 371.411L1242.56 380.326L1246.08 382.661Z" fill="#50BFA5"/>
<path d="M980.331 254.824L974.577 251.252L979.316 241.377L971.55 235.119L973.883 227.149L969.843 225.971L966.72 236.626L974.08 242.559L969.152 252.831L977.809 258.208L980.331 254.824Z" fill="#07345A"/>
<path d="M1217.87 251.831L1222.13 244.927L1218.71 243.544C1217.96 243.241 1217.6 242.391 1217.91 241.644C1218.21 240.897 1219.06 240.537 1219.81 240.84L1223.75 242.435L1227.56 236.236L1223.91 234.757C1223.16 234.455 1222.8 233.604 1223.1 232.857C1223.41 232.11 1224.26 231.751 1225.01 232.053L1229.18 233.744L1233.6 226.645C1233.98 226.043 1234.74 225.798 1235.4 226.064L1236.03 226.322C1236.87 226.661 1237.2 227.669 1236.73 228.437L1232.62 235.137L1238.67 237.588L1243.09 230.489C1243.47 229.887 1244.22 229.641 1244.88 229.908L1245.58 230.189C1246.42 230.528 1246.75 231.536 1246.28 232.304L1242.17 239.004L1245.58 240.387C1246.33 240.69 1246.69 241.54 1246.39 242.287C1246.09 243.034 1245.23 243.394 1244.49 243.091L1240.54 241.496L1236.79 247.718L1240.44 249.197C1241.19 249.499 1241.55 250.35 1241.25 251.097C1240.95 251.844 1240.09 252.203 1239.35 251.901L1235.17 250.21L1230.65 257.531C1230.28 258.138 1229.52 258.387 1228.86 258.118L1228.11 257.815C1227.27 257.477 1226.94 256.466 1227.41 255.698L1231.67 248.794L1225.62 246.343L1221.1 253.664C1220.73 254.271 1219.97 254.519 1219.31 254.251L1218.56 253.948C1217.73 253.61 1217.4 252.601 1217.87 251.831ZM1233.3 246.302L1237.11 240.103L1231.05 237.652L1227.25 243.851L1233.3 246.302Z" fill="#919997"/>
<path d="M870.725 223.215C870.707 223.21 870.688 223.205 870.673 223.197C870.181 223.021 869.681 222.863 869.176 222.716C869.002 222.667 868.832 222.615 868.658 222.569C868.474 222.52 868.29 222.478 868.106 222.434C867.92 222.39 867.731 222.344 867.542 222.305C867.363 222.266 867.185 222.233 867.003 222.196C866.801 222.158 866.599 222.121 866.397 222.088C866.224 222.059 866.053 222.034 865.879 222.008C865.659 221.977 865.439 221.948 865.219 221.922C865.058 221.904 864.898 221.884 864.737 221.868C864.483 221.845 864.23 221.827 863.976 221.811C863.841 221.804 863.709 221.791 863.574 221.785C863.183 221.767 862.79 221.754 862.394 221.754H680.77C680.348 221.754 679.928 221.765 679.509 221.785C678.675 221.827 677.851 221.912 677.038 222.036C676.632 222.098 676.23 222.171 675.831 222.251C665.47 224.376 657.491 233.053 656.403 243.773C656.321 244.598 656.276 245.436 656.276 246.281V548.984V618.045C656.276 628.662 663.01 637.699 672.434 641.114C672.475 641.129 672.519 641.142 672.561 641.158C673.027 641.323 673.503 641.473 673.982 641.613C674.156 641.662 674.327 641.714 674.503 641.76C674.687 641.809 674.871 641.851 675.054 641.895C675.241 641.938 675.43 641.985 675.619 642.024C675.798 642.063 675.976 642.096 676.155 642.132C676.357 642.171 676.559 642.207 676.761 642.241C676.935 642.269 677.105 642.295 677.279 642.321C677.499 642.352 677.719 642.38 677.939 642.406C678.1 642.424 678.26 642.445 678.424 642.461C678.675 642.484 678.931 642.502 679.185 642.517C679.32 642.525 679.452 642.538 679.586 642.543C679.977 642.561 680.371 642.574 680.767 642.574H862.386C863.23 642.574 864.067 642.53 864.89 642.448C876.417 641.274 885.579 632.097 886.75 620.553C886.833 619.728 886.877 618.891 886.877 618.045V315.342V246.283C886.879 235.667 880.146 226.63 870.725 223.215Z" fill="#C4BFBE"/>
<g opacity="0.4902">
<path opacity="0.4902" d="M875.712 255.189H668.153V609.15H875.712V255.189Z" fill="#EAFCFC"/>
<path opacity="0.4902" d="M875.712 404.289L815.807 399.383L814.101 364.335L799.381 363.725V339.843L875.715 372.525V365.819L850.393 354.978L845.599 255.184H839.418L844.082 352.274L799.381 333.135V332.452H797.788L787.618 328.096L787.572 255.179H781.398L781.445 325.452L719.509 298.943V255.186H707.162V293.656L668.153 276.955V283.66L707.162 300.362V339.351L668.153 321.176V327.977L707.162 346.153V369.175L671.944 413.799L668.153 413.874V420.04L699.157 419.427V461.394L731.531 479.345L697.567 494.247L668.153 473.296V480.867L695.93 500.653L695.953 500.619L689.262 609.143H701.633L705.789 541.713L757.974 560.754L752 609.145H758.22L763.925 562.928L814.857 581.512L805.941 609.145H812.428L820.66 583.629L875.705 603.712V597.151L822.554 577.758L837.6 531.117L818.343 520.438C825.034 512.35 839.485 494.86 853.907 477.282C863.093 466.086 870.196 457.375 875.705 450.581V440.769C868.878 449.237 860.063 460.045 850.592 471.6L818.314 451.008L816.103 405.592L875.705 410.473V404.289H875.712ZM802.312 376.185L805.708 445.884L768.514 413.634V374.784L802.312 376.185ZM719.509 305.648L793.204 337.201V363.47L719.509 360.417V305.648ZM679.928 413.642L712.426 372.463L762.338 374.531V412.018L679.928 413.642ZM705.333 457.768V419.305L764.301 418.142L800.158 449.232L738.629 476.232L705.333 457.768ZM830.178 534.048L816.758 575.641L706.188 535.297L708.174 503.059L745.083 486.862L830.178 534.048ZM846.661 476.4C835.331 490.204 823.343 504.737 812.863 517.396L752.184 483.75L814.981 456.193L846.661 476.4Z" fill="white"/>
<g opacity="0.4902">
<g opacity="0.4902">
<path opacity="0.4902" d="M818.048 581.613L696.932 538.41L699.053 499.03L805.291 452.153L763.27 416.201V370.759L711.132 369.193V327.784H715.542V364.922L767.68 366.486V414.177L813.474 453.358L703.313 501.964L701.513 535.367L819.531 577.469L818.048 581.613Z" fill="#C0DDE3"/>
</g>
</g>
<path opacity="0.4902" d="M701.928 313.101L713.229 335.492L725.093 313.39C728.604 305.284 722.967 296.035 714.125 295.668C713.993 295.662 713.864 295.66 713.732 295.657C713.6 295.655 713.468 295.655 713.338 295.657C704.492 295.805 698.621 304.909 701.928 313.101ZM707.711 308.453C707.752 305.222 710.409 302.637 713.644 302.678C716.881 302.719 719.47 305.372 719.429 308.6C719.388 311.832 716.731 314.417 713.496 314.375C710.259 314.336 707.669 311.684 707.711 308.453Z" fill="#183658"/>
<path opacity="0.4902" d="M807.072 559.221L818.374 581.613L830.237 559.511C833.749 551.404 828.111 542.155 819.27 541.788C819.138 541.783 819.008 541.78 818.876 541.778C818.744 541.775 818.612 541.775 818.482 541.778C809.634 541.925 803.765 551.03 807.072 559.221ZM812.852 554.576C812.894 551.345 815.551 548.76 818.785 548.801C822.023 548.843 824.612 551.495 824.571 554.724C824.529 557.955 821.872 560.54 818.638 560.498C815.403 560.457 812.814 557.805 812.852 554.576Z" fill="#184655"/>
</g>
<path d="M815.782 244.063H727.716C727.592 244.063 727.491 243.962 727.491 243.838V239.852C727.491 239.728 727.592 239.627 727.716 239.627H815.782C815.906 239.627 816.007 239.728 816.007 239.852V243.838C816.007 243.962 815.906 244.063 815.782 244.063Z" fill="white"/>
<path opacity="0.3" d="M781.621 626.201C781.621 631.821 777.073 636.375 771.461 636.375C765.849 636.375 761.302 631.821 761.302 626.201C761.302 620.581 765.849 616.026 771.461 616.026C777.073 616.024 781.621 620.581 781.621 626.201Z" fill="#DAEEF7"/>
<path opacity="0.2" d="M875.008 594.294H668.153V609.145H875.008V594.294Z" fill="#3CB4C5"/>
<path opacity="0.2" d="M875.712 255.186H668.153V273.971H875.712V255.186Z" fill="#3CB4C5"/>
<path d="M1166.64 207.384H1012.42C1007.1 207.384 1002.78 212.526 1002.78 218.864V294.62C1002.78 300.961 1007.1 306.1 1012.42 306.1H1133.84C1138.75 314.261 1147.66 328.879 1148.45 328.879C1149.18 328.879 1147.77 315.073 1146.77 306.1H1166.64C1171.97 306.1 1176.28 300.959 1176.28 294.62V218.867C1176.29 212.526 1171.97 207.384 1166.64 207.384Z" fill="#EB098F"/>
<path d="M760.851 592.506C760.851 592.506 858.866 608.742 860.042 608.037C861.218 607.331 873.91 552.666 873.91 552.666C873.91 552.666 792.857 538.12 791.544 538.12C790.231 538.12 772.603 552.198 772.368 553.136C772.132 554.075 760.851 592.506 760.851 592.506Z" fill="#183658"/>
<path d="M1059.84 606.395C1062.19 606.63 1180.89 604.092 1180.89 604.092L1171.95 576.833C1171.95 576.833 1155.5 551.996 1146.8 552.449C1138.11 552.901 1086.38 544.531 1077.46 550.709C1068.53 556.89 1060.54 551.963 1056.31 566.744C1052.08 581.525 1048.78 583.179 1052.07 592.09C1055.37 600.998 1059.84 606.395 1059.84 606.395Z" fill="#183658"/>
<path d="M769.944 602.236C767.028 634.253 788.033 642.577 810.346 642.577C842.751 642.577 850.748 624.516 850.748 602.236C850.748 579.955 832.659 561.894 810.346 561.894C788.033 561.894 771.964 580.049 769.944 602.236Z" fill="#1A1A1A"/>
<path d="M810.343 630.304C825.867 630.304 838.452 617.737 838.452 602.236C838.452 586.734 825.867 574.168 810.343 574.168C794.819 574.168 782.234 586.734 782.234 602.236C782.234 617.737 794.819 630.304 810.343 630.304Z" fill="#9E9DA2"/>
<path d="M810.343 621.008C820.725 621.008 829.142 612.603 829.142 602.236C829.142 591.868 820.725 583.463 810.343 583.463C799.961 583.463 791.544 591.868 791.544 602.236C791.544 612.603 799.961 621.008 810.343 621.008Z" fill="#D8D9DD"/>
<path d="M1078.44 608.06C1078.44 630.34 1099.09 642.577 1121.4 642.577C1143.72 642.577 1161.8 632.105 1161.8 602.236C1161.8 579.955 1143.72 561.894 1121.4 561.894C1099.09 561.894 1078.44 585.779 1078.44 608.06Z" fill="#1A1A1A"/>
<path d="M1121.4 630.304C1136.93 630.304 1149.51 617.737 1149.51 602.236C1149.51 586.734 1136.93 574.168 1121.4 574.168C1105.88 574.168 1093.29 586.734 1093.29 602.236C1093.29 617.737 1105.88 630.304 1121.4 630.304Z" fill="#9E9DA2"/>
<path d="M1121.4 621.008C1131.78 621.008 1140.2 612.603 1140.2 602.236C1140.2 591.868 1131.78 583.463 1121.4 583.463C1111.02 583.463 1102.6 591.868 1102.6 602.236C1102.6 612.603 1111.02 621.008 1121.4 621.008Z" fill="#D8D9DD"/>
<path d="M1214.16 563.843C1210.74 541.361 1200.3 531.98 1167.04 530.119C1115.39 527.227 1085.24 499.461 1085.24 499.461C1085.24 499.461 1010.84 456.917 988.085 456.917C968.47 456.917 921.957 453.789 882.469 454.102C842.981 454.415 826.037 465.365 805.977 481.007C785.92 496.649 744.886 508.537 744.886 508.537L741.486 510.882C741.167 511.101 740.807 511.246 740.426 511.324C734.087 512.616 727.335 516.657 727.335 523.052V578.841C727.335 585.159 731.598 590.683 737.717 592.296L760.556 598.319C762.415 598.64 764.145 597.319 764.35 595.445C766.846 572.668 786.536 555.349 810.04 555.305C834.93 555.258 855.409 575.339 855.785 600.18C855.831 603.262 855.57 606.273 855.031 609.187C854.513 611.989 856.631 614.584 859.488 614.584H1069.68C1073.76 614.584 1076.94 611.006 1076.4 606.969C1076.14 605.022 1076 603.034 1075.99 601.018C1075.92 576.308 1095.94 555.822 1120.69 555.313C1146.34 554.785 1167.31 575.388 1167.31 600.878C1167.31 602.592 1167.21 604.283 1167.03 605.948C1166.52 610.559 1170.16 614.584 1174.81 614.584H1205.03C1210.53 614.584 1214.98 610.138 1214.98 604.652V575.429C1214.99 571.552 1214.74 567.677 1214.16 563.843Z" fill="#F2EAD9"/>
<path d="M728.672 529.649H753.566C755.698 529.649 757.143 531.818 756.319 533.78L753.522 540.441C750.858 546.79 744.632 550.923 737.736 550.923H728.672C726.898 550.923 725.46 549.489 725.46 547.718V532.86C725.458 531.084 726.898 529.649 728.672 529.649Z" fill="#C7B9BB"/>
<path d="M1174.56 539.973C1188.27 542.07 1204.06 555.028 1204.06 555.028C1207.83 559.076 1204.72 565.65 1199.19 565.301L1172.46 563.616C1166.9 563.267 1162.17 559.475 1160.62 554.142C1158.02 545.177 1160.23 537.781 1174.56 539.973Z" fill="#F3FCFF"/>
<path d="M727.483 580.914C725.769 580.873 724.554 582.592 725.186 584.182C726.973 588.68 730.808 592.213 735.71 593.508L761.302 600.255C763.387 600.615 765.324 599.136 765.554 597.037C766.028 592.712 767.061 588.566 768.574 584.657C769.087 583.334 768.121 581.907 766.699 581.871L727.483 580.914Z" fill="#7873B9"/>
<path d="M1167.53 591.43C1165.58 591.384 1164.08 593.085 1164.33 595.01C1164.61 597.151 1164.75 599.33 1164.75 601.545C1164.75 603.417 1164.65 605.268 1164.45 607.085C1163.88 612.237 1167.88 616.753 1173.07 616.753H1206.61C1212.71 616.753 1217.65 611.818 1217.65 605.733V597.071C1217.65 594.615 1215.69 592.606 1213.23 592.547L1167.53 591.43Z" fill="#7873B9"/>
<path opacity="0.5" d="M1085.3 512.378C1084.85 512.135 1040.42 487.803 1010.96 474.18C981.789 460.694 949.224 462.123 947.82 462.193C944.078 462.108 866.169 460.42 842.217 467.872C818.089 475.379 786.663 509.576 785.34 511.026L784.974 511.427L793.425 551.008L794.331 550.957C818.907 549.571 837.719 556.101 848.73 569.835C857.054 580.219 858.082 591.182 858.092 591.293L858.172 592.234L946.779 594.506V594.511L947.802 594.532L948.895 594.56V594.553L1072.36 596.957L1072.37 595.897C1072.99 555.847 1085.68 514.025 1085.8 513.606L1086.06 512.784L1085.3 512.378ZM860.081 590.174C859.654 587.203 857.786 577.804 850.45 568.607C842.541 558.694 826.537 547.265 795.113 548.803L787.266 512.055C790.905 508.152 820.629 476.801 842.844 469.891C865.069 462.976 937.254 464.106 946.774 464.287V592.399L860.081 590.174ZM1070.27 594.809L948.89 592.446V464.266C954.6 464.101 983.755 463.93 1010.07 476.095C1037.36 488.715 1077.56 510.563 1083.53 513.818C1081.76 519.859 1071.04 557.903 1070.27 594.809Z" fill="#FFE3BA"/>
<path opacity="0.5" d="M725.189 584.182C726.975 588.68 730.811 592.214 735.713 593.509L761.305 600.256C763.389 600.615 765.326 599.136 765.557 597.037C765.741 595.367 766.007 593.726 766.354 592.113L725.189 584.182Z" fill="#7873B9"/>
<path opacity="0.5" d="M1164.69 603.916C1164.64 604.981 1164.56 606.038 1164.45 607.085C1163.88 612.237 1167.88 616.753 1173.07 616.753H1206.61C1212.71 616.753 1217.65 611.818 1217.65 605.733V603.918H1164.69V603.916Z" fill="#FEB546"/>
<path d="M1077.98 603.916C1077.97 601.631 1078.14 599.382 1078.46 597.182C1078.84 594.538 1076.87 592.141 1074.19 592.077L855.567 586.752C853.182 586.692 851.463 588.964 852.113 591.257C853.247 595.254 853.853 599.465 853.85 603.805C853.848 606.682 853.583 609.5 853.078 612.229C852.55 615.083 854.707 617.725 857.613 617.725H1071.55C1075.75 617.725 1078.92 614.021 1078.37 609.867C1078.12 607.918 1077.98 605.932 1077.98 603.916Z" fill="#7873B9"/>
<path opacity="0.5" d="M1077.98 603.916C1077.98 603.877 1077.98 603.841 1077.98 603.802H853.853C853.85 606.679 853.586 609.497 853.081 612.226C852.553 615.08 854.71 617.722 857.616 617.722H1071.55C1075.75 617.722 1078.92 614.018 1078.37 609.864C1078.12 607.917 1077.98 605.932 1077.98 603.916Z" fill="#F5E1C4"/>
<path d="M834.427 528.253H807.152C806.505 528.253 805.982 527.731 805.982 527.084V524.649C805.982 524.003 806.505 523.481 807.152 523.481H834.427C835.075 523.481 835.598 524.003 835.598 524.649V527.084C835.598 527.731 835.072 528.253 834.427 528.253Z" fill="#7873B9"/>
<path d="M984.801 530.639H957.526C956.879 530.639 956.356 530.117 956.356 529.47V527.035C956.356 526.389 956.879 525.867 957.526 525.867H984.801C985.449 525.867 985.972 526.389 985.972 527.035V529.47C985.972 530.114 985.449 530.639 984.801 530.639Z" fill="#7873B9"/>
<path d="M811.195 516.118L932.018 517.258C932.018 517.258 939.411 517.059 940.419 510.113C941.426 503.167 941.341 473.417 941.341 473.417C941.341 473.417 940.463 467.443 934.732 467.368C931.249 467.321 902.057 465.238 873.667 468.691C850.507 471.506 829.082 482.066 812.837 498.284L804.26 506.848C804.263 506.848 798.477 515.999 811.195 516.118Z" fill="#BABABA"/>
<path d="M954.789 477.194V508.387C954.789 512.44 957.904 515.767 961.843 515.927L1056.78 519.738C1058.96 519.826 1061.1 518.843 1062.34 517.005C1064.05 514.498 1064.25 510.375 1055.74 504.845C1040.94 495.229 1003.3 474.43 989.382 472.419C980.52 471.137 968.924 470.581 961.665 470.346C957.902 470.219 954.789 473.321 954.789 477.194Z" fill="#BABABA"/>
<path d="M1147.05 373.582L1145.88 374.512C1145.28 374.99 1144.39 374.97 1143.87 374.468L1123.25 354.194C1122.73 353.69 1122.8 352.894 1123.4 352.416L1124.56 351.485C1125.16 351.007 1126.06 351.027 1126.57 351.529L1147.2 371.803C1147.71 372.307 1147.64 373.103 1147.05 373.582Z" fill="#183658"/>
<path d="M1216.98 357.11C1214.22 355.107 1192.9 363.472 1193.17 366.383C1193.44 369.296 1178.29 397.524 1178.29 397.524L1152.11 378.86L1152.1 378.866C1151.87 378.191 1149.39 370.932 1149.27 369.634C1149.14 368.272 1144.72 365.889 1142.67 366.24C1140.61 366.592 1144.42 368.895 1144.67 369.319C1145.36 370.469 1142.72 370.904 1142.72 370.904C1142.72 370.904 1135.16 367.192 1135 365.01C1134.84 362.828 1133.27 358.253 1131.64 359.209C1130.8 359.703 1130.8 362.95 1131.07 364.488C1130.58 362.74 1129.89 360.765 1129.22 360.569C1128 360.212 1127.39 361.603 1127.61 362.285C1127.84 362.968 1129.81 370.392 1130.41 371.227C1131 372.044 1143.21 380.843 1144.97 382.751C1144.97 382.751 1178.83 417.359 1181.24 418.266C1183.36 419.06 1190.9 407.135 1198.02 399.215C1205.15 391.299 1225.59 363.374 1216.98 357.11Z" fill="#F7A491"/>
<path d="M1285.29 611.59C1285.29 611.59 1289.95 615.649 1290.05 617.14C1290.16 618.629 1290.47 634.589 1288.57 636.081C1286.67 637.57 1281.09 638.627 1282.88 640.302C1284.24 641.569 1294.67 641.297 1301.58 640.959C1303.6 640.86 1306.13 626.465 1306.93 624.35C1308.09 621.276 1310.91 614.356 1309.86 612.216C1309.34 611.172 1306.89 609.029 1303.42 607.025C1299.77 604.921 1296.28 600.232 1296.28 600.232L1285.29 611.59Z" fill="#F48C7F"/>
<path d="M1237.1 621.043C1237.1 621.043 1241.26 631.562 1241.27 631.587C1241.58 633.255 1242.8 637.37 1242.8 638.885C1242.8 644.575 1214.09 634.054 1220.53 631.533C1221.11 631.306 1222.93 629.481 1223.13 627.545C1223.42 624.561 1220.71 620.818 1220.71 620.818L1237.1 621.043Z" fill="#F7A491"/>
<path d="M1192.07 425.202C1192.07 425.202 1189.98 444.057 1189.98 444.336C1189.98 474.834 1183.22 534.41 1184.51 540.144C1187.64 554.129 1221.41 625.474 1221.41 625.474L1239.65 623.525L1215.88 538.104L1224.63 503.721L1237.01 435.759L1192.07 425.202Z" fill="#355389"/>
<path d="M1253.31 441.878L1256.78 459.748L1266.14 533.291L1301.82 605.169C1301.82 605.169 1296.8 615.628 1289.4 617.097L1232.62 543.3L1197.35 448.87L1198.58 427.89L1253.31 441.878Z" fill="#466EB6"/>
<path d="M1184.8 380.311L1210.1 382.619C1210.1 382.619 1211.26 364.072 1211.26 355.223C1211.26 344.49 1210.24 330.663 1208.79 330.96C1204.72 331.795 1199.24 333.804 1195.98 337.811C1184.69 351.684 1184.8 380.311 1184.8 380.311Z" fill="#DAD8F2"/>
<path d="M1197.23 353.334C1196.7 356.606 1186.97 445.579 1186.97 445.579C1233.04 465.476 1258.46 449.123 1258.46 449.123C1258.46 449.123 1256.96 386.647 1258.76 378.142C1259.96 372.517 1261.45 335.13 1257.37 334.083C1252.14 332.739 1246.14 331.312 1239.6 330.705C1234.01 330.188 1212.33 329.888 1208.45 331.051C1208.45 331.051 1199.45 339.569 1197.23 353.334Z" fill="#DAD8F2"/>
<path d="M1303.19 606.919C1303.19 606.919 1292.47 633.915 1288.27 635.22C1287.15 635.566 1281.8 636.445 1280.8 638.56C1280.49 639.198 1280.8 641.326 1280.8 641.326H1303.15C1303.15 641.326 1305.98 629.432 1307.09 624.205C1307.09 624.205 1313.01 611.435 1312.35 610.275C1311.69 609.112 1303.19 606.919 1303.19 606.919Z" fill="#8B9492"/>
<path d="M1244.43 640.762L1241.14 631.479C1241.14 631.479 1234.24 634.09 1230.79 633.656C1227.34 633.222 1220.6 631.479 1220.6 631.479C1206.82 635.533 1195.54 637.503 1197.59 640.762H1244.43Z" fill="#888C8C"/>
<path d="M1181.24 418.268C1181.14 418.229 1180.76 417.966 1180.55 417.805C1181.37 409.089 1181.22 400.644 1178.16 397.787C1178.23 397.65 1178.9 396.378 1179.6 395.062C1183.15 397.516 1184.83 404.03 1184.17 414.605C1184.13 415.334 1183.89 415.887 1183.7 416.795C1182.68 417.803 1181.74 418.454 1181.24 418.268Z" fill="#F7A491"/>
<path d="M1304.09 446.52C1304.12 446.329 1304.12 446.137 1304.1 445.946C1303.43 439.783 1297.7 388.045 1296.74 385.845C1295.87 383.86 1270.21 351.043 1270.21 351.043L1257.6 366.408L1282.28 395.841C1282.83 397.713 1291.73 432.638 1291.73 432.638C1291.73 432.638 1293.56 439.005 1294.38 442.818C1294 443.736 1293.64 444.604 1293.32 445.315C1292.5 446.838 1291.53 448.086 1290.66 449.136C1289.55 450.457 1287.73 453.347 1287.5 454.12C1287.24 455.019 1286.77 456.886 1286.5 458.013C1286.24 459.14 1285.87 460.453 1285.81 461.063C1285.77 461.435 1285.34 462.177 1285.01 462.702C1284.52 463.483 1285.36 464.406 1286.31 464.124C1287.21 463.858 1287.91 462.821 1288.34 462.172C1289.55 460.347 1290.2 457.015 1290.5 457.191C1290.81 457.367 1291.87 463.02 1292.04 463.661C1292.2 464.3 1293.48 470.865 1294.2 472.065C1294.92 473.264 1295.87 473.065 1296.13 472.313C1296.35 471.667 1295.33 462.48 1295.33 462.48C1295.33 462.48 1295.21 461.309 1295.78 461.673C1296.36 462.04 1297.29 470.379 1297.69 471.6C1298.09 472.82 1299 473.466 1299.77 472.486C1300.71 471.292 1299.1 462.449 1299.1 462.449C1299.1 462.449 1298.92 461.337 1299.45 461.441C1299.98 461.544 1300.64 468.653 1301.06 469.265C1301.47 469.881 1302.52 470.1 1303.01 469.077C1303.6 467.869 1302.08 459.985 1302.08 459.985C1302.08 459.985 1302.16 459.357 1302.49 459.566C1302.82 459.773 1303.87 465.796 1304.56 466.355C1305.13 466.823 1305.61 466.368 1305.61 466.368C1306.87 465.6 1304.94 459.871 1304.96 457.023C1304.98 454.174 1303.5 450.974 1303.94 447.582C1303.97 447.37 1304.04 446.848 1304.09 446.52Z" fill="#F8A492"/>
<path d="M1290.26 371.829L1268.34 384.987C1268.34 384.987 1255.98 368.549 1249.35 362.696C1241.05 355.365 1252.38 332.907 1257.73 334.178C1269.7 337.022 1290.26 371.829 1290.26 371.829Z" fill="#DAD8F2"/>
<path d="M1237.99 311.467L1241.27 330.79C1241.27 330.79 1229.29 353.796 1222.14 351.801C1216.15 350.125 1219.84 329.769 1219.84 329.769C1219.84 329.769 1223.11 318.837 1222.13 313.367C1221.15 307.897 1237.99 311.467 1237.99 311.467Z" fill="#F7A491"/>
<path d="M1222.13 313.367C1221.15 307.897 1237.99 311.467 1237.99 311.467L1238.26 313.069C1237.77 314.142 1237.17 315.06 1236.43 315.763C1232.67 319.385 1226.79 321.559 1221.71 321.721C1222.21 318.772 1222.53 315.611 1222.13 313.367Z" fill="#F47458"/>
<path d="M1240.75 284.133C1241.23 283.978 1244.57 306.139 1238.23 312.237C1231.89 318.335 1219.54 320.331 1215.12 315.528C1210.22 310.216 1210.46 286.398 1220.32 280.124C1230.17 273.853 1240.75 284.133 1240.75 284.133Z" fill="#F7A491"/>
<path d="M1224.07 268.269C1231.68 269.657 1236.62 273.819 1238.43 275.592C1241.89 275.957 1246.59 277.665 1251.44 284.851C1257.41 293.687 1253 303.474 1246.05 308.277C1239.1 313.08 1239.2 318.627 1239.2 318.627L1238.11 315.758C1237.29 313.584 1236.96 311.278 1237.24 308.998C1237.4 307.631 1237.72 306.149 1238.36 304.934C1240.03 301.726 1234.77 299.596 1233.3 296.929C1232.16 294.874 1232.1 290.174 1230.32 286.777L1228.18 284.185C1228.18 284.185 1223.25 280.754 1218.43 281.724C1213.6 282.693 1214.3 266.488 1224.07 268.269Z" fill="#184655"/>
<path d="M1233.62 300.873C1233.57 303.577 1234.94 305.79 1236.69 305.819C1238.44 305.844 1239.89 303.676 1239.94 300.972C1239.99 298.268 1238.62 296.055 1236.87 296.027C1235.12 296.001 1233.67 298.17 1233.62 300.873Z" fill="#F7A491"/>
<path d="M1209.13 309.277L1220.03 314.525C1220.03 314.525 1222.73 309.523 1218.04 307.051C1212.31 304.04 1209.13 309.277 1209.13 309.277Z" fill="white"/>
<path d="M1087.45 225.154C1088.61 223.186 1091.45 223.186 1092.61 225.154L1113.67 260.842C1114.85 262.841 1113.41 265.366 1111.09 265.366H1068.97C1066.65 265.366 1065.21 262.841 1066.39 260.842L1087.45 225.154Z" fill="white"/>
<path d="M1091.82 241.455H1088.66L1088.95 251.639H1091.55L1091.82 241.455ZM1090.25 256.185C1091.15 256.185 1091.94 255.425 1091.95 254.48C1091.94 253.55 1091.15 252.79 1090.25 252.79C1089.31 252.79 1088.53 253.55 1088.54 254.48C1088.53 255.425 1089.31 256.185 1090.25 256.185Z" fill="#888888"/>
<path d="M1055.35 287C1058.01 287 1059.62 285.355 1059.62 282.628C1059.62 279.909 1058.01 278.273 1055.38 278.273H1052.26V287H1055.35ZM1054.1 285.419V279.854H1055.28C1056.91 279.854 1057.78 280.689 1057.78 282.628C1057.78 284.575 1056.91 285.419 1055.27 285.419H1054.1ZM1060.95 287H1062.77V280.455H1060.95V287ZM1061.87 279.611C1062.41 279.611 1062.85 279.197 1062.85 278.69C1062.85 278.188 1062.41 277.774 1061.87 277.774C1061.33 277.774 1060.88 278.188 1060.88 278.69C1060.88 279.197 1061.33 279.611 1061.87 279.611ZM1069.67 282.321C1069.51 281.115 1068.54 280.369 1066.88 280.369C1065.21 280.369 1064.1 281.145 1064.11 282.406C1064.1 283.386 1064.72 284.021 1066 284.277L1067.13 284.503C1067.7 284.618 1067.96 284.827 1067.97 285.155C1067.96 285.543 1067.54 285.82 1066.91 285.82C1066.26 285.82 1065.83 285.543 1065.72 285.01L1063.93 285.104C1064.1 286.357 1065.17 287.128 1066.9 287.128C1068.6 287.128 1069.81 286.263 1069.82 284.972C1069.81 284.026 1069.2 283.459 1067.93 283.199L1066.74 282.96C1066.13 282.828 1065.91 282.619 1065.91 282.304C1065.91 281.912 1066.35 281.656 1066.91 281.656C1067.54 281.656 1067.92 282.001 1068.01 282.423L1069.67 282.321ZM1073.92 287.128C1075.66 287.128 1076.76 286.105 1076.84 284.601H1075.13C1075.02 285.3 1074.56 285.692 1073.94 285.692C1073.09 285.692 1072.54 284.98 1072.54 283.727C1072.54 282.491 1073.1 281.784 1073.94 281.784C1074.6 281.784 1075.03 282.223 1075.13 282.875H1076.84C1076.76 281.362 1075.62 280.369 1073.91 280.369C1071.92 280.369 1070.7 281.746 1070.7 283.753C1070.7 285.743 1071.9 287.128 1073.92 287.128ZM1080.96 287.128C1082.95 287.128 1084.18 285.768 1084.18 283.753C1084.18 281.724 1082.95 280.369 1080.96 280.369C1078.98 280.369 1077.74 281.724 1077.74 283.753C1077.74 285.768 1078.98 287.128 1080.96 287.128ZM1080.97 285.722C1080.05 285.722 1079.58 284.882 1079.58 283.74C1079.58 282.598 1080.05 281.754 1080.97 281.754C1081.87 281.754 1082.34 282.598 1082.34 283.74C1082.34 284.882 1081.87 285.722 1080.97 285.722ZM1087.18 283.216C1087.18 282.372 1087.69 281.878 1088.42 281.878C1089.15 281.878 1089.59 282.355 1089.58 283.156V287H1091.4V282.832C1091.4 281.307 1090.5 280.369 1089.14 280.369C1088.17 280.369 1087.46 280.847 1087.17 281.609H1087.09V280.455H1085.36V287H1087.18V283.216ZM1094.64 283.216C1094.65 282.372 1095.15 281.878 1095.88 281.878C1096.61 281.878 1097.05 282.355 1097.05 283.156V287H1098.86V282.832C1098.86 281.307 1097.97 280.369 1096.6 280.369C1095.63 280.369 1094.93 280.847 1094.63 281.609H1094.56V280.455H1092.83V287H1094.64V283.216ZM1103.28 287.128C1104.9 287.128 1105.99 286.339 1106.24 285.125L1104.56 285.014C1104.38 285.513 1103.91 285.773 1103.31 285.773C1102.4 285.773 1101.82 285.172 1101.82 284.196V284.192H1106.28V283.693C1106.28 281.469 1104.93 280.369 1103.2 280.369C1101.28 280.369 1100.03 281.737 1100.03 283.757C1100.03 285.832 1101.26 287.128 1103.28 287.128ZM1101.82 283.067C1101.86 282.321 1102.43 281.724 1103.23 281.724C1104.02 281.724 1104.57 282.287 1104.57 283.067H1101.82ZM1110.42 287.128C1112.17 287.128 1113.26 286.105 1113.35 284.601H1111.63C1111.53 285.3 1111.07 285.692 1110.44 285.692C1109.6 285.692 1109.05 284.98 1109.05 283.727C1109.05 282.491 1109.6 281.784 1110.44 281.784C1111.11 281.784 1111.53 282.223 1111.63 282.875H1113.35C1113.27 281.362 1112.12 280.369 1110.41 280.369C1108.43 280.369 1107.2 281.746 1107.2 283.753C1107.2 285.743 1108.41 287.128 1110.42 287.128ZM1117.99 280.455H1116.76V278.886H1114.94V280.455H1114.05V281.818H1114.94V285.227C1114.93 286.51 1115.81 287.145 1117.12 287.089C1117.59 287.072 1117.93 286.979 1118.11 286.919L1117.82 285.568C1117.73 285.585 1117.54 285.628 1117.37 285.628C1117.01 285.628 1116.76 285.491 1116.76 284.989V281.818H1117.99V280.455ZM1122.08 287.128C1123.7 287.128 1124.79 286.339 1125.05 285.125L1123.37 285.014C1123.19 285.513 1122.72 285.773 1122.11 285.773C1121.21 285.773 1120.63 285.172 1120.63 284.196V284.192H1125.09V283.693C1125.09 281.469 1123.74 280.369 1122.01 280.369C1120.09 280.369 1118.84 281.737 1118.84 283.757C1118.84 285.832 1120.07 287.128 1122.08 287.128ZM1120.63 283.067C1120.67 282.321 1121.24 281.724 1122.04 281.724C1122.83 281.724 1123.38 282.287 1123.38 283.067H1120.63ZM1128.69 287.107C1129.74 287.107 1130.29 286.497 1130.54 285.952H1130.62V287H1132.41V278.273H1130.6V281.554H1130.54C1130.3 281.021 1129.78 280.369 1128.68 280.369C1127.24 280.369 1126.03 281.486 1126.03 283.736C1126.03 285.926 1127.19 287.107 1128.69 287.107ZM1129.26 285.662C1128.37 285.662 1127.88 284.869 1127.88 283.727C1127.88 282.594 1128.36 281.814 1129.26 281.814C1130.14 281.814 1130.64 282.56 1130.64 283.727C1130.64 284.895 1130.13 285.662 1129.26 285.662Z" fill="white"/>
<ellipse cx="773.164" cy="410.589" rx="60.1168" ry="60.1013" fill="white"/>
<path d="M780.29 380.818H767.648L768.784 421.557H779.182L780.29 380.818ZM773.983 439.739C777.619 439.739 780.773 436.699 780.801 432.92C780.773 429.199 777.619 426.159 773.983 426.159C770.233 426.159 767.136 429.199 767.165 432.92C767.136 436.699 770.233 439.739 773.983 439.739Z" fill="#888888"/>
<path d="M116.581 518.17C118.243 518.17 119.457 517.339 119.841 516.104L118.626 515.763C118.307 516.615 117.566 517.041 116.581 517.041C115.105 517.041 114.088 516.088 114.029 514.335H119.969V513.803C119.969 510.756 118.158 509.712 116.453 509.712C114.237 509.712 112.767 511.459 112.767 513.973C112.767 516.487 114.216 518.17 116.581 518.17ZM114.029 513.249C114.115 511.975 115.015 510.841 116.453 510.841C117.817 510.841 118.69 511.864 118.69 513.249H114.029ZM122.797 518.085C123.325 518.085 123.756 517.654 123.756 517.126C123.756 516.599 123.325 516.168 122.797 516.168C122.27 516.168 121.838 516.599 121.838 517.126C121.838 517.654 122.27 518.085 122.797 518.085ZM129.314 521.239C131.275 521.239 132.851 520.344 132.851 518.234V509.818H131.637V511.118H131.509C131.232 510.692 130.721 509.712 129.123 509.712C127.056 509.712 125.628 511.352 125.628 513.866C125.628 516.423 127.12 517.872 129.101 517.872C130.699 517.872 131.211 516.935 131.488 516.487H131.594V518.149C131.594 519.513 130.635 520.131 129.314 520.131C127.828 520.131 127.306 519.348 126.971 518.895L125.969 519.598C126.481 520.456 127.487 521.239 129.314 521.239ZM129.272 516.743C127.695 516.743 126.885 515.55 126.885 513.845C126.885 512.183 127.674 510.841 129.272 510.841C130.806 510.841 131.616 512.077 131.616 513.845C131.616 515.656 130.785 516.743 129.272 516.743ZM136.069 518.085C136.596 518.085 137.028 517.654 137.028 517.126C137.028 516.599 136.596 516.168 136.069 516.168C135.541 516.168 135.11 516.599 135.11 517.126C135.11 517.654 135.541 518.085 136.069 518.085ZM141.158 516.509H139.795L139.731 517.105C139.576 518.549 139.273 519.987 139.134 520.663H140.093C140.349 519.939 140.892 518.298 141.073 517.084L141.158 516.509ZM147.706 518H148.963V512.822C148.963 511.714 149.837 510.905 151.03 510.905C151.366 510.905 151.712 510.969 151.797 510.99V509.712C151.653 509.701 151.323 509.69 151.137 509.69C150.157 509.69 149.304 510.244 149.006 511.054H148.921V509.818H147.706V518ZM153.287 518H154.544V509.818H153.287V518ZM153.926 508.455C154.417 508.455 154.821 508.071 154.821 507.602C154.821 507.134 154.417 506.75 153.926 506.75C153.436 506.75 153.032 507.134 153.032 507.602C153.032 508.071 153.436 508.455 153.926 508.455ZM159.936 518.17C161.513 518.17 162.046 517.19 162.323 516.743H162.472V518H163.686V507.091H162.429V511.118H162.323C162.046 510.692 161.556 509.712 159.958 509.712C157.891 509.712 156.463 511.352 156.463 513.93C156.463 516.53 157.891 518.17 159.936 518.17ZM160.107 517.041C158.53 517.041 157.72 515.656 157.72 513.909C157.72 512.183 158.509 510.841 160.107 510.841C161.641 510.841 162.451 512.077 162.451 513.909C162.451 515.763 161.62 517.041 160.107 517.041ZM169.594 518.17C171.256 518.17 172.47 517.339 172.854 516.104L171.639 515.763C171.32 516.615 170.579 517.041 169.594 517.041C168.118 517.041 167.101 516.088 167.042 514.335H172.981V513.803C172.981 510.756 171.17 509.712 169.466 509.712C167.25 509.712 165.78 511.459 165.78 513.973C165.78 516.487 167.229 518.17 169.594 518.17ZM167.042 513.249C167.127 511.975 168.028 510.841 169.466 510.841C170.829 510.841 171.703 511.864 171.703 513.249H167.042ZM184.908 511.651C184.514 510.489 183.63 509.712 182.01 509.712C180.284 509.712 179.006 510.692 179.006 512.077C179.006 513.206 179.677 513.962 181.179 514.314L182.543 514.634C183.369 514.825 183.757 515.219 183.757 515.784C183.757 516.487 183.012 517.062 181.84 517.062C180.812 517.062 180.167 516.62 179.943 515.741L178.75 516.04C179.043 517.43 180.188 518.17 181.861 518.17C183.763 518.17 185.057 517.132 185.057 515.72C185.057 514.58 184.343 513.861 182.884 513.504L181.669 513.206C180.7 512.966 180.263 512.641 180.263 512.013C180.263 511.31 181.009 510.798 182.01 510.798C183.108 510.798 183.56 511.406 183.779 511.97L184.908 511.651ZM188.206 513.078C188.206 511.651 189.117 510.841 190.358 510.841C191.541 510.841 192.255 511.587 192.255 512.886V518H193.512V512.801C193.512 510.697 192.393 509.712 190.721 509.712C189.432 509.712 188.697 510.25 188.313 511.097H188.206V507.091H186.949V518H188.206V513.078ZM198.219 518.192C199.647 518.192 200.393 517.425 200.648 516.892H200.712V518H201.969V512.609C201.969 510.01 199.988 509.712 198.944 509.712C197.708 509.712 196.302 510.138 195.663 511.629L196.856 512.055C197.133 511.459 197.788 510.82 198.986 510.82C200.142 510.82 200.712 511.432 200.712 512.482V512.524C200.712 513.131 200.094 513.078 198.603 513.27C197.085 513.467 195.428 513.803 195.428 515.678C195.428 517.276 196.664 518.192 198.219 518.192ZM198.411 517.062C197.41 517.062 196.685 516.615 196.685 515.741C196.685 514.783 197.559 514.484 198.539 514.357C199.072 514.293 200.499 514.143 200.712 513.888V515.038C200.712 516.061 199.903 517.062 198.411 517.062ZM204.264 518H205.521V512.822C205.521 511.714 206.395 510.905 207.588 510.905C207.923 510.905 208.27 510.969 208.355 510.99V509.712C208.211 509.701 207.881 509.69 207.694 509.69C206.714 509.69 205.862 510.244 205.564 511.054H205.478V509.818H204.264V518ZM213.026 518.17C214.688 518.17 215.903 517.339 216.286 516.104L215.072 515.763C214.752 516.615 214.012 517.041 213.026 517.041C211.551 517.041 210.533 516.088 210.475 514.335H216.414V513.803C216.414 510.756 214.603 509.712 212.898 509.712C210.683 509.712 209.212 511.459 209.212 513.973C209.212 516.487 210.661 518.17 213.026 518.17ZM210.475 513.249C210.56 511.975 211.46 510.841 212.898 510.841C214.262 510.841 215.136 511.864 215.136 513.249H210.475ZM225.635 518.17C227.211 518.17 227.744 517.19 228.021 516.743H228.17V518H229.385V507.091H228.127V511.118H228.021C227.744 510.692 227.254 509.712 225.656 509.712C223.589 509.712 222.162 511.352 222.162 513.93C222.162 516.53 223.589 518.17 225.635 518.17ZM225.805 517.041C224.228 517.041 223.419 515.656 223.419 513.909C223.419 512.183 224.207 510.841 225.805 510.841C227.339 510.841 228.149 512.077 228.149 513.909C228.149 515.763 227.318 517.041 225.805 517.041ZM231.862 518H233.119V512.822C233.119 511.714 233.992 510.905 235.185 510.905C235.521 510.905 235.867 510.969 235.952 510.99V509.712C235.809 509.701 235.478 509.69 235.292 509.69C234.312 509.69 233.46 510.244 233.161 511.054H233.076V509.818H231.862V518ZM237.443 518H238.7V509.818H237.443V518ZM238.082 508.455C238.572 508.455 238.977 508.071 238.977 507.602C238.977 507.134 238.572 506.75 238.082 506.75C237.592 506.75 237.187 507.134 237.187 507.602C237.187 508.071 237.592 508.455 238.082 508.455ZM247.692 509.818H246.329L244.07 516.338H243.985L241.727 509.818H240.363L243.388 518H244.667L247.692 509.818ZM252.489 518.17C254.151 518.17 255.366 517.339 255.749 516.104L254.535 515.763C254.215 516.615 253.475 517.041 252.489 517.041C251.014 517.041 249.996 516.088 249.938 514.335H255.877V513.803C255.877 510.756 254.066 509.712 252.361 509.712C250.145 509.712 248.675 511.459 248.675 513.973C248.675 516.487 250.124 518.17 252.489 518.17ZM249.938 513.249C250.023 511.975 250.923 510.841 252.361 510.841C253.725 510.841 254.599 511.864 254.599 513.249H249.938ZM257.789 518H259.046V512.822C259.046 511.714 259.92 510.905 261.113 510.905C261.449 510.905 261.795 510.969 261.88 510.99V509.712C261.736 509.701 261.406 509.69 261.22 509.69C260.24 509.69 259.387 510.244 259.089 511.054H259.004V509.818H257.789V518ZM269.166 511.651C268.772 510.489 267.887 509.712 266.268 509.712C264.542 509.712 263.264 510.692 263.264 512.077C263.264 513.206 263.935 513.962 265.437 514.314L266.801 514.634C267.626 514.825 268.015 515.219 268.015 515.784C268.015 516.487 267.269 517.062 266.098 517.062C265.07 517.062 264.425 516.62 264.201 515.741L263.008 516.04C263.301 517.43 264.446 518.17 266.119 518.17C268.021 518.17 269.315 517.132 269.315 515.72C269.315 514.58 268.601 513.861 267.142 513.504L265.927 513.206C264.958 512.966 264.521 512.641 264.521 512.013C264.521 511.31 265.267 510.798 266.268 510.798C267.365 510.798 267.818 511.406 268.036 511.97L269.166 511.651ZM273.082 516.509H271.719L271.655 517.105C271.5 518.549 271.197 519.987 271.058 520.663H272.017C272.273 519.939 272.816 518.298 272.997 517.084L273.082 516.509ZM283.188 509.818H281.441V507.858H280.184V509.818H278.948V510.884H280.184V515.997C280.184 517.425 281.335 518.107 282.4 518.107C282.869 518.107 283.167 518.021 283.337 517.957L283.082 516.828C282.975 516.849 282.805 516.892 282.528 516.892C281.974 516.892 281.441 516.722 281.441 515.656V510.884H283.188V509.818ZM285.079 518H286.336V512.822C286.336 511.714 287.21 510.905 288.403 510.905C288.739 510.905 289.085 510.969 289.17 510.99V509.712C289.026 509.701 288.696 509.69 288.51 509.69C287.53 509.69 286.677 510.244 286.379 511.054H286.294V509.818H285.079V518ZM293.068 518.192C294.496 518.192 295.241 517.425 295.497 516.892H295.561V518H296.818V512.609C296.818 510.01 294.836 509.712 293.792 509.712C292.557 509.712 291.15 510.138 290.511 511.629L291.704 512.055C291.981 511.459 292.637 510.82 293.835 510.82C294.991 510.82 295.561 511.432 295.561 512.482V512.524C295.561 513.131 294.943 513.078 293.452 513.27C291.933 513.467 290.277 513.803 290.277 515.678C290.277 517.276 291.513 518.192 293.068 518.192ZM293.26 517.062C292.258 517.062 291.534 516.615 291.534 515.741C291.534 514.783 292.407 514.484 293.388 514.357C293.92 514.293 295.348 514.143 295.561 513.888V515.038C295.561 516.061 294.751 517.062 293.26 517.062ZM302.202 518.17C303.779 518.17 304.311 517.19 304.588 516.743H304.737V518H305.952V507.091H304.695V511.118H304.588C304.311 510.692 303.821 509.712 302.223 509.712C300.157 509.712 298.729 511.352 298.729 513.93C298.729 516.53 300.157 518.17 302.202 518.17ZM302.372 517.041C300.796 517.041 299.986 515.656 299.986 513.909C299.986 512.183 300.774 510.841 302.372 510.841C303.907 510.841 304.716 512.077 304.716 513.909C304.716 515.763 303.885 517.041 302.372 517.041ZM311.859 518.17C313.521 518.17 314.736 517.339 315.119 516.104L313.905 515.763C313.585 516.615 312.845 517.041 311.859 517.041C310.384 517.041 309.366 516.088 309.308 514.335H315.247V513.803C315.247 510.756 313.436 509.712 311.731 509.712C309.516 509.712 308.045 511.459 308.045 513.973C308.045 516.487 309.494 518.17 311.859 518.17ZM309.308 513.249C309.393 511.975 310.293 510.841 311.731 510.841C313.095 510.841 313.969 511.864 313.969 513.249H309.308ZM317.159 521.068H318.416V516.743H318.523C318.8 517.19 319.333 518.17 320.909 518.17C322.955 518.17 324.382 516.53 324.382 513.93C324.382 511.352 322.955 509.712 320.888 509.712C319.29 509.712 318.8 510.692 318.523 511.118H318.374V509.818H317.159V521.068ZM318.395 513.909C318.395 512.077 319.205 510.841 320.739 510.841C322.337 510.841 323.125 512.183 323.125 513.909C323.125 515.656 322.316 517.041 320.739 517.041C319.226 517.041 318.395 515.763 318.395 513.909ZM329.73 518.17C331.392 518.17 332.607 517.339 332.99 516.104L331.776 515.763C331.456 516.615 330.716 517.041 329.73 517.041C328.255 517.041 327.237 516.088 327.179 514.335H333.118V513.803C333.118 510.756 331.307 509.712 329.603 509.712C327.387 509.712 325.916 511.459 325.916 513.973C325.916 516.487 327.365 518.17 329.73 518.17ZM327.179 513.249C327.264 511.975 328.164 510.841 329.603 510.841C330.966 510.841 331.84 511.864 331.84 513.249H327.179ZM335.03 518H336.288V512.822C336.288 511.714 337.161 510.905 338.354 510.905C338.69 510.905 339.036 510.969 339.121 510.99V509.712C338.978 509.701 338.647 509.69 338.461 509.69C337.481 509.69 336.628 510.244 336.33 511.054H336.245V509.818H335.03V518ZM346.407 511.651C346.013 510.489 345.129 509.712 343.509 509.712C341.783 509.712 340.505 510.692 340.505 512.077C340.505 513.206 341.176 513.962 342.678 514.314L344.042 514.634C344.868 514.825 345.256 515.219 345.256 515.784C345.256 516.487 344.511 517.062 343.339 517.062C342.311 517.062 341.666 516.62 341.442 515.741L340.249 516.04C340.542 517.43 341.688 518.17 343.36 518.17C345.262 518.17 346.556 517.132 346.556 515.72C346.556 514.58 345.842 513.861 344.383 513.504L343.168 513.206C342.199 512.966 341.762 512.641 341.762 512.013C341.762 511.31 342.508 510.798 343.509 510.798C344.607 510.798 345.059 511.406 345.278 511.97L346.407 511.651ZM351.772 518.17C353.988 518.17 355.48 516.487 355.48 513.952C355.48 511.395 353.988 509.712 351.772 509.712C349.556 509.712 348.065 511.395 348.065 513.952C348.065 516.487 349.556 518.17 351.772 518.17ZM351.772 517.041C350.089 517.041 349.322 515.592 349.322 513.952C349.322 512.311 350.089 510.841 351.772 510.841C353.456 510.841 354.223 512.311 354.223 513.952C354.223 515.592 353.456 517.041 351.772 517.041ZM358.656 513.078C358.656 511.651 359.54 510.841 360.744 510.841C361.91 510.841 362.619 511.603 362.619 512.886V518H363.876V512.801C363.876 510.713 362.763 509.712 361.106 509.712C359.87 509.712 359.103 510.266 358.72 511.097H358.613V509.818H357.399V518H358.656V513.078ZM371.968 511.651C371.574 510.489 370.69 509.712 369.071 509.712C367.345 509.712 366.066 510.692 366.066 512.077C366.066 513.206 366.738 513.962 368.24 514.314L369.603 514.634C370.429 514.825 370.818 515.219 370.818 515.784C370.818 516.487 370.072 517.062 368.9 517.062C367.872 517.062 367.228 516.62 367.004 515.741L365.811 516.04C366.104 517.43 367.249 518.17 368.922 518.17C370.823 518.17 372.118 517.132 372.118 515.72C372.118 514.58 371.404 513.861 369.944 513.504L368.73 513.206C367.76 512.966 367.324 512.641 367.324 512.013C367.324 511.31 368.069 510.798 369.071 510.798C370.168 510.798 370.621 511.406 370.839 511.97L371.968 511.651ZM115.004 539H116.24L118.03 532.714H118.158L119.947 539H121.183L123.676 530.818H122.355L120.587 537.061H120.501L118.776 530.818H117.433L115.686 537.082H115.601L113.832 530.818H112.511L115.004 539ZM126.595 534.078C126.595 532.651 127.506 531.841 128.747 531.841C129.93 531.841 130.643 532.587 130.643 533.886V539H131.901V533.801C131.901 531.697 130.782 530.712 129.109 530.712C127.82 530.712 127.085 531.25 126.702 532.097H126.595V528.091H125.338V539H126.595V534.078ZM137.524 539.17C139.74 539.17 141.232 537.487 141.232 534.952C141.232 532.395 139.74 530.712 137.524 530.712C135.308 530.712 133.817 532.395 133.817 534.952C133.817 537.487 135.308 539.17 137.524 539.17ZM137.524 538.041C135.841 538.041 135.074 536.592 135.074 534.952C135.074 533.311 135.841 531.841 137.524 531.841C139.207 531.841 139.975 533.311 139.975 534.952C139.975 536.592 139.207 538.041 137.524 538.041ZM151.013 530.818H149.18V529.987C149.18 529.178 149.521 528.751 150.352 528.751C150.714 528.751 150.928 528.837 151.055 528.879L151.418 527.793C151.226 527.707 150.842 527.58 150.224 527.58C149.053 527.58 147.923 528.283 147.923 529.689V530.818H146.602V531.884H147.923V539H149.18V531.884H151.013V530.818ZM152.775 539H154.032V530.818H152.775V539ZM153.414 529.455C153.904 529.455 154.309 529.071 154.309 528.602C154.309 528.134 153.904 527.75 153.414 527.75C152.924 527.75 152.519 528.134 152.519 528.602C152.519 529.071 152.924 529.455 153.414 529.455ZM157.591 534.078C157.591 532.651 158.475 531.841 159.679 531.841C160.846 531.841 161.554 532.603 161.554 533.886V539H162.811V533.801C162.811 531.713 161.698 530.712 160.042 530.712C158.806 530.712 158.039 531.266 157.655 532.097H157.549V530.818H156.334V539H157.591V534.078ZM168.198 539.17C169.775 539.17 170.307 538.19 170.584 537.743H170.734V539H171.948V528.091H170.691V532.118H170.584C170.307 531.692 169.817 530.712 168.219 530.712C166.153 530.712 164.725 532.352 164.725 534.93C164.725 537.53 166.153 539.17 168.198 539.17ZM168.369 538.041C166.792 538.041 165.982 536.656 165.982 534.909C165.982 533.183 166.771 531.841 168.369 531.841C169.903 531.841 170.712 533.077 170.712 534.909C170.712 536.763 169.881 538.041 168.369 538.041ZM180.497 539H181.733L183.523 532.714H183.651L185.441 539H186.676L189.169 530.818H187.848L186.08 537.061H185.995L184.269 530.818H182.926L181.179 537.082H181.094L179.326 530.818H178.005L180.497 539ZM193.877 539.17C196.093 539.17 197.584 537.487 197.584 534.952C197.584 532.395 196.093 530.712 193.877 530.712C191.661 530.712 190.169 532.395 190.169 534.952C190.169 537.487 191.661 539.17 193.877 539.17ZM193.877 538.041C192.194 538.041 191.426 536.592 191.426 534.952C191.426 533.311 192.194 531.841 193.877 531.841C195.56 531.841 196.327 533.311 196.327 534.952C196.327 536.592 195.56 538.041 193.877 538.041ZM199.503 539H200.76V533.822C200.76 532.714 201.634 531.905 202.827 531.905C203.163 531.905 203.509 531.969 203.594 531.99V530.712C203.45 530.701 203.12 530.69 202.934 530.69C201.953 530.69 201.101 531.244 200.803 532.054H200.718V530.818H199.503V539ZM205.084 539H206.341V535.937L207.22 535.122L210.283 539H211.881L208.168 534.312L211.625 530.818H210.07L206.49 534.462H206.341V528.091H205.084V539ZM220.786 539.17C223.002 539.17 224.493 537.487 224.493 534.952C224.493 532.395 223.002 530.712 220.786 530.712C218.57 530.712 217.079 532.395 217.079 534.952C217.079 537.487 218.57 539.17 220.786 539.17ZM220.786 538.041C219.103 538.041 218.336 536.592 218.336 534.952C218.336 533.311 219.103 531.841 220.786 531.841C222.469 531.841 223.236 533.311 223.236 534.952C223.236 536.592 222.469 538.041 220.786 538.041ZM227.669 534.078C227.669 532.651 228.554 531.841 229.757 531.841C230.924 531.841 231.632 532.603 231.632 533.886V539H232.89V533.801C232.89 531.713 231.776 530.712 230.12 530.712C228.884 530.712 228.117 531.266 227.733 532.097H227.627V530.818H226.412V539H227.669V534.078ZM236.444 528.091H235.187V539H236.444V528.091ZM238.746 539H240.003V530.818H238.746V539ZM239.385 529.455C239.876 529.455 240.28 529.071 240.28 528.602C240.28 528.134 239.876 527.75 239.385 527.75C238.895 527.75 238.491 528.134 238.491 528.602C238.491 529.071 238.895 529.455 239.385 529.455ZM243.563 534.078C243.563 532.651 244.447 531.841 245.651 531.841C246.818 531.841 247.526 532.603 247.526 533.886V539H248.783V533.801C248.783 531.713 247.67 530.712 246.013 530.712C244.777 530.712 244.01 531.266 243.627 532.097H243.52V530.818H242.306V539H243.563V534.078ZM254.511 539.17C256.173 539.17 257.387 538.339 257.771 537.104L256.556 536.763C256.237 537.615 255.496 538.041 254.511 538.041C253.035 538.041 252.018 537.088 251.959 535.335H257.898V534.803C257.898 531.756 256.087 530.712 254.383 530.712C252.167 530.712 250.697 532.459 250.697 534.973C250.697 537.487 252.146 539.17 254.511 539.17ZM251.959 534.249C252.044 532.975 252.945 531.841 254.383 531.841C255.746 531.841 256.62 532.864 256.62 534.249H251.959Z" fill="black"/>
</svg>
